/* XPM */
static char *spec[] = {
/* columns rows colors chars-per-pixel */
"16 16 4 1",
"  c #6F6F6F",
". c #0000F0",
"X c #F0F0A8",
"o c gray100",
/* pixels */
"oooooooooooooooo",
"oooooooooooooooo",
"ooo          ooo",
"ooo XXXXXXXX ooo",
"ooo XXXXXXXX ooo",
"ooo X......X ooo",
"ooo XXXXXXXX ooo",
"ooo X......X ooo",
"ooo XXXXXXXX ooo",
"ooo X......X ooo",
"ooo XXXXXXXX ooo",
"ooo X......X ooo",
"ooo XXXXXXXX ooo",
"ooo          ooo",
"oooooooooooooooo",
"oooooooooooooooo"
};
