/* XPM */
static char * stock_ok_xpm[] = {
"24 24 25 1",
" 	c None",
".	c #000000",
"+	c #B3C2A7",
"@	c #708C58",
"#	c #859D71",
"$	c #627B4D",
"%	c #97AB86",
"&	c #4F644C",
"*	c #566C43",
"=	c #A2BD9E",
"-	c #789774",
";	c #445642",
">	c #88AC84",
",	c #374636",
"'	c #364534",
")	c #5E764A",
"!	c #718F6E",
"~	c #576F55",
"{	c #1B231A",
"]	c #6D8855",
"^	c #668050",
"/	c #688465",
"(	c #6D8956",
"_	c #5F7952",
":	c #698566",
"                        ",
"                        ",
"                        ",
"                        ",
"                        ",
"                        ",
"               ..       ",
"              .+@.      ",
"              .#$.      ",
"             .%@&.      ",
"       ..    .#*.       ",
"      .=-.  .#@;.       ",
"      .>>,. .@*.        ",
"       .>-'.)@..        ",
"       .!>~{]*.         ",
"        .>>*^;.         ",
"        ./>(_.          ",
"         .>>..          ",
"          .:.           ",
"          ...           ",
"           .            ",
"                        ",
"                        ",
"                        "};
