/* XPM */
static char *no_marks[]={
"16 16 4 1",
"# c None",
". c None",
"a c #303030",
"b c #808080",
".####...........",
".#####..........",
"###aa#..........",
".#abba..........",
".#abbaaa#.......",
"..#aa#..aaa#aa##",
"...#a.....#abba#",
"...#a.....#abba#",
"...#a.....#aaa##",
"...#a.....a####.",
"..##.a#..a##....",
"...##aa#a###....",
"...#abba###.....",
"...#abba#.......",
"...##aa##.......",
"....####........"};
