/* XPM */
static char *pan_cursor[]={
"16 16 5 1",
". c None",
"# c #000000",
"b c #131313",
"c c #141414",
"a c #ffffff",
"................",
"................",
"........##......",
"......##a###....",
".....#a#a#a##...",
".....#a#a#a#a#..",
"....#ba#a#a#a#..",
"...#a#a#a#a#a#..",
"..#aa#aaaaaaa#..",
"..#aa#aaaaaaa#..",
"..#aaaaaaaaaa#..",
"..#aaaaaaaaaa#..",
"..caaaaaaaaaa#..",
"...##########...",
"................",
"................"};
