/* XPM */
static char *pan_tool[]={
"16 16 19 1",
"# c None",
". c None",
"a c #000000",
"i c #131313",
"p c #141414",
"c c #313131",
"d c #444444",
"g c #585858",
"e c #767676",
"f c #797979",
"m c #818181",
"q c #939393",
"j c #c0c0c0",
"n c #c9c9c9",
"h c #dadada",
"k c #dcdcdc",
"l c #e3e3e3",
"o c #ececec",
"b c #ffffff",
"................",
"................",
".......#aa......",
".....#aabaaa#...",
".....abcbdbaa#..",
".....abebfbgha..",
"...#aibjbjbjha..",
"..#akabbbbbbha..",
"..albmbnbnbnha..",
"..abbjbhbonoha..",
"..abbbbbbbboha..",
"..aobbbbbbooha..",
"..penhhhhhhhqa..",
"..#aaaaaaaaaa#..",
"................",
"................"};
