/* XPM */
static char *select_tool[]={
"16 16 6 1",
"# c None",
". c None",
"a c #000000",
"d c #d1d1d1",
"b c #e7e7e7",
"c c #ffffff",
".....##.........",
".....a##........",
".....aa##.......",
".....aba##......",
".....acba##.....",
".....accba##....",
".....acccba###..",
".....accccba##..",
".....acccccda#..",
".....acccbaa#...",
".....abaaca#....",
".....aa#ada#....",
".....#..#aca....",
"........#ada....",
".........#a#....",
"................"};
