/* XPM */
static char *settings32[]={
"32 32 319 2",
"Qt c None",
".p c #050505",
"#p c #05090f",
"cF c #0b0e0f",
"c8 c #171611",
".l c #212d36",
".G c #263641",
".a c #020202",
".N c #02060c",
".# c #030303",
"ca c #0b0a07",
".B c #010101",
"#Y c #020202",
"c3 c #02040a",
"c7 c #211f1e",
".f c #2a2a26",
".q c #3c3a39",
"aO c #585548",
".v c #010101",
"a. c #1c1c19",
".e c #1d2932",
"bW c #04070c",
"aq c #0f0e0c",
"#B c #1b1a19",
"a# c #1f1e1c",
"aV c #201f1d",
".k c #252422",
".1 c #262626",
"b1 c #2c2a25",
"bj c #3b3a37",
"#X c #5c5a54",
".o c #61605e",
".R c #000000",
".Y c #02060a",
"aP c #040404",
"cP c #04090e",
"cl c #090b0c",
"cG c #0b1c2b",
".F c #0f0d0b",
"#Z c #0f0e0d",
".d c #1a1918",
".A c #292925",
"#T c #2b2721",
"#0 c #2c2b28",
"aE c #33312f",
"ag c #38352f",
"#d c #464541",
"#1 c #514a44",
"aB c #040403",
"ar c #0b0a0a",
"c4 c #0d161d",
"ba c #131210",
"## c #161819",
"cv c #16191f",
"c2 c #171a1a",
"cE c #1a1e20",
"cO c #1a1f22",
"cW c #202220",
"#o c #222525",
"a5 c #232628",
"bX c #282624",
"cb c #2a2d2f",
"bk c #2d2f32",
"by c #303438",
"bN c #313840",
"#U c #323131",
"b2 c #333538",
"#C c #363636",
"#G c #3e3f3a",
".S c #4d4f51",
"ah c #4f4943",
".H c #5b6369",
".m c #5c656b",
".w c #5e656a",
"a4 c #8c8881",
"#j c #000000",
"c# c #252427",
"aF c #262523",
"aQ c #2c3035",
".M c #34393d",
"#e c #646360",
".b c #6a6a69",
".c c #7d7d7a",
"bG c #010b15",
"br c #020d17",
"bU c #072037",
"cs c #09243b",
"ci c #0b273f",
"bF c #0b2745",
"b9 c #0e233a",
"#H c #161616",
"cM c #162a3a",
"c6 c #171c1c",
"ct c #172d3f",
"c5 c #181f21",
"cC c #182b3f",
"cj c #1e3346",
"cB c #1e384d",
"bV c #222e3e",
"cX c #223240",
"cL c #283f52",
"bq c #294962",
"b# c #2b2e2c",
"cU c #2d3d48",
"c1 c #2e383a",
"cV c #304049",
"bE c #304d66",
"bT c #344d63",
"bw c #35332f",
"aS c #363e44",
"ap c #373633",
"cN c #38434c",
"cD c #38444d",
"bs c #393835",
"cu c #394047",
"c. c #3a4b59",
"#A c #3c3b39",
"as c #3d3b39",
"aW c #3f3d3b",
"ck c #434747",
"b. c #435769",
".C c #44423f",
"bH c #46443e",
"cY c #465a68",
"b8 c #466178",
"#M c #4c4943",
"aT c #514f49",
".O c #524f4c",
".6 c #545453",
".2 c #555351",
"cZ c #576974",
"cT c #596c7b",
"aU c #5a564b",
"aC c #5c5c5a",
"ch c #5f778c",
"#8 c #605e5a",
"c0 c #606b6c",
"bp c #617b91",
"bM c #62615d",
"bP c #62788a",
"#k c #646361",
"cS c #64798c",
"at c #65635f",
"bA c #657a8d",
".j c #666460",
"aa c #686660",
"b4 c #687c8d",
"cr c #688196",
"#N c #69665f",
"aN c #6a6761",
".r c #6a6967",
"bY c #6c6963",
"cd c #6c7f91",
"bn c #6c8396",
"cA c #6c8398",
"bb c #6d685f",
"cK c #6d8599",
"aR c #6e767d",
"bm c #708392",
"cR c #71889c",
"a6 c #727d87",
"bQ c #748da1",
"cm c #757e86",
"ce c #758da2",
"#F c #79756b",
"#9 c #797873",
"bB c #7993a8",
"b5 c #7c94a9",
".X c #7e7d75",
"b6 c #809ab0",
"cf c #819bb3",
"a9 c #8299ae",
"#a c #838281",
"bR c #849db2",
"bD c #859aac",
"#I c #868684",
"co c #8699aa",
"b0 c #87837d",
".u c #88867e",
"#. c #888982",
"a8 c #889dae",
"bK c #8a8884",
".g c #8a8986",
"bo c #8a9eaf",
"bt c #8b8884",
"aD c #8c8981",
"a7 c #8c9eae",
"bl c #8d98a2",
"cQ c #8da0b2",
"bz c #8ea1af",
"bC c #8ea5b9",
"aA c #8f8c85",
"#i c #8f8c86",
"bO c #91a1ae",
"cn c #91a2b2",
"b7 c #91a5b7",
"bx c #928e85",
".n c #92928f",
"#c c #949391",
"cg c #94aabc",
"cJ c #95a8b6",
".5 c #97948d",
"bS c #97acbf",
"ao c #98968e",
"aG c #99958f",
"#2 c #9a9792",
"b3 c #9aa9b6",
"cp c #9aafc0",
"cI c #9bafbf",
"cq c #9bafc1",
"#z c #9e9b92",
"#7 c #9e9c94",
".Z c #9e9d9a",
"ai c #9f9c95",
".0 c #a09e99",
"#W c #a19f98",
"#q c #a1a19f",
"cc c #a2acb6",
"#L c #a39f95",
"#w c #a3a097",
"#S c #a3a19b",
"bI c #a7a59f",
"bZ c #aaa7a0",
"#n c #aba79e",
"bi c #aca8a0",
"cx c #adbcca",
"cz c #b1c1cf",
".L c #b3afa5",
"#h c #b4b0a8",
"a3 c #b4b2a9",
"bv c #b5b1a8",
"bh c #b7b4ad",
".Q c #bbb8b0",
"bJ c #bbb9b4",
"cH c #bbcad7",
"#V c #bdbcbb",
"#v c #beb9b1",
".4 c #bebab2",
".E c #c2bfb7",
".i c #c2bfb8",
"cy c #c2cfdd",
"#E c #c3bfb2",
".z c #c3c3c1",
"#O c #c4c1b8",
"cw c #c4d1dc",
"bg c #c7c2b7",
"aK c #c7c3b6",
"ax c #c8c4bc",
"al c #c8c5bc",
"ae c #c9c4b9",
"aM c #c9c6c0",
"ad c #cbc6bb",
"a1 c #cbc7be",
"bf c #cbc7bf",
"#Q c #cbc8c1",
".t c #ccc8c1",
"#x c #ccc9c2",
"a0 c #cdc8bf",
"#5 c #cdc8c0",
"az c #cdcbc3",
"#y c #cec9bf",
"am c #cecac4",
".s c #cecbc6",
"af c #cfccc6",
"#R c #d0cec7",
"au c #d1cec8",
"ay c #d2cec6",
"aL c #d3cfc7",
"aJ c #d3d0c8",
"#P c #d3d0c9",
"a2 c #d4d0c6",
".3 c #d4d2cf",
"aX c #d5d3cc",
"#4 c #d6d0c3",
"bc c #d7d5cf",
".T c #d7d8d8",
"aw c #d8d5cc",
"ab c #d8d5cf",
".x c #d8d9d8",
".h c #d9d6cf",
".J c #d9d9d7",
".W c #d9dad9",
"#6 c #dad7cf",
"be c #dad7d0",
"#m c #dad7d2",
".y c #dad8d5",
".K c #dad9d5",
"#u c #dbd7d1",
"#3 c #dbd9d4",
"#b c #dddbd8",
"#f c #dddcd9",
"an c #dedcd6",
"bL c #deddd9",
"aH c #dfdcd7",
".U c #dfe1e0",
"#s c #e0e0dd",
"aj c #e1ded7",
"aZ c #e1ded8",
"ak c #e1dfd3",
".9 c #e1dfda",
".D c #e1e0db",
"#g c #e2dfdb",
".8 c #e2e2e0",
".V c #e2e4e5",
"ac c #e3e0d9",
"#K c #e5e2dd",
".P c #e5e3de",
".I c #e5e5e3",
"aI c #e6e4de",
"bu c #e7e5df",
"#r c #e7e5e1",
"av c #e8e5df",
"bd c #e8e6e1",
"aY c #ebe9e4",
".7 c #ecebe8",
"#t c #ececea",
"#l c #ededea",
"#D c #efede7",
"#J c #f1f0ed",
"QtQtQtQtQtQtQtQtQtQtQtQtQtQtQtQtQtQtQtQtQtQtQtQtQtQtQtQtQtQtQtQt",
"QtQtQtQtQtQtQtQtQtQtQtQtQtQtQtQtQtQtQtQtQtQtQtQtQtQtQtQtQtQtQtQt",
"QtQtQtQtQtQtQt.#.#QtQtQtQtQtQtQtQtQtQtQtQtQtQtQtQtQtQtQtQtQtQtQt",
"QtQtQtQtQtQt.a.b.c.dQtQtQtQtQtQtQtQtQtQtQtQtQtQt.eQtQtQtQtQtQtQt",
"QtQtQtQtQtQt.f.g.h.i.j.kQtQtQtQtQtQtQtQtQtQt.l.m.n.o.#QtQtQtQtQt",
"QtQtQtQtQtQt.p.q.r.s.t.u.vQtQtQtQtQtQtQtQtQt.w.x.y.z.AQtQtQtQtQt",
"QtQtQtQtQtQtQtQt.B.C.D.E.FQtQtQtQtQtQtQt.G.H.I.J.K.L.M.NQtQtQtQt",
"QtQtQt.v.vQtQtQt.B.O.P.Q.RQtQtQtQtQtQtQt.S.T.U.V.W.X.YQtQtQtQtQt",
"QtQt.B.Z.0.1Qt.#.2.3.4.5.RQtQtQtQtQtQtQt.6.7.8.9#.##QtQtQtQtQtQt",
"QtQt.B#a#b#c#d#e#f#g#h#i#j.aQtQtQtQtQtQt#k#l#m#n#o#pQtQtQtQtQtQt",
"QtQt.a#j#q#r#s#t#u#v#w#x#y#z#A#BQtQt.p#C#D#E#F#GQtQtQtQtQtQtQtQt",
"QtQtQt.##H#I#J#K#L#M#N#O#P#Q#R#S#T.a#U#V#W#X#Y.pQtQtQtQtQtQtQtQt",
"QtQtQtQtQt.v#Z#0.vQt.R#1#2#3#4#5#6#7#8#9a.QtQtQtQtQtQtQtQtQtQtQt",
"QtQtQtQtQtQtQtQtQtQtQtQta#aaabacadaeaf#Wag.RQtQtQtQtQtQtQtQtQtQt",
"QtQtQtQtQtQtQtQtQtQtQtQtQt.vahaiajakalamanaoapaqQtQtQtQtQtQtQtQt",
"QtQtQtQtQtQtQtQtQtQtQtQtQtQtarasatauavawaxayazaA.vQtQtQtQtQtQtQt",
"QtQtQtQtQtQtQtQtQtQtQt.##YaBaCaDaEaFaGaHaIaJaKaLaMaNaO.pQtQtQtQt",
"QtQtQtQtQtQtQtQtQtQtaPaQaRaSaTaUQt.#aVaWaXaYaZa0a1a2a3a4.vQtQtQt",
"QtQtQtQtQtQtQtQt.pa5a6a7a8a9b.b#QtQtQtQtbabbbcbdbebfbgbhbibjQtQt",
"QtQtQtQtQtQtQtQtbkblbmbnbobpbqbrQtQtQtQt.p#Ybsbt#rbubvbwbx#kQtQt",
"QtQtQtQtQtQt.pbybzbAbBbCbDbEbFbGQtQtQtQtQtQtQt.vbHbIbJbKbLbMQtQt",
"QtQtQtQtQtQtbNbObPbQbRbSbTbUbVbWQtQtQtQtQtQtQtQt#YbXbYbZb0b1QtQt",
"QtQtQtQt.pb2b3b4b5b6b7b8b9c.c#caQtQtQtQtQtQtQtQtQtQt.a.R.vQtQtQt",
"QtQtQtQtcbcccdcecfcgchcicjckclQtQtQtQtQtQtQtQtQtQtQtQtQtQtQtQtQt",
"QtQtQt.#cmcncocpcqcrcsctcucvQtQtQtQtQtQtQtQtQtQtQtQtQtQtQtQtQtQt",
"QtQtQt.RcwcxcyczcAcBcCcDcEcFQtQtQtQtQtQtQtQtQtQtQtQtQtQtQtQtQtQt",
"QtQtQtcGcHcIcJcKcLcMcNcOQtQtQtQtQtQtQtQtQtQtQtQtQtQtQtQtQtQtQtQt",
"QtQtQtcPcQcRcScTcUcVcWcFQtQtQtQtQtQtQtQtQtQtQtQtQtQtQtQtQtQtQtQt",
"QtQtQtQtcXcYcZc0c1c2QtQtQtQtQtQtQtQtQtQtQtQtQtQtQtQtQtQtQtQtQtQt",
"QtQtQtQtc3c4c5c6c7c8QtQtQtQtQtQtQtQtQtQtQtQtQtQtQtQtQtQtQtQtQtQt",
"QtQtQtQtQtQtQtQtQtQtQtQtQtQtQtQtQtQtQtQtQtQtQtQtQtQtQtQtQtQtQtQt",
"QtQtQtQtQtQtQtQtQtQtQtQtQtQtQtQtQtQtQtQtQtQtQtQtQtQtQtQtQtQtQtQt"};
