/* XPM */
static char *zoom_cursor_mask[]={
"16 16 4 1",
"# c #000000",
"b c #1f1f1f",
"a c #262626",
". c #ff0000",
"....####........",
"..#a######......",
".##########.....",
".##########.....",
"############....",
"############....",
"############....",
"############....",
".##########.....",
".##########.....",
"..###########...",
"....####..bb##..",
"..........#####.",
"...........#####",
"............####",
".............##."};
