/* XPM */
static char *zoom_cursor[]={
"16 16 6 1",
". c None",
"# c #000000",
"a c #262626",
"d c #f9f9f9",
"c c #fbfbfb",
"b c #ffffff",
"....####........",
"..#abbbb##......",
".##bbbbcb##.....",
".#bbbbbccb#.....",
"#bbbbbbbbcb#....",
"#bbbbbbbccb#....",
"#bbbbbbcccb#....",
"#bcbbbccccb#....",
".#bcccccdb#.....",
".##bccccb##.....",
"..##bbbb#####...",
"....####..####..",
"..........#####.",
"...........#####",
"............####",
".............##."};
