/* XPM */
static const char *x113[] = {
/* columns rows colors chars-per-pixel */
"32 32 89 1",
"  c black",
". c #01FC01FC01FC",
"X c #029402940294",
"o c #045804580458",
"O c #052E052E052E",
"+ c #06E106E106E1",
"@ c #08A708A708A7",
"# c #0A7C0A7C0A7C",
"$ c #0B5A0B5A0B5A",
"% c #0DBE0DBE0DBE",
"& c #0ED50ED50ED5",
"* c #103410341034",
"= c #115F115F115F",
"- c #141314131413",
"; c #152115211521",
": c #16C316C316C3",
"> c #1C5C1C5C1C5C",
", c #1CB81CB81CB8",
"< c #1E231E231E23",
"1 c #1EFA1EFA1EFA",
"2 c #229122912291",
"3 c #231223122312",
"4 c #241724172417",
"5 c #296029602960",
"6 c #336433643364",
"7 c #34A134A134A1",
"8 c #356A356A356A",
"9 c #3C443C443C44",
"0 c #3CC23CC23CC2",
"q c #400F400F400F",
"w c #42BE42BE42BE",
"e c #433D433D433D",
"r c #471B471B471B",
"t c #4F044F044F04",
"y c #500250025002",
"u c #539C539C539C",
"i c #587858785878",
"p c #5B9D5B9D5B9D",
"a c #5FE75FE75FE7",
"s c #63AC63AC63AC",
"d c #641064106410",
"f c #6A946A946A94",
"g c #6B996B996B99",
"h c #742C742C742C",
"j c #76CA76CA76CA",
"k c #798579857985",
"l c #7B617B617B61",
"z c #7DD77DD77DD7",
"x c #7EEB7EEB7EEB",
"c c #7FFF7FFF7FFF",
"v c #80A280A280A2",
"b c #820C820C820C",
"n c #83FC83FC83FC",
"m c #853A853A853A",
"M c #8A0C8A0C8A0C",
"N c #92FE92FE92FE",
"B c #9A549A549A54",
"V c #A524A524A524",
"C c #ABF2ABF2ABF2",
"Z c #ACBAACBAACBA",
"A c #B562B562B562",
"S c #B775B775B775",
"D c #B8C9B8C9B8C9",
"F c #BC97BC97BC97",
"G c #BF9FBF9FBF9F",
"H c #C675C675C675",
"J c #C7D8C7D8C7D8",
"K c #C919C919C919",
"L c #CD1ECD1ECD1E",
"P c #D5E3D5E3D5E3",
"I c #DBB7DBB7DBB7",
"U c #E0E7E0E7E0E7",
"Y c #E1E6E1E6E1E6",
"T c #E273E273E273",
"R c #E8EFE8EFE8EF",
"E c #EAE0EAE0EAE0",
"W c #EBB7EBB7EBB7",
"Q c #EEA3EEA3EEA3",
"! c #F141F141F141",
"~ c #F2FAF2FAF2FA",
"^ c #F3ECF3ECF3EC",
"/ c #F4DDF4DDF4DD",
"( c #F768F768F768",
") c #FA9CFA9CFA9C",
"_ c #FBF9FBF9FBF9",
"` c #FCCEFCCEFCCE",
"' c #FDD7FDD7FDD7",
"] c #FEF2FEF2FEF2",
"[ c gray100",
/* pixels */
"[[[[[[[[[[[[[[[[[[[[[[[[[[[[[[[[",
"[[[[[[[[[[[[[[[[[[[[[[[[[[[[[[[[",
"[[[[[[[[[[[[[[[[[[[[[[[[[[[[[[[[",
"[[[[[[[[[[[[[[[[[[[[[[[[[[[[[[[[",
"[[[[[[[[[[[[[[[[[[[[[[[[[[[[[[[[",
"[[[[[[[[[[[[[[[[[[[[[[[[[[[[[[[[",
"[[[[[[[[[[[[[[[[[[[[[[[[[[[[[[[[",
"[[[[[[[[[[[[[[[[[[[[[[[[[[[[[[[[",
"[[[[[[[[[[[[[[[[[[[[[[[[[[[[[[[[",
"[[[[[[[[[[[[[[[[[[[[[[[[[[[[[[[[",
"[[[[[[[[[[[[ECvvCE[IAG/[[[[[[[[[",
"[[[[[[[[[[_V8O  OrUv 2U[[[[[[[[[",
"[[[[[[[[[[B%  :<@ rs <U[[[[[[[[[",
"[[[[[[[[[I4 %zPUGtO* <U[[[[[[[[[",
"[[[[[[[[[M @N[[[[^p  <U[[[[[[[[[",
"[[[[[[[[/e e^[[[[[J* <U[[[[[[[[[",
"[[[[[[[[U< l[[[[[[^9 <U[[[[[[[[[",
"[[[[[[[[U< v[[[[[[[i <U[[[[[[[[[",
"[[[[[[[[U2 z[[[[[[[l <U[[[[[[[[[",
"[[[[[[[[U< z[[[[[[[i <U[[[[[[[[[",
"[[[[[[[[Q8 u_[[[[[^9 <U[[[[[[[[[",
"[[[[[[[[[j :K[[[[[Z@ <U[[[[[[[[[",
"[[[[[[[[[K: 9L[[_A4  <U[[[[[[[[[",
"[[[[[[[[[[v  <svp:O: <U[[[[[[[[[",
"[[[[[[[[[[^h%     tg <U[[[[[[[[[",
"[[[[[[[[[[[_Ai5<8mQv <U[[[[[[[[[",
"[[[[[[[[[[[[[_RIQ[[v <U[[[[[[[[[",
"[[[[[[[[[[[[[[[[[[[v <U[[[[[[[[[",
"[[[[[[[[[[[[[[[[[[[z <U[[[[[[[[[",
"[[[[[[[[[[[[[[[[[[[v <U[[[[[[[[[",
"[[[[[[[[[[[[[[[[[[[z <U[[[[[[[[[",
"[[[[[[[[[[[[[[[[[[[DgvQ[[[[[[[[["
};
