/* XPM */
static const char *x115[] = {
/* columns rows colors chars-per-pixel */
"32 32 106 2",
"   c #000600060006",
".  c #011201120112",
"X  c #021502150215",
"o  c #02F902F902F9",
"O  c #03A103A103A1",
"+  c #052605260526",
"@  c #065006500650",
"#  c #088508850885",
"$  c #09F809F809F8",
"%  c #0B1F0B1F0B1F",
"&  c #0C1E0C1E0C1E",
"*  c #0D840D840D84",
"=  c #0FC10FC10FC1",
"-  c #10C510C510C5",
";  c gray7",
":  c #144814481448",
">  c #170417041704",
",  c #1A4D1A4D1A4D",
"<  c #1B411B411B41",
"1  c #1C4A1C4A1C4A",
"2  c #1D751D751D75",
"3  c #1EB31EB31EB3",
"4  c #214A214A214A",
"5  c #232223222322",
"6  c #294929492949",
"7  c #2B052B052B05",
"8  c #2BE72BE72BE7",
"9  c #316431643164",
"0  c #327532753275",
"q  c #340F340F340F",
"w  c #355F355F355F",
"e  c #394739473947",
"r  c #3A9E3A9E3A9E",
"t  c #3B4B3B4B3B4B",
"y  c #40D840D840D8",
"u  c #42A942A942A9",
"i  c #42D742D742D7",
"p  c #4D864D864D86",
"a  c #541254125412",
"s  c #56EE56EE56EE",
"d  c #582758275827",
"f  c #5B4E5B4E5B4E",
"g  c #5F985F985F98",
"h  c #63CD63CD63CD",
"j  c #645364536453",
"k  c #654F654F654F",
"l  c #66C266C266C2",
"z  c #6FEC6FEC6FEC",
"x  c #712971297129",
"c  c #72DA72DA72DA",
"v  c #742B742B742B",
"b  c #76D076D076D0",
"n  c #7F617F617F61",
"m  c #80AE80AE80AE",
"M  c #810781078107",
"N  c #862586258625",
"B  c #8A4C8A4C8A4C",
"V  c #8E008E008E00",
"C  c #959095909590",
"Z  c #9BAC9BAC9BAC",
"A  c #A1BCA1BCA1BC",
"S  c #A524A524A524",
"D  c #A7FEA7FEA7FE",
"F  c #A9D4A9D4A9D4",
"G  c #AC75AC75AC75",
"H  c #B2F0B2F0B2F0",
"J  c #B423B423B423",
"K  c #B52DB52DB52D",
"L  c #B59BB59BB59B",
"P  c #B72AB72AB72A",
"I  c #B796B796B796",
"U  c #BB03BB03BB03",
"Y  c #BC6ABC6ABC6A",
"T  c #BD52BD52BD52",
"R  c #BE73BE73BE73",
"E  c #C09FC09FC09F",
"W  c #C331C331C331",
"Q  c #C863C863C863",
"!  c #CB0ACB0ACB0A",
"~  c #CDBCCDBCCDBC",
"^  c #D4C7D4C7D4C7",
"/  c #D6F5D6F5D6F5",
"(  c #D89CD89CD89C",
")  c #D971D971D971",
"_  c #DCD9DCD9DCD9",
"`  c #DE03DE03DE03",
"'  c #E1B1E1B1E1B1",
"]  c #E2E6E2E6E2E6",
"[  c #E379E379E379",
"{  c #E4CCE4CCE4CC",
"}  c #E5E8E5E8E5E8",
"|  c #E8C2E8C2E8C2",
" . c #EA31EA31EA31",
".. c #EC61EC61EC61",
"X. c #EE30EE30EE30",
"o. c #EF05EF05EF05",
"O. c #F35DF35DF35D",
"+. c #F50FF50FF50F",
"@. c #F669F669F669",
"#. c #F70EF70EF70E",
"$. c #FAEBFAEBFAEB",
"%. c #FC16FC16FC16",
"&. c #FCFEFCFEFCFE",
"*. c #FDE4FDE4FDE4",
"=. c #FF24FF24FF24",
"-. c gray100",
/* pixels */
"-.-.-.-.-.-.-.-.-.-.-.-.-.-.-.-.-.-.-.-.-.-.-.-.-.-.-.-.-.-.-.-.",
"-.-.-.-.-.-.-.-.-.-.-.-.-.-.-.-.-.-.-.-.-.-.-.-.-.-.-.-.-.-.-.-.",
"-.-.-.-.-.-.-.-.-.-.-.-.-.-.-.-.-.-.-.-.-.-.-.-.-.-.-.-.-.-.-.-.",
"-.-.-.-.-.-.-.-.-.-.-.-.-.-.-.-.-.-.-.-.-.-.-.-.-.-.-.-.-.-.-.-.",
"-.-.-.-.-.-.-.-.-.-.-.-.-.-.-.-.-.-.-.-.-.-.-.-.-.-.-.-.-.-.-.-.",
"-.-.-.-.-.-.-.-.-.-.-.-.-.-.-.-.-.-.-.-.-.-.-.-.-.-.-.-.-.-.-.-.",
"-.-.-.-.-.-.-.-.-.-.-.-.-.-.-.-.-.-.-.-.-.-.-.-.-.-.-.-.-.-.-.-.",
"-.-.-.-.-.-.-.-.-.-.-.-.-.-.-.-.-.-.-.-.-.-.-.-.-.-.-.-.-.-.-.-.",
"-.-.-.-.-.-.-.-.-.-.-.-.-.-.-.-.-.-.-.-.-.-.-.-.-.-.-.-.-.-.-.-.",
"-.-.-.-.-.-.-.-.-.-.-.-.-.-.-.-.-.-.-.-.-.-.-.-.-.-.-.-.-.-.-.-.",
"-.-.-.-.-.-.-.-.-.-.-.-. .L N n m S ) %.-.-.-.-.-.-.-.-.-.-.-.-.",
"-.-.-.-.-.-.-.-.-.-.%.S w @       @ , z { -.-.-.-.-.-.-.-.-.-.-.",
"-.-.-.-.-.-.-.-.-.-.L =     > 3 , @     g @.-.-.-.-.-.-.-.-.-.-.",
"-.-.-.-.-.-.-.-.-.@.p   5 C / ' ` G e   % E -.-.-.-.-.-.-.-.-.-.",
"-.-.-.-.-.-.-.-.-.' 3   c -.-.-.-.-.! 8 e H -.-.-.-.-.-.-.-.-.-.",
"-.-.-.-.-.-.-.-.-.{ 5   9 U X.-.-.-.-.{ O.-.-.-.-.-.-.-.-.-.-.-.",
"-.-.-.-.-.-.-.-.-.-.k     & 9 k Z ~ @.-.-.-.-.-.-.-.-.-.-.-.-.-.",
"-.-.-.-.-.-.-.-.-.-.` i           = i B ` -.-.-.-.-.-.-.-.-.-.-.",
"-.-.-.-.-.-.-.-.-.-.-.' m w =           6 Y -.-.-.-.-.-.-.-.-.-.",
"-.-.-.-.-.-.-.-.-.-.-.-.-.X.! V s 6 %     e X.-.-.-.-.-.-.-.-.-.",
"-.-.-.-.-.-.-.-.-.@.) Y  .-.-.-.%. .Y i   & E -.-.-.-.-.-.-.-.-.",
"-.-.-.-.-.-.-.-.-.^ 8 @ m -.-.-.-.-.-.F   @ L -.-.-.-.-.-.-.-.-.",
"-.-.-.-.-.-.-.-.-.X.e   , L %.-.-.-. .f   3 / -.-.-.-.-.-.-.-.-.",
"-.-.-.-.-.-.-.-.-.-.A %   > a n m c 9     v -.-.-.-.-.-.-.-.-.-.",
"-.-.-.-.-.-.-.-.-.-.@.v &             % k  .-.-.-.-.-.-.-.-.-.-.",
"-.-.-.-.-.-.-.-.-.-.-.%.L k 9 3 3 6 s H @.-.-.-.-.-.-.-.-.-.-.-.",
"-.-.-.-.-.-.-.-.-.-.-.-.-.-.X.' '  .%.-.-.-.-.-.-.-.-.-.-.-.-.-.",
"-.-.-.-.-.-.-.-.-.-.-.-.-.-.-.-.-.-.-.-.-.-.-.-.-.-.-.-.-.-.-.-.",
"-.-.-.-.-.-.-.-.-.-.-.-.-.-.-.-.-.-.-.-.-.-.-.-.-.-.-.-.-.-.-.-.",
"-.-.-.-.-.-.-.-.-.-.-.-.-.-.-.-.-.-.-.-.-.-.-.-.-.-.-.-.-.-.-.-.",
"-.-.-.-.-.-.-.-.-.-.-.-.-.-.-.-.-.-.-.-.-.-.-.-.-.-.-.-.-.-.-.-.",
"-.-.-.-.-.-.-.-.-.-.-.-.-.-.-.-.-.-.-.-.-.-.-.-.-.-.-.-.-.-.-.-."
};
