/* XPM */
static const char *x117[] = {
/* columns rows colors chars-per-pixel */
"32 32 47 1",
"  c black",
". c #010201020102",
"X c #0E340E340E34",
"o c #130013001300",
"O c #145A145A145A",
"+ c #1E281E281E28",
"@ c #1EFA1EFA1EFA",
"# c #207020702070",
"$ c #226E226E226E",
"% c #230323032303",
"& c #367336733673",
"* c #3CE13CE13CE1",
"= c #3DD63DD63DD6",
"- c #43B743B743B7",
"; c #44C644C644C6",
": c #53B253B253B2",
"> c #57CF57CF57CF",
", c #5E835E835E83",
"< c #602960296029",
"1 c #641964196419",
"2 c #7CE17CE17CE1",
"3 c #7EEB7EEB7EEB",
"4 c #7FFF7FFF7FFF",
"5 c #80D680D680D6",
"6 c #811581158115",
"7 c #825B825B825B",
"8 c #996299629962",
"9 c #A4CEA4CEA4CE",
"0 c #B387B387B387",
"q c #B587B587B587",
"w c #BF9FBF9FBF9F",
"e c #DB96DB96DB96",
"r c #DDAADDAADDAA",
"t c #E1E4E1E4E1E4",
"y c #E273E273E273",
"u c #E38EE38EE38E",
"i c #E4B5E4B5E4B5",
"p c #EA73EA73EA73",
"a c #F3F5F3F5F3F5",
"s c #F768F768F768",
"d c #F973F973F973",
"f c #FAB6FAB6FAB6",
"g c #FB91FB91FB91",
"h c #FD21FD21FD21",
"j c #FDC3FDC3FDC3",
"k c #FEF8FEF8FEF8",
"l c gray100",
/* pixels */
"llllllllllllllllllllllllllllllll",
"llllllllllllllllllllllllllllllll",
"llllllllllllllllllllllllllllllll",
"llllllllllllllllllllllllllllllll",
"llllllllllllllllllllllllllllllll",
"llllllllllllllllllllllllllllllll",
"llllllllllllllllllllllllllllllll",
"llllllllllllllllllllllllllllllll",
"llllllllllllllllllllllllllllllll",
"llllllllllllllllllllllllllllllll",
"lllllllllswqelllllleqwslllllllll",
"llllllllly$ 7llllll7 $ylllllllll",
"llllllllly+ 4llllll4 +ylllllllll",
"llllllllly+ 4llllll4 +ylllllllll",
"llllllllly+ 4llllll4 +ylllllllll",
"llllllllly+ 4llllll4 +ylllllllll",
"llllllllly+ 4llllll4 +ylllllllll",
"llllllllly+ 4llllll4 +ylllllllll",
"llllllllly+ 4llllll4 +ylllllllll",
"llllllllly+ 4llllll4 +rlllllllll",
"llllllllly+ 4llllll> +ylllllllll",
"llllllllly+ :fllllr$ +ylllllllll",
"llllllllla* O0lllr,  +ylllllllll",
"llllllllll7  o,7<$o& +ylllllllll",
"lllllllllly;     X82 +ylllllllll",
"llllllllllly7*+$:0l9;,plllllllll",
"lllllllllllllayyflllffllllllllll",
"llllllllllllllllllllllllllllllll",
"llllllllllllllllllllllllllllllll",
"llllllllllllllllllllllllllllllll",
"llllllllllllllllllllllllllllllll",
"llllllllllllllllllllllllllllllll"
};
