/* XPM */
static const char *x120[] = {
/* columns rows colors chars-per-pixel */
"32 32 79 1",
"  c #000400040004",
". c #017F017F017F",
"X c #01A801A801A8",
"o c #041504150415",
"O c #051A051A051A",
"+ c #05EF05EF05EF",
"@ c #069C069C069C",
"# c #087608760876",
"$ c #0CB60CB60CB6",
"% c #0EA60EA60EA6",
"& c #0FB70FB70FB7",
"* c #151A151A151A",
"= c #1C511C511C51",
"- c #1DCE1DCE1DCE",
"; c #21C921C921C9",
": c #233423342334",
"> c #29B229B229B2",
", c #2B272B272B27",
"< c #2C062C062C06",
"1 c #2E632E632E63",
"2 c #30B030B030B0",
"3 c #33D033D033D0",
"4 c #3CFB3CFB3CFB",
"5 c #3E193E193E19",
"6 c #412F412F412F",
"7 c #47F847F847F8",
"8 c #49ED49ED49ED",
"9 c #4F954F954F95",
"0 c #50CE50CE50CE",
"q c #513051305130",
"w c #598859885988",
"e c #5CA45CA45CA4",
"r c #684F684F684F",
"t c #6F796F796F79",
"y c #744474447444",
"u c #7FD57FD57FD5",
"i c #82B982B982B9",
"p c #84C584C584C5",
"a c #908690869086",
"s c #9B959B959B95",
"d c #9FC99FC99FC9",
"f c #A0C6A0C6A0C6",
"g c #A5FCA5FCA5FC",
"h c #A8B9A8B9A8B9",
"j c #ACD9ACD9ACD9",
"k c #AF79AF79AF79",
"l c #B035B035B035",
"z c #B5AEB5AEB5AE",
"x c #B655B655B655",
"c c #BA02BA02BA02",
"v c #BC83BC83BC83",
"b c #BED0BED0BED0",
"n c #C07DC07DC07D",
"m c #C303C303C303",
"M c #C47AC47AC47A",
"N c #CD1ACD1ACD1A",
"B c #D432D432D432",
"V c #D63AD63AD63A",
"C c #D763D763D763",
"Z c #D9EDD9EDD9ED",
"A c #DFEEDFEEDFEE",
"S c #E23EE23EE23E",
"D c #E28EE28EE28E",
"F c #E3ADE3ADE3AD",
"G c #E6E6E6E6E6E6",
"H c #E895E895E895",
"J c #EAD7EAD7EAD7",
"K c #F021F021F021",
"L c #F14CF14CF14C",
"P c #F33AF33AF33A",
"I c #F5A0F5A0F5A0",
"U c #F77CF77CF77C",
"Y c #FA55FA55FA55",
"T c #FADCFADCFADC",
"R c #FBC6FBC6FBC6",
"E c #FD5EFD5EFD5E",
"W c #FE38FE38FE38",
"Q c #FEA1FEA1FEA1",
"! c gray100",
/* pixels */
"!!!!!!!!!!!!!!!!!!!!!!!!!!!!!!!!",
"!!!!!!!!!!!!!!!!!!!!!!!!!!!!!!!!",
"!!!!!!!!!!!!!!!!!!!!!!!!!!!!!!!!",
"!!!!!!!!!!!!!!!!!!!!!!!!!!!!!!!!",
"!!!!!!!!!!!!!!!!!!!!!!!!!!!!!!!!",
"!!!!!!!!!!!!!!!!!!!!!!!!!!!!!!!!",
"!!!!!!!!!!!!!!!!!!!!!!!!!!!!!!!!",
"!!!!!!!!!!!!!!!!!!!!!!!!!!!!!!!!",
"!!!!!!!!!!!!!!!!!!!!!!!!!!!!!!!!",
"!!!!!!!!!!!!!!!!!!!!!!!!!!!!!!!!",
"!!!!!!!!!SxxB!!!!!!KvxmT!!!!!!!!",
"!!!!!!!!!Z< ,V!!!!!yoop!!!!!!!!!",
"!!!!!!!!!!f# 0L!!!k% 9K!!!!!!!!!",
"!!!!!!!!!!Ur oa!!V, :N!!!!!!!!!!",
"!!!!!!!!!!!S3 -NUe #f!!!!!!!!!!!",
"!!!!!!!!!!!!k% 0io rU!!!!!!!!!!!",
"!!!!!!!!!!!!Tt oo 3S!!!!!!!!!!!!",
"!!!!!!!!!!!!!S3  *c!!!!!!!!!!!!!",
"!!!!!!!!!!!!!Tw  <G!!!!!!!!!!!!!",
"!!!!!!!!!!!!!k%   u!!!!!!!!!!!!!",
"!!!!!!!!!!!!V, :< *v!!!!!!!!!!!!",
"!!!!!!!!!!!Le %gm* 6J!!!!!!!!!!!",
"!!!!!!!!!!!ao tT!u  u!!!!!!!!!!!",
"!!!!!!!!!!m- 5S!!J6 &l!!!!!!!!!!",
"!!!!!!!!!G5 *v!!!!m= 2A!!!!!!!!!",
"!!!!!!!!!j77s!!!!!!d77g!!!!!!!!!",
"!!!!!!!!!TTT!!!!!!!!TTT!!!!!!!!!",
"!!!!!!!!!!!!!!!!!!!!!!!!!!!!!!!!",
"!!!!!!!!!!!!!!!!!!!!!!!!!!!!!!!!",
"!!!!!!!!!!!!!!!!!!!!!!!!!!!!!!!!",
"!!!!!!!!!!!!!!!!!!!!!!!!!!!!!!!!",
"!!!!!!!!!!!!!!!!!!!!!!!!!!!!!!!!"
};
