/* XPM */
static const char *x134[] = {
/* columns rows colors chars-per-pixel */
"32 32 43 1",
"  c black",
". c #010701070107",
"X c #046E046E046E",
"o c #050305030503",
"O c #0F120F120F12",
"+ c #158C158C158C",
"@ c #18AA18AA18AA",
"# c #1E231E231E23",
"$ c #247B247B247B",
"% c #342B342B342B",
"& c #38BA38BA38BA",
"* c #48F748F748F7",
"= c #4C8E4C8E4C8E",
"- c #5E835E835E83",
"; c #70ED70ED70ED",
": c #7DC17DC17DC1",
"> c #7E0D7E0D7E0D",
", c #7FFF7FFF7FFF",
"< c #808F808F808F",
"1 c gray51",
"2 c #8FEE8FEE8FEE",
"3 c #A17CA17CA17C",
"4 c #A47BA47BA47B",
"5 c #A52EA52EA52E",
"6 c #B371B371B371",
"7 c #B5E0B5E0B5E0",
"8 c #B708B708B708",
"9 c #B73CB73CB73C",
"0 c #B871B871B871",
"q c #BFFFBFFFBFFF",
"w c #CBD4CBD4CBD4",
"e c #DB83DB83DB83",
"r c #E121E121E121",
"t c #E1DCE1DCE1DC",
"y c #E568E568E568",
"u c #EA73EA73EA73",
"i c #F10BF10BF10B",
"p c #FAFBFAFBFAFB",
"a c #FC02FC02FC02",
"s c #FD7CFD7CFD7C",
"d c #FD81FD81FD81",
"f c #FEFDFEFDFEFD",
"g c gray100",
/* pixels */
"gggggggggggggggggggggggggggggggg",
"gggggggggggggggggggggggggggggggg",
"gggggggggggggggggggggggggggggggg",
"gggggggggggggggggggggggggggggggg",
"gggggggggggggggytugggggggggggggg",
"ggggggggggggggt&@-pggggggggggggg",
"ggggggggggggggt#.*pggggggggggggg",
"ggggggggggggggt#.*pggggggggggggg",
"ggggggggggggggt#.*pggggggggggggg",
"ggggggggggggggt#.*pggggggggggggg",
"gggggggggw77773+.%77777egggggggg",
"ggggggggp=.oooo...oooo.<gggggggg",
"ggggggggp*.............>gggggggg",
"ggggggggg4>><>;O.$>><>>qgggggggg",
"ggggggggggggggt#.*pggggggggggggg",
"ggggggggggggggt#.*pggggggggggggg",
"ggggggggggggggt#.*pggggggggggggg",
"ggggggggggggggt#.*pggggggggggggg",
"ggggggggggggggt#.*pggggggggggggg",
"ggggggggggggggt#.*pggggggggggggg",
"ggggggggggggggt#.*pggggggggggggg",
"ggggggggggggggt#.*pggggggggggggg",
"ggggggggggggggt#.*pggggggggggggg",
"ggggggggggggggt#.*pggggggggggggg",
"ggggggggggggggt#.*pggggggggggggg",
"ggggggggggggggt#.*pggggggggggggg",
"ggggggggggggggt#.*pggggggggggggg",
"ggggggggggggggt#.*pggggggggggggg",
"ggggggggggggggt#.*pggggggggggggg",
"ggggggggggggggt#.*pggggggggggggg",
"ggggggggggggggi2>4pggggggggggggg",
"gggggggggggggggggggggggggggggggg"
};
