/* XPM */
static const char *x137[] = {
/* columns rows colors chars-per-pixel */
"32 32 136 2",
"   c #000300030003",
".  c #00E900E900E9",
"X  c #024402440244",
"o  c #032903290329",
"O  c #03D503D503D5",
"+  c #06CC06CC06CC",
"@  c #091309130913",
"#  c #099009900990",
"$  c #0D130D130D13",
"%  c #0E540E540E54",
"&  c #0EEF0EEF0EEF",
"*  c #101C101C101C",
"=  c #127212721272",
"-  c #12DD12DD12DD",
";  c #146D146D146D",
":  c #14F514F514F5",
">  c #186118611861",
",  c #1A2E1A2E1A2E",
"<  c #1AC51AC51AC5",
"1  c #1C2B1C2B1C2B",
"2  c #1EB91EB91EB9",
"3  c #203420342034",
"4  c #20F820F820F8",
"5  c #220522052205",
"6  c #257725772577",
"7  c #260A260A260A",
"8  c #275C275C275C",
"9  c #280928092809",
"0  c #292A292A292A",
"q  c #29F929F929F9",
"w  c #313031303130",
"e  c #327532753275",
"r  c #36FA36FA36FA",
"t  c #37CD37CD37CD",
"y  c #395839583958",
"u  c #3A583A583A58",
"i  c #3AC43AC43AC4",
"p  c #3C463C463C46",
"a  c #41BB41BB41BB",
"s  c #426042604260",
"d  c #433143314331",
"f  c #463346334633",
"g  c #475747574757",
"h  c #487648764876",
"j  c #4C8C4C8C4C8C",
"k  c #4DDC4DDC4DDC",
"l  c #4F5B4F5B4F5B",
"z  c #536F536F536F",
"x  c #549354935493",
"c  c #579B579B579B",
"v  c #58BC58BC58BC",
"b  c #5ABA5ABA5ABA",
"n  c #607060706070",
"m  c #638063806380",
"M  c #649564956495",
"N  c #64F764F764F7",
"B  c #66B166B166B1",
"V  c #6A316A316A31",
"C  c #6B526B526B52",
"Z  c #6C516C516C51",
"A  c #6FD36FD36FD3",
"S  c #708570857085",
"D  c #74A474A474A4",
"F  c #75EB75EB75EB",
"G  c #767776777677",
"H  c #7DF57DF57DF5",
"J  c #7EEA7EEA7EEA",
"K  c #7FD17FD17FD1",
"L  c #816981698169",
"P  c #845584558455",
"I  c #864F864F864F",
"U  c #872187218721",
"Y  c #8A538A538A53",
"T  c #8EA18EA18EA1",
"R  c #8FFA8FFA8FFA",
"E  c #93B393B393B3",
"W  c #95E095E095E0",
"Q  c #97A897A897A8",
"!  c #9A919A919A91",
"~  c #9BD29BD29BD2",
"^  c #9E219E219E21",
"/  c #9F7A9F7A9F7A",
"(  c #A08EA08EA08E",
")  c #A255A255A255",
"_  c #A4AEA4AEA4AE",
"`  c #A761A761A761",
"'  c #AB9AAB9AAB9A",
"]  c #AC63AC63AC63",
"[  c #B231B231B231",
"{  c #B59AB59AB59A",
"}  c #B6FEB6FEB6FE",
"|  c #B7A2B7A2B7A2",
" . c #B8C4B8C4B8C4",
".. c #BA27BA27BA27",
"X. c #BAECBAECBAEC",
"o. c #BB9CBB9CBB9C",
"O. c #BD65BD65BD65",
"+. c #BE77BE77BE77",
"@. c #BFB1BFB1BFB1",
"#. c #C682C682C682",
"$. c #CC22CC22CC22",
"%. c #CC83CC83CC83",
"&. c #CE72CE72CE72",
"*. c #CFD9CFD9CFD9",
"=. c #D07FD07FD07F",
"-. c #D5A7D5A7D5A7",
";. c #D787D787D787",
":. c #D89CD89CD89C",
">. c #D9B6D9B6D9B6",
",. c #DBF4DBF4DBF4",
"<. c #DCEBDCEBDCEB",
"1. c #DE23DE23DE23",
"2. c #E10AE10AE10A",
"3. c #E1FCE1FCE1FC",
"4. c #E403E403E403",
"5. c #E4CFE4CFE4CF",
"6. c #E708E708E708",
"7. c #E82DE82DE82D",
"8. c #E918E918E918",
"9. c #E98DE98DE98D",
"0. c #EA9AEA9AEA9A",
"q. c #EBEDEBEDEBED",
"w. c #EDDFEDDFEDDF",
"e. c #EED3EED3EED3",
"r. c #EFD4EFD4EFD4",
"t. c #F136F136F136",
"y. c #F240F240F240",
"u. c #F40CF40CF40C",
"i. c #F4DDF4DDF4DD",
"p. c #F768F768F768",
"a. c #FAACFAACFAAC",
"s. c #FC0EFC0EFC0E",
"d. c #FCCFFCCFFCCF",
"f. c #FE23FE23FE23",
"g. c #FF22FF22FF22",
"h. c gray100",
/* pixels */
"h.h.h.h.h.h.h.h.h.h.h.h.h.h.h.h.h.h.h.h.h.h.h.h.h.h.h.h.h.h.h.h.",
"h.h.h.h.h.h.h.h.h.h.h.h.h.h.h.h.h.h.h.h.h.h.h.h.h.h.h.h.h.h.h.h.",
"h.h.h.h.h.h.h.h.h.h.h.h.h.h.h.h.h.h.h.h.h.h.h.h.h.h.h.h.h.h.h.h.",
"h.h.h.h.h.h.h.h.h.h.h.h.h.h.h.h.h.h.h.h.h.h.h.h.h.h.h.h.h.h.h.h.",
"h.h.h.h.4.o.o.4.h.h.h.h.h.p.O.o.w.h.h.h.h.h.h.h.h.h.h.h.h.h.h.h.",
"h.h.a.! 6 o o 6 ! a.h.h.h.#.* 0 7.h.h.h.h.h.h.h.h.h.h.h.h.h.h.h.",
"h.h.{ % ; A C % % { h.h.h.G o C h.h.h.h.h.h.h.h.h.h.h.h.h.h.h.h.",
"h.a.c o Y h.h.I o v a.h.8.e @ O.h.h.h.h.h.h.h.h.h.h.h.h.h.h.h.h.",
"h.7.0 % $.h.h.$.% 0 8.h.' o a t.h.h.h.h.h.h.h.h.h.h.h.h.h.h.h.h.",
"h.4.1 1 1.h.h.4.< 1 4.a.z o Y h.h.h.h.h.h.h.h.h.h.h.h.h.h.h.h.h.",
"h.4.1 1 4.h.h.4.1 1 7.%.; < -.h.h.h.h.h.h.h.h.h.h.h.h.h.h.h.h.h.",
"h.8.0 ; -.h.h.%.% e t.Y o b h.h.h.h.h.h.h.h.h.h.h.h.h.h.h.h.h.h.",
"h.a.v o I a.h.E o v w.y o ' h.h.h.h.h.h.h.h.h.h.h.h.h.h.h.h.h.h.",
"h.h.{ % % C S < % o.{ O e 8.h.h.h.h.h.h.h.h.h.h.h.h.h.h.h.h.h.h.",
"h.h.h.Q 6 O o 4 ! a.M o K h.h.h.h.h.h.h.h.h.h.h.h.h.h.h.h.h.h.h.",
"h.h.h.h.4.o.{ ,.h.,.4 * $.h.%.T K ] 8.h.h.h.h.1.! K ! ,.h.h.h.h.",
"h.h.h.h.h.h.h.h.h.E o j p.! * o o o f 1.h.h.O.0 o o o 0 O.h.h.h.",
"h.h.h.h.h.h.h.h.t.a o ) $.; * T [ a o M h.8.y o A { m o r 8.h.h.",
"h.h.h.h.h.h.h.h.#.* 6 7.P o A h.h.%.* 4 4.{ o y w.h.w.y O { h.h.",
"h.h.h.h.h.h.h.h.G o G a.j o _ h.h.t.p O O.Y o A h.h.h.S o I h.h.",
"h.h.h.h.h.h.h.4.6 @ O.h.f o { h.h.a.h o o.P o K h.h.h.K o K h.h.",
"h.h.h.h.h.h.h./ o a t.a.f o { h.h.a.f o o.P o K h.h.h.K o K h.h.",
"h.h.h.h.h.h.a.z o E h.h.m o ! h.h.7.0 ; ,./ o M h.h.h.c o _ h.h.",
"h.h.h.h.h.h.%.* < ,.h.h./ o y ,.h._ O y t.%.* < o.a.%.4 ; %.h.h.",
"h.h.h.h.h.h.K o m a.h.h.8.h o 0 f * % _ h.a.S o < f 4 o S h.h.h.",
"h.h.h.h.h.t.j 1 { h.h.h.h.1.C 6 < r _ a.h.h.t.I q < 6 P t.h.h.h.",
"h.h.h.h.h.a.7.7.a.h.h.h.h.h.h.7.1.w.h.h.h.h.h.h.t.4.7.h.h.h.h.h.",
"h.h.h.h.h.h.h.h.h.h.h.h.h.h.h.h.h.h.h.h.h.h.h.h.h.h.h.h.h.h.h.h.",
"h.h.h.h.h.h.h.h.h.h.h.h.h.h.h.h.h.h.h.h.h.h.h.h.h.h.h.h.h.h.h.h.",
"h.h.h.h.h.h.h.h.h.h.h.h.h.h.h.h.h.h.h.h.h.h.h.h.h.h.h.h.h.h.h.h.",
"h.h.h.h.h.h.h.h.h.h.h.h.h.h.h.h.h.h.h.h.h.h.h.h.h.h.h.h.h.h.h.h.",
"h.h.h.h.h.h.h.h.h.h.h.h.h.h.h.h.h.h.h.h.h.h.h.h.h.h.h.h.h.h.h.h."
};
