/* XPM */
static const char *x164[] = {
/* columns rows colors chars-per-pixel */
"32 32 100 2",
"   c #001300130013",
".  c #00D700D700D7",
"X  c #024902490249",
"o  c #02F002F002F0",
"O  c #042704270427",
"+  c #04DB04DB04DB",
"@  c #066F066F066F",
"#  c #070607060706",
"$  c #086008600860",
"%  c #08CF08CF08CF",
"&  c #099D099D099D",
"*  c #0B1F0B1F0B1F",
"=  c #0E5C0E5C0E5C",
"-  c #0ECD0ECD0ECD",
";  c #113B113B113B",
":  c #15D815D815D8",
">  c #173617361736",
",  c #1A321A321A32",
"<  c #1B791B791B79",
"1  c #1BDB1BDB1BDB",
"2  c #1CFF1CFF1CFF",
"3  c #1E231E231E23",
"4  c #274727472747",
"5  c #2A582A582A58",
"6  c #2AC82AC82AC8",
"7  c #323132313231",
"8  c #32F832F832F8",
"9  c #34A134A134A1",
"0  c #401040104010",
"q  c #428642864286",
"w  c #438A438A438A",
"e  c #460E460E460E",
"r  c #48C648C648C6",
"t  c #48F748F748F7",
"y  c #4BB54BB54BB5",
"u  c #4E994E994E99",
"i  c #516E516E516E",
"p  c #531E531E531E",
"a  c #576A576A576A",
"s  c #58A658A658A6",
"d  c #58F058F058F0",
"f  c #5B4D5B4D5B4D",
"g  c #5F385F385F38",
"h  c #63B463B463B4",
"j  c #658F658F658F",
"k  c #724C724C724C",
"l  c #73AE73AE73AE",
"z  c #74A774A774A7",
"x  c #764676467646",
"c  c #788378837883",
"v  c #7CDE7CDE7CDE",
"b  c #7F6F7F6F7F6F",
"n  c #805280528052",
"m  c #859A859A859A",
"M  c #871B871B871B",
"N  c #8C498C498C49",
"B  c #920992099209",
"V  c #9A349A349A34",
"C  c #9FE99FE99FE9",
"Z  c #A70FA70FA70F",
"A  c #A773A773A773",
"S  c #A8E7A8E7A8E7",
"D  c #A957A957A957",
"F  c #AA7FAA7FAA7F",
"G  c #ABECABECABEC",
"H  c #AECDAECDAECD",
"J  c #B2B3B2B3B2B3",
"K  c #B77DB77DB77D",
"L  c #BAE3BAE3BAE3",
"P  c #BB9BBB9BBB9B",
"I  c #BD2DBD2DBD2D",
"U  c #CAFECAFECAFE",
"Y  c #CD71CD71CD71",
"T  c #D39BD39BD39B",
"R  c #D576D576D576",
"E  c #D7C6D7C6D7C6",
"W  c #D889D889D889",
"Q  c #D9C6D9C6D9C6",
"!  c #DC3EDC3EDC3E",
"~  c #DEDCDEDCDEDC",
"^  c #E1DCE1DCE1DC",
"/  c #E2E1E2E1E2E1",
"(  c #E400E400E400",
")  c #E912E912E912",
"_  c #E973E973E973",
"`  c #EAEBEAEBEAEB",
"'  c #EBE0EBE0EBE0",
"]  c #ED9BED9BED9B",
"[  c #EE97EE97EE97",
"{  c #F0E3F0E3F0E3",
"}  c #F1ACF1ACF1AC",
"|  c #F28CF28CF28C",
" . c #F800F800F800",
".. c #F962F962F962",
"X. c #FA12FA12FA12",
"o. c #FAFFFAFFFAFF",
"O. c #FC05FC05FC05",
"+. c #FDFBFDFBFDFB",
"@. c #FF26FF26FF26",
"#. c gray100",
/* pixels */
"#.#.#.#.#.#.#.#.#.#.#.#.#.#.#.#.#.#.#.#.#.#.#.#.#.#.#.#.#.#.#.#.",
"#.#.#.#.#.#.#.#.#.#.#.#.#.#.#.#.#.#.#.#.#.#.#.#.#.#.#.#.#.#.#.#.",
"#.#.#.#.#.#.#.#.#.#.#.#.#.#.#.#.#.#.#.#.#.#.#.#.#.#.#.#.#.#.#.#.",
"#.#.#.#.#.#.#.#.#.#.#.#.#.#.#.#.#.#.#.#.#.#.#.#.#.#.#.#.#.#.#.#.",
"#.#.#.#.#.#.#.#.#.#.#.#.#.#.#.#.#.#.#.#.#.#.#.#.#.#.#.#.#.#.#.#.",
"#.#.#.#.#.#.#.#.#.#.#.#.#.#.#.#.#.#.#.#.#.#.#.#.#.#.#.#.#.#.#.#.",
"#.#.#.#.#.#.#.#.#.#.#.#.#.#.#.#.#.#.#.#.#.#.#.#.#.#.#.#.#.#.#.#.",
"#.#.#.#.#.#.#.#.#.#.#.#.#.#.#.#.#.#.#.#.#.#.#.#.#.#.#.#.#.#.#.#.",
"#.#.#.#.#.#.#.#.#.#.^ { #.#.#.#.#.#.#.#.) { #.#.#.#.#.#.#.#.#.#.",
"#.#.#.#.#.#.#.#.#.L 6 l O.] G b m L  .) e u R #.#.#.#.#.#.#.#.#.",
"#.#.#.#.#.#.#.#.) e   - z e +     $ g s     l O.#.#.#.#.#.#.#.#.",
"#.#.#.#.#.#.#.#.#.R i +     + < > +     ; z ) #.#.#.#.#.#.#.#.#.",
"#.#.#.#.#.#.#.#.#.#.T 2   7 Z ~ R N 2   q { #.#.#.#.#.#.#.#.#.#.",
"#.#.#.#.#.#.#.#.#.#.z   2 U #.#.#.#.Z + $ Z #.#.#.#.#.#.#.#.#.#.",
"#.#.#.#.#.#.#.#.#.) 6   h #.#.#.#.#.) 7   s #.#.#.#.#.#.#.#.#.#.",
"#.#.#.#.#.#.#.#.#.^ 2   b #.#.#.#.#.O.r   e O.#.#.#.#.#.#.#.#.#.",
"#.#.#.#.#.#.#.#.#.] 9   i  .#.#.#.#.^ 4   j #.#.#.#.#.#.#.#.#.#.",
"#.#.#.#.#.#.#.#.#.#.M   - G #.#.#. .b   ; L #.#.#.#.#.#.#.#.#.#.",
"#.#.#.#.#.#.#.#.#.#.Y 2   > l J G s $   9 { #.#.#.#.#.#.#.#.#.#.",
"#.#.#.#.#.#.#.#.O.H 7   $     +     + + + u U #.#.#.#.#.#.#.#.#.",
"#.#.#.#.#.#.#.#.) r   2 G l <   $ 6 B m +   c O.#.#.#.#.#.#.#.#.",
"#.#.#.#.#.#.#.#.#.~ s V #.O.R K L ^ #.{ l n ] #.#.#.#.#.#.#.#.#.",
"#.#.#.#.#.#.#.#.#.#. .O.#.#.#.#.#.#.#.#.O.O.#.#.#.#.#.#.#.#.#.#.",
"#.#.#.#.#.#.#.#.#.#.#.#.#.#.#.#.#.#.#.#.#.#.#.#.#.#.#.#.#.#.#.#.",
"#.#.#.#.#.#.#.#.#.#.#.#.#.#.#.#.#.#.#.#.#.#.#.#.#.#.#.#.#.#.#.#.",
"#.#.#.#.#.#.#.#.#.#.#.#.#.#.#.#.#.#.#.#.#.#.#.#.#.#.#.#.#.#.#.#.",
"#.#.#.#.#.#.#.#.#.#.#.#.#.#.#.#.#.#.#.#.#.#.#.#.#.#.#.#.#.#.#.#.",
"#.#.#.#.#.#.#.#.#.#.#.#.#.#.#.#.#.#.#.#.#.#.#.#.#.#.#.#.#.#.#.#.",
"#.#.#.#.#.#.#.#.#.#.#.#.#.#.#.#.#.#.#.#.#.#.#.#.#.#.#.#.#.#.#.#.",
"#.#.#.#.#.#.#.#.#.#.#.#.#.#.#.#.#.#.#.#.#.#.#.#.#.#.#.#.#.#.#.#.",
"#.#.#.#.#.#.#.#.#.#.#.#.#.#.#.#.#.#.#.#.#.#.#.#.#.#.#.#.#.#.#.#.",
"#.#.#.#.#.#.#.#.#.#.#.#.#.#.#.#.#.#.#.#.#.#.#.#.#.#.#.#.#.#.#.#."
};
