/* XPM */
static const char *x167[] = {
/* columns rows colors chars-per-pixel */
"32 32 125 2",
"   c black",
".  c #00DD00DD00DD",
"X  c #01D901D901D9",
"o  c #032203220322",
"O  c #03F303F303F3",
"+  c #04F004F004F0",
"@  c #061306130613",
"#  c #07C607C607C6",
"$  c #092C092C092C",
"%  c #0A120A120A12",
"&  c #0B760B760B76",
"*  c #0BE60BE60BE6",
"=  c #0DFA0DFA0DFA",
"-  c #0F3C0F3C0F3C",
";  c #100E100E100E",
":  c #10F910F910F9",
">  c #136613661366",
",  c #140A140A140A",
"<  c #153915391539",
"1  c #166E166E166E",
"2  c #173117311731",
"3  c #1B181B181B18",
"4  c #1C1A1C1A1C1A",
"5  c #1D221D221D22",
"6  c #225022502250",
"7  c #230323032303",
"8  c #251C251C251C",
"9  c #29A329A329A3",
"0  c #2F742F742F74",
"q  c #31B131B131B1",
"w  c #32F332F332F3",
"e  c #371337133713",
"r  c #39A039A039A0",
"t  c #3BB73BB73BB7",
"y  c #3C973C973C97",
"u  c #3DD23DD23DD2",
"i  c #405040504050",
"p  c #415841584158",
"a  c #420F420F420F",
"s  c #431543154315",
"d  c #44AB44AB44AB",
"f  c #479947994799",
"g  c #48A948A948A9",
"h  c #48E048E048E0",
"j  c #4D174D174D17",
"k  c #4ECC4ECC4ECC",
"l  c #4F054F054F05",
"z  c #509450945094",
"x  c #516F516F516F",
"c  c #534553455345",
"v  c #543E543E543E",
"b  c #55AC55AC55AC",
"n  c #568A568A568A",
"m  c #584458445844",
"M  c #5D875D875D87",
"N  c #60DB60DB60DB",
"B  c #624A624A624A",
"V  c #65A065A065A0",
"C  c #697B697B697B",
"Z  c #6D6D6D6D6D6D",
"A  c #6FF76FF76FF7",
"S  c #715571557155",
"D  c #720072007200",
"F  c #74D574D574D5",
"G  c #76F276F276F2",
"H  c #7B4E7B4E7B4E",
"J  c #7FCF7FCF7FCF",
"K  c #860E860E860E",
"L  c #8A0C8A0C8A0C",
"P  c #900390039003",
"I  c #90FE90FE90FE",
"U  c #91F791F791F7",
"Y  c #933E933E933E",
"T  c #964A964A964A",
"R  c #9A149A149A14",
"E  c #9AB79AB79AB7",
"W  c #9CFB9CFB9CFB",
"Q  c #A171A171A171",
"!  c #A541A541A541",
"~  c #A971A971A971",
"^  c #AAE0AAE0AAE0",
"/  c #AC82AC82AC82",
"(  c #B1E1B1E1B1E1",
")  c #B67BB67BB67B",
"_  c #B797B797B797",
"`  c #B86DB86DB86D",
"'  c #BA6DBA6DBA6D",
"]  c #BD41BD41BD41",
"[  c #BFB3BFB3BFB3",
"{  c #C1A8C1A8C1A8",
"}  c #C2DAC2DAC2DA",
"|  c #C3C9C3C9C3C9",
" . c #C5A8C5A8C5A8",
".. c #C7D8C7D8C7D8",
"X. c #C8ECC8ECC8EC",
"o. c #CCF7CCF7CCF7",
"O. c #CDC9CDC9CDC9",
"+. c #D233D233D233",
"@. c #D3F2D3F2D3F2",
"#. c #D4A4D4A4D4A4",
"$. c #D5B8D5B8D5B8",
"%. c #D987D987D987",
"&. c #DBBBDBBBDBBB",
"*. c #DD25DD25DD25",
"=. c #DEEBDEEBDEEB",
"-. c #E3AEE3AEE3AE",
";. c #E8C6E8C6E8C6",
":. c #EAB2EAB2EAB2",
">. c #EBB2EBB2EBB2",
",. c #ECDCECDCECDC",
"<. c #EDADEDADEDAD",
"1. c #F105F105F105",
"2. c #F234F234F234",
"3. c #F31AF31AF31A",
"4. c #F3E4F3E4F3E4",
"5. c #F5ADF5ADF5AD",
"6. c #F7FBF7FBF7FB",
"7. c #F8F7F8F7F8F7",
"8. c #FA47FA47FA47",
"9. c #FADDFADDFADD",
"0. c #FBF2FBF2FBF2",
"q. c #FCF8FCF8FCF8",
"w. c #FDEFFDEFFDEF",
"e. c #FF31FF31FF31",
"r. c gray100",
/* pixels */
"r.r.r.r.r.r.r.r.r.r.r.r.r.r.r.r.r.r.r.r.r.r.r.r.r.r.r.r.r.r.r.r.",
"r.r.r.r.r.r.r.r.r.r.r.r.r.r.r.r.r.r.r.r.r.r.r.r.r.r.r.r.r.r.r.r.",
"r.r.r.r.r.r.r.r.r.r.r.r.r.r.r.r.r.r.r.r.r.r.r.r.r.r.r.r.r.r.r.r.",
"r.r.r.r.r.r.r.r.r.r.r.r.r.r.r.r.r.r.r.r.r.r.r.r.r.r.r.r.r.r.r.r.",
"r.r.r.r.r.r.r.r.r.r.r.r.r.,.| ) ) #.5.r.r.r.r.r.r.r.r.r.r.r.r.r.",
"r.r.r.r.r.r.r.r.r.r.r.3.Y q - + + 3 k [ r.r.r.r.r.r.r.r.r.r.r.r.",
"r.r.r.r.r.r.r.r.r.r.0.G               < Q r.r.r.r.r.r.r.r.r.r.r.",
"r.r.r.r.r.r.r.r.r.r...<   5 K ) ( D ;   e :.r.r.r.r.r.r.r.r.r.r.",
"r.r.r.r.r.r.r.r.r.r.K   # / r.r.r.r.H   + ~ r.r.r.r.r.r.r.r.r.r.",
"r.r.r.r.r.r.r.r.r.r.K   < #.r.r.r.r.*.n Z | r.r.r.r.r.r.r.r.r.r.",
"r.r.r.r.r.r.r.r.r.r.[ ;   V 3.r.r.r.r.0.r.r.r.r.r.r.r.r.r.r.r.r.",
"r.r.r.r.r.r.r.r.r.r.0.G +   k O.r.r.r.r.r.r.r.r.r.r.r.r.r.r.r.r.",
"r.r.r.r.r.r.r.r.r.r.r.` 3     5 P ,.r.r.r.r.r.r.r.r.r.r.r.r.r.r.",
"r.r.r.r.r.r.r.r.r.r.T < ; n <     i [ 0.r.r.r.r.r.r.r.r.r.r.r.r.",
"r.r.r.r.r.r.r.r.r.) - # Y 0.[ i     ; D -.r.r.r.r.r.r.r.r.r.r.r.",
"r.r.r.r.r.r.r.r.r.B   y 3.r.r.:.K <     i @.r.r.r.r.r.r.r.r.r.r.",
"r.r.r.r.r.r.r.r.0.g   d 5.r.r.r.0.[ t     y -.r.r.r.r.r.r.r.r.r.",
"r.r.r.r.r.r.r.r.r.V   < X.r.r.r.r.r.*.i     L r.r.r.r.r.r.r.r.r.",
"r.r.r.r.r.r.r.r.r.[ <   i O.r.r.r.r.r.#.7   k 0.r.r.r.r.r.r.r.r.",
"r.r.r.r.r.r.r.r.r.r.T -   7 W 5.r.r.r.5.i   k 0.r.r.r.r.r.r.r.r.",
"r.r.r.r.r.r.r.r.r.r.0.R 3   # c O.r.r.` <   R r.r.r.r.r.r.r.r.r.",
"r.r.r.r.r.r.r.r.r.r.r.r...i +   3 Y ~ 7   n :.r.r.r.r.r.r.r.r.r.",
"r.r.r.r.r.r.r.r.r.r.r.r.r.:.P 3   + + 9 W 3.r.r.r.r.r.r.r.r.r.r.",
"r.r.r.r.r.r.r.r.r.r.r.r.r.r.r.| i     t -.r.r.r.r.r.r.r.r.r.r.r.",
"r.r.r.r.r.r.r.r.r.r.r.r.r.r.r.r.:.C +   c 3.r.r.r.r.r.r.r.r.r.r.",
"r.r.r.r.r.r.r.r.r.r.0.-.3.r.r.r.r.3.V   - [ r.r.r.r.r.r.r.r.r.r.",
"r.r.r.r.r.r.r.r.r.:.V 8 D r.r.r.r.r.#.<   K r.r.r.r.r.r.r.r.r.r.",
"r.r.r.r.r.r.r.r.r.0.g   7 %.r.r.r.r...;   K r.r.r.r.r.r.r.r.r.r.",
"r.r.r.r.r.r.r.r.r.r.R     B #.0.0.@.i   - ` r.r.r.r.r.r.r.r.r.r.",
"r.r.r.r.r.r.r.r.r.r.:.g     5 d i 5     c 5.r.r.r.r.r.r.r.r.r.r.",
"r.r.r.r.r.r.r.r.r.r.r.*.g +         - c *.r.r.r.r.r.r.r.r.r.r.r.",
"r.r.r.r.r.r.r.r.r.r.r.r.:.Q c 0 q M ~ 3.r.r.r.r.r.r.r.r.r.r.r.r."
};
