/* XPM */
static const char *x170[] = {
/* columns rows colors chars-per-pixel */
"32 32 68 1",
"  c black",
". c #008A008A008A",
"X c #01EC01EC01EC",
"o c #040B040B040B",
"O c #05D905D905D9",
"+ c #07D107D107D1",
"@ c #088C088C088C",
"# c #0A4C0A4C0A4C",
"$ c #0B410B410B41",
"% c #141214121412",
"& c #16B216B216B2",
"* c #199519951995",
"= c #1C121C121C12",
"- c #1E451E451E45",
"; c #1FC41FC41FC4",
": c #220C220C220C",
"> c #239A239A239A",
", c #2C2C2C2C2C2C",
"< c #313D313D313D",
"1 c #336D336D336D",
"2 c #344C344C344C",
"3 c #398139813981",
"4 c #3A133A133A13",
"5 c #3AD43AD43AD4",
"6 c #42BC42BC42BC",
"7 c #444244424442",
"8 c #48FE48FE48FE",
"9 c #4F714F714F71",
"0 c #53B553B553B5",
"q c #555655565556",
"w c #55E255E255E2",
"e c #59AB59AB59AB",
"r c #68C968C968C9",
"t c #6FCD6FCD6FCD",
"y c #753175317531",
"u c #77B277B277B2",
"i c #7C1F7C1F7C1F",
"p c #80BA80BA80BA",
"a c #8A848A848A84",
"s c #9A929A929A92",
"d c #B3BDB3BDB3BD",
"f c #B6AAB6AAB6AA",
"g c #B7C7B7C7B7C7",
"h c #BC9EBC9EBC9E",
"j c #BEB6BEB6BEB6",
"k c #C02FC02FC02F",
"l c #C2D1C2D1C2D1",
"z c #C3BAC3BAC3BA",
"x c #C7CBC7CBC7CB",
"c c #CF60CF60CF60",
"v c #D165D165D165",
"b c #D498D498D498",
"n c #D889D889D889",
"m c #E2F8E2F8E2F8",
"M c #E45EE45EE45E",
"N c #E7FFE7FFE7FF",
"B c #EE2BEE2BEE2B",
"V c #EF52EF52EF52",
"C c #EFC3EFC3EFC3",
"Z c #F28BF28BF28B",
"A c #F469F469F469",
"S c #F5F0F5F0F5F0",
"D c #F82EF82EF82E",
"F c #FB05FB05FB05",
"G c #FC0CFC0CFC0C",
"H c #FD07FD07FD07",
"J c #FD8EFD8EFD8E",
"K c gray100",
/* pixels */
"KKKKKKKKKKKKKKKKKKKKKKKKKKKKKKKK",
"KKKKKKKKKKKKKKKKKKKKKKKKKKKKKKKK",
"KKKKKKKKKKKKKKKKKKKKKKKKKKKKKKKK",
"KKKKKKKKKKKKKKKKKKKKKKKKKKKKKKKK",
"KKKKKKKKKKKKKBlggbFKKKKKKKKKKKKK",
"KKKKKKKKKKKKj5o  =yAKKKKKKKKKKKK",
"KKKKKKKKKKKv> <iq osKKKKKKKKKKKK",
"KKKKKKKKKKKd5,xKA5 0FKKKKKKKKKKK",
"KKKKKKKKKKKKSNSNl2 8FKKKKKKKKKKK",
"KKKKKKKKKKKKcu6=$  8FKKKKKKKKKKK",
"KKKKKKKKKKKl> =0a< 8FKKKKKKKKKKK",
"KKKKKKKKKKKe ,bKF7 8FKKKKKKKKKKK",
"KKKKKKKKKKF8 5BKg& 8FKKKKKKKKKKK",
"KKKKKKKKKKKi o0y=o 6SKKKKKKKKKKK",
"KKKKKKKKKKKmq$ &ri$=vKKKKKKKKKKK",
"KKKKKKKKKKKKAlgnFAjgmKKKKKKKKKKK",
"KKKKKKKKKKKKKKKKKKKKKKKKKKKKKKKK",
"KKKKKKKKKKKKKKKKKKKKKKKKKKKKKKKK",
"KKKKKKKKKKKKKKKKKKKKKKKKKKKKKKKK",
"KKKKKKKKKKKKKKKKKKKKKKKKKKKKKKKK",
"KKKKKKKKKKKKKKKKKKKKKKKKKKKKKKKK",
"KKKKKKKKKKKKKKKKKKKKKKKKKKKKKKKK",
"KKKKKKKKKKKKKKKKKKKKKKKKKKKKKKKK",
"KKKKKKKKKKKKKKKKKKKKKKKKKKKKKKKK",
"KKKKKKKKKKKKKKKKKKKKKKKKKKKKKKKK",
"KKKKKKKKKKKKKKKKKKKKKKKKKKKKKKKK",
"KKKKKKKKKKKKKKKKKKKKKKKKKKKKKKKK",
"KKKKKKKKKKKKKKKKKKKKKKKKKKKKKKKK",
"KKKKKKKKKKKKKKKKKKKKKKKKKKKKKKKK",
"KKKKKKKKKKKKKKKKKKKKKKKKKKKKKKKK",
"KKKKKKKKKKKKKKKKKKKKKKKKKKKKKKKK",
"KKKKKKKKKKKKKKKKKKKKKKKKKKKKKKKK"
};
