/* XPM */
static const char *x174[] = {
/* columns rows colors chars-per-pixel */
"32 32 144 2",
"   c #000A000A000A",
".  c #00D800D800D8",
"X  c #026902690269",
"o  c #02DA02DA02DA",
"O  c #03A303A303A3",
"+  c #04C604C604C6",
"@  c #06B406B406B4",
"#  c #086108610861",
"$  c #08E708E708E7",
"%  c #09F309F309F3",
"&  c #0D870D870D87",
"*  c #0E330E330E33",
"=  c #0F220F220F22",
"-  c #10AA10AA10AA",
";  c #133213321332",
":  c #142F142F142F",
">  c #14B014B014B0",
",  c #15C215C215C2",
"<  c #1B0D1B0D1B0D",
"1  c #1C241C241C24",
"2  c #1CE51CE51CE5",
"3  c #1DC31DC31DC3",
"4  c #213921392139",
"5  c #223022302230",
"6  c #22BC22BC22BC",
"7  c #245724572457",
"8  c #290629062906",
"9  c #2A842A842A84",
"0  c #311A311A311A",
"q  c #323932393239",
"w  c #32F432F432F4",
"e  c #358235823582",
"r  c #392739273927",
"t  c #3A4C3A4C3A4C",
"y  c #3B6E3B6E3B6E",
"u  c #3F5F3F5F3F5F",
"i  c #410C410C410C",
"p  c #424642464246",
"a  c #435F435F435F",
"s  c #44A044A044A0",
"d  c #476B476B476B",
"f  c #486548654865",
"g  c #499949994999",
"h  c #49FF49FF49FF",
"j  c #4C1D4C1D4C1D",
"k  c #4D694D694D69",
"l  c #4F754F754F75",
"z  c #533453345334",
"x  c #53ED53ED53ED",
"c  c #554A554A554A",
"v  c #581558155815",
"b  c #5C3D5C3D5C3D",
"n  c #659565956595",
"m  c #66BC66BC66BC",
"M  c #694269426942",
"N  c #6A5D6A5D6A5D",
"B  c #6D2C6D2C6D2C",
"V  c #6F176F176F17",
"C  c #709B709B709B",
"Z  c #717071707170",
"A  c #742674267426",
"S  c #784078407840",
"D  c #798479847984",
"F  c #7A987A987A98",
"G  c #7BD47BD47BD4",
"H  c gray49",
"J  c #7FFF7FFF7FFF",
"K  c #806480648064",
"L  c #811481148114",
"P  c #828382838283",
"I  c #867A867A867A",
"U  c #89B289B289B2",
"Y  c #8BD38BD38BD3",
"T  c #90AA90AA90AA",
"R  c #968396839683",
"E  c #979D979D979D",
"W  c #988A988A988A",
"Q  c #9B5B9B5B9B5B",
"!  c #9C5B9C5B9C5B",
"~  c #9DA29DA29DA2",
"^  c #9F109F109F10",
"/  c #A389A389A389",
"(  c #A478A478A478",
")  c #A608A608A608",
"_  c #A750A750A750",
"`  c #ACB8ACB8ACB8",
"'  c #B08EB08EB08E",
"]  c #B165B165B165",
"[  c #B2F7B2F7B2F7",
"{  c #B3A2B3A2B3A2",
"}  c #B6AEB6AEB6AE",
"|  c #B866B866B866",
" . c #B986B986B986",
".. c #BB13BB13BB13",
"X. c #BD96BD96BD96",
"o. c #BEEFBEEFBEEF",
"O. c #BF7ABF7ABF7A",
"+. c #C064C064C064",
"@. c #C2E1C2E1C2E1",
"#. c #C3E5C3E5C3E5",
"$. c #C5B1C5B1C5B1",
"%. c #C6F1C6F1C6F1",
"&. c #C8ECC8ECC8EC",
"*. c #C9BCC9BCC9BC",
"=. c #CB14CB14CB14",
"-. c #CBD2CBD2CBD2",
";. c #CCF0CCF0CCF0",
":. c #CD69CD69CD69",
">. c #CE53CE53CE53",
",. c #D5DED5DED5DE",
"<. c #D675D675D675",
"1. c #D80ED80ED80E",
"2. c #D89CD89CD89C",
"3. c #DBDCDBDCDBDC",
"4. c #DCCBDCCBDCCB",
"5. c #DDD9DDD9DDD9",
"6. c #DEE6DEE6DEE6",
"7. c #E115E115E115",
"8. c #E19CE19CE19C",
"9. c #E2A4E2A4E2A4",
"0. c #E3AEE3AEE3AE",
"q. c #E54AE54AE54A",
"w. c #E66DE66DE66D",
"e. c #E8CBE8CBE8CB",
"r. c #E993E993E993",
"t. c #EAD8EAD8EAD8",
"y. c #EBF8EBF8EBF8",
"u. c #EE56EE56EE56",
"i. c #EEE1EEE1EEE1",
"p. c #EFF8EFF8EFF8",
"a. c #F1F3F1F3F1F3",
"s. c #F2C7F2C7F2C7",
"d. c #F51FF51FF51F",
"f. c #F5F0F5F0F5F0",
"g. c #F73BF73BF73B",
"h. c #F831F831F831",
"j. c #F911F911F911",
"k. c #F97FF97FF97F",
"l. c #FB05FB05FB05",
"z. c #FBFFFBFFFBFF",
"x. c #FCD3FCD3FCD3",
"c. c #FE1EFE1EFE1E",
"v. c #FF16FF16FF16",
"b. c gray100",
/* pixels */
"b.b.b.b.b.b.b.b.b.b.b.b.b.b.b.b.b.b.b.b.b.b.b.b.b.b.b.b.b.b.b.b.",
"b.b.b.b.b.b.b.b.b.b.b.b.b.b.b.b.b.b.b.b.b.b.b.b.b.b.b.b.b.b.b.b.",
"b.b.b.b.b.b.b.b.b.b.b.b.b.b.b.b.b.b.b.b.b.b.b.b.b.b.b.b.b.b.b.b.",
"b.b.b.b.b.b.b.b.b.b.b.b.b.b.b.b.b.b.b.b.b.b.b.b.b.b.b.b.b.b.b.b.",
"b.b.b.b.b.b.b.b.b.b.b.b.b.r.=.} } @.9.j.b.b.b.b.b.b.b.b.b.b.b.b.",
"b.b.b.b.b.b.b.b.b.b.j.=.m 8 *     # 5 z [ f.b.b.b.b.b.b.b.b.b.b.",
"b.b.b.b.b.b.b.b.b.5.m ,   # 8 h h e *   # k X.b.b.b.b.b.b.b.b.b.",
"b.b.b.b.b.b.b.b.X.q   , C X.r.j.j.p.=.Y q   , R j.b.b.b.b.b.b.b.",
"b.b.b.b.b.b.b.,.8   p =.b.b.b.b.b.b.b.b.9.m   * / b.b.b.b.b.b.b.",
"b.b.b.b.b.b.f.z   p 5.5.} } } } } =.p.b.b.s.B   8 5.b.b.b.b.b.b.",
"b.b.b.b.b.b.[ # 5 ,.b.K   O       * t X.b.b.p.k   A b.b.b.b.b.b.",
"b.b.b.b.b.f.k   Y b.b.K   7 h h h 5   8 5.b.b.$.* 5 5.b.b.b.b.b.",
"b.b.b.b.b.;.- < 2.b.b.J   J b.j.j.,.y   Y b.b.f.p   ! b.b.b.b.b.",
"b.b.b.b.b._   h j.b.b.J   J b.b.b.b.D   J b.b.b.K   C b.b.b.b.b.",
"b.b.b.b.b.K   D b.b.b.J   C q.9.q.` 5 # } b.b.b.[   h j.b.b.b.b.",
"b.b.b.b.b.K   K b.b.b.J   * 1 1 1 #   B f.b.b.b.}   h j.b.b.b.b.",
"b.b.b.b.b.I   C b.b.b.J   - 1 *   1 W s.b.b.b.b._   z j.b.b.b.b.",
"b.b.b.b.b.[   p f.b.b.J   C q.$.y - ! b.b.b.b.b.D   D b.b.b.b.b.",
"b.b.b.b.b.,.< , ;.b.b.J   K b.b.X.- 1 @.b.b.b.p.t   ` b.b.b.b.b.",
"b.b.b.b.b.b.m   B b.b.K   K b.b.b.K   p r.b.b.` O q r.b.b.b.b.b.",
"b.b.b.b.b.b.=., -  .b.J   K b.b.b.r.p   K b.5.q   T b.b.b.b.b.b.",
"b.b.b.b.b.b.j.A   7 X._ p _ b.b.b.b. .h N $.s   p r.b.b.b.b.b.b.",
"b.b.b.b.b.b.b.r.h   5 W r.b.b.b.b.b.b.f. .t   7 $.b.b.b.b.b.b.b.",
"b.b.b.b.b.b.b.b.5.b O O y Y @.9.9.;._ c -   q X.b.b.b.b.b.b.b.b.",
"b.b.b.b.b.b.b.b.b.s.W e O   # 1 1 *     < J 9.b.b.b.b.b.b.b.b.b.",
"b.b.b.b.b.b.b.b.b.b.b.r.! v q < 1 8 k Y ,.j.b.b.b.b.b.b.b.b.b.b.",
"b.b.b.b.b.b.b.b.b.b.b.b.b.b.p.5.9.r.j.b.b.b.b.b.b.b.b.b.b.b.b.b.",
"b.b.b.b.b.b.b.b.b.b.b.b.b.b.b.b.b.b.b.b.b.b.b.b.b.b.b.b.b.b.b.b.",
"b.b.b.b.b.b.b.b.b.b.b.b.b.b.b.b.b.b.b.b.b.b.b.b.b.b.b.b.b.b.b.b.",
"b.b.b.b.b.b.b.b.b.b.b.b.b.b.b.b.b.b.b.b.b.b.b.b.b.b.b.b.b.b.b.b.",
"b.b.b.b.b.b.b.b.b.b.b.b.b.b.b.b.b.b.b.b.b.b.b.b.b.b.b.b.b.b.b.b.",
"b.b.b.b.b.b.b.b.b.b.b.b.b.b.b.b.b.b.b.b.b.b.b.b.b.b.b.b.b.b.b.b."
};
