/* XPM */
static const char *x175[] = {
/* columns rows colors chars-per-pixel */
"32 32 20 1",
"  c black",
". c gray2",
"X c #462F462F462F",
"o c #479B479B479B",
"O c #48C348C348C3",
"+ c #48F748F748F7",
"@ c #4A594A594A59",
"# c #4C8E4C8E4C8E",
"$ c #4DED4DED4DED",
"% c #7FFF7FFF7FFF",
"& c #A47BA47BA47B",
"* c #A52EA52EA52E",
"= c #B708B708B708",
"- c #CC07CC07CC07",
"; c #FA4EFA4EFA4E",
": c gray98",
"> c #FD51FD51FD51",
", c #FE60FE60FE60",
"< c #FE91FE91FE91",
"1 c gray100",
/* pixels */
"11111111::::::::::::::::11111111",
"1111111&++++++#++++++++#-1111111",
"1111111%               .=1111111",
"1111111&X++++++++++++++#-1111111",
"1111111:::::::::::::::::11111111",
"11111111111111111111111111111111",
"11111111111111111111111111111111",
"11111111111111111111111111111111",
"11111111111111111111111111111111",
"11111111111111111111111111111111",
"11111111111111111111111111111111",
"11111111111111111111111111111111",
"11111111111111111111111111111111",
"11111111111111111111111111111111",
"11111111111111111111111111111111",
"11111111111111111111111111111111",
"11111111111111111111111111111111",
"11111111111111111111111111111111",
"11111111111111111111111111111111",
"11111111111111111111111111111111",
"11111111111111111111111111111111",
"11111111111111111111111111111111",
"11111111111111111111111111111111",
"11111111111111111111111111111111",
"11111111111111111111111111111111",
"11111111111111111111111111111111",
"11111111111111111111111111111111",
"11111111111111111111111111111111",
"11111111111111111111111111111111",
"11111111111111111111111111111111",
"11111111111111111111111111111111",
"11111111111111111111111111111111"
};
