/* XPM */
static const char *x203[] = {
/* columns rows colors chars-per-pixel */
"32 32 39 1",
"  c black",
". c #025E025E025E",
"X c #02CC02CC02CC",
"o c #04E004E004E0",
"O c #1A681A681A68",
"+ c #1E0B1E0B1E0B",
"@ c #1EB31EB31EB3",
"# c #201320132013",
"$ c #226622662266",
"% c #244C244C244C",
"& c #3FFF3FFF3FFF",
"* c #48C348C348C3",
"= c #48F748F748F7",
"- c #4A134A134A13",
"; c #4C8E4C8E4C8E",
": c #5B845B845B84",
"> c #5E835E835E83",
", c #7DB07DB07DB0",
"< c #7FFF7FFF7FFF",
"1 c #81F181F181F1",
"2 c #835483548354",
"3 c #A47BA47BA47B",
"4 c #B701B701B701",
"5 c #B9D0B9D0B9D0",
"6 c #BFF1BFF1BFF1",
"7 c #C447C447C447",
"8 c #CBD4CBD4CBD4",
"9 c #D945D945D945",
"0 c #DBCBDBCBDBCB",
"q c #E15DE15DE15D",
"w c #E22EE22EE22E",
"e c #E289E289E289",
"r c #EA73EA73EA73",
"t c #F768F768F768",
"y c #FAFDFAFDFAFD",
"u c #FB91FB91FB91",
"i c #FD7CFD7CFD7C",
"p c #FEC7FEC7FEC7",
"a c gray100",
/* pixels */
"aaaaaaaaaaaaaaaaaaaaaaaaaaaaaaaa",
"aaaaaaaaaaaa9119a9219aaaaaaaaaaa",
"aaaaaaaaaaaa5oo4a4oo4aaaaaaaaaaa",
"aaaaaaaaaaaa7#%7a7%%6aaaaaaaaaaa",
"aaaaaaaatqqq9779q9779qqraaaaaaaa",
"aaaaaaaa7#@@@##@@@##@@O:yaaaaaaa",
"aaaaaaaa4o             *yaaaaaaa",
"aaaaaaaa4o &1<<<<<<<1<<3aaaaaaaa",
"aaaaaaaa4o 1aaaaaaaaaaaaaaaaaaaa",
"aaaaaaaa4o <aaaaaaaaaaaaaaaaaaaa",
"aaaaaaaa4o <aaaaaaaaaaaaaaaaaaaa",
"aaaaaaaa4o <aaaaaaaaaaaaaaaaaaaa",
"aaaaaaaa4o 1aaaaaaaaaaaaaaaaaaaa",
"aaaaaaaa4o :54444444446taaaaaaaa",
"aaaaaaaa4o ooooooooooo#qaaaaaaaa",
"aaaaaaaa4o  oooooooooo#qaaaaaaaa",
"aaaaaaaa4o :54444444446taaaaaaaa",
"aaaaaaaa4o <aaaaaaaaaaaaaaaaaaaa",
"aaaaaaaa4o <aaaaaaaaaaaaaaaaaaaa",
"aaaaaaaa4o <aaaaaaaaaaaaaaaaaaaa",
"aaaaaaaa4o 1aaaaaaaaaaaaaaaaaaaa",
"aaaaaaaa4o <aaaaaaaaaaaaaaaaaaaa",
"aaaaaaaa4o <ayyyyyyyyyyyaaaaaaaa",
"aaaaaaaa4o #***********;8aaaaaaa",
"aaaaaaaa4o             o4aaaaaaa",
"aaaaaaaa8;**************8aaaaaaa",
"aaaaaaaaayyyyyyyyyyyyyyyaaaaaaaa",
"aaaaaaaaaaaaaaaaaaaaaaaaaaaaaaaa",
"aaaaaaaaaaaaaaaaaaaaaaaaaaaaaaaa",
"aaaaaaaaaaaaaaaaaaaaaaaaaaaaaaaa",
"aaaaaaaaaaaaaaaaaaaaaaaaaaaaaaaa",
"aaaaaaaaaaaaaaaaaaaaaaaaaaaaaaaa"
};
