/* XPM */
static const char *x220[] = {
/* columns rows colors chars-per-pixel */
"32 32 76 1",
"  c black",
". c #00CB00CB00CB",
"X c #02F402F402F4",
"o c #050905090509",
"O c #07B907B907B9",
"+ c #08F508F508F5",
"@ c #0A790A790A79",
"# c #0B220B220B22",
"$ c #0D8C0D8C0D8C",
"% c #0DDA0DDA0DDA",
"& c #13ED13ED13ED",
"* c #16FB16FB16FB",
"= c #18DD18DD18DD",
"- c #1A741A741A74",
"; c #1D6E1D6E1D6E",
": c #1E1D1E1D1E1D",
"> c #1EFA1EFA1EFA",
", c #203620362036",
"< c #229122912291",
"1 c #22E722E722E7",
"2 c #268E268E268E",
"3 c #27D327D327D3",
"4 c #297D297D297D",
"5 c #2A222A222A22",
"6 c #330F330F330F",
"7 c #343734373437",
"8 c #38BA38BA38BA",
"9 c #3CC23CC23CC2",
"0 c #444044404440",
"q c #48F748F748F7",
"w c #4DA64DA64DA6",
"e c #586F586F586F",
"r c #58E458E458E4",
"t c #5E835E835E83",
"y c #656D656D656D",
"u c #6D006D006D00",
"i c #70FD70FD70FD",
"p c #750175017501",
"a c #764776477647",
"s c #7E827E827E82",
"d c #7FFF7FFF7FFF",
"f c #80F780F780F7",
"g c #89A389A389A3",
"h c #8AD38AD38AD3",
"j c #8F6B8F6B8F6B",
"k c #A070A070A070",
"l c #A3B5A3B5A3B5",
"z c #B2F7B2F7B2F7",
"x c #B708B708B708",
"c c #B7DFB7DFB7DF",
"v c #BCC2BCC2BCC2",
"b c #BF9FBF9FBF9F",
"n c #C07DC07DC07D",
"m c #C9C2C9C2C9C2",
"M c #D5A7D5A7D5A7",
"N c #DCC4DCC4DCC4",
"B c #E135E135E135",
"V c #E1DAE1DAE1DA",
"C c #E273E273E273",
"Z c #E3FAE3FAE3FA",
"A c #E4D0E4D0E4D0",
"S c #E57EE57EE57E",
"D c #E900E900E900",
"F c #EA73EA73EA73",
"G c #ED94ED94ED94",
"H c #EEFCEEFCEEFC",
"J c #F116F116F116",
"K c #F3D1F3D1F3D1",
"L c #F752F752F752",
"P c #F812F812F812",
"I c #FAFCFAFCFAFC",
"U c #FC02FC02FC02",
"Y c #FCF8FCF8FCF8",
"T c #FD84FD84FD84",
"R c #FF10FF10FF10",
"E c gray100",
/* pixels */
"EEEEEEEEEEEEEEEEEEEEEEEEEEEEEEEE",
"EEEEEEEEEEEJjdbEJjdnEEEEEEEEEEEE",
"EEEEEEEEEEEB; dEB; dEEEEEEEEEEEE",
"EEEEEEEEEEEB8-jES7-jEEEEEEEEEEEE",
"EEEEEEELBBJESBJEESBJEFBSIEEEEEEE",
"EEEEEEEb<-jEEEEEEEEEIt-8SEEEEEEE",
"EEEEEEExo dEEEEEEEEEIq ;BEEEEEEE",
"EEEEEEExo dEEEEEEEEEIq ;BEEEEEEE",
"EEEEEEExo dEEEEEEEEEIq ;BEEEEEEE",
"EEEEEEExo dEEEEEEEEEIq ;BEEEEEEE",
"EEEEEEExo dEEEEEEEEEIq ;BEEEEEEE",
"EEEEEEExo dEEEEEEEEEIq ;BEEEEEEE",
"EEEEEEExo dEEEEEEEEEIq <BEEEEEEE",
"EEEEEEExo dEEEEEEEEEIq ;BEEEEEEE",
"EEEEEEExo dEEEEEEEEEIq ;BEEEEEEE",
"EEEEEEExo dEEEEEEEEEIq ;BEEEEEEE",
"EEEEEEExo dEEEEEEEEEIq ;BEEEEEEE",
"EEEEEEExo dEEEEEEEEEIq ;BEEEEEEE",
"EEEEEEExo dEEEEEEEEEL0 ;BEEEEEEE",
"EEEEEEEM& rIEEEEEEEES< 9LEEEEEEE",
"EEEEEEES5 7GEEEEEEEEb+ rEEEEEEEE",
"EEEEEEEEr olEEEEEEEIy  jEEEEEEEE",
"EEEEEEEEz$ <lGEEEISh$ 4NEEEEEEEE",
"EEEEEEEELu  +7ifde2o $lEEEEEEEEE",
"EEEEEEEEEJp&        2lIEEEEEEEEE",
"EEEEEEEEEEImp0<;;4whNEEEEEEEEEEE",
"EEEEEEEEEEEEELSBBFIEEEEEEEEEEEEE",
"EEEEEEEEEEEEEEEEEEEEEEEEEEEEEEEE",
"EEEEEEEEEEEEEEEEEEEEEEEEEEEEEEEE",
"EEEEEEEEEEEEEEEEEEEEEEEEEEEEEEEE",
"EEEEEEEEEEEEEEEEEEEEEEEEEEEEEEEE",
"EEEEEEEEEEEEEEEEEEEEEEEEEEEEEEEE"
};
