/* XPM */
static const char *x238[] = {
/* columns rows colors chars-per-pixel */
"32 32 45 1",
"  c black",
". c #00B000B000B0",
"X c #04BC04BC04BC",
"o c #075C075C075C",
"O c #09AA09AA09AA",
"+ c #0B400B400B40",
"@ c #0EFA0EFA0EFA",
"# c #137813781378",
"$ c #17D817D817D8",
"% c #197519751975",
"& c #1A271A271A27",
"* c #456E456E456E",
"= c #4B074B074B07",
"- c #4C5A4C5A4C5A",
"; c #4F3D4F3D4F3D",
": c #5E0E5E0E5E0E",
"> c #66E366E366E3",
", c #6F786F786F78",
"< c #7FFF7FFF7FFF",
"1 c #831A831A831A",
"2 c #A1A9A1A9A1A9",
"3 c #A2A3A2A3A2A3",
"4 c #B135B135B135",
"5 c #B708B708B708",
"6 c #B86CB86CB86C",
"7 c #BD5FBD5FBD5F",
"8 c #CBD4CBD4CBD4",
"9 c #E130E130E130",
"0 c #E1B4E1B4E1B4",
"q c #E336E336E336",
"w c #E3C9E3C9E3C9",
"e c #E67FE67FE67F",
"r c #EA61EA61EA61",
"t c #EB33EB33EB33",
"y c #EFD9EFD9EFD9",
"u c #F0EEF0EEF0EE",
"i c #F48FF48FF48F",
"p c #F654F654F654",
"a c #F74CF74CF74C",
"s c #F7C3F7C3F7C3",
"d c #FB12FB12FB12",
"f c #FBCEFBCEFBCE",
"g c #FE05FE05FE05",
"h c #FE91FE91FE91",
"j c gray100",
/* pixels */
"jjjjjjjjjjjjjjjjjjjjjjjjjjjjjjjj",
"jjjjjjjjjjjjjjjjjjjjjjjjjjjjjjjj",
"jjjjjjjjjjjjjjjjjjjjjjjjjjjjjjjj",
"jjjjjjjjjjjjjjjjjjjjjjjjjjjjjjjj",
"jjjjjjjjjjjjjju99yjjjjjjjjjjjjjj",
"jjjjjjjjjjjjjt;%%=9jjjjjjjjjjjjj",
"jjjjjjjjjjjjj<.%%.,fjjjjjjjjjjjj",
"jjjjjjjjjjjj7#O34@O3jjjjjjjjjjjj",
"jjjjjjjjjjji:%>ij1%*ejjjjjjjjjjj",
"jjjjjjjjjjjf99ujji99ijjjjjjjjjjj",
"jjjjjjjjjjjjjjt66tjjjjjjjjjjjjjj",
"jjjjjjjjjjjjjj6OO6jjjjjjjjjjjjjj",
"jjjjjjjjjjjjjj5XX5jjjjjjjjjjjjjj",
"jjjjjjjjjjjjjj5XX5jjjjjjjjjjjjjj",
"jjjjjjjjjjjjjj5XX5jjjjjjjjjjjjjj",
"jjjjjjjjjjjjjj5XX5jjjjjjjjjjjjjj",
"jjjjjjjjjjjjjj5XX5jjjjjjjjjjjjjj",
"jjjjjjjjjjjjjj5XX5jjjjjjjjjjjjjj",
"jjjjjjjjjjjjjj5XX5jjjjjjjjjjjjjj",
"jjjjjjjjjjjjjj5XX5jjjjjjjjjjjjjj",
"jjjjjjjjjjjjjj5XX5jjjjjjjjjjjjjj",
"jjjjjjjjjjjjjj5XX5jjjjjjjjjjjjjj",
"jjjjjjjjjjjjjj5XX5jjjjjjjjjjjjjj",
"jjjjjjjjjjjjjj5XX5jjjjjjjjjjjjjj",
"jjjjjjjjjjjjjj5XX5jjjjjjjjjjjjjj",
"jjjjjjjjjjjjjj8=;8jjjjjjjjjjjjjj",
"jjjjjjjjjjjjjjfffjjjjjjjjjjjjjjj",
"jjjjjjjjjjjjjjjjjjjjjjjjjjjjjjjj",
"jjjjjjjjjjjjjjjjjjjjjjjjjjjjjjjj",
"jjjjjjjjjjjjjjjjjjjjjjjjjjjjjjjj",
"jjjjjjjjjjjjjjjjjjjjjjjjjjjjjjjj",
"jjjjjjjjjjjjjjjjjjjjjjjjjjjjjjjj"
};
