/* XPM */
static const char *x35[] = {
/* columns rows colors chars-per-pixel */
"32 32 115 2",
"   c #000100010001",
".  c #00C900C900C9",
"X  c #023802380238",
"o  c #032103210321",
"O  c #041B041B041B",
"+  c #04C704C704C7",
"@  c #079907990799",
"#  c #08C108C108C1",
"$  c #09AB09AB09AB",
"%  c #0BF10BF10BF1",
"&  c #0F730F730F73",
"*  c #102610261026",
"=  c #117E117E117E",
"-  c #11DE11DE11DE",
";  c #158C158C158C",
":  c #15C515C515C5",
">  c #16EC16EC16EC",
",  c #17F817F817F8",
"<  c #1A701A701A70",
"1  c #1AE51AE51AE5",
"2  c #1C351C351C35",
"3  c #1D8C1D8C1D8C",
"4  c #1E191E191E19",
"5  c #1EA31EA31EA3",
"6  c #225222522252",
"7  c #22DD22DD22DD",
"8  c #2A582A582A58",
"9  c #2AF62AF62AF6",
"0  c #2C0E2C0E2C0E",
"q  c #338D338D338D",
"w  c #344234423442",
"e  c #34D234D234D2",
"r  c #38BA38BA38BA",
"t  c #3B5C3B5C3B5C",
"y  c #3CC23CC23CC2",
"u  c #3FFF3FFF3FFF",
"i  c #412E412E412E",
"p  c #439743974397",
"a  c #448344834483",
"s  c #450045004500",
"d  c #494B494B494B",
"f  c #4C594C594C59",
"g  c #4E3A4E3A4E3A",
"h  c #4F834F834F83",
"j  c #58A658A658A6",
"k  c #598F598F598F",
"l  c #5A705A705A70",
"z  c #5E835E835E83",
"x  c #647B647B647B",
"c  c #67B967B967B9",
"v  c #708570857085",
"b  c #715D715D715D",
"n  c #738D738D738D",
"m  c #7A997A997A99",
"M  c #7FA97FA97FA9",
"N  c #80F380F380F3",
"B  c #81BB81BB81BB",
"V  c #82DD82DD82DD",
"C  c #839483948394",
"Z  c #856685668566",
"A  c #8C658C658C65",
"S  c #8F678F678F67",
"D  c #909890989098",
"F  c #991E991E991E",
"G  c #9B849B849B84",
"H  c #A077A077A077",
"J  c #A17CA17CA17C",
"K  c #A222A222A222",
"L  c #A479A479A479",
"P  c #A759A759A759",
"I  c #A9E0A9E0A9E0",
"U  c #AE0BAE0BAE0B",
"Y  c #B165B165B165",
"T  c #B343B343B343",
"R  c #B5D3B5D3B5D3",
"E  c #B711B711B711",
"W  c #B7CAB7CAB7CA",
"Q  c #B868B868B868",
"!  c #B9EAB9EAB9EA",
"~  c #BAFFBAFFBAFF",
"^  c #BC24BC24BC24",
"/  c #BFB6BFB6BFB6",
"(  c #C313C313C313",
")  c #CBD4CBD4CBD4",
"_  c #CCE6CCE6CCE6",
"`  c #CFFECFFECFFE",
"'  c #D0D8D0D8D0D8",
"]  c #D5D1D5D1D5D1",
"[  c #DA85DA85DA85",
"{  c #DC30DC30DC30",
"}  c #DD4FDD4FDD4F",
"|  c #DD9BDD9BDD9B",
" . c #E11FE11FE11F",
".. c #E1DAE1DAE1DA",
"X. c #E26AE26AE26A",
"o. c #E3FAE3FAE3FA",
"O. c #E49AE49AE49A",
"+. c #E576E576E576",
"@. c #E904E904E904",
"#. c #EA73EA73EA73",
"$. c #EC7FEC7FEC7F",
"%. c #EE6BEE6BEE6B",
"&. c #EED5EED5EED5",
"*. c #F017F017F017",
"=. c #F0EDF0EDF0ED",
"-. c #F3D1F3D1F3D1",
";. c #F53FF53FF53F",
":. c #F768F768F768",
">. c #F831F831F831",
",. c #FB05FB05FB05",
"<. c #FBFDFBFDFBFD",
"1. c #FD7CFD7CFD7C",
"2. c #FDBBFDBBFDBB",
"3. c #FEECFEECFEEC",
"4. c gray100",
/* pixels */
"4.4.4.4.4.4.4.4.4.4.4.4.4.4.4.4.4.4.4.4.4.4.4.4.4.4.4.4.4.4.4.4.",
"4.4.4.4.4.4.4.4.4.4.4.4.4.4.4.4.4.4.4.4.4.4.4.4.4.4.4.4.4.4.4.4.",
"4.4.4.4.4.4.4.4.4.4.4.4.4.4.4.4.4.4.4.4.4.4.4.4.4.4.4.4.4.4.4.4.",
"4.4.4.4.4.4.4.4.4.4.4.4.4.4.4.4.4.4.4.4.4.4.4.4.4.4.4.4.4.4.4.4.",
"4.4.4.4.4.4.4.4.4.4.4.4.4.=...+.<.4.4.<.+.| *.4.4.4.4.4.4.4.4.4.",
"4.4.4.4.4.4.4.4.4.4.4.4.4.b , s *.4.4.` 0 4 I 4.4.4.4.4.4.4.4.4.",
"4.4.4.4.4.4.4.4.4.4.4.4.=.y   g <.4.4.F   % ( 4.4.4.4.4.4.4.4.4.",
"4.4.4.4.4.4.4.4.4.4.4.4.| 4   m 4.4.4.v   6 +.4.4.4.4.4.4.4.4.4.",
"4.4.4.4.4.4.4.4.4.4.4.4.~ @   P 4.4.<.s   s :.4.4.4.4.4.4.4.4.4.",
"4.4.4.4.4.4.4.4.4.4.4.4.S   * ` 4.4...7   v 4.4.4.4.4.4.4.4.4.4.",
"4.4.4.4.4.4.4.=.S M M B u   * b B B c @   u B P 4.4.4.4.4.4.4.4.",
"4.4.4.4.4.4.4...4                             d <.4.4.4.4.4.4.4.",
"4.4.4.4.4.4.4.+.r 4 6 ;     * 4 4 4 @   @ 4 , z <.4.4.4.4.4.4.4.",
"4.4.4.4.4.4.4.<.....+.G +   F +...[ y   u | ..#.4.4.4.4.4.4.4.4.",
"4.4.4.4.4.4.4.4.4.4.4.S   ; ] 4.4.+.6   v 4.4.4.4.4.4.4.4.4.4.4.",
"4.4.4.4.4.4.4.4.4.4.4.j   e *.4.4.( %   F 4.4.4.4.4.4.4.4.4.4.4.",
"4.4.4.4.4.4.4.4.4.4.*.e   k 4.4.4.G   * ` 4.4.4.4.4.4.4.4.4.4.4.",
"4.4.4.4.4.4.4.:./ W K ;   k W W W g   , K W T ) 4.4.4.4.4.4.4.4.",
"4.4.4.4.4.4.4...6   +       + + +       + +   g <.4.4.4.4.4.4.4.",
"4.4.4.4.4.4.4...6 +       + + + +     + + +   d <.4.4.4.4.4.4.4.",
"4.4.4.4.4.4.4.:./ T e   8 I W ~ B + + B ~ W W ) <.4.4.4.4.4.4.4.",
"4.4.4.4.4.4.4.4.4.*.e   j 4.4.4.D   * ) 4.4.4.4.4.4.4.4.4.4.4.4.",
"4.4.4.4.4.4.4.4.4.] ;   Z 4.4.4.x   8 #.4.4.4.4.4.4.4.4.4.4.4.4.",
"4.4.4.4.4.4.4.4.4.T + + T 4.4.=.y   g <.4.4.4.4.4.4.4.4.4.4.4.4.",
"4.4.4.4.4.4.4.4.4.B   , ] 4.4.[ ,   m 4.4.4.4.4.4.4.4.4.4.4.4.4.",
"4.4.4.4.4.4.4.4.4.A u b :.4.4.` h d ~ 4.4.4.4.4.4.4.4.4.4.4.4.4.",
"4.4.4.4.4.4.4.4.4.<.<.<.4.4.4.4.<.<.4.4.4.4.4.4.4.4.4.4.4.4.4.4.",
"4.4.4.4.4.4.4.4.4.4.4.4.4.4.4.4.4.4.4.4.4.4.4.4.4.4.4.4.4.4.4.4.",
"4.4.4.4.4.4.4.4.4.4.4.4.4.4.4.4.4.4.4.4.4.4.4.4.4.4.4.4.4.4.4.4.",
"4.4.4.4.4.4.4.4.4.4.4.4.4.4.4.4.4.4.4.4.4.4.4.4.4.4.4.4.4.4.4.4.",
"4.4.4.4.4.4.4.4.4.4.4.4.4.4.4.4.4.4.4.4.4.4.4.4.4.4.4.4.4.4.4.4.",
"4.4.4.4.4.4.4.4.4.4.4.4.4.4.4.4.4.4.4.4.4.4.4.4.4.4.4.4.4.4.4.4."
};
