/* XPM */
static const char *x51[] = {
/* columns rows colors chars-per-pixel */
"32 32 95 2",
"   c black",
".  c #011D011D011D",
"X  c #020202020202",
"o  c #02F602F602F6",
"O  c #044E044E044E",
"+  c #04CD04CD04CD",
"@  c #07C607C607C6",
"#  c #098809880988",
"$  c #099E099E099E",
"%  c #0DB80DB80DB8",
"&  c #0F5E0F5E0F5E",
"*  c #144814481448",
"=  c #159115911591",
"-  c #168916891689",
";  c #1C881C881C88",
":  c #1D3E1D3E1D3E",
">  c #1EEA1EEA1EEA",
",  c #204720472047",
"<  c #222E222E222E",
"1  c #22FA22FA22FA",
"2  c #241624162416",
"3  c #285328532853",
"4  c #296929692969",
"5  c #2A372A372A37",
"6  c #2DEE2DEE2DEE",
"7  c #309230923092",
"8  c #330F330F330F",
"9  c #36F936F936F9",
"0  c #3D6A3D6A3D6A",
"q  c #402540254025",
"w  c #415C415C415C",
"e  c #447E447E447E",
"r  c #485E485E485E",
"t  c #490F490F490F",
"y  c #49ED49ED49ED",
"u  c #541254125412",
"i  c #587858785878",
"p  c #60A360A360A3",
"a  c #63D263D263D2",
"s  c #641064106410",
"d  c #692569256925",
"f  c #746574657465",
"g  c #769C769C769C",
"h  c #79F079F079F0",
"j  c #7A6B7A6B7A6B",
"k  c #7E897E897E89",
"l  c #7FAC7FAC7FAC",
"z  c #83D683D683D6",
"x  c #8D328D328D32",
"c  c #8E1C8E1C8E1C",
"v  c #8F728F728F72",
"b  c #908690869086",
"n  c #995099509950",
"m  c #9A809A809A80",
"M  c #9D4D9D4D9D4D",
"N  c #9F7A9F7A9F7A",
"B  c #A067A067A067",
"V  c #A510A510A510",
"C  c #A56EA56EA56E",
"Z  c #AC3CAC3CAC3C",
"A  c #AE8EAE8EAE8E",
"S  c #AF9EAF9EAF9E",
"D  c #B567B567B567",
"F  c #B751B751B751",
"G  c #B8C7B8C7B8C7",
"H  c #BD99BD99BD99",
"J  c #BFFFBFFFBFFF",
"K  c #C903C903C903",
"L  c #CA85CA85CA85",
"P  c #CE22CE22CE22",
"I  c #DBD2DBD2DBD2",
"U  c #DCFBDCFBDCFB",
"Y  c #DDA7DDA7DDA7",
"T  c #DF77DF77DF77",
"R  c #E140E140E140",
"E  c #E1E2E1E2E1E2",
"W  c #E410E410E410",
"Q  c #E4C7E4C7E4C7",
"!  c #E853E853E853",
"~  c #E8F0E8F0E8F0",
"^  c #EA1CEA1CEA1C",
"/  c #EAADEAADEAAD",
"(  c #EBE0EBE0EBE0",
")  c #EDCAEDCAEDCA",
"_  c #F10DF10DF10D",
"`  c #F27BF27BF27B",
"'  c #F3EBF3EBF3EB",
"]  c #F8E2F8E2F8E2",
"[  c #F9FBF9FBF9FB",
"{  c #FAD9FAD9FAD9",
"}  c #FBDFFBDFFBDF",
"|  c #FD2BFD2BFD2B",
" . c #FD93FD93FD93",
".. c #FF18FF18FF18",
"X. c gray100",
/* pixels */
"X.X.X.X.X.X.X.X.X.X.X.X.X.X.X.X.X.X.X.X.X.X.X.X.X.X.X.X.X.X.X.X.",
"X.X.X.X.X.X.X.X.X.X.X.X.X.X.X.X.X.X.X.X.X.X.X.X.X.X.X.X.X.X.X.X.",
"X.X.X.X.X.X.X.X.X.X.X.X.X.X.X.X.X.X.X.X.X.X.X.X.X.X.X.X.X.X.X.X.",
"X.X.X.X.X.X.X.X.X.X.X.X.X.X.X.X.X.X.X.X.X.X.X.X.X.X.X.X.X.X.X.X.",
"X.X.X.X.X.X.X.X.X.X.X.X.X.X.! W W ] X.X.X.X.X.X.X.X.X.X.X.X.X.X.",
"X.X.X.X.X.X.X.X.X.X.X.} D u 3 : < r x ( X.X.X.X.X.X.X.X.X.X.X.X.",
"X.X.X.X.X.X.X.X.X.X.` f %             e K X.X.X.X.X.X.X.X.X.X.X.",
"X.X.X.X.X.X.X.X.X.X.b +   * u k h 9 +   e ( X.X.X.X.X.X.X.X.X.X.",
"X.X.X.X.X.X.X.X.X.W 3   < G } X.X.( d   + M X.X.X.X.X.X.X.X.X.X.",
"X.X.X.X.X.X.X.X.X.A @ + C X.X.X.X.X.( 7   u X.X.X.X.X.X.X.X.X.X.",
"X.X.X.X.X.X.X.X.X.U C x ( X.X.X.X.X.} r   r } X.X.X.X.X.X.X.X.X.",
"X.X.X.X.X.X.X.X.X.X.X.X.X.X.X.X.X.X.I <   h X.X.X.X.X.X.X.X.X.X.",
"X.X.X.X.X.X.X.X.X.X.X.X.X.X.X.X.} U a   * K X.X.X.X.X.X.X.X.X.X.",
"X.X.X.X.X.X.X.X.X.X.X.X.X.X.J k a <   : M X.X.X.X.X.X.X.X.X.X.X.",
"X.X.X.X.X.X.X.X.X.X.X.X.X.X.k       + d U X.X.X.X.X.X.X.X.X.X.X.",
"X.X.X.X.X.X.X.X.X.X.X.X.X.X.h e y 7 +   3 G X.X.X.X.X.X.X.X.X.X.",
"X.X.X.X.X.X.X.X.X.X.X.X.X.X.) } X.( n <   5 U X.X.X.X.X.X.X.X.X.",
"X.X.X.X.X.X.X.X.X.X.X.X.X.X.X.X.X.X.X.M +   b X.X.X.X.X.X.X.X.X.",
"X.X.X.X.X.X.X.X.X.X.X.X.X.X.X.X.X.X.X.) 9   u X.X.X.X.X.X.X.X.X.",
"X.X.X.X.X.X.X.X.X.} ( ( X.X.X.X.X.X.X.} r   r } X.X.X.X.X.X.X.X.",
"X.X.X.X.X.X.X.X.} z 5 r ) X.X.X.X.X.X.) 7   i X.X.X.X.X.X.X.X.X.",
"X.X.X.X.X.X.X.X.X.k   @ A X.X.X.X.X.X.A @   x X.X.X.X.X.X.X.X.X.",
"X.X.X.X.X.X.X.X.X.K -   < G } X.X.} A <   2 U X.X.X.X.X.X.X.X.X.",
"X.X.X.X.X.X.X.X.X.X.f +   * u z h r %   % n X.X.X.X.X.X.X.X.X.X.",
"X.X.X.X.X.X.X.X.X.X.` f %             : n X.X.X.X.X.X.X.X.X.X.X.",
"X.X.X.X.X.X.X.X.X.X.X.} D a 3 : < 0 f K X.X.X.X.X.X.X.X.X.X.X.X.",
"X.X.X.X.X.X.X.X.X.X.X.X.X.X.! U W ` X.X.X.X.X.X.X.X.X.X.X.X.X.X.",
"X.X.X.X.X.X.X.X.X.X.X.X.X.X.X.X.X.X.X.X.X.X.X.X.X.X.X.X.X.X.X.X.",
"X.X.X.X.X.X.X.X.X.X.X.X.X.X.X.X.X.X.X.X.X.X.X.X.X.X.X.X.X.X.X.X.",
"X.X.X.X.X.X.X.X.X.X.X.X.X.X.X.X.X.X.X.X.X.X.X.X.X.X.X.X.X.X.X.X.",
"X.X.X.X.X.X.X.X.X.X.X.X.X.X.X.X.X.X.X.X.X.X.X.X.X.X.X.X.X.X.X.X.",
"X.X.X.X.X.X.X.X.X.X.X.X.X.X.X.X.X.X.X.X.X.X.X.X.X.X.X.X.X.X.X.X."
};
