/* XPM */
static const char *x56[] = {
/* columns rows colors chars-per-pixel */
"32 32 81 1",
"  c black",
". c #021802180218",
"X c #034C034C034C",
"o c #048704870487",
"O c #098709870987",
"+ c #0B650B650B65",
"@ c #0B8F0B8F0B8F",
"# c #0D870D870D87",
"$ c #0EE10EE10EE1",
"% c #0FC00FC00FC0",
"& c #144414441444",
"* c #151715171517",
"= c #15D615D615D6",
"- c #178517851785",
"; c #1C7F1C7F1C7F",
": c #1D7C1D7C1D7C",
"> c #1DB61DB61DB6",
", c #1EA61EA61EA6",
"< c #220622062206",
"1 c #231A231A231A",
"2 c #23B123B123B1",
"3 c #297C297C297C",
"4 c #2A902A902A90",
"5 c #2B9B2B9B2B9B",
"6 c #2C462C462C46",
"7 c #326132613261",
"8 c #330F330F330F",
"9 c #36E536E536E5",
"0 c #433D433D433D",
"q c #46E446E446E4",
"w c #48F748F748F7",
"e c #4ADE4ADE4ADE",
"r c #4EAB4EAB4EAB",
"t c #4F5B4F5B4F5B",
"y c #533353335333",
"u c #545154515451",
"i c #58A658A658A6",
"p c #5A7F5A7F5A7F",
"a c #5FDD5FDD5FDD",
"s c #655C655C655C",
"d c #6AB06AB06AB0",
"f c #79E979E979E9",
"g c #7A5B7A5B7A5B",
"h c #7F647F647F64",
"j c #810881088108",
"k c #893589358935",
"l c #8C528C528C52",
"z c #8F728F728F72",
"x c #967896789678",
"c c #9B2A9B2A9B2A",
"v c #9D599D599D59",
"b c #A460A460A460",
"n c #A6A4A6A4A6A4",
"m c #AA50AA50AA50",
"M c #ACA7ACA7ACA7",
"N c #B59BB59BB59B",
"B c #B8C7B8C7B8C7",
"V c #BC9FBC9FBC9F",
"C c #BE01BE01BE01",
"Z c #BEADBEADBEAD",
"A c #C0A7C0A7C0A7",
"S c #C9DCC9DCC9DC",
"D c #CBDBCBDBCBDB",
"F c #CE0FCE0FCE0F",
"G c #CE7FCE7FCE7F",
"H c #CF69CF69CF69",
"J c #DCC9DCC9DCC9",
"K c #E1A8E1A8E1A8",
"L c #E4C9E4C9E4C9",
"P c #E844E844E844",
"I c #E958E958E958",
"U c #EDF6EDF6EDF6",
"Y c #F286F286F286",
"T c #F4DDF4DDF4DD",
"R c #FA4CFA4CFA4C",
"E c #FAE1FAE1FAE1",
"W c #FBDEFBDEFBDE",
"Q c #FCD7FCD7FCD7",
"! c #FDE1FDE1FDE1",
"~ c #FF26FF26FF26",
"^ c gray100",
/* pixels */
"^^^^^^^^^^^^^^^^^^^^^^^^^^^^^^^^",
"^^^^^^^^^^^^^^^^^^^^^^^^^^^^^^^^",
"^^^^^^^^^^^^^^^^^^^^^^^^^^^^^^^^",
"^^^^^^^^^^^^^^^^^^^^^^^^^^^^^^^^",
"^^^^^^^^^^^^^^UKKU^^^^^^^^^^^^^^",
"^^^^^^^^^^^RSd7,,7dF^^^^^^^^^^^^",
"^^^^^^^^^^Rx&      ,c^^^^^^^^^^^",
"^^^^^^^^^^N& #yhhy# &V^^^^^^^^^^",
"^^^^^^^^^Ru &mR^^Rn& uR^^^^^^^^^",
"^^^^^^^^^L1 a^^^^^Rs 1L^^^^^^^^^",
"^^^^^^^^^K, g^^^^^^g ,K^^^^^^^^^",
"^^^^^^^^^T0 9L^^^^I9 0T^^^^^^^^^",
"^^^^^^^^^^n# tVKKVp #n^^^^^^^^^^",
"^^^^^^^^^^Rn6 +,,+ 2vR^^^^^^^^^^",
"^^^^^^^^^^^Sy      qF^^^^^^^^^^^",
"^^^^^^^^^^b& &ujhu& 1V^^^^^^^^^^",
"^^^^^^^^^J4 1VR^^RV1 4J^^^^^^^^^",
"^^^^^^^^^l +m^^^^^^m+ l^^^^^^^^^",
"^^^^^^^^^u 7U^^^^^^U7 p^^^^^^^^^",
"^^^^^^^^Rw wR^^^^^^Rw wR^^^^^^^^",
"^^^^^^^^^t 7U^^^^^^U7 tR^^^^^^^^",
"^^^^^^^^^k +M^^^^^^M+ k^^^^^^^^^",
"^^^^^^^^^F& 6VR^^RV6 &F^^^^^^^^^",
"^^^^^^^^^^lo &wghu& ol^^^^^^^^^^",
"^^^^^^^^^^Yh&      &jY^^^^^^^^^^",
"^^^^^^^^^^^^Sd7,,7sA^^^^^^^^^^^^",
"^^^^^^^^^^^^^^UKKUR^^^^^^^^^^^^^",
"^^^^^^^^^^^^^^^^^^^^^^^^^^^^^^^^",
"^^^^^^^^^^^^^^^^^^^^^^^^^^^^^^^^",
"^^^^^^^^^^^^^^^^^^^^^^^^^^^^^^^^",
"^^^^^^^^^^^^^^^^^^^^^^^^^^^^^^^^",
"^^^^^^^^^^^^^^^^^^^^^^^^^^^^^^^^"
};
