/* XPM */
static const char *x70[] = {
/* columns rows colors chars-per-pixel */
"32 32 29 1",
"  c #000200020002",
". c #00EB00EB00EB",
"X c #031803180318",
"o c #039703970397",
"O c #04E204E204E2",
"+ c #1AB51AB51AB5",
"@ c #1E1D1E1D1E1D",
"# c #229122912291",
"$ c #45FB45FB45FB",
"% c #4C8E4C8E4C8E",
"& c #5B845B845B84",
"* c #7FFE7FFE7FFE",
"= c #828382838283",
"- c #8F118F118F11",
"; c #A47BA47BA47B",
": c #B5ECB5ECB5EC",
"> c #B708B708B708",
", c #BA0EBA0EBA0E",
"< c #BF9FBF9FBF9F",
"1 c #CBD4CBD4CBD4",
"2 c #DB83DB83DB83",
"3 c #E1D2E1D2E1D2",
"4 c #E273E273E273",
"5 c #F0EDF0EDF0ED",
"6 c #F768F768F768",
"7 c #FAFCFAFCFAFC",
"8 c #FD7CFD7CFD7C",
"9 c #FE91FE91FE91",
"0 c gray100",
/* pixels */
"00000000000000000000000000000000",
"00000000000000000000000000000000",
"00000000000000000000000000000000",
"00000000000000000000000000000000",
"00000000053333333333333600000000",
"000000000-+@@@@@@@@@@@#<00000000",
"000000000*            O>00000000",
"000000000=  &==*******=200000000",
"000000000= O>0000000000000000000",
"000000000* O>0000000000000000000",
"000000000* O>0000000000000000000",
"000000000= O>0000000000000000000",
"000000000* O>0000000000000000000",
"000000000* O=,>>>>>>>20000000000",
"000000000*   OOOOOOO =0000000000",
"000000000*  OOOOOOOO =0000000000",
"000000000=  =,>>>>>>>20000000000",
"000000000= O>0000000000000000000",
"000000000* O>0000000000000000000",
"000000000* O>0000000000000000000",
"000000000* O>0000000000000000000",
"000000000* O>0000000000000000000",
"000000000* O>0000000000000000000",
"000000000= O>0000000000000000000",
"000000000= O>0000000000000000000",
"000000000;$%10000000000000000000",
"00000000077700000000000000000000",
"00000000000000000000000000000000",
"00000000000000000000000000000000",
"00000000000000000000000000000000",
"00000000000000000000000000000000",
"00000000000000000000000000000000"
};
