/* XPM */
static const char *x77[] = {
/* columns rows colors chars-per-pixel */
"32 32 85 1",
"  c #000100010001",
". c #00C900C900C9",
"X c #052005200520",
"o c #071007100710",
"O c #0B1D0B1D0B1D",
"+ c #0C1D0C1D0C1D",
"@ c #0D8A0D8A0D8A",
"# c #115E115E115E",
"$ c #125712571257",
"% c #16FC16FC16FC",
"& c #1A681A681A68",
"* c #1ABA1ABA1ABA",
"= c #1C191C191C19",
"- c #1D161D161D16",
"; c #1E251E251E25",
": c #200F200F200F",
"> c #220122012201",
", c #276327632763",
"< c #295B295B295B",
"1 c #29FF29FF29FF",
"2 c #2F1E2F1E2F1E",
"3 c #330F330F330F",
"4 c #344D344D344D",
"5 c #36B836B836B8",
"6 c #38BA38BA38BA",
"7 c #433D433D433D",
"8 c #449044904490",
"9 c #464D464D464D",
"0 c #471247124712",
"q c #48F848F848F8",
"w c #4A6E4A6E4A6E",
"e c #4C834C834C83",
"r c #539C539C539C",
"t c #57CF57CF57CF",
"y c #59C859C859C8",
"u c #5E835E835E83",
"i c #62AD62AD62AD",
"p c #63A463A463A4",
"a c #64B864B864B8",
"s c #650165016501",
"d c #67B867B867B8",
"f c #6BA96BA96BA9",
"g c #719571957195",
"h c #76CA76CA76CA",
"j c #7D227D227D22",
"k c #88F788F788F7",
"l c #893589358935",
"z c #8CC08CC08CC0",
"x c #8E6E8E6E8E6E",
"c c #91CB91CB91CB",
"v c #9A6F9A6F9A6F",
"b c #9B469B469B46",
"n c #9C5B9C5B9C5B",
"m c #9D3F9D3F9D3F",
"M c #AC72AC72AC72",
"N c #B7BDB7BDB7BD",
"B c #BCC2BCC2BCC2",
"V c #BFB2BFB2BFB2",
"C c #C3B2C3B2C3B2",
"Z c #C5D6C5D6C5D6",
"A c #CB88CB88CB88",
"S c #CCF0CCF0CCF0",
"D c #D89CD89CD89C",
"F c #DA95DA95DA95",
"G c #DEE2DEE2DEE2",
"H c #DFC6DFC6DFC6",
"J c #E15DE15DE15D",
"K c #E1DDE1DDE1DD",
"L c #E328E328E328",
"P c #E418E418E418",
"I c #E581E581E581",
"U c #EA73EA73EA73",
"Y c #EBC2EBC2EBC2",
"T c #EDC0EDC0EDC0",
"R c #EE97EE97EE97",
"E c #EFD9EFD9EFD9",
"W c #F4DDF4DDF4DD",
"Q c #F654F654F654",
"! c #FA03FA03FA03",
"~ c #FAEFFAEFFAEF",
"^ c #FC22FC22FC22",
"/ c #FCF1FCF1FCF1",
"( c #FE52FE52FE52",
") c #FF2BFF2BFF2B",
"_ c gray100",
/* pixels */
"________________________________",
"________________________________",
"________________________________",
"________________________________",
"_____^IKKKW__________EKKGU______",
"_____I6==*c_________^i*=*u^_____",
"_____K=...7W________D*...w^_____",
"_____K=...$A________v....0^_____",
"_____K=.@X.v________t.@O.w^_____",
"_____K=.53.r^______K,.0=.0^_____",
"_____K=.wg.*D______MXXx:.0^_____",
"_____K=.eNO.v______a.1Z:.w^_____",
"_____K:.wK1.r^____K,.yG:.w^_____",
"_____K=.w^a.=G____MX.mI=.0^_____",
"_____K=.0_MXXM____g.*DI=.w^_____",
"_____K=.w^K,.a___E3.r_K=.0W_____",
"_____K=.0^_i.1K__BO.x_K=.w^_____",
"_____K=.w^_v.XM__h.$A_K=.w^_____",
"_____K:.w^_D*.a_U5.7W_K:.0^_____",
"_____K=.wW_^r.1UCO.k__K=.w^_____",
"_____K=.w^__v.OVx.$A__K:.w^_____",
"_____K=.w^__A$.f0.3E__K=.0^_____",
"_____K=.w^__W7.%O.h___K=.w^_____",
"_____K=.wW___k...OB___K=.0W_____",
"_____K=.w^___A$..3U___K=.w^_____",
"_____Uu0j^___Ea00k____Uu7j^_____",
"______^^^_____^^^^_____^^^______",
"________________________________",
"________________________________",
"________________________________",
"________________________________",
"________________________________"
};
