/* XPM */
static const char *x94[] = {
/* columns rows colors chars-per-pixel */
"32 32 61 1",
"  c black",
". c #00EC00EC00EC",
"X c #023302330233",
"o c #041204120412",
"O c #080A080A080A",
"+ c #095709570957",
"@ c #0E120E120E12",
"# c #107910791079",
"$ c #10A410A410A4",
"% c #153F153F153F",
"& c #1B291B291B29",
"* c #239523952395",
"= c #282028202820",
"- c #31A531A531A5",
"; c #327832783278",
": c #396539653965",
"> c #42B642B642B6",
", c #43F943F943F9",
"< c #46CD46CD46CD",
"1 c #4C704C704C70",
"2 c #4FDA4FDA4FDA",
"3 c #54AF54AF54AF",
"4 c #561E561E561E",
"5 c #5B855B855B85",
"6 c #608560856085",
"7 c #6B606B606B60",
"8 c #736D736D736D",
"9 c #75F375F375F3",
"0 c #7F297F297F29",
"q c #8A0C8A0C8A0C",
"w c #94CC94CC94CC",
"e c #95E095E095E0",
"r c #9A149A149A14",
"t c #9F7A9F7A9F7A",
"y c #A09EA09EA09E",
"u c #A9E9A9E9A9E9",
"i c #AB4FAB4FAB4F",
"p c #B279B279B279",
"a c #B3D6B3D6B3D6",
"s c #B563B563B563",
"d c #BF21BF21BF21",
"f c #C675C675C675",
"g c #C8ECC8ECC8EC",
"h c #CC4BCC4BCC4B",
"j c #CE53CE53CE53",
"k c #D787D787D787",
"l c #DA6FDA6FDA6F",
"z c #DCFCDCFCDCFC",
"x c #E42BE42BE42B",
"c c #E568E568E568",
"v c #E98DE98DE98D",
"b c #EEA0EEA0EEA0",
"n c #F203F203F203",
"m c #F406F406F406",
"M c #F65BF65BF65B",
"N c #F691F691F691",
"B c #FAACFAACFAAC",
"V c #FC2DFC2DFC2D",
"C c #FD08FD08FD08",
"Z c #FF32FF32FF32",
"A c gray100",
/* pixels */
"AAAAAAAAAAAAAAAAAAAAAAAAAAAAAAAA",
"AAAAAAAAAAAAAAAAAAAAAAAAAAAAAAAA",
"AAAAAAAAAAAAAAAAAAAAAAAAAAAAAAAA",
"AAAAAAAAAAAAAAAAAAAAAAAAAAAAAAAA",
"AAAAAAAAAAAAAAMdslAAAAAAAAAAAAAA",
"AAAAAAAAAAAAAAs@ 3VAAAAAAAAAAAAA",
"AAAAAAAAAAAAAA6  %hAAAAAAAAAAAAA",
"AAAAAAAAAAAAAh%#; 9AAAAAAAAAAAAA",
"AAAAAAAAAAAAA0 2u+*zAAAAAAAAAAAA",
"AAAAAAAAAAAAc= ym: eAAAAAAAAAAAA",
"AAAAAAAAAAAAr =xAq :bAAAAAAAAAAA",
"AAAAAAAAAAAm> 9AAk&oaAAAAAAAAAAA",
"AAAAAAAAAAAa+#fAAV2 3VAAAAAAAAAA",
"AAAAAAAAAAV6 1MAAAio#hAAAAAAAAAA",
"AAAAAAAAAAh% yAAAAv; 8AAAAAAAAAA",
"AAAAAAAAAAa<5cAAAAAe>7bAAAAAAAAA",
"AAAAAAAAAAVVVAAAAAAAVVVAAAAAAAAA",
"AAAAAAAAAAAAAAAAAAAAAAAAAAAAAAAA",
"AAAAAAAAAAAAAAAAAAAAAAAAAAAAAAAA",
"AAAAAAAAAAAAAAAAAAAAAAAAAAAAAAAA",
"AAAAAAAAAAAAAAAAAAAAAAAAAAAAAAAA",
"AAAAAAAAAAAAAAAAAAAAAAAAAAAAAAAA",
"AAAAAAAAAAAAAAAAAAAAAAAAAAAAAAAA",
"AAAAAAAAAAAAAAAAAAAAAAAAAAAAAAAA",
"AAAAAAAAAAAAAAAAAAAAAAAAAAAAAAAA",
"AAAAAAAAAAAAAAAAAAAAAAAAAAAAAAAA",
"AAAAAAAAAAAAAAAAAAAAAAAAAAAAAAAA",
"AAAAAAAAAAAAAAAAAAAAAAAAAAAAAAAA",
"AAAAAAAAAAAAAAAAAAAAAAAAAAAAAAAA",
"AAAAAAAAAAAAAAAAAAAAAAAAAAAAAAAA",
"AAAAAAAAAAAAAAAAAAAAAAAAAAAAAAAA",
"AAAAAAAAAAAAAAAAAAAAAAAAAAAAAAAA"
};
