/* XPM */
static const char * alert_xpm[] = {
"16 16 100 2",
"  	c None",
". 	c #E9E9E9",
"+ 	c #E8E8E8",
"@ 	c #E2E2E2",
"# 	c #E1E1E1",
"$ 	c #DCDCDC",
"% 	c #FFE400",
"& 	c #DBDAD6",
"* 	c #FFE200",
"= 	c #FFDD00",
"- 	c #D5D4CE",
"; 	c #FFDB00",
"> 	c #FFDA00",
", 	c #D4D2CD",
"' 	c #FFD900",
") 	c #D1D0CE",
"! 	c #D2D1CE",
"~ 	c #FFD500",
"{ 	c #D1CFC4",
"] 	c #FFD400",
"^ 	c #FFD300",
"/ 	c #FFD200",
"( 	c #FFD100",
"_ 	c #FFD000",
": 	c #FFCF00",
"< 	c #FFCE00",
"[ 	c #FCCD00",
"} 	c #FFCC00",
"| 	c #FFCD00",
"1 	c #FCCC00",
"2 	c #FCCA00",
"3 	c #FAC700",
"4 	c #F9C700",
"5 	c #F5C400",
"6 	c #F3C300",
"7 	c #F2C100",
"8 	c #F0C000",
"9 	c #BBBBB9",
"0 	c #EDBE01",
"a 	c #C0BAA4",
"b 	c #EABC00",
"c 	c #E5B700",
"d 	c #E3B708",
"e 	c #DCB211",
"f 	c #DEB200",
"g 	c #BFAE6A",
"h 	c #DCB000",
"i 	c #C5AD50",
"j 	c #DBAF00",
"k 	c #DAAF00",
"l 	c #D9AE04",
"m 	c #D9AE00",
"n 	c #D8AD00",
"o 	c #D7AC05",
"p 	c #BAAA6A",
"q 	c #A8A7A5",
"r 	c #D4AA00",
"s 	c #D3A907",
"t 	c #B8A869",
"u 	c #D3A905",
"v 	c #B5A76C",
"w 	c #B7A55C",
"x 	c #BAA450",
"y 	c #CEA501",
"z 	c #B8A34E",
"A 	c #B6A255",
"B 	c #CDA400",
"C 	c #B1A161",
"D 	c #B0A061",
"E 	c #B39E4A",
"F 	c #C49D00",
"G 	c #AF9A46",
"H 	c #B19A41",
"I 	c #C09A00",
"J 	c #BF9900",
"K 	c #B79300",
"L 	c #AC8900",
"M 	c #AA8800",
"N 	c #A78600",
"O 	c #A68500",
"P 	c #A68400",
"Q 	c #A58400",
"R 	c #A58300",
"S 	c #A58200",
"T 	c #A28100",
"U 	c #8D7100",
"V 	c #7C6400",
"W 	c #715A00",
"X 	c #635933",
"Y 	c #6F5900",
"Z 	c #6C5700",
"` 	c #6B5500",
" .	c #5D4B00",
"..	c #58490D",
"+.	c #544300",
"@.	c #3A2E00",
"#.	c #2B2200",
"$.	c #171200",
"%.	c #060500",
"&.	c #000000",
"              9 q               ",
"              w H               ",
"            + l c &             ",
"            t [ / E             ",
"          # y % % f )           ",
"          g 6 Y ` r i           ",
"        $ o 8 &.&.N 0 -         ",
"        D ( b %.&.M = G         ",
"      . u ~ 4 $.&.F ; h &       ",
"      C [ [ / #.&.h / / z       ",
"    @ B ] } > @.&.7 _ _ n !     ",
"    p 1 1 1 > U +.( ( ( ( x     ",
"  # s ^ ^ ^ 3 V W k / / / j ,   ",
"  v [ [ [ [ 5 &.&.K ' } } } A   ",
"{ e ] ] ] ] 2 Z  .m ~ ~ ~ ~ d a ",
"X T Q Q Q Q Q J J L S S S S S .."};
