<?xml version="1.0" encoding="UTF-8" standalone="no"?>
<svg
   width="25.088pt"
   height="6.641pt"
   viewBox="0 0 25.088 6.641"
   version="1.1"
   id="svg15"
   xmlns="http://www.w3.org/2000/svg"
   xmlns:svg="http://www.w3.org/2000/svg">
  <defs
     id="defs5">
    <clipPath
       id="clip-0">
      <path
         clip-rule="nonzero"
         d="M 14 0 L 25.089844 0 L 25.089844 6.640625 L 14 6.640625 Z M 14 0 "
         id="path2" />
    </clipPath>
  </defs>
  <g
     clip-path="url(#clip-0)"
     id="g9">
    <path
       fill="none"
       stroke-width="0.3985"
       stroke-linecap="butt"
       stroke-linejoin="miter"
       stroke="rgb(0%, 0%, 0%)"
       stroke-opacity="1"
       stroke-miterlimit="10"
       d="M 2.491625 -0.0003125 C 2.491625 1.374688 1.374437 2.491875 -0.0005625 2.491875 C -1.375563 2.491875 -2.488844 1.374688 -2.488844 -0.0003125 C -2.488844 -1.375312 -1.375563 -2.4925 -0.0005625 -2.4925 C 1.374437 -2.4925 2.491625 -1.375312 2.491625 -0.0003125 Z M 2.491625 -0.0003125 "
       transform="matrix(1, 0, 0, -1, 22.399, 3.32)"
       id="path7" />
  </g>
  <path
     fill="none"
     stroke-width="0.3985"
     stroke-linecap="butt"
     stroke-linejoin="miter"
     stroke="rgb(0%, 0%, 0%)"
     stroke-opacity="1"
     stroke-miterlimit="10"
     d="M -15.559156 -0.0003125 L -3.149 -0.0003125 "
     transform="matrix(1, 0, 0, -1, 22.399, 3.32)"
     id="path11" />
  <path
     fill="none"
     stroke-width="0.31879"
     stroke-linecap="round"
     stroke-linejoin="round"
     stroke="rgb(0%, 0%, 0%)"
     stroke-opacity="1"
     stroke-miterlimit="10"
     d="M -1.196103 1.593438 C -1.09454 0.995781 -0.00079 0.10125 0.299991 -0.0003125 C -0.00079 -0.0979687 -1.09454 -0.996406 -1.196103 -1.594062 "
     transform="matrix(1, 0, 0, -1, 19.25079, 3.32)"
     id="path13" />
</svg>
