/* XPM */
static char * lock_xpm[] = {
"20 20 175 2",
"  	c None",
". 	c #5E5E5E",
"+ 	c #777777",
"@ 	c #737373",
"# 	c #5A5A5A",
"$ 	c #272727",
"% 	c #434343",
"& 	c #9F9F9F",
"* 	c #9A9A9A",
"= 	c #7E7E7E",
"- 	c #727272",
"; 	c #707070",
"> 	c #606060",
", 	c #232323",
"' 	c #393939",
") 	c #B3B3B3",
"! 	c #919191",
"~ 	c #6F6F6F",
"{ 	c #6A6A6A",
"] 	c #696969",
"^ 	c #686868",
"/ 	c #929292",
"( 	c #A8A8A8",
"_ 	c #5F5F5F",
": 	c #5C5C5C",
"< 	c #353535",
"[ 	c #454545",
"} 	c #797979",
"| 	c #4C4C4C",
"1 	c #3B3B3B",
"2 	c #383838",
"3 	c #C0C0C0",
"4 	c #757575",
"5 	c #3A3A3A",
"6 	c #202020",
"7 	c #4F4F4A",
"8 	c #A2A2A1",
"9 	c #303030",
"0 	c #545454",
"a 	c #C1C1C1",
"b 	c #4D4D4D",
"c 	c #515150",
"d 	c #8D8C76",
"e 	c #BEB76A",
"f 	c #D0C875",
"g 	c #C6C6C4",
"h 	c #313131",
"i 	c #484737",
"j 	c #4D4B22",
"k 	c #61615C",
"l 	c #BCBCBC",
"m 	c #404040",
"n 	c #86825B",
"o 	c #F7ED81",
"p 	c #FBF6A9",
"q 	c #E9E4AF",
"r 	c #D3D3D2",
"s 	c #59563C",
"t 	c #D2CD58",
"u 	c #999650",
"v 	c #C3BD78",
"w 	c #BABABA",
"x 	c #3E3E3E",
"y 	c #888777",
"z 	c #FFFDCD",
"A 	c #FFFDC2",
"B 	c #CBB77A",
"C 	c #968C81",
"D 	c #4A443D",
"E 	c #6A4F26",
"F 	c #EEE45A",
"G 	c #57541F",
"H 	c #DBD042",
"I 	c #BCB075",
"J 	c #B8B8B8",
"K 	c #807B63",
"L 	c #FEFAB7",
"M 	c #FFFCB1",
"N 	c #FAF49D",
"O 	c #DBC96E",
"P 	c #D2BD5A",
"Q 	c #E6CE51",
"R 	c #DBAE25",
"S 	c #4E3A04",
"T 	c #CA9F1B",
"U 	c #BD9C3F",
"V 	c #908065",
"W 	c #66573E",
"X 	c #B29855",
"Y 	c #FDF8A0",
"Z 	c #FFFA9B",
"` 	c #FBEE84",
" .	c #F2D257",
"..	c #E3A825",
"+.	c #CE7803",
"@.	c #C28000",
"#.	c #4F3C00",
"$.	c #D6B921",
"%.	c #E9BD1D",
"&.	c #E4C048",
"*.	c #E8CD5E",
"=.	c #F4DB6B",
"-.	c #F2D352",
";.	c #EDC12A",
">.	c #E5B20C",
",.	c #DEA600",
"'.	c #E09B00",
").	c #D38000",
"!.	c #CE8600",
"~.	c #D8BE21",
"{.	c #F3D406",
"].	c #F4E45B",
"^.	c #F9EB92",
"/.	c #FBE42A",
"(.	c #F9DB00",
"_.	c #B49A00",
":.	c #241D00",
"<.	c #271C01",
"[.	c #CD9907",
"}.	c #D88A00",
"|.	c #D28A00",
"1.	c #F8D809",
"2.	c #FCF78F",
"3.	c #FFFDB9",
"4.	c #FFEE2E",
"5.	c #FBE000",
"6.	c #3C3400",
"7.	c #020100",
"8.	c #281A03",
"9.	c #CA9D11",
"0.	c #D98C00",
"a.	c #D18900",
"b.	c #F8D701",
"c.	c #FEF684",
"d.	c #FFFDC5",
"e.	c #8C7800",
"f.	c #181100",
"g.	c #937C1C",
"h.	c #E4AA06",
"i.	c #D48300",
"j.	c #CD8500",
"k.	c #F8D700",
"l.	c #FEF263",
"m.	c #FFFDD2",
"n.	c #ECC900",
"o.	c #4C3700",
"p.	c #BD9A10",
"q.	c #DE9800",
"r.	c #C66F00",
"s.	c #C68700",
"t.	c #4D3900",
"u.	c #D9B818",
"v.	c #FFF04E",
"w.	c #FFFDDA",
"x.	c #F3CF00",
"y.	c #BF9D01",
"z.	c #D8A304",
"A.	c #CD7B00",
"B.	c #CE8A00",
"C.	c #8D6900",
"D.	c #8E6D00",
"E.	c #F4CD00",
"F.	c #FEEE3E",
"G.	c #FBDE00",
"H.	c #E1AF00",
"I.	c #BC8500",
"J.	c #856300",
"K.	c #493700",
"L.	c #876A00",
"M.	c #C8A715",
"N.	c #E4C967",
"O.	c #D5B314",
"P.	c #BB9500",
"Q.	c #906E00",
"R.	c #574200",
"                                        ",
"                  . + @ # $             ",
"              % & * = - ; > ,           ",
"            ' ) ! ~ { ] ^ # '           ",
"            / ( _ : < [ } | 1           ",
"          2 3 4 5 6   7 8 1 9           ",
"          0 a b c d e f g h i j         ",
"          k l m n o p q r 9 s t         ",
"        u v w x y z A B C D E F G       ",
"        H I J < K L M N O P Q R S       ",
"        T U V W X Y Z `  ...+.@.#.      ",
"        $.%.&.*.=.-.;.>.,.'.).!.#.      ",
"        ~.{.].^./.(._.:.<.[.}.|.#.      ",
"        ~.1.2.3.4.5.6.7.8.9.0.a.#.      ",
"        ~.b.c.d.4.5.e.f.g.h.i.j.#.      ",
"        ~.k.l.m.4.5.n.o.p.q.r.s.t.      ",
"        u.k.v.w.4.5.x.y.z.A.B.C.        ",
"        D.E.F.w.4.G.E.H.I.J.K.          ",
"          L.M.N.O.P.Q.R.                ",
"                                        "};
