/* XPM */
static char * main_window[] = {
"32 32 11 1",
" 	c None",
".	c #000000",
"+	c #4E4D61",
"@	c #5A7692",
"#	c #9DB7D1",
"$	c #488E3C",
"%	c #49AD49",
"&	c #58E058",
"*	c #DA4B35",
"=	c #F27162",
"-	c #FF9090",
"                                ",
"                                ",
"                                ",
"      ...                       ",
"    ..+++..                     ",
"    .+++++..                    ",
"   .++@@@@+.                    ",
"   .+@@#@@+.                    ",
"   .+@###@@..                   ",
"    .@@#@@.  ....               ",
"    ..@@@..      ....   ...     ",
"      ...            ...$$$..   ",
"       .              .$$$$$.   ",
"        .            .$$%%%%$.  ",
"        .            .$%%&%%$.  ",
"        .            .$%&&&%%.  ",
"        .             .%%&%%.   ",
"         .            ..%%%..   ",
"         .            . ...     ",
"         .           .          ",
"          .        ..           ",
"          ...     .             ",
"        ..***..  .              ",
"        .*****. .               ",
"       .**====*.                ",
"       .*==-==*.                ",
"       .*=---==.                ",
"        .==-==.                 ",
"        ..===..                 ",
"          ...                   ",
"                                ",
"                                "};
