/* XPM */
static char *pan_cursor_mask[]={
"16 16 4 1",
"# c #000000",
"a c #131313",
"b c #141414",
". c #ff0000",
"................",
"................",
"........##......",
"......######....",
".....########...",
".....#########..",
"....#a########..",
"...###########..",
"..############..",
"..############..",
"..############..",
"..############..",
"..b###########..",
"...##########...",
"................",
"................"};
