/* XPM */
static char *rotate_tool[]={
"16 16 4 1",
"# c None",
". c None",
"b c #000000",
"a c #585858",
".....#abb#####..",
".....ab##b####..",
".....ab#bbb###..",
"....ab###b####..",
"...#ab###a##b###",
"#bb#ab####abbb##",
"b###ab######b#b#",
"b###ab########b#",
"abb#ab######bba#",
"#aabbbbbbbbbaa#.",
"###aabaaaaaa###.",
"....ab#########.",
".....ab##b####..",
"....#ab##b####..",
"....##abb#####..",
"....##########.."};
