/* XPM */
static char *settings[]={
"16 16 37 1",
"# c None",
". c None",
"a c #000000",
"B c #1f272f",
"n c #292929",
"r c #363636",
"q c #494746",
"F c #4d5f73",
"p c #50504f",
"H c #525252",
"I c #66798f",
"G c #6b6a69",
"t c #6c6967",
"u c #708295",
"b c #72706d",
"D c #748aa2",
"z c #788da4",
"y c #7d8c9c",
"w c #7d91a7",
"A c #7f99b3",
"E c #849eb9",
"m c #8a8784",
"C c #8d99a5",
"l c #a4a19c",
"d c #b1b1b1",
"s c #c8c7c6",
"c c #cac8c1",
"v c #cfd6dd",
"h c #d2d0cc",
"o c #d2d1d0",
"x c #d6d5d5",
"f c #d8d8d8",
"i c #dedbd6",
"k c #dfdedc",
"j c #e3e2e1",
"e c #ebebe8",
"g c #f9f8f8",
"................",
"...#a#......bab.",
"...aca#....bada.",
"....aea#...afab.",
"#a..aga#..baab..",
"ahaagia#.bab....",
"#ahjkflamnb.....",
".#aaaaopam......",
"......aaqa##....",
"...aaarasta#....",
"..auvwa.axma##..",
".ayvzAB.#aeba#..",
"aCvDEFa...axGa#.",
"avwEFaa...#aoHm.",
"HwIFaa......aam.",
"mHaaa..........."};
