/* XPM */
static char * file_derived_out_of_date_xpm[] = {
"24 24 102 2",
"  	c None",
". 	c #800000",
"+ 	c #E97777",
"@ 	c #FA8B8B",
"# 	c #FF9090",
"$ 	c #FC8C8C",
"% 	c #EC7B7B",
"& 	c #AC3131",
"* 	c #E37070",
"= 	c #E87676",
"- 	c #EB7878",
"; 	c #FE8F8F",
"> 	c #FE8E8E",
", 	c #E06C6C",
"' 	c #F07F7F",
") 	c #F78787",
"! 	c #CD5757",
"~ 	c #FD8E8E",
"{ 	c #D76262",
"] 	c #F48383",
"^ 	c #EF7E7E",
"/ 	c #C75050",
"( 	c #FC8D8C",
"_ 	c #FC8C8B",
": 	c #D25C5C",
"< 	c #F98A8A",
"[ 	c #E77575",
"} 	c #D15B5B",
"| 	c #FC8B8B",
"1 	c #CF5959",
"2 	c #FB8B8A",
"3 	c #FA8B8A",
"4 	c #F98988",
"5 	c #EE7C7C",
"6 	c #E97675",
"7 	c #DB6766",
"8 	c #CF5958",
"9 	c #B83E3E",
"0 	c #B23732",
"a 	c #FA8A89",
"b 	c #F98887",
"c 	c #F2817F",
"d 	c #EC7A79",
"e 	c #EB7978",
"f 	c #E67372",
"g 	c #D76260",
"h 	c #C44A45",
"i 	c #F78785",
"j 	c #F78584",
"k 	c #F68584",
"l 	c #F48282",
"m 	c #EA7877",
"n 	c #E26E6D",
"o 	c #C74D48",
"p 	c #FA8A8A",
"q 	c #F88887",
"r 	c #F88786",
"s 	c #F58483",
"t 	c #F58382",
"u 	c #F2807E",
"v 	c #E97674",
"w 	c #C64D47",
"x 	c #F98888",
"y 	c #F78786",
"z 	c #F78685",
"A 	c #F38281",
"B 	c #F07F7D",
"C 	c #F07E7C",
"D 	c #CB524D",
"E 	c #D25953",
"F 	c #F38280",
"G 	c #F17F7E",
"H 	c #F07E7B",
"I 	c #D05751",
"J 	c #F58482",
"K 	c #F48281",
"L 	c #F17F7D",
"M 	c #EF7D7B",
"N 	c #EE7C7A",
"O 	c #EE7C79",
"P 	c #F3817F",
"Q 	c #EE7B79",
"R 	c #F2817E",
"S 	c #F07F7C",
"T 	c #ED7A78",
"U 	c #EC7977",
"V 	c #CF564F",
"W 	c #F27F7E",
"X 	c #EE7B78",
"Y 	c #EB7876",
"Z 	c #F68585",
"` 	c #F07D7B",
" .	c #CE554E",
"..	c #EA7774",
"+.	c #CD544D",
"@.	c #CC5651",
"#.	c #D15952",
"$.	c #D15852",
"%.	c #D15851",
"&.	c #D15751",
"*.	c #D05750",
"=.	c #B33732",
"                                                ",
"      . . . . . . . . . . . . .                 ",
"    . + @ # # # # # # # # $ % & .               ",
"    . @ # # # # # # # # # # * = - .             ",
"    . # # # # # # # ; # ; > , ' ) ! .           ",
"    . # # # # # ; > > > > ~ { ] # ^ / .         ",
"    . # # # ; > > ~ ( ~ ( _ : ) # < [ } .       ",
"    . # ; > > ~ ( _ | _ | | 1 . . . . . . .     ",
"    . # > ~ ( _ | | 2 | 2 3 4 5 6 7 8 9 0 .     ",
"    . # ( _ | | 2 3 a 3 a 4 b c d e f g h .     ",
"    . # | | 2 3 a 4 4 4 4 b i j k l m n o .     ",
"    . # p a 4 4 4 b q b q r j s t c u v w .     ",
"    . # 4 x b y i r i r i z s A c u B C D .     ",
"    . # 4 x b y i r i r i z s A c u B C E .     ",
"    . # y i i z j k k k k s A F G C C H I .     ",
"    . # k k s s s J K J K K c c L M N O I .     ",
"    . # J l l A A A F A F P u L H N O Q I .     ",
"    . # F c c c c c R c R u S H N Q T U V .     ",
"    . $ u G L W u S L S L C C N Q X U Y V .     ",
"    . Z C C C H S H C H C M ` Q X U Y Y  ..     ",
"    . = H ` M N H N ` N ` O O X X Y Y ..+..     ",
"    . @.#.E $.%.$.I &.I &.*.I V V  . .+.=..     ",
"      . . . . . . . . . . . . . . . . . .       ",
"                                                "};
