/* XPM */
static const char *x107[] = {
/* columns rows colors chars-per-pixel */
"32 32 60 1",
"  c black",
". c #014A014A014A",
"X c #01EA01EA01EA",
"o c #030F030F030F",
"O c #03F103F103F1",
"+ c #04C204C204C2",
"@ c #063606360636",
"# c #069406940694",
"$ c #12F112F112F1",
"% c #151F151F151F",
"& c #170117011701",
"* c #1DCE1DCE1DCE",
"= c #211521152115",
"- c #225122512251",
"; c #412F412F412F",
": c #423742374237",
"> c #42D542D542D5",
", c #456445644564",
"< c #469246924692",
"1 c #46EB46EB46EB",
"2 c #4AFF4AFF4AFF",
"3 c #4C5A4C5A4C5A",
"4 c #4FF74FF74FF7",
"5 c #50F050F050F0",
"6 c #5C135C135C13",
"7 c #645E645E645E",
"8 c #660E660E660E",
"9 c #6A666A666A66",
"0 c #7FFF7FFF7FFF",
"q c #806C806C806C",
"w c #83D683D683D6",
"e c #908690869086",
"r c #943994399439",
"t c #B5B2B5B2B5B2",
"y c #B704B704B704",
"u c #B872B872B872",
"i c #BBABBBABBBAB",
"p c #BC7EBC7EBC7E",
"a c #BED0BED0BED0",
"s c #BF9FBF9FBF9F",
"d c #CBF5CBF5CBF5",
"f c #CD1ACD1ACD1A",
"g c #CD7ACD7ACD7A",
"h c #DB04DB04DB04",
"j c #DD1BDD1BDD1B",
"k c #E0CFE0CFE0CF",
"l c #E24EE24EE24E",
"z c #E2A8E2A8E2A8",
"x c #E443E443E443",
"c c #EAD7EAD7EAD7",
"v c #F155F155F155",
"b c #F1F2F1F2F1F2",
"n c #F4A6F4A6F4A6",
"m c #F768F768F768",
"M c #F9C6F9C6F9C6",
"N c #FB05FB05FB05",
"B c #FB91FB91FB91",
"V c #FE36FE36FE36",
"C c #FEDBFEDBFEDB",
"Z c gray100",
/* pixels */
"ZZZZZZZZZZZZZZZZZZZZZZZZZZZZZZZZ",
"ZZZZZZZZZZZZZZZZZZZZZZZZZZZZZZZZ",
"ZZZZZZZZZZZZZZZZZZZZZZZZZZZZZZZZ",
"ZZZZZZZZZZZZZZZZZZZZZZZZZZZZZZZZ",
"ZZZZZZZZZZmxxmZZZZZZZZZZZZZZZZZZ",
"ZZZZZZZZZZs==sZZZZZZZZZZZZZZZZZZ",
"ZZZZZZZZZZy++yZZZZZZZZZZZZZZZZZZ",
"ZZZZZZZZZZy++yZZZZZZZZZZZZZZZZZZ",
"ZZZZZZZZZZy++yZZZZZZZZZZZZZZZZZZ",
"ZZZZZZZZZZy++yZZZZZZZZZZZZZZZZZZ",
"ZZZZZZZZZZy++yZZZZbsyyjZZZZZZZZZ",
"ZZZZZZZZZZy++yZZZb9+ <xZZZZZZZZZ",
"ZZZZZZZZZZy++yZZb9+ ;jZZZZZZZZZZ",
"ZZZZZZZZZZy++yZb9  ;jZZZZZZZZZZZ",
"ZZZZZZZZZZy++ux6+ ;jZZZZZZZZZZZZ",
"ZZZZZZZZZZy++r< +8xZZZZZZZZZZZZZ",
"ZZZZZZZZZZy++&  =hZZZZZZZZZZZZZZ",
"ZZZZZZZZZZy+     qZZZZZZZZZZZZZZ",
"ZZZZZZZZZZy+ +82 %sZZZZZZZZZZZZZ",
"ZZZZZZZZZZy+ 8bd* ;cZZZZZZZZZZZZ",
"ZZZZZZZZZZy++yZZe+ qZZZZZZZZZZZZ",
"ZZZZZZZZZZy++yZZb3 %sZZZZZZZZZZZ",
"ZZZZZZZZZZy++yZZZf* ;cZZZZZZZZZZ",
"ZZZZZZZZZZy++yZZZZe+ 0ZZZZZZZZZZ",
"ZZZZZZZZZZy++yZZZZb5 $uZZZZZZZZZ",
"ZZZZZZZZZZd23dZZZZZf5<wmZZZZZZZZ",
"ZZZZZZZZZZZMMZZZZZZZMMMZZZZZZZZZ",
"ZZZZZZZZZZZZZZZZZZZZZZZZZZZZZZZZ",
"ZZZZZZZZZZZZZZZZZZZZZZZZZZZZZZZZ",
"ZZZZZZZZZZZZZZZZZZZZZZZZZZZZZZZZ",
"ZZZZZZZZZZZZZZZZZZZZZZZZZZZZZZZZ",
"ZZZZZZZZZZZZZZZZZZZZZZZZZZZZZZZZ"
};
