/* XPM */
static const char *x11[] = {
/* columns rows colors chars-per-pixel */
"32 32 14 1",
"  c #80B980B980B9",
". c #8CCE8CCE8CCE",
"X c #91EE91EE91EE",
"o c #92EE92EE92EE",
"O c #B570B570B570",
"+ c #BC0CBC0CBC0C",
"@ c #BECCBECCBECC",
"# c #CD42CD42CD42",
"$ c #EB4CEB4CEB4C",
"% c #F6BDF6BDF6BD",
"& c #F80DF80DF80D",
"* c #FA8AFA8AFA8A",
"= c #FE7CFE7CFE7C",
"- c gray100",
/* pixels */
"--------------------------------",
"--------------------------------",
"--------------------------------",
"--------------------------------",
"--------------------------------",
"--------------------------------",
"--------------------------------",
"--------$++++++++++++++$--------",
"--------+.@++++++++++@.+--------",
"--------++------------++--------",
"--------++------------++--------",
"--------++------------++--------",
"--------++------------++--------",
"--------++------------++--------",
"--------++------------++--------",
"--------++------------++--------",
"--------++------------++--------",
"--------++------------++--------",
"--------++------------++--------",
"--------++------------++--------",
"--------++------------++--------",
"--------++------------++--------",
"--------++------------++--------",
"--------++------------++--------",
"--------+O*&&&&&&&&&&*O+--------",
"--------# XXX.X..XX.XX #--------",
"--------*&&&&&&&&&%%&&&---------",
"--------------------------------",
"--------------------------------",
"--------------------------------",
"--------------------------------",
"--------------------------------"
};
