/* XPM */
static const char *x112[] = {
/* columns rows colors chars-per-pixel */
"32 32 86 1",
"  c #000200020002",
". c #012901290129",
"X c #033D033D033D",
"o c #044404440444",
"O c #058205820582",
"+ c #063406340634",
"@ c #072407240724",
"# c #0B790B790B79",
"$ c #0CF60CF60CF6",
"% c #0FC20FC20FC2",
"& c #117B117B117B",
"* c #145B145B145B",
"= c #154815481548",
"- c #1B991B991B99",
"; c #1C3E1C3E1C3E",
": c #1CB81CB81CB8",
"> c #1E221E221E22",
", c #229122912291",
"< c #230323032303",
"1 c #241624162416",
"2 c #273727372737",
"3 c #297229722972",
"4 c #2A582A582A58",
"5 c #2D8C2D8C2D8C",
"6 c #339D339D339D",
"7 c #357B357B357B",
"8 c #373337333733",
"9 c #382738273827",
"0 c #3DD63DD63DD6",
"q c #400F400F400F",
"w c #46B346B346B3",
"e c #4A674A674A67",
"r c #4E9A4E9A4E9A",
"t c #579A579A579A",
"y c #58A658A658A6",
"u c #5AEC5AEC5AEC",
"i c #5E3D5E3D5E3D",
"p c #5FE75FE75FE7",
"a c #63C263C263C2",
"s c #641064106410",
"d c #65AB65AB65AB",
"f c #6B996B996B99",
"g c #6E0F6E0F6E0F",
"h c #705070507050",
"j c #798579857985",
"k c #7EAA7EAA7EAA",
"l c #7FEE7FEE7FEE",
"z c #810B810B810B",
"x c #820C820C820C",
"c c #836883688368",
"v c #862586258625",
"b c #8A0C8A0C8A0C",
"n c #908690869086",
"m c #9F7A9F7A9F7A",
"M c #A023A023A023",
"N c #B52DB52DB52D",
"B c #B55CB55CB55C",
"V c #B775B775B775",
"C c #BA7CBA7CBA7C",
"Z c #BC2CBC2CBC2C",
"A c #BE80BE80BE80",
"S c #BFA6BFA6BFA6",
"D c #C0B3C0B3C0B3",
"F c #C2B0C2B0C2B0",
"G c #C7D8C7D8C7D8",
"H c #CCDDCCDDCCDD",
"J c #DBBBDBBBDBBB",
"K c #E10FE10FE10F",
"L c #E1DFE1DFE1DF",
"P c #E2ACE2ACE2AC",
"I c #E75CE75CE75C",
"U c #E8FBE8FBE8FB",
"Y c #EA64EA64EA64",
"T c #EA9EEA9EEA9E",
"R c #EE6BEE6BEE6B",
"E c #EEB8EEB8EEB8",
"W c #F234F234F234",
"Q c #F286F286F286",
"! c #F3FEF3FEF3FE",
"~ c #F768F768F768",
"^ c #F911F911F911",
"/ c #FBFEFBFEFBFE",
"( c #FD10FD10FD10",
") c #FE07FE07FE07",
"_ c #FEF1FEF1FEF1",
"` c gray100",
/* pixels */
"````````````````````````````````",
"````````````````````````````````",
"````````````````````````````````",
"````````````````````````````````",
"````````````````````````````````",
"````````````````````````````````",
"````````````````````````````````",
"````````````````````````````````",
"````````````````````````````````",
"````````````````````````````````",
"`````````~SBJ`UmkvNI````````````",
"`````````P, cF8@  @8Z```````````",
"`````````P; y5 #;&  ;Z``````````",
"`````````P; #@ySPHg$ 9U`````````",
"`````````P;  dW````k  m`````````",
"`````````P; ,J`````P2 t`````````",
"`````````P, t/``````d 6E````````",
"`````````P; k```````k ;P````````",
"`````````P; k```````c ;P````````",
"`````````P; j```````h 4U````````",
"`````````P; e/`````W0 r/````````",
"`````````P; =G`````Z& b`````````",
"`````````P;  qH``/S8 2J`````````",
"`````````P, @ -aci& @b``````````",
"`````````P; iw     &cW``````````",
"`````````P; cUc6;4dS/```````````",
"`````````P; k``EPI``````````````",
"`````````P; k```````````````````",
"`````````J; k```````````````````",
"`````````P, c```````````````````",
"`````````P; k```````````````````",
"`````````EcgB```````````````````"
};
