/* XPM */
static const char *x118[] = {
/* columns rows colors chars-per-pixel */
"32 32 68 1",
"  c #000300030003",
". c #00AC00AC00AC",
"X c #024F024F024F",
"o c #031D031D031D",
"O c #03ED03ED03ED",
"+ c #053505350535",
"@ c #0B040B040B04",
"# c #0BCC0BCC0BCC",
"$ c #0F850F850F85",
"% c #114A114A114A",
"& c #123F123F123F",
"* c #165E165E165E",
"= c #17A617A617A6",
"- c #1BDD1BDD1BDD",
"; c #232B232B232B",
": c #276327632763",
"> c #284228422842",
", c #31A831A831A8",
"< c #342A342A342A",
"1 c #42BE42BE42BE",
"2 c #433D433D433D",
"3 c #45AD45AD45AD",
"4 c #4D554D554D55",
"5 c #50E850E850E8",
"6 c #539C539C539C",
"7 c #54B054B054B0",
"8 c #572757275727",
"9 c #608560856085",
"0 c #64B864B864B8",
"q c #6A1F6A1F6A1F",
"w c #75F375F375F3",
"e c #76CA76CA76CA",
"r c #781778177817",
"t c #824782478247",
"y c #893589358935",
"u c #8A0C8A0C8A0C",
"i c #8BF38BF38BF3",
"p c #8C448C448C44",
"a c #9B389B389B38",
"s c #9F7A9F7A9F7A",
"d c #AB4FAB4FAB4F",
"f c #AC63AC63AC63",
"g c #B518B518B518",
"h c #BCC2BCC2BCC2",
"j c #BD4EBD4EBD4E",
"k c #BF22BF22BF22",
"l c #C3C1C3C1C3C1",
"z c #C675C675C675",
"x c #CBD4CBD4CBD4",
"c c #CE30CE30CE30",
"v c #CEAECEAECEAE",
"b c #D166D166D166",
"n c #D787D787D787",
"m c #D89CD89CD89C",
"M c #DCCFDCCFDCCF",
"N c #E410E410E410",
"B c #E986E986E986",
"V c #EDC0EDC0EDC0",
"C c #F406F406F406",
"Z c #F4DDF4DDF4DD",
"A c #F691F691F691",
"S c #F7C3F7C3F7C3",
"D c #F973F973F973",
"F c #FA37FA37FA37",
"G c #FAB6FAB6FAB6",
"H c #FC27FC27FC27",
"J c #FEF8FEF8FEF8",
"K c gray100",
/* pixels */
"KKKKKKKKKKKKKKKKKKKKKKKKKKKKKKKK",
"KKKKKKKKKKKKKKKKKKKKKKKKKKKKKKKK",
"KKKKKKKKKKKKKKKKKKKKKKKKKKKKKKKK",
"KKKKKKKKKKKKKKKKKKKKKKKKKKKKKKKK",
"KKKKKKKKKKKKKKKKKKKKKKKKKKKKKKKK",
"KKKKKKKKKKKKKKKKKKKKKKKKKKKKKKKK",
"KKKKKKKKKKKKKKKKKKKKKKKKKKKKKKKK",
"KKKKKKKKKKKKKKKKKKKKKKKKKKKKKKKK",
"KKKKKKKKKKKKKKKKKKKKKKKKKKKKKKKK",
"KKKKKKKKKKKKKKKKKKKKKKKKKKKKKKKK",
"KKKKKKKKKbgkZKKKKKKKxgzFKKKKKKKK",
"KKKKKKKKKi.%kKKKKKKB<.7FKKKKKKKK",
"KKKKKKKKKc*.eKKKKKKd+.aKKKKKKKKK",
"KKKKKKKKKF7.,BKKKKK0.-nKKKKKKKKK",
"KKKKKKKKKKs.+dKKKKM;.9FKKKKKKKKK",
"KKKKKKKKKKN>.0KKKKa.+fKKKKKKKKKK",
"KKKKKKKKKKKe.;MKKF6.:NKKKKKKKKKK",
"KKKKKKKKKKKh@.aKKn-.qKKKKKKKKKKK",
"KKKKKKKKKKKC2.6FKi.@hKKKKKKKKKKK",
"KKKKKKKKKKKKi.*cZ2.,VKKKKKKKKKKK",
"KKKKKKKKKKKKn-.ic%.eKKKKKKKKKKKK",
"KKKKKKKKKKKKF7.4t.%zKKKKKKKKKKKK",
"KKKKKKKKKKKKKd+*>.2CKKKKKKKKKKKK",
"KKKKKKKKKKKKKB,...iKKKKKKKKKKKKK",
"KKKKKKKKKKKKKKe..-cKKKKKKKKKKKKK",
"KKKKKKKKKKKKKKc63rZKKKKKKKKKKKKK",
"KKKKKKKKKKKKKKKFFFKKKKKKKKKKKKKK",
"KKKKKKKKKKKKKKKKKKKKKKKKKKKKKKKK",
"KKKKKKKKKKKKKKKKKKKKKKKKKKKKKKKK",
"KKKKKKKKKKKKKKKKKKKKKKKKKKKKKKKK",
"KKKKKKKKKKKKKKKKKKKKKKKKKKKKKKKK",
"KKKKKKKKKKKKKKKKKKKKKKKKKKKKKKKK"
};
