/* XPM */
static const char *x119[] = {
/* columns rows colors chars-per-pixel */
"32 32 100 2",
"   c #000400040004",
".  c #010E010E010E",
"X  c #01FB01FB01FB",
"o  c #02CF02CF02CF",
"O  c #04D604D604D6",
"+  c #05C205C205C2",
"@  c #069C069C069C",
"#  c #0B200B200B20",
"$  c #0BC90BC90BC9",
"%  c #0F4E0F4E0F4E",
"&  c #0FB00FB00FB0",
"*  c #112111211121",
"=  c #125012501250",
"-  c #142814281428",
";  c #160416041604",
":  c #17D217D217D2",
">  c #1BEB1BEB1BEB",
",  c #202A202A202A",
"<  c #229B229B229B",
"1  c #22B022B022B0",
"2  c #25AD25AD25AD",
"3  c #275C275C275C",
"4  c #2A152A152A15",
"5  c #2B9F2B9F2B9F",
"6  c #338433843384",
"7  c #345434543454",
"8  c #38A338A338A3",
"9  c #3E103E103E10",
"0  c #3F273F273F27",
"q  c #405940594059",
"w  c #433D433D433D",
"e  c #450045004500",
"r  c #462A462A462A",
"t  c #46EF46EF46EF",
"y  c #4A674A674A67",
"u  c #4B554B554B55",
"i  c #539B539B539B",
"p  c #561F561F561F",
"a  c #57CF57CF57CF",
"s  c #58A658A658A6",
"d  c #5A695A695A69",
"f  c #5BE65BE65BE6",
"g  c #5DAD5DAD5DAD",
"h  c #63A463A463A4",
"j  c #649564956495",
"k  c #673A673A673A",
"l  c #716471647164",
"z  c #72D272D272D2",
"x  c #745F745F745F",
"c  c #76C376C376C3",
"v  c #7FFF7FFF7FFF",
"b  c #801480148014",
"n  c #87D187D187D1",
"m  c #893589358935",
"M  c #8AA38AA38AA3",
"N  c #8E9B8E9B8E9B",
"B  c #9B469B469B46",
"V  c #9C869C869C86",
"C  c #9E009E009E00",
"Z  c #9E9D9E9D9E9D",
"A  c #A367A367A367",
"S  c #A536A536A536",
"D  c #A830A830A830",
"F  c #AC63AC63AC63",
"G  c #B0EAB0EAB0EA",
"H  c #B5B2B5B2B5B2",
"J  c #B801B801B801",
"K  c #B83BB83BB83B",
"L  c #BCC2BCC2BCC2",
"P  c #BEE9BEE9BEE9",
"I  c #C229C229C229",
"U  c #C55AC55AC55A",
"Y  c #CBD8CBD8CBD8",
"T  c #CDB6CDB6CDB6",
"R  c #D081D081D081",
"E  c #D625D625D625",
"W  c #D89CD89CD89C",
"Q  c #DA6FDA6FDA6F",
"!  c #DB83DB83DB83",
"~  c #DCD6DCD6DCD6",
"^  c #DFC9DFC9DFC9",
"/  c #E3FAE3FAE3FA",
"(  c #E82DE82DE82D",
")  c #EA1FEA1FEA1F",
"_  c #EA8DEA8DEA8D",
"`  c #EC1EEC1EEC1E",
"'  c #ED10ED10ED10",
"]  c #EDC0EDC0EDC0",
"[  c #EED9EED9EED9",
"{  c #F3F4F3F4F3F4",
"}  c #F4DDF4DDF4DD",
"|  c #F704F704F704",
" . c #F831F831F831",
".. c #F911F911F911",
"X. c #FABDFABDFABD",
"o. c #FC68FC68FC68",
"O. c #FD52FD52FD52",
"+. c #FDD6FDD6FDD6",
"@. c #FED1FED1FED1",
"#. c gray100",
/* pixels */
"#.#.#.#.#.#.#.#.#.#.#.#.#.#.#.#.#.#.#.#.#.#.#.#.#.#.#.#.#.#.#.#.",
"#.#.#.#.#.#.#.#.#.#.#.#.#.#.#.#.#.#.#.#.#.#.#.#.#.#.#.#.#.#.#.#.",
"#.#.#.#.#.#.#.#.#.#.#.#.#.#.#.#.#.#.#.#.#.#.#.#.#.#.#.#.#.#.#.#.",
"#.#.#.#.#.#.#.#.#.#.#.#.#.#.#.#.#.#.#.#.#.#.#.#.#.#.#.#.#.#.#.#.",
"#.#.#.#.#.#.#.#.#.#.#.#.#.#.#.#.#.#.#.#.#.#.#.#.#.#.#.#.#.#.#.#.",
"#.#.#.#.#.#.#.#.#.#.#.#.#.#.#.#.#.#.#.#.#.#.#.#.#.#.#.#.#.#.#.#.",
"#.#.#.#.#.#.#.#.#.#.#.#.#.#.#.#.#.#.#.#.#.#.#.#.#.#.#.#.#.#.#.#.",
"#.#.#.#.#.#.#.#.#.#.#.#.#.#.#.#.#.#.#.#.#.#.#.#.#.#.#.#.#.#.#.#.",
"#.#.#.#.#.#.#.#.#.#.#.#.#.#.#.#.#.#.#.#.#.#.#.#.#.#.#.#.#.#.#.#.",
"#.#.#.#.#.#.#.#.#.#.#.#.#.#.#.#.#.#.#.#.#.#.#.#.#.#.#.#.#.#.#.#.",
"#.#.#.#.#.| P H Q #.#.#.#.#.Q H H Y #.#.#.#.#.` H K ` #.#.#.#.#.",
"#.#.#.#.#.[ 8   p X.#.#.#.#.c     0 { #.#.#.#.M   ; T #.#.#.#.#.",
"#.#.#.#.#.#.c   , ^ #.#.#.| e     : E #.#.#.X.y   7 [ #.#.#.#.#.",
"#.#.#.#.#.#.H + + F #.#.#.^ ,       D #.#.#.E >   c #.#.#.#.#.#.",
"#.#.#.#.#.#./ 3   l #.#.#.H + = ,   l #.#.#.B   # P #.#.#.#.#.#.",
"#.#.#.#.#.#.#.j   7 [ #.#.v   0 j   0 { #.#.h   4 ( #.#.#.#.#.#.",
"#.#.#.#.#.#.#.D + # I #.X.y   c V   : ^ #./ 3   j #.#.#.#.#.#.#.",
"#.#.#.#.#.#.#./ 3   M #.^ ,   V R = + H #.H +   D #.#.#.#.#.#.#.",
"#.#.#.#.#.#.#.#.h   y #.H + = Y [ 4   b #.c   : Q #.#.#.#.#.#.#.",
"#.#.#.#.#.#.#.#.B   > Q n   6 [ #.s   y ` w   i X.#.#.#.#.#.#.#.",
"#.#.#.#.#.#.#.#.Q :   S g   s #.#.N   3 F ;   N #.#.#.#.#.#.#.#.",
"#.#.#.#.#.#.#.#.X.i   g 5   N #.#.I # = g   = Y #.#.#.#.#.#.#.#.",
"#.#.#.#.#.#.#.#.#.B   ; $ $ I #.#./ ,   =   w | #.#.#.#.#.#.#.#.",
"#.#.#.#.#.#.#.#.#.Q >     , / #.#.| y       b #.#.#.#.#.#.#.#.#.",
"#.#.#.#.#.#.#.#.#.X.i     y | #.#.#.v     # K #.#.#.#.#.#.#.#.#.",
"#.#.#.#.#.#.#.#.#.#.A e e V #.#.#.#.U y e j { #.#.#.#.#.#.#.#.#.",
"#.#.#.#.#.#.#.#.#.#.#.X.X.#.#.#.#.#.#.X.X.#.#.#.#.#.#.#.#.#.#.#.",
"#.#.#.#.#.#.#.#.#.#.#.#.#.#.#.#.#.#.#.#.#.#.#.#.#.#.#.#.#.#.#.#.",
"#.#.#.#.#.#.#.#.#.#.#.#.#.#.#.#.#.#.#.#.#.#.#.#.#.#.#.#.#.#.#.#.",
"#.#.#.#.#.#.#.#.#.#.#.#.#.#.#.#.#.#.#.#.#.#.#.#.#.#.#.#.#.#.#.#.",
"#.#.#.#.#.#.#.#.#.#.#.#.#.#.#.#.#.#.#.#.#.#.#.#.#.#.#.#.#.#.#.#.",
"#.#.#.#.#.#.#.#.#.#.#.#.#.#.#.#.#.#.#.#.#.#.#.#.#.#.#.#.#.#.#.#."
};
