/* XPM */
static const char *x132[] = {
/* columns rows colors chars-per-pixel */
"32 32 31 1",
"  c black",
". c #198D198D198D",
"X c #1E231E231E23",
"o c #201F201F201F",
"O c #305330533053",
"+ c #30DF30DF30DF",
"@ c #44C644C644C6",
"# c #5E835E835E83",
"$ c #632763276327",
"% c #6DA16DA16DA1",
"& c #7F797F797F79",
"* c #81F881F881F8",
"= c #A192A192A192",
"- c #A2AAA2AAA2AA",
"; c #A47BA47BA47B",
": c #A5CBA5CBA5CB",
"> c #A7AAA7AAA7AA",
", c #BCBDBCBDBCBD",
"< c #E1C2E1C2E1C2",
"1 c #E4C4E4C4E4C4",
"2 c #E5BFE5BFE5BF",
"3 c #EA73EA73EA73",
"4 c #ED3AED3AED3A",
"5 c #EEA4EEA4EEA4",
"6 c #F96FF96FF96F",
"7 c #FADDFADDFADD",
"8 c #FBD0FBD0FBD0",
"9 c #FD7CFD7CFD7C",
"0 c #FD86FD86FD86",
"q c #FF72FF72FF72",
"w c gray100",
/* pixels */
"wwwwwwwwwwwwwwwwwwwwwwwwwwwwwwww",
"wwwwwwwwwwwwwwwwwwwwwwwwwwwwwwww",
"wwwwwwwwwwwwwwwwwwwwwwwwwwwwwwww",
"wwwwwwwwwwwwwwwwwwwwwwwwwwwwwwww",
"wwwwwwwwwwwwwwwwwwwwwwwwwwwwwwww",
"wwwwwwwwwwwwwwwwwwwwwwwwwwwwwwww",
"wwwwwwwwwwwwwwwwwwwwwwwwwwwwwwww",
"wwwwwwwwwwwwwwwwwwwwwwwwwwwwwwww",
"wwwwwwwwwwwwwwwwwwwwwwwwwwwwwwww",
"wwwwwwwwwwwwwwwwwwwwwwwwwwwwwwww",
"wwwwwwwwwwwwwwwwwwwwwwwwwwwwwwww",
"wwwwwwwwwwwwwwwwwwwwwwwwwwwwwwww",
"wwwwwwwwwwwwwwwwwwwwwwwwwwwwwwww",
"wwwwwwwwwwwwwwwwwwwwwwwwwwwwwwww",
"wwwwwwwwwwwwwwwwwwwwwwwwwwwwwwww",
"wwwwwwwwwwwwwwwwwwwwwwwwwwwwwwww",
"wwwwwwwwwwwwwwwwwwwwwwwwwwwwwwww",
"wwwwwwwwwwwwwwwwwwwwwwwwwwwwwwww",
"wwwwwwwwwwwwwwwwwwwwwwwwwwwwwwww",
"wwwwwwwwwwwwwwwwwwwwwwwwwwwwwwww",
"wwwwwwwwwwwwwwwwwwwwwwwwwwwwwwww",
"wwwwwwwwwwwwwwwwwwwwwwwwwwwwwwww",
"wwwwwwwwwwwww77ww77wwwwwwwwwwwww",
"wwwwwwwwwwww;@#5;@#3wwwwwwwwwwww",
"wwwwwwwwwwww& X1* X<wwwwwwwwwwww",
"wwwwwwwwwwww;Oo1;Oo<wwwwwwwwwwww",
"wwwwwwwwwwwww-o<w-o<wwwwwwwwwwww",
"wwwwwwwwwwwww%O5w%O5wwwwwwwwwwww",
"wwwwwwwwwwww,.&w,.&wwwwwwwwwwwww",
"wwwwwwwwwwww-$<w-$1wwwwwwwwwwwww",
"wwwwwwwwwwwww6ww77wwwwwwwwwwwwww",
"wwwwwwwwwwwwwwwwwwwwwwwwwwwwwwww"
};
