/* XPM */
static const char *x135[] = {
/* columns rows colors chars-per-pixel */
"32 32 54 1",
"  c black",
". c #010701070107",
"X c #03FD03FD03FD",
"o c #050305030503",
"O c #089708970897",
"+ c #0F120F120F12",
"@ c #152C152C152C",
"# c #18AA18AA18AA",
"$ c #1A871A871A87",
"% c #1AB51AB51AB5",
"& c #1D8C1D8C1D8C",
"* c #1E261E261E26",
"= c #247B247B247B",
"- c #342B342B342B",
"; c #38BA38BA38BA",
": c #406040604060",
"> c #461046104610",
", c #478947894789",
"< c #48FE48FE48FE",
"1 c #4C8E4C8E4C8E",
"2 c #5E835E835E83",
"3 c #70ED70ED70ED",
"4 c #7D9A7D9A7D9A",
"5 c #7E0D7E0D7E0D",
"6 c #7FFF7FFF7FFF",
"7 c #808F808F808F",
"8 c gray51",
"9 c #8F808F808F80",
"0 c #A17CA17CA17C",
"q c #A47BA47BA47B",
"w c #A52EA52EA52E",
"e c #B371B371B371",
"r c #B5E0B5E0B5E0",
"t c #B708B708B708",
"y c #B73CB73CB73C",
"u c #B871B871B871",
"i c #BFFFBFFFBFFF",
"p c #C745C745C745",
"a c #CBD4CBD4CBD4",
"s c #DB83DB83DB83",
"d c #DD6EDD6EDD6E",
"f c #E13FE13FE13F",
"g c #E1D9E1D9E1D9",
"h c #E399E399E399",
"j c #E568E568E568",
"k c #EA73EA73EA73",
"l c #F0FCF0FCF0FC",
"z c #F60EF60EF60E",
"x c #FAFCFAFCFAFC",
"c c #FC14FC14FC14",
"v c #FD4BFD4BFD4B",
"b c #FD81FD81FD81",
"n c #FF20FF20FF20",
"m c gray100",
/* pixels */
"mmmmmmmmmmmmmmmmmmmmmmmmmmmmmmmm",
"mmmmmmmmmmmmmmmmmmmmmmmmmmmmmmmm",
"mmmmmmmmmmmmmmmmmmmmmmmmmmmmmmmm",
"mmmmmmmmmmmmmmmmmmmmmmmmmmmmmmmm",
"mmmmmmmmmmmmmmmjfkmmmmmmmmmmmmmm",
"mmmmmmmmmmmmmmj;$2cmmmmmmmmmmmmm",
"mmmmmmmmmmmmmmf& <cmmmmmmmmmmmmm",
"mmmmmmmmmmmmmmf& <cmmmmmmmmmmmmm",
"mmmmmmmmmmmmmmf& <cmmmmmmmmmmmmm",
"mmmmmmmmmccccmd& >zccccmmmmmmmmm",
"mmmmmmmmc4>><<:O @><><>wmmmmmmmm",
"mmmmmmmmc<             4mmmmmmmm",
"mmmmmmmmc2$&&&$  O&&&&&9mmmmmmmm",
"mmmmmmmmmkffffp& :dffdflmmmmmmmm",
"mmmmmmmmmmmmmmf& <cmmmmmmmmmmmmm",
"mmmmmmmmmmmmmmf& <cmmmmmmmmmmmmm",
"mmmmmmmmmmmmmmf& <cmmmmmmmmmmmmm",
"mmmmmmmmmmmmmmf& <cmmmmmmmmmmmmm",
"mmmmmmmmmmmmmmf= <cmmmmmmmmmmmmm",
"mmmmmmmmmmmmmmf& >cmmmmmmmmmmmmm",
"mmmmmmmmmmmmmmf& <cmmmmmmmmmmmmm",
"mmmmmmmmmmmmmmf& <cmmmmmmmmmmmmm",
"mmmmmmmmmw47473@ =47444pmmmmmmmm",
"mmmmmmmmc<             7mmmmmmmm",
"mmmmmmmmc< oooo   oooo 4mmmmmmmm",
"mmmmmmmmmatttu0@ -ettttsmmmmmmmm",
"mmmmmmmmmmmmmmf& <cmmmmmmmmmmmmm",
"mmmmmmmmmmmmmmf& <cmmmmmmmmmmmmm",
"mmmmmmmmmmmmmmf& <cmmmmmmmmmmmmm",
"mmmmmmmmmmmmmmf& <cmmmmmmmmmmmmm",
"mmmmmmmmmmmmmml94wcmmmmmmmmmmmmm",
"mmmmmmmmmmmmmmmmmmmmmmmmmmmmmmmm"
};
