/* XPM */
static const char *x140[] = {
/* columns rows colors chars-per-pixel */
"32 32 110 2",
"   c black",
".  c #011801180118",
"X  c #025E025E025E",
"o  c #030603060306",
"O  c #042D042D042D",
"+  c #04C704C704C7",
"@  c #058905890589",
"#  c #072B072B072B",
"$  c #081908190819",
"%  c #08C408C408C4",
"&  c #09A409A409A4",
"*  c #0B220B220B22",
"=  c #0E4D0E4D0E4D",
"-  c #10D810D810D8",
";  c #119411941194",
":  c #143014301430",
">  c #152F152F152F",
",  c #16FB16FB16FB",
"<  c #1A681A681A68",
"1  c #1B1D1B1D1B1D",
"2  c #1C361C361C36",
"3  c #1D7A1D7A1D7A",
"4  c #1E231E231E23",
"5  c #1EF51EF51EF5",
"6  c #224022402240",
"7  c #22CF22CF22CF",
"8  c #242B242B242B",
"9  c #25B825B825B8",
"0  c #26D626D626D6",
"q  c #287828782878",
"w  c #2A282A282A28",
"e  c #31C031C031C0",
"r  c #338D338D338D",
"t  c #342B342B342B",
"y  c #371337133713",
"u  c #38BA38BA38BA",
"i  c #3A473A473A47",
"p  c #43EC43EC43EC",
"a  c #461A461A461A",
"s  c #478947894789",
"d  c #48FD48FD48FD",
"f  c #4A2D4A2D4A2D",
"g  c #4B594B594B59",
"h  c #4D084D084D08",
"j  c #50B450B450B4",
"k  c #58A658A658A6",
"l  c #5E945E945E94",
"z  c #60FB60FB60FB",
"x  c #644664466446",
"c  c #655665566556",
"v  c #65EB65EB65EB",
"b  c #6D006D006D00",
"n  c #712871287128",
"m  c #74A974A974A9",
"M  c #75F375F375F3",
"N  c #7D507D507D50",
"B  c #7FE37FE37FE3",
"V  c #802380238023",
"C  c #81CA81CA81CA",
"Z  c #867A867A867A",
"A  c #899089908990",
"S  c #8B068B068B06",
"D  c #8B568B568B56",
"F  c #8F118F118F11",
"G  c #92FE92FE92FE",
"H  c #9AD19AD19AD1",
"J  c #9B2B9B2B9B2B",
"K  c #A47BA47BA47B",
"L  c #A71BA71BA71B",
"P  c #A7C4A7C4A7C4",
"I  c #A85AA85AA85A",
"U  c #AF8BAF8BAF8B",
"Y  c #B08EB08EB08E",
"T  c #B371B371B371",
"R  c #B598B598B598",
"E  c #B6F1B6F1B6F1",
"W  c #B73CB73CB73C",
"Q  c #B88AB88AB88A",
"!  c #BBF7BBF7BBF7",
"~  c #BCC2BCC2BCC2",
"^  c #C8ECC8ECC8EC",
"/  c #CC72CC72CC72",
"(  c #CF22CF22CF22",
")  c #D5A7D5A7D5A7",
"_  c #D7F7D7F7D7F7",
"`  c #D89CD89CD89C",
"'  c #DBE8DBE8DBE8",
"]  c #DCEBDCEBDCEB",
"[  c #DD66DD66DD66",
"{  c #DFB3DFB3DFB3",
"}  c #E15DE15DE15D",
"|  c #E1D1E1D1E1D1",
" . c #E410E410E410",
".. c #E4C7E4C7E4C7",
"X. c #E568E568E568",
"o. c #EAD1EAD1EAD1",
"O. c #EB94EB94EB94",
"+. c #EE6BEE6BEE6B",
"@. c #F0EDF0EDF0ED",
"#. c #F1E2F1E2F1E2",
"$. c #F5E3F5E3F5E3",
"%. c #F683F683F683",
"&. c #F805F805F805",
"*. c #F89CF89CF89C",
"=. c #FAF9FAF9FAF9",
"-. c #FC2BFC2BFC2B",
";. c #FD03FD03FD03",
":. c #FDA4FDA4FDA4",
">. c #FF5FFF5FFF5F",
",. c gray100",
/* pixels */
",.,.,.,.,.,.,.,.,.,.,.,.,.,.,.,.,.,.,.,.,.,.,.,.,.,.,.,.,.,.,.,.",
",.,.,.,.,.,.,.,.,.,.,.,.,.,.,.,.,.,.,.,.,.,.,.,.,.,.,.,.,.,.,.,.",
",.,.,.,.,.,.,.,.,.,.,.,.,.,.,.,.,.,.,.,.,.,.,.,.,.,.,.,.,.,.,.,.",
",.,.,.,.,.,.,.,.,.,.,.,.,.,.,.,.,.,.,.,.,.,.,.,.,.,.,.,.,.,.,.,.",
",.,.,.,.,.,.,.,.%.{ Q R Q { =.,.,.o.| | | | | | | | | | X.=.,.,.",
",.,.,.,.,.,.%.P d 4 $ @ $ 4 v ( =.l < 4 4 4 4 4 4 4 4 4 u X.,.,.",
",.,.,.,.,.#.b $       @ @     7 Q d                     4 | ,.,.",
",.,.,.,.,.M     $ h J Q I z ,   9 9   9 N V V V V N V V D #.,.,.",
",.,.,.,.^ ,   - G %.,.,.,.=.Q 7       d =.,.,.,.,.,.,.,.,.,.,.,.",
",.,.,.=.v     D ,.,.,.,.,.,.,.Q ,     d =.,.,.,.,.,.,.,.,.,.,.,.",
",.,.,._ 4   y o.,.,.,.,.,.,.,.=.v     d =.,.,.,.,.,.,.,.,.,.,.,.",
",.,.,.P     A ,.,.,.,.,.,.,.,.,.~ $   d =.,.,.,.,.,.,.,.,.,.,.,.",
",.,.,.N   @ R ,.,.,.,.,.,.,.,.,.X.7   d =.,.,.,.,.,.,.,.,.,.,.,.",
",.,.,.k   , _ ,.,.,.,.,.,.,.,.,.%.a   y T R R R R R R Q o.,.,.,.",
",.,.=.d   4 | ,.,.,.,.,.,.,.,.,.=.d     @ @   @ @ @ @ $ Q ,.,.,.",
",.,.=.d   4 | ,.,.,.,.,.,.,.,.,.=.d     @ @ @ @ @ @ @ $ Q ,.,.,.",
",.,.=.d   7 | ,.,.,.,.,.,.,.,.,.=.d   y T R R R R Q R Q o.,.,.,.",
",.,.,.v   - ^ ,.,.,.,.,.,.,.,.,.+.y   a =.,.,.,.,.,.,.,.,.,.,.,.",
",.,.,.Z   @ T ,.,.,.,.,.,.,.,.,._ <   d =.,.,.,.,.,.,.,.,.,.,.,.",
",.,.,.R @   M ,.,.,.,.,.,.,.,.,.P     d =.,.,.,.,.,.,.,.,.,.,.,.",
",.,.,.| w   9 ` ,.,.,.,.,.,.,.#.d     d =.,.,.,.,.,.,.,.,.,.,.,.",
",.,.,.,.V     v #.,.,.,.,.,.,.G $     d =.,.,.,.,.,.,.,.,.,.,.,.",
",.,.,.,.` w   @ v { ,.,.,.o.A = @ @   d %.=.=.=.=.=.=.=.=.=.,.,.",
",.,.,.,.,.U -     7 z V n e @   d u   , a d d d d d d d a P ,.,.",
",.,.,.,.,.=.T w             @ j ` d                       N ,.,.",
",.,.,.,.,.,.,.` A d 7 4 7 d H #.,.N a d d d d a d d d d a P ,.,.",
",.,.,.,.,.,.,.,.,.=.| | X.%.,.,.,.=.=.=.=.=.=.=.=.=.=.=.=.,.,.,.",
",.,.,.,.,.,.,.,.,.,.,.,.,.,.,.,.,.,.,.,.,.,.,.,.,.,.,.,.,.,.,.,.",
",.,.,.,.,.,.,.,.,.,.,.,.,.,.,.,.,.,.,.,.,.,.,.,.,.,.,.,.,.,.,.,.",
",.,.,.,.,.,.,.,.,.,.,.,.,.,.,.,.,.,.,.,.,.,.,.,.,.,.,.,.,.,.,.,.",
",.,.,.,.,.,.,.,.,.,.,.,.,.,.,.,.,.,.,.,.,.,.,.,.,.,.,.,.,.,.,.,.",
",.,.,.,.,.,.,.,.,.,.,.,.,.,.,.,.,.,.,.,.,.,.,.,.,.,.,.,.,.,.,.,."
};
