/* XPM */
static const char *x147[] = {
/* columns rows colors chars-per-pixel */
"32 32 32 1",
"  c black",
". c #030203020302",
"X c #166C166C166C",
"o c #1E231E231E23",
"O c #290729072907",
"+ c #382A382A382A",
"@ c #3B713B713B71",
"# c #5FBA5FBA5FBA",
"$ c #6A346A346A34",
"% c #7C6D7C6D7C6D",
"& c #7D117D117D11",
"* c #7FBF7FBF7FBF",
"= c #819B819B819B",
"- c #8D128D128D12",
"; c #8F118F118F11",
": c #A966A966A966",
"> c #BFFFBFFFBFFF",
", c #C0FBC0FBC0FB",
"< c #C205C205C205",
"1 c #E088E088E088",
"2 c #E1DCE1DCE1DC",
"3 c #E598E598E598",
"4 c #E8BDE8BDE8BD",
"5 c #F0EDF0EDF0ED",
"6 c #F1A7F1A7F1A7",
"7 c #F2DFF2DFF2DF",
"8 c #F738F738F738",
"9 c #F7C0F7C0F7C0",
"0 c #F8ECF8ECF8EC",
"q c #F997F997F997",
"w c #FCBBFCBBFCBB",
"e c gray100",
/* pixels */
"eeeeeeeeeeeeeeeeeeeeeeeeeeeeeeee",
"eeeeeeeeeeeeeeeeeeeeeeeeeeeeeeee",
"eeeeeeeeeeeeeeeeeeeeeeeeeeeeeeee",
"eeeeeeeeeeeeeeeeeeeeeeeeeeeeeeee",
"eeeeeeeeeeeee74ee44eeeeeeeeeeeee",
"eeeeeeeeeeee8$#qq$#qeeeeeeeeeeee",
"eeeeeeeeeeee,X:e<X:eeeeeeeeeeeee",
"eeeeeeeeeeee;O4e;O4eeeeeeeeeeeee",
"eeeeeeeeeeee&@1e&@1qeeeeeeeeeeee",
"eeeeeeeeeeee= @3= @3eeeeeeeeeeee",
"eeeeeeeeeeee= o3= o1eeeeeeeeeeee",
"eeeeeeeeeeee>&;7,&;7eeeeeeeeeeee",
"eeeeeeeeeeeeeeeeeeeeeeeeeeeeeeee",
"eeeeeeeeeeeeeeeeeeeeeeeeeeeeeeee",
"eeeeeeeeeeeeeeeeeeeeeeeeeeeeeeee",
"eeeeeeeeeeeeeeeeeeeeeeeeeeeeeeee",
"eeeeeeeeeeeeeeeeeeeeeeeeeeeeeeee",
"eeeeeeeeeeeeeeeeeeeeeeeeeeeeeeee",
"eeeeeeeeeeeeeeeeeeeeeeeeeeeeeeee",
"eeeeeeeeeeeeeeeeeeeeeeeeeeeeeeee",
"eeeeeeeeeeeeeeeeeeeeeeeeeeeeeeee",
"eeeeeeeeeeeeeeeeeeeeeeeeeeeeeeee",
"eeeeeeeeeeeeeeeeeeeeeeeeeeeeeeee",
"eeeeeeeeeeeeeeeeeeeeeeeeeeeeeeee",
"eeeeeeeeeeeeeeeeeeeeeeeeeeeeeeee",
"eeeeeeeeeeeeeeeeeeeeeeeeeeeeeeee",
"eeeeeeeeeeeeeeeeeeeeeeeeeeeeeeee",
"eeeeeeeeeeeeeeeeeeeeeeeeeeeeeeee",
"eeeeeeeeeeeeeeeeeeeeeeeeeeeeeeee",
"eeeeeeeeeeeeeeeeeeeeeeeeeeeeeeee",
"eeeeeeeeeeeeeeeeeeeeeeeeeeeeeeee",
"eeeeeeeeeeeeeeeeeeeeeeeeeeeeeeee"
};
