/* XPM */
static const char *x154[] = {
/* columns rows colors chars-per-pixel */
"32 32 125 2",
"   c #000600060006",
".  c #010D010D010D",
"X  c #020B020B020B",
"o  c #02F902F902F9",
"O  c #03A103A103A1",
"+  c #052605260526",
"@  c #065006500650",
"#  c #082608260826",
"$  c #09F809F809F8",
"%  c #0B1F0B1F0B1F",
"&  c #0C1E0C1E0C1E",
"*  c #0D840D840D84",
"=  c #0E2C0E2C0E2C",
"-  c #0FC10FC10FC1",
";  c #10C510C510C5",
":  c gray7",
">  c #144814481448",
",  c #174E174E174E",
"<  c #1A4D1A4D1A4D",
"1  c #1AEE1AEE1AEE",
"2  c #1C121C121C12",
"3  c #1D751D751D75",
"4  c #1DC81DC81DC8",
"5  c #1EB31EB31EB3",
"6  c #214A214A214A",
"7  c #21DE21DE21DE",
"8  c #232223222322",
"9  c #240824082408",
"0  c #294929492949",
"q  c #2B052B052B05",
"w  c #2BE72BE72BE7",
"e  c #316431643164",
"r  c #326432643264",
"t  c #340F340F340F",
"y  c #355F355F355F",
"u  c #394739473947",
"i  c #3A9E3A9E3A9E",
"p  c gray23",
"a  c #40D840D840D8",
"s  c #42A942A942A9",
"d  c #42D742D742D7",
"f  c #4D864D864D86",
"g  c #4FEF4FEF4FEF",
"h  c #541254125412",
"j  c #56EE56EE56EE",
"k  c #584858485848",
"l  c #5B4E5B4E5B4E",
"z  c #5F985F985F98",
"x  c #63CD63CD63CD",
"c  c #645364536453",
"v  c #654F654F654F",
"b  c #66C266C266C2",
"n  c #6C616C616C61",
"m  c #6FEC6FEC6FEC",
"M  c #701B701B701B",
"N  c #712971297129",
"B  c #72DA72DA72DA",
"V  c #742B742B742B",
"C  c #76D076D076D0",
"Z  c #7F3F7F3F7F3F",
"A  c #80AE80AE80AE",
"S  c #814581458145",
"D  c #82B082B082B0",
"F  c #879B879B879B",
"G  c #8A4C8A4C8A4C",
"H  c #8E008E008E00",
"J  c #8ED38ED38ED3",
"K  c #939993999399",
"L  c #959095909590",
"P  c #9BAC9BAC9BAC",
"I  c #A0E5A0E5A0E5",
"U  c #A1BCA1BCA1BC",
"Y  c #A524A524A524",
"T  c #A89DA89DA89D",
"R  c #A9D4A9D4A9D4",
"E  c #AC75AC75AC75",
"W  c #B2F0B2F0B2F0",
"Q  c #B423B423B423",
"!  c #B56DB56DB56D",
"~  c #B72AB72AB72A",
"^  c #B796B796B796",
"/  c #BB03BB03BB03",
"(  c #BC6ABC6ABC6A",
")  c #BD52BD52BD52",
"_  c #BE73BE73BE73",
"`  c #C09FC09FC09F",
"'  c #C331C331C331",
"]  c #C863C863C863",
"[  c #C992C992C992",
"{  c #CB0ACB0ACB0A",
"}  c #CBA8CBA8CBA8",
"|  c #CCA4CCA4CCA4",
" . c #CDBCCDBCCDBC",
".. c #D4C7D4C7D4C7",
"X. c #D6F5D6F5D6F5",
"o. c #D89CD89CD89C",
"O. c #D969D969D969",
"+. c #DCB1DCB1DCB1",
"@. c #DE03DE03DE03",
"#. c #E128E128E128",
"$. c #E1B1E1B1E1B1",
"%. c #E2B1E2B1E2B1",
"&. c #E379E379E379",
"*. c #E4F3E4F3E4F3",
"=. c #E612E612E612",
"-. c #E8C2E8C2E8C2",
";. c #EA30EA30EA30",
":. c #EC61EC61EC61",
">. c #ED0AED0AED0A",
",. c #EE30EE30EE30",
"<. c #EF05EF05EF05",
"1. c #EFDFEFDFEFDF",
"2. c #F15BF15BF15B",
"3. c #F35DF35DF35D",
"4. c #F50FF50FF50F",
"5. c #F662F662F662",
"6. c #F71FF71FF71F",
"7. c #F858F858F858",
"8. c #FA02FA02FA02",
"9. c #FAEBFAEBFAEB",
"0. c #FC16FC16FC16",
"q. c #FCE4FCE4FCE4",
"w. c #FDE4FDE4FDE4",
"e. c #FF38FF38FF38",
"r. c gray100",
/* pixels */
"r.r.r.r.r.r.r.r.r.r.r.r.r.r.r.r.r.r.r.r.r.r.r.r.r.r.r.r.r.r.r.r.",
"r.r.r.r.r.r.r.r.r.r.r.r.r.r.r.r.r.r.r.r.r.r.r.r.r.r.r.r.r.r.r.r.",
"r.r.r.r.r.r.r.r.r.r.r.r.r.r.r.r.r.r.r.r.r.r.r.r.r.r.r.r.r.r.r.r.",
"r.r.r.r.r.r.r.r.r.r.r.r.r.r.r.r.r.r.r.r.r.r.r.r.r.r.r.r.r.r.r.r.",
"r.r.r.r.r.r.r.r.r.r.r.5.@.$.5.r.r.,.$.*.0.r.r.r.r.r.r.r.r.r.r.r.",
"r.r.r.r.r.r.r.r.r.r.r.@.p 5 K r.,.k < n 0.r.r.r.r.r.r.r.r.r.r.r.",
"r.r.r.r.r.r.r.r.r.r.r.r.J   5 [ S   8 [ r.r.r.r.r.r.r.r.r.r.r.r.",
"r.r.r.r.r.r.r.r.r.r.r.r.3.g   9 - # I r.r.r.r.r.r.r.r.r.r.r.r.r.",
"r.r.r.r.r.r.r.r.r.r.r.r.r.| e < < B 5.r.r.r.r.r.r.r.r.r.r.r.r.r.",
"r.r.r.r.r.r.r.r.r.r.r.r.r.r.,.*.*.5.r.r.r.r.r.r.r.r.r.r.r.r.r.r.",
"r.r.r.r.r.r.r.r.r.r.r.r.;.! F S S R X.0.r.r.r.r.r.r.r.r.r.r.r.r.",
"r.r.r.r.r.r.r.r.r.r.0.Y y @       @ < B $.r.r.r.r.r.r.r.r.r.r.r.",
"r.r.r.r.r.r.r.r.r.r.! -     , 5 < @     x 5.r.r.r.r.r.r.r.r.r.r.",
"r.r.r.r.r.r.r.r.r.5.f   8 L X.$.@.E i   & _ r.r.r.r.r.r.r.r.r.r.",
"r.r.r.r.r.r.r.r.r.$.5   B r.r.r.r.r.[ w i Q r.r.r.r.r.r.r.r.r.r.",
"r.r.r.r.r.r.r.r.r.*.8   e / ,.r.r.r.r.*.3.0.r.r.r.r.r.r.r.r.r.r.",
"r.r.r.r.r.r.r.r.r.r.c     & e c P | 5.r.r.r.r.r.r.r.r.r.r.r.r.r.",
"r.r.r.r.r.r.r.r.r.r.@.d           - d G @.r.r.r.r.r.r.r.r.r.r.r.",
"r.r.r.r.r.r.r.r.r.r.r.$.S y -           0 _ r.r.r.r.r.r.r.r.r.r.",
"r.r.r.r.r.r.r.r.r.r.r.r.r.,.[ J j 0 &     i ,.r.r.r.r.r.r.r.r.r.",
"r.r.r.r.r.r.r.r.r.5.@._ ;.r.r.r.0.;._ d   # ' r.r.r.r.r.r.r.r.r.",
"r.r.r.r.r.r.r.r.r...0 @ S r.r.r.r.r.r.R   @ ! r.r.r.r.r.r.r.r.r.",
"r.r.r.r.r.r.r.r.r.,.i   5 ! 0.r.r.r.*.k   5 o.r.r.r.r.r.r.r.r.r.",
"r.r.r.r.r.r.r.r.r.r.I #   , g Z S B e @   C 0.r.r.r.r.r.r.r.r.r.",
"r.r.r.r.r.r.r.r.r.r.5.C &             # c ;.r.r.r.r.r.r.r.r.r.r.",
"r.r.r.r.r.r.r.r.r.r.r.0.! c e 5 5 0 k Q 5.r.r.r.r.r.r.r.r.r.r.r.",
"r.r.r.r.r.r.r.r.r.r.r.r.r.r.,.$.$.*.0.r.r.r.r.r.r.r.r.r.r.r.r.r.",
"r.r.r.r.r.r.r.r.r.r.r.r.r.r.r.r.r.r.r.r.r.r.r.r.r.r.r.r.r.r.r.r.",
"r.r.r.r.r.r.r.r.r.r.r.r.r.r.r.r.r.r.r.r.r.r.r.r.r.r.r.r.r.r.r.r.",
"r.r.r.r.r.r.r.r.r.r.r.r.r.r.r.r.r.r.r.r.r.r.r.r.r.r.r.r.r.r.r.r.",
"r.r.r.r.r.r.r.r.r.r.r.r.r.r.r.r.r.r.r.r.r.r.r.r.r.r.r.r.r.r.r.r.",
"r.r.r.r.r.r.r.r.r.r.r.r.r.r.r.r.r.r.r.r.r.r.r.r.r.r.r.r.r.r.r.r."
};
