/* XPM */
static const char *x163[] = {
/* columns rows colors chars-per-pixel */
"32 32 109 2",
"   c #000500050005",
".  c #009100910091",
"X  c #01E701E701E7",
"o  c #02AE02AE02AE",
"O  c #044304430443",
"+  c #04FD04FD04FD",
"@  c #05D505D505D5",
"#  c #072307230723",
"$  c #08BE08BE08BE",
"%  c #0C2B0C2B0C2B",
"&  c #0F200F200F20",
"*  c #0FC10FC10FC1",
"=  c #10D510D510D5",
"-  c #122C122C122C",
";  c #146D146D146D",
":  c #15DC15DC15DC",
">  c #171D171D171D",
",  c #17BB17BB17BB",
"<  c #1A951A951A95",
"1  c #1CE51CE51CE5",
"2  c #1E231E231E23",
"3  c #216B216B216B",
"4  c #21C321C321C3",
"5  c #230A230A230A",
"6  c #259F259F259F",
"7  c #297229722972",
"8  c #2A6A2A6A2A6A",
"9  c #2E1D2E1D2E1D",
"0  c #315531553155",
"q  c #32A732A732A7",
"w  c #33D233D233D2",
"e  c #350235023502",
"r  c #389738973897",
"t  c #3B683B683B68",
"y  c #3C793C793C79",
"u  c #3DD63DD63DD6",
"i  c #444D444D444D",
"p  c #460C460C460C",
"a  c #479047904790",
"s  c #493949394939",
"d  c #4A644A644A64",
"f  c #4D084D084D08",
"g  c #53FF53FF53FF",
"h  c #58E458E458E4",
"j  c #5F705F705F70",
"k  c #612661266126",
"l  c #63D063D063D0",
"z  c #662A662A662A",
"x  c #6AB66AB66AB6",
"c  c #6EE26EE26EE2",
"v  c #705970597059",
"b  c #723672367236",
"n  c #767B767B767B",
"m  c #7CBD7CBD7CBD",
"M  c #7D227D227D22",
"N  c #7FFF7FFF7FFF",
"B  c #802880288028",
"V  c #899A899A899A",
"C  c #8B408B408B40",
"Z  c #91F091F091F0",
"A  c #93F193F193F1",
"S  c #941894189418",
"D  c #958C958C958C",
"F  c #9A019A019A01",
"G  c #9A929A929A92",
"H  c #A47BA47BA47B",
"J  c #A8D8A8D8A8D8",
"K  c #B1EFB1EFB1EF",
"L  c #B237B237B237",
"P  c #B3B4B3B4B3B4",
"I  c #B59BB59BB59B",
"U  c #B649B649B649",
"Y  c #B7A6B7A6B7A6",
"T  c #B8E0B8E0B8E0",
"R  c #BD28BD28BD28",
"E  c #BD53BD53BD53",
"W  c #CA4DCA4DCA4D",
"Q  c #CBD1CBD1CBD1",
"!  c #D28ED28ED28E",
"~  c #D53DD53DD53D",
"^  c #D610D610D610",
"/  c #D768D768D768",
"(  c #D985D985D985",
")  c #DAABDAABDAAB",
"_  c #DCEBDCEBDCEB",
"`  c #DFB3DFB3DFB3",
"'  c #E110E110E110",
"]  c #E1DCE1DCE1DC",
"[  c #E4BCE4BCE4BC",
"{  c #E8F3E8F3E8F3",
"}  c #E9B0E9B0E9B0",
"|  c #ED2BED2BED2B",
" . c #EE30EE30EE30",
".. c #EF2BEF2BEF2B",
"X. c #F1BAF1BAF1BA",
"o. c #F307F307F307",
"O. c #F3FEF3FEF3FE",
"+. c #F486F486F486",
"@. c gray96",
"#. c #F707F707F707",
"$. c #F799F799F799",
"%. c #F8F7F8F7F8F7",
"&. c #FA6AFA6AFA6A",
"*. c #FAE2FAE2FAE2",
"=. c #FC2AFC2AFC2A",
"-. c #FD27FD27FD27",
";. c #FDCEFDCEFDCE",
":. c #FEF4FEF4FEF4",
">. c gray100",
/* pixels */
">.>.>.>.>.>.>.>.>.>.>.>.>.>.>.>.>.>.>.>.>.>.>.>.>.>.>.>.>.>.>.>.",
">.>.>.>.>.>.>.>.>.>.>.>.>.>.>.>.>.>.>.>.>.>.>.>.>.>.>.>.>.>.>.>.",
">.>.>.>.>.>.>.>.>.>.>.>.>.>.>.>.>.>.>.>.>.>.>.>.>.>.>.>.>.>.>.>.",
">.>.>.>.>.>.>.>.>.>.>.>.>.>.>.>.>.>.>.>.>.>.>.>.>.>.>.>.>.>.>.>.",
">.>.>.>.>.>.>.>.>.>.>.>.>.@.^ T U Q  .>.>.>.>.>.>.>.>.>.>.>.>.>.",
">.>.>.>.>.>.>.>.>.>.>.%.U f > @ @ - e A O.>.>.>.>.>.>.>.>.>.>.>.",
">.>.>.>.>.>.>.>.>.>.>.D & . . . . . . . x O.>.>.>.>.>.>.>.>.>.>.",
">.>.>.>.>.>.>.>.>.>.P & . > v P P n 2 . . G >.>.>.>.>.>.>.>.>.>.",
">.>.>.>.>.>.>.>.>.>.g . - P >.>.>.>.R 5 . r  .>.>.>.>.>.>.>.>.>.",
">.>.>.>.>.>.>.>.>.{ 8 . j >.>.>.>.>.>.V @ 6 Q >.>.>.>.>.>.>.>.>.",
">.>.>.>.>.>.>.>.>.] 2 . m >.>.>.>.>.>.{ R _ @.>.>.>.>.>.>.>.>.>.",
">.>.>.>.>.>.>.>.>.[ 5 . v >.>.>.>.>.>.>.>.>.>.>.>.>.>.>.>.>.>.>.",
">.>.>.>.>.>.>.>.>.%.s . u O.>.>.>.>.>.>.>.>.>.>.>.>.>.>.>.>.>.>.",
">.>.>.>.>.>.>.>.%.>.m . > ! >.%.%.>.>.>.>.>.>.>.>.>.>.>.>.>.>.>.",
">.>.>.>.>.>.>.>.H s 9 . . e s s a m %.>.>.>.>.>.>.>.>.>.>.>.>.>.",
">.>.>.>.>.>.>.>.B . . . . . . . . s %.>.>.>.>.>.>.>.>.>.>.>.>.>.",
">.>.>.>.>.>.>.>.H a a > . & i s a m %.>.>.>.>.>.>.>.>.>.>.>.>.>.",
">.>.>.>.>.>.>.>.%.%.>.v . 5 _ >.%.>.>.>.>.>.>.>.>.>.>.>.>.>.>.>.",
">.>.>.>.>.>.>.>.>.>.>.m . 5 ] >.>.>.>.>.>.>.>.>.>.>.>.>.>.>.>.>.",
">.>.>.>.>.>.>.>.>.>.>.v . s %.>.>.>.>.>.>.>.>.>.>.>.>.>.>.>.>.>.",
">.>.>.>.>.>.>.>.>.>.[ 0 . G >.>.>.>.>.>.>.>.>.>.>.>.>.>.>.>.>.>.",
">.>.>.>.>.>.>.>.>.>.V @ s  .>.>.>.>.>.>.>.>.>.>.>.>.>.>.>.>.>.>.",
">.>.>.>.>.>.>.>.%.A & > G T U ^ { %.>.>.%.Q ) >.>.>.>.>.>.>.>.>.",
">.>.>.>.>.>.>.>.D & . @ $ . . > 8 s v B g - n >.>.>.>.>.>.>.>.>.",
">.>.>.>.>.>.>.>.J @ . , u s a , . . . . . . u O.>.>.>.>.>.>.>.>.",
">.>.>.>.>.>.>.>.[ l D ^ @.%.@.) J z 0 2 8 l U %.>.>.>.>.>.>.>.>.",
">.>.>.>.>.>.>.>.>.@.>.>.>.>.>.>.>.>. .] [ >.>.>.>.>.>.>.>.>.>.>.",
">.>.>.>.>.>.>.>.>.>.>.>.>.>.>.>.>.>.>.>.>.>.>.>.>.>.>.>.>.>.>.>.",
">.>.>.>.>.>.>.>.>.>.>.>.>.>.>.>.>.>.>.>.>.>.>.>.>.>.>.>.>.>.>.>.",
">.>.>.>.>.>.>.>.>.>.>.>.>.>.>.>.>.>.>.>.>.>.>.>.>.>.>.>.>.>.>.>.",
">.>.>.>.>.>.>.>.>.>.>.>.>.>.>.>.>.>.>.>.>.>.>.>.>.>.>.>.>.>.>.>.",
">.>.>.>.>.>.>.>.>.>.>.>.>.>.>.>.>.>.>.>.>.>.>.>.>.>.>.>.>.>.>.>."
};
