/* XPM */
static const char *x189[] = {
/* columns rows colors chars-per-pixel */
"32 32 107 2",
"   c #000B000B000B",
".  c #021202120212",
"X  c #02F702F702F7",
"o  c #03F803F803F8",
"O  c #04CA04CA04CA",
"+  c #070F070F070F",
"@  c #092309230923",
"#  c #09AA09AA09AA",
"$  c #0B0A0B0A0B0A",
"%  c #0CBE0CBE0CBE",
"&  c #0E640E640E64",
"*  c #0F0E0F0E0F0E",
"=  c #107310731073",
"-  c #12EE12EE12EE",
";  c #143314331433",
":  c #175B175B175B",
">  c #189A189A189A",
",  c #19C319C319C3",
"<  c #1B291B291B29",
"1  c #1CEC1CEC1CEC",
"2  c #1E6C1E6C1E6C",
"3  c #1FFE1FFE1FFE",
"4  c #227F227F227F",
"5  c #236C236C236C",
"6  c #291329132913",
"7  c #337333733373",
"8  c #373337333733",
"9  c #381E381E381E",
"0  c #39CD39CD39CD",
"q  c #3CB43CB43CB4",
"w  c #3E183E183E18",
"e  c #40E240E240E2",
"r  c #467D467D467D",
"t  c #470247024702",
"y  c #484C484C484C",
"u  c #4A9F4A9F4A9F",
"i  c #4F4E4F4E4F4E",
"p  c #506850685068",
"a  c #51FF51FF51FF",
"s  c gray34",
"d  c #5B465B465B46",
"f  c #5C8D5C8D5C8D",
"g  c #60A260A260A2",
"h  c #623362336233",
"j  c #684668466846",
"k  c #697369736973",
"l  c #6D2D6D2D6D2D",
"z  c #6F706F706F70",
"x  c #711371137113",
"c  c #755975597559",
"v  c #781178117811",
"b  c #7FAA7FAA7FAA",
"n  c #883088308830",
"m  c #8C518C518C51",
"M  c #914391439143",
"N  c #92EB92EB92EB",
"B  c #97B097B097B0",
"V  c #9E929E929E92",
"C  c #9FE69FE69FE6",
"Z  c #A0E5A0E5A0E5",
"A  c #A35CA35CA35C",
"S  c #A6C7A6C7A6C7",
"D  c #AF60AF60AF60",
"F  c #B1B3B1B3B1B3",
"G  c #B4BEB4BEB4BE",
"H  c #B708B708B708",
"J  c #B78EB78EB78E",
"K  c #B86EB86EB86E",
"L  c #B9ABB9ABB9AB",
"P  c #BB5EBB5EBB5E",
"I  c #BDA5BDA5BDA5",
"U  c #BEA3BEA3BEA3",
"Y  c #C297C297C297",
"T  c #C3ADC3ADC3AD",
"R  c #C636C636C636",
"E  c #CADDCADDCADD",
"W  c #CC38CC38CC38",
"Q  c #CD18CD18CD18",
"!  c #CEA4CEA4CEA4",
"~  c #D35CD35CD35C",
"^  c #D6DCD6DCD6DC",
"/  c #D76BD76BD76B",
"(  c #D882D882D882",
")  c #DA74DA74DA74",
"_  c #E07BE07BE07B",
"`  c #E207E207E207",
"'  c #E272E272E272",
"]  c #E3A2E3A2E3A2",
"[  c #E48DE48DE48D",
"{  c #E9FBE9FBE9FB",
"}  c #EAEEEAEEEAEE",
"|  c #EB79EB79EB79",
" . c #EED9EED9EED9",
".. c #F046F046F046",
"X. c #F230F230F230",
"o. c #F315F315F315",
"O. c #F3CDF3CDF3CD",
"+. c #F739F739F739",
"@. c #F783F783F783",
"#. c #F8D4F8D4F8D4",
"$. c #FA3DFA3DFA3D",
"%. c #FAF1FAF1FAF1",
"&. c #FBE6FBE6FBE6",
"*. c #FD43FD43FD43",
"=. c #FE29FE29FE29",
"-. c #FEAFFEAFFEAF",
";. c gray100",
/* pixels */
";.;.;.;.;.;.;.;.;.;.;.;.;.;.;.;.;.;.;.;.;.;.;.;.;.;.;.;.;.;.;.;.",
";.;.;.;.;.;.;.;.;.;.;.;.;.;.;.;.;.;.;.;.;.;.;.;.;.;.;.;.;.;.;.;.",
";.;.;.;.;.;.;.;.;.;.;.;.;.;.;.;.;.;.;.;.;.;.;.;.;.;.;.;.;.;.;.;.",
";.;.;.;.;.;.;.;.;.;.;.;.;.;.;.;.;.;.;.;.;.;.;.;.;.;.;.;.;.;.;.;.",
";.;.;.;.;.;.;.;.&.R J | ;.;.;.;.;.;.;.;.;.;.) J Y &.;.;.;.;.;.;.",
";.;.;.;.;.;.;.@.M & # J ;.;.;.;.;.;.;.;.;.' w X c &.;.;.;.;.;.;.",
";.;.;.;.;.&.E f # X o J ;.;.;.;.;.;.;.;.&.x X r | ;.;.;.;.;.;.;.",
";.;.;.;.;.V & & 0 X o J ;.;.;.;.;.;.;.;.A # < E ;.;.;.;.;.;.;.;.",
";.;.;.;.;.M i J F o o J ;.;.;.;.;.;.;.E 4 o B ;.;.;.;.;.;.;.;.;.",
";.;.;.;.;.O.&.;.J o o J ;.;.;.;.;.;...i X j @.;.;.;.;.;.;.;.;.;.",
";.;.;.;.;.;.;.;.K o o J ;.;.;.;.;.;.b X 7 ' ;.;.;.;.;.;.;.;.;.;.",
";.;.;.;.;.;.;.;.J o o J ;.;.;.;.;.D & ; J ;.;.;.;.;.;.;.;.;.;.;.",
";.;.;.;.;.;.;.;.J o o J ;.;.;.;.^ 6 X m ;.;.;.;.;.;.;.;.;.;.;.;.",
";.;.;.;.;.;.;.;.J o o J ;.;.;.O.d X d O.;.;.;.;.;.;.;.;.;.;.;.;.",
";.;.;.;.;.;.;.;.K # # K ;.;.;.m X 6 ^ ;.;.;.&.&.&.;.;.;.;.;.;.;.",
";.;.;.;.;.;.;.;.| K K | ;.;.I ; & D ;.;.! x r r s V O.;.;.;.;.;.",
";.;.;.;.;.;.;.;.;.;.;.;.;.' 0 X b &.;.Y 4 X ; - X X l @.;.;.;.;.",
";.;.;.;.;.;.;.;.;.;.;.;.@.j X r | ;.@.p X x ' ^ f X & Y ;.;.;.;.",
";.;.;.;.;.;.;.;.;.;.;.;.V o 4 ! ;.;.@.D n ' ;.;.D X o K ;.;.;.;.",
";.;.;.;.;.;.;.;.;.;.;.! 4 # V ;.;.;.;.;.;.;.;.O.d X 0 | ;.;.;.;.",
";.;.;.;.;.;.;.;.;.;.| r X j @.;.;.;.;.;.;.;.| k X 4 I ;.;.;.;.;.",
";.;.;.;.;.;.;.;.;.;.b X w ' ;.;.;.;.;.;.;.^ r X 6 I ;.;.;.;.;.;.",
";.;.;.;.;.;.;.;.;.D & - I ;.;.;.;.;.;.;.I 6 o p ^ ;.;.;.;.;.;.;.",
";.;.;.;.;.;.;.;.^ 6 X m ;.;.;.;.;.;.;.Y 4 X h ~ ' ' ' @.;.;.;.;.",
";.;.;.;.;.;.;.O.d X d O.;.;.;.;.;.;...e X X < < < < 1 I ;.;.;.;.",
";.;.;.;.;.;.;.A 1 0 ^ ;.;.;.;.;.;.;.^ p r r r r r r y E ;.;.;.;.",
";.;.;.;.;.;.;.| ) | ;.;.;.;.;.;.;.;.&.&.&.&.&.&.&.&.&.;.;.;.;.;.",
";.;.;.;.;.;.;.;.;.;.;.;.;.;.;.;.;.;.;.;.;.;.;.;.;.;.;.;.;.;.;.;.",
";.;.;.;.;.;.;.;.;.;.;.;.;.;.;.;.;.;.;.;.;.;.;.;.;.;.;.;.;.;.;.;.",
";.;.;.;.;.;.;.;.;.;.;.;.;.;.;.;.;.;.;.;.;.;.;.;.;.;.;.;.;.;.;.;.",
";.;.;.;.;.;.;.;.;.;.;.;.;.;.;.;.;.;.;.;.;.;.;.;.;.;.;.;.;.;.;.;.",
";.;.;.;.;.;.;.;.;.;.;.;.;.;.;.;.;.;.;.;.;.;.;.;.;.;.;.;.;.;.;.;."
};
