/* XPM */
static const char *x195[] = {
/* columns rows colors chars-per-pixel */
"32 32 104 2",
"   c #000300030003",
".  c #00E400E400E4",
"X  c #01AE01AE01AE",
"o  c #030903090309",
"O  c #03E203E203E2",
"+  c #04C404C404C4",
"@  c #07C107C107C1",
"#  c #094D094D094D",
"$  c #0B190B190B19",
"%  c #0BF20BF20BF2",
"&  c #0CFF0CFF0CFF",
"*  c #101A101A101A",
"=  c #114C114C114C",
"-  c #133D133D133D",
";  c #155815581558",
":  c #162916291629",
">  c #17E417E417E4",
",  c #1B0D1B0D1B0D",
"<  c #1C061C061C06",
"1  c #1F551F551F55",
"2  c #1FB11FB11FB1",
"3  c #232E232E232E",
"4  c #244224422442",
"5  c #263326332633",
"6  c #276327632763",
"7  c #287728772877",
"8  c #2F852F852F85",
"9  c #31AC31AC31AC",
"0  c #331433143314",
"q  c #33EC33EC33EC",
"w  c #396F396F396F",
"e  c #3DCA3DCA3DCA",
"r  c #427F427F427F",
"t  c #454245424542",
"y  c #46BE46BE46BE",
"u  c #481648164816",
"i  c #4C4F4C4F4C4F",
"p  c #4D864D864D86",
"a  c #4F6F4F6F4F6F",
"s  c #51C951C951C9",
"d  c #539C539C539C",
"f  c #562A562A562A",
"g  c #5A875A875A87",
"h  c #5B835B835B83",
"j  c #5BEB5BEB5BEB",
"k  c #64B864B864B8",
"l  c #653365336533",
"z  c #6A1F6A1F6A1F",
"x  c #75F375F375F3",
"c  c #7C137C137C13",
"v  c #7FFF7FFF7FFF",
"b  c #82BA82BA82BA",
"n  c #895089508950",
"m  c #935A935A935A",
"M  c #94B194B194B1",
"N  c #95E095E095E0",
"B  c #9F749F749F74",
"V  c #A339A339A339",
"C  c #A627A627A627",
"Z  c #A929A929A929",
"A  c #AA48AA48AA48",
"S  c gray67",
"D  c #AF3BAF3BAF3B",
"F  c #B132B132B132",
"G  c #B38DB38DB38D",
"H  c #B70BB70BB70B",
"J  c #B7C6B7C6B7C6",
"K  c #B9B7B9B7B9B7",
"L  c #BCC2BCC2BCC2",
"P  c #BD41BD41BD41",
"I  c #C38EC38EC38E",
"U  c #C46DC46DC46D",
"Y  c #C675C675C675",
"T  c #C815C815C815",
"R  c #CE53CE53CE53",
"E  c #D05BD05BD05B",
"W  c #D3F5D3F5D3F5",
"Q  c #DCDADCDADCDA",
"!  c #DDE0DDE0DDE0",
"~  c #DEF2DEF2DEF2",
"^  c #DFEDDFEDDFED",
"/  c #E10FE10FE10F",
"(  c #E172E172E172",
")  c #E429E429E429",
"_  c #E4F5E4F5E4F5",
"`  c #E869E869E869",
"'  c #E98DE98DE98D",
"]  c #EAC6EAC6EAC6",
"[  c #EB6DEB6DEB6D",
"{  c #ECB5ECB5ECB5",
"}  c #EDC0EDC0EDC0",
"|  c #EEA0EEA0EEA0",
" . c #EFA1EFA1EFA1",
".. c #F081F081F081",
"X. c #F2DCF2DCF2DC",
"o. c #F406F406F406",
"O. c #F628F628F628",
"+. c #F6FEF6FEF6FE",
"@. c #F972F972F972",
"#. c #FAD4FAD4FAD4",
"$. c #FBE2FBE2FBE2",
"%. c #FD23FD23FD23",
"&. c #FF05FF05FF05",
"*. c gray100",
/* pixels */
"*.*.*.*.*.*.*.*.*.*.*.*.*.[ Q o.*.*.O.Q ( @.*.*.*.*.*.*.*.*.*.*.",
"*.*.*.*.*.*.*.*.*.*.*.*.C w , r V O.C 3 e [ *.*.*.*.*.*.*.*.*.*.",
"*.*.*.*.*.*.*.*.*.*.*.Y :   q : # w <   l @.*.*.*.*.*.*.*.*.*.*.",
"*.*.*.*.*.*.*.*.*.*.*.m : a [ I l 4 < h Q *.*.*.*.*.*.*.*.*.*.*.",
"*.*.*.*.*.*.*.*.*.*.*.o.Q [  ._ ( ( _ @.*.*.*.*.*.*.*.*.*.*.*.*.",
"*.*.*.*.*.*.*.*.*.*.*.*.*.O.h , < n *.*.*.*.*.*.*.*.*.*.*.*.*.*.",
"*.*.*.*.*.*.*.*.*.*.*.*.*.Y =     0 [ *.*.*.*.*.*.*.*.*.*.*.*.*.",
"*.*.*.*.*.*.*.*.*.*.*.*.*.x   : % + A *.*.*.*.*.*.*.*.*.*.*.*.*.",
"*.*.*.*.*.*.*.*.*.*.*.*.Q 4   j i   a O.*.*.*.*.*.*.*.*.*.*.*.*.",
"*.*.*.*.*.*.*.*.*.*.*.*.N     D B   = Y *.*.*.*.*.*.*.*.*.*.*.*.",
"*.*.*.*.*.*.*.*.*.*.*.o.r   3 Q Q 4   x *.*.*.*.*.*.*.*.*.*.*.*.",
"*.*.*.*.*.*.*.*.*.*.*.P %   z *.*.l   7 ( *.*.*.*.*.*.*.*.*.*.*.",
"*.*.*.*.*.*.*.*.*.*.*.z   % L *.*.F #   B *.*.*.*.*.*.*.*.*.*.*.",
"*.*.*.*.*.*.*.*.*.*.Q 4   i O.*.*. .q   a O.*.*.*.*.*.*.*.*.*.*.",
"*.*.*.*.*.*.*.*.*.*.N     V *.*.*.*.b   = Y *.*.*.*.*.*.*.*.*.*.",
"*.*.*.*.*.*.*.*.*.o.r   q [ *.*.*.*.E :   x *.*.*.*.*.*.*.*.*.*.",
"*.*.*.*.*.*.*.*.*.P %   a H H H H H F 0   7 ( *.*.*.*.*.*.*.*.*.",
"*.*.*.*.*.*.*.*.*.z       + + + + + +     + V *.*.*.*.*.*.*.*.*.",
"*.*.*.*.*.*.*.*.Q 3   + + + + + + + + +     a O.*.*.*.*.*.*.*.*.",
"*.*.*.*.*.*.*.*.N     c L H H H H H H H f   = T *.*.*.*.*.*.*.*.",
"*.*.*.*.*.*.*.o.r   4 _ *.*.*.*.*.*.*.*.P #   x *.*.*.*.*.*.*.*.",
"*.*.*.*.*.*.*.P %   z *.*.*.*.*.*.*.*.*. .w   7 ( *.*.*.*.*.*.*.",
"*.*.*.*.*.*.*.z   # P *.*.*.*.*.*.*.*.*.*.n     V *.*.*.*.*.*.*.",
"*.*.*.*.*.*.Q 4   w  .*.*.*.*.*.*.*.*.*.*.R :   i O.*.*.*.*.*.*.",
"*.*.*.*.*.*.m     n *.*.*.*.*.*.*.*.*.*.*.@.d   % Y *.*.*.*.*.*.",
"*.*.*.*.*.*.b y d W *.*.*.*.*.*.*.*.*.*.*.*.D y y A *.*.*.*.*.*.",
"*.*.*.*.*.*.@.@.@.*.*.*.*.*.*.*.*.*.*.*.*.*.*.@.@.*.*.*.*.*.*.*.",
"*.*.*.*.*.*.*.*.*.*.*.*.*.*.*.*.*.*.*.*.*.*.*.*.*.*.*.*.*.*.*.*.",
"*.*.*.*.*.*.*.*.*.*.*.*.*.*.*.*.*.*.*.*.*.*.*.*.*.*.*.*.*.*.*.*.",
"*.*.*.*.*.*.*.*.*.*.*.*.*.*.*.*.*.*.*.*.*.*.*.*.*.*.*.*.*.*.*.*.",
"*.*.*.*.*.*.*.*.*.*.*.*.*.*.*.*.*.*.*.*.*.*.*.*.*.*.*.*.*.*.*.*.",
"*.*.*.*.*.*.*.*.*.*.*.*.*.*.*.*.*.*.*.*.*.*.*.*.*.*.*.*.*.*.*.*."
};
