/* XPM */
static const char *x197[] = {
/* columns rows colors chars-per-pixel */
"32 32 91 1",
"  c #000300030003",
". c #00E400E400E4",
"X c #01AE01AE01AE",
"o c #030903090309",
"O c #03FD03FD03FD",
"+ c #04C404C404C4",
"@ c #094D094D094D",
"# c #0B190B190B19",
"$ c #0BF20BF20BF2",
"% c #0CFF0CFF0CFF",
"& c #0D940D940D94",
"* c #101A101A101A",
"= c #114611461146",
"- c #124812481248",
"; c #148914891489",
": c #162916291629",
"> c #17AF17AF17AF",
", c #232E232E232E",
"< c #244224422442",
"1 c #276327632763",
"2 c #287728772877",
"3 c #2F852F852F85",
"4 c #2FCB2FCB2FCB",
"5 c #32F132F132F1",
"6 c #33EC33EC33EC",
"7 c #398A398A398A",
"8 c #3D4D3D4D3D4D",
"9 c #418541854185",
"0 c #42BE42BE42BE",
"q c #441F441F441F",
"w c #454245424542",
"e c #46BE46BE46BE",
"r c #481648164816",
"t c #4C3E4C3E4C3E",
"y c #4D444D444D44",
"u c #51C951C951C9",
"i c #521552155215",
"p c #539C539C539C",
"a c #562A562A562A",
"s c #5A1F5A1F5A1F",
"d c #5C085C085C08",
"f c #64B864B864B8",
"g c #6A386A386A38",
"h c #710871087108",
"j c #745A745A745A",
"k c #75F375F375F3",
"l c #7C317C317C31",
"z c #7FFF7FFF7FFF",
"x c #82BA82BA82BA",
"c c #841B841B841B",
"v c #893589358935",
"b c #935A935A935A",
"n c #95E095E095E0",
"m c #9DC29DC29DC2",
"M c #9F749F749F74",
"N c #AA48AA48AA48",
"B c #AB87AB87AB87",
"V c #AD91AD91AD91",
"C c #AF3BAF3BAF3B",
"Z c #B132B132B132",
"A c #B38DB38DB38D",
"S c #B455B455B455",
"D c #B70BB70BB70B",
"F c #B7CEB7CEB7CE",
"G c #B9B7B9B7B9B7",
"H c #BCC2BCC2BCC2",
"J c #BD41BD41BD41",
"K c #C463C463C463",
"L c #C6A9C6A9C6A9",
"P c #CE53CE53CE53",
"I c #D05BD05BD05B",
"U c #D3F5D3F5D3F5",
"Y c #D761D761D761",
"T c #DCDADCDADCDA",
"R c #DD96DD96DD96",
"E c #DEF2DEF2DEF2",
"W c #E41BE41BE41B",
"Q c #E739E739E739",
"! c #E78EE78EE78E",
"~ c #E9F0E9F0E9F0",
"^ c #EAD2EAD2EAD2",
"/ c #EDC0EDC0EDC0",
"( c #EEA0EEA0EEA0",
") c #F2ADF2ADF2AD",
"_ c #F3F8F3F8F3F8",
"` c #F62EF62EF62E",
"' c #FAD1FAD1FAD1",
"] c #FBBFFBBFFBBF",
"[ c #FD42FD42FD42",
"{ c #FF0EFF0EFF0E",
"} c gray100",
/* pixels */
"}}}}}}}}}}}}}}!VF_}}}}}}}}}}}}}}",
"}}}}}}}}}}}}}Ti08h_}}}}}}}}}}}}}",
"}}}}}}}}}}}}}gk`!tm}}}}}}}}}}}}}",
"}}}}}}}}}}}}]tN}}kl}}}}}}}}}}}}}",
"}}}}}}}}}}}}}csYK0F}}}}}}}}}}}}}",
"}}}}}}}}}}}}}!4:$s]}}}}}}}}}}}}}",
"}}}}}}}}}}}}}L-  4^}}}}}}}}}}}}}",
"}}}}}}}}}}}}}k :$+V}}}}}}}}}}}}}",
"}}}}}}}}}}}}T< dt t`}}}}}}}}}}}}",
"}}}}}}}}}}}}n  Vm -L}}}}}}}}}}}}",
"}}}}}}}}}}}_0 ,TT< k}}}}}}}}}}}}",
"}}}}}}}}}}}J$ g}}f 2W}}}}}}}}}}}",
"}}}}}}}}}}}g $H}}A@ m}}}}}}}}}}}",
"}}}}}}}}}}T, t_}}/6 t`}}}}}}}}}}",
"}}}}}}}}}}n  N]}}}x -L}}}}}}}}}}",
"}}}}}}}}}_0 6^}}}}I> k}}}}}}}}}}",
"}}}}}}}}}J$ tHFFFFA3 2W}}}}}}}}}",
"}}}}}}}}}g   + ++++  +m}}}}}}}}}",
"}}}}}}}}T,  +++++ ++  t`}}}}}}}}",
"}}}}}}}}n  lHFFFFFFFa -L}}}}}}}}",
"}}}}}}}_0 2W}}}}}}}}J@ k}}}}}}}}",
"}}}}}}}J$ g}}}}}}}}}/7 2W}}}}}}}",
"}}}}}}}g @J}}}}}}}}}}v +m}}}}}}}",
"}}}}}}T< 7/}}}}}}}}}}P: t`}}}}}}",
"}}}}}}b  v}}}}}}}}}}}]i -K}}}}}}",
"}}}}}}xeiI}}}}}}}}}}}}VeeN}}}}}}",
"}}}}}}]]]}}}}}}}}}}}}}}]]]}}}}}}",
"}}}}}}}}}}}}}}}}}}}}}}}}}}}}}}}}",
"}}}}}}}}}}}}}}}}}}}}}}}}}}}}}}}}",
"}}}}}}}}}}}}}}}}}}}}}}}}}}}}}}}}",
"}}}}}}}}}}}}}}}}}}}}}}}}}}}}}}}}",
"}}}}}}}}}}}}}}}}}}}}}}}}}}}}}}}}"
};
