/* XPM */
static const char *x199[] = {
/* columns rows colors chars-per-pixel */
"32 32 122 2",
"   c black",
".  c #012601260126",
"X  c #021F021F021F",
"o  c #032603260326",
"O  c #040A040A040A",
"+  c #04FF04FF04FF",
"@  c #05D605D605D6",
"#  c #078107810781",
"$  c #088208820882",
"%  c #096209620962",
"&  c #099B099B099B",
"*  c #0B200B200B20",
"=  c #0C170C170C17",
"-  c #0CF60CF60CF6",
";  c #0DED0DED0DED",
":  c #0ED20ED20ED2",
">  c #0FD00FD00FD0",
",  c #162F162F162F",
"<  c #16FB16FB16FB",
"1  c #17F017F017F0",
"2  c #1A5F1A5F1A5F",
"3  c #1B331B331B33",
"4  c #1C6E1C6E1C6E",
"5  c #1D141D141D14",
"6  c #1F411F411F41",
"7  c #224822482248",
"8  c #22FC22FC22FC",
"9  c #241724172417",
"0  c #27FF27FF27FF",
"q  c #296429642964",
"w  c #29C929C929C9",
"e  c #2B1E2B1E2B1E",
"r  c #2DDC2DDC2DDC",
"t  c #303F303F303F",
"y  c #334E334E334E",
"u  c #34A034A034A0",
"i  c #35F835F835F8",
"p  c #383B383B383B",
"a  c #3BF53BF53BF5",
"s  c #3CC23CC23CC2",
"d  c #413241324132",
"f  c #43D343D343D3",
"g  c #497149714971",
"h  c #4A7C4A7C4A7C",
"j  c #4C504C504C50",
"k  c #4E314E314E31",
"l  c #525452545254",
"z  c #53FB53FB53FB",
"x  c #587158715871",
"c  c #58FA58FA58FA",
"v  c #644664466446",
"b  c #657E657E657E",
"n  c #6D2D6D2D6D2D",
"m  c #742C742C742C",
"M  c #765F765F765F",
"N  c #77DC77DC77DC",
"B  c #79D379D379D3",
"V  c #7AF77AF77AF7",
"C  c #7EF17EF17EF1",
"Z  c #7FFB7FFB7FFB",
"A  c #80F180F180F1",
"S  c #89F489F489F4",
"D  c #8A0C8A0C8A0C",
"F  c #8BD48BD48BD4",
"G  c #8DD58DD58DD5",
"H  c #8EF98EF98EF9",
"J  c #900890089008",
"K  c #90DE90DE90DE",
"L  c #924292429242",
"P  c #95B195B195B1",
"I  c #976C976C976C",
"U  c #99BE99BE99BE",
"Y  c #9AC39AC39AC3",
"T  c #A3DFA3DFA3DF",
"R  c #A6F7A6F7A6F7",
"E  c #A9E5A9E5A9E5",
"W  c #AB74AB74AB74",
"Q  c #AEB1AEB1AEB1",
"!  c #AF92AF92AF92",
"~  c #B035B035B035",
"^  c #B38DB38DB38D",
"/  c #B44BB44BB44B",
"(  c #B5AFB5AFB5AF",
")  c #B6E8B6E8B6E8",
"_  c #B7E9B7E9B7E9",
"`  c #B8D7B8D7B8D7",
"'  c #BBE1BBE1BBE1",
"]  c #BCC4BCC4BCC4",
"[  c #BD68BD68BD68",
"{  c #C33DC33DC33D",
"}  c #C763C763C763",
"|  c #C8E0C8E0C8E0",
" . c #CE22CE22CE22",
".. c #D52BD52BD52B",
"X. c #D5A7D5A7D5A7",
"o. c #DC14DC14DC14",
"O. c gainsboro",
"+. c #DE3CDE3CDE3C",
"@. c #DE7EDE7EDE7E",
"#. c #DF99DF99DF99",
"$. c #E1C1E1C1E1C1",
"%. c #E3FAE3FAE3FA",
"&. c #E4FFE4FFE4FF",
"*. c #EA53EA53EA53",
"=. c #EA6EEA6EEA6E",
"-. c #EB76EB76EB76",
";. c #EE00EE00EE00",
":. c #EF39EF39EF39",
">. c #F01FF01FF01F",
",. c #F135F135F135",
"<. c #F314F314F314",
"1. c #F3D1F3D1F3D1",
"2. c #F60AF60AF60A",
"3. c #F739F739F739",
"4. c #F90AF90AF90A",
"5. c #F9DFF9DFF9DF",
"6. c #FAF8FAF8FAF8",
"7. c #FC05FC05FC05",
"8. c #FCE2FCE2FCE2",
"9. c #FDA4FDA4FDA4",
"0. c #FF33FF33FF33",
"q. c gray100",
/* pixels */
"q.q.q.q.q.q.q.q.q.q.q.q.q.q.q.q.q.q.q.q.q.q.q.q.q.q.q.q.q.q.q.q.",
"q.q.q.q.q.q.q.q.q.q.q.q.q.q.q.q.q.q.q.q.q.q.q.q.q.q.q.q.q.q.q.q.",
"q.q.q.q.q.q.q.q.q.q.q.q.q.q.q.q.q.q.q.q.q.q.q.q.q.q.q.q.q.q.q.q.",
"q.q.q.q.q.q.q.q.q.q.q.q.q.q.q.q.q.q.q.q.q.q.q.q.q.q.q.q.q.q.q.q.",
"q.q.q.q.q.q.q.q.q.q.q.q.q.:...) ) ' #.4.q.q.q.q.q.q.q.q.q.q.q.q.",
"q.q.q.q.q.q.q.q.q.q.q. .M u < + + + 8 z ) 4.q.q.q.q.q.q.q.q.q.q.",
"q.q.q.q.q.q.q.q.q.<.L 4       + +       = M :.q.q.q.q.q.q.q.q.q.",
"q.q.q.q.q.q.q.q.3.n +   = l H ) ' U l =   + M 4.q.q.q.q.q.q.q.q.",
"q.q.q.q.q.q.q.q.I $   8 ! 4.q.q.q.q.4.! 4   = ) q.q.q.q.q.q.q.q.",
"q.q.q.q.q.q.q.o.9   4 ] q.q.q.q.q.q.q.q.L +   j 3.q.q.q.q.q.q.q.",
"q.q.q.q.q.q.q.D     A q.q.q.q.q.q.q.q.q.*.u   t o.q.q.q.q.q.q.q.",
"q.q.q.q.q.q.4.h   < ..q.q.q.q.q.q.q.q.q.q.| ' #.4.q.q.q.q.q.q.q.",
"q.q.q.q.q.q.%.8   s <.q.q.q.q.q.q.q.q.q.q.q.q.q.q.q.q.q.q.q.q.q.",
"q.q.q.q.q.q.{ =   v q.q.q.q.q.q.q.q.q.q.q.q.q.q.q.q.q.q.q.q.q.q.",
"q.q.q.q.q.q.) +   Z q.q.q.q.q.q.q.q.q.q.q.q.q.q.q.q.q.q.q.q.q.q.",
"q.q.q.q.q.q.) +   A q.q.q.q.q.q.q.q.q.q.q.q.q.q.q.q.q.q.q.q.q.q.",
"q.q.q.q.q.q.) +   A q.q.q.q.q.q.q.q.q.q.q.q.q.q.q.q.q.q.q.q.q.q.",
"q.q.q.q.q.q...2   z q.q.q.q.q.q.q.q.q.q.q.q.q.q.q.q.q.q.q.q.q.q.",
"q.q.q.q.q.q.:.t   t *.q.q.q.q.q.q.q.q.q.q.*.L ^ &.q.q.q.q.q.q.q.",
"q.q.q.q.q.q.q.v   = ' q.q.q.q.q.q.q.q.q.q.W + + M q.q.q.q.q.q.q.",
"q.q.q.q.q.q.q.^ $   v q.q.q.q.q.q.q.q.q.:.h   + W q.q.q.q.q.q.q.",
"q.q.q.q.q.q.q.:.f   = I q.q.q.q.q.q.q.q.D +   u *.q.q.q.q.q.q.q.",
"q.q.q.q.q.q.q.q.) >   = B #.q.q.q.q.o.B =   > ! q.q.q.q.q.q.q.q.",
"q.q.q.q.q.q.q.q.q.I =     8 z A A v 8     > I q.q.q.q.q.q.q.q.q.",
"q.q.q.q.q.q.q.q.q.4.R 9                 8 U q.q.q.q.q.q.q.q.q.q.",
"q.q.q.q.q.q.q.q.q.q.q.#.Y c w   > 8 h D o.q.q.q.q.q.q.q.q.q.q.q.",
"q.q.q.q.q.q.q.q.q.q.q.q.q.q.A   U *.4.q.q.q.q.q.q.q.q.q.q.q.q.q.",
"q.q.q.q.q.q.q.q.q.q.q.q.q.4.j + d R 4.q.q.q.q.q.q.q.q.q.q.q.q.q.",
"q.q.q.q.q.q.q.q.q.q.q.q.q.4.} I 2 = W q.q.q.q.q.q.q.q.q.q.q.q.q.",
"q.q.q.q.q.q.q.q.q.q.q.q.<.%.&.] w   H q.q.q.q.q.q.q.q.q.q.q.q.q.",
"q.q.q.q.q.q.q.q.q.q.q.q.H < 4 $   p #.q.q.q.q.q.q.q.q.q.q.q.q.q.",
"q.q.q.q.q.q.q.q.q.q.q.q.I w r u B #.q.q.q.q.q.q.q.q.q.q.q.q.q.q."
};
