/* XPM */
static const char *x208[] = {
/* columns rows colors chars-per-pixel */
"32 32 85 1",
"  c #000100010001",
". c #00FB00FB00FB",
"X c #024002400240",
"o c #032A032A032A",
"O c #039703970397",
"+ c #04F604F604F6",
"@ c #063706370637",
"# c #0C170C170C17",
"$ c #156415641564",
"% c #163E163E163E",
"& c #16FB16FB16FB",
"* c #1D7C1D7C1D7C",
"= c #1E101E101E10",
"- c #204E204E204E",
"; c #226622662266",
": c #22ED22ED22ED",
"> c #247C247C247C",
", c #29B229B229B2",
"< c #2D4C2D4C2D4C",
"1 c #32A432A432A4",
"2 c #332D332D332D",
"3 c #398A398A398A",
"4 c #3C3C3C3C3C3C",
"5 c #3FFF3FFF3FFF",
"6 c #418041804180",
"7 c #425742574257",
"8 c #441E441E441E",
"9 c #479947994799",
"0 c #487248724872",
"q c #48FD48FD48FD",
"w c #4A134A134A13",
"e c #4C8E4C8E4C8E",
"r c #4F064F064F06",
"t c #588958895889",
"y c #5B845B845B84",
"u c #608560856085",
"i c #639263926392",
"p c #647B647B647B",
"a c #658065806580",
"s c #66AE66AE66AE",
"d c #6AF66AF66AF6",
"f c #799179917991",
"g c gray49",
"h c #7FFF7FFF7FFF",
"j c #806C806C806C",
"k c #81F181F181F1",
"l c #829E829E829E",
"z c #8FAE8FAE8FAE",
"x c #9A149A149A14",
"c c #9ADB9ADB9ADB",
"v c #A759A759A759",
"b c #A830A830A830",
"n c #AC38AC38AC38",
"m c #B03FB03FB03F",
"M c #B6F8B6F8B6F8",
"N c #B8F2B8F2B8F2",
"B c #B9D0B9D0B9D0",
"V c #BA67BA67BA67",
"C c #BF9FBF9FBF9F",
"Z c #C229C229C229",
"A c #C33DC33DC33D",
"S c #C7D8C7D8C7D8",
"D c #CBD4CBD4CBD4",
"F c #CE3FCE3FCE3F",
"G c #D5A7D5A7D5A7",
"H c #D763D763D763",
"J c #DB83DB83DB83",
"K c #DD13DD13DD13",
"L c #DDE2DDE2DDE2",
"P c #E106E106E106",
"I c #E1D1E1D1E1D1",
"U c #E26DE26DE26D",
"Y c #E3B3E3B3E3B3",
"T c #EBE9EBE9EBE9",
"R c #EE56EE56EE56",
"E c #EEA0EEA0EEA0",
"W c #F234F234F234",
"Q c #F768F768F768",
"! c #F859F859F859",
"~ c #FB01FB01FB01",
"^ c #FC29FC29FC29",
"/ c #FD23FD23FD23",
"( c #FD8EFD8EFD8E",
") c #FF08FF08FF08",
"_ c gray100",
/* pixels */
"________________________________",
"________________________________",
"________________________________",
"________________________________",
"_______QPPPPPPPPPR______________",
"_______C:*:*:****1txP___________",
"_______M+...........1N__________",
"_______M+.4lhhhlfr:..$n_________",
"_______M+.h______~Js..,G________",
"_______M+.h________Ws..d________",
"_______M+.h_________P<.:J_______",
"_______M+.h__________l..b_______",
"_______M+.l__________M+.h_______",
"_____JNl..yNMMMCQ____G$.t_______",
"_____l.+...+++.:P____P*.9~______",
"_____l.....+++.:P____P*.0~______",
"_____JNl..tNMMMCQ____P*.0~______",
"_______M+.l__________A#.u_______",
"_______M+.h__________v..z_______",
"_______M+.h_________~u.#A_______",
"_______M+.h_________S$.3R_______",
"_______M+.h________K6..x________",
"_______M+.h_~~~~QPn4..9T________",
"_______M+.:900009*+..6K_________",
"_______M...........$sK__________",
"_______Dr90000000uzF~___________",
"________~~~~~~~~~_______________",
"________________________________",
"________________________________",
"________________________________",
"________________________________",
"________________________________"
};
