/* XPM */
static const char *x209[] = {
/* columns rows colors chars-per-pixel */
"32 32 86 1",
"  c #000200020002",
". c #012901290129",
"X c #025802580258",
"o c #044F044F044F",
"O c gray2",
"+ c #075207520752",
"@ c #089108910891",
"# c #0EBC0EBC0EBC",
"$ c #18AA18AA18AA",
"% c #1B261B261B26",
"& c #1C611C611C61",
"* c #1E1B1E1B1E1B",
"= c #20E020E020E0",
"- c #229122912291",
"; c #232A232A232A",
": c #24DA24DA24DA",
"> c #289E289E289E",
", c #297D297D297D",
"< c #29AC29AC29AC",
"1 c #2AF02AF02AF0",
"2 c #2C5F2C5F2C5F",
"3 c #2E892E892E89",
"4 c #2EEE2EEE2EEE",
"5 c #303230323032",
"6 c #312731273127",
"7 c #31C231C231C2",
"8 c #32C232C232C2",
"9 c #33C633C633C6",
"0 c #370C370C370C",
"q c #38BA38BA38BA",
"w c #432343234323",
"e c #45FB45FB45FB",
"r c #470647064706",
"t c #48FF48FF48FF",
"y c #4B354B354B35",
"u c #4C8E4C8E4C8E",
"i c #4DB64DB64DB6",
"p c #4FF74FF74FF7",
"a c #50E650E650E6",
"s c #576257625762",
"d c #5E6E5E6E5E6E",
"f c #5F1A5F1A5F1A",
"g c #6F916F916F91",
"h c #779F779F779F",
"j c #7FFF7FFF7FFF",
"k c #80AA80AA80AA",
"l c #81D781D781D7",
"z c #863886388638",
"x c #908690869086",
"c c #A0E5A0E5A0E5",
"v c #A4A2A4A2A4A2",
"b c #AB02AB02AB02",
"n c #B008B008B008",
"m c #B708B708B708",
"M c #BF9ABF9ABF9A",
"N c #C437C437C437",
"B c #C4ACC4ACC4AC",
"V c #C56FC56FC56F",
"C c #CC06CC06CC06",
"Z c #CD64CD64CD64",
"A c #D0DAD0DAD0DA",
"S c #D158D158D158",
"D c #D6ECD6ECD6EC",
"F c #D761D761D761",
"G c #D987D987D987",
"H c #DCC8DCC8DCC8",
"J c #DDF2DDF2DDF2",
"K c #E140E140E140",
"L c #E1E3E1E3E1E3",
"P c #E276E276E276",
"I c #E563E563E563",
"U c #E568E568E568",
"Y c #E9EFE9EFE9EF",
"T c #EA78EA78EA78",
"R c #EBE4EBE4EBE4",
"E c #EE7DEE7DEE7D",
"W c #F15BF15BF15B",
"Q c #F420F420F420",
"! c #F5F1F5F1F5F1",
"~ c #F745F745F745",
"^ c #F779F779F779",
"/ c #FAFFFAFFFAFF",
"( c #FBDEFBDEFBDE",
") c #FD19FD19FD19",
"_ c #FF0FFF0FFF0F",
"` c gray100",
/* pixels */
"`````````````WHE``/PH^``````````",
"````````````Vi&5zYS5:V``````````",
"```````````Y0 >-O22 0Y``````````",
"```````````N-5SGh5&wM```````````",
"```````^PPY^PU/``EPW`YPP/```````",
"```````M-&0F````````/f$qU```````",
"```````mO  f^```````/t -P```````",
"```````mO  @c```````/t &P```````",
"```````mO   >F``````/t -P```````",
"```````mO @  f^`````/t &P```````",
"```````mO s2 @c`````/t &P```````",
"```````mO lv@ >H````/t -H```````",
"```````mO j/f  g/```/t &P```````",
"```````mO j`F> #n```/t &P```````",
"```````mO l``c@ 0P``/t &P```````",
"```````mO j``^f  g/`/t &P```````",
"```````mO j```F> #n`/r &P```````",
"```````mO j````c@ 5P`r &P```````",
"```````mO j````^f  h^t &P```````",
"```````mO j`````Z& #nt -P```````",
"```````mO j``````xO 22 &P```````",
"```````mO j``````Wp    &P```````",
"```````mO j```````C&   -P```````",
"```````mO j````````xO  &H```````",
"```````mO j````````Wp  &P```````",
"```````Ctrv`````````ZptfY```````",
"````````//```````````///````````",
"````````````````````````````````",
"````````````````````````````````",
"````````````````````````````````",
"````````````````````````````````",
"````````````````````````````````"
};
