/* XPM */
static const char *x225[] = {
/* columns rows colors chars-per-pixel */
"32 32 107 2",
"   c #000900090009",
".  c #00FB00FB00FB",
"X  c #022402240224",
"o  c #031F031F031F",
"O  c #071B071B071B",
"+  c #084F084F084F",
"@  c #0A150A150A15",
"#  c #0B1C0B1C0B1C",
"$  c #0BE20BE20BE2",
"%  c #0CBC0CBC0CBC",
"&  c #0DCB0DCB0DCB",
"*  c #116111611161",
"=  c #143B143B143B",
"-  c #158015801580",
";  c #172B172B172B",
":  c #19EA19EA19EA",
">  c #1B5F1B5F1B5F",
",  c #1BA21BA21BA2",
"<  c #1D701D701D70",
"1  c #1E0C1E0C1E0C",
"2  c #1F001F001F00",
"3  c #20DF20DF20DF",
"4  c #230F230F230F",
"5  c #275527552755",
"6  c #286328632863",
"7  c #32A732A732A7",
"8  c #383438343834",
"9  c #3B833B833B83",
"0  c #3C433C433C43",
"q  c #3E933E933E93",
"w  c #430C430C430C",
"e  c #44DF44DF44DF",
"r  c #46FC46FC46FC",
"t  c #47D347D347D3",
"y  c #492249224922",
"u  c #4C4B4C4B4C4B",
"i  c #587F587F587F",
"p  c #5AE05AE05AE0",
"a  c #608E608E608E",
"s  c #62BB62BB62BB",
"d  c #641B641B641B",
"f  c #655165516551",
"g  c #6D846D846D84",
"h  c #756375637563",
"j  c #76CA76CA76CA",
"k  c #7A417A417A41",
"l  c #7C2C7C2C7C2C",
"z  c #7FFF7FFF7FFF",
"x  c #803280328032",
"c  c #817381738173",
"v  c #854885488548",
"b  c #861D861D861D",
"n  c #8BD48BD48BD4",
"m  c #8EFD8EFD8EFD",
"M  c #934893489348",
"N  c #95B495B495B4",
"B  c #99C499C499C4",
"V  c #9A549A549A54",
"C  c #9C289C289C28",
"Z  c #9F7A9F7A9F7A",
"A  c #A1D7A1D7A1D7",
"S  c #A4FAA4FAA4FA",
"D  c #A680A680A680",
"F  c #A7F6A7F6A7F6",
"G  c #A892A892A892",
"H  c #AB6AAB6AAB6A",
"J  c #ACF1ACF1ACF1",
"K  c #B0E4B0E4B0E4",
"L  c #B4FDB4FDB4FD",
"P  c #B75FB75FB75F",
"I  c #BC20BC20BC20",
"U  c #BD83BD83BD83",
"Y  c #C33DC33DC33D",
"T  c #C3D5C3D5C3D5",
"R  c #CCD7CCD7CCD7",
"E  c #CD4DCD4DCD4D",
"W  c #D415D415D415",
"Q  c #D4ABD4ABD4AB",
"!  c #D6F6D6F6D6F6",
"~  c #DAE4DAE4DAE4",
"^  c #DC53DC53DC53",
"/  c #DCACDCACDCAC",
"(  c #E010E010E010",
")  c #E105E105E105",
"_  c #E1E0E1E0E1E0",
"`  c #E2F5E2F5E2F5",
"'  c #E3F3E3F3E3F3",
"]  c #E480E480E480",
"[  c #E59FE59FE59F",
"{  c #E99CE99CE99C",
"}  c #EAA3EAA3EAA3",
"|  c #EBA8EBA8EBA8",
" . c #ED65ED65ED65",
".. c #EE41EE41EE41",
"X. c #F0D0F0D0F0D0",
"o. c #F251F251F251",
"O. c #F2F1F2F1F2F1",
"+. c #F3D4F3D4F3D4",
"@. c #F4CEF4CEF4CE",
"#. c #F810F810F810",
"$. c #F97BF97BF97B",
"%. c #FAE7FAE7FAE7",
"&. c #FBFBFBFBFBFB",
"*. c #FD1FFD1FFD1F",
"=. c #FDEEFDEEFDEE",
"-. c #FF15FF15FF15",
";. c gray100",
/* pixels */
";.;.;.;.;.;.;.;.;.;.;.;.;.;.;.;.;.;.;.;.;.;.;.;.;.;.;.;.;.;.;.;.",
";.;.;.;.;.;.;.;.;.;.;.;.;.;.;.;.;.;.;.;.;.;.;.;.;.;.;.;.;.;.;.;.",
";.;.;.;.;.;.;.;.;.;.;.;.;.;.;.;.;.;.;.;.;.;.;.;.;.;.;.;.;.;.;.;.",
";.;.;.;.;.;.;.;.;.;.;.;.;.;.;.;.;.;.;.;.;.;.;.;.;.;.;.;.;.;.;.;.",
";.;.;.;.;.;.;.;.;.;.;.;.;.;.;.;.{ ` ( X.;.;.;.;.;.;.;.;.;.;.;.;.",
";.;.;.;.;.;.;.;.;.;.;.;.;.;.;.^ 8 : 0 W ;.;.;.;.;.;.;.;.;.;.;.;.",
";.;.;.;.;.;.;.;.;.;.;.;.;.;.;.z   & A ;.;.;.;.;.;.;.;.;.;.;.;.;.",
";.;.;.;.;.;.;.;.;.;.;.;.;.;.^ 4   n ;.;.;.;.;.;.;.;.;.;.;.;.;.;.",
";.;.;.;.;.;.;.;.;.;.;.;.;.;.N : g X.;.;.;.;.;.;.;.;.;.;.;.;.;.;.",
";.;.;.;.;.;.;.;.;.;.;.;.;.;...[ &.;.;.;.;.;.;.;.;.;.;.;.;.;.;.;.",
";.;.;.;.;.;.;.;.;.;.;.;...Y V c z v L ` ;.;.;.;.;.;.;.;.;.;.;.;.",
";.;.;.;.;.;.;.;.;.;.&.S 8 &         O 5 N @.;.;.;.;.;.;.;.;.;.;.",
";.;.;.;.;.;.;.;.;.;.V &     : 1 : +     + A ;.;.;.;.;.;.;.;.;.;.",
";.;.;.;.;.;.;.;.;.^ 4   4 N Q ` ( L p     w @.;.;.;.;.;.;.;.;.;.",
";.;.;.;.;.;.;.;.;.H ; + V ;.;.;.;.;.[ 5   1 ` ;.;.;.;.;.;.;.;.;.",
";.;.;.;.;.;.;.;.;.X.Q U X.;.;.;.;.;.&.r   1 ` ;.;.;.;.;.;.;.;.;.",
";.;.;.;.;.;.;.;.;.;.;.;.;.;.@.` R K j ;   1 ` ;.;.;.;.;.;.;.;.;.",
";.;.;.;.;.;.;.;.;.;.;.( n i 0 1 *         1 ` ;.;.;.;.;.;.;.;.;.",
";.;.;.;.;.;.;.;.;.;.S 6         O + 6 ;   1 ( ;.;.;.;.;.;.;.;.;.",
";.;.;.;.;.;.;.;.;.R 1   & 0 f c S Y ` r   1 ` ;.;.;.;.;.;.;.;.;.",
";.;.;.;.;.;.;.;.;.j   ; S @.;.;.;.;.X.0   4 ` ;.;.;.;.;.;.;.;.;.",
";.;.;.;.;.;.;.;.&.r   w @.;.;.;.;.;.J +   1 ` ;.;.;.;.;.;.;.;.;.",
";.;.;.;.;.;.;.;.&.i   : I ;.;.;.X.J 5     1 ( ;.;.;.;.;.;.;.;.;.",
";.;.;.;.;.;.;.;.;.Z O   1 s c k r +   O   & Y ;.;.;.;.;.;.;.;.;.",
";.;.;.;.;.;.;.;.;.{ u             & s k     S ;.;.;.;.;.;.;.;.;.",
";.;.;.;.;.;.;.;.;.;.{ v 8 4 1 7 f L @.` s w V ;.;.;.;.;.;.;.;.;.",
";.;.;.;.;.;.;.;.;.;.;.;.@.` ` ..;.;.;.;.;.&.&.;.;.;.;.;.;.;.;.;.",
";.;.;.;.;.;.;.;.;.;.;.;.;.;.;.;.;.;.;.;.;.;.;.;.;.;.;.;.;.;.;.;.",
";.;.;.;.;.;.;.;.;.;.;.;.;.;.;.;.;.;.;.;.;.;.;.;.;.;.;.;.;.;.;.;.",
";.;.;.;.;.;.;.;.;.;.;.;.;.;.;.;.;.;.;.;.;.;.;.;.;.;.;.;.;.;.;.;.",
";.;.;.;.;.;.;.;.;.;.;.;.;.;.;.;.;.;.;.;.;.;.;.;.;.;.;.;.;.;.;.;.",
";.;.;.;.;.;.;.;.;.;.;.;.;.;.;.;.;.;.;.;.;.;.;.;.;.;.;.;.;.;.;.;."
};
