/* XPM */
static const char *x241[] = {
/* columns rows colors chars-per-pixel */
"32 32 78 1",
"  c #000200020002",
". c #00B800B800B8",
"X c #027702770277",
"o c #034603460346",
"O c #047D047D047D",
"+ c #0A840A840A84",
"@ c #0FC10FC10FC1",
"# c #10FD10FD10FD",
"$ c #142714271427",
"% c #155815581558",
"& c #168416841684",
"* c #181A181A181A",
"= c #1A7A1A7A1A7A",
"- c #1C281C281C28",
"; c #1E211E211E21",
": c #1F351F351F35",
"> c #203420342034",
", c #229622962296",
"< c #25D325D325D3",
"1 c #2A582A582A58",
"2 c #2D862D862D86",
"3 c #318031803180",
"4 c #327B327B327B",
"5 c #36AE36AE36AE",
"6 c #373F373F373F",
"7 c #3C4B3C4B3C4B",
"8 c #3D583D583D58",
"9 c #3FD93FD93FD9",
"0 c #44C644C644C6",
"q c #4F494F494F49",
"w c #58E458E458E4",
"e c #5A8E5A8E5A8E",
"r c #5E835E835E83",
"t c #653F653F653F",
"y c #665B665B665B",
"u c #6A4C6A4C6A4C",
"i c #705070507050",
"p c #7E9D7E9D7E9D",
"a c #7FFF7FFF7FFF",
"s c #809280928092",
"d c #81B381B381B3",
"f c #8E928E928E92",
"g c #94B194B194B1",
"h c #9AAA9AAA9AAA",
"j c #9C419C419C41",
"k c #A47BA47BA47B",
"l c #A8CEA8CEA8CE",
"z c #A9BBA9BBA9BB",
"x c #ABF3ABF3ABF3",
"c c #AC3CAC3CAC3C",
"v c #B4CBB4CBB4CB",
"b c #B59DB59DB59D",
"n c #BF9BBF9BBF9B",
"m c #C7EAC7EAC7EA",
"M c #D588D588D588",
"N c #D826D826D826",
"B c #DC4BDC4BDC4B",
"V c #DEF1DEF1DEF1",
"C c #DF68DF68DF68",
"Z c #E0D6E0D6E0D6",
"A c #E1E0E1E0E1E0",
"S c #E273E273E273",
"D c #E404E404E404",
"F c #E612E612E612",
"G c #E6A8E6A8E6A8",
"H c #E83AE83AE83A",
"J c #E8BFE8BFE8BF",
"K c #EACBEACBEACB",
"L c #EC6AEC6AEC6A",
"P c #F090F090F090",
"I c #F327F327F327",
"U c #F76EF76EF76E",
"Y c #F7D9F7D9F7D9",
"T c #FAC0FAC0FAC0",
"R c #FBC9FBC9FBC9",
"E c #FD1AFD1AFD1A",
"W c #FF37FF37FF37",
"Q c gray100",
/* pixels */
"QQQQQQQQQQQQQQQQQQQQQQQQQQQQQQQQ",
"QQQQQQQQQQQQQQQQQQQQQQQQQQQQQQQQ",
"QQQQQQQQQQQQQQQQQQQQQQQQQQQQQQQQ",
"QQQQQQQQQQQQQQQQQQQQQQQQQQQQQQQQ",
"QQQQQQQQQQQQQQQQQQQQQQQQQQQQQQQQ",
"QQQQQQQQQQQQQTALTQQLALQQQQQQQQQQ",
"QQQQQQQQQQQQBy;<uMLq=gQQQQQQQQQQ",
"QQQQQQQQQQQQy =2 ,6O$mQQQQQQQQQQ",
"QQQQQQQQQQQH8;kLf8=4jTQQQQQQQQQQ",
"QQQQQQQQQQQQHATQQUHIQQQQQQQQQQQQ",
"QQQQQQQQQUnvBQLcssxBQQQQQQQQQQQQ",
"QQQQQQQQQA, pb5O   ,hTQQQQQQQQQQ",
"QQQQQQQQQA; 5$ $,@  @bQQQQQQQQQQ",
"QQQQQQQQQA;  ;sMAmeO eQQQQQQQQQQ",
"QQQQQQQQQA; +xQQQQL2 1LQQQQQQQQQ",
"QQQQQQQQQA; 8IQQQQQi ;BQQQQQQQQQ",
"QQQQQQQQQA; iQQQQQQp ;AQQQQQQQQQ",
"QQQQQQQQQA; pQQQQQQs ;AQQQQQQQQQ",
"QQQQQQQQQA; sQQQQQQs ;AQQQQQQQQQ",
"QQQQQQQQQA; sQQQQQQp ;AQQQQQQQQQ",
"QQQQQQQQQA; pQQQQQQs ;AQQQQQQQQQ",
"QQQQQQQQQA; sQQQQQQs ;AQQQQQQQQQ",
"QQQQQQQQQA; pQQQQQQs ;AQQQQQQQQQ",
"QQQQQQQQQA; pQQQQQQp ;AQQQQQQQQQ",
"QQQQQQQQQB; sQQQQQQp ;AQQQQQQQQQ",
"QQQQQQQQQLr0kQQQQQQk0rLQQQQQQQQQ",
"QQQQQQQQQQTTQQQQQQQQTTQQQQQQQQQQ",
"QQQQQQQQQQQQQQQQQQQQQQQQQQQQQQQQ",
"QQQQQQQQQQQQQQQQQQQQQQQQQQQQQQQQ",
"QQQQQQQQQQQQQQQQQQQQQQQQQQQQQQQQ",
"QQQQQQQQQQQQQQQQQQQQQQQQQQQQQQQQ",
"QQQQQQQQQQQQQQQQQQQQQQQQQQQQQQQQ"
};
