/* XPM */
static const char *x251[] = {
/* columns rows colors chars-per-pixel */
"32 32 71 1",
"  c black",
". c #00D900D900D9",
"X c #075C075C075C",
"o c #0B400B400B40",
"O c #0E340E340E34",
"+ c #0EFA0EFA0EFA",
"@ c #133C133C133C",
"# c #145A145A145A",
"$ c #17D817D817D8",
"% c #197519751975",
"& c #1A271A271A27",
"* c #1E281E281E28",
"= c #1EFA1EFA1EFA",
"- c #207020702070",
"; c #226E226E226E",
": c #230323032303",
"> c #367336733673",
", c #3CE13CE13CE1",
"< c #3DD63DD63DD6",
"1 c #43B743B743B7",
"2 c #451A451A451A",
"3 c #4B074B074B07",
"4 c #4F3D4F3D4F3D",
"5 c #53B253B253B2",
"6 c #57CF57CF57CF",
"7 c #5E495E495E49",
"8 c #602960296029",
"9 c #641964196419",
"0 c #66E366E366E3",
"q c #6F786F786F78",
"w c #7CE17CE17CE1",
"e c #7EEB7EEB7EEB",
"r c #7FFF7FFF7FFF",
"t c #80D680D680D6",
"y c #811581158115",
"u c #825B825B825B",
"i c #831A831A831A",
"p c #996299629962",
"a c #A1A9A1A9A1A9",
"s c #A2A3A2A3A2A3",
"d c #A4CEA4CEA4CE",
"f c #B135B135B135",
"g c #B387B387B387",
"h c #B5CCB5CCB5CC",
"j c #BD5FBD5FBD5F",
"k c #BF99BF99BF99",
"l c #DC00DC00DC00",
"z c #DC6FDC6FDC6F",
"x c #DDAADDAADDAA",
"c c #E128E128E128",
"v c #E1DEE1DEE1DE",
"b c #E2B4E2B4E2B4",
"n c #E3A4E3A4E3A4",
"m c #E4B5E4B5E4B5",
"M c #E567E567E567",
"N c #E67FE67FE67F",
"B c #EA61EA61EA61",
"V c #EA73EA73EA73",
"C c #EFD9EFD9EFD9",
"Z c #F0EEF0EEF0EE",
"A c #F3F5F3F5F3F5",
"S c #F48FF48FF48F",
"D c #F654F654F654",
"F c #F75FF75FF75F",
"G c #F93EF93EF93E",
"H c #FAB6FAB6FAB6",
"J c #FBE9FBE9FBE9",
"K c #FD21FD21FD21",
"L c #FDEFFDEFFDEF",
"P c #FEF8FEF8FEF8",
"I c gray100",
/* pixels */
"IIIIIIIIIIIIIIIIIIIIIIIIIIIIIIII",
"IIIIIIIIIIIIIIIIIIIIIIIIIIIIIIII",
"IIIIIIIIIIIIIIIIIIIIIIIIIIIIIIII",
"IIIIIIIIIIIIIIIIIIIIIIIIIIIIIIII",
"IIIIIIIIIIIIIICbxCIIIIIIIIIIIIII",
"IIIIIIIIIIIIIB4%%3bIIIIIIIIIIIII",
"IIIIIIIIIIIIIr %% qJIIIIIIIIIIII",
"IIIIIIIIIIIIj@odg+oaIIIIIIIIIIII",
"IIIIIIIIIIIS7#0SIi%2mIIIIIIIIIII",
"IIIIIIIIIIIJmbZIISbbJIIIIIIIIIII",
"IIIIIIIIISkhlIIIIIIlhkSIIIIIIIII",
"IIIIIIIIIb; uIIIIIIu ;bIIIIIIIII",
"IIIIIIIIIb* rIIIIIIr *bIIIIIIIII",
"IIIIIIIIIb* rIIIIIIr *bIIIIIIIII",
"IIIIIIIIIb* rIIIIIIr *bIIIIIIIII",
"IIIIIIIIIb* rIIIIIIr *bIIIIIIIII",
"IIIIIIIIIb* rIIIIIIr *bIIIIIIIII",
"IIIIIIIIIb* rIIIIIIr *bIIIIIIIII",
"IIIIIIIIIb* rIIIIIIr *xIIIIIIIII",
"IIIIIIIIIb* rIIIIIIr *bIIIIIIIII",
"IIIIIIIIIx* rIIIIIJ6 *bIIIIIIIII",
"IIIIIIIIIb* 5JIIIIl; *bIIIIIIIII",
"IIIIIIIIIZ, #gIIIx9  *bIIIIIIIII",
"IIIIIIIIIIu  @7u9*@> *bIIIIIIIII",
"IIIIIIIIIIb1     +pr *bIIIIIIIII",
"IIIIIIIIIIIbu,*;5hIa27BIIIIIIIII",
"IIIIIIIIIIIIIZbmJIIJJJIIIIIIIIII",
"IIIIIIIIIIIIIIIIIIIIIIIIIIIIIIII",
"IIIIIIIIIIIIIIIIIIIIIIIIIIIIIIII",
"IIIIIIIIIIIIIIIIIIIIIIIIIIIIIIII",
"IIIIIIIIIIIIIIIIIIIIIIIIIIIIIIII",
"IIIIIIIIIIIIIIIIIIIIIIIIIIIIIIII"
};
