/* XPM */
static const char *x43[] = {
/* columns rows colors chars-per-pixel */
"32 32 28 1",
"  c black",
". c #008F008F008F",
"X c #025E025E025E",
"o c #042E042E042E",
"O c #04BC04BC04BC",
"+ c #09AA09AA09AA",
"@ c #158C158C158C",
"# c #1C661C661C66",
"$ c #1E231E231E23",
"% c #1EA21EA21EA2",
"& c #38BA38BA38BA",
"* c #4C5A4C5A4C5A",
"= c #5B845B845B84",
"- c #7FAB7FAB7FAB",
"; c #821C821C821C",
": c #8F118F118F11",
"> c #A17CA17CA17C",
", c #B708B708B708",
"< c #B86CB86CB86C",
"1 c #CBD4CBD4CBD4",
"2 c #E1CDE1CDE1CD",
"3 c #E578E578E578",
"4 c #EB33EB33EB33",
"5 c #F0EDF0EDF0ED",
"6 c #FB12FB12FB12",
"7 c #FC73FC73FC73",
"8 c #FE91FE91FE91",
"9 c gray100",
/* pixels */
"99999999999999999999999999999999",
"99999999999999999999999999999999",
"99999999999999999999999999999999",
"99999999999999999999999999999999",
"99999999999999999999999999999999",
"99999999999999999999999999999999",
"99999999999999999999999999999999",
"99999999999999999999999999999999",
"999999999999994<,499999999999999",
"99999999999999<++,99999999999999",
"99999999999999,OO,99999999999999",
"99999999999999,OO,99999999999999",
"99999999999999,OO,99999999999999",
"99999999999999<OO,99999999999999",
"999999995:---;=  =;-;-:599999999",
"999999992$            $299999999",
"999999993&$$%%@  @%$$$&299999999",
"99999999632223> O>32222999999999",
"99999999999999,OO,99999999999999",
"99999999999999,OO,99999999999999",
"99999999999999,OO,99999999999999",
"99999999999999,OO,99999999999999",
"999999999999991**199999999999999",
"99999999999999966999999999999999",
"99999999999999999999999999999999",
"99999999999999999999999999999999",
"99999999999999999999999999999999",
"99999999999999999999999999999999",
"99999999999999999999999999999999",
"99999999999999999999999999999999",
"99999999999999999999999999999999",
"99999999999999999999999999999999"
};
