/* XPM */
static const char *x50[] = {
/* columns rows colors chars-per-pixel */
"32 32 81 1",
"  c black",
". c #00C100C100C1",
"X c #023F023F023F",
"o c #031A031A031A",
"O c #03D403D403D4",
"+ c #053705370537",
"@ c #0E290E290E29",
"# c #0E970E970E97",
"$ c #114C114C114C",
"% c #151D151D151D",
"& c #1C021C021C02",
"* c #1DF31DF31DF3",
"= c #1EEA1EEA1EEA",
"- c #211721172117",
"; c #22E322E322E3",
": c #256A256A256A",
"> c #295029502950",
", c #29B229B229B2",
"< c #319331933193",
"1 c #32B432B432B4",
"2 c #343434343434",
"3 c #36FD36FD36FD",
"4 c #382738273827",
"5 c #3C003C003C00",
"6 c #3CE13CE13CE1",
"7 c #401B401B401B",
"8 c #419F419F419F",
"9 c #42D842D842D8",
"0 c #48C348C348C3",
"q c #48FB48FB48FB",
"w c #4A914A914A91",
"e c #4C694C694C69",
"r c #4D864D864D86",
"t c #5E175E175E17",
"y c #657965796579",
"u c #695069506950",
"i c #6A746A746A74",
"p c #712971297129",
"a c #742B742B742B",
"s c #77A177A177A1",
"d c #79F179F179F1",
"f c #817481748174",
"g c #87E187E187E1",
"h c #89F489F489F4",
"j c #8A0C8A0C8A0C",
"k c #8BD48BD48BD4",
"l c #900890089008",
"z c #95A295A295A2",
"x c #962096209620",
"c c #9A149A149A14",
"v c #9AB79AB79AB7",
"b c #A3ECA3ECA3EC",
"n c #B56EB56EB56E",
"m c #B708B708B708",
"M c #B969B969B969",
"N c #BCF7BCF7BCF7",
"B c #BDA4BDA4BDA4",
"V c #BFF1BFF1BFF1",
"C c #CB26CB26CB26",
"Z c #CBD3CBD3CBD3",
"A c #D6EAD6EAD6EA",
"S c #D763D763D763",
"D c #DD3BDD3BDD3B",
"F c #E209E209E209",
"G c #E4B3E4B3E4B3",
"H c #E8EFE8EFE8EF",
"J c #EA28EA28EA28",
"K c #EA97EA97EA97",
"L c #EEC3EEC3EEC3",
"P c #F083F083F083",
"I c #F1F2F1F2F1F2",
"U c #F363F363F363",
"Y c #F41CF41CF41C",
"T c #F65DF65DF65D",
"R c #F8D7F8D7F8D7",
"E c #FB02FB02FB02",
"W c #FC13FC13FC13",
"Q c #FCB8FCB8FCB8",
"! c #FDA8FDA8FDA8",
"~ c #FEF7FEF7FEF7",
"^ c gray100",
/* pixels */
"^^^^^^^^^^^^^^^^^^^^^^^^^^^^^^^^",
"^^^^^^^^^^^^^^^^^^^^^^^^^^^^^^^^",
"^^^^^^^^^^^^^^^^^^^^^^^^^^^^^^^^",
"^^^^^^^^^^^^^^^^^^^^^^^^^^^^^^^^",
"^^^^^^^^^^^^^EGFFY^^^^^^^^^^^^^^",
"^^^^^^^^^^^Fjq;**6fD^^^^^^^^^^^^",
"^^^^^^^^^^C2       ,N^^^^^^^^^^^",
"^^^^^^^^^F,  <pfp<+ ,A^^^^^^^^^^",
"^^^^^^^^^j  uH^^^Hu+ s^^^^^^^^^^",
"^^^^^^^^Y8 8L^^^^^H2 2L^^^^^^^^^",
"^^^^^^^^Ht:j^^^^^^^d *F^^^^^^^^^",
"^^^^^^^^^EHL^^^^^^^d ;G^^^^^^^^^",
"^^^^^^^^^^^^^^^^^^H4 eE^^^^^^^^^",
"^^^^^^^^^^^^^^^^^^z  v^^^^^^^^^^",
"^^^^^^^^^^^^^^^^^N& 4H^^^^^^^^^^",
"^^^^^^^^^^^^^^^^N; %M^^^^^^^^^^^",
"^^^^^^^^^^^^^^^N; @x^^^^^^^^^^^^",
"^^^^^^^^^^^^^Eb; @z^^^^^^^^^^^^^",
"^^^^^^^^^^^^Yj@ &vE^^^^^^^^^^^^^",
"^^^^^^^^^^^Yu+ ,M^^^^^^^^^^^^^^^",
"^^^^^^^^^^Yu+ 8A^^^^^^^^^^^^^^^^",
"^^^^^^^^^Es  yG^^^^^^^^^^^^^^^^^",
"^^^^^^^^^n@ yY^EEEEEEE^^^^^^^^^^",
"^^^^^^^^Te +4q0qqqqqqeC^^^^^^^^^",
"^^^^^^^^Z$           +n^^^^^^^^^",
"^^^^^^^^CqqqqqqqqqqqqqC^^^^^^^^^",
"^^^^^^^^^EEEEEEEEEEEEE^^^^^^^^^^",
"^^^^^^^^^^^^^^^^^^^^^^^^^^^^^^^^",
"^^^^^^^^^^^^^^^^^^^^^^^^^^^^^^^^",
"^^^^^^^^^^^^^^^^^^^^^^^^^^^^^^^^",
"^^^^^^^^^^^^^^^^^^^^^^^^^^^^^^^^",
"^^^^^^^^^^^^^^^^^^^^^^^^^^^^^^^^"
};
