/* XPM */
static const char *x53[] = {
/* columns rows colors chars-per-pixel */
"32 32 94 2",
"   c black",
".  c #00BB00BB00BB",
"X  c #024102410241",
"o  c #02CF02CF02CF",
"O  c #041B041B041B",
"+  c #079907990799",
"@  c #096509650965",
"#  c #09C009C009C0",
"$  c #0F090F090F09",
"%  c #0F990F990F99",
"&  c #118011801180",
"*  c #152715271527",
"=  c #16FB16FB16FB",
"-  c #1AC71AC71AC7",
";  c #1C041C041C04",
":  c #1D0E1D0E1D0E",
">  c #1DA31DA31DA3",
",  c #1ECD1ECD1ECD",
"<  c #203820382038",
"1  c #22EF22EF22EF",
"2  c #242824282428",
"3  c #296F296F296F",
"4  c #2A582A582A58",
"5  c #2DEE2DEE2DEE",
"6  c #2ECB2ECB2ECB",
"7  c #334E334E334E",
"8  c #3A9B3A9B3A9B",
"9  c #3AE23AE23AE2",
"0  c #3CD93CD93CD9",
"q  c #42D242D242D2",
"w  c #43E043E043E0",
"e  c #460246024602",
"r  c #47F547F547F5",
"t  c #48F748F748F7",
"y  c #4A0F4A0F4A0F",
"u  c #4ADE4ADE4ADE",
"i  c #4E9A4E9A4E9A",
"p  c #540654065406",
"a  c #586758675867",
"s  c #63D063D063D0",
"d  c #655D655D655D",
"f  c #6D026D026D02",
"g  c #716471647164",
"h  c #74A974A974A9",
"j  c #79D979D979D9",
"k  c #7A507A507A50",
"l  c #7D227D227D22",
"z  c #7E2E7E2E7E2E",
"x  c #7FBF7FBF7FBF",
"c  c #802E802E802E",
"v  c #812D812D812D",
"b  c #83D683D683D6",
"n  c #8D2D8D2D8D2D",
"m  c #8E9B8E9B8E9B",
"M  c #900890089008",
"N  c #908690869086",
"B  c #9E009E009E00",
"V  c #A070A070A070",
"C  c #A759A759A759",
"Z  c #AB9EAB9EAB9E",
"A  c #AC3CAC3CAC3C",
"S  c #AFC7AFC7AFC7",
"D  c #B2B5B2B5B2B5",
"F  c #B372B372B372",
"G  c #B77EB77EB77E",
"H  c #B8D3B8D3B8D3",
"J  c #BAFFBAFFBAFF",
"K  c #BD9CBD9CBD9C",
"L  c #C3E5C3E5C3E5",
"P  c #C8E6C8E6C8E6",
"I  c #CC72CC72CC72",
"U  c #D2B3D2B3D2B3",
"Y  c #D5A7D5A7D5A7",
"T  c #DD45DD45DD45",
"R  c #DFC6DFC6DFC6",
"E  c #E108E108E108",
"W  c #E1E2E1E2E1E2",
"Q  c #E569E569E569",
"!  c #E8F5E8F5E8F5",
"~  c #E9C4E9C4E9C4",
"^  c #EE00EE00EE00",
"/  c #F01FF01FF01F",
"(  c #F1C7F1C7F1C7",
")  c #F28DF28DF28D",
"_  c #F3B9F3B9F3B9",
"`  c #F4E7F4E7F4E7",
"'  c #F675F675F675",
"]  c #F805F805F805",
"[  c #FAF0FAF0FAF0",
"{  c #FC19FC19FC19",
"}  c #FD38FD38FD38",
"|  c #FDC3FDC3FDC3",
" . c #FF17FF17FF17",
".. c gray100",
/* pixels */
"................................................................",
"................................................................",
"................................................................",
"................................................................",
"........................[ [ [ [ [ [ [ [ [ ......................",
"......................B e t t e t e t e e k [ ..................",
"....................[ i X X X X X X X X X t [ ..................",
"....................Q 3 X 1 t t t t e t e k ....................",
"....................I & X n ..[ [ [ [ [ [ [ ....................",
"....................C X O J ....................................",
"....................x X - T ....................................",
"....................p X 0 ( ..~ E Q ............................",
"..................^ 7 X p D p 3 ; 3 s G ........................",
"..................Y * X ; $ X X X X X $ c ( ....................",
"..................S X X X 6 d c k t & X O n ....................",
"..................Z 9 2 x ~ ......[ G 1 X ; U ..................",
"....................( Q [ ............S # X n ..................",
"......................................~ 7 X p ..................",
"......................................[ t X t [ ................",
"..................[ ^ ~ ..............] q X t [ ................",
"..................c 6 e ~ ............T 1 X g ..................",
"..................x X # D ............n X # D ..................",
"..................P * X 9 P [ ....] B - X q ^ ..................",
"..................[ g X X * p x k q # X 1 L ....................",
"....................( f # X X X X X X 3 K ......................",
"......................] D p 3 ; ; 0 x T ........................",
"..........................[ ~ E E ( ............................",
"................................................................",
"................................................................",
"................................................................",
"................................................................",
"................................................................"
};
