/* XPM */
static const char *x58[] = {
/* columns rows colors chars-per-pixel */
"32 32 20 1",
"  c black",
". c #1E231E231E23",
"X c #225122512251",
"o c #44C644C644C6",
"O c #5E835E835E83",
"+ c #7FFF7FFF7FFF",
"@ c #825E825E825E",
"# c #A47BA47BA47B",
"$ c #B55CB55CB55C",
"% c #BF9FBF9FBF9F",
"& c #DB83DB83DB83",
"* c #E1DCE1DCE1DC",
"= c #E26AE26AE26A",
"- c #EA73EA73EA73",
"; c #F768F768F768",
": c #FADDFADDFADD",
"> c #FB91FB91FB91",
", c #FD7CFD7CFD7C",
"< c #FF68FF68FF68",
"1 c gray100",
/* pixels */
"11111111111111111111111111111111",
"11111111111111111111111111111111",
"11111111111111111111111111111111",
"11111111111111111111111111111111",
"11111111111111111111111111111111",
"11111111111111111111111111111111",
"11111111111111111111111111111111",
"11111111111111111111111111111111",
"11111111111111111111111111111111",
"11111111111111111111111111111111",
"11111111111111&$%;11111111111111",
"11111111111111@ X=11111111111111",
"11111111111111@ X=11111111111111",
"11111111111111&$%;11111111111111",
"11111111111111111111111111111111",
"11111111111111111111111111111111",
"11111111111111111111111111111111",
"11111111111111111111111111111111",
"11111111111111111111111111111111",
"11111111111111111111111111111111",
"11111111111111111111111111111111",
"11111111111111111111111111111111",
"11111111111111>>>111111111111111",
"11111111111111#oO-11111111111111",
"11111111111111+ .=11111111111111",
"11111111111111#oO-11111111111111",
"111111111111111>>111111111111111",
"11111111111111111111111111111111",
"11111111111111111111111111111111",
"11111111111111111111111111111111",
"11111111111111111111111111111111",
"11111111111111111111111111111111"
};
