/* XPM */
static const char *x74[] = {
/* columns rows colors chars-per-pixel */
"32 32 56 1",
"  c black",
". c #025402540254",
"X c #03DD03DD03DD",
"o c #099A099A099A",
"O c #0ABF0ABF0ABF",
"+ c #0C270C270C27",
"@ c #0F180F180F18",
"# c #145B145B145B",
"$ c #16A716A716A7",
"% c #18AA18AA18AA",
"& c #1D621D621D62",
"* c #1E2A1E2A1E2A",
"= c #1EFA1EFA1EFA",
"- c #276327632763",
"; c #297229722972",
": c #2AEE2AEE2AEE",
"> c #38BA38BA38BA",
", c #3D0D3D0D3D0D",
"< c #41FF41FF41FF",
"1 c #480548054805",
"2 c #48F748F748F7",
"3 c #4C074C074C07",
"4 c #5E835E835E83",
"5 c #5FF75FF75FF7",
"6 c #63D063D063D0",
"7 c #6AF66AF66AF6",
"8 c #703C703C703C",
"9 c #7FFF7FFF7FFF",
"0 c #80D180D180D1",
"q c #88B188B188B1",
"w c #8E7D8E7D8E7D",
"e c #962296229622",
"r c #997D997D997D",
"t c #A7DBA7DBA7DB",
"y c #B7A0B7A0B7A0",
"u c #B94CB94CB94C",
"i c #BF29BF29BF29",
"p c #C331C331C331",
"a c #C919C919C919",
"s c #E121E121E121",
"d c #E1E4E1E4E1E4",
"f c #E3B2E3B2E3B2",
"g c #E568E568E568",
"h c #E85AE85AE85A",
"j c #E8F1E8F1E8F1",
"k c #EA27EA27EA27",
"l c #EAD3EAD3EAD3",
"z c #F327F327F327",
"x c #F41DF41DF41D",
"c c #F718F718F718",
"v c #FAF2FAF2FAF2",
"b c #FBE6FBE6FBE6",
"n c #FCFEFCFEFCFE",
"m c #FD9FFD9FFD9F",
"M c #FF70FF70FF70",
"N c gray100",
/* pixels */
"NNNNNNNNNNNNNNNNNNNNNNNNNNNNNNNN",
"NNNNNNNNNNNNNNNNNNNNNNNNNNNNNNNN",
"NNNNNNNNNNNNNNNNNNNNNNNNNNNNNNNN",
"NNNNNNNNNNNNNNNNNNNNNNNNNNNNNNNN",
"NNNNNNNNNNNNNNNNNNksgNNNNNNNNNNN",
"NNNNNNNNNNNNNNNNNv4%>sNNNNNNNNNN",
"NNNNNNNNNNNNNNNNNv2 =sNNNNNNNNNN",
"NNNNNNNNNNNNNNNNNv2 =sNNNNNNNNNN",
"NNNNNNNNNNNNNNNNNv2 =sNNNNNNNNNN",
"NNNNNNNNNNNNNNNNNv2 =sNNNNNNNNNN",
"NNNNNNNNNNNNNNNNNv2 =sNNNNNNNNNN",
"NNNNNNNNNNNNNNNNNv2 =sNNNNNNNNNN",
"NNNNNNNNNNNNNNNNNv2 =sNNNNNNNNNN",
"NNNNNNNNNNNNNNNNNv2 =sNNNNNNNNNN",
"NNNNNNNNNNNNNNNNNv2 =sNNNNNNNNNN",
"NNNNNNNNNNNNNNNNNv2 =sNNNNNNNNNN",
"NNNNNNNNNNNNNNNNNv2 =sNNNNNNNNNN",
"NNNNNNNNNNNNNNNNNv2 =sNNNNNNNNNN",
"NNNNNNNNNNNNNNNNNv2 =sNNNNNNNNNN",
"NNNNNNNNNkuriNNNNv2 =sNNNNNNNNNN",
"NNNNNNNNNyO 7NNNNv2 =sNNNNNNNNNN",
"NNNNNNNNNp@ ,xNNNs- ,xNNNNNNNNNN",
"NNNNNNNNNg; OtNNcqX 7NNNNNNNNNNN",
"NNNNNNNNNN9  #403O $aNNNNNNNNNNN",
"NNNNNNNNNNs2      @eNNNNNNNNNNNN",
"NNNNNNNNNNNkw<==;6yvNNNNNNNNNNNN",
"NNNNNNNNNNNNNcsskvNNNNNNNNNNNNNN",
"NNNNNNNNNNNNNNNNNNNNNNNNNNNNNNNN",
"NNNNNNNNNNNNNNNNNNNNNNNNNNNNNNNN",
"NNNNNNNNNNNNNNNNNNNNNNNNNNNNNNNN",
"NNNNNNNNNNNNNNNNNNNNNNNNNNNNNNNN",
"NNNNNNNNNNNNNNNNNNNNNNNNNNNNNNNN"
};
