/* XPM */
static const char *x80[] = {
/* columns rows colors chars-per-pixel */
"32 32 60 1",
"  c black",
". c #025E025E025E",
"X c #045104510451",
"o c #04F604F604F6",
"O c #05E205E205E2",
"+ c #08DB08DB08DB",
"@ c #0BB50BB50BB5",
"# c #0CBA0CBA0CBA",
"$ c #0DCD0DCD0DCD",
"% c #0FC10FC10FC1",
"& c #155E155E155E",
"* c #17D217D217D2",
"= c #1E111E111E11",
"- c #222522252225",
"; c #231E231E231E",
": c #403640364036",
"> c #433D433D433D",
", c #449444944494",
"< c #45FB45FB45FB",
"1 c #4C414C414C41",
"2 c #4D864D864D86",
"3 c #525B525B525B",
"4 c #53FB53FB53FB",
"5 c #5B845B845B84",
"6 c #768B768B768B",
"7 c #799479947994",
"8 c #7A6B7A6B7A6B",
"9 c #7FF67FF67FF6",
"0 c #806C806C806C",
"q c #81F181F181F1",
"w c #821082108210",
"e c #92D092D092D0",
"r c #967896789678",
"t c #9ACB9ACB9ACB",
"y c #A457A457A457",
"u c #B338B338B338",
"i c #B59BB59BB59B",
"p c #B702B702B702",
"a c #B7DCB7DCB7DC",
"s c #B9D0B9D0B9D0",
"d c #BF9FBF9FBF9F",
"f c #C30BC30BC30B",
"g c #C9EEC9EEC9EE",
"h c #CBD4CBD4CBD4",
"j c #D625D625D625",
"k c #E1D5E1D5E1D5",
"l c #E273E273E273",
"z c #E3E5E3E5E3E5",
"x c #E4D0E4D0E4D0",
"c c #EFD3EFD3EFD3",
"v c #F205F205F205",
"b c #F4DDF4DDF4DD",
"n c #F61DF61DF61D",
"m c #F768F768F768",
"M c #F81EF81EF81E",
"N c #F97FF97FF97F",
"B c #FB07FB07FB07",
"V c #FD01FD01FD01",
"C c #FEAAFEAAFEAA",
"Z c gray100",
/* pixels */
"ZZZZZZZZZZZZZZZZZZZZZZZZZZZZZZZZ",
"ZZZZZZZZZZZZZZZZZZZZZZZZZZZZZZZZ",
"ZZZZZZZZZZZZZZZZZZZZZZZZZZZZZZZZ",
"ZZZZZZZZZZZZZZZZZZZZZZZZZZZZZZZZ",
"ZZZZZZZZMkkkkkkkkkxMZZZZZZZZZZZZ",
"ZZZZZZZZd;========;,6gZZZZZZZZZZ",
"ZZZZZZZZpo           &rBZZZZZZZZ",
"ZZZZZZZZpo :0099908:o %pZZZZZZZZ",
"ZZZZZZZZpo 0ZZZZZZZvwo 2MZZZZZZZ",
"ZZZZZZZZpo 9ZZZZZZZZv: *jZZZZZZZ",
"ZZZZZZZZpo 9ZZZZZZZZZ8 opZZZZZZZ",
"ZZZZZZZZpo 9ZZZZZZZZZ9 opZZZZZZZ",
"ZZZZZZZZpo 0ZZZZZZZZM1 *jZZZZZZZ",
"ZZZZZZZZpo 0ZZZZZZZBe+ :vZZZZZZZ",
"ZZZZZZZZpo 5sppppst3# #yZZZZZZZZ",
"ZZZZZZZZpo  oooooo   +6BZZZZZZZZ",
"ZZZZZZZZso  oooooo+;3uMZZZZZZZZZ",
"ZZZZZZZZpo 5spppppfkBZZZZZZZZZZZ",
"ZZZZZZZZpo 9ZZZZZZZZZZZZZZZZZZZZ",
"ZZZZZZZZpo 9ZZZZZZZZZZZZZZZZZZZZ",
"ZZZZZZZZpo 9ZZZZZZZZZZZZZZZZZZZZ",
"ZZZZZZZZpo 9ZZZZZZZZZZZZZZZZZZZZ",
"ZZZZZZZZpo 0ZZZZZZZZZZZZZZZZZZZZ",
"ZZZZZZZZpo 9ZZZZZZZZZZZZZZZZZZZZ",
"ZZZZZZZZpo 0ZZZZZZZZZZZZZZZZZZZZ",
"ZZZZZZZZg2,yZZZZZZZZZZZZZZZZZZZZ",
"ZZZZZZZZBBBZZZZZZZZZZZZZZZZZZZZZ",
"ZZZZZZZZZZZZZZZZZZZZZZZZZZZZZZZZ",
"ZZZZZZZZZZZZZZZZZZZZZZZZZZZZZZZZ",
"ZZZZZZZZZZZZZZZZZZZZZZZZZZZZZZZZ",
"ZZZZZZZZZZZZZZZZZZZZZZZZZZZZZZZZ",
"ZZZZZZZZZZZZZZZZZZZZZZZZZZZZZZZZ"
};
