/* XPM */
static const char *x82[] = {
/* columns rows colors chars-per-pixel */
"32 32 85 1",
"  c black",
". c #010A010A010A",
"X c #018601860186",
"o c gray2",
"O c #06F906F906F9",
"+ c #07FE07FE07FE",
"@ c #089008900890",
"# c #0A710A710A71",
"$ c #0AAE0AAE0AAE",
"% c #0F060F060F06",
"& c #0FC10FC10FC1",
"* c #155515551555",
"= c #16A716A716A7",
"- c #1B331B331B33",
"; c #1C9D1C9D1C9D",
": c #1E1B1E1B1E1B",
"> c #215D215D215D",
", c #226922692269",
"< c #231A231A231A",
"1 c #273327332733",
"2 c #297D297D297D",
"3 c #2A582A582A58",
"4 c #2C1E2C1E2C1E",
"5 c #331B331B331B",
"6 c #37FA37FA37FA",
"7 c #3FFF3FFF3FFF",
"8 c #426242624262",
"9 c #449444944494",
"0 c #464146414641",
"q c #48C648C648C6",
"w c #4C4C4C4C4C4C",
"e c #4F7A4F7A4F7A",
"r c #514E514E514E",
"t c #526E526E526E",
"y c #545A545A545A",
"u c #60A360A360A3",
"i c #645464546454",
"p c #684F684F684F",
"a c #6A1F6A1F6A1F",
"s c #70EE70EE70EE",
"d c #764576457645",
"f c #7A357A357A35",
"g c #7FFB7FFB7FFB",
"h c #807880788078",
"j c #81F181F181F1",
"k c #843384338433",
"l c #928092809280",
"z c #95A495A495A4",
"x c #96F696F696F6",
"c c #97B097B097B0",
"v c #A0E5A0E5A0E5",
"b c #A47BA47BA47B",
"n c #AC3AAC3AAC3A",
"m c #AD91AD91AD91",
"M c #B5BBB5BBB5BB",
"N c #B708B708B708",
"B c #B7E7B7E7B7E7",
"V c #BC43BC43BC43",
"C c #BF9FBF9FBF9F",
"Z c #C919C919C919",
"A c #C9EEC9EEC9EE",
"S c #CC17CC17CC17",
"D c #CC8CCC8CCC8C",
"F c #CD81CD81CD81",
"G c #DBBBDBBBDBBB",
"H c #DCD5DCD5DCD5",
"J c #DDA7DDA7DDA7",
"K c #E1DEE1DEE1DE",
"L c #E273E273E273",
"P c #E3B6E3B6E3B6",
"I c #E4F9E4F9E4F9",
"U c #E92FE92FE92F",
"Y c #E9BAE9BAE9BA",
"T c #ED9BED9BED9B",
"R c #F435F435F435",
"E c #F5B0F5B0F5B0",
"W c #F768F768F768",
"Q c #F7B2F7B2F7B2",
"! c #FA4DFA4DFA4D",
"~ c #FAE2FAE2FAE2",
"^ c #FC05FC05FC05",
"/ c #FD07FD07FD07",
"( c #FDB9FDB9FDB9",
") c #FEC4FEC4FEC4",
"_ c gray100",
/* pixels */
"________________________________",
"________________________________",
"________________________________",
"________________________________",
"_______WKKKKKKKKKKIW____________",
"_______C<:::::::::<9dZ^_________",
"_______No            *c_________",
"_______No 7hhghgghi<  *Z________",
"_______No g________Hu  a________",
"_______No g_________H< 3U_______",
"_______No h_________^q :K_______",
"_______No g_________T5 <K_______",
"_______No h_________l+ r^_______",
"_______No sIKKKKKGVf% &N________",
"_______No %::::::-o  %c^________",
"_______No         o<rN^_________",
"_______No 7hghhq+ <V^___________",
"_______No h____Wm: 4F___________",
"_______No g______c+ 7I__________",
"_______No g______Wa  aW_________",
"_______No h_______H3 +m_________",
"_______No h________c+ 6U________",
"_______No g________Wy  k________",
"_______No g_________F: :Z_______",
"_______No h__________k  rR______",
"_______Zw7b__________Ui9rF______",
"________^^____________^^^^______",
"________________________________",
"________________________________",
"________________________________",
"________________________________",
"________________________________"
};
