/* XPM */
static const char *x88[] = {
/* columns rows colors chars-per-pixel */
"32 32 78 1",
"  c black",
". c #015001500150",
"X c #01B401B401B4",
"o c #02F902F902F9",
"O c #046104610461",
"+ c #049404940494",
"@ c #082408240824",
"# c #089008900890",
"$ c #0ED30ED30ED3",
"% c #0FB90FB90FB9",
"& c #153815381538",
"* c #19E019E019E0",
"= c #1B101B101B10",
"- c #1C241C241C24",
"; c #1DCF1DCF1DCF",
": c #233523352335",
"> c #244524452445",
", c #289D289D289D",
"< c #29B229B229B2",
"1 c #32E732E732E7",
"2 c #33E433E433E4",
"3 c #37B637B637B6",
"4 c #395839583958",
"5 c #3CFB3CFB3CFB",
"6 c #412F412F412F",
"7 c #45A445A445A4",
"8 c #469646964696",
"9 c #46C946C946C9",
"0 c #4F9C4F9C4F9C",
"q c #508650865086",
"w c #50EB50EB50EB",
"e c #57DD57DD57DD",
"r c #5DFB5DFB5DFB",
"t c #5F1A5F1A5F1A",
"y c #684F684F684F",
"u c #6F796F796F79",
"i c #73AD73AD73AD",
"p c #7CC57CC57CC5",
"a c #7FC07FC07FC0",
"s c #80BB80BB80BB",
"d c #8C568C568C56",
"f c #908690869086",
"g c #924692469246",
"h c #97B097B097B0",
"j c #9F329F329F32",
"k c #A0E5A0E5A0E5",
"l c #AFD5AFD5AFD5",
"z c #B086B086B086",
"x c #BED0BED0BED0",
"c c #C395C395C395",
"v c #C445C445C445",
"b c #CC38CC38CC38",
"n c #CD18CD18CD18",
"m c #CD7ACD7ACD7A",
"M c #D613D613D613",
"N c #D763D763D763",
"B c #D972D972D972",
"V c #DCC9DCC9DCC9",
"C c #E160E160E160",
"Z c #E1F8E1F8E1F8",
"A c #E408E408E408",
"S c #E4EAE4EAE4EA",
"D c #E67CE67CE67C",
"F c #E99CE99CE99C",
"G c #EAD8EAD8EAD8",
"H c #EEEFEEEFEEEF",
"J c #F046F046F046",
"K c #F14FF14FF14F",
"L c #F1BDF1BDF1BD",
"P c #F76DF76DF76D",
"I c #F798F798F798",
"U c #FA4DFA4DFA4D",
"Y c #FB45FB45FB45",
"T c #FB9CFB9CFB9C",
"R c #FD02FD02FD02",
"E c #FDF3FDF3FDF3",
"W c #FF3EFF3EFF3E",
"Q c gray100",
/* pixels */
"QQQQQQQQQQQQQQQQQQQQQQQQQQQQQQQQ",
"QQQQQQQQQQQQQQQQQQQQQQQQQQQQQQQQ",
"QQQQQQQQQQQQQQQQQQQQQQQQQQQQQQQQ",
"QQQQQQQQQQQQQQQQQQQQQQQQQQQQQQQQ",
"QQQQQQQIZZZTQQQQQQQQQGZZIQQQQQQQ",
"QQQQQQQD7=>zQQQQQQQQN2=7DQQQQQQQ",
"QQQQQQQQj# <NQQQQQQHq #jQQQQQQQQ",
"QQQQQQQQIy  tIQQQQQd+ tIQQQQQQQQ",
"QQQQQQQQQZ2 #kQQQQx& 1VQQQQQQQQQ",
"QQQQQQQQQQl$ >nQQZ5 $lQQQQQQQQQQ",
"QQQQQQQQQQTi  qLQu  iTQQQQQQQQQQ",
"QQQQQQQQQQQG6 +gl$ 6GQQQQQQQQQQQ",
"QQQQQQQQQQQQx& &= &xQQQQQQQQQQQQ",
"QQQQQQQQQQQQQd+   sQQQQQQQQQQQQQ",
"QQQQQQQQQQQQQH4  2GQQQQQQQQQQQQQ",
"QQQQQQQQQQQQQc=  $zQQQQQQQQQQQQQ",
"QQQQQQQQQQQQG6    2ZQQQQQQQQQQQQ",
"QQQQQQQQQQQQs  ee  yIQQQQQQQQQQQ",
"QQQQQQQQQQQz% <VV< #kQQQQQQQQQQQ",
"QQQQQQQQQQV1 #kQQl% >NQQQQQQQQQQ",
"QQQQQQQQQIt  yIQQTi  qLQQQQQQQQQ",
"QQQQQQQQQh# 2ZQQQQZ4 +gQQQQQQQQQ",
"QQQQQQQQn; $lQQQQQQx& ;nQQQQQQQQ",
"QQQQQQQHq  iTQQQQQQQa  7GQQQQQQQ",
"QQQQQQQp  6GQQQQQQQQG7  aTQQQQQQ",
"QQQQQQZt70vQQQQQQQQQQnq7tZQQQQQQ",
"QQQQQQQTTTQQQQQQQQQQQQTTTQQQQQQQ",
"QQQQQQQQQQQQQQQQQQQQQQQQQQQQQQQQ",
"QQQQQQQQQQQQQQQQQQQQQQQQQQQQQQQQ",
"QQQQQQQQQQQQQQQQQQQQQQQQQQQQQQQQ",
"QQQQQQQQQQQQQQQQQQQQQQQQQQQQQQQQ",
"QQQQQQQQQQQQQQQQQQQQQQQQQQQQQQQQ"
};
