/* XPM */
static const char *x90[] = {
/* columns rows colors chars-per-pixel */
"32 32 73 1",
"  c #000200020002",
". c #021902190219",
"X c #02A602A602A6",
"o c #04B404B404B4",
"O c #06CE06CE06CE",
"+ c #088308830883",
"@ c #08D108D108D1",
"# c #0CBE0CBE0CBE",
"$ c #0DDA0DDA0DDA",
"% c #0FC40FC40FC4",
"& c #152A152A152A",
"* c #1AB51AB51AB5",
"= c #1C531C531C53",
"- c #1E231E231E23",
"; c #21B821B821B8",
": c #244A244A244A",
"> c #29B029B029B0",
", c #2D852D852D85",
"< c #32E632E632E6",
"1 c #38BA38BA38BA",
"2 c #3C1C3C1C3C1C",
"3 c #3CFB3CFB3CFB",
"4 c #469646964696",
"5 c #478347834783",
"6 c #48C348C348C3",
"7 c #48F748F748F7",
"8 c #4AC34AC34AC3",
"9 c #4C5F4C5F4C5F",
"0 c #50CE50CE50CE",
"q c #541F541F541F",
"w c #5C8D5C8D5C8D",
"e c gray37",
"r c #65D865D865D8",
"t c #6C826C826C82",
"y c #73AD73AD73AD",
"u c #742B742B742B",
"i c #7FE27FE27FE2",
"p c #804580458045",
"a c #823882388238",
"s c #8BD48BD48BD4",
"d c #8C528C528C52",
"f c #8F118F118F11",
"g c #953895389538",
"h c #97B097B097B0",
"j c #9A279A279A27",
"k c #A373A373A373",
"l c #AF5EAF5EAF5E",
"z c #B708B708B708",
"x c #B892B892B892",
"c c #BC91BC91BC91",
"v c #BD9DBD9DBD9D",
"b c #C3E3C3E3C3E3",
"n c #CBD4CBD4CBD4",
"m c #CD1ACD1ACD1A",
"M c #D64FD64FD64F",
"N c #DBB5DBB5DBB5",
"B c #DCC9DCC9DCC9",
"V c #DE47DE47DE47",
"C c #E1D0E1D0E1D0",
"Z c #E3ADE3ADE3AD",
"A c #E568E568E568",
"S c #EAA7EAA7EAA7",
"D c #EC70EC70EC70",
"F c #F10EF10EF10E",
"G c #F22DF22DF22D",
"H c #F341F341F341",
"J c #F743F743F743",
"K c #FB03FB03FB03",
"L c #FBF9FBF9FBF9",
"P c #FD6DFD6DFD6D",
"I c #FE43FE43FE43",
"U c #FF20FF20FF20",
"Y c gray100",
/* pixels */
"YYYYYYYYYYYYYYYYYYYYYYYYYYYYYYYY",
"YYYYYYYYYYYYYYYYYYYYYYYYYYYYYYYY",
"YYYYYYYYYYYYYYYYYYYYYYYYYYYYYYYY",
"YYYYYYYYYYYYYYYYYYYYYYYYYYYYYYYY",
"YYYYYYYYYCCCCCCCCCCCCCCHYYYYYYYY",
"YYYYYYYYA1---------;--*fYYYYYYYY",
"YYYYYYYYV-             iYYYYYYYY",
"YYYYYYYYHfiiipiiiipwo ogYYYYYYYY",
"YYYYYYYYYYYYYYYYYYHq  wHYYYYYYYY",
"YYYYYYYYYYYYYYYYYKu  <NYYYYYYYYY",
"YYYYYYYYYYYYYYYYYk$ -cYYYYYYYYYY",
"YYYYYYYYYYYYYYYYb; $jYYYYYYYYYYY",
"YYYYYYYYYYYYYYYV2  uKYYYYYYYYYYY",
"YYYYYYYYYYYYYYHw  6SYYYYYYYYYYYY",
"YYYYYYYYYYYYYYso >MYYYYYYYYYYYYY",
"YYYYYYYYYYYYYl$ &xYYYYYYYYYYYYYY",
"YYYYYYYYYYYYm: ofYYYYYYYYYYYYYYY",
"YYYYYYYYYYYS6  rHYYYYYYYYYYYYYYY",
"YYYYYYYYYYJt  1CYYYYYYYYYYYYYYYY",
"YYYYYYYYYYj@ ;bYYYYYYYYYYYYYYYYY",
"YYYYYYYYYc- $kYYYYYYYYYYYYYYYYYY",
"YYYYYYYYN<  iYYYYYYYYYYYYYYYYYYY",
"YYYYYYYH0  9DYKKKKKKKKKKYYYYYYYY",
"YYYYYYYc@  ,66664666664wSYYYYYYY",
"YYYYYYYzo              -CYYYYYYY",
"YYYYYYYn966666666666666wSYYYYYYY",
"YYYYYYYYKKKKKKKKKKKKKKKKYYYYYYYY",
"YYYYYYYYYYYYYYYYYYYYYYYYYYYYYYYY",
"YYYYYYYYYYYYYYYYYYYYYYYYYYYYYYYY",
"YYYYYYYYYYYYYYYYYYYYYYYYYYYYYYYY",
"YYYYYYYYYYYYYYYYYYYYYYYYYYYYYYYY",
"YYYYYYYYYYYYYYYYYYYYYYYYYYYYYYYY"
};
