/* XPM */
static const char *x100[] = {
/* columns rows colors chars-per-pixel */
"32 32 90 1",
"  c #000100010001",
". c #00C400C400C4",
"X c #01C301C301C3",
"o c #030F030F030F",
"O c #085808580858",
"+ c #089908990899",
"@ c #0A290A290A29",
"# c #0DB00DB00DB0",
"$ c #0EE00EE00EE0",
"% c #112B112B112B",
"& c #145B145B145B",
"* c #159115911591",
"= c #178517851785",
"- c #18FD18FD18FD",
"; c #1CB81CB81CB8",
": c #1E231E231E23",
"> c #1EF31EF31EF3",
", c #212821282128",
"< c #230223022302",
"1 c #27ED27ED27ED",
"2 c #296029602960",
"3 c #309830983098",
"4 c #337533753375",
"5 c #382738273827",
"6 c #38BA38BA38BA",
"7 c #3D583D583D58",
"8 c #3FE43FE43FE4",
"9 c #418D418D418D",
"0 c #42C242C242C2",
"q c #44C644C644C6",
"w c #4A674A674A67",
"e c #57CF57CF57CF",
"r c #585258525852",
"t c #5D815D815D81",
"y c #5E835E835E83",
"u c #5FE75FE75FE7",
"i c #644A644A644A",
"p c #6CD56CD56CD5",
"a c #6E666E666E66",
"s c #705070507050",
"d c #730873087308",
"f c #742C742C742C",
"g c #79B479B479B4",
"h c #7CEB7CEB7CEB",
"j c #7ECE7ECE7ECE",
"k c #7FFF7FFF7FFF",
"l c #804880488048",
"z c #820C820C820C",
"x c #85C585C585C5",
"c c #861B861B861B",
"v c #893589358935",
"b c #8B568B568B56",
"n c #8F118F118F11",
"m c #9BE69BE69BE6",
"M c #9F7A9F7A9F7A",
"N c #A55DA55DA55D",
"B c #A841A841A841",
"V c #ACBAACBAACBA",
"C c #B567B567B567",
"Z c #B8C9B8C9B8C9",
"A c #BC4BBC4BBC4B",
"S c #BE7FBE7FBE7F",
"D c #C41CC41CC41C",
"F c #C7B2C7B2C7B2",
"G c #CCA2CCA2CCA2",
"H c #CE7FCE7FCE7F",
"J c #D653D653D653",
"K c #DBBBDBBBDBBB",
"L c #DE3DDE3DDE3D",
"P c #E11DE11DE11D",
"I c #E1DCE1DCE1DC",
"U c #E3A5E3A5E3A5",
"Y c #E4D1E4D1E4D1",
"T c #E568E568E568",
"R c #E928E928E928",
"E c #EA71EA71EA71",
"W c #EE6BEE6BEE6B",
"Q c #EE84EE84EE84",
"! c #EF6FEF6FEF6F",
"~ c #F12AF12AF12A",
"^ c #F327F327F327",
"/ c #F3E5F3E5F3E5",
"( c #F668F668F668",
") c #F911F911F911",
"_ c #FAC3FAC3FAC3",
"` c #FBFAFBFAFBFA",
"' c #FD22FD22FD22",
"] c #FDF7FDF7FDF7",
"[ c #FF43FF43FF43",
"{ c gray100",
/* pixels */
"{{{{{{{{{{{{{{{{{{{{{{{{{{{{{{{{",
"{{{{{{{{{{{{{{{{{{{{{{{{{{{{{{{{",
"{{{{{{{{{{{{{{{{{{{{{{{{{{{{{{{{",
"{{{{{{{{{{{{{{{{{{{{{{{{{{{{{{{{",
"{{{{{{{{{{{{{{{{{{{~UU`{{{{{{{{{",
"{{{{{{{{{{{{{{{{{{{n-5U{{{{{{{{{",
"{{{{{{{{{{{{{{{{{{{zX>L{{{{{{{{{",
"{{{{{{{{{{{{{{{{{{{hX>U{{{{{{{{{",
"{{{{{{{{{{{{{{{{{{{zX-U{{{{{{{{{",
"{{{{{{{{{{{{{{{{{{{hX>U{{{{{{{{{",
"{{{{{{{{{{{{!AxhmL{zX>L{{{{{{{{{",
"{{{{{{{{{{{D0+XXX1NgX>U{{{{{{{{{",
"{{{{{{{{{{S,XX%>%X-7X>L{{{{{{{{{",
"{{{{{{{{{E5X#gGUFt+XX>U{{{{{{{{{",
"{{{{{{{{{MXOb`{{{(pXX>U{{{{{{{{{",
"{{{{{{{{{eX2E{{{{{K,X>U{{{{{{{{{",
"{{{{{{{{!3Xi{{{{{{{eX>L{{{{{{{{{",
"{{{{{{{{U>Xh{{{{{{{hX>U{{{{{{{{{",
"{{{{{{{{U>Xh{{{{{{{hX>U{{{{{{{{{",
"{{{{{{{{U,Xd{{{{{{{gX>L{{{{{{{{{",
"{{{{{{{{`wX7~{{{{{`wX>U{{{{{{{{{",
"{{{{{{{{{xX+V{{{{{F&X>L{{{{{{{{{",
"{{{{{{{{{G&X,A`{{J0XX>L{{{{{{{{{",
"{{{{{{{{{{zXX&tzi,O>X>U{{{{{{{{{",
"{{{{{{{{{{~d#XXXXOpdX>L{{{{{{{{{",
"{{{{{{{{{{{`Ce1-3x~NqtE{{{{{{{{{",
"{{{{{{{{{{{{{`TU!{{```{{{{{{{{{{",
"{{{{{{{{{{{{{{{{{{{{{{{{{{{{{{{{",
"{{{{{{{{{{{{{{{{{{{{{{{{{{{{{{{{",
"{{{{{{{{{{{{{{{{{{{{{{{{{{{{{{{{",
"{{{{{{{{{{{{{{{{{{{{{{{{{{{{{{{{",
"{{{{{{{{{{{{{{{{{{{{{{{{{{{{{{{{"
};
