/* XPM */
static const char *x101[] = {
/* columns rows colors chars-per-pixel */
"32 32 93 2",
"   c black",
".  c #00DD00DD00DD",
"X  c #01A901A901A9",
"o  c #029602960296",
"O  c #040504050405",
"+  c #080B080B080B",
"@  c #093009300930",
"#  c #0A220A220A22",
"$  c #0B520B520B52",
"%  c #0BF10BF10BF1",
"&  c #0D620D620D62",
"*  c #0E8A0E8A0E8A",
"=  c #0F7E0F7E0F7E",
"-  c #155115511551",
";  c #15D715D715D7",
":  c #16A516A516A5",
">  c #1AC01AC01AC0",
",  c #1C661C661C66",
"<  c #1D621D621D62",
"1  c #1E121E121E12",
"2  c #1ED21ED21ED2",
"3  c #232E232E232E",
"4  c #2A392A392A39",
"5  c #2FA92FA92FA9",
"6  c #338D338D338D",
"7  c #33C633C633C6",
"8  c #38BA38BA38BA",
"9  c #3B7F3B7F3B7F",
"0  c #3F783F783F78",
"q  c #404940494049",
"w  c #425742574257",
"e  c #434343434343",
"r  c #450045004500",
"t  c #46C146C146C1",
"y  c #4D704D704D70",
"u  c #4DD04DD04DD0",
"i  c #534553455345",
"p  c #549454945494",
"a  c #54FA54FA54FA",
"s  c #59BB59BB59BB",
"d  c #64CB64CB64CB",
"f  c #657265726572",
"g  c #66B466B466B4",
"h  c #6AD16AD16AD1",
"j  c #6B2F6B2F6B2F",
"k  c #76CA76CA76CA",
"l  c #7A7C7A7C7A7C",
"z  c #7B5D7B5D7B5D",
"x  c #7C8F7C8F7C8F",
"c  c #7D067D067D06",
"v  c #7FC77FC77FC7",
"b  c #80AA80AA80AA",
"n  c #814281428142",
"m  c #821F821F821F",
"M  c #92D292D292D2",
"N  c #99A999A999A9",
"B  c #9A7E9A7E9A7E",
"V  c #9C299C299C29",
"C  c #AA7FAA7FAA7F",
"Z  c #AB4FAB4FAB4F",
"A  c #ACF1ACF1ACF1",
"S  c #B40BB40BB40B",
"D  c #BDF4BDF4BDF4",
"F  c #C366C366C366",
"G  c #C51DC51DC51D",
"H  c #C919C919C919",
"J  c #C9DCC9DCC9DC",
"K  c #CD17CD17CD17",
"L  c #D02AD02AD02A",
"P  c #D817D817D817",
"I  c #D95FD95FD95F",
"U  c #DD30DD30DD30",
"Y  c #DE54DE54DE54",
"T  c #E121E121E121",
"R  c #E1DEE1DEE1DE",
"E  c #E4C3E4C3E4C3",
"W  c #E569E569E569",
"Q  c #E8FBE8FBE8FB",
"!  c #E9A9E9A9E9A9",
"~  c #EC02EC02EC02",
"^  c #EE6BEE6BEE6B",
"/  c #F172F172F172",
"(  c #F3BEF3BEF3BE",
")  c #F4C9F4C9F4C9",
"_  c #F5EBF5EBF5EB",
"`  c #F6AFF6AFF6AF",
"'  c #F842F842F842",
"]  c #FB18FB18FB18",
"[  c #FC35FC35FC35",
"{  c #FCAFFCAFFCAF",
"}  c #FE12FE12FE12",
"|  c #FF70FF70FF70",
" . c gray100",
/* pixels */
" . . . . . . . . . . . . . . . . . . . . . . . . . . . . . . . .",
" . . . . . . . . . . . . . . . . . . . . . . . . . . . . . . . .",
" . . . . . . . . . . . . . . . . . . . . . . . . . . . . . . . .",
" . . . . . . . . . . . . . . . . . . . . . . . . . . . . . . . .",
" . . . . . . . . . . . . . . . . . . . . . . . . . . . . . . . .",
" . . . . . . . . . . . . . . . . . . . . . . . . . . . . . . . .",
" . . . . . . . . . . . . . . . . . . . . . . . . . . . . . . . .",
" . . . . . . . . . . . . . . . . . . . . . . . . . . . . . . . .",
" . . . . . . . . . . . . . . . . . . . . . . . . . . . . . . . .",
" . . . . . . . . . . . . . . . . . . . . . . . . . . . . . . . .",
" . . . . . . . . . . . .[ I B v v B P _  . . . . . . . . . . . .",
" . . . . . . . . . . .Y d <         : d P  . . . . . . . . . . .",
" . . . . . . . . . .Y q     & < < &     4 K  . . . . . . . . . .",
" . . . . . . . . ._ i   & d D T T F l :   t ~  . . . . . . . . .",
" . . . . . . . . .S # # M [  . . . . .C & O C  . . . . . . . . .",
" . . . . . . . . .d   u _  . . . . . .[ p   s  . . . . . . . . .",
" . . . . . . . .^ 7   0 m v v m v v v m q   7 ^  . . . . . . . .",
" . . . . . . . .T <                         < T  . . . . . . . .",
" . . . . . . . .T <   - < < < < < 3 < < < < 8 T  . . . . . . . .",
" . . . . . . . .W 3   j W T T T T T T T T T W  . . . . . . . . .",
" . . . . . . . .[ t   q _  . . . . . . . .[  . . . . . . . . . .",
" . . . . . . . . .k   # A  . . . . . .( l p B _  . . . . . . . .",
" . . . . . . . . .G >   3 A _  . . .~ v #   v  . . . . . . . . .",
" . . . . . . . . . .m     & q l m d 5     6 T  . . . . . . . . .",
" . . . . . . . . . .^ v :               q G  . . . . . . . . . .",
" . . . . . . . . . . . .H h 8 < < 4 u B ~  . . . . . . . . . . .",
" . . . . . . . . . . . . . .( T T ~ [  . . . . . . . . . . . . .",
" . . . . . . . . . . . . . . . . . . . . . . . . . . . . . . . .",
" . . . . . . . . . . . . . . . . . . . . . . . . . . . . . . . .",
" . . . . . . . . . . . . . . . . . . . . . . . . . . . . . . . .",
" . . . . . . . . . . . . . . . . . . . . . . . . . . . . . . . .",
" . . . . . . . . . . . . . . . . . . . . . . . . . . . . . . . ."
};
