/* XPM */
static const char *x102[] = {
/* columns rows colors chars-per-pixel */
"32 32 46 1",
"  c #000700070007",
". c #00A600A600A6",
"X c #025E025E025E",
"o c #02D602D602D6",
"O c #043704370437",
"+ c #0B020B020B02",
"@ c #158C158C158C",
"# c #16CE16CE16CE",
"$ c #1E231E231E23",
"% c #225122512251",
"& c #2ABE2ABE2ABE",
"* c #398439843984",
"= c #3D933D933D93",
"- c #44C644C644C6",
"; c #4A744A744A74",
": c #4C594C594C59",
"> c #570157015701",
", c #5B845B845B84",
"< c #5E835E835E83",
"1 c #7FFF7FFF7FFF",
"2 c #9C5B9C5B9C5B",
"3 c #A17CA17CA17C",
"4 c #A47BA47BA47B",
"5 c #B28DB28DB28D",
"6 c #B644B644B644",
"7 c #B7D0B7D0B7D0",
"8 c #B89BB89BB89B",
"9 c #BEB5BEB5BEB5",
"0 c #BF9FBF9FBF9F",
"q c #C2D1C2D1C2D1",
"w c #CBD4CBD4CBD4",
"e c #D492D492D492",
"r c #D87ED87ED87E",
"t c #DDDEDDDEDDDE",
"y c #E1DCE1DCE1DC",
"u c #E26AE26AE26A",
"i c #EA73EA73EA73",
"p c #ECF9ECF9ECF9",
"a c #EE2BEE2BEE2B",
"s c #F768F768F768",
"d c #FA52FA52FA52",
"f c #FB00FB00FB00",
"g c #FB91FB91FB91",
"h c #FD1DFD1DFD1D",
"j c #FEC7FEC7FEC7",
"k c gray100",
/* pixels */
"kkkkkkkkkkkkkkkkkkkkkkkkkkkkkkkk",
"kkkkkkkkkkkkkkkkkkkkkkkkkkkkkkkk",
"kkkkkkkkkkkkkkkkkkkkkkkkkkkkkkkk",
"kkkkkkkkkkkkkkkkkkkkkkkkkkkkkkkk",
"kkkkkkkkkkkkkkkkiq68tdkkkkkkkkkk",
"kkkkkkkkkkkkkkk9*+O.=ikkkkkkkkkk",
"kkkkkkkkkkkkkkt&..O.;dkkkkkkkkkk",
"kkkkkkkkkkkkkk2..>56wkkkkkkkkkkk",
"kkkkkkkkkkkkkk2.#ekkkkkkkkkkkkkk",
"kkkkkkkkkkkkkk1.$ykkkkkkkkkkkkkk",
"kkkkkkkkkkkkw8,.#389skkkkkkkkkkk",
"kkkkkkkkkkkd:....O.%ykkkkkkkkkkk",
"kkkkkkkkkkkd;......%ykkkkkkkkkkk",
"kkkkkkkkkkkkw8,.#36qskkkkkkkkkkk",
"kkkkkkkkkkkkkk2.$ykkkkkkkkkkkkkk",
"kkkkkkkkkkkkkk1.$ykkkkkkkkkkkkkk",
"kkkkkkkkkkkkkk1.$ykkkkkkkkkkkkkk",
"kkkkkkkkkkkkkk1.$ykkkkkkkkkkkkkk",
"kkkkkkkkkkkkkk1.$ykkkkkkkkkkkkkk",
"kkkkkkkkkkkkkk1.$ykkkkkkkkkkkkkk",
"kkkkkkkkkkkkkk1.$ykkkkkkkkkkkkkk",
"kkkkkkkkkkkkkk1.$ykkkkkkkkkkkkkk",
"kkkkkkkkkkkkkk1.$ykkkkkkkkkkkkkk",
"kkkkkkkkkkkkkk1.$ykkkkkkkkkkkkkk",
"kkkkkkkkkkkkkk2.$ykkkkkkkkkkkkkk",
"kkkkkkkkkkkkkk3-<ikkkkkkkkkkkkkk",
"kkkkkkkkkkkkkkkddkkkkkkkkkkkkkkk",
"kkkkkkkkkkkkkkkkkkkkkkkkkkkkkkkk",
"kkkkkkkkkkkkkkkkkkkkkkkkkkkkkkkk",
"kkkkkkkkkkkkkkkkkkkkkkkkkkkkkkkk",
"kkkkkkkkkkkkkkkkkkkkkkkkkkkkkkkk",
"kkkkkkkkkkkkkkkkkkkkkkkkkkkkkkkk"
};
