/* XPM */
static const char *x106[] = {
/* columns rows colors chars-per-pixel */
"32 32 41 1",
"  c #001400140014",
". c #01FF01FF01FF",
"X c #04BC04BC04BC",
"o c #07C607C607C6",
"O c #096E096E096E",
"+ c #09AA09AA09AA",
"@ c #102C102C102C",
"# c #1B2D1B2D1B2D",
"$ c #1EFA1EFA1EFA",
"% c #225122512251",
"& c #2F0C2F0C2F0C",
"* c #358735873587",
"= c #3BFA3BFA3BFA",
"- c #433D433D433D",
"; c #4B884B884B88",
": c #4FED4FED4FED",
"> c #5C625C625C62",
", c #811481148114",
"< c #825D825D825D",
"1 c #9AE59AE59AE5",
"2 c #A51DA51DA51D",
"3 c #A759A759A759",
"4 c #ADC3ADC3ADC3",
"5 c #AF2AAF2AAF2A",
"6 c #B708B708B708",
"7 c #B86CB86CB86C",
"8 c #BC13BC13BC13",
"9 c #BF9FBF9FBF9F",
"0 c #D0D5D0D5D0D5",
"q c #DB83DB83DB83",
"w c #DCD1DCD1DCD1",
"e c #E25AE25AE25A",
"r c #E26BE26BE26B",
"t c #EB33EB33EB33",
"y c #F407F407F407",
"u c #F4DDF4DDF4DD",
"i c #F768F768F768",
"p c #F7E4F7E4F7E4",
"a c #FB1AFB1AFB1A",
"s c #FCF1FCF1FCF1",
"d c gray100",
/* pixels */
"dddddddddddddddddddddddddddddddd",
"dddddddddddddddddddddddddddddddd",
"dddddddddddddddddddddddddddddddd",
"dddddddddddddddddddddddddddddddd",
"ddddddddddddddirridddddddddddddd",
"dddddddddddddd9%%9dddddddddddddd",
"dddddddddddddd6XX6dddddddddddddd",
"ddddddddddddddq<<qdddddddddddddd",
"dddddddddddddddddddddddddddddddd",
"dddddddddddddddddddddddddddddddd",
"ddddddddddddddt77tdddddddddddddd",
"dddddddddddddd7++7dddddddddddddd",
"dddddddddddddd6XX6dddddddddddddd",
"dddddddddddddd6XX6dddddddddddddd",
"dddddddddddddd6XX6dddddddddddddd",
"dddddddddddddd6XX6dddddddddddddd",
"dddddddddddddd6XX6dddddddddddddd",
"dddddddddddddd6XX6dddddddddddddd",
"dddddddddddddd6XX6dddddddddddddd",
"dddddddddddddd6XX6dddddddddddddd",
"dddddddddddddd6XX6dddddddddddddd",
"dddddddddddddd6XX6dddddddddddddd",
"dddddddddddddd6XX6dddddddddddddd",
"dddddddddddddd6XX6dddddddddddddd",
"dddddddddddddd6XX6dddddddddddddd",
"dddddddddddddd6XX6dddddddddddddd",
"dddddddddddddd2.+7dddddddddddddd",
"dddddddddddddd<.#wdddddddddddddd",
"dddddddddddaiy>.%rdddddddddddddd",
"ddddddddddd0;=+.-ydddddddddddddd",
"ddddddddddd1...@2ddddddddddddddd",
"ddddddddddd4*&;4addddddddddddddd"
};
