/* XPM */
static const char *x109[] = {
/* columns rows colors chars-per-pixel */
"32 32 77 1",
"  c #000400040004",
". c #00DE00DE00DE",
"X c #01EC01EC01EC",
"o c #02DA02DA02DA",
"O c #04C704C704C7",
"+ c #0A650A650A65",
"@ c #0D110D110D11",
"# c #0E850E850E85",
"$ c #0FC30FC30FC3",
"% c #12DF12DF12DF",
"& c #13E813E813E8",
"* c #15DC15DC15DC",
"= c #16E916E916E9",
"- c #1B5A1B5A1B5A",
"; c #1E221E221E22",
": c #215B215B215B",
"> c #229122912291",
", c #232E232E232E",
"< c #25F125F125F1",
"1 c #306B306B306B",
"2 c #328D328D328D",
"3 c #43EC43EC43EC",
"4 c #44D644D644D6",
"5 c #494E494E494E",
"6 c #4C5A4C5A4C5A",
"7 c #4E5C4E5C4E5C",
"8 c #539C539C539C",
"9 c #58A658A658A6",
"0 c #5E835E835E83",
"q c #5EF25EF25EF2",
"w c #656865686568",
"e c #6F736F736F73",
"r c #744E744E744E",
"t c #74F674F674F6",
"y c #7EAD7EAD7EAD",
"u c #7FFF7FFF7FFF",
"i c #836883688368",
"p c #859385938593",
"a c #8B3D8B3D8B3D",
"s c #8ED68ED68ED6",
"d c #8FAF8FAF8FAF",
"f c #91D291D291D2",
"g c #967096709670",
"h c #99AF99AF99AF",
"j c #9A6F9A6F9A6F",
"k c #9BEF9BEF9BEF",
"l c #A47BA47BA47B",
"z c #B5A8B5A8B5A8",
"x c #B703B703B703",
"c c #B866B866B866",
"v c #BC9ABC9ABC9A",
"b c #BFA2BFA2BFA2",
"n c #C2EDC2EDC2ED",
"m c #CBD4CBD4CBD4",
"M c #CE3FCE3FCE3F",
"N c #CE6CCE6CCE6C",
"B c #D665D665D665",
"V c #DB8DDB8DDB8D",
"C c #DEDBDEDBDEDB",
"Z c #E1E1E1E1E1E1",
"A c #E273E273E273",
"S c #E3A3E3A3E3A3",
"D c #E4D1E4D1E4D1",
"F c #E84CE84CE84C",
"G c #EA73EA73EA73",
"H c #EF28EF28EF28",
"J c #F243F243F243",
"K c #F35CF35CF35C",
"L c #F768F768F768",
"P c #F805F805F805",
"I c #FA1DFA1DFA1D",
"U c #FAF2FAF2FAF2",
"Y c #FBC6FBC6FBC6",
"T c #FD45FD45FD45",
"R c #FD84FD84FD84",
"E c #FF14FF14FF14",
"W c gray100",
/* pixels */
"WWWWWWWWWWWWWWWWWWWWWWWWWWWWWWWW",
"WWWWWWWWWWWWWWWWWWWWWWWWWWWWWWWW",
"WWWWWWWWWWWWWWWWWWWWWWWWWWWWWWWW",
"WWWWWWWWWWWWWWWWWWWWWWWWWWWWWWWW",
"WWWWWWWWWWWWWWWWWWWWWWWWWWWWWWWW",
"WWWWWWWWWWWWWWWWWWWWWWWWWWWWWWWW",
"WWWWWWWWWWWWWWWWWWWWWWWWWWWWWWWW",
"WWWWWWWWWWWWWWWWWWWWWWWWWWWWWWWW",
"WWWWWWWWWWWWWWWWWWWWWWWWWWWWWWWW",
"WWWWWWWWWWWWWWWWWWWWWWWWWWWWWWWW",
"WWWWWLbzVWZkupbIWWWNsufNIWWWWWWW",
"WWWWWZ> pn2   @rJJr$   &gWWWWWWW",
"WWWWWZ; 4< ;-O Ofr +;&  $zWWWWWW",
"WWWWWZ;  >hCCa@ $@6bZBwO wWWWWWW",
"WWWWWZ; &cWWWIq  5HWWWF1 4IWWWWW",
"WWWWWZ; 8IWWWWf  hWWWWW9 >ZWWWWW",
"WWWWWZ; uWWWWWzOOzWWWWWu ;ZWWWWW",
"WWWWWZ; uWWWWWcOOzWWWWWu ;ZWWWWW",
"WWWWWZ; uWWWWWzOOzWWWWWu ;ZWWWWW",
"WWWWWZ; uWWWWWcOOzWWWWWu ;ZWWWWW",
"WWWWWZ; uWWWWWzOOcWWWWWu ;ZWWWWW",
"WWWWWZ; uWWWWWzOOzWWWWWu ;ZWWWWW",
"WWWWWZ; uWWWWWzOOzWWWWWu ;ZWWWWW",
"WWWWWZ; uWWWWWcOOcWWWWWu ;ZWWWWW",
"WWWWWZ; uWWWWWzOOzWWWWWu ;ZWWWWW",
"WWWWWGq4lWWWWWm55mWWWWWl4qGWWWWW",
"WWWWWWIIWWWWWWWIIWWWWWWWIIWWWWWW",
"WWWWWWWWWWWWWWWWWWWWWWWWWWWWWWWW",
"WWWWWWWWWWWWWWWWWWWWWWWWWWWWWWWW",
"WWWWWWWWWWWWWWWWWWWWWWWWWWWWWWWW",
"WWWWWWWWWWWWWWWWWWWWWWWWWWWWWWWW",
"WWWWWWWWWWWWWWWWWWWWWWWWWWWWWWWW"
};
