/* XPM */
static const char *x110[] = {
/* columns rows colors chars-per-pixel */
"32 32 50 1",
"  c #000200020002",
". c #00B800B800B8",
"X c #033703370337",
"o c #047D047D047D",
"O c #0A840A840A84",
"+ c #0FC10FC10FC1",
"@ c #10FD10FD10FD",
"# c #142714271427",
"$ c #168416841684",
"% c #1C881C881C88",
"& c #1E231E231E23",
"* c #1EFC1EFC1EFC",
"= c #229622962296",
"- c #2A582A582A58",
"; c #318031803180",
": c #36AE36AE36AE",
"> c #372F372F372F",
", c #3D583D583D58",
"< c #44C644C644C6",
"1 c #58E458E458E4",
"2 c #5A8E5A8E5A8E",
"3 c #5E835E835E83",
"4 c #705070507050",
"5 c #7E9D7E9D7E9D",
"6 c #7FFF7FFF7FFF",
"7 c #80B380B380B3",
"8 c #9AAA9AAA9AAA",
"9 c #A47BA47BA47B",
"0 c #A7C4A7C4A7C4",
"q c #ABF8ABF8ABF8",
"w c #AC3CAC3CAC3C",
"e c #B4CBB4CBB4CB",
"r c #B57CB57CB57C",
"t c #BF9FBF9FBF9F",
"y c #C7BEC7BEC7BE",
"u c #D588D588D588",
"i c #DB8DDB8DDB8D",
"p c #DDD2DDD2DDD2",
"a c #E1DCE1DCE1DC",
"s c #E273E273E273",
"d c #E3B4E3B4E3B4",
"f c #E8BEE8BEE8BE",
"g c #EA97EA97EA97",
"h c #F327F327F327",
"j c #F768F768F768",
"k c #FADDFADDFADD",
"l c #FB91FB91FB91",
"z c #FD24FD24FD24",
"x c #FF33FF33FF33",
"c c gray100",
/* pixels */
"cccccccccccccccccccccccccccccccc",
"cccccccccccccccccccccccccccccccc",
"cccccccccccccccccccccccccccccccc",
"cccccccccccccccccccccccccccccccc",
"cccccccccccccccccccccccccccccccc",
"cccccccccccccccccccccccccccccccc",
"cccccccccccccccccccccccccccccccc",
"cccccccccccccccccccccccccccccccc",
"cccccccccccccccccccccccccccccccc",
"cccccccccccccccccccccccccccccccc",
"cccccccccjtricgw77qicccccccccccc",
"cccccccccs= 5r>o   =8kcccccccccc",
"cccccccccs% >$ $%+  +rcccccccccc",
"cccccccccs%  %7udy1o 1cccccccccc",
"cccccccccs% Owccccg; -gccccccccc",
"cccccccccs% ,hccccc4 %sccccccccc",
"cccccccccs= 4cccccc5 =sccccccccc",
"cccccccccs% 5cccccc7 %sccccccccc",
"cccccccccs% 7cccccc7 %sccccccccc",
"cccccccccs% 7cccccc5 %sccccccccc",
"cccccccccp% 7cccccc5 %sccccccccc",
"cccccccccs% 5cccccc7 =sccccccccc",
"cccccccccs= 5cccccc7 %sccccccccc",
"cccccccccs% 5cccccc5 %sccccccccc",
"cccccccccs% 7cccccc7 %pccccccccc",
"cccccccccg3<9cccccc9<3gccccccccc",
"cccccccccckkccccccckkccccccccccc",
"cccccccccccccccccccccccccccccccc",
"cccccccccccccccccccccccccccccccc",
"cccccccccccccccccccccccccccccccc",
"cccccccccccccccccccccccccccccccc",
"cccccccccccccccccccccccccccccccc"
};
