/* XPM */
static const char *x114[] = {
/* columns rows colors chars-per-pixel */
"32 32 38 1",
"  c black",
". c #057105710571",
"X c #088008800880",
"o c #08D008D008D0",
"O c #09B409B409B4",
"+ c #123E123E123E",
"@ c #1C051C051C05",
"# c #1D3C1D3C1D3C",
"$ c #236123612361",
"% c #368236823682",
"& c #3CC23CC23CC2",
"* c #42EB42EB42EB",
"= c #48F748F748F7",
"- c #4C8E4C8E4C8E",
"; c #4ED74ED74ED7",
": c #760676067606",
"> c #7A9D7A9D7A9D",
", c #7D597D597D59",
"< c #7F757F757F75",
"1 c #9BDF9BDF9BDF",
"2 c #A512A512A512",
"3 c #ACBDACBDACBD",
"4 c #B3F8B3F8B3F8",
"5 c #B4B8B4B8B4B8",
"6 c #BE45BE45BE45",
"7 c #CBD4CBD4CBD4",
"8 c #DACEDACEDACE",
"9 c #DC0DDC0DDC0D",
"0 c #DD4FDD4FDD4F",
"q c #DD87DD87DD87",
"w c #E1E0E1E0E1E0",
"e c #F3D1F3D1F3D1",
"r c #F6C1F6C1F6C1",
"t c #F781F781F781",
"y c #FAF9FAF9FAF9",
"u c #FC68FC68FC68",
"i c #FEE6FEE6FEE6",
"p c gray100",
/* pixels */
"pppppppppppppppppppppppppppppppp",
"pppppppppppppppppppppppppppppppp",
"pppppppppppppppppppppppppppppppp",
"pppppppppppppppppppppppppppppppp",
"pppppppppppppppppppppppppppppppp",
"pppppppppppppppppppppppppppppppp",
"pppppppppppppppppppppppppppppppp",
"pppppppppppppppppppppppppppppppp",
"pppppppppppppppppppppppppppppppp",
"pppppppppppppppppppppppppppppppp",
"ppppppppppppp759r5,10ppppppppppp",
"ppppppppppppy- ,>o  -rpppppppppp",
"ppppppppppppy= %+o@o:ppppppppppp",
"ppppppppppppy=  $3w69ppppppppppp",
"ppppppppppppy= .2ppppppppppppppp",
"ppppppppppppy= @0ppppppppppppppp",
"ppppppppppppy= &eppppppppppppppp",
"ppppppppppppy= =yppppppppppppppp",
"ppppppppppppy= =yppppppppppppppp",
"ppppppppppppy= =yppppppppppppppp",
"ppppppppppppy= =yppppppppppppppp",
"ppppppppppppy= =yppppppppppppppp",
"ppppppppppppy= =yppppppppppppppp",
"ppppppppppppy= =yppppppppppppppp",
"ppppppppppppy= =yppppppppppppppp",
"ppppppppppppy,*>yppppppppppppppp",
"pppppppppppppyyppppppppppppppppp",
"pppppppppppppppppppppppppppppppp",
"pppppppppppppppppppppppppppppppp",
"pppppppppppppppppppppppppppppppp",
"pppppppppppppppppppppppppppppppp",
"pppppppppppppppppppppppppppppppp"
};
