/* XPM */
static const char *x116[] = {
/* columns rows colors chars-per-pixel */
"32 32 41 1",
"  c black",
". c #011C011C011C",
"X c #045B045B045B",
"o c #04A404A404A4",
"O c #089808980898",
"+ c #1BF61BF61BF6",
"@ c #1D611D611D61",
"# c #335C335C335C",
"$ c #342B342B342B",
"% c #3C173C173C17",
"& c #48F748F748F7",
"* c #515D515D515D",
"= c #523652365236",
"- c #58A658A658A6",
"; c #58F558F558F5",
": c #5C625C625C62",
"> c #6F676F676F67",
", c #720172017201",
"< c #7F6B7F6B7F6B",
"1 c #825F825F825F",
"2 c #864886488648",
"3 c #9FF89FF89FF8",
"4 c #B255B255B255",
"5 c #B371B371B371",
"6 c #B620B620B620",
"7 c #BFFFBFFFBFFF",
"8 c #CC9FCC9FCC9F",
"9 c #D021D021D021",
"0 c #DB9EDB9EDB9E",
"q c #E1DCE1DCE1DC",
"w c #EE84EE84EE84",
"e c #F20CF20CF20C",
"r c #F435F435F435",
"t c #F530F530F530",
"y c #FA70FA70FA70",
"u c gray98",
"i c #FBF4FBF4FBF4",
"p c #FD4AFD4AFD4A",
"a c #FD84FD84FD84",
"s c #FEF2FEF2FEF2",
"d c gray100",
/* pixels */
"dddddddddddddddddddddddddddddddd",
"dddddddddddddddddddddddddddddddd",
"dddddddddddddddddddddddddddddddd",
"dddddddddddddddddddddddddddddddd",
"dddddddddddddddddddddddddddddddd",
"dddddddddddddddr9udddddddddddddd",
"dddddddddddddd9-*udddddddddddddd",
"dddddddddddddu*.&udddddddddddddd",
"dddddddddddddu&.&udddddddddddddd",
"dddddddddddddu&.&udddddddddddddd",
"dddddddddddd04#.#460dddddddddddd",
"dddddddddddd1....X.1dddddddddddd",
"dddddddddddd1....X.1dddddddddddd",
"dddddddddddd04#.$460dddddddddddd",
"dddddddddddddu&.&udddddddddddddd",
"dddddddddddddu&.&udddddddddddddd",
"dddddddddddddu&.&udddddddddddddd",
"dddddddddddddu&.&udddddddddddddd",
"dddddddddddddu&.&udddddddddddddd",
"dddddddddddddu&.&udddddddddddddd",
"dddddddddddddu&.&udddddddddddddd",
"dddddddddddddu&.&udddddddddddddd",
"dddddddddddddu&.%rdddddddddddddd",
"dddddddddddddu-.O:<7dddddddddddd",
"dddddddddddddd3....>dddddddddddd",
"ddddddddddddddr2#@+,uddddddddddd",
"ddddddddddddddddwqqtdddddddddddd",
"dddddddddddddddddddddddddddddddd",
"dddddddddddddddddddddddddddddddd",
"dddddddddddddddddddddddddddddddd",
"dddddddddddddddddddddddddddddddd",
"dddddddddddddddddddddddddddddddd"
};
