/* XPM */
static const char *x121[] = {
/* columns rows colors chars-per-pixel */
"32 32 81 1",
"  c #000600060006",
". c #010001000100",
"X c #025502550255",
"o c #037E037E037E",
"O c #052305230523",
"+ c #07F707F707F7",
"@ c #0A1B0A1B0A1B",
"# c #0AF50AF50AF5",
"$ c #0BF90BF90BF9",
"% c #0C960C960C96",
"& c #113211321132",
"* c #122B122B122B",
"= c #14E814E814E8",
"- c #1BF51BF51BF5",
"; c #232723272327",
": c #251825182518",
"> c #276227622762",
", c #287828782878",
"< c #2DEB2DEB2DEB",
"1 c #31AB31AB31AB",
"2 c #342334233423",
"3 c #3CAA3CAA3CAA",
"4 c #416241624162",
"5 c #42BE42BE42BE",
"6 c #433D433D433D",
"7 c #452A452A452A",
"8 c #4B634B634B63",
"9 c #4C724C724C72",
"0 c #4D864D864D86",
"q c #539C539C539C",
"w c #54B054B054B0",
"e c #557855785578",
"r c #5A005A005A00",
"t c #608560856085",
"y c #64B864B864B8",
"u c #6A1F6A1F6A1F",
"i c #75F375F375F3",
"p c #76CA76CA76CA",
"a c #77C377C377C3",
"s c #88C688C688C6",
"d c #893589358935",
"f c #8A0C8A0C8A0C",
"g c #8C1E8C1E8C1E",
"h c #953095309530",
"j c #9B469B469B46",
"k c #9EAC9EAC9EAC",
"l c #9F4A9F4A9F4A",
"z c #A072A072A072",
"x c #A70CA70CA70C",
"c c #AB4FAB4FAB4F",
"v c #AC81AC81AC81",
"b c #B528B528B528",
"n c #B565B565B565",
"m c #BCBBBCBBBCBB",
"M c #BD41BD41BD41",
"N c #BFA0BFA0BFA0",
"B c #C453C453C453",
"V c #C682C682C682",
"C c #C7F4C7F4C7F4",
"Z c #CBCBCBCBCBCB",
"A c #D166D166D166",
"S c #D56CD56CD56C",
"D c #D787D787D787",
"F c #D892D892D892",
"G c #DAE4DAE4DAE4",
"H c #DCCFDCCFDCCF",
"J c #E405E405E405",
"K c #E98DE98DE98D",
"L c #EBECEBECEBEC",
"P c #EDC0EDC0EDC0",
"I c #F25DF25DF25D",
"U c #F3EDF3EDF3ED",
"Y c #F4DDF4DDF4DD",
"T c #F631F631F631",
"R c #F768F768F768",
"E c #F804F804F804",
"W c #FAADFAADFAAD",
"Q c #FC7BFC7BFC7B",
"! c #FCE2FCE2FCE2",
"~ c #FEF4FEF4FEF4",
"^ c gray100",
/* pixels */
"^^^^^^^^^^^^^^^^^^^^^^^^^^^^^^^^",
"^^^^^^^^^^^^^^^^^^^^^^^^^^^^^^^^",
"^^^^^^^^^^^^^^^^^^^^^^^^^^^^^^^^",
"^^^^^^^^^^^^^^^^^^^^^^^^^^^^^^^^",
"^^^^^^^^^^^^^^^^^^^^^^^^^^^^^^^^",
"^^^^^^^^^^^^^^^^^^^^^^^^^^^^^^^^",
"^^^^^^^^^^^^^^^^^^^^^^^^^^^^^^^^",
"^^^^^^^^^^^^^^^^^^^^^^^^^^^^^^^^",
"^^^^^^^^^^^^^^^^^^^^^^^^^^^^^^^^",
"^^^^^^^^^^^^^^^^^^^^^^^^^^^^^^^^",
"^^^^^^^^^AbNT^^^^^^INbF^^^^^^^^^",
"^^^^^^^^^gX=B^^^^^^c@Ok^^^^^^^^^",
"^^^^^^^^^Z&Xi^^^^^^yX-D^^^^^^^^^",
"^^^^^^^^^T8X2P^^^^J>XwW^^^^^^^^^",
"^^^^^^^^^^jX@m^^^^cOOc^^^^^^^^^^",
"^^^^^^^^^^H;Xu^^^^rX>J^^^^^^^^^^",
"^^^^^^^^^^^yX>J^^F-Xy^^^^^^^^^^^",
"^^^^^^^^^^^cOOv^^jXOc^^^^^^^^^^^",
"^^^^^^^^^^^K2XyWWqX>J^^^^^^^^^^^",
"^^^^^^^^^^^^iX-FF-Xi^^^^^^^^^^^^",
"^^^^^^^^^^^^B&XkkX@m^^^^^^^^^^^^",
"^^^^^^^^^^^^I5Xr8X2L^^^^^^^^^^^^",
"^^^^^^^^^^^^^dX@OXi^^^^^^^^^^^^^",
"^^^^^^^^^^^^^D-XX@N^^^^^^^^^^^^^",
"^^^^^^^^^^^^^WqXX5I^^^^^^^^^^^^^",
"^^^^^^^^^^^^^^kXXd^^^^^^^^^^^^^^",
"^^^^^^^^^^^^^^iX&Z^^^^^^^^^^^^^^",
"^^^^^^^^^^^^^L2X9T^^^^^^^^^^^^^^",
"^^^^^^^^^^ITTsXOc^^^^^^^^^^^^^^^",
"^^^^^^^^^^h53@X5L^^^^^^^^^^^^^^^",
"^^^^^^^^^^xXXX>B^^^^^^^^^^^^^^^^",
"^^^^^^^^^^D7<qB^^^^^^^^^^^^^^^^^"
};
