/* XPM */
static const char *x124[] = {
"32 32 23 1",
" 	c None",
".	c #FFFFFF",
"+	c #CCCCCC",
"@	c #8C8C8C",
"#	c #B3B3B3",
"$	c #F3F3F3",
"%	c #3C3C3C",
"&	c #010101",
"*	c #141414",
"=	c #C4C4C4",
"-	c #0B0B0B",
";	c #000000",
">	c #9E9E9E",
",	c #0E0E0E",
"'	c #9F9F9F",
")	c #121212",
"!	c #A7A7A7",
"~	c #1E1E1E",
"{	c #B9B9B9",
"]	c #989898",
"^	c #191919",
"/	c #666666",
"(	c #E6E6E6",
"................................",
"..............+@#$..............",
"..............%&*=..............",
"..............-;;>..............",
"..............,;;'..............",
"..............);;!..............",
"..............);;!..............",
"..............);;!..............",
"..............);;!..............",
"..............);;!..............",
"..............);;!..............",
"..............);;!..............",
"..............);;!..............",
"..............);;!..............",
"..............);;!..............",
"..............);;!..............",
"..............);;!..............",
"..............);;!..............",
"..............);;!..............",
"..............);;!..............",
"..............);;!..............",
"..............);;!..............",
"..............);;!..............",
"..............);;!..............",
"..............);;!..............",
"..............);;!..............",
"..............);;!..............",
"..............);;!..............",
"..............);;!..............",
"..............~;;{..............",
"..............]^/(..............",
"................................"};
