/* XPM */
static const char *x125[] = {
/* columns rows colors chars-per-pixel */
"32 32 68 1",
"  c #000400040004",
". c #00FE00FE00FE",
"X c #01B901B901B9",
"o c #02D802D802D8",
"O c #072007200720",
"+ c #090509050905",
"@ c #099B099B099B",
"# c #0BCD0BCD0BCD",
"$ c #0EA80EA80EA8",
"% c #125712571257",
"& c #16FB16FB16FB",
"* c #1B491B491B49",
"= c #1C6D1C6D1C6D",
"- c #1E171E171E17",
"; c #229822982298",
": c #244224422442",
"> c #271B271B271B",
", c #2A582A582A58",
"< c #2C9E2C9E2C9E",
"1 c #2CE82CE82CE8",
"2 c #31DD31DD31DD",
"3 c #35EA35EA35EA",
"4 c #36CC36CC36CC",
"5 c #45CC45CC45CC",
"6 c #498E498E498E",
"7 c #4E9A4E9A4E9A",
"8 c #5F985F985F98",
"9 c #61C161C161C1",
"0 c #6A1F6A1F6A1F",
"q c #6F796F796F79",
"w c #79A879A879A8",
"e c #7FEC7FEC7FEC",
"r c #811481148114",
"t c #825E825E825E",
"y c #87F287F287F2",
"u c #897089708970",
"i c #934893489348",
"p c #986E986E986E",
"a c #9A559A559A55",
"s c #9C5B9C5B9C5B",
"d c #A1E9A1E9A1E9",
"f c #A487A487A487",
"g c #A71BA71BA71B",
"h c #A759A759A759",
"j c #ACECACECACEC",
"k c #B578B578B578",
"l c #BBA7BBA7BBA7",
"z c #C229C229C229",
"x c #CCF0CCF0CCF0",
"c c #CE85CE85CE85",
"v c #D4DFD4DFD4DF",
"b c #D5A7D5A7D5A7",
"n c #D80BD80BD80B",
"m c #DB8BDB8BDB8B",
"M c #DCFCDCFCDCFC",
"N c #E027E027E027",
"B c #E105E105E105",
"V c #E1D8E1D8E1D8",
"C c #E413E413E413",
"Z c #E599E599E599",
"A c #E8FCE8FCE8FC",
"S c #F15AF15AF15A",
"D c #F850F850F850",
"F c #FB97FB97FB97",
"G c #FCC7FCC7FCC7",
"H c #FDCEFDCEFDCE",
"J c #FEFAFEFAFEFA",
"K c gray100",
/* pixels */
"KKKKKKKKKKKKKKKKKKKKKKKKKKKKKKKK",
"KKKKKKKKKKKKKKKKKKKKKKKKKKKKKKKK",
"KKKKKKKKKKKKKKKKKKKKKKKKKKKKKKKK",
"KKKKKKKKKKKKKKKKKKKKKKKKKKKKKKKK",
"KKKKKKKKKKKmklVKKKKKKKKKKKKKKKKK",
"KKKKKKKKKKKrXO>iDKKKKKKKKKKKKKKK",
"KKKKKKKKKKKrXXX+dKKKKKKKKKKKKKKK",
"KKKKKKKKKKKmky*X7FKKKKKKKKKKKKKK",
"KKKKKKKKKKKKKKqX,AKKKKKKKKKKKKKK",
"KKKKKKKKKKKKKKeX-VKKKKKKKKKKKKKK",
"KKKKKKKKKKKKKKeX-VKKKKKKKKKKKKKK",
"KKKKKKKKKKKKKKeX-VKKKKKKKKKKKKKK",
"KKKKKKKKKKKKKKeX-VKKKKKKKKKKKKKK",
"KKKKKKKKKKKKKKrX-VKKKKKKKKKKKKKK",
"KKKKKKKKKKKKKKhX+zKKKKKKKKKKKKKK",
"KKKKKKKKKKKKKKx%XeKKKKKKKKKKKKKK",
"KKKKKKKKKKKKKKD8X*pVKKKKKKKKKKKK",
"KKKKKKKKKKKKKKKN9+X3ZKKKKKKKKKKK",
"KKKKKKKKKKKKKKKFj-X-VKKKKKKKKKKK",
"KKKKKKKKKKKKKKKa#X3uSKKKKKKKKKKK",
"KKKKKKKKKKKKKKm>X6AKKKKKKKKKKKKK",
"KKKKKKKKKKKKKKaXXhKKKKKKKKKKKKKK",
"KKKKKKKKKKKKKKeX&vKKKKKKKKKKKKKK",
"KKKKKKKKKKKKKKeX-VKKKKKKKKKKKKKK",
"KKKKKKKKKKKKKKeX-VKKKKKKKKKKKKKK",
"KKKKKKKKKKKKKKeX-NKKKKKKKKKKKKKK",
"KKKKKKKKKKKKKKeX-VKKKKKKKKKKKKKK",
"KKKKKKKKKKKKKKwX-VKKKKKKKKKKKKKK",
"KKKKKKKKKKKKFv2X,ZKKKKKKKKKKKKKK",
"KKKKKKKKKKKd5;XX0KKKKKKKKKKKKKKK",
"KKKKKKKKKKKeXXX,xKKKKKKKKKKKKKKK",
"KKKKKKKKKKKp<3wmKKKKKKKKKKKKKKKK"
};
