/* XPM */
static const char *x126[] = {
/* columns rows colors chars-per-pixel */
"32 32 58 1",
"  c #000500050005",
". c #011701170117",
"X c #025002500250",
"o c #047404740474",
"O c #04FD04FD04FD",
"+ c #058605860586",
"@ c #08FD08FD08FD",
"# c #0B960B960B96",
"$ c #110A110A110A",
"% c #14C514C514C5",
"& c #1C471C471C47",
"* c #1E1A1E1A1E1A",
"= c #1ED31ED31ED3",
"- c #236223622362",
"; c #312031203120",
": c #31DD31DD31DD",
"> c #436543654365",
", c #475047504750",
"< c #48B648B648B6",
"1 c #57B457B457B4",
"2 c #5AC35AC35AC3",
"3 c #5E4C5E4C5E4C",
"4 c #65A165A165A1",
"5 c #6F626F626F62",
"6 c #75B875B875B8",
"7 c #7FEA7FEA7FEA",
"8 c #8A468A468A46",
"9 c #8EF18EF18EF1",
"0 c #963396339633",
"q c #9ADB9ADB9ADB",
"w c #9F5E9F5E9F5E",
"e c #ABECABECABEC",
"r c #B616B616B616",
"t c #B6B5B6B5B6B5",
"y c #B7B9B7B9B7B9",
"u c #BA28BA28BA28",
"i c #BDEDBDEDBDED",
"p c #C7C2C7C2C7C2",
"a c #CA64CA64CA64",
"s c #CBC8CBC8CBC8",
"d c #CE22CE22CE22",
"f c #D3C7D3C7D3C7",
"g c #DC10DC10DC10",
"h c #DCEDDCEDDCED",
"j c #DDCFDDCFDDCF",
"k c #DFACDFACDFAC",
"l c #E25EE25EE25E",
"z c #E29AE29AE29A",
"x c #E4BFE4BFE4BF",
"c c #EBB7EBB7EBB7",
"v c #F0A8F0A8F0A8",
"b c #F1AAF1AAF1AA",
"n c #F2B7F2B7F2B7",
"m c #F70AF70AF70A",
"M c #FAFEFAFEFAFE",
"N c #FC01FC01FC01",
"B c #FED5FED5FED5",
"V c gray100",
/* pixels */
"VVVVVVVVVVVVVVVVVVVVVVVVVVVVVVVV",
"VVVVVVVVVVVVVVVVVVVVVVVVVVVVVVVV",
"VVVVVVVVVVVVVVVVVVVVVVVVVVVVVVVV",
"VVVVVVVVVVVVVVVVVVVVVVVVVVVVVVVV",
"VVVVVVVVVVVVVVVVVVVVVVVVVVVVVVVV",
"VVVVVVVVVVVVVVVVVVVVVVVVVVVVVVVV",
"VVVVVVVVVVVVVVVVVVVVVVVVVVVVVVVV",
"VVVVVVVVVVVVVVVVVVVVVVVVVVVVVVVV",
"VVVVVVVVVVVVVVVVVVVVVVVVVVVVVVVV",
"VVVVVVVVVVVVVVVVVVVVVVVVVVVVVVVV",
"VVVVVVVVVVVVVVVVVVVVVVVVVVVVVVVV",
"VVVVVVVVVVVVVVVVVVVVVVVVVVVVVVVV",
"VVVVVVVVVVVVMMVVVVVVVVVVVVVVVVVV",
"VVVVVVVVVVd6<1qkVVVVVVklVVVVVVVV",
"VVVVVVVVVw*    -7lVVVg,yVVVVVVVV",
"VVVVVVVVf* $*#   ;8y0;OyVVVVVVVV",
"VVVVVVVVy#2pli4%   O  ,lVVVVVVVV",
"VVVVVVVVy5bVVVMa3$   ,kVVVVVVVVV",
"VVVVVVVVcbVVVVVVma07ecVVVVVVVVVV",
"VVVVVVVVVVVVVVVVVVVVVVVVVVVVVVVV",
"VVVVVVVVVVVVVVVVVVVVVVVVVVVVVVVV",
"VVVVVVVVVVVVVVVVVVVVVVVVVVVVVVVV",
"VVVVVVVVVVVVVVVVVVVVVVVVVVVVVVVV",
"VVVVVVVVVVVVVVVVVVVVVVVVVVVVVVVV",
"VVVVVVVVVVVVVVVVVVVVVVVVVVVVVVVV",
"VVVVVVVVVVVVVVVVVVVVVVVVVVVVVVVV",
"VVVVVVVVVVVVVVVVVVVVVVVVVVVVVVVV",
"VVVVVVVVVVVVVVVVVVVVVVVVVVVVVVVV",
"VVVVVVVVVVVVVVVVVVVVVVVVVVVVVVVV",
"VVVVVVVVVVVVVVVVVVVVVVVVVVVVVVVV",
"VVVVVVVVVVVVVVVVVVVVVVVVVVVVVVVV",
"VVVVVVVVVVVVVVVVVVVVVVVVVVVVVVVV"
};
