/* XPM */
static const char *x128[] = {
/* columns rows colors chars-per-pixel */
"32 32 103 2",
"   c #000500050005",
".  c #00ED00ED00ED",
"X  c #022A022A022A",
"o  c #034903490349",
"O  c #042304230423",
"+  c #04DC04DC04DC",
"@  c #0A480A480A48",
"#  c #0BB50BB50BB5",
"$  c #102610261026",
"%  c #10BA10BA10BA",
"&  c #125212521252",
"*  c #12CA12CA12CA",
"=  c #153115311531",
"-  c #15A715A715A7",
";  c #1B771B771B77",
":  c #1C0C1C0C1C0C",
">  c #1D6E1D6E1D6E",
",  c #1EB11EB11EB1",
"<  c #200F200F200F",
"1  c #216F216F216F",
"2  c #21B321B321B3",
"3  c #231823182318",
"4  c #296F296F296F",
"5  c #29E029E029E0",
"6  c #2DDD2DDD2DDD",
"7  c #2FD62FD62FD6",
"8  c #323432343234",
"9  c #345434543454",
"0  c #412841284128",
"q  c #425742574257",
"w  c #433D433D433D",
"e  c #43C843C843C8",
"r  c #470047004700",
"t  c #48A548A548A5",
"y  c #49D749D749D7",
"u  c #4DA64DA64DA6",
"i  c #4F434F434F43",
"p  c #50CE50CE50CE",
"a  c #518C518C518C",
"s  c #52C352C352C3",
"d  c #566956695669",
"f  c #5B9B5B9B5B9B",
"g  c #5EB85EB85EB8",
"h  c #5F495F495F49",
"j  c #635A635A635A",
"k  c #645764576457",
"l  c #655365536553",
"z  c #6A5D6A5D6A5D",
"x  c #7FCC7FCC7FCC",
"c  c #80D580D580D5",
"v  c #831183118311",
"b  c #84B184B184B1",
"n  c #850985098509",
"m  c #89AC89AC89AC",
"M  c #914691469146",
"N  c #983898389838",
"B  c #994899489948",
"V  c #9AAB9AAB9AAB",
"C  c #9CAE9CAE9CAE",
"Z  c #A312A312A312",
"A  c #A60AA60AA60A",
"S  c #B4DAB4DAB4DA",
"D  c #B617B617B617",
"F  c #B6C4B6C4B6C4",
"G  c #B776B776B776",
"H  c #B9FAB9FAB9FA",
"J  c #BA94BA94BA94",
"K  c #BDA6BDA6BDA6",
"L  c #BF9FBF9FBF9F",
"P  c #C30BC30BC30B",
"I  c #C80AC80AC80A",
"U  c #C8DFC8DFC8DF",
"Y  c #C94FC94FC94F",
"T  c #CBE5CBE5CBE5",
"R  c #CD61CD61CD61",
"E  c #D0D6D0D6D0D6",
"W  c #D2B3D2B3D2B3",
"Q  c #D54BD54BD54B",
"!  c #DC3BDC3BDC3B",
"~  c #DD36DD36DD36",
"^  c #DEBCDEBCDEBC",
"/  c #E17EE17EE17E",
"(  c #E286E286E286",
")  c #E3E6E3E6E3E6",
"_  c #E8F5E8F5E8F5",
"`  c #E9DDE9DDE9DD",
"'  c #EA83EA83EA83",
"]  c #EC1FEC1FEC1F",
"[  c #ED66ED66ED66",
"{  c #EE97EE97EE97",
"}  c #F13DF13DF13D",
"|  c #F1F3F1F3F1F3",
" . c #F4DDF4DDF4DD",
".. c #F666F666F666",
"X. c #F701F701F701",
"o. c #F7F6F7F6F7F6",
"O. c #FA39FA39FA39",
"+. c #FB02FB02FB02",
"@. c #FBCAFBCAFBCA",
"#. c #FCFEFCFEFCFE",
"$. c #FE33FE33FE33",
"%. c #FF20FF20FF20",
"&. c gray100",
/* pixels */
"&.&.&.&.&.&.&.&.&.&.&.&.&.&.&.&.&.&.&.&.&.&.&.&.&.&.&.&.&.&.&.&.",
"&.&.&.&.&.&.&.&.&.&.&.&.&.&.&.&.&.&.&.&.&.&.&.&.&.&.&.&.&.&.&.&.",
"&.&.&.&.&.&.&.&.&.&.&.&.&.&.&.&.&.&.&.&.&.&.&.&.&.&.&.&.&.&.&.&.",
"&.&.&.&.&.&.&.&.&.&.&.&.&.&.&.&.&.&.&.&.&.&.&.&.&.&.&.&.&.&.&.&.",
"&.&.&.&.&.&.&.&.&.&.&.&.&.&.&.&._ Y G G P ) O.&.&.&.&.&.&.&.&.&.",
"&.&.&.&.&.&.&.&.&.&.&.&.&. .S j 4 & O O @ 1 l Q &.&.&.&.&.&.&.&.",
"&.&.&.&.&.&.&.&.&.&.&.&.^ g @       O O       M &.&.&.&.&.&.&.&.",
"&.&.&.&.&.&.&.&.&.&.&.^ w     - g C J G C p > J &.&.&.&.&.&.&.&.",
"&.&.&.&.&.&.&.&.&.&.} p     w I O.&.&.&.&.O.R ' &.&.&.&.&.&.&.&.",
"&.&.&.&.&.&.&.&.&.&.V O   w ! &.&.&.&.&.&.&.&.&.&.&.&.&.&.&.&.&.",
"&.&.&.&.&.&.&.&.&. .w   - Y &.&.&.&.&.&.&.&.&.&.&.&.&.&.&.&.&.&.",
"&.&.&.&.&.&.&.&.&.Y &   p  .O.O.O.O.O.O.O.O.&.&.&.&.&.&.&.&.&.&.",
"&.&.&.&.&.&.&.' g 8     3 y y y y y y y r j [ &.&.&.&.&.&.&.&.&.",
"&.&.&.&.&.&.&.R &                         w  .&.&.&.&.&.&.&.&.&.",
"&.&.&.&.&.&.&.' J f   O n J G G G G G G G Y &.&.&.&.&.&.&.&.&.&.",
"&.&.&.&.&.&.&.&.&.x   O G &.&.&.&.&.&.&.&.&.&.&.&.&.&.&.&.&.&.&.",
"&.&.&.&.&.&.&.' j 3     9 y y y r y y r u E &.&.&.&.&.&.&.&.&.&.",
"&.&.&.&.&.&.&.R &                       ; ^ &.&.&.&.&.&.&.&.&.&.",
"&.&.&.&.&.&.&.' J V #   w G G G G G G G K  .&.&.&.&.&.&.&.&.&.&.",
"&.&.&.&.&.&.&.&.&.[ 9   8 ' &.&.&.&.&.&.&.&.&.&.&.&.&.&.&.&.&.&.",
"&.&.&.&.&.&.&.&.&.&.x   O V &.&.&.&.&.&.&.&.&.&.&.&.&.&.&.&.&.&.",
"&.&.&.&.&.&.&.&.&.&.E >   1 K &.&.&.&.&.&.&.&.&.&.&.&.&.&.&.&.&.",
"&.&.&.&.&.&.&.&.&.&.&.n O   1 V ' &.&.&.&._ A ' &.&.&.&.&.&.&.&.",
"&.&.&.&.&.&.&.&.&.&.&.} z     O 6 l x c l 6 1 ) &.&.&.&.&.&.&.&.",
"&.&.&.&.&.&.&.&.&.&.&.&.} n 1               1 ) &.&.&.&.&.&.&.&.",
"&.&.&.&.&.&.&.&.&.&.&.&.&.&.! m u 4 > > 4 d Z  .&.&.&.&.&.&.&.&.",
"&.&.&.&.&.&.&.&.&.&.&.&.&.&.&.&.O.' ) ^ ' O.&.&.&.&.&.&.&.&.&.&.",
"&.&.&.&.&.&.&.&.&.&.&.&.&.&.&.&.&.&.&.&.&.&.&.&.&.&.&.&.&.&.&.&.",
"&.&.&.&.&.&.&.&.&.&.&.&.&.&.&.&.&.&.&.&.&.&.&.&.&.&.&.&.&.&.&.&.",
"&.&.&.&.&.&.&.&.&.&.&.&.&.&.&.&.&.&.&.&.&.&.&.&.&.&.&.&.&.&.&.&.",
"&.&.&.&.&.&.&.&.&.&.&.&.&.&.&.&.&.&.&.&.&.&.&.&.&.&.&.&.&.&.&.&.",
"&.&.&.&.&.&.&.&.&.&.&.&.&.&.&.&.&.&.&.&.&.&.&.&.&.&.&.&.&.&.&.&."
};
