/* XPM */
static const char *x139[] = {
/* columns rows colors chars-per-pixel */
"32 32 57 1",
"  c #000100010001",
". c #014901490149",
"X c #01BD01BD01BD",
"o c gray1",
"O c #073607360736",
"+ c #088E088E088E",
"@ c #098F098F098F",
"# c #0B360B360B36",
"$ c #0CAD0CAD0CAD",
"% c #136813681368",
"& c #164216421642",
"* c #1D7A1D7A1D7A",
"= c #224F224F224F",
"- c #285628562856",
"; c #2BEB2BEB2BEB",
": c #327032703270",
"> c #37E937E937E9",
", c #415341534153",
"< c #43AE43AE43AE",
"1 c #4A984A984A98",
"2 c #526552655265",
"3 c #5E415E415E41",
"4 c #664266426642",
"5 c #6FF76FF76FF7",
"6 c #7C4E7C4E7C4E",
"7 c #7FE37FE37FE3",
"8 c #83CA83CA83CA",
"9 c #85D285D285D2",
"0 c #900890089008",
"q c #99BB99BB99BB",
"w c #A1BCA1BCA1BC",
"e c #AD91AD91AD91",
"r c #AF1EAF1EAF1E",
"t c #B26FB26FB26F",
"y c #B4EEB4EEB4EE",
"u c #B678B678B678",
"i c #BEA3BEA3BEA3",
"p c #C4C9C4C9C4C9",
"a c #C805C805C805",
"s c #CD4DCD4DCD4D",
"d c #D434D434D434",
"f c #D4EFD4EFD4EF",
"g c #D761D761D761",
"h c #DCB4DCB4DCB4",
"j c #E209E209E209",
"k c #E95AE95AE95A",
"l c #EBECEBECEBEC",
"z c #F152F152F152",
"x c #F5EBF5EBF5EB",
"c c #F779F779F779",
"v c #F9C6F9C6F9C6",
"b c #FAB5FAB5FAB5",
"n c #FBA1FBA1FBA1",
"m c #FC87FC87FC87",
"M c #FDDBFDDBFDDB",
"N c #FEF8FEF8FEF8",
"B c gray100",
/* pixels */
"BBBBBBBBBBBBBBBBBBBBBBBBBBBBBBBB",
"BBBBBBBBBBBBBBBBBBBBBBBBBBBBBBBB",
"BBBBBBBBBBBBBBBBBBBBBBBBBBBBBBBB",
"BBBBBBBBBBBBBBBBBBBBBBBBBBBBBBBB",
"BBBBBBBBBBBBBBBBBBBBBBBBBBBBBBBB",
"BBBBBBBBBBBBBBBBBBBBBBBBBBBBBBBB",
"BBBBBBBBBBBBBBBBBBBBBBBBBBBBBBBB",
"BBBBBBBBBBBBBBBBBBBBBBBBBBBBBBBB",
"BBBBBBBBBBBBBBBBBBBBBBBBBBBBBBBB",
"BBBBBBBBBBBBBBBBBBBBBBBBBBBBBBBB",
"BBBBBBBBBBBBBBBBBBBBBBBBBBBBBBBB",
"BBBBBBBBBBBBBBBBdtpvBBBBBBBBBBBB",
"BBBBBBBBBBBBBBBh; 8BBBBBBBBBBBBB",
"BBBBBBBBBBBBBBB5 :hBBBBBBBBBBBBB",
"BBBBBBBBBBBBBBi%OwBBBBBBBBBBBBBB",
"BBBBBBBBBBBBBl, 3cBBBBBBBBBBBBBB",
"BBBBBBBBBBBBB0 *sBBBBBBBBBBBBBBB",
"BBBBBBBBBBBBg= 9BBBBBBBBBBBBBBBB",
"BBBBBBBBBBBBe+$uBBBBBBBBBBBBBBBB",
"BBBBBBBBBBBBc2 1zBBBBBBBBBBBBBBB",
"BBBBBBBBBBBBBa& qBBBBBBBBBBBBBBB",
"BBBBBBBBBBBBBv8 ;gBBBBBBBBBBBBBB",
"BBBBBBBBBBBBBBl> 4vBBBBBBBBBBBBB",
"BBBBBBBBBBBBBBBe+$tBBBBBBBBBBBBB",
"BBBBBBBBBBBBBBBc6,8vBBBBBBBBBBBB",
"BBBBBBBBBBBBBBBBBvvBBBBBBBBBBBBB",
"BBBBBBBBBBBBBBBBBBBBBBBBBBBBBBBB",
"BBBBBBBBBBBBBBBBBBBBBBBBBBBBBBBB",
"BBBBBBBBBBBBBBBBBBBBBBBBBBBBBBBB",
"BBBBBBBBBBBBBBBBBBBBBBBBBBBBBBBB",
"BBBBBBBBBBBBBBBBBBBBBBBBBBBBBBBB",
"BBBBBBBBBBBBBBBBBBBBBBBBBBBBBBBB"
};
