/* XPM */
static const char *x148[] = {
/* columns rows colors chars-per-pixel */
"32 32 30 1",
"  c black",
". c #189718971897",
"X c #1E3E1E3E1E3E",
"o c #218E218E218E",
"O c #224522452245",
"+ c #457645764576",
"@ c #516851685168",
"# c #7EC47EC47EC4",
"$ c #826782678267",
"% c #845B845B845B",
"& c #8E2F8E2F8E2F",
"* c #8F728F728F72",
"= c #B5C2B5C2B5C2",
"- c #BF9FBF9FBF9F",
"; c #C647C647C647",
": c #DB4ADB4ADB4A",
"> c #DBCBDBCBDBCB",
", c #DE8ADE8ADE8A",
"< c #E083E083E083",
"1 c #E1C2E1C2E1C2",
"2 c #E29CE29CE29C",
"3 c #E4BBE4BBE4BB",
"4 c #E5F8E5F8E5F8",
"5 c #EFE1EFE1EFE1",
"6 c #F768F768F768",
"7 c #F884F884F884",
"8 c #FA91FA91FA91",
"9 c #FB7FFB7FFB7F",
"0 c #FCB9FCB9FCB9",
"q c gray100",
/* pixels */
"qqqqqqqqqqqqqqqqqqqqqqqqqqqqqqqq",
"qqqqqqqqqqqqqqqqqqqqqqqqqqqqqqqq",
"qqqqqqqqqqqqqqqqqqqqqqqqqqqqqqqq",
"qqqqqqqqqqqqqqqqqqqqqqqqqqqqqqqq",
"qqqqqqqqqqqq:=-8:=-6qqqqqqqqqqqq",
"qqqqqqqqqqqq$ o3% o2qqqqqqqqqqqq",
"qqqqqqqqqqqq$ X3% X2qqqqqqqqqqqq",
"qqqqqqqqqqqq,#o22#o2qqqqqqqqqqqq",
"qqqqqqqqqqqqq&o3q&o3qqqqqqqqqqqq",
"qqqqqqqqqqqq5+@85+@8qqqqqqqqqqqq",
"qqqqqqqqqqqq&.=q&.=qqqqqqqqqqqqq",
"qqqqqqqqqqqq:;qq:;8qqqqqqqqqqqqq",
"qqqqqqqqqqqqqqqqqqqqqqqqqqqqqqqq",
"qqqqqqqqqqqqqqqqqqqqqqqqqqqqqqqq",
"qqqqqqqqqqqqqqqqqqqqqqqqqqqqqqqq",
"qqqqqqqqqqqqqqqqqqqqqqqqqqqqqqqq",
"qqqqqqqqqqqqqqqqqqqqqqqqqqqqqqqq",
"qqqqqqqqqqqqqqqqqqqqqqqqqqqqqqqq",
"qqqqqqqqqqqqqqqqqqqqqqqqqqqqqqqq",
"qqqqqqqqqqqqqqqqqqqqqqqqqqqqqqqq",
"qqqqqqqqqqqqqqqqqqqqqqqqqqqqqqqq",
"qqqqqqqqqqqqqqqqqqqqqqqqqqqqqqqq",
"qqqqqqqqqqqqqqqqqqqqqqqqqqqqqqqq",
"qqqqqqqqqqqqqqqqqqqqqqqqqqqqqqqq",
"qqqqqqqqqqqqqqqqqqqqqqqqqqqqqqqq",
"qqqqqqqqqqqqqqqqqqqqqqqqqqqqqqqq",
"qqqqqqqqqqqqqqqqqqqqqqqqqqqqqqqq",
"qqqqqqqqqqqqqqqqqqqqqqqqqqqqqqqq",
"qqqqqqqqqqqqqqqqqqqqqqqqqqqqqqqq",
"qqqqqqqqqqqqqqqqqqqqqqqqqqqqqqqq",
"qqqqqqqqqqqqqqqqqqqqqqqqqqqqqqqq",
"qqqqqqqqqqqqqqqqqqqqqqqqqqqqqqqq"
};
