/* XPM */
static const char *x150[] = {
/* columns rows colors chars-per-pixel */
"32 32 8 1",
"  c #02CC02CC02CC",
". c #04BC04BC04BC",
"X c #225122512251",
"o c #B6F3B6F3B6F3",
"O c #BF9FBF9FBF9F",
"+ c #E26AE26AE26A",
"@ c #F768F768F768",
"# c gray100",
/* pixels */
"################################",
"################################",
"################################",
"################################",
"################################",
"################################",
"################################",
"################################",
"################################",
"################################",
"################################",
"################################",
"################################",
"################################",
"################################",
"################################",
"#######@OooooooooooooooO@#######",
"#######+X ............ X+#######",
"#######+X ............ X+#######",
"#######@OooooooooooooooO@#######",
"################################",
"################################",
"################################",
"################################",
"################################",
"################################",
"################################",
"################################",
"################################",
"################################",
"################################",
"################################"
};
