/* XPM */
static const char *x152[] = {
/* columns rows colors chars-per-pixel */
"32 32 36 1",
"  c #009F009F009F",
". c #07FC07FC07FC",
"X c #0CDF0CDF0CDF",
"o c #16A116A116A1",
"O c #1AC01AC01AC0",
"+ c #1E131E131E13",
"@ c #1F141F141F14",
"# c #28E228E228E2",
"$ c #39A139A139A1",
"% c #3B9C3B9C3B9C",
"& c #530553055305",
"* c #5E535E535E53",
"= c #6E316E316E31",
"- c #74A674A674A6",
"; c #787378737873",
": c #842984298429",
"> c #87A487A487A4",
", c #932393239323",
"< c #A75FA75FA75F",
"1 c #B35DB35DB35D",
"2 c #B616B616B616",
"3 c #E0E7E0E7E0E7",
"4 c #E450E450E450",
"5 c #E48BE48BE48B",
"6 c #E8ECE8ECE8EC",
"7 c #EA00EA00EA00",
"8 c #F113F113F113",
"9 c #F4C3F4C3F4C3",
"0 c #F66EF66EF66E",
"q c #F85CF85CF85C",
"w c #F973F973F973",
"e c #FA87FA87FA87",
"r c #FBC1FBC1FBC1",
"t c #FE13FE13FE13",
"y c #FF55FF55FF55",
"u c gray100",
/* pixels */
"uuuuuuuuuuuuuuuuuuuuuuuuuuuuuuuu",
"uuuuuuuuuuuuuuuuuuuuuuuuuuuuuuuu",
"uuuuuuuuuuuuuuuuuuuuuuuuuuuuuuuu",
"uuuuuuuuuuuuuuuuuuuuuuuuuuuuuuuu",
"uuuuuuuuuuuuu63wuu737uuuuuuuuuuu",
"uuuuuuuuuuu9,#@&29>o*uuuuuuuuuuu",
"uuuuuuuuuuu<.X%X.%O :uuuuuuuuuuu",
"uuuuuuuuuuu;o=92&@@-7uuuuuuuuuuu",
"uuuuuuuuuuu638uuw55wuuuuuuuuuuuu",
"uuuuuuuuuuuuuuuuuuuuuuuuuuuuuuuu",
"uuuuuuuuuuuuuuuuuuuuuuuuuuuuuuuu",
"uuuuuuuuuuuuuuuuuuuuuuuuuuuuuuuu",
"uuuuuuuuuuuuuuuuuuuuuuuuuuuuuuuu",
"uuuuuuuuuuuuuuuuuuuuuuuuuuuuuuuu",
"uuuuuuuuuuuuuuuuuuuuuuuuuuuuuuuu",
"uuuuuuuuuuuuuuuuuuuuuuuuuuuuuuuu",
"uuuuuuuuuuuuuuuuuuuuuuuuuuuuuuuu",
"uuuuuuuuuuuuuuuuuuuuuuuuuuuuuuuu",
"uuuuuuuuuuuuuuuuuuuuuuuuuuuuuuuu",
"uuuuuuuuuuuuuuuuuuuuuuuuuuuuuuuu",
"uuuuuuuuuuuuuuuuuuuuuuuuuuuuuuuu",
"uuuuuuuuuuuuuuuuuuuuuuuuuuuuuuuu",
"uuuuuuuuuuuuuuuuuuuuuuuuuuuuuuuu",
"uuuuuuuuuuuuuuuuuuuuuuuuuuuuuuuu",
"uuuuuuuuuuuuuuuuuuuuuuuuuuuuuuuu",
"uuuuuuuuuuuuuuuuuuuuuuuuuuuuuuuu",
"uuuuuuuuuuuuuuuuuuuuuuuuuuuuuuuu",
"uuuuuuuuuuuuuuuuuuuuuuuuuuuuuuuu",
"uuuuuuuuuuuuuuuuuuuuuuuuuuuuuuuu",
"uuuuuuuuuuuuuuuuuuuuuuuuuuuuuuuu",
"uuuuuuuuuuuuuuuuuuuuuuuuuuuuuuuu",
"uuuuuuuuuuuuuuuuuuuuuuuuuuuuuuuu"
};
