/* XPM */
static const char *x153[] = {
/* columns rows colors chars-per-pixel */
"32 32 87 1",
"  c black",
". c #00CC00CC00CC",
"X c #018601860186",
"o c #03DC03DC03DC",
"O c gray2",
"+ c #0C3F0C3F0C3F",
"@ c #0D570D570D57",
"# c #0E150E150E15",
"$ c #101510151015",
"% c #10DB10DB10DB",
"& c #123F123F123F",
"* c #158A158A158A",
"= c #18E618E618E6",
"- c #1A0D1A0D1A0D",
"; c #1AC21AC21AC2",
": c #1C151C151C15",
"> c #1D271D271D27",
", c #1E321E321E32",
"< c #20A320A320A3",
"1 c #229122912291",
"2 c #27B027B027B0",
"3 c #308E308E308E",
"4 c #342334233423",
"5 c #3A4B3A4B3A4B",
"6 c #3D8C3D8C3D8C",
"7 c #3FB13FB13FB1",
"8 c #421342134213",
"9 c #437643764376",
"0 c #472447244724",
"q c #48B348B348B3",
"w c #498849884988",
"e c #49D949D949D9",
"r c #4B9E4B9E4B9E",
"t c #4C424C424C42",
"y c #509550955095",
"u c #524E524E524E",
"i c #561D561D561D",
"p c #64B864B864B8",
"a c #70EE70EE70EE",
"s c #74DE74DE74DE",
"d c #754A754A754A",
"f c #7CEE7CEE7CEE",
"g c #7DDA7DDA7DDA",
"h c #7E767E767E76",
"j c #7FFA7FFA7FFA",
"k c #806B806B806B",
"l c #82AE82AE82AE",
"z c #830F830F830F",
"x c #886188618861",
"c c #8BED8BED8BED",
"v c #8F118F118F11",
"b c #94AC94AC94AC",
"n c #9A849A849A84",
"m c #A47BA47BA47B",
"M c #B5A5B5A5B5A5",
"N c #B708B708B708",
"B c #B788B788B788",
"V c #BACCBACCBACC",
"C c #BC24BC24BC24",
"Z c #BCB6BCB6BCB6",
"A c #BF0FBF0FBF0F",
"S c #C2CBC2CBC2CB",
"D c #C357C357C357",
"F c #CBD3CBD3CBD3",
"G c #CD72CD72CD72",
"H c #CFAACFAACFAA",
"J c #D887D887D887",
"K c #E154E154E154",
"L c #E1C3E1C3E1C3",
"P c #E273E273E273",
"I c #E441E441E441",
"U c #E54AE54AE54A",
"Y c #E8BBE8BBE8BB",
"T c #EA73EA73EA73",
"R c #EDC0EDC0EDC0",
"E c #F0EDF0EDF0ED",
"W c #F468F468F468",
"Q c #F4DDF4DDF4DD",
"! c #F768F768F768",
"~ c #F7E6F7E6F7E6",
"^ c #F911F911F911",
"/ c #FAF5FAF5FAF5",
"( c #FC34FC34FC34",
") c #FD5CFD5CFD5C",
"_ c #FD7FFD7FFD7F",
"` c #FEEFFEEFFEEF",
"' c gray100",
/* pixels */
"''''''''''''''''''''''''''''''''",
"''''''''''''''''''''''''''''''''",
"''''''''''''''''''''''''''''''''",
"''''''''''''''''''''''''''''''''",
"''''!PPPPPPPPP(!PPT'''''WPJW''''",
"''''A<:;::::::SS<;yW''''j::v''''",
"''''A<::# #::<SVO &F'''R4  k''''",
"''''!PPUa aUPP(NO*#x'''V&; j''''",
"''''''''j j''''N 650!''j*i k''''",
"''''''''j j''''N tk;J'W69d k''''",
"''''''''k j''''N tA#n'F&vk k''''",
"''''''''j j''''N rU4t'x&Gk k''''",
"''''''''j j''''N r(d;F95!k j''''",
"''''''''j j''''N r'N+j*d'k j''''",
"''''''''j j''''N 0(P2;#A'k k''''",
"''''''''j k''''N 0('p 4R'j j''''",
"''''''''m9m''''Frf('V0b''m9m''''",
"''''''''(((''''((('''(('''((''''",
"''''''''''''''''''''''''''''''''",
"''''''''''''''''''''''''''''''''",
"''''''''''''''''''''''''''''''''",
"''''''''''''''''''''''''''''''''",
"''''''''''''''''''''''''''''''''",
"''''''''''''''''''''''''''''''''",
"''''''''''''''''''''''''''''''''",
"''''''''''''''''''''''''''''''''",
"''''''''''''''''''''''''''''''''",
"''''''''''''''''''''''''''''''''",
"''''''''''''''''''''''''''''''''",
"''''''''''''''''''''''''''''''''",
"''''''''''''''''''''''''''''''''",
"''''''''''''''''''''''''''''''''"
};
