/* XPM */
static const char *x155[] = {
/* columns rows colors chars-per-pixel */
"32 32 50 1",
"  c black",
". c #014901490149",
"X c #024B024B024B",
"o c #029402940294",
"O c #079307930793",
"+ c #099309930993",
"@ c #0B850B850B85",
"# c #0CAD0CAD0CAD",
"$ c #0E020E020E02",
"% c #1D601D601D60",
"& c #22F022F022F0",
"* c #2BEB2BEB2BEB",
"= c #327032703270",
"- c #37E937E937E9",
"; c #412741274127",
": c #43AE43AE43AE",
"> c #4A884A884A88",
", c #5E415E415E41",
"< c #664266426642",
"1 c #6F796F796F79",
"2 c #7C4E7C4E7C4E",
"3 c #7FC77FC77FC7",
"4 c #83CA83CA83CA",
"5 c #843384338433",
"6 c #908690869086",
"7 c #91A791A791A7",
"8 c #A1BCA1BCA1BC",
"9 c #AD91AD91AD91",
"0 c #B26FB26FB26F",
"q c #B4EEB4EEB4EE",
"w c #B56EB56EB56E",
"e c #B862B862B862",
"r c #B975B975B975",
"t c #C4C9C4C9C4C9",
"y c #CD6ACD6ACD6A",
"u c #D434D434D434",
"i c #D682D682D682",
"p c #DCB4DCB4DCB4",
"a c #E209E209E209",
"s c #E95AE95AE95A",
"d c #EAD7EAD7EAD7",
"f c #F152F152F152",
"g c #F653F653F653",
"h c #F779F779F779",
"j c #F9C6F9C6F9C6",
"k c #FAB5FAB5FAB5",
"l c #FBA9FBA9FBA9",
"z c #FD7DFD7DFD7D",
"x c #FEF8FEF8FEF8",
"c c gray100",
/* pixels */
"cccccccccccccccccccccccccccccccc",
"cccccccccccccccccccccccccccccccc",
"cccccccccccccccccccccccccccccccc",
"cccccccccccccccccccccccccccccccc",
"cccccccccccccccccccccccccccccccc",
"cccccccccccccccccccccccccccccccc",
"cccccccccccccccccccccccccccccccc",
"cccccccccccccccccccccccccccccccc",
"cccccccccccccccccccccccccccccccc",
"cccccccccccccccccccccccccccccccc",
"cccccccccccccccccccccccccccccccc",
"ccccccccccccktqucccccccccccccccc",
"ccccccccccccc3 *pccccccccccccccc",
"ccccccccccccca= 1kcccccccccccccc",
"cccccccccccccc8O$qcccccccccccccc",
"cccccccccccccch, ;dccccccccccccc",
"cccccccccccccccy% 5ccccccccccccc",
"cccccccccccccccc7 %ycccccccccccc",
"ccccccccccccccccq$+rcccccccccccc",
"cccccccccccccccf> ,hcccccccccccc",
"ccccccccccccccc7O%yccccccccccccc",
"ccccccccccccccu& 4cccccccccccccc",
"ccccccccccccck< -dcccccccccccccc",
"ccccccccccccc0$+9ccccccccccccccc",
"cccccccccccch4;3hccccccccccccccc",
"ccccccccccccckkkcccccccccccccccc",
"cccccccccccccccccccccccccccccccc",
"cccccccccccccccccccccccccccccccc",
"cccccccccccccccccccccccccccccccc",
"cccccccccccccccccccccccccccccccc",
"cccccccccccccccccccccccccccccccc",
"cccccccccccccccccccccccccccccccc"
};
