/* XPM */
static const char *x156[] = {
/* columns rows colors chars-per-pixel */
"32 32 121 2",
"   c #000500050005",
".  c #00F600F600F6",
"X  c #01C801C801C8",
"o  c #02FF02FF02FF",
"O  c #03C503C503C5",
"+  c #063D063D063D",
"@  c #06E906E906E9",
"#  c #07DB07DB07DB",
"$  c #08FC08FC08FC",
"%  c #0A790A790A79",
"&  c #0AEE0AEE0AEE",
"*  c #0C210C210C21",
"=  c #0CB90CB90CB9",
"-  c #0E1A0E1A0E1A",
";  c #0F180F180F18",
":  c #116B116B116B",
">  c #120612061206",
",  c #142F142F142F",
"<  c #152D152D152D",
"1  c #16FA16FA16FA",
"2  c #1B081B081B08",
"3  c #1C5B1C5B1C5B",
"4  c #1D7B1D7B1D7B",
"5  c #1E171E171E17",
"6  c #1EC51EC51EC5",
"7  c #220122012201",
"8  c #22EA22EA22EA",
"9  c #291529152915",
"0  c #29B229B229B2",
"q  c #2C292C292C29",
"w  c #2D5F2D5F2D5F",
"e  c #2F8C2F8C2F8C",
"r  c #324A324A324A",
"t  c #355F355F355F",
"y  c #37FA37FA37FA",
"u  c #3FA83FA83FA8",
"i  c #403840384038",
"p  c #429F429F429F",
"a  c #433D433D433D",
"s  c #493C493C493C",
"d  c #4A444A444A44",
"f  c #4B034B034B03",
"g  c #4D7D4D7D4D7D",
"h  c #4DD24DD24DD2",
"j  c #4FC74FC74FC7",
"k  c #520952095209",
"l  c #541254125412",
"z  c #5BA15BA15BA1",
"x  c #5D4F5D4F5D4F",
"c  c #5EB85EB85EB8",
"v  c #641864186418",
"b  c #655B655B655B",
"n  c #66B966B966B9",
"m  c #6AC56AC56AC5",
"M  c #709370937093",
"N  c #719171917191",
"B  c #76CE76CE76CE",
"V  c #79E679E679E6",
"C  c #7ED27ED27ED2",
"Z  c #7FD97FD97FD9",
"A  c #80A780A780A7",
"S  c #813F813F813F",
"D  c #823B823B823B",
"F  c #862586258625",
"G  c #89CD89CD89CD",
"H  c #8ECE8ECE8ECE",
"J  c #92FE92FE92FE",
"K  c #967896789678",
"L  c #979A979A979A",
"P  c #99E399E399E3",
"I  c #9B469B469B46",
"U  c #A256A256A256",
"Y  c #A382A382A382",
"T  c #A4ACA4ACA4AC",
"R  c #A71BA71BA71B",
"E  c #A75CA75CA75C",
"W  c #A830A830A830",
"Q  c #AA73AA73AA73",
"!  c #AC37AC37AC37",
"~  c #B529B529B529",
"^  c #B59AB59AB59A",
"/  c #B814B814B814",
"(  c #B8AAB8AAB8AA",
")  c #BC48BC48BC48",
"_  c #BDF3BDF3BDF3",
"`  c #C1F3C1F3C1F3",
"'  c #C442C442C442",
"]  c #C446C446C446",
"[  c #C9DCC9DCC9DC",
"{  c #CCA2CCA2CCA2",
"}  c #CE3FCE3FCE3F",
"|  c #D5A7D5A7D5A7",
" . c #D7B6D7B6D7B6",
".. c #D89CD89CD89C",
"X. c #DAE7DAE7DAE7",
"o. c #DD12DD12DD12",
"O. c #DE0FDE0FDE0F",
"+. c #E023E023E023",
"@. c #E105E105E105",
"#. c #E1C0E1C0E1C0",
"$. c #E2F6E2F6E2F6",
"%. c #E4CBE4CBE4CB",
"&. c #E5D2E5D2E5D2",
"*. c #EA64EA64EA64",
"=. c #EAD6EAD6EAD6",
"-. c #EC11EC11EC11",
";. c #EE4EEE4EEE4E",
":. c #EF32EF32EF32",
">. c #F038F038F038",
",. c #F1F5F1F5F1F5",
"<. c #F2EDF2EDF2ED",
"1. c #F4DDF4DDF4DD",
"2. c #F660F660F660",
"3. c #F6B7F6B7F6B7",
"4. c #F921F921F921",
"5. c #FB09FB09FB09",
"6. c #FBFFFBFFFBFF",
"7. c #FCCFFCCFFCCF",
"8. c #FE25FE25FE25",
"9. c #FF3EFF3EFF3E",
"0. c gray100",
/* pixels */
"0.0.0.0.0.0.0.0.0.0.0.0.0.0.0.0.0.0.0.0.0.0.0.0.0.0.0.0.0.0.0.0.",
"0.0.0.0.0.0.0.0.0.0.0.0.0.0.0.0.0.0.0.0.0.0.0.0.0.0.0.0.0.0.0.0.",
"0.0.0.0.0.0.0.0.0.0.0.0.0.0.0.0.0.0.0.0.0.0.0.0.0.0.0.0.0.0.0.0.",
"0.0.0.0.0.0.0.0.0.0.0.0.0.0.0.0.0.0.0.0.0.0.0.0.0.0.0.0.0.0.0.0.",
"0.0.0.0.0.0.0.0.0.0.0.0.0.0.0.0.0.0.0.0.0.0.0.0.0.0.0.0.0.0.0.0.",
"0.0.0.0.0.0.0.0.0.0.0.0.0.0.0.0.0.0.0.0.0.0.0.0.0.0.0.0.0.0.0.0.",
"0.0.0.0.0.0.0.0.0.0.0.0.0.0.0.0.0.0.0.0.0.0.0.0.0.0.0.0.0.0.0.0.",
"0.0.0.0.0.0.0.0.0.0.0.0.0.0.0.0.0.0.0.0.0.0.0.0.0.0.0.0.0.0.0.0.",
"0.0.0.0.0.0.0.0.0.0.0.0.0.0.0.0.0.0.0.0.0.0.0.0.0.0.0.0.0.0.0.0.",
"0.0.0.0.0.0.0.0.0.0.0.0.0.0.0.0.0.0.0.0.0.0.0.0.0.0.0.0.0.0.0.0.",
"0.0.0.0.0.0.0.;.` H C F / *.0.0.0.0.5.{ H C F / $.0.0.0.0.0.0.0.",
"0.0.0.0.0.1.U y #       + t T 5.0.O.n <       + q U 5.0.0.0.0.0.",
"0.0.0.0.5.B #     < 3 >     = P X.a     > 3 3 +   = G 5.0.0.0.0.",
"0.0.0.0.T =   3 C { $.{ A 3   < q   > V { $.O.! f   > / 0.0.0.0.",
"0.0.0.1.a   < / 0.0.0.0.0.) 3     + J 0.0.0.0.0.;.k   j 1.0.0.0.",
"0.0.0.{ >   N 0.0.0.0.0.0.0.C     j 1.0.0.0.0.0.0.) # > { 0.0.0.",
"0.0.0.T   + / 0.0.0.0.0.0.0.` =   u A A A A A A A N =   Q 0.0.0.",
"0.0.0.A   2 X.0.0.0.0.0.0.0.$.3                         A 0.0.0.",
"0.0.0.C   3 $.0.0.0.0.0.0.0.$.3   = 3 7 3 3 3 3 3 3 3 3 H 0.0.0.",
"0.0.0.A   2 | 0.0.0.0.0.0.0.| <   m $.$.$.$.$.$.$.$.&.&.,.0.0.0.",
"0.0.0.Q   + T 0.0.0.0.0.0.0.P     j 5.0.0.0.0.0.0.,.) ] ;.0.0.0.",
"0.0.0.| 3   f ,.0.0.0.0.0.*.a     > ( 0.0.0.0.0.0.P # = Q 0.0.0.",
"0.0.0.0.n     n $.0.0.0.X.z   + +   8 ( 5.0.0.5.( 7   0 O.0.0.0.",
"0.0.0.0.X.0     q N A v 7     c H =   < f V C k <   = U 0.0.0.0.",
"0.0.0.0.0.` a             # c O.0.K <             < K 0.0.0.0.0.",
"0.0.0.0.0.0.*.P f 8 3 7 k Q 1.0.0.5.[ m r 3 3 r m [ 5.0.0.0.0.0.",
"0.0.0.0.0.0.0.0.1.&.$.$.5.0.0.0.0.0.0.0.;.$.O.;.0.0.0.0.0.0.0.0.",
"0.0.0.0.0.0.0.0.0.0.0.0.0.0.0.0.0.0.0.0.0.0.0.0.0.0.0.0.0.0.0.0.",
"0.0.0.0.0.0.0.0.0.0.0.0.0.0.0.0.0.0.0.0.0.0.0.0.0.0.0.0.0.0.0.0.",
"0.0.0.0.0.0.0.0.0.0.0.0.0.0.0.0.0.0.0.0.0.0.0.0.0.0.0.0.0.0.0.0.",
"0.0.0.0.0.0.0.0.0.0.0.0.0.0.0.0.0.0.0.0.0.0.0.0.0.0.0.0.0.0.0.0.",
"0.0.0.0.0.0.0.0.0.0.0.0.0.0.0.0.0.0.0.0.0.0.0.0.0.0.0.0.0.0.0.0."
};
