/* XPM */
static const char *x158[] = {
/* columns rows colors chars-per-pixel */
"32 32 84 1",
"  c black",
". c #00FB00FB00FB",
"X c #028202820282",
"o c #02BA02BA02BA",
"O c #03AF03AF03AF",
"+ c #04CA04CA04CA",
"@ c #05E505E505E5",
"# c #073707370737",
"$ c #0D0E0D0E0D0E",
"% c #0DE10DE10DE1",
"& c #0FAC0FAC0FAC",
"* c #124D124D124D",
"= c #147114711471",
"- c #152915291529",
"; c #1A5C1A5C1A5C",
": c #1B071B071B07",
"> c #21B921B921B9",
", c #22D522D522D5",
"< c #247624762476",
"1 c #29CF29CF29CF",
"2 c #2AC02AC02AC0",
"3 c #30BC30BC30BC",
"4 c #323932393239",
"5 c #32E532E532E5",
"6 c #3C1A3C1A3C1A",
"7 c #416741674167",
"8 c #425842584258",
"9 c #44AC44AC44AC",
"0 c #45F145F145F1",
"q c #48A148A148A1",
"w c #48F748F748F7",
"e c #4C8E4C8E4C8E",
"r c #50A150A150A1",
"t c #50E350E350E3",
"y c #526F526F526F",
"u c #57D257D257D2",
"i c #6A5D6A5D6A5D",
"p c #6BD46BD46BD4",
"a c #715B715B715B",
"s c #71F871F871F8",
"d c #742B742B742B",
"f c #774677467746",
"g c #7D227D227D22",
"h c #7FFF7FFF7FFF",
"j c #824282428242",
"k c #873587358735",
"l c #8A1B8A1B8A1B",
"z c #958C958C958C",
"x c #99D899D899D8",
"c c #A389A389A389",
"v c #AFEBAFEBAFEB",
"b c #B5ECB5ECB5EC",
"n c #B703B703B703",
"m c #B7A8B7A8B7A8",
"M c #B8C5B8C5B8C5",
"N c #BDA6BDA6BDA6",
"B c #BE7FBE7FBE7F",
"V c #C3AAC3AAC3AA",
"C c #C575C575C575",
"Z c #C65FC65FC65F",
"A c #CBD4CBD4CBD4",
"S c #D200D200D200",
"D c #DA28DA28DA28",
"F c #DB90DB90DB90",
"G c #DD32DD32DD32",
"H c #DE44DE44DE44",
"J c #E0D4E0D4E0D4",
"K c #E1CAE1CAE1CA",
"L c #E4F4E4F4E4F4",
"P c #E5A3E5A3E5A3",
"I c #E691E691E691",
"U c #E8A8E8A8E8A8",
"Y c #EAA6EAA6EAA6",
"T c #ED57ED57ED57",
"R c #F04EF04EF04E",
"E c #F11BF11BF11B",
"W c #F1F3F1F3F1F3",
"Q c #F871F871F871",
"! c #FB00FB00FB00",
"~ c #FC3FFC3FFC3F",
"^ c #FD13FD13FD13",
"/ c #FE36FE36FE36",
"( c #FF2AFF2AFF2A",
") c gray100",
/* pixels */
"))))))))))))))))))))))))))))))))",
"))))))))))))))))))))))))))))))))",
"))))))))))))))))))))))))))))))))",
"))))))))))))))))))))))))))))))))",
"))))))))))))YHY))!PHW)))))))))))",
"))))))))))))l:7K)v,1C)))))))))))",
"))))))))))))K3.aS1.a!)))))))))))",
")))))))))))))v$$<.7Y))))))))))))",
")))))))))))))!f::3V)))))))))))))",
"))))))))))))))!PPT))))))))))))))",
"))))))))))FbbbMMMbbbbbF)))))))))",
"))))))))))j.+++++++++.j)))))))))",
"))))))))))j.++++++-+..k)))))))))",
"))))))))))FbbbbbMbp+.7H)))))))))",
")))))))))))))))))x&.6H))))))))))",
"))))))))))))))))b-.,V)))))))))))",
")))))))))))))))N,.,N))))))))))))",
"))))))))))))))H5.$c)))))))))))))",
")))))))))))))H7.$z!)))))))))))))",
"))))))))))))We..f!))))))))))))))",
")))))))))))Wi.+pT)))))))))))))))",
")))))))))))g..rT))))))))))))))))",
"))))))))))z$.0F)!!!!!!!)))))))))",
")))))))))C&.+ur0wwwww0g)))))))))",
")))))))))b+...........w!))))))))",
")))))))))Awwwwwwwwwww0g!))))))))",
"))))))))))!!!!!!!!!!!!!)))))))))",
"))))))))))))))))))))))))))))))))",
"))))))))))))))))))))))))))))))))",
"))))))))))))))))))))))))))))))))",
"))))))))))))))))))))))))))))))))",
"))))))))))))))))))))))))))))))))"
};
