/* XPM */
static const char *x162[] = {
/* columns rows colors chars-per-pixel */
"32 32 117 2",
"   c #000300030003",
".  c #00B200B200B2",
"X  c #01A601A601A6",
"o  c #031E031E031E",
"O  c #040C040C040C",
"+  c #054305430543",
"@  c #083D083D083D",
"#  c #088F088F088F",
"$  c #0A140A140A14",
"%  c #0B150B150B15",
"&  c #0C300C300C30",
"*  c #0D150D150D15",
"=  c #0DEF0DEF0DEF",
"-  c #100210021002",
";  c #10D810D810D8",
":  c #11F711F711F7",
">  c #153415341534",
",  c #164F164F164F",
"<  c #17D017D017D0",
"1  c #191D191D191D",
"2  c #1A4D1A4D1A4D",
"3  c #1E6E1E6E1E6E",
"4  c #203120312031",
"5  c #23A923A923A9",
"6  c #255425542554",
"7  c #261826182618",
"8  c #29C829C829C8",
"9  c #2FC82FC82FC8",
"0  c #318E318E318E",
"q  c #32BF32BF32BF",
"w  c #371337133713",
"e  c #39F839F839F8",
"r  c #3CE23CE23CE2",
"t  c #3F913F913F91",
"y  c #424842484248",
"u  c #42D542D542D5",
"i  c #46DB46DB46DB",
"p  c #482048204820",
"a  c #492A492A492A",
"s  c #4B5A4B5A4B5A",
"d  c #4EA64EA64EA6",
"f  c #4F9D4F9D4F9D",
"g  c #501D501D501D",
"h  c #524452445244",
"j  c #600760076007",
"k  c #611661166116",
"l  c #624E624E624E",
"z  c #647B647B647B",
"x  c #666866686668",
"c  c #6A8A6A8A6A8A",
"v  c #6AF66AF66AF6",
"b  c #6D206D206D20",
"n  c #6FEA6FEA6FEA",
"m  c #703870387038",
"M  c #750975097509",
"N  c #7A997A997A99",
"B  c #7BE37BE37BE3",
"V  c #7E337E337E33",
"C  c #817481748174",
"Z  c #847484748474",
"A  c #87B487B487B4",
"S  c #880888088808",
"D  c #8A558A558A55",
"F  c #8CB88CB88CB8",
"G  c #8D968D968D96",
"H  c #8EDB8EDB8EDB",
"J  c #8FAF8FAF8FAF",
"K  c #92DB92DB92DB",
"L  c #938993899389",
"P  c #966F966F966F",
"I  c #996D996D996D",
"U  c #9B9C9B9C9B9C",
"Y  c #9FF89FF89FF8",
"T  c #A37DA37DA37D",
"R  c #A460A460A460",
"E  c #A7ABA7ABA7AB",
"W  c #A94FA94FA94F",
"Q  c #AC63AC63AC63",
"!  c #B36FB36FB36F",
"~  c #B530B530B530",
"^  c #B74DB74DB74D",
"/  c #BBB3BBB3BBB3",
"(  c #BC8EBC8EBC8E",
")  c #BF1ABF1ABF1A",
"_  c #C208C208C208",
"`  c #C5F2C5F2C5F2",
"'  c #CB39CB39CB39",
"]  c #CCDFCCDFCCDF",
"[  c #CE53CE53CE53",
"{  c #D4FFD4FFD4FF",
"}  c #D623D623D623",
"|  c #D763D763D763",
" . c #D893D893D893",
".. c #D971D971D971",
"X. c #DE3CDE3CDE3C",
"o. c #E091E091E091",
"O. c #E23BE23BE23B",
"+. c #E31AE31AE31A",
"@. c #E3BAE3BAE3BA",
"#. c #E4AEE4AEE4AE",
"$. c #E830E830E830",
"%. c #EA6CEA6CEA6C",
"&. c #EC3EEC3EEC3E",
"*. c #EF07EF07EF07",
"=. c #F12BF12BF12B",
"-. c #F307F307F307",
";. c #F418F418F418",
":. c #F4DDF4DDF4DD",
">. c #F5ADF5ADF5AD",
",. c #F777F777F777",
"<. c #F911F911F911",
"1. c #FA0AFA0AFA0A",
"2. c #FADEFADEFADE",
"3. c #FBDBFBDBFBDB",
"4. c #FD26FD26FD26",
"5. c #FF10FF10FF10",
"6. c gray100",
/* pixels */
"6.6.6.6.6.6.6.6.6.6.6.6.6.6.6.6.6.6.6.6.6.6.6.6.6.6.6.6.6.6.6.6.",
"6.6.6.6.6.6.6.6.6.6.6.6.6.6.6.6.6.6.6.6.6.6.6.6.6.6.6.6.6.6.6.6.",
"6.6.6.6.6.6.6.6.6.6.6.6.6.6.6.6.6.6.6.6.6.6.6.6.6.6.6.6.6.6.6.6.",
"6.6.6.6.6.6.6.6.6.6.6.6.6.6.6.6.6.6.6.6.6.6.6.6.6.6.6.6.6.6.6.6.",
"6.6.6.6.6.6.6.6.6.6.6.6.6.6.6.6.6.6.3.,.6.6.6.6.6.6.6.6.6.6.6.6.",
"6.6.6.6.6.6.6.6.6.6.6.6.6.6.6.6.6.6.` f { 6.6.6.6.6.6.6.6.6.6.6.",
"6.6.6.6.6.6.6.6.6.6.6.6.6.6.6.6.6.6.A , { 6.6.6.6.6.6.6.6.6.6.6.",
"6.6.6.6.6.6.6.6.6.6.6.6.6.6.6.6.6.;.t t ;.6.6.6.6.6.6.6.6.6.6.6.",
"6.6.6.6.6.6.6.6.6.6.6.6.6.6.6.6.6.{ , A 6.6.6.6.6.6.6.6.6.6.6.6.",
"6.6.6.6.6.6.6.6.6.6.6.6.6.6.6.6.6.U & _ 6.6.6.6.6.6.6.6.6.6.6.6.",
"6.6.6.6.6.6.6.6.6.6.6.6.3. .E C C t 9 *.6.6.6.6.6.6.6.6.6.6.6.6.",
"6.6.6.6.6.6.6.6.6.6.6.@.n 3         , C *.6.6.6.6.6.6.6.6.6.6.6.",
"6.6.6.6.6.6.6.6.6.6.X.u     % 3 -       c ;.6.6.6.6.6.6.6.6.6.6.",
"6.6.6.6.6.6.6.6.6.3.x   + a ! @.k % 7   + T 6.6.6.6.6.6.6.6.6.6.",
"6.6.6.6.6.6.6.6.6.[ ,   f *.6.*.9 h ` 3   h 3.6.6.6.6.6.6.6.6.6.",
"6.6.6.6.6.6.6.6.6.J   % / 6.6.' - U 6.L a D ;.6.6.6.6.6.6.6.6.6.",
"6.6.6.6.6.6.6.6.6.x   8 $.6.6.D - ' 6.6.3.6.6.6.6.6.6.6.6.6.6.6.",
"6.6.6.6.6.6.6.6.3.a   a 3.6.,.a u ,.6.6.6.6.6.6.6.6.6.6.6.6.6.6.",
"6.6.6.6.6.6.6.6.3.i   a 3.6.{ 1 B 6.6.6.6.6.6.6.6.6.6.6.6.6.6.6.",
"6.6.6.6.6.6.6.6.3.f   e ;.6.U & / 6.6.6.3.6.6.6.6.6.6.6.6.6.6.6.",
"6.6.6.6.6.6.6.6.6.B   1 { 6.k 7 $.6.6./ f V X.6.6.6.6.6.6.6.6.6.",
"6.6.6.6.6.6.6.6.6.W +   D $.7 k 6.6.3.k   7 @.6.6.6.6.6.6.6.6.6.",
"6.6.6.6.6.6.6.6.6.%.w   4 n % W 6.;.K &   n 6.6.6.6.6.6.6.6.6.6.",
"6.6.6.6.6.6.6.6.6.6.E &     % x B u %   8 { 6.6.6.6.6.6.6.6.6.6.",
"6.6.6.6.6.6.6.6.6.6.3.L ,             9 ( 6.6.6.6.6.6.6.6.6.6.6.",
"6.6.6.6.6.6.6.6.6.6.6.6.T % , 3 3 u D @.6.6.6.6.6.6.6.6.6.6.6.6.",
"6.6.6.6.6.6.6.6.6.6.6.6.J & ~ @.@.;.6.6.6.6.6.6.6.6.6.6.6.6.6.6.",
"6.6.6.6.6.6.6.6.6.6.6.3.f e ,.6.6.6.6.6.6.6.6.6.6.6.6.6.6.6.6.6.",
"6.6.6.6.6.6.6.6.6.6.6.{ 1 M 6.6.6.6.6.6.6.6.6.6.6.6.6.6.6.6.6.6.",
"6.6.6.6.6.6.6.6.6.6.6.E & / 6.6.6.6.6.6.6.6.6.6.6.6.6.6.6.6.6.6.",
"6.6.6.6.6.6.6.6.6.6.6.n 8 %.6.6.6.6.6.6.6.6.6.6.6.6.6.6.6.6.6.6.",
"6.6.6.6.6.6.6.6.6.6.6.[ ~ 3.6.6.6.6.6.6.6.6.6.6.6.6.6.6.6.6.6.6."
};
