/* XPM */
static const char *x165[] = {
/* columns rows colors chars-per-pixel */
"32 32 82 1",
"  c #000300030003",
". c #009200920092",
"X c #024C024C024C",
"o c #02CC02CC02CC",
"O c #045104510451",
"+ c #04C604C604C6",
"@ c #080408040804",
"# c #093609360936",
"$ c #0A000A000A00",
"% c #0EDB0EDB0EDB",
"& c #13EB13EB13EB",
"* c #158415841584",
"= c #160416041604",
"- c #179817981798",
"; c #1A681A681A68",
": c #1E081E081E08",
"> c #1EF51EF51EF5",
", c #229122912291",
"< c #232823282328",
"1 c #240E240E240E",
"2 c #27A727A727A7",
"3 c #297529752975",
"4 c #371137113711",
"5 c #382638263826",
"6 c #3FFF3FFF3FFF",
"7 c #44C644C644C6",
"8 c #48F748F748F7",
"9 c #4BA74BA74BA7",
"0 c #4C594C594C59",
"q c #4D084D084D08",
"w c #4FB84FB84FB8",
"e c #5A075A075A07",
"r c #5B5C5B5C5B5C",
"t c #5E6E5E6E5E6E",
"y c #656D656D656D",
"u c #65EB65EB65EB",
"i c #673D673D673D",
"p c #70ED70ED70ED",
"a c #7DE27DE27DE2",
"s c #7FFB7FFB7FFB",
"d c #80FB80FB80FB",
"f c #81F181F181F1",
"g c gray51",
"h c #900890089008",
"j c #993D993D993D",
"k c #A191A191A191",
"l c #A47BA47BA47B",
"z c #B0AFB0AFB0AF",
"x c #B198B198B198",
"c c #B2F7B2F7B2F7",
"v c #B5CEB5CEB5CE",
"b c #B704B704B704",
"n c #B86EB86EB86E",
"m c #B9D0B9D0B9D0",
"M c #BD5FBD5FBD5F",
"N c #BEA3BEA3BEA3",
"B c #BF9FBF9FBF9F",
"V c #C2F8C2F8C2F8",
"C c #C8ECC8ECC8EC",
"Z c #C9DFC9DFC9DF",
"A c #CBD4CBD4CBD4",
"S c #CD4DCD4DCD4D",
"D c #DBB6DBB6DBB6",
"F c #DCC8DCC8DCC8",
"G c #DF02DF02DF02",
"H c #E120E120E120",
"J c #E1E9E1E9E1E9",
"K c #E273E273E273",
"L c #E4FCE4FCE4FC",
"P c #EAB1EAB1EAB1",
"I c #EFD9EFD9EFD9",
"U c #F145F145F145",
"Y c #F4FFF4FFF4FF",
"T c #F586F586F586",
"R c #F768F768F768",
"E c #F779F779F779",
"W c #F9F3F9F3F9F3",
"Q c #FAFEFAFEFAFE",
"! c #FB9BFB9BFB9B",
"~ c #FCD3FCD3FCD3",
"^ c #FEFDFEFDFEFD",
"/ c gray100",
/* pixels */
"////////////////////////////////",
"////////////////////////////////",
"////////////////////////////////",
"////////////////////////////////",
"////////LHU/////////!HHU////////",
"///////Ei&rE////////z11V////////",
"////////z@@k///////P5X9E////////",
"////////E9X4P//////jO@z/////////",
"/////////N&Xh/////F1XrE/////////",
"/////////!yX,D////dX&C//////////",
"//////////C&Xa///S:Xy///////////",
"///////////yX:S/!yX&C///////////",
"///////////C&Xy/v%Xy////////////",
"///////////!yX&mwX&C////////////",
"////////EHHLz&X,@XeFHHP/////////",
"////////N,:::@XXXX&,:;r!////////",
"////////vOXXXXXXXXXXXX7!////////",
"////////Fdaddd5X%paadal/////////",
"//////////////aX:H//////////////",
"////////PmvvvmeX&kmvvvC!////////",
"////////v@OOOOOXXOOOOXw!////////",
"////////m@OOOOXXXOOOOX9!////////",
"////////PmmvvmeX&kmvvvC/////////",
"//////////////aX:H//////////////",
"//////////////aX:H//////////////",
"//////////////k7rP//////////////",
"///////////////!!///////////////",
"////////////////////////////////",
"////////////////////////////////",
"////////////////////////////////",
"////////////////////////////////",
"////////////////////////////////"
};
