/* XPM */
static const char *x166[] = {
/* columns rows colors chars-per-pixel */
"32 32 18 1",
"  c #030C030C030C",
". c #080208020802",
"X c #1DDB1DDB1DDB",
"o c #20D420D420D4",
"O c #224A224A224A",
"+ c #387A387A387A",
"@ c #B708B708B708",
"# c #B7E6B7E6B7E6",
"$ c #B876B876B876",
"% c #BF95BF95BF95",
"& c #E1E5E1E5E1E5",
"* c #E273E273E273",
"= c #E560E560E560",
"- c #E568E568E568",
"; c #EB33EB33EB33",
": c #F768F768F768",
"> c #FC73FC73FC73",
", c gray100",
/* pixels */
",,,,,,,,,,,,,,,,,,,,,,,,,,,,,,,,",
",,,,,,,,,,,,,,,,,,,,,,,,,,,,,,,,",
",,,,,,,,,,,,,,,,,,,,,,,,,,,,,,,,",
",,,,,,,,,,,,,,,,,,,,,,,,,,,,,,,,",
",,,,,,,,,,,,,,>=&:,,,,,,,,,,,,,,",
",,,,,,,,,,,,,,=+O%,,,,,,,,,,,,,,",
",,,,,,,,,,,,,,&X @,,,,,,,,,,,,,,",
",,,,,,,,,,,,,,&X @,,,,,,,,,,,,,,",
",,,,,,,,,,,,,,&X @,,,,,,,,,,,,,,",
",,,,,,,,,,,,,,&X @,,,,,,,,,,,,,,",
",,,,,,,,,,,,,,&X @,,,,,,,,,,,,,,",
",,,,,,,,,,,,,,&X @,,,,,,,,,,,,,,",
",,,,,,,,,,,,,,&X @,,,,,,,,,,,,,,",
",,,,,,,,,,,,,,&X @,,,,,,,,,,,,,,",
",,,,,,,,,,,,,,&X @,,,,,,,,,,,,,,",
",,,,,,,,,,,,,,&O.@,,,,,,,,,,,,,,",
",,,,,,,,,,,,,,:%@;,,,,,,,,,,,,,,",
",,,,,,,,,,,,,,,,,,,,,,,,,,,,,,,,",
",,,,,,,,,,,,,,,,,,,,,,,,,,,,,,,,",
",,,,,,,,,,,,,,,,,,,,,,,,,,,,,,,,",
",,,,,,,,,,,,,,,,,,,,,,,,,,,,,,,,",
",,,,,,,,,,,,,,,,,,,,,,,,,,,,,,,,",
",,,,,,,,,,,,,,,,,,,,,,,,,,,,,,,,",
",,,,,,,,,,,,,,,,,,,,,,,,,,,,,,,,",
",,,,,,,,,,,,,,,,,,,,,,,,,,,,,,,,",
",,,,,,,,,,,,,,,,,,,,,,,,,,,,,,,,",
",,,,,,,,,,,,,,,,,,,,,,,,,,,,,,,,",
",,,,,,,,,,,,,,,,,,,,,,,,,,,,,,,,",
",,,,,,,,,,,,,,,,,,,,,,,,,,,,,,,,",
",,,,,,,,,,,,,,,,,,,,,,,,,,,,,,,,",
",,,,,,,,,,,,,,,,,,,,,,,,,,,,,,,,",
",,,,,,,,,,,,,,,,,,,,,,,,,,,,,,,,"
};
