/* XPM */
static const char *x171[] = {
/* columns rows colors chars-per-pixel */
"32 32 88 1",
"  c black",
". c #011101110111",
"X c #02CD02CD02CD",
"o c #03F303F303F3",
"O c #083808380838",
"+ c #0D6B0D6B0D6B",
"@ c #0E650E650E65",
"# c #0FB80FB80FB8",
"$ c #117911791179",
"% c #13AA13AA13AA",
"& c #150C150C150C",
"* c #169416941694",
"= c #1C121C121C12",
"- c #1DC01DC01DC0",
"; c #21C121C121C1",
": c #233D233D233D",
"> c #270327032703",
", c #289528952895",
"< c #29A929A929A9",
"1 c #32B132B132B1",
"2 c #33C433C433C4",
"3 c #37F937F937F9",
"4 c #413E413E413E",
"5 c #465046504650",
"6 c #4E9E4E9E4E9E",
"7 c #4ED14ED14ED1",
"8 c #4FF74FF74FF7",
"9 c #514251425142",
"0 c #543954395439",
"q c #5CA35CA35CA3",
"w c #5E0F5E0F5E0F",
"e c #5F1A5F1A5F1A",
"r c #604E604E604E",
"t c #651965196519",
"y c #664466446644",
"u c #684F684F684F",
"i c #6FF76FF76FF7",
"p c #73AD73AD73AD",
"a c #7BDA7BDA7BDA",
"s c #7FFF7FFF7FFF",
"d c #80B780B780B7",
"f c #842384238423",
"g c #900890089008",
"h c #907A907A907A",
"j c #99BB99BB99BB",
"k c #9FCE9FCE9FCE",
"l c #A0E5A0E5A0E5",
"z c #A1BCA1BCA1BC",
"x c #A8B1A8B1A8B1",
"c c #AE3EAE3EAE3E",
"v c #AFAAAFAAAFAA",
"b c #B104B104B104",
"n c #B4ACB4ACB4AC",
"m c #B6D8B6D8B6D8",
"M c #B96BB96BB96B",
"N c #BB3EBB3EBB3E",
"B c #BEA0BEA0BEA0",
"V c #C303C303C303",
"C c #C652C652C652",
"Z c #C80DC80DC80D",
"A c #CD18CD18CD18",
"S c #CD4ECD4ECD4E",
"D c #D2A7D2A7D2A7",
"F c #D684D684D684",
"G c #D762D762D762",
"H c #D92AD92AD92A",
"J c #DA89DA89DA89",
"K c #DE5ADE5ADE5A",
"L c #E22EE22EE22E",
"P c #E27CE27CE27C",
"I c #E3A4E3A4E3A4",
"U c #E8F8E8F8E8F8",
"Y c #EAEFEAEFEAEF",
"T c #EC4EEC4EEC4E",
"R c #F040F040F040",
"E c #F096F096F096",
"W c #F1A2F1A2F1A2",
"Q c #F303F303F303",
"! c #F5BCF5BCF5BC",
"~ c #F76DF76DF76D",
"^ c #F793F793F793",
"/ c #F9EBF9EBF9EB",
"( c #FAC9FAC9FAC9",
") c #FC05FC05FC05",
"_ c #FCA7FCA7FCA7",
"` c #FD7DFD7DFD7D",
"' c #FEDEFEDEFEDE",
"] c gray100",
/* pixels */
"]]]]]]]]]]]]]]]]]]]]]]]]]]]]]]]]",
"]]]]]]]]]]]]]]]]]]]]]]]]]]]]]]]]",
"]]]]]]]]]]]]]]]]]]]]]]]]]]]]]]]]",
"]]]]]]]]]]]]]]]]]]]]]]]]]]]]]]]]",
"]]]]]]]]]]]]]]]]]]]]]]]]]]]]]]]]",
"]]]]]]]]]]]]]]]]]]]]]]]]]]]]]]]]",
"]]]]]]]]]]]]]]]]]]]]]]]]]]]]]]]]",
"]]]]]]]]]]]]]]]]]]]]]]]]]]]]]]]]",
"]]]]]]]]]]]]]]]]]]]]]]]]]]]]]]]]",
"]]]]]]]]]]]]]]]]]]]]]]]]]]]]]]]]",
"]]]]]]]]]]]]]]]]]]]]]]]]]]]]]]]]",
"]]]]]]]]]]]]]/CnD]]LmNW]]]]]]]]]",
"]]]]]]]]]]]]]v@@n]T9X6W]]]]]]]]]",
"]]]]]]]]]]]]G<Xe~]sX&B]]]]]]]]]]",
"]]]]]]]]]]]~eX=A]V&Xu]]]]]]]]]]]",
"]]]]]]]]]]]lOXg]Y3X1L]]]]]]]]]]]",
"]]]]]]]]]]Z:X4T/pXol]]]]]]]]]]]]",
"]]]]]]]]]W6X@m]v@X0~]]]]]]]]]]]]",
"]]]]]]]]]H:X>K]aXXf]]]]]]]]]]]]]",
"]]]]]]]]]]gXXa]L1X:G]]]]]]]]]]]]",
"]]]]]]]]]]WeX&C]m&Xt/]]]]]]]]]]]",
"]]]]]]]]]]]G>X9W]sX@v]]]]]]]]]]]",
"]]]]]]]]]]]]lOXj]Y4X2U]]]]]]]]]]",
"]]]]]]]]]]]]~tX>H]V=Xf]]]]]]]]]]",
"]]]]]]]]]]]]]Lt5x]]k5tU]]]]]]]]]",
"]]]]]]]]]]]]]]///]]]///]]]]]]]]]",
"]]]]]]]]]]]]]]]]]]]]]]]]]]]]]]]]",
"]]]]]]]]]]]]]]]]]]]]]]]]]]]]]]]]",
"]]]]]]]]]]]]]]]]]]]]]]]]]]]]]]]]",
"]]]]]]]]]]]]]]]]]]]]]]]]]]]]]]]]",
"]]]]]]]]]]]]]]]]]]]]]]]]]]]]]]]]",
"]]]]]]]]]]]]]]]]]]]]]]]]]]]]]]]]"
};
