/* XPM */
static const char *x172[] = {
/* columns rows colors chars-per-pixel */
"32 32 24 1",
"  c black",
". c #038C038C038C",
"X c #1A971A971A97",
"o c #1C661C661C66",
"O c #1E281E281E28",
"+ c #38BA38BA38BA",
"@ c #44C644C644C6",
"# c #5E835E835E83",
"$ c #7E0D7E0D7E0D",
"% c #7FF17FF17FF1",
"& c #8F118F118F11",
"* c #A47BA47BA47B",
"= c #BFFFBFFFBFFF",
"- c #C745C745C745",
"; c #E1D7E1D7E1D7",
": c #E399E399E399",
"> c #E568E568E568",
", c #EA73EA73EA73",
"< c #F0EDF0EDF0ED",
"1 c #FADDFADDFADD",
"2 c #FC02FC02FC02",
"3 c #FD7CFD7CFD7C",
"4 c #FF68FF68FF68",
"5 c gray100",
/* pixels */
"55555555555555555555555555555555",
"55555555555555555555555555555555",
"55555555555555555555555555555555",
"55555555555555555555555555555555",
"55555555555555555555555555555555",
"55555555555555555555555555555555",
"55555555555555555555555555555555",
"55555555555555555555555555555555",
"55555555555555555555555555555555",
"55555555555555555555555555555555",
"55555555555522555555555555555555",
"55555555<&%%$$&%%%%%%$=555555555",
"55555555;O            &555555555",
"55555555>+OOOOOOOOOX  $255555555",
"555555552>;;;;;;;;;-X %555555555",
"5555555555555555555;O %555555555",
"5555555555555555555;O %555555555",
"5555555555555555555;O %555555555",
"5555555555555555555;O %555555555",
"5555555555555555555,#@*555555555",
"55555555555555555555222555555555",
"55555555555555555555555555555555",
"55555555555555555555555555555555",
"55555555555555555555555555555555",
"55555555555555555555555555555555",
"55555555555555555555555555555555",
"55555555555555555555555555555555",
"55555555555555555555555555555555",
"55555555555555555555555555555555",
"55555555555555555555555555555555",
"55555555555555555555555555555555",
"55555555555555555555555555555555"
};
