/* XPM */
static const char *x176[] = {
/* columns rows colors chars-per-pixel */
"32 32 59 1",
"  c #08F608F608F6",
". c #0C1C0C1C0C1C",
"X c #0F680F680F68",
"o c #109610961096",
"O c #121712171217",
"+ c #135413541354",
"@ c #14C214C214C2",
"# c #177C177C177C",
"$ c #1A401A401A40",
"% c gray12",
"& c #205C205C205C",
"* c #233623362336",
"= c #27AA27AA27AA",
"- c #2C822C822C82",
"; c #34BC34BC34BC",
": c #36BF36BF36BF",
"> c #38A438A438A4",
", c #44A644A644A6",
"< c #464046404640",
"1 c #56D556D556D5",
"2 c #58C458C458C4",
"3 c #5C665C665C66",
"4 c #637263726372",
"5 c #68DC68DC68DC",
"6 c #6BEC6BEC6BEC",
"7 c #7DC87DC87DC8",
"8 c #7E1D7E1D7E1D",
"9 c #83D683D683D6",
"0 c #841284128412",
"q c #8A458A458A45",
"w c #960B960B960B",
"e c #9A459A459A45",
"r c #A41EA41EA41E",
"t c #A74FA74FA74F",
"y c #B2FEB2FEB2FE",
"u c #B3A1B3A1B3A1",
"i c #B557B557B557",
"p c #B6DDB6DDB6DD",
"a c #BB66BB66BB66",
"s c #BED4BED4BED4",
"d c #C8E8C8E8C8E8",
"f c #CE25CE25CE25",
"g c #D538D538D538",
"h c #D6A8D6A8D6A8",
"j c #DCE0DCE0DCE0",
"k c #DFB8DFB8DFB8",
"l c #E1DCE1DCE1DC",
"z c #E851E851E851",
"x c #E931E931E931",
"c c #E9F6E9F6E9F6",
"v c #EFDAEFDAEFDA",
"b c #F1D4F1D4F1D4",
"n c #F66AF66AF66A",
"m c #FAECFAECFAEC",
"M c #FBA5FBA5FBA5",
"N c #FCB6FCB6FCB6",
"B c #FD85FD85FD85",
"V c #FF20FF20FF20",
"C c gray100",
/* pixels */
"CCCCCCCCCCCCCCCCCCCCCCCCCCCCCCCC",
"CCCCCCCCCCCCCCCCCCCCCCCCCCCCCCCC",
"CCCCCCCCCCCCCCCCCCCCCCCCCCCCCCCC",
"CCCCCCCCCCCCCCCCCCCCCCCCCCCCCCCC",
"CCCCCCCCCCCCCCkpaxCCCCCCCCCCCCCC",
"CCCCCCCCCCCCCe$  :sCCCCCCCCCCCCC",
"CCCCCCCCCCCCr.2ut>*fCCCCCCCCCCCC",
"CCCCCCCCCCCv:<vCCg$6CCCCCCCCCCCC",
"CCCCCCCCCCCl$8CCCM,,MCCCCCCCCCCC",
"CCCCCCCCCCCx=3MCCx=1CCCCCCCCCCCC",
"CCCCCCCCCCCC9.qkg4opCCCCCCCCCCCC",
"CCCCCCCCCCCCb6.#o#wMCCCCCCCCCCCC",
"CCCCCCCCCCCCCnu80dCCCCCCCCCCCCCC",
"CCCCCCCCCCCCCCCCCCCCCCCCCCCCCCCC",
"CCCCCCCCCCCCCCCCCCCCCCCCCCCCCCCC",
"CCCCCCCCCCCCCCCCCCCCCCCCCCCCCCCC",
"CCCCCCCCCCCCCCCCCCCCCCCCCCCCCCCC",
"CCCCCCCCCCCCCCCCCCCCCCCCCCCCCCCC",
"CCCCCCCCCCCCCCCCCCCCCCCCCCCCCCCC",
"CCCCCCCCCCCCCCCCCCCCCCCCCCCCCCCC",
"CCCCCCCCCCCCCCCCCCCCCCCCCCCCCCCC",
"CCCCCCCCCCCCCCCCCCCCCCCCCCCCCCCC",
"CCCCCCCCCCCCCCCCCCCCCCCCCCCCCCCC",
"CCCCCCCCCCCCCCCCCCCCCCCCCCCCCCCC",
"CCCCCCCCCCCCCCCCCCCCCCCCCCCCCCCC",
"CCCCCCCCCCCCCCCCCCCCCCCCCCCCCCCC",
"CCCCCCCCCCCCCCCCCCCCCCCCCCCCCCCC",
"CCCCCCCCCCCCCCCCCCCCCCCCCCCCCCCC",
"CCCCCCCCCCCCCCCCCCCCCCCCCCCCCCCC",
"CCCCCCCCCCCCCCCCCCCCCCCCCCCCCCCC",
"CCCCCCCCCCCCCCCCCCCCCCCCCCCCCCCC",
"CCCCCCCCCCCCCCCCCCCCCCCCCCCCCCCC"
};
