/* XPM */
static const char *x177[] = {
/* columns rows colors chars-per-pixel */
"32 32 23 1",
"  c black",
". c #015A015A015A",
"X c #04B704B704B7",
"o c #1E231E231E23",
"O c #342B342B342B",
"+ c #478E478E478E",
"@ c #48F648F648F6",
"# c #4A244A244A24",
"$ c #4CC84CC84CC8",
"% c #5E835E835E83",
"& c #7D587D587D58",
"* c #825D825D825D",
"= c #B371B371B371",
"- c #B708B708B708",
"; c #D67ED67ED67E",
": c #DB83DB83DB83",
"> c #E1DCE1DCE1DC",
", c #EA73EA73EA73",
"< c #FAF7FAF7FAF7",
"1 c #FB91FB91FB91",
"2 c #FD17FD17FD17",
"3 c #FF50FF50FF50",
"4 c gray100",
/* pixels */
"44444444444444444444444444444444",
"44444444444444444444444444444444",
"44444444444444444444444444444444",
"44444444444444444444444444444444",
"44444444444444444444444444444444",
"44444444444444444444444444444444",
"44444444444444444444444444444444",
"44444444444444444444444444444444",
"44444444444444:**:44444444444444",
"44444444444444=XX=44444444444444",
"44444444444444-XX=44444444444444",
"44444444444444-XX-44444444444444",
"44444444444444=XX-44444444444444",
"44444444411114=XX=41111444444444",
"44444444,%+@+@O  O@@@+%,44444444",
"44444444>o            o>44444444",
"44444444,%+@@@OX O$@++%,44444444",
"44444444411114=XX=41111444444444",
"44444444444444-XX-44444444444444",
"44444444444444-XX=44444444444444",
"44444444444444=XX-44444444444444",
"44444444444444=XX-44444444444444",
"44444444411114;&&:41111444444444",
"44444444,%++@@@$$@+@++%,44444444",
"44444444:o            o:44444444",
"44444444,%@@@@@@@@@@@@%,44444444",
"44444444411111111111111444444444",
"44444444444444444444444444444444",
"44444444444444444444444444444444",
"44444444444444444444444444444444",
"44444444444444444444444444444444",
"44444444444444444444444444444444"
};
