/* XPM */
static const char *x179[] = {
/* columns rows colors chars-per-pixel */
"32 32 63 1",
"  c #001400140014",
". c #00D400D400D4",
"X c #01F501F501F5",
"o c #077307730773",
"O c #092709270927",
"+ c #0D660D660D66",
"@ c #0EE70EE70EE7",
"# c #0FC70FC70FC7",
"$ c #158E158E158E",
"% c #162B162B162B",
"& c #16D316D316D3",
"* c #200720072007",
"= c #226622662266",
"- c #24D424D424D4",
"; c #277B277B277B",
": c #3A713A713A71",
"> c #3AF73AF73AF7",
", c #439E439E439E",
"< c #479947994799",
"1 c #53B153B153B1",
"2 c #566E566E566E",
"3 c #5C545C545C54",
"4 c #6AFB6AFB6AFB",
"5 c #6F6D6F6D6F6D",
"6 c #753375337533",
"7 c #769E769E769E",
"8 c #7A1F7A1F7A1F",
"9 c #802980298029",
"0 c #86EE86EE86EE",
"q c #87AD87AD87AD",
"w c #932593259325",
"e c #A21AA21AA21A",
"r c #AFBCAFBCAFBC",
"t c #B53BB53BB53B",
"y c #B65BB65BB65B",
"u c #B7D8B7D8B7D8",
"i c #BB6CBB6CBB6C",
"p c #BEAEBEAEBEAE",
"a c #C4ECC4ECC4EC",
"s c #C5B7C5B7C5B7",
"d c #CC00CC00CC00",
"f c #CCDBCCDBCCDB",
"g c #CF12CF12CF12",
"h c #D610D610D610",
"j c #DA9ADA9ADA9A",
"k c #DCCADCCADCCA",
"l c #DDDFDDDFDDDF",
"z c #E1EEE1EEE1EE",
"x c #E4DDE4DDE4DD",
"c c #E56AE56AE56A",
"v c #EBFDEBFDEBFD",
"b c #ED5DED5DED5D",
"n c #EF47EF47EF47",
"m c #EFA9EFA9EFA9",
"M c #F080F080F080",
"N c #F35EF35EF35E",
"B c #F3D8F3D8F3D8",
"V c #F5CDF5CDF5CD",
"C c #F7D5F7D5F7D5",
"Z c #FBD3FBD3FBD3",
"A c #FCF2FCF2FCF2",
"S c #FDFCFDFCFDFC",
"D c gray100",
/* pixels */
"DDDDDDDDDDDDDDDDDDDDDDDDDDDDDDDD",
"DDDDDDDDDDDDDDDDDDDDDDDDDDDDDDDD",
"DDDDDDDDDDDDDDDDDDDDDDDDDDDDDDDD",
"DDDDDDDDDDDDDDDDDDDDDDDDDDDDDDDD",
"DDDDDDDDDDDDDCfttdMDDDDDDDDDDDDD",
"DDDDDDDDDDDDj2#  @,aDDDDDDDDDDDD",
"DDDDDDDDDDDC3 $55$ >mDDDDDDDDDDD",
"DDDDDDDDDDDz1=0DD5 =zDDDDDDDDDDD",
"DDDDDDDDDDDDCxCva> 6ZDDDDDDDDDDD",
"DDDDDDDDDDDDDDC2o@6mDDDDDDDDDDDD",
"DDDDDDDDDDDDDDMw6-&9ZDDDDDDDDDDD",
"DDDDDDDDDDDZMxZDDe $fDDDDDDDDDDD",
"DDDDDDDDDDDt>-tDD0 oiDDDDDDDDDDD",
"DDDDDDDDDDDj- =84@ <vDDDDDDDDDDD",
"DDDDDDDDDDDDp>@  $1kDDDDDDDDDDDD",
"DDDDDDDDDDDDDmftthCDDDDDDDDDDDDD",
"DDDDDDDDDDDDDDDDDDDDDDDDDDDDDDDD",
"DDDDDDDDDDDDDDDDDDDDDDDDDDDDDDDD",
"DDDDDDDDDDDDDDDDDDDDDDDDDDDDDDDD",
"DDDDDDDDDDDDDDDDDDDDDDDDDDDDDDDD",
"DDDDDDDDDDDDDDDDDDDDDDDDDDDDDDDD",
"DDDDDDDDDDDDDDDDDDDDDDDDDDDDDDDD",
"DDDDDDDDDDDDDDDDDDDDDDDDDDDDDDDD",
"DDDDDDDDDDDDDDDDDDDDDDDDDDDDDDDD",
"DDDDDDDDDDDDDDDDDDDDDDDDDDDDDDDD",
"DDDDDDDDDDDDDDDDDDDDDDDDDDDDDDDD",
"DDDDDDDDDDDDDDDDDDDDDDDDDDDDDDDD",
"DDDDDDDDDDDDDDDDDDDDDDDDDDDDDDDD",
"DDDDDDDDDDDDDDDDDDDDDDDDDDDDDDDD",
"DDDDDDDDDDDDDDDDDDDDDDDDDDDDDDDD",
"DDDDDDDDDDDDDDDDDDDDDDDDDDDDDDDD",
"DDDDDDDDDDDDDDDDDDDDDDDDDDDDDDDD"
};
