/* XPM */
static const char *x184[] = {
/* columns rows colors chars-per-pixel */
"32 32 34 1",
"  c #002100210021",
". c #0C650C650C65",
"X c #0F190F190F19",
"o c #1BCC1BCC1BCC",
"O c #1FEB1FEB1FEB",
"+ c #2D772D772D77",
"@ c #2DF92DF92DF9",
"# c #300330033003",
"$ c #326B326B326B",
"% c #368436843684",
"& c #4F124F124F12",
"* c #57FC57FC57FC",
"= c #633563356335",
"- c #763176317631",
"; c #78BB78BB78BB",
": c #82E282E282E2",
"> c #86BF86BF86BF",
", c #A940A940A940",
"< c #BB30BB30BB30",
"1 c #BD2DBD2DBD2D",
"2 c #BDDFBDDFBDDF",
"3 c #BEEBBEEBBEEB",
"4 c #C43BC43BC43B",
"5 c #C77CC77CC77C",
"6 c #CC14CC14CC14",
"7 c #D142D142D142",
"8 c #D43BD43BD43B",
"9 c #E277E277E277",
"0 c #E527E527E527",
"q c #F11CF11CF11C",
"w c #F6FCF6FCF6FC",
"e c #FD61FD61FD61",
"r c #FEF4FEF4FEF4",
"t c gray100",
/* pixels */
"tttttttttttttttttttttttttttttttt",
"tttttttttttttttttttttttttttttttt",
"tttttttttttttttttttttttttttttttt",
"tttttttttttttttttttttttttttttttt",
"tttttttttttttttttttttttttttttttt",
"tttttttttttttttttttttttttttttttt",
"tttttttttttttttttttttttttttttttt",
"tttttttttttttttttttttttttttttttt",
"tttttttttttttttttttttttttttttttt",
"tttttttttttttttttttttttttttttttt",
"tttttttttttttttttttttttttttttttt",
"tttttttttttttttttttttttttttttttt",
"tttttttttttttttttttttttttttttttt",
"tttttttttttttttttttttttttttttttt",
"tttttttttttttttttttttttttttttttt",
"tttttttttttttttttttttttttttttttt",
"tttttttttttttttttttttttttttttttt",
"tttttttttttttttttttttttttttttttt",
"tttttttttttttttttttttttttttttttt",
"tttttttttttttttttttttttttttttttt",
"tttttttttttttttttttttttttttttttt",
"tttttttttttttttttttttttttttttttt",
"tttttttttttttttttttttttttttttttt",
"tttttttttttttttttttttttttttttttt",
"tttttttttttttttttttttttttttttttt",
"ttttttttttttttw36ttttttttttttttt",
"tttttttttttttt3.-ttttttttttttttt",
"tttttttttttttt: +>qttttttttttttt",
"tttttttttttttt8,% ;ttttttttttttt",
"ttttttttttttw907& *ttttttttttttt",
"tttttttttttt3OoX o<ttttttttttttt",
"tttttttttttt4#+#=4tttttttttttttt"
};
