/* XPM */
static const char *x185[] = {
/* columns rows colors chars-per-pixel */
"32 32 32 1",
"  c black",
". c #046704670467",
"X c #0EED0EED0EED",
"o c #132113211321",
"O c #1E231E231E23",
"+ c #1EC91EC91EC9",
"@ c #229122912291",
"# c #22FA22FA22FA",
"$ c #247E247E247E",
"% c #391639163916",
"& c #446D446D446D",
"* c #7B637B637B63",
"= c #7FFF7FFF7FFF",
"- c gray51",
"; c #9CD69CD69CD6",
": c #B4D2B4D2B4D2",
"> c #B55CB55CB55C",
", c #B8E1B8E1B8E1",
"< c #BED9BED9BED9",
"1 c #BF9FBF9FBF9F",
"2 c #CACCCACCCACC",
"3 c #D3C4D3C4D3C4",
"4 c #DB83DB83DB83",
"5 c #DD17DD17DD17",
"6 c #E1DEE1DEE1DE",
"7 c #E273E273E273",
"8 c #F500F500F500",
"9 c #F768F768F768",
"0 c #F7DCF7DCF7DC",
"q c #FDA4FDA4FDA4",
"w c #FED7FED7FED7",
"e c gray100",
/* pixels */
"eeeeeeeeeeeeeeeeeeeeeeeeeeeeeeee",
"eeeeeeeeeeeeeeeeeeeeeeeeeeeeeeee",
"eeeeeeeeeeeeeeeeeeeeeeeeeeeeeeee",
"eeeeeeeeeeeeeeeeeeeeeeeeeeeeeeee",
"eeeeeeeeeeeeeeee3>4eeeeeeeeeeeee",
"eeeeeeeeeeeeeee>@.-eeeeeeeeeeeee",
"eeeeeeeeeeeee4*o..*eeeeeeeeeeeee",
"eeeeeeeeeeee2@.%X.=eeeeeeeeeeeee",
"eeeeeeeeeeee<&;3O.=eeeeeeeeeeeee",
"eeeeeeeeeeee98e7O.=eeeeeeeeeeeee",
"eeeeeeeeeeeeeee7O.=eeeeeeeeeeeee",
"eeeeeeeeeeeeeee7O.=eeeeeeeeeeeee",
"eeeeeeeeeeeeeee7O.*eeeeeeeeeeeee",
"eeeeeeeeeeeeeee7O.=eeeeeeeeeeeee",
"eeeeeeeeeeeeeee7+.-eeeeeeeeeeeee",
"eeeeeeeeeeeeeee9<:4eeeeeeeeeeeee",
"eeeeeeeeeeeeeeeeeeeeeeeeeeeeeeee",
"eeeeeeeeeeeeeeeeeeeeeeeeeeeeeeee",
"eeeeeeeeeeeeeeeeeeeeeeeeeeeeeeee",
"eeeeeeeeeeeeeeeeeeeeeeeeeeeeeeee",
"eeeeeeeeeeeeeeeeeeeeeeeeeeeeeeee",
"eeeeeeeeeeeeeeeeeeeeeeeeeeeeeeee",
"eeeeeeeeeeeeeeeeeeeeeeeeeeeeeeee",
"eeeeeeeeeeeeeeeeeeeeeeeeeeeeeeee",
"eeeeeeeeeeeeeeeeeeeeeeeeeeeeeeee",
"eeeeeeeeeeeeeeeeeeeeeeeeeeeeeeee",
"eeeeeeeeeeeeeeeeeeeeeeeeeeeeeeee",
"eeeeeeeeeeeeeeeeeeeeeeeeeeeeeeee",
"eeeeeeeeeeeeeeeeeeeeeeeeeeeeeeee",
"eeeeeeeeeeeeeeeeeeeeeeeeeeeeeeee",
"eeeeeeeeeeeeeeeeeeeeeeeeeeeeeeee",
"eeeeeeeeeeeeeeeeeeeeeeeeeeeeeeee"
};
