/* XPM */
static const char *x186[] = {
/* columns rows colors chars-per-pixel */
"32 32 33 1",
"  c black",
". c #00D900D900D9",
"X c #01BA01BA01BA",
"o c #035E035E035E",
"O c #0EC00EC00EC0",
"+ c #113D113D113D",
"@ c #168A168A168A",
"# c #1D051D051D05",
"$ c #1E231E231E23",
"% c #221E221E221E",
"& c #265126512651",
"* c #6BA96BA96BA9",
"= c #74A974A974A9",
"- c #7A777A777A77",
"; c #7FFF7FFF7FFF",
": c #807E807E807E",
"> c #84DC84DC84DC",
", c #851485148514",
"< c #9B849B849B84",
"1 c #9C5B9C5B9C5B",
"2 c #B71FB71FB71F",
"3 c #BB6BBB6BBB6B",
"4 c #CB5ECB5ECB5E",
"5 c #CF67CF67CF67",
"6 c #D8C8D8C8D8C8",
"7 c #DCE9DCE9DCE9",
"8 c #E1DCE1DCE1DC",
"9 c #E413E413E413",
"0 c #F12AF12AF12A",
"q c #FC45FC45FC45",
"w c #FE2AFE2AFE2A",
"e c #FEC8FEC8FEC8",
"r c gray100",
/* pixels */
"rrrrrrrrrrrrrrrrrrrrrrrrrrrrrrrr",
"rrrrrrrrrrrrrrrrrrrrrrrrrrrrrrrr",
"rrrrrrrrrrrrrrrrrrrrrrrrrrrrrrrr",
"rrrrrrrrrrrrrrrrrrrrrrrrrrrrrrrr",
"rrrrrrrrrrrrrr9339rrrrrrrrrrrrrr",
"rrrrrrrrrrrr0>&  &>0rrrrrrrrrrrr",
"rrrrrrrrrrrr; O**O ;rrrrrrrrrrrr",
"rrrrrrrrrrr6$ -rr- $6rrrrrrrrrrr",
"rrrrrrrrrrr1 +4rr4+ <rrrrrrrrrrr",
"rrrrrrrrrrr; $9rr9$ ;rrrrrrrrrrr",
"rrrrrrrrrrr; $9rr9$ ;rrrrrrrrrrr",
"rrrrrrrrrrr< O4rr4+ <rrrrrrrrrrr",
"rrrrrrrrrrr5@ -rq- $6rrrrrrrrrrr",
"rrrrrrrrrrrq= +**O ;qrrrrrrrrrrr",
"rrrrrrrrrrrr0>&  %>0rrrrrrrrrrrr",
"rrrrrrrrrrrrrr9327rrrrrrrrrrrrrr",
"rrrrrrrrrrrrrrrrrrrrrrrrrrrrrrrr",
"rrrrrrrrrrrrrrrrrrrrrrrrrrrrrrrr",
"rrrrrrrrrrrrrrrrrrrrrrrrrrrrrrrr",
"rrrrrrrrrrrrrrrrrrrrrrrrrrrrrrrr",
"rrrrrrrrrrrrrrrrrrrrrrrrrrrrrrrr",
"rrrrrrrrrrrrrrrrrrrrrrrrrrrrrrrr",
"rrrrrrrrrrrrrrrrrrrrrrrrrrrrrrrr",
"rrrrrrrrrrrrrrrrrrrrrrrrrrrrrrrr",
"rrrrrrrrrrrrrrrrrrrrrrrrrrrrrrrr",
"rrrrrrrrrrrrrrrrrrrrrrrrrrrrrrrr",
"rrrrrrrrrrrrrrrrrrrrrrrrrrrrrrrr",
"rrrrrrrrrrrrrrrrrrrrrrrrrrrrrrrr",
"rrrrrrrrrrrrrrrrrrrrrrrrrrrrrrrr",
"rrrrrrrrrrrrrrrrrrrrrrrrrrrrrrrr",
"rrrrrrrrrrrrrrrrrrrrrrrrrrrrrrrr",
"rrrrrrrrrrrrrrrrrrrrrrrrrrrrrrrr"
};
