/* XPM */
static const char *x188[] = {
/* columns rows colors chars-per-pixel */
"32 32 91 1",
"  c #000500050005",
". c #014601460146",
"X c #023402340234",
"o c #02D502D502D5",
"O c #046704670467",
"+ c #04C004C004C0",
"@ c #065E065E065E",
"# c #06E906E906E9",
"$ c #0B0A0B0A0B0A",
"% c #0E4D0E4D0E4D",
"& c #0EC20EC20EC2",
"* c #132113211321",
"= c #140314031403",
"- c #14DC14DC14DC",
"; c #164016401640",
": c #1CEC1CEC1CEC",
"> c #1E231E231E23",
", c #1EEB1EEB1EEB",
"< c #226822682268",
"1 c #22FA22FA22FA",
"2 c #247E247E247E",
"3 c #268F268F268F",
"4 c #280528052805",
"5 c #2E0D2E0D2E0D",
"6 c #312331233123",
"7 c #326A326A326A",
"8 c #337333733373",
"9 c #37CA37CA37CA",
"0 c #391639163916",
"q c #3CB43CB43CB4",
"w c #446D446D446D",
"e c #45A045A045A0",
"r c #464F464F464F",
"t c #472A472A472A",
"y c #4FAD4FAD4FAD",
"u c #50BD50BD50BD",
"i c #515A515A515A",
"p c #5E345E345E34",
"a c #5F095F095F09",
"s c #611561156115",
"d c #65D865D865D8",
"f c #684668466846",
"g c #6F706F706F70",
"h c #73ED73ED73ED",
"j c #7AF17AF17AF1",
"k c #7B4A7B4A7B4A",
"l c #7FE67FE67FE6",
"z c #807C807C807C",
"x c #825782578257",
"c c #842284228422",
"v c #879787978797",
"b c #8C518C518C51",
"n c #979B979B979B",
"m c #9CD69CD69CD6",
"M c #A367A367A367",
"N c #B035B035B035",
"B c #B3A4B3A4B3A4",
"V c #B4D2B4D2B4D2",
"C c #B55CB55CB55C",
"Z c #B706B706B706",
"A c #B8BDB8BDB8BD",
"S c #B969B969B969",
"D c #BAE8BAE8BAE8",
"F c #BED3BED3BED3",
"G c #BF9FBF9FBF9F",
"H c #C67FC67FC67F",
"J c #CACCCACCCACC",
"K c #CC38CC38CC38",
"L c #CD18CD18CD18",
"P c #D3C4D3C4D3C4",
"I c #D64DD64DD64D",
"U c #DB84DB84DB84",
"Y c #DCD7DCD7DCD7",
"T c #E1F5E1F5E1F5",
"R c #E26EE26EE26E",
"E c #E3A9E3A9E3A9",
"W c #E466E466E466",
"Q c #EA41EA41EA41",
"! c #EADCEADCEADC",
"~ c #F046F046F046",
"^ c #F10FF10FF10F",
"/ c #F348F348F348",
"( c #F4D8F4D8F4D8",
") c #F769F769F769",
"_ c #F79CF79CF79C",
"` c #FAE5FAE5FAE5",
"' c #FBFBFBFBFBFB",
"] c #FD61FD61FD61",
"[ c #FE18FE18FE18",
"{ c #FF1FFF1FFF1F",
"} c gray100",
/* pixels */
"}}}}}}}}}}}}}}}}}}}}}}}}}}}}}}}}",
"}}}}}}}}}}}}}}}}}}}}}}}}}}}}}}}}",
"}}}}}}}}}}}}}}}}}}}}}}}}}}}}}}}}",
"}}}}}}}}}}}}}}}}}}}}}}}}}}}}}}}}",
"}}}}}}}}}PVY}}}}}}}}}}TVS~}}}}}}",
"}}}}}}}}S2 z}}}}}}}}}^u s)}}}}}}",
"}}}}}}Uj*  l}}}}}}}}}b 8U}}}}}}}",
"}}}}}J1O0& l}}}}}}}}F*&B}}}}}}}}",
"}}}}}FwmP, z}}}}}}}Tq l}}}}}}}}}",
"}}}}}))}Y, l}}}}}}`g wQ}}}}}}}}}",
"}}}}}}}}T, l}}}}}}M&,J}}}}}}}}}}",
"}}}}}}}}T, z}}}}}L1On}}}}}}}}}}}",
"}}}}}}}}T, z}}}}~y f)}}}}}}}}}}}",
"}}}}}}}}Y, z}}}}z 8T}}}}}}}}}}}}",
"}}}}}}}}T1 z}}}S**S}}}}}}}}}}}}}",
"}}}}}}}})HBU}}T8 l}}}}}TbzU}}}}}",
"}}}}}}}}}}}}})d u~}}}}^d OS}}}}}",
"}}}}}}}}}}}}}mO1L}}}}}bO OV}}}}}",
"}}}}}}}}}}}}J,$M}}}}}S;; OV}}}}}",
"}}}}}}}}}}}Qw h`}}}}I42c$OS}}}}}",
"}}}}}}}}}}}l qT}}}}Qw*BVOOV}}}}}",
"}}}}}}}}}}N&*F}}}}`h j}BOOB}}}}}",
"}}}}}}}}}Y8 b}}}}}T1O0t8  5j`}}}",
"}}}}}}}})a y^}}}}}Qawww8O 5j}}}}",
"}}}}}}}}nO4I}}}}}}}```}BOOB}}}}}",
"}}}}}}}H,&M}}}}}}}}}}}}F11F}}}}}",
"}}}}}}}UBH`}}}}}}}}}}}})TT)}}}}}",
"}}}}}}}}}}}}}}}}}}}}}}}}}}}}}}}}",
"}}}}}}}}}}}}}}}}}}}}}}}}}}}}}}}}",
"}}}}}}}}}}}}}}}}}}}}}}}}}}}}}}}}",
"}}}}}}}}}}}}}}}}}}}}}}}}}}}}}}}}",
"}}}}}}}}}}}}}}}}}}}}}}}}}}}}}}}}"
};
