/* XPM */
static const char *x191[] = {
/* columns rows colors chars-per-pixel */
"32 32 73 1",
"  c #000100010001",
". c #013701370137",
"X c #019601960196",
"o c #033603360336",
"O c #051405140514",
"+ c #07D607D607D6",
"@ c #093F093F093F",
"# c #0DF80DF80DF8",
"$ c #0ED50ED50ED5",
"% c #125712571257",
"& c #151D151D151D",
"* c #16FE16FE16FE",
"= c #1B971B971B97",
"- c #1BEC1BEC1BEC",
"; c #203920392039",
": c #22E122E122E1",
"> c #244A244A244A",
", c #29B029B029B0",
"< c #2DDE2DDE2DDE",
"1 c #2F972F972F97",
"2 c #386B386B386B",
"3 c #446444644464",
"4 c #48E048E048E0",
"5 c #4A644A644A64",
"6 c #4BF44BF44BF4",
"7 c #4E914E914E91",
"8 c #52EC52EC52EC",
"9 c #658D658D658D",
"0 c #66C266C266C2",
"q c #7AF77AF77AF7",
"w c #7B4E7B4E7B4E",
"e c #810481048104",
"r c #825D825D825D",
"t c #8D318D318D31",
"y c #8F7E8F7E8F7E",
"u c #92FE92FE92FE",
"i c #944B944B944B",
"p c #95A295A295A2",
"a c #962096209620",
"s c #9A6F9A6F9A6F",
"d c #9D6E9D6E9D6E",
"f c #A389A389A389",
"g c #A4D3A4D3A4D3",
"h c #A550A550A550",
"j c #AB4EAB4EAB4E",
"k c #AC63AC63AC63",
"l c #B708B708B708",
"z c #B862B862B862",
"x c #B969B969B969",
"c c #BC13BC13BC13",
"v c #BDA8BDA8BDA8",
"b c #BF5FBF5FBF5F",
"n c #CCFCCCFCCCFC",
"m c #D4E7D4E7D4E7",
"M c #D763D763D763",
"N c #D946D946D946",
"B c #D9BCD9BCD9BC",
"V c #DB89DB89DB89",
"C c #DD00DD00DD00",
"Z c #DD86DD86DD86",
"A c #DFC6DFC6DFC6",
"S c #E506E506E506",
"D c #E7F9E7F9E7F9",
"F c #EB0CEB0CEB0C",
"G c #EBD3EBD3EBD3",
"H c #F03EF03EF03E",
"J c gray96",
"K c #F8D1F8D1F8D1",
"L c #FB72FB72FB72",
"P c #FC4AFC4AFC4A",
"I c #FCF5FCF5FCF5",
"U c #FDA8FDA8FDA8",
"Y c gray100",
/* pixels */
"YYYYYYYYYYYYYYYYYYYYYYYYYYYYYYYY",
"YYYYYYYYYYYYYYYYYYYYYYYYYYYYYYYY",
"YYYYYYYYYYYYYYYYYYYYYYYYYYYYYYYY",
"YYYYYYYYYYYYYYYYYYYYYYYYYYYYYYYY",
"YYYYYYYYYYYYYYYYYYYYYYYYYYYYYYYY",
"YYYYYYYYYYYYYYYYYYYYYYYYYYYYYYYY",
"YYYYYYYYYYYYYYYYYYYYYYYYYYYYYYYY",
"YYYYYYYYYYYYYYYYYYYYYYYYYYYYYYYY",
"YYYYYYYYYYYYYYYYYYYYYYYYYYYYYYYY",
"YYYYYYYYYYYYYYYYYYYYYYYYYYYYYYYY",
"YYYYYYYYYYYYYYFzzFYYYYYYYYYYYYYY",
"YYYYYYYYYYYYYYz@@zYYYYYYYYYYYYYY",
"YYYYYYYYYYYYYYz@@zYYYYYYYYYYYYYY",
"YYYYYYYYYYYYYYFzzFYYYYYYYYYYYYYY",
"YYYYYYYYYYYYYYYYYYYYYYYYYYYYYYYY",
"YYYYYYYYYYYYYYVrrVYYYYYYYYYYYYYY",
"YYYYYYYYYYYYYYlOOlYYYYYYYYYYYYYY",
"YYYYYYYYYYYYYYs @zYYYYYYYYYYYYYY",
"YYYYYYYYYYYYYJ7 ;AYYYYYYYYYYYYYY",
"YYYYYYYYYYYYPu@ 0PYYYYYYYYYYYYYY",
"YYYYYYYYYYYYi% ,MYYYYYYYYYYYYYYY",
"YYYYYYYYYYYi# ;bYYYYYYYYYYYYYYYY",
"YYYYYYYYYYl* ;bYYYYYYYYYYYYYYYYY",
"YYYYYYYYYF2 >zYYYYYYYYYYYYYYYYYY",
"YYYYYYYYYjOOhYYYYYYYYYYYYYYYYYYY",
"YYYYYYYYYr =AYYYYYYFthVYYYYYYYYY",
"YYYYYYYYYr *mYYYYYYjOOdYYYYYYYYY",
"YYYYYYYYYkO qPYYYYH5 %nYYYYYYYYY",
"YYYYYYYYYS1 %wVPPM0  8JYYYYYYYYY",
"YYYYYYYYYYf#  ;53=  >nYYYYYYYYYY",
"YYYYYYYYYYPf,     O2bYYYYYYYYYYY",
"YYYYYYYYYYYYVu7117iFYYYYYYYYYYYY"
};
