/* XPM */
static const char *x198[] = {
/* columns rows colors chars-per-pixel */
"32 32 70 1",
"  c black",
". c #00BD00BD00BD",
"X c #037F037F037F",
"o c #043C043C043C",
"O c #04C204C204C2",
"+ c #089708970897",
"@ c #0A7A0A7A0A7A",
"# c #0BF90BF90BF9",
"$ c #0F120F120F12",
"% c #155815581558",
"& c #1BBC1BBC1BBC",
"* c #1D8C1D8C1D8C",
"= c #1E201E201E20",
"- c #1ED91ED91ED9",
"; c #223D223D223D",
": c #230323032303",
"> c #243824382438",
", c #319331933193",
"< c #34B334B334B3",
"1 c #371337133713",
"2 c #393639363936",
"3 c #406040604060",
"4 c #42BE42BE42BE",
"5 c #460146014601",
"6 c #478947894789",
"7 c #487348734873",
"8 c #490049004900",
"9 c #49E849E849E8",
"0 c #4BF44BF44BF4",
"q c #4D084D084D08",
"w c #65EB65EB65EB",
"e c #685B685B685B",
"r c #6A1F6A1F6A1F",
"t c #70ED70ED70ED",
"y c #7D227D227D22",
"u c #7EED7EED7EED",
"i c #7FFB7FFB7FFB",
"p c #80E980E980E9",
"a c #826A826A826A",
"s c #93F493F493F4",
"d c #9A149A149A14",
"f c #9A3F9A3F9A3F",
"g c #9F7A9F7A9F7A",
"h c #A17CA17CA17C",
"j c #B2F7B2F7B2F7",
"k c #B528B528B528",
"l c #B5ECB5ECB5EC",
"z c #B708B708B708",
"x c #B871B871B871",
"c c #BD41BD41BD41",
"v c #BF9FBF9FBF9F",
"b c #C8ECC8ECC8EC",
"n c #DA05DA05DA05",
"m c #DBAEDBAEDBAE",
"M c #DD6EDD6EDD6E",
"N c #E15DE15DE15D",
"B c #E1DCE1DCE1DC",
"V c #E273E273E273",
"C c #E5F6E5F6E5F6",
"Z c #E696E696E696",
"A c #E9F7E9F7E9F7",
"S c #EA70EA70EA70",
"D c #F406F406F406",
"F c #F5B1F5B1F5B1",
"G c #F768F768F768",
"H c gray98",
"J c #FC51FC51FC51",
"K c #FCBFFCBFFCBF",
"L c #FF31FF31FF31",
"P c gray100",
/* pixels */
"PPPPPPPPPPPPPPPPPPPPPPPPPPPPPPPP",
"PPPPPPPPPPPPPPPPPPPPPPPPPPPPPPPP",
"PPPPPPPPPPPPPPPPPPPPPPPPPPPPPPPP",
"PPPPPPPPPPPPPPPPPPPPPPPPPPPPPPPP",
"PPPPPPPPPPPSBBBBBBBBBBBBBBBBFPPP",
"PPPPPPPPPPS5&==============:bHPP",
"PPPPPPPPPPf                OlPPP",
"PPPPPPPPPD5 @ep> $tppiiiipppnPPP",
"PPPPPPPPPj@ qFH7 =BPPPPPPPPPPPPP",
"PPPPPPPPFq @jPH7 =BPPPPPPPPPPPPP",
"PPPPPPPPj@ qFPH7 =BPPPPPPPPPPPPP",
"PPPPPPPFq @jPPH7 =BPPPPPPPPPPPPP",
"PPPPPPPj@ qFPPH7 =BPPPPPPPPPPPPP",
"PPPPPPFq  gPPPH7 %gccllllllMPPPP",
"PPPPPPc@ 2SPPPH7   OOOOOOO pPPPP",
"PPPPPPw OfPPPPH7  OOOOOOOO pPPPP",
"PPPPPb% <ZPPHHF7 %hclllllclnPPPP",
"PPPPPw  =757775% =BPPPPPPPPPPPPP",
"PPPPb%           =BPPPPPPPPPPPPP",
"PPPHw O27777775% =BPPPPPPPPPPPPP",
"PPPb% ,ZPHHHHHF7 =BPPPPPPPPPPPPP",
"PPPe  pPPPPPPPH7 =BPPPPPPPPPPPPP",
"PPn> >nPPPPPPPH7 =nPHHHHHHHHHPPP",
"PPp  pPPPPPPPPH7 @3777777775iHPP",
"Pn: >nPPPPPPPPH7            7HPP",
"Pl75sPPPPPPPPPHi577777777775iHPP",
"PHHHPPPPPPPPPPPHHHHHHHHHHHHHHPPP",
"PPPPPPPPPPPPPPPPPPPPPPPPPPPPPPPP",
"PPPPPPPPPPPPPPPPPPPPPPPPPPPPPPPP",
"PPPPPPPPPPPPPPPPPPPPPPPPPPPPPPPP",
"PPPPPPPPPPPPPPPPPPPPPPPPPPPPPPPP",
"PPPPPPPPPPPPPPPPPPPPPPPPPPPPPPPP"
};
