/* XPM */
static const char *x206[] = {
/* columns rows colors chars-per-pixel */
"32 32 20 1",
"  c black",
". c gray2",
"X c #1A741A741A74",
"o c #229122912291",
"O c #45FB45FB45FB",
"+ c #4C8E4C8E4C8E",
"@ c #7FFF7FFF7FFF",
"# c #8F118F118F11",
"$ c #A47BA47BA47B",
"% c #B708B708B708",
"& c #BF9FBF9FBF9F",
"* c #CBD4CBD4CBD4",
"= c #E15EE15EE15E",
"- c #E273E273E273",
"; c #F0EDF0EDF0ED",
": c #F768F768F768",
"> c #FAFCFAFCFAFC",
", c #FD7CFD7CFD7C",
"< c #FE91FE91FE91",
"1 c gray100",
/* pixels */
"11111111111111111111111111111111",
"11111111111111111111111111111111",
"11111111111111111111111111111111",
"11111111111111111111111111111111",
"11111111111111;==:11111111111111",
"11111111111111#Xo&11111111111111",
"11111111111111@ .%11111111111111",
"11111111111111@ .%11111111111111",
"11111111111111@ .%11111111111111",
"11111111111111@ .%11111111111111",
"11111111111111@ .%11111111111111",
"11111111111111@ .%11111111111111",
"11111111111111@ .%11111111111111",
"11111111111111@ .%11111111111111",
"11111111111111@ .%11111111111111",
"11111111111111@ .%11111111111111",
"11111111111111@ .%11111111111111",
"11111111111111@ .%11111111111111",
"11111111111111@ .%11111111111111",
"11111111111111@ .%11111111111111",
"11111111111111@ .%11111111111111",
"11111111111111@ .%11111111111111",
"11111111111111@ .%11111111111111",
"11111111111111@ .%11111111111111",
"11111111111111@ .%11111111111111",
"11111111111111$O+*11111111111111",
"111111111111111>>111111111111111",
"11111111111111111111111111111111",
"11111111111111111111111111111111",
"11111111111111111111111111111111",
"11111111111111111111111111111111",
"11111111111111111111111111111111"
};
