/* XPM */
static const char *x207[] = {
/* columns rows colors chars-per-pixel */
"32 32 28 1",
"  c black",
". c gray2",
"X c #16AD16AD16AD",
"o c #1A861A861A86",
"O c #229022902290",
"+ c #45FB45FB45FB",
"@ c #48F748F748F7",
"# c #4C8E4C8E4C8E",
"$ c #5E835E835E83",
"% c #5EEF5EEF5EEF",
"& c #7CC87CC87CC8",
"* c #7FFF7FFF7FFF",
"= c #8F7E8F7E8F7E",
"- c #A47BA47BA47B",
"; c #A52EA52EA52E",
": c #B708B708B708",
"> c #BF9FBF9FBF9F",
", c #CBD4CBD4CBD4",
"< c #DB61DB61DB61",
"1 c #E12AE12AE12A",
"2 c #E1E1E1E1E1E1",
"3 c #EA73EA73EA73",
"4 c #FB13FB13FB13",
"5 c #FBB6FBB6FBB6",
"6 c #FD7CFD7CFD7C",
"7 c #FD93FD93FD93",
"8 c #FF20FF20FF20",
"9 c gray100",
/* pixels */
"99999999999999999999999999999999",
"999999999999-&-99-&-999999999999",
"999999999994@ @44@ @499999999999",
"999999999994$X$44$X$499999999999",
"99999999999931<111<3999999999999",
"99999999999999=oo,99999999999999",
"99999999999999* .:99999999999999",
"99999999999999* .:99999999999999",
"99999999999999* .:99999999999999",
"99999999999999* .:99999999999999",
"99999999999999* .:99999999999999",
"99999999999999* .:99999999999999",
"99999999999999* .:99999999999999",
"99999999999999* .:99999999999999",
"99999999999999* .:99999999999999",
"99999999999999* .:99999999999999",
"99999999999999* .:99999999999999",
"99999999999999* .:99999999999999",
"99999999999999* .:99999999999999",
"99999999999999* .:99999999999999",
"99999999999999* .:99999999999999",
"99999999999999* .:99999999999999",
"99999999999999* .:99999999999999",
"99999999999999* .:99999999999999",
"99999999999999* .:99999999999999",
"99999999999999-+@,99999999999999",
"99999999999999944999999999999999",
"99999999999999999999999999999999",
"99999999999999999999999999999999",
"99999999999999999999999999999999",
"99999999999999999999999999999999",
"99999999999999999999999999999999"
};
