/* XPM */
static const char *x215[] = {
/* columns rows colors chars-per-pixel */
"32 32 51 1",
"  c black",
". c #02FC02FC02FC",
"X c #044204420442",
"o c #06CC06CC06CC",
"O c #0E1B0E1B0E1B",
"+ c #16E516E516E5",
"@ c #1C011C011C01",
"# c #226D226D226D",
"$ c #22E722E722E7",
"% c #2CCC2CCC2CCC",
"& c #34A234A234A2",
"* c #425542554255",
"= c #432543254325",
"- c #445F445F445F",
"; c #44F044F044F0",
": c #461C461C461C",
"> c #4F6F4F6F4F6F",
", c #651465146514",
"< c #679167916791",
"1 c #6A5D6A5D6A5D",
"2 c #6C3E6C3E6C3E",
"3 c #76ED76ED76ED",
"4 c #804180418041",
"5 c #8A498A498A49",
"6 c #93FD93FD93FD",
"7 c #95A295A295A2",
"8 c #971397139713",
"9 c #A253A253A253",
"0 c #BBBFBBBFBBBF",
"q c #BDA6BDA6BDA6",
"w c #BF21BF21BF21",
"e c #CB72CB72CB72",
"r c #CE35CE35CE35",
"t c #DAADDAADDAAD",
"y c #DD2FDD2FDD2F",
"u c #DE23DE23DE23",
"i c #E12EE12EE12E",
"p c #E30BE30BE30B",
"a c #E94DE94DE94D",
"s c #EC38EC38EC38",
"d c #F15CF15CF15C",
"f c #F1DCF1DCF1DC",
"g c #F2E7F2E7F2E7",
"h c #F3DEF3DEF3DE",
"j c #F86CF86CF86C",
"k c #F8B1F8B1F8B1",
"l c #FB25FB25FB25",
"z c #FCE2FCE2FCE2",
"x c #FE1DFE1DFE1D",
"c c #FF54FF54FF54",
"v c gray100",
/* pixels */
"vvvvvvvvvvvvvvvvvvvvvvvvvvvvvvvv",
"vvvvvvvvvvvvvvvvvvvvvvvvvvvvvvvv",
"vvvvvvvvvvvvvvvvvvvvvvvvvvvvvvvv",
"vvvvvvvvvvvvvvvvvvvvvvvvvvvvvvvv",
"vvvvvvvvvvvvvvvvvvvvvvvvvvvvvvvv",
"vvvvvvvvvvvvvvvvvvvvvvvvvvvvvvvv",
"vvvvvvvvvvvvvvvvvvvvvvvvvvvvvvvv",
"vvvvvvvvvvvvvvvvvvvvvvvvvvvvvvvv",
"vvvvvvvvvvvvvvvvvvvvlvvvvvvvvvvv",
"vvvvvvvvvvu3tvvvvvvq3hvvvvvvvvvv",
"vvvvvvvvvh, *uvvvvq$o5vvvvvvvvvv",
"vvvvvvvvvp%  *uvvq$  >hvvvvvvvvv",
"vvvvvvvvvvq$  *uq$  *uvvvvvvvvvv",
"vvvvvvvvvvvq$  &$  *tvvvvvvvvvvv",
"vvvvvvvvvvvvq$    *uvvvvvvvvvvvv",
"vvvvvvvvvvvvv9o  @rvvvvvvvvvvvvv",
"vvvvvvvvvvvvu-   o1hvvvvvvvvvvvv",
"vvvvvvvvvvvu*  +O  1hvvvvvvvvvvv",
"vvvvvvvvvvu*  $07O o1hvvvvvvvvvv",
"vvvvvvvvvs-  $qvv7O  1jvvvvvvvvv",
"vvvvvvvvvs* $0vvvl7O ,lvvvvvvvvv",
"vvvvvvvvvve-0vvvvvl6>pvvvvvvvvvv",
"vvvvvvvvvvvsvvvvvvvlhvvvvvvvvvvv",
"vvvvvvvvvvvvvvvvvvvvvvvvvvvvvvvv",
"vvvvvvvvvvvvvvvvvvvvvvvvvvvvvvvv",
"vvvvvvvvvvvvvvvvvvvvvvvvvvvvvvvv",
"vvvvvvvvvvvvvvvvvvvvvvvvvvvvvvvv",
"vvvvvvvvvvvvvvvvvvvvvvvvvvvvvvvv",
"vvvvvvvvvvvvvvvvvvvvvvvvvvvvvvvv",
"vvvvvvvvvvvvvvvvvvvvvvvvvvvvvvvv",
"vvvvvvvvvvvvvvvvvvvvvvvvvvvvvvvv",
"vvvvvvvvvvvvvvvvvvvvvvvvvvvvvvvv"
};
