/* XPM */
static const char *x216[] = {
/* columns rows colors chars-per-pixel */
"32 32 131 2",
"   c #000300030003",
".  c #00CC00CC00CC",
"X  c #025002500250",
"o  c #02D602D602D6",
"O  c #046604660466",
"+  c #04CD04CD04CD",
"@  c #05E205E205E2",
"#  c #06E506E506E5",
"$  c #082B082B082B",
"%  c #0A5D0A5D0A5D",
"&  c #0C060C060C06",
"*  c #0CCD0CCD0CCD",
"=  c #0DDB0DDB0DDB",
"-  c #10BA10BA10BA",
";  c #119411941194",
":  c #12A812A812A8",
">  c #145B145B145B",
",  c #154E154E154E",
"<  c #166816681668",
"1  c #16FB16FB16FB",
"2  c #1C451C451C45",
"3  c #1D7C1D7C1D7C",
"4  c #1E001E001E00",
"5  c #21B921B921B9",
"6  c #22C922C922C9",
"7  c #246C246C246C",
"8  c #265026502650",
"9  c #287828782878",
"0  c #29C329C329C3",
"q  c #329232923292",
"w  c #32E532E532E5",
"e  c #347534753475",
"r  c #364536453645",
"t  c #3B203B203B20",
"y  c #3CBD3CBD3CBD",
"u  c #414341434143",
"i  c #428B428B428B",
"p  c #433943394339",
"a  c #44AD44AD44AD",
"s  c #45B645B645B6",
"d  c #476C476C476C",
"f  c #47EA47EA47EA",
"g  c #490A490A490A",
"h  c #4BF44BF44BF4",
"j  c #50A150A150A1",
"k  c #53FB53FB53FB",
"l  c #588958895889",
"z  c #5EB85EB85EB8",
"x  c #5F3B5F3B5F3B",
"c  c #608560856085",
"v  c #63D663D663D6",
"b  c #645B645B645B",
"n  c #65AB65AB65AB",
"m  c #663F663F663F",
"M  c #684F684F684F",
"N  c #69DF69DF69DF",
"B  c #6A8A6A8A6A8A",
"V  c #6B6F6B6F6B6F",
"C  c #6E356E356E35",
"Z  c #741474147414",
"A  c #75F775F775F7",
"S  c #7E717E717E71",
"D  c #7FEB7FEB7FEB",
"F  c #80E180E180E1",
"G  c #821282128212",
"H  c #856685668566",
"J  c #88AF88AF88AF",
"K  c #8BD48BD48BD4",
"L  c #8FAF8FAF8FAF",
"P  c #903490349034",
"I  c #950995099509",
"U  c #958495849584",
"Y  c #962096209620",
"T  c #9AA59AA59AA5",
"R  c #9B959B959B95",
"E  c #9CAE9CAE9CAE",
"W  c #A1BCA1BCA1BC",
"Q  c #A389A389A389",
"!  c #A759A759A759",
"~  c #A91DA91DA91D",
"^  c #ACBAACBAACBA",
"/  c #B246B246B246",
"(  c #B338B338B338",
")  c #B4DAB4DAB4DA",
"_  c #B598B598B598",
"`  c #B65AB65AB65A",
"'  c #B7DEB7DEB7DE",
"]  c #B892B892B892",
"[  c #BCCBBCCBBCCB",
"{  c #BDA6BDA6BDA6",
"}  c #BE96BE96BE96",
"|  c #C111C111C111",
" . c #C2F7C2F7C2F7",
".. c #C7D8C7D8C7D8",
"X. c #C8DFC8DFC8DF",
"o. c #CC08CC08CC08",
"O. c #CCC6CCC6CCC6",
"+. c #CD66CD66CD66",
"@. c #CE96CE96CE96",
"#. c #D5FBD5FBD5FB",
"$. c #D99BD99BD99B",
"%. c #DBB5DBB5DBB5",
"&. c #DD36DD36DD36",
"*. c #DE33DE33DE33",
"=. c #DED1DED1DED1",
"-. c #DF62DF62DF62",
";. c #E105E105E105",
":. c #E1C4E1C4E1C4",
">. c #E3C8E3C8E3C8",
",. c #E4C7E4C7E4C7",
"<. c #E5B1E5B1E5B1",
"1. c #E7B9E7B9E7B9",
"2. c #E9E4E9E4E9E4",
"3. c #EAE6EAE6EAE6",
"4. c #EE56EE56EE56",
"5. c #F040F040F040",
"6. c #F103F103F103",
"7. c #F1FBF1FBF1FB",
"8. c #F2CAF2CAF2CA",
"9. c #F406F406F406",
"0. c #F616F616F616",
"q. c #F6DCF6DCF6DC",
"w. c #F77CF77CF77C",
"e. c #F89CF89CF89C",
"r. c #F97FF97FF97F",
"t. c #FB0FFB0FFB0F",
"y. c #FC0CFC0CFC0C",
"u. c #FD07FD07FD07",
"i. c #FD9EFD9EFD9E",
"p. c #FF3CFF3CFF3C",
"a. c gray100",
/* pixels */
"a.a.a.a.a.a.a.a.a.a.a.a.a.a.a.a.a.a.a.a.a.a.a.a.a.a.a.a.a.a.a.a.",
"a.a.a.a.a.a.a.a.a.a.a.a.a.a.a.a.a.a.a.a.a.a.a.a.a.a.a.a.a.a.a.a.",
"a.a.a.a.a.a.a.a.a.a.a.a.a.a.a.a.a.a.a.a.a.a.a.a.a.a.a.a.a.a.a.a.",
"a.a.a.a.a.a.a.a.a.a.a.a.a.a.a.a.a.a.a.a.a.a.a.a.a.a.a.a.a.a.a.a.",
"a.a.a.a.a.a.a.a.a.a.a.a.t.2.o.' ' { ,.t.a.a.a.a.4.a.a.a.a.a.a.a.",
"a.a.a.a.a.a.a.a.a.a.w.' b 9 ; @ @ * 5 k / w.a.{ y F 9.a.a.a.a.a.",
"a.a.a.a.a.a.a.a.a.&.x $       @         $ c R 8   a 2.a.a.a.a.a.",
"a.a.a.a.a.a.a.a.&.i     , x E ' ] E c ,         8 O.a.a.a.a.a.a.",
"a.a.a.a.a.a.a.w.x     i ..t.a.a.a.a.t. .e     $ ! a.a.a.a.a.a.a.",
"a.a.a.a.a.a.a.W $   i &.a.a.a.a.a.a.a.:.t       F a.a.a.a.a.a.a.",
"a.a.a.a.a.a.9.i   , ..a.a.a.a.a.a.a.2.a   $ *   9 :.a.a.a.a.a.a.",
"a.a.a.a.a.a. .*   c t.a.a.a.a.a.a.9.N @   C C   @ ' a.a.a.a.a.a.",
"a.a.a.a.a.a.L     ~ a.a.a.a.a.a.t.Z     b w./ @   H a.a.a.a.a.a.",
"a.a.a.a.a.a.b   ; O.a.a.a.a.a.a.I *   a :.a.#.1   k a.a.a.a.a.a.",
"a.a.a.a.a.t.g   4 :.a.a.a.a.a.W *   w %.a.a.:.4   g t.a.a.a.a.a.",
"a.a.a.a.a.t.g   4 :.a.a.a.a.{ 5   5 { a.a.a.:.4   g t.a.a.a.a.a.",
"a.a.a.a.a.t.g   4 &.a.a.a.#.9   , ] a.a.a.a.:.4   g t.a.a.a.a.a.",
"a.a.a.a.a.a.b   *  .a.a.&.i   * I a.a.a.a.a. .*   b a.a.a.a.a.a.",
"a.a.a.a.a.a.P     I a.9.k     L a.a.a.a.a.a.E     L a.a.a.a.a.a.",
"a.a.a.a.a.a.O.1   i :.C     N 9.a.a.a.a.a.w.h   *  .a.a.a.a.a.a.",
"a.a.a.a.a.a.t.b   $ e @   k 9.a.a.a.a.a.a.^ $   i 9.a.a.a.a.a.a.",
"a.a.a.a.a.a.a.O.4       a &.a.a.a.a.a.a.{ 5   $ W a.a.a.a.a.a.a.",
"a.a.a.a.a.a.a.a.A     @ D ,.a.a.a.a.,.L 4     N w.a.a.a.a.a.a.a.",
"a.a.a.a.a.a.a.{ 8       @ 8 c F D c 8 @     g :.a.a.a.a.a.a.a.a.",
"a.a.a.a.a.a.%.w   ; b 8                 , F 2.a.a.a.a.a.a.a.a.a.",
"a.a.a.a.a.a.P   * I a.&.R l w 4 4 5 g H O.t.a.a.a.a.a.a.a.a.a.a.",
"a.a.a.a.a.a.9.N A t.a.a.a.a.4.&.:.,.t.a.a.a.a.a.a.a.a.a.a.a.a.a.",
"a.a.a.a.a.a.a.w.w.a.a.a.a.a.a.a.a.a.a.a.a.a.a.a.a.a.a.a.a.a.a.a.",
"a.a.a.a.a.a.a.a.a.a.a.a.a.a.a.a.a.a.a.a.a.a.a.a.a.a.a.a.a.a.a.a.",
"a.a.a.a.a.a.a.a.a.a.a.a.a.a.a.a.a.a.a.a.a.a.a.a.a.a.a.a.a.a.a.a.",
"a.a.a.a.a.a.a.a.a.a.a.a.a.a.a.a.a.a.a.a.a.a.a.a.a.a.a.a.a.a.a.a.",
"a.a.a.a.a.a.a.a.a.a.a.a.a.a.a.a.a.a.a.a.a.a.a.a.a.a.a.a.a.a.a.a."
};
