/* XPM */
static const char *x221[] = {
/* columns rows colors chars-per-pixel */
"32 32 60 1",
"  c black",
". c #017F017F017F",
"X c #01B401B401B4",
"o c #044804480448",
"O c #050005000500",
"+ c #0A6F0A6F0A6F",
"@ c #0E0C0E0C0E0C",
"# c #0EA40EA40EA4",
"$ c #142F142F142F",
"% c #152615261526",
"& c #16A416A416A4",
"* c #1AF11AF11AF1",
"= c #1C621C621C62",
"- c #225022502250",
"; c #289E289E289E",
": c #2D832D832D83",
"> c #328132813281",
", c #33C633C633C6",
"< c #401B401B401B",
"1 c #412F412F412F",
"2 c #45FB45FB45FB",
"3 c #4C8E4C8E4C8E",
"4 c #502D502D502D",
"5 c #5F1A5F1A5F1A",
"6 c #6EA26EA26EA2",
"7 c #6F796F796F79",
"8 c #6FF76FF76FF7",
"9 c #7EB57EB57EB5",
"0 c #7FFF7FFF7FFF",
"q c #932793279327",
"w c #99BB99BB99BB",
"e c #A4A3A4A3A4A3",
"r c #AD91AD91AD91",
"t c #AEA9AEA9AEA9",
"y c #B008B008B008",
"u c #B5B1B5B1B5B1",
"i c #B708B708B708",
"p c #BED0BED0BED0",
"a c #BF5DBF5DBF5D",
"s c #C805C805C805",
"d c #CBD4CBD4CBD4",
"f c #CCA3CCA3CCA3",
"g c #CEF9CEF9CEF9",
"h c #D761D761D761",
"j c #E0CEE0CEE0CE",
"k c #E1FAE1FAE1FA",
"l c #E4EAE4EAE4EA",
"z c #E99CE99CE99C",
"x c #EAD7EAD7EAD7",
"c c #EBE8EBE8EBE8",
"v c #F141F141F141",
"b c #F1B2F1B2F1B2",
"n c #F76DF76DF76D",
"m c #F7CCF7CCF7CC",
"M c #FAFCFAFCFAFC",
"N c #FBAEFBAEFBAE",
"B c #FD7BFD7BFD7B",
"V c #FE2BFE2BFE2B",
"C c #FEBEFEBEFEBE",
"Z c gray100",
/* pixels */
"ZZZZZZZZZZZZZZZZZZZZZZZZZZZZZZZZ",
"ZZZZZZZZZZZZZZZZZZZZZZZZZZZZZZZZ",
"ZZZZZZZZZZZZZZZZZZZZZZZZZZZZZZZZ",
"ZZZZZZZZZZZZZZZZZZZZZZZZZZZZZZZZ",
"ZZZZZZvjjzZZZZZZZZZZZNljjNZZZZZZ",
"ZZZZZZg>=>gZZZZZZZZZZe-*4zZZZZZZ",
"ZZZZZZZ9  4vZZZZZZZZj> #rZZZZZZZ",
"ZZZZZZZz1 owZZZZZZZN6  6NZZZZZZZ",
"ZZZZZZZZp$ ;hZZZZZZi# ,jZZZZZZZZ",
"ZZZZZZZZZ9  5nZZZZz, #uZZZZZZZZZ",
"ZZZZZZZZZz1 +rZZZZq  6NZZZZZZZZZ",
"ZZZZZZZZZZp$ ,jZZs$ ,jZZZZZZZZZZ",
"ZZZZZZZZZZZ9  6Nv3 $rZZZZZZZZZZZ",
"ZZZZZZZZZZZz1 $sqo 6NZZZZZZZZZZZ",
"ZZZZZZZZZZZZp$ :* >jZZZZZZZZZZZZ",
"ZZZZZZZZZZZZZ9   #uZZZZZZZZZZZZZ",
"ZZZZZZZZZZZZZl,  6NZZZZZZZZZZZZZ",
"ZZZZZZZZZZZZZNq ouZZZZZZZZZZZZZZ",
"ZZZZZZZZZZZZZZq ouZZZZZZZZZZZZZZ",
"ZZZZZZZZZZZZZZ9 ouZZZZZZZZZZZZZZ",
"ZZZZZZZZZZZZZZ9 oiZZZZZZZZZZZZZZ",
"ZZZZZZZZZZZZZZ9 +iZZZZZZZZZZZZZZ",
"ZZZZZZZZZZZZZZ9 oiZZZZZZZZZZZZZZ",
"ZZZZZZZZZZZZNnq ouZZZZZZZZZZZZZZ",
"ZZZZZZZZZZZZZZ9 ouZZZZZZZZZZZZZZ",
"ZZZZZZZZZZZZZZe23dZZZZZZZZZZZZZZ",
"ZZZZZZZZZZZZZZZNNZZZZZZZZZZZZZZZ",
"ZZZZZZZZZZZZZZZZZZZZZZZZZZZZZZZZ",
"ZZZZZZZZZZZZZZZZZZZZZZZZZZZZZZZZ",
"ZZZZZZZZZZZZZZZZZZZZZZZZZZZZZZZZ",
"ZZZZZZZZZZZZZZZZZZZZZZZZZZZZZZZZ",
"ZZZZZZZZZZZZZZZZZZZZZZZZZZZZZZZZ"
};
