/* XPM */
static const char *x223[] = {
/* columns rows colors chars-per-pixel */
"32 32 103 2",
"   c black",
".  c #00BD00BD00BD",
"X  c #025402540254",
"o  c #031303130313",
"O  c #044104410441",
"+  c #04EB04EB04EB",
"@  c #08EF08EF08EF",
"#  c #09BB09BB09BB",
"$  c #0B540B540B54",
"%  c #0D7C0D7C0D7C",
"&  c #0FC00FC00FC0",
"*  c #115A115A115A",
"=  c #126A126A126A",
"-  c #150A150A150A",
";  c #16F916F916F9",
":  c #1AAE1AAE1AAE",
">  c #1C881C881C88",
",  c #1D181D181D18",
"<  c #1E271E271E27",
"1  c #1EA61EA61EA6",
"2  c #230523052305",
"3  c #252225222522",
"4  c #272A272A272A",
"5  c #281028102810",
"6  c #290C290C290C",
"7  c #343234323432",
"8  c #37B737B737B7",
"9  c #381E381E381E",
"0  c #402E402E402E",
"q  c #433D433D433D",
"w  c #452A452A452A",
"e  c #488D488D488D",
"r  c #494A494A494A",
"t  c #4A6D4A6D4A6D",
"y  c #4C024C024C02",
"u  c #4E894E894E89",
"i  c #526D526D526D",
"p  c #52EC52EC52EC",
"a  c #54B054B054B0",
"s  c #595A595A595A",
"d  c #5A725A725A72",
"f  c #5E835E835E83",
"g  c #5F6B5F6B5F6B",
"h  c #65AB65AB65AB",
"j  c #65EB65EB65EB",
"k  c #6AB66AB66AB6",
"l  c #705170517051",
"z  c #73C673C673C6",
"x  c #77D477D477D4",
"c  c #79D879D879D8",
"v  c #7B617B617B61",
"b  c #7DD77DD77DD7",
"n  c #7FFF7FFF7FFF",
"m  c #811481148114",
"M  c #844684468446",
"N  c #8BA78BA78BA7",
"B  c #934E934E934E",
"V  c #9A149A149A14",
"C  c #9AB09AB09AB0",
"Z  c #9B579B579B57",
"A  c #A47BA47BA47B",
"S  c #A71BA71BA71B",
"D  c #A743A743A743",
"F  c #AD91AD91AD91",
"G  c #B2F7B2F7B2F7",
"H  c #B41EB41EB41E",
"J  c #B59BB59BB59B",
"K  c #B647B647B647",
"L  c #B7ADB7ADB7AD",
"P  c #B8E6B8E6B8E6",
"I  c #BD15BD15BD15",
"U  c #BDA5BDA5BDA5",
"Y  c #C2D3C2D3C2D3",
"T  c #C593C593C593",
"R  c #C65DC65DC65D",
"E  c #CCFDCCFDCCFD",
"W  c #CDD0CDD0CDD0",
"Q  c #CEB7CEB7CEB7",
"!  c #D5A7D5A7D5A7",
"~  c #D7D5D7D5D7D5",
"^  c #D887D887D887",
"/  c #DDD1DDD1DDD1",
"(  c #E147E147E147",
")  c #E1E8E1E8E1E8",
"_  c #E29BE29BE29B",
"`  c #E390E390E390",
"'  c #E4A5E4A5E4A5",
"]  c #E81AE81AE81A",
"[  c #EA9DEA9DEA9D",
"{  c #EEF3EEF3EEF3",
"}  c #F049F049F049",
"|  c #F0DCF0DCF0DC",
" . c #F2FDF2FDF2FD",
".. c #F4DDF4DDF4DD",
"X. c #F5C1F5C1F5C1",
"o. c #F89CF89CF89C",
"O. c #FA28FA28FA28",
"+. c #FAADFAADFAAD",
"@. c #FBBAFBBAFBBA",
"#. c #FD03FD03FD03",
"$. c #FDEDFDEDFDED",
"%. c #FF2AFF2AFF2A",
"&. c gray100",
/* pixels */
"&.&.&.&.&.&.&.&.&.&.&.&.&.&.&.&.&.&.&.&.&.&.&.&.&.&.&.&.&.&.&.&.",
"&.&.&.&.&.&.&.&.&.&.&.&.&.&.&.&.&.&.&.&.&.&.&.&.&.&.&.&.&.&.&.&.",
"&.&.&.&.&.&.&.&.&.&.&.&.&.&.&.&.&.&.&.&.&.&.&.&.&.&.&.&.&.&.&.&.",
"&.&.&.&.&.&.&.&.&.&.&.&.&.&.&.&.&.&.&.&.&.&.&.&.&.&.&.&.&.&.&.&.",
"&.&.&.&.&.&.&.&.&.&.&.&.&.] Y L L ^ +.&.&.&.&.&.&.&.&.&.&.&.&.&.",
"&.&.&.&.&.&.&.&.&.&.&.( l 5 % O O : s E &.&.&.&.&.&.&.&.&.&.&.&.",
"&.&.&.&.&.&.&.&.&.&.E 7       O O     3 E &.&.&.&.&.&.&.&.&.&.&.",
"&.&.&.&.&.&.&.&.&.X.p   O t C P D t O   s +.&.&.&.&.&.&.&.&.&.&.",
"&.&.&.&.&.&.&.&.&.E =   t { &.&.&.{ t   2 ] &.&.&.&.&.&.&.&.&.&.",
"&.&.&.&.&.&.&.&.&.D O   D &.&.&.&.&.n   2 ( &.&.&.&.&.&.&.&.&.&.",
"&.&.&.&.&.&.&.&.&.m   ; ! &.&.&.&. .y   p +.&.&.&.&.&.&.&.&.&.&.",
"&.&.&.&.&.&.&.&.&.m   1 ( &.&.&.&.F @ @ G &.&.&.&.&.&.&.&.&.&.&.",
"&.&.&.&.&.&.&.&.&.n   1 ( &.&.&.[ 9   p X.&.&.&.&.&.&.&.&.&.&.&.",
"&.&.&.&.&.&.&.&.&.n   1 ( &.&.&.C   = R &.&.&.&.&.&.&.&.&.&.&.&.",
"&.&.&.&.&.&.&.&.&.n   1 ( &.&.+.y   7  .&.&.&.&.&.&.&.&.&.&.&.&.",
"&.&.&.&.&.&.&.&.&.n   1 ( &.&.&.s   = L &.&.&.&.&.&.&.&.&.&.&.&.",
"&.&.&.&.&.&.&.&.&.n   1 ( &.&.&.L %   ; m [ &.&.&.&.&.&.&.&.&.&.",
"&.&.&.&.&.&.&.&.&.n   1 ( &.&.&.&.C 1   O w E &.&.&.&.&.&.&.&.&.",
"&.&.&.&.&.&.&.&.&.n   1 ( &.&.&.&.&.E s O   3 E &.&.&.&.&.&.&.&.",
"&.&.&.&.&.&.&.&.&.n   1 ( &.&.&.&.&.&. .N %   h &.&.&.&.&.&.&.&.",
"&.&.&.&.&.&.&.&.&.n   1 ( &.&.&.&.&.&.&.+.h   2 ( &.&.&.&.&.&.&.",
"&.&.&.&.&.&.&.&.&.n   1 ( X.U M / &.&.&.&.x   2 ( &.&.&.&.&.&.&.",
"&.&.&.&.&.&.&.&.&.n   1 ( B @   h { &.&.R 3   0 X.&.&.&.&.&.&.&.",
"&.&.&.&.&.&.&.&.&.n   1 ] E 3   O 0 v l 1   O C &.&.&.&.&.&.&.&.",
"&.&.&.&.&.&.&.&.&.n   1 ( &.U 5           O k  .&.&.&.&.&.&.&.&.",
"&.&.&.&.&.&.&.&.&.A w f [ &.&.! x 7 1 2 t C  .&.&.&.&.&.&.&.&.&.",
"&.&.&.&.&.&.&.&.&.&.+.+.&.&.&.&.&.{ ( ] X.&.&.&.&.&.&.&.&.&.&.&.",
"&.&.&.&.&.&.&.&.&.&.&.&.&.&.&.&.&.&.&.&.&.&.&.&.&.&.&.&.&.&.&.&.",
"&.&.&.&.&.&.&.&.&.&.&.&.&.&.&.&.&.&.&.&.&.&.&.&.&.&.&.&.&.&.&.&.",
"&.&.&.&.&.&.&.&.&.&.&.&.&.&.&.&.&.&.&.&.&.&.&.&.&.&.&.&.&.&.&.&.",
"&.&.&.&.&.&.&.&.&.&.&.&.&.&.&.&.&.&.&.&.&.&.&.&.&.&.&.&.&.&.&.&.",
"&.&.&.&.&.&.&.&.&.&.&.&.&.&.&.&.&.&.&.&.&.&.&.&.&.&.&.&.&.&.&.&."
};
