/* XPM */
static const char *x224[] = {
/* columns rows colors chars-per-pixel */
"32 32 106 2",
"   c #000900090009",
".  c #00FB00FB00FB",
"X  c #020F020F020F",
"o  c #031F031F031F",
"O  c #071B071B071B",
"+  c #084F084F084F",
"@  c #0A150A150A15",
"#  c #0B1C0B1C0B1C",
"$  c #0BE20BE20BE2",
"%  c #0DCB0DCB0DCB",
"&  c #116111611161",
"*  c #143B143B143B",
"=  c #158015801580",
"-  c #172B172B172B",
";  c #1B5F1B5F1B5F",
":  c #1BB61BB61BB6",
">  c #1D701D701D70",
",  c #1E141E141E14",
"<  c #1F001F001F00",
"1  c #20DF20DF20DF",
"2  c #233F233F233F",
"3  c #240A240A240A",
"4  c #275527552755",
"5  c #286328632863",
"6  c #2E7C2E7C2E7C",
"7  c #32A732A732A7",
"8  c #32CC32CC32CC",
"9  c #37CD37CD37CD",
"0  c #3B833B833B83",
"q  c #3C433C433C43",
"w  c #3FAA3FAA3FAA",
"e  c #430C430C430C",
"r  c #454445444544",
"t  c #46FC46FC46FC",
"y  c #47D347D347D3",
"u  c #492249224922",
"i  c #4C4B4C4B4C4B",
"p  c #587F587F587F",
"a  c #5AE05AE05AE0",
"s  c #608E608E608E",
"d  c #62BB62BB62BB",
"f  c #641B641B641B",
"g  c #655165516551",
"h  c #756375637563",
"j  c #76CA76CA76CA",
"k  c #7A417A417A41",
"l  c #7C2C7C2C7C2C",
"z  c #7E7C7E7C7E7C",
"x  c #7F3A7F3A7F3A",
"c  c #816B816B816B",
"v  c #854885488548",
"b  c #876987698769",
"n  c #881588158815",
"m  c #8EFD8EFD8EFD",
"M  c #934893489348",
"N  c #957E957E957E",
"B  c #99C499C499C4",
"V  c #9A919A919A91",
"C  c #9F7A9F7A9F7A",
"Z  c #A1E9A1E9A1E9",
"A  c #A4FAA4FAA4FA",
"S  c #A680A680A680",
"D  c #A7F6A7F6A7F6",
"F  c #A892A892A892",
"G  c #AB6AAB6AAB6A",
"H  c #ACF1ACF1ACF1",
"J  c #B0E4B0E4B0E4",
"K  c #B4CEB4CEB4CE",
"L  c #B5B0B5B0B5B0",
"P  c #B75FB75FB75F",
"I  c #BC20BC20BC20",
"U  c #BDC6BDC6BDC6",
"Y  c #C33DC33DC33D",
"T  c #C3D1C3D1C3D1",
"R  c #CCD7CCD7CCD7",
"E  c #CD4DCD4DCD4D",
"W  c #D4ABD4ABD4AB",
"Q  c #D6F6D6F6D6F6",
"!  c #DBCFDBCFDBCF",
"~  c #DCACDCACDCAC",
"^  c #E11EE11EE11E",
"/  c #E1F3E1F3E1F3",
"(  c #E2F5E2F5E2F5",
")  c #E406E406E406",
"_  c #E478E478E478",
"`  c #E596E596E596",
"'  c #E9D4E9D4E9D4",
"]  c #EAA3EAA3EAA3",
"[  c #EBA8EBA8EBA8",
"{  c #ED03ED03ED03",
"}  c #EE41EE41EE41",
"|  c #F0C0F0C0F0C0",
" . c #F251F251F251",
".. c #F30DF30DF30D",
"X. c #F3D4F3D4F3D4",
"o. c #F4CEF4CEF4CE",
"O. c #F654F654F654",
"+. c #F7FEF7FEF7FE",
"@. c #F8FDF8FDF8FD",
"#. c #F97BF97BF97B",
"$. c #FAE7FAE7FAE7",
"%. c #FBE8FBE8FBE8",
"&. c #FCD2FCD2FCD2",
"*. c #FDEEFDEEFDEE",
"=. c #FF32FF32FF32",
"-. c gray100",
/* pixels */
"-.-.-.-.-.-.-.-.-.-.-.-.-.-.-.-.-.-.-.-.-.-.-.-.-.-.-.-.-.-.-.-.",
"-.-.-.-.-.-.-.-.-.-.-.-.-.-.-.-.-.-.-.-.-.-.-.-.-.-.-.-.-.-.-.-.",
"-.-.-.-.-.-.-.-.-.-.-.-.-.-.-.-.-.-.-.-.-.-.-.-.-.-.-.-.-.-.-.-.",
"-.-.-.-.-.-.-.-.-.-.-.-.-.-.-.-.-.-.-.-.-.-.-.-.-.-.-.-.-.-.-.-.",
"-.-.-.-.-.-.-.-.-.-.-.-.-.` ~ ( o.-.-.-.-.-.-.-.-.-.-.-.-.-.-.-.",
"-.-.-.-.-.-.-.-.-.-.-.-.%.n > > b -.-.-.-.-.-.-.-.-.-.-.-.-.-.-.",
"-.-.-.-.-.-.-.-.-.-.-.-.-.' r   3 ! -.-.-.-.-.-.-.-.-.-.-.-.-.-.",
"-.-.-.-.-.-.-.-.-.-.-.-.-.-.! 7   x -.-.-.-.-.-.-.-.-.-.-.-.-.-.",
"-.-.-.-.-.-.-.-.-.-.-.-.-.-.-.U 6 w ` -.-.-.-.-.-.-.-.-.-.-.-.-.",
"-.-.-.-.-.-.-.-.-.-.-.-.-.-.-.-.{ ( %.-.-.-.-.-.-.-.-.-.-.-.-.-.",
"-.-.-.-.-.-.-.-.-.-.-.-.{ Y V x c b L ` -.-.-.-.-.-.-.-.-.-.-.-.",
"-.-.-.-.-.-.-.-.-.-.%.A 9 %         + 3 N o.-.-.-.-.-.-.-.-.-.-.",
"-.-.-.-.-.-.-.-.-.-.V %     ; > ; +     + Z -.-.-.-.-.-.-.-.-.-.",
"-.-.-.-.-.-.-.-.-.~ 2   2 N W ( ~ L a o   r o.-.-.-.-.-.-.-.-.-.",
"-.-.-.-.-.-.-.-.-.G - + V -.-.-.-.-.( 5   > ( -.-.-.-.-.-.-.-.-.",
"-.-.-.-.-.-.-.-.-.| W U | -.-.-.-.-.%.r   > ( -.-.-.-.-.-.-.-.-.",
"-.-.-.-.-.-.-.-.-.-.-.-.-.%.o.( R J j -   > ( -.-.-.-.-.-.-.-.-.",
"-.-.-.-.-.-.-.-.-.-.-.! m p w > &         > ( -.-.-.-.-.-.-.-.-.",
"-.-.-.-.-.-.-.-.-.-.G 5           % 5 -   > ( -.-.-.-.-.-.-.-.-.",
"-.-.-.-.-.-.-.-.-.R >   + 0 g c A T ( r   > ( -.-.-.-.-.-.-.-.-.",
"-.-.-.-.-.-.-.-.-.j   - A o.-.-.-.-.| w   > ~ -.-.-.-.-.-.-.-.-.",
"-.-.-.-.-.-.-.-.%.y   e o.-.-.-.-.-.G %   > ( -.-.-.-.-.-.-.-.-.",
"-.-.-.-.-.-.-.-.-.a   ; I -.-.-.o.H 3     > ( -.-.-.-.-.-.-.-.-.",
"-.-.-.-.-.-.-.-.-.Z     ; g c k e +   +   % Y -.-.-.-.-.-.-.-.-.",
"-.-.-.-.-.-.-.-.-.' i             + d k     A -.-.-.-.-.-.-.-.-.",
"-.-.-.-.-.-.-.-.-.-.' b 0 2 > 7 g L o.( d r V -.-.-.-.-.-.-.-.-.",
"-.-.-.-.-.-.-.-.-.-.-.-.| ( ( { -.-.-.-.-.%.%.-.-.-.-.-.-.-.-.-.",
"-.-.-.-.-.-.-.-.-.-.-.-.-.-.-.-.-.-.-.-.-.-.-.-.-.-.-.-.-.-.-.-.",
"-.-.-.-.-.-.-.-.-.-.-.-.-.-.-.-.-.-.-.-.-.-.-.-.-.-.-.-.-.-.-.-.",
"-.-.-.-.-.-.-.-.-.-.-.-.-.-.-.-.-.-.-.-.-.-.-.-.-.-.-.-.-.-.-.-.",
"-.-.-.-.-.-.-.-.-.-.-.-.-.-.-.-.-.-.-.-.-.-.-.-.-.-.-.-.-.-.-.-.",
"-.-.-.-.-.-.-.-.-.-.-.-.-.-.-.-.-.-.-.-.-.-.-.-.-.-.-.-.-.-.-.-."
};
