/* XPM */
static const char *x226[] = {
/* columns rows colors chars-per-pixel */
"32 32 112 2",
"   c #000900090009",
".  c #00FC00FC00FC",
"X  c #020C020C020C",
"o  c #031F031F031F",
"O  c #071B071B071B",
"+  c #080B080B080B",
"@  c #0A150A150A15",
"#  c #0B1C0B1C0B1C",
"$  c #0BE20BE20BE2",
"%  c #0DFC0DFC0DFC",
"&  c #116111611161",
"*  c #143B143B143B",
"=  c #158015801580",
"-  c #174F174F174F",
";  c #1B1D1B1D1B1D",
":  c #1BC61BC61BC6",
">  c #1D701D701D70",
",  c #1E051E051E05",
"<  c #1F001F001F00",
"1  c #20DF20DF20DF",
"2  c #21DE21DE21DE",
"3  c #233F233F233F",
"4  c #240824082408",
"5  c #275527552755",
"6  c #286328632863",
"7  c #327432743274",
"8  c #37CD37CD37CD",
"9  c #3B503B503B50",
"0  c #3C433C433C43",
"q  c #430C430C430C",
"w  c #44DF44DF44DF",
"e  c #46FC46FC46FC",
"r  c #47D347D347D3",
"t  c #492249224922",
"y  c #4C4B4C4B4C4B",
"u  c #4FEF4FEF4FEF",
"i  c #587758775877",
"p  c #5AE05AE05AE0",
"a  c #608E608E608E",
"s  c #62BB62BB62BB",
"d  c #641B641B641B",
"f  c #655165516551",
"g  c #6C616C616C61",
"h  c #701B701B701B",
"j  c #756375637563",
"k  c #76CA76CA76CA",
"l  c #7A417A417A41",
"z  c #7C2C7C2C7C2C",
"x  c #7F577F577F57",
"c  c #819C819C819C",
"v  c #826682668266",
"b  c #854885488548",
"n  c #873187318731",
"m  c #8EE88EE88EE8",
"M  c #937193719371",
"N  c #957E957E957E",
"B  c #99C499C499C4",
"V  c #9A549A549A54",
"C  c #9B5E9B5E9B5E",
"Z  c #9F7A9F7A9F7A",
"A  c #A0E5A0E5A0E5",
"S  c #A1E9A1E9A1E9",
"D  c #A4FAA4FAA4FA",
"F  c #A680A680A680",
"G  c #A7F6A7F6A7F6",
"H  c #A892A892A892",
"J  c #AB6AAB6AAB6A",
"K  c #ACF1ACF1ACF1",
"L  c #B0E4B0E4B0E4",
"P  c #B4CEB4CEB4CE",
"I  c #B732B732B732",
"U  c #B75FB75FB75F",
"Y  c #BC20BC20BC20",
"T  c #BD83BD83BD83",
"R  c #C33DC33DC33D",
"E  c #C3FBC3FBC3FB",
"W  c #C59AC59AC59A",
"Q  c #C992C992C992",
"!  c #CBA8CBA8CBA8",
"~  c #CCBECCBECCBE",
"^  c #CD4DCD4DCD4D",
"/  c #D4ABD4ABD4AB",
"(  c #D6F6D6F6D6F6",
")  c #DC9ADC9ADC9A",
"_  c #E105E105E105",
"`  c #E1E7E1E7E1E7",
"'  c #E2D2E2D2E2D2",
"]  c #E3F3E3F3E3F3",
"[  c #E50FE50FE50F",
"{  c #E619E619E619",
"}  c #E6A4E6A4E6A4",
"|  c #E99CE99CE99C",
" . c #EAA3EAA3EAA3",
".. c #EBA8EBA8EBA8",
"X. c #EE57EE57EE57",
"o. c #EFE7EFE7EFE7",
"O. c #F10EF10EF10E",
"+. c #F251F251F251",
"@. c #F2DFF2DFF2DF",
"#. c #F3D4F3D4F3D4",
"$. c #F4CEF4CEF4CE",
"%. c #F655F655F655",
"&. c #F708F708F708",
"*. c #F7FEF7FEF7FE",
"=. c #F8A6F8A6F8A6",
"-. c #F9BFF9BFF9BF",
";. c #FAE7FAE7FAE7",
":. c #FBFBFBFBFBFB",
">. c #FCD5FCD5FCD5",
",. c #FDC6FDC6FDC6",
"<. c #FEFCFEFCFEFC",
"1. c gray100",
/* pixels */
"1.1.1.1.1.1.1.1.1.1.1.1.1.1.1.1.1.1.1.1.1.1.1.1.1.1.1.1.1.1.1.1.",
"1.1.1.1.1.1.1.1.1.1.1.1.1.1.1.1.1.1.1.1.1.1.1.1.1.1.1.1.1.1.1.1.",
"1.1.1.1.1.1.1.1.1.1.1.1.1.1.1.1.1.1.1.1.1.1.1.1.1.1.1.1.1.1.1.1.",
"1.1.1.1.1.1.1.1.1.1.1.1.1.1.1.1.1.1.1.1.1.1.1.1.1.1.1.1.1.1.1.1.",
"1.1.1.1.1.1.1.1.1.1.1.1.1.1.| ' ' %.1.1.1.1.1.1.1.1.1.1.1.1.1.1.",
"1.1.1.1.1.1.1.1.1.1.1.1.1.! 7 ; , g %.1.1.1.1.1.1.1.1.1.1.1.1.1.",
"1.1.1.1.1.1.1.1.1.1.1.1.O.y   4 % + S 1.1.1.1.1.1.1.1.1.1.1.1.1.",
"1.1.1.1.1.1.1.1.1.1.1.1.M   , W v   3 ! 1.1.1.1.1.1.1.1.1.1.1.1.",
"1.1.1.1.1.1.1.1.1.1.1.) 9 ; M 1.O.i ; g :.1.1.1.1.1.1.1.1.1.1.1.",
"1.1.1.1.1.1.1.1.1.1.1.%.' [ :.1.1.O.[ [ :.1.1.1.1.1.1.1.1.1.1.1.",
"1.1.1.1.1.1.1.1.1.1.1.1.o.W V x x n U [ 1.1.1.1.1.1.1.1.1.1.1.1.",
"1.1.1.1.1.1.1.1.1.1.:.D 8 %         + 4 M %.1.1.1.1.1.1.1.1.1.1.",
"1.1.1.1.1.1.1.1.1.1.V %     ; , ; +     + S 1.1.1.1.1.1.1.1.1.1.",
"1.1.1.1.1.1.1.1.1.) 3   3 N / ' ) U i o   q %.1.1.1.1.1.1.1.1.1.",
"1.1.1.1.1.1.1.1.1.J - + V 1.1.1.1.1.[ 6   , ' 1.1.1.1.1.1.1.1.1.",
"1.1.1.1.1.1.1.1.1.O./ T O.1.1.1.1.1.:.e   , ' 1.1.1.1.1.1.1.1.1.",
"1.1.1.1.1.1.1.1.1.1.1.1.1.1.O.' ! L k -   , ' 1.1.1.1.1.1.1.1.1.",
"1.1.1.1.1.1.1.1.1.1.1.) m i 0 , &         , ' 1.1.1.1.1.1.1.1.1.",
"1.1.1.1.1.1.1.1.1.1.D 6         o + 6 -   , ' 1.1.1.1.1.1.1.1.1.",
"1.1.1.1.1.1.1.1.1.~ ,   % 0 f v D R ' e   , ) 1.1.1.1.1.1.1.1.1.",
"1.1.1.1.1.1.1.1.1.k   - D %.1.1.1.1.%.0   , ' 1.1.1.1.1.1.1.1.1.",
"1.1.1.1.1.1.1.1.:.t   q %.1.1.1.1.1.K +   , ' 1.1.1.1.1.1.1.1.1.",
"1.1.1.1.1.1.1.1.1.i   ; Y 1.1.1.%.K 4     , ) 1.1.1.1.1.1.1.1.1.",
"1.1.1.1.1.1.1.1.1.S     ; s v l q +   +   % W 1.1.1.1.1.1.1.1.1.",
"1.1.1.1.1.1.1.1.1.| y             + s l     D 1.1.1.1.1.1.1.1.1.",
"1.1.1.1.1.1.1.1.1.1.| n 0 , ; 7 f U %.' s e V 1.1.1.1.1.1.1.1.1.",
"1.1.1.1.1.1.1.1.1.1.1.1.%.' ' o.1.1.1.1.1.:.:.1.1.1.1.1.1.1.1.1.",
"1.1.1.1.1.1.1.1.1.1.1.1.1.1.1.1.1.1.1.1.1.1.1.1.1.1.1.1.1.1.1.1.",
"1.1.1.1.1.1.1.1.1.1.1.1.1.1.1.1.1.1.1.1.1.1.1.1.1.1.1.1.1.1.1.1.",
"1.1.1.1.1.1.1.1.1.1.1.1.1.1.1.1.1.1.1.1.1.1.1.1.1.1.1.1.1.1.1.1.",
"1.1.1.1.1.1.1.1.1.1.1.1.1.1.1.1.1.1.1.1.1.1.1.1.1.1.1.1.1.1.1.1.",
"1.1.1.1.1.1.1.1.1.1.1.1.1.1.1.1.1.1.1.1.1.1.1.1.1.1.1.1.1.1.1.1."
};
