/* XPM */
static const char *x227[] = {
/* columns rows colors chars-per-pixel */
"32 32 118 2",
"   c #000900090009",
".  c #00FB00FB00FB",
"X  c #020F020F020F",
"o  c #031F031F031F",
"O  c #03AD03AD03AD",
"+  c #071B071B071B",
"@  c gray3",
"#  c #0A150A150A15",
"$  c #0B1C0B1C0B1C",
"%  c #0BE20BE20BE2",
"&  c #0DCB0DCB0DCB",
"*  c #116111611161",
"=  c #133D133D133D",
"-  c #143B143B143B",
";  c #156C156C156C",
":  c #172B172B172B",
">  c #181A181A181A",
",  c #1A561A561A56",
"<  c #1B5F1B5F1B5F",
"1  c #1BA51BA51BA5",
"2  c #1D701D701D70",
"3  c #1E0A1E0A1E0A",
"4  c #1F121F121F12",
"5  c #20DF20DF20DF",
"6  c #233F233F233F",
"7  c #259325932593",
"8  c #275527552755",
"9  c #286328632863",
"0  c #32A732A732A7",
"q  c #331433143314",
"w  c #37D637D637D6",
"e  c #394139413941",
"r  c #3B833B833B83",
"t  c #3C453C453C45",
"y  c #404D404D404D",
"u  c #430C430C430C",
"i  c #44DF44DF44DF",
"p  c #46FC46FC46FC",
"a  c #47D347D347D3",
"s  c #492249224922",
"d  c #4C4B4C4B4C4B",
"f  c #4F744F744F74",
"g  c #587F587F587F",
"h  c #5A875A875A87",
"j  c #5AE05AE05AE0",
"k  c #608E608E608E",
"l  c #62BB62BB62BB",
"z  c #633563356335",
"x  c #641B641B641B",
"c  c #654B654B654B",
"v  c #756375637563",
"b  c #76CA76CA76CA",
"n  c #7A417A417A41",
"m  c #7C2C7C2C7C2C",
"M  c #7F737F737F73",
"N  c #819C819C819C",
"B  c #854885488548",
"V  c #87A887A887A8",
"C  c #8EFD8EFD8EFD",
"Z  c #934893489348",
"A  c #94B194B194B1",
"S  c #957E957E957E",
"D  c #99C499C499C4",
"F  c #9A969A969A96",
"G  c #9F7A9F7A9F7A",
"H  c #A1E9A1E9A1E9",
"J  c #A282A282A282",
"K  c #A4FAA4FAA4FA",
"L  c #A576A576A576",
"P  c #A680A680A680",
"I  c #A7F6A7F6A7F6",
"U  c #A888A888A888",
"Y  c #AB6AAB6AAB6A",
"T  c #ACF1ACF1ACF1",
"R  c #B0E4B0E4B0E4",
"E  c #B4CEB4CEB4CE",
"W  c #B6FBB6FBB6FB",
"Q  c #B75FB75FB75F",
"!  c #BC20BC20BC20",
"~  c #BD83BD83BD83",
"^  c #C18DC18DC18D",
"/  c #C33DC33DC33D",
"(  c #C3FBC3FBC3FB",
")  c #C514C514C514",
"_  c #C815C815C815",
"`  c #CCD7CCD7CCD7",
"'  c #CD4DCD4DCD4D",
"]  c #D4ABD4ABD4AB",
"[  c #D6F6D6F6D6F6",
"{  c #DCACDCACDCAC",
"}  c #DD7EDD7EDD7E",
"|  c #E105E105E105",
" . c #E1F3E1F3E1F3",
".. c #E2F5E2F5E2F5",
"X. c #E3F3E3F3E3F3",
"o. c #E4F9E4F9E4F9",
"O. c #E840E840E840",
"+. c #EA61EA61EA61",
"@. c #EAA3EAA3EAA3",
"#. c #EBA8EBA8EBA8",
"$. c #ECCEECCEECCE",
"%. c #EE57EE57EE57",
"&. c #EEFBEEFBEEFB",
"*. c #EFF1EFF1EFF1",
"=. c #F0A1F0A1F0A1",
"-. c #F251F251F251",
";. c #F30DF30DF30D",
":. c #F405F405F405",
">. c #F4CEF4CEF4CE",
",. c #F72AF72AF72A",
"<. c #F7FEF7FEF7FE",
"1. c #F97BF97BF97B",
"2. c gray98",
"3. c #FC15FC15FC15",
"4. c #FCD8FCD8FCD8",
"5. c #FDEEFDEEFDEE",
"6. c #FF16FF16FF16",
"7. c #FFFEFFFEFFFE",
/* pixels */
"7.7.7.7.7.7.7.7.7.7.7.7.7.7.7.7.7.7.7.7.7.7.7.7.7.7.7.7.7.7.7.7.",
"7.7.7.7.7.7.7.7.7.7.7.7.7.7.7.7.7.7.7.7.7.7.7.7.7.7.7.7.7.7.7.7.",
"7.7.7.7.7.7.7.7.7.7.7.7.7.7.7.7.7.7.7.7.7.7.7.7.7.7.7.7.7.7.7.7.",
"7.7.7.7.7.7.7.7.7.7.7.7.7.7.7.7.7.7.7.7.7.7.7.7.7.7.7.7.7.7.7.7.",
"7.7.7.7.7.7.7.7.7.7.7.7.7.7.7.7.7.7.7.7.7.7.7.7.7.7.7.7.7.7.7.7.",
"7.7.7.7.7.7.7.7.7.7.7.7.7.*...>.7.7.>...o.3.7.7.7.7.7.7.7.7.7.7.",
"7.7.7.7.7.7.7.7.7.7.7.7.K w > y H >.Y 4 t @.7.7.7.7.7.7.7.7.7.7.",
"7.7.7.7.7.7.7.7.7.7.7._ :   q = + e >   c 3.7.7.7.7.7.7.7.7.7.7.",
"7.7.7.7.7.7.7.7.7.7.7.A > f @.^ l 8 4 h } 7.7.7.7.7.7.7.7.7.7.7.",
"7.7.7.7.7.7.7.7.7.7.7.=.} *.7.7.7.*.o.3.7.7.7.7.7.7.7.7.7.7.7.7.",
"7.7.7.7.7.7.7.7.7.7.7.7.*.) F M M B W o.7.7.7.7.7.7.7.7.7.7.7.7.",
"7.7.7.7.7.7.7.7.7.7.3.K w &         + 8 A >.7.7.7.7.7.7.7.7.7.7.",
"7.7.7.7.7.7.7.7.7.7.F &     > 4 > +     @ H 7.7.7.7.7.7.7.7.7.7.",
"7.7.7.7.7.7.7.7.7.{ 6   6 A ] ..} ! j     y >.7.7.7.7.7.7.7.7.7.",
"7.7.7.7.7.7.7.7.7.Y : @ F 7.7.7.7.7...9   4 ..7.7.7.7.7.7.7.7.7.",
"7.7.7.7.7.7.7.7.7.=.] ~ =.7.7.7.7.7.3.a   4 ..7.7.7.7.7.7.7.7.7.",
"7.7.7.7.7.7.7.7.7.7.7.7.7.7.=..._ T b :   4 ..7.7.7.7.7.7.7.7.7.",
"7.7.7.7.7.7.7.7.7.7.7.} C h t 4 = +       4 ..7.7.7.7.7.7.7.7.7.",
"7.7.7.7.7.7.7.7.7.7.K 9           & 9 :   4 ..7.7.7.7.7.7.7.7.7.",
"7.7.7.7.7.7.7.7.7.` 4   & e c N K ^ ..p   4 } 7.7.7.7.7.7.7.7.7.",
"7.7.7.7.7.7.7.7.7.b   : Y =.7.7.7.7.>.t   4 ..7.7.7.7.7.7.7.7.7.",
"7.7.7.7.7.7.7.7.3.a   y >.7.7.7.7.7.T @   4 ..7.7.7.7.7.7.7.7.7.",
"7.7.7.7.7.7.7.7.3.h   > ~ 7.7.7.>.T 6     4 } 7.7.7.7.7.7.7.7.7.",
"7.7.7.7.7.7.7.7.7.G +   > l N n y &   @   & ^ 7.7.7.7.7.7.7.7.7.",
"7.7.7.7.7.7.7.7.7.@.d             @ l n +   K 7.7.7.7.7.7.7.7.7.",
"7.7.7.7.7.7.7.7.7.7.@.B e 6 4 q c W >...l y F 7.7.7.7.7.7.7.7.7.",
"7.7.7.7.7.7.7.7.7.7.7.7.=.....*.7.7.7.7.3.3.3.7.7.7.7.7.7.7.7.7.",
"7.7.7.7.7.7.7.7.7.7.7.7.7.7.7.7.7.7.7.7.7.7.7.7.7.7.7.7.7.7.7.7.",
"7.7.7.7.7.7.7.7.7.7.7.7.7.7.7.7.7.7.7.7.7.7.7.7.7.7.7.7.7.7.7.7.",
"7.7.7.7.7.7.7.7.7.7.7.7.7.7.7.7.7.7.7.7.7.7.7.7.7.7.7.7.7.7.7.7.",
"7.7.7.7.7.7.7.7.7.7.7.7.7.7.7.7.7.7.7.7.7.7.7.7.7.7.7.7.7.7.7.7.",
"7.7.7.7.7.7.7.7.7.7.7.7.7.7.7.7.7.7.7.7.7.7.7.7.7.7.7.7.7.7.7.7."
};
