/* XPM */
static const char *x228[] = {
/* columns rows colors chars-per-pixel */
"32 32 105 2",
"   c #000900090009",
".  c #00FB00FB00FB",
"X  c #020F020F020F",
"o  c #031F031F031F",
"O  c #071B071B071B",
"+  c #084F084F084F",
"@  c #0A150A150A15",
"#  c #0B1C0B1C0B1C",
"$  c #0BE20BE20BE2",
"%  c #0DCB0DCB0DCB",
"&  c #116111611161",
"*  c #143B143B143B",
"=  c #158015801580",
"-  c #172B172B172B",
";  c #18F718F718F7",
":  c #1B5F1B5F1B5F",
">  c #1B9F1B9F1B9F",
",  c #1D701D701D70",
"<  c #1E101E101E10",
"1  c #1F001F001F00",
"2  c #20DF20DF20DF",
"3  c #233F233F233F",
"4  c #275527552755",
"5  c #286328632863",
"6  c #32A732A732A7",
"7  c #37CD37CD37CD",
"8  c #38BA38BA38BA",
"9  c #3B833B833B83",
"0  c #3C433C433C43",
"q  c #430C430C430C",
"w  c #44DF44DF44DF",
"e  c #46FC46FC46FC",
"r  c #47D347D347D3",
"t  c #492249224922",
"y  c #4C4B4C4B4C4B",
"u  c #587F587F587F",
"i  c #5AE05AE05AE0",
"p  c #608E608E608E",
"a  c #62BB62BB62BB",
"s  c #641B641B641B",
"d  c #655165516551",
"f  c #756375637563",
"g  c #76CA76CA76CA",
"h  c #7A417A417A41",
"j  c #7C2C7C2C7C2C",
"k  c #7D117D117D11",
"l  c #7FBA7FBA7FBA",
"z  c #819C819C819C",
"x  c #854885488548",
"c  c #872287228722",
"v  c #8EFD8EFD8EFD",
"b  c #8F118F118F11",
"n  c #934893489348",
"m  c #957E957E957E",
"M  c #99C499C499C4",
"N  c #9A549A549A54",
"B  c #9C8C9C8C9C8C",
"V  c #9F7A9F7A9F7A",
"C  c #A1E9A1E9A1E9",
"Z  c #A4FAA4FAA4FA",
"A  c #A680A680A680",
"S  c #A7F6A7F6A7F6",
"D  c #A892A892A892",
"F  c #AB6AAB6AAB6A",
"G  c #ACF1ACF1ACF1",
"H  c #B0E4B0E4B0E4",
"J  c #B4CEB4CEB4CE",
"K  c #B731B731B731",
"L  c #B75FB75FB75F",
"P  c #BC20BC20BC20",
"I  c #BD83BD83BD83",
"U  c #BFFFBFFFBFFF",
"Y  c #C33DC33DC33D",
"T  c #C3FBC3FBC3FB",
"R  c #C5ACC5ACC5AC",
"E  c #CCD7CCD7CCD7",
"W  c #CD4DCD4DCD4D",
"Q  c #D4ABD4ABD4AB",
"!  c #D6F6D6F6D6F6",
"~  c #DCACDCACDCAC",
"^  c #E105E105E105",
"/  c #E1E8E1E8E1E8",
"(  c #E2F5E2F5E2F5",
")  c #E3F3E3F3E3F3",
"_  c #E500E500E500",
"`  c #E5AFE5AFE5AF",
"'  c #E721E721E721",
"]  c #E90BE90BE90B",
"[  c #EAA3EAA3EAA3",
"{  c #EBA8EBA8EBA8",
"}  c #EE57EE57EE57",
"|  c #EF27EF27EF27",
" . c #F0DEF0DEF0DE",
".. c #F223F223F223",
"X. c #F2FEF2FEF2FE",
"o. c #F3D4F3D4F3D4",
"O. c #F4CEF4CEF4CE",
"+. c #F7FEF7FEF7FE",
"@. c #F97BF97BF97B",
"#. c #FAE7FAE7FAE7",
"$. c #FBFBFBFBFBFB",
"%. c #FCBDFCBDFCBD",
"&. c #FDC6FDC6FDC6",
"*. c #FF03FF03FF03",
"=. c gray100",
/* pixels */
"=.=.=.=.=.=.=.=.=.=.=.=.=.=.=.=.=.=.=.=.=.=.=.=.=.=.=.=.=.=.=.=.",
"=.=.=.=.=.=.=.=.=.=.=.=.=.=.=.=.=.=.=.=.=.=.=.=.=.=.=.=.=.=.=.=.",
"=.=.=.=.=.=.=.=.=.=.=.=.=.=.=.=.=.=.=.=.=.=.=.=.=.=.=.=.=.=.=.=.",
"=.=.=.=.=.=.=.=.=.=.=.=.=.=.=.=.=.=.=.=.=.=.=.=.=.=.=.=.=.=.=.=.",
"=.=.=.=.=.=.=.=.=.=.=.=.=.=.=.=.=.=.=.=.=.=.=.=.=.=.=.=.=.=.=.=.",
"=.=.=.=.=.=.=.=.=.=.=.=.=.=.=.=.=.=.=.=.=.=.=.=.=.=.=.=.=.=.=.=.",
"=.=.=.=.=.=.=.=.=.=.=.=.I l v } =.I l v  .=.=.=.=.=.=.=.=.=.=.=.",
"=.=.=.=.=.=.=.=.=.=.=.=.l   1 ( =.l   1 ( =.=.=.=.=.=.=.=.=.=.=.",
"=.=.=.=.=.=.=.=.=.=.=.=.n ; 7 _ =.n ; 8 _ =.=.=.=.=.=.=.=.=.=.=.",
"=.=.=.=.=.=.=.=.=.=.=.=. .( ] $.=. ._ _ =.=.=.=.=.=.=.=.=.=.=.=.",
"=.=.=.=.=.=.=.=.=.=.=.=.} R B l l c K _ =.=.=.=.=.=.=.=.=.=.=.=.",
"=.=.=.=.=.=.=.=.=.=.$.Z 7 %         O 4 n O.=.=.=.=.=.=.=.=.=.=.",
"=.=.=.=.=.=.=.=.=.=.N %     ; 1 ; O     + C =.=.=.=.=.=.=.=.=.=.",
"=.=.=.=.=.=.=.=.=.~ 3   3 m Q ( ~ P i     q O.=.=.=.=.=.=.=.=.=.",
"=.=.=.=.=.=.=.=.=.F - + N =.=.=.=.=.( 5   1 ( =.=.=.=.=.=.=.=.=.",
"=.=.=.=.=.=.=.=.=. .Q I  .=.=.=.=.=.$.r   1 ( =.=.=.=.=.=.=.=.=.",
"=.=.=.=.=.=.=.=.=.=.=.=.=.=. .( E H g -   1 ( =.=.=.=.=.=.=.=.=.",
"=.=.=.=.=.=.=.=.=.=.=.~ v i 0 1 &         1 ( =.=.=.=.=.=.=.=.=.",
"=.=.=.=.=.=.=.=.=.=.Z 5         O + 5 -   1 ( =.=.=.=.=.=.=.=.=.",
"=.=.=.=.=.=.=.=.=.E 1   % 8 d z Z Y ( e   1 ~ =.=.=.=.=.=.=.=.=.",
"=.=.=.=.=.=.=.=.=.g   - Z O.=.=.=.=. .0   3 ( =.=.=.=.=.=.=.=.=.",
"=.=.=.=.=.=.=.=.$.r   q O.=.=.=.=.=.G +   1 ( =.=.=.=.=.=.=.=.=.",
"=.=.=.=.=.=.=.=.=.i   ; P =.=.=.O.G 4     1 ~ =.=.=.=.=.=.=.=.=.",
"=.=.=.=.=.=.=.=.=.B O   1 a z h q +   O   % Y =.=.=.=.=.=.=.=.=.",
"=.=.=.=.=.=.=.=.=.] y             + a h     Z =.=.=.=.=.=.=.=.=.",
"=.=.=.=.=.=.=.=.=.=.] c 0 3 1 6 d K O.( a q N =.=.=.=.=.=.=.=.=.",
"=.=.=.=.=.=.=.=.=.=.=.=. .( ( } =.=.=.=.=.$.$.=.=.=.=.=.=.=.=.=.",
"=.=.=.=.=.=.=.=.=.=.=.=.=.=.=.=.=.=.=.=.=.=.=.=.=.=.=.=.=.=.=.=.",
"=.=.=.=.=.=.=.=.=.=.=.=.=.=.=.=.=.=.=.=.=.=.=.=.=.=.=.=.=.=.=.=.",
"=.=.=.=.=.=.=.=.=.=.=.=.=.=.=.=.=.=.=.=.=.=.=.=.=.=.=.=.=.=.=.=.",
"=.=.=.=.=.=.=.=.=.=.=.=.=.=.=.=.=.=.=.=.=.=.=.=.=.=.=.=.=.=.=.=.",
"=.=.=.=.=.=.=.=.=.=.=.=.=.=.=.=.=.=.=.=.=.=.=.=.=.=.=.=.=.=.=.=."
};
