/* XPM */
static const char *x229[] = {
/* columns rows colors chars-per-pixel */
"32 32 111 2",
"   c #000900090009",
".  c #00FB00FB00FB",
"X  c #020F020F020F",
"o  c #031F031F031F",
"O  c #071B071B071B",
"+  c #084F084F084F",
"@  c #0A150A150A15",
"#  c #0B1C0B1C0B1C",
"$  c #0BE20BE20BE2",
"%  c #0DCB0DCB0DCB",
"&  c #116111611161",
"*  c #143B143B143B",
"=  c #158015801580",
"-  c #172B172B172B",
";  c #1B5F1B5F1B5F",
":  c #1B9F1B9F1B9F",
">  c #1D701D701D70",
",  c #1E0C1E0C1E0C",
"<  c #1F001F001F00",
"1  c #20DF20DF20DF",
"2  c #233F233F233F",
"3  c #275527552755",
"4  c #286328632863",
"5  c #32A732A732A7",
"6  c #378037803780",
"7  c #37CD37CD37CD",
"8  c #3A513A513A51",
"9  c #3B833B833B83",
"0  c #3C263C263C26",
"q  c #3E9E3E9E3E9E",
"w  c #42AD42AD42AD",
"e  c #430C430C430C",
"r  c #44DF44DF44DF",
"t  c #46FC46FC46FC",
"y  c #47D347D347D3",
"u  c #492249224922",
"i  c #4C134C134C13",
"p  c #4D014D014D01",
"a  c #50BE50BE50BE",
"s  c #56BB56BB56BB",
"d  c #587F587F587F",
"f  c #5AE05AE05AE0",
"g  c #608E608E608E",
"h  c #62BB62BB62BB",
"j  c #641B641B641B",
"k  c #655165516551",
"l  c #6AB36AB36AB3",
"z  c #6FEE6FEE6FEE",
"x  c #745A745A745A",
"c  c #755175517551",
"v  c #76CA76CA76CA",
"b  c #7A417A417A41",
"n  c #7C3D7C3D7C3D",
"m  c #80A980A980A9",
"M  c #818881888188",
"N  c #839A839A839A",
"B  c #854885488548",
"V  c #867D867D867D",
"C  c #8EFD8EFD8EFD",
"Z  c #934893489348",
"A  c #957E957E957E",
"S  c #99A399A399A3",
"D  c #9AA09AA09AA0",
"F  c #9DC29DC29DC2",
"G  c #9F7A9F7A9F7A",
"H  c #A1E9A1E9A1E9",
"J  c #A4FAA4FAA4FA",
"K  c #A680A680A680",
"L  c #A7F6A7F6A7F6",
"P  c #A892A892A892",
"I  c #AB55AB55AB55",
"U  c #ACF1ACF1ACF1",
"Y  c #B0E4B0E4B0E4",
"T  c #B4BCB4BCB4BC",
"R  c #B752B752B752",
"E  c #BC20BC20BC20",
"W  c #BD83BD83BD83",
"Q  c #C064C064C064",
"!  c #C1B1C1B1C1B1",
"~  c #C33DC33DC33D",
"^  c #C3D1C3D1C3D1",
"/  c #CCD7CCD7CCD7",
"(  c #CD4DCD4DCD4D",
")  c #D4E8D4E8D4E8",
"_  c #D6F6D6F6D6F6",
"`  c #DCD6DCD6DCD6",
"'  c #E105E105E105",
"]  c #E1EBE1EBE1EB",
"[  c #E2F5E2F5E2F5",
"{  c #E3F3E3F3E3F3",
"}  c #E480E480E480",
"|  c #E6C1E6C1E6C1",
" . c #E79CE79CE79C",
".. c #EA24EA24EA24",
"X. c #EAA3EAA3EAA3",
"o. c #EBA2EBA2EBA2",
"O. c #EE41EE41EE41",
"+. c #F0F8F0F8F0F8",
"@. c #F251F251F251",
"#. c #F2D0F2D0F2D0",
"$. c #F3D4F3D4F3D4",
"%. c #F4EAF4EAF4EA",
"&. c #F622F622F622",
"*. c #F7FEF7FEF7FE",
"=. c #F97BF97BF97B",
"-. c #FADBFADBFADB",
";. c #FC13FC13FC13",
":. c #FCB0FCB0FCB0",
">. c #FDEEFDEEFDEE",
",. c #FF2FFF2FFF2F",
"<. c gray100",
/* pixels */
"<.<.<.<.<.<.<.<.<.<.<.<.<.<.<.<.<.<.<.<.<.<.<.<.<.<.<.<.<.<.<.<.",
"<.<.<.<.<.<.<.<.<.<.<.<.<.<.<.<.<.<.<.<.<.<.<.<.<.<.<.<.<.<.<.<.",
"<.<.<.<.<.<.<.<.<.<.<.<.<.<.<.<.<.<.<.<.<.<.<.<.<.<.<.<.<.<.<.<.",
"<.<.<.<.<.<.<.<.<.<.<.<.<.<.%.^ T o.<.<.<.<.<.<.<.<.<.<.<.<.<.<.",
"<.<.<.<.<.<.<.<.<.<.<.<.<.#.x 8 w p ` <.<.<.<.<.<.<.<.<.<.<.<.<.",
"<.<.<.<.<.<.<.<.<.<.<.<.<.F u  .%.x l <.<.<.<.<.<.<.<.<.<.<.<.<.",
"<.<.<.<.<.<.<.<.<.<.<.<.<.b x <.<.I p ;.<.<.<.<.<.<.<.<.<.<.<.<.",
"<.<.<.<.<.<.<.<.<.<.<.<.<.T 0 ^ _ s m <.<.<.<.<.<.<.<.<.<.<.<.<.",
"<.<.<.<.<.<.<.<.<.<.<.<.<.;.S 8 8 x O.<.<.<.<.<.<.<.<.<.<.<.<.<.",
"<.<.<.<.<.<.<.<.<.<.<.<.<.<.<.o. .;.<.<.<.<.<.<.<.<.<.<.<.<.<.<.",
"<.<.<.<.<.<.<.<.<.<.<.<.O.^ S m n V T  .<.<.<.<.<.<.<.<.<.<.<.<.",
"<.<.<.<.<.<.<.<.<.<.;.J 6 %         O 4 Z %.<.<.<.<.<.<.<.<.<.<.",
"<.<.<.<.<.<.<.<.<.<.S %     - < < @     @ H <.<.<.<.<.<.<.<.<.<.",
"<.<.<.<.<.<.<.<.<.` 2   2 A _ [ ` T f     w %.<.<.<.<.<.<.<.<.<.",
"<.<.<.<.<.<.<.<.<.U ; O S <.<.<.<.<. .3   < [ <.<.<.<.<.<.<.<.<.",
"<.<.<.<.<.<.<.<.<.O.) E #.<.<.<.<.<.;.t   < [ <.<.<.<.<.<.<.<.<.",
"<.<.<.<.<.<.<.<.<.<.<.<.<.<.#.[ / Y x -   < [ <.<.<.<.<.<.<.<.<.",
"<.<.<.<.<.<.<.<.<.<.<.` C d 8 2 %         < [ <.<.<.<.<.<.<.<.<.",
"<.<.<.<.<.<.<.<.<.<.J 4           % 4 -   < [ <.<.<.<.<.<.<.<.<.",
"<.<.<.<.<.<.<.<.<./ <   % 8 k m J ^ [ t   < ` <.<.<.<.<.<.<.<.<.",
"<.<.<.<.<.<.<.<.<.x   - J %.<.<.<.<.#.0   < [ <.<.<.<.<.<.<.<.<.",
"<.<.<.<.<.<.<.<.;.u   w %.<.<.<.<.<.U @   < [ <.<.<.<.<.<.<.<.<.",
"<.<.<.<.<.<.<.<.<.d   ; E <.<.<.%.U 3     < ` <.<.<.<.<.<.<.<.<.",
"<.<.<.<.<.<.<.<.<.H     ; k m b w @   O   % ^ <.<.<.<.<.<.<.<.<.",
"<.<.<.<.<.<.<.<.<.o.u             % h b     J <.<.<.<.<.<.<.<.<.",
"<.<.<.<.<.<.<.<.<.<.o.V 0 < < 5 k T %.[ h w S <.<.<.<.<.<.<.<.<.",
"<.<.<.<.<.<.<.<.<.<.<.<.#.[ [ O.<.<.<.<.<.;.;.<.<.<.<.<.<.<.<.<.",
"<.<.<.<.<.<.<.<.<.<.<.<.<.<.<.<.<.<.<.<.<.<.<.<.<.<.<.<.<.<.<.<.",
"<.<.<.<.<.<.<.<.<.<.<.<.<.<.<.<.<.<.<.<.<.<.<.<.<.<.<.<.<.<.<.<.",
"<.<.<.<.<.<.<.<.<.<.<.<.<.<.<.<.<.<.<.<.<.<.<.<.<.<.<.<.<.<.<.<.",
"<.<.<.<.<.<.<.<.<.<.<.<.<.<.<.<.<.<.<.<.<.<.<.<.<.<.<.<.<.<.<.<.",
"<.<.<.<.<.<.<.<.<.<.<.<.<.<.<.<.<.<.<.<.<.<.<.<.<.<.<.<.<.<.<.<."
};
