/* XPM */
static const char *x230[] = {
/* columns rows colors chars-per-pixel */
"32 32 132 2",
"   c #000300030003",
".  c #00FE00FE00FE",
"X  c #01F401F401F4",
"o  c #02BF02BF02BF",
"O  c #03EF03EF03EF",
"+  c #070907090709",
"@  c #07A607A607A6",
"#  c #095A095A095A",
"$  c #09F509F509F5",
"%  c #0B270B270B27",
"&  c #0BF10BF10BF1",
"*  c #0D730D730D73",
"=  c #0DBE0DBE0DBE",
"-  c #0F300F300F30",
";  c #108010801080",
":  c #116711671167",
">  c #11F711F711F7",
",  c #142B142B142B",
"<  c #151315131513",
"1  c #15D615D615D6",
"2  c #16F816F816F8",
"3  c #17B117B117B1",
"4  c #18F218F218F2",
"5  c #1A421A421A42",
"6  c #1B851B851B85",
"7  c #1D451D451D45",
"8  c #1E271E271E27",
"9  c #1EEA1EEA1EEA",
"0  c #221222122212",
"q  c #231B231B231B",
"w  c #26BD26BD26BD",
"e  c #295329532953",
"r  c #29EE29EE29EE",
"t  c #2B092B092B09",
"y  c #2E1D2E1D2E1D",
"u  c #2F3F2F3F2F3F",
"i  c #315F315F315F",
"p  c #32A732A732A7",
"a  c #333133313331",
"s  c #35B735B735B7",
"d  c #37CE37CE37CE",
"f  c #393939393939",
"g  c #3C583C583C58",
"h  c #3D613D613D61",
"j  c #405A405A405A",
"k  c #418D418D418D",
"l  c #425942594259",
"z  c #42EA42EA42EA",
"x  c #465546554655",
"c  c #479047904790",
"v  c #483F483F483F",
"b  c #48FD48FD48FD",
"n  c #4FE04FE04FE0",
"m  c #56A556A556A5",
"M  c #645E645E645E",
"N  c #656365636563",
"B  c #66B866B866B8",
"V  c #6D2D6D2D6D2D",
"C  c #6FD66FD66FD6",
"Z  c #744F744F744F",
"A  c #779177917791",
"S  c #79D579D579D5",
"D  c #7A417A417A41",
"F  c #7C687C687C68",
"G  c #7D227D227D22",
"H  c #7F1F7F1F7F1F",
"J  c #807E807E807E",
"K  c #818281828182",
"L  c #89FA89FA89FA",
"P  c #8B808B808B80",
"I  c #8EFA8EFA8EFA",
"U  c #8F858F858F85",
"Y  c #958095809580",
"T  c #9A9B9A9B9A9B",
"R  c #9B229B229B22",
"E  c #9C299C299C29",
"W  c #9F0F9F0F9F0F",
"Q  c #A4FAA4FAA4FA",
"!  c #A5A9A5A9A5A9",
"~  c #A6B2A6B2A6B2",
"^  c #AB62AB62AB62",
"/  c #ACB1ACB1ACB1",
"(  c #B058B058B058",
")  c #B40BB40BB40B",
"_  c #B784B784B784",
"`  c #BA93BA93BA93",
"'  c #BBBCBBBCBBBC",
"]  c #BDF4BDF4BDF4",
"[  c #C1E1C1E1C1E1",
"{  c #C3BFC3BFC3BF",
"}  c #C655C655C655",
"|  c #C80BC80BC80B",
" . c #CB75CB75CB75",
".. c #CCDDCCDDCCDD",
"X. c #CE53CE53CE53",
"o. c #D02AD02AD02A",
"O. c #D305D305D305",
"+. c #D49BD49BD49B",
"@. c #D653D653D653",
"#. c #D6F6D6F6D6F6",
"$. c #D7D5D7D5D7D5",
"%. c #D95FD95FD95F",
"&. c #DC72DC72DC72",
"*. c #DE4CDE4CDE4C",
"=. c #E131E131E131",
"-. c #E1C3E1C3E1C3",
";. c #E292E292E292",
":. c #E423E423E423",
">. c #E4C7E4C7E4C7",
",. c #E690E690E690",
"<. c #E7DBE7DBE7DB",
"1. c #E8BEE8BEE8BE",
"2. c #EBB4EBB4EBB4",
"3. c #EE0DEE0DEE0D",
"4. c #EEB6EEB6EEB6",
"5. c #EFFDEFFDEFFD",
"6. c #F10CF10CF10C",
"7. c #F269F269F269",
"8. c #F28CF28CF28C",
"9. c #F402F402F402",
"0. c #F4D7F4D7F4D7",
"q. c #F59CF59CF59C",
"w. c #F739F739F739",
"e. c #F787F787F787",
"r. c #F89CF89CF89C",
"t. c #FA62FA62FA62",
"y. c #FB04FB04FB04",
"u. c #FC1EFC1EFC1E",
"i. c #FCB2FCB2FCB2",
"p. c #FE0AFE0AFE0A",
"a. c #FF37FF37FF37",
"s. c gray100",
/* pixels */
"s.s.s.s.s.s.s.s.s.s.s.s.s.s.s.s.s.s.s.s.s.s.s.s.s.s.s.s.s.s.s.s.",
"s.s.s.s.s.s.s.s.s.s.s.s.s.s.s.s.s.s.s.s.s.s.s.s.s.s.s.s.s.s.s.s.",
"s.s.s.s.s.s.s.s.s.s.s.s.s.s.s.s.s.s.s.s.s.s.s.s.s.s.s.s.s.s.s.s.",
"s.s.s.s.s.s.s.s.s.s.s.s.s.s.s.s.s.s.s.s.s.s.s.s.s.s.s.s.s.s.s.s.",
"s.s.s.s.s.s.s.s.s.s.s.s.s.s.s.s.s.s.s.s.s.s.s.s.s.s.s.s.s.s.s.s.",
"s.s.s.s.s.s.s.s.s.s.s.s.s.s.s.s.s.s.s.s.s.s.s.s.s.s.s.s.s.s.s.s.",
"s.s.s.s.s.s.s.s.s.s.s.s.s.s.s.s.s.s.s.s.s.s.s.s.s.s.s.s.s.s.s.s.",
"s.s.s.s.s.s.s.s.s.s.s.s.s.s.s.s.s.s.s.s.s.s.s.s.s.s.s.s.s.s.s.s.",
"s.s.s.s.s.s.s.s.s.s.s.s.s.s.s.s.s.s.s.s.s.s.s.s.s.s.s.s.s.s.s.s.",
"s.s.s.s.s.s.s.s.s.s.s.s.s.s.s.s.s.s.s.s.s.s.s.s.s.s.s.s.s.s.s.s.",
"s.s.s.s.s.s.s.3.[ U H H Y ' -.s.s.y.%.E H H T O.y.s.s.s.s.s.s.s.",
"s.s.s.s.s.y.~ d #         O e T ,.A 6         2 N &.s.s.s.s.s.s.",
"s.s.s.s.s.T *   O 2 8 8 >     > e O   # 8 8 #     l &.s.s.s.s.s.",
"s.s.s.s.&.q   q Y #.-.-...A #     * N ] -.-.[ D *   N s.s.s.s.s.",
"s.s.s.s.^ > # ~ s.s.s.s.s.6.h   O P s.s.s.s.s.y.U   2 ..s.s.s.s.",
"s.s.s.s.6. .' 6.s.s.s.s.0.O.s   u ,.y.y.y.y.y.s.,.u   U s.s.s.s.",
"s.s.s.s.s.s.s.6. .^ K N h 6     2 v v v v v v v v 2   N s.s.s.s.",
"s.s.s.s.s.6.T d >                                     v y.s.s.s.",
"s.s.s.s.0.C O     O 8 p b H u   2 x v v v v v x v x x H y.s.s.s.",
"s.s.s.s._ #   p P ] %.3.s.y.v   x 0.s.y.y.y.y.y.s.s.s.y.s.s.s.s.",
"s.s.s.s.N   q #.s.s.s.s.s.3.p   e ,.s.s.s.s.s.s.y.} [ ,.s.s.s.s.",
"s.s.s.y.v   l 0.s.s.s.s.s./ #   # / s.s.s.s.s.s.} 6 # H s.s.s.s.",
"s.s.s.s.N   > _ s.s.s.0./ q       q / 0.s.s.s.#.l   2 } s.s.s.s.",
"s.s.s.s._ #   6 M K D l #   8 C 6   # l D K M q     H s.s.s.s.s.",
"s.s.s.s.0.C             O l [ s.( e             * A 3.s.s.s.s.s.",
"s.s.s.s.s.6.E v q 8 e m E 1.s.s.s.#.D h 8 8 p N _ y.s.s.s.s.s.s.",
"s.s.s.s.s.s.s.y.,.-.1.y.s.s.s.s.s.s.s.6.-.-.3.s.s.s.s.s.s.s.s.s.",
"s.s.s.s.s.s.s.s.s.s.s.s.s.s.s.s.s.s.s.s.s.s.s.s.s.s.s.s.s.s.s.s.",
"s.s.s.s.s.s.s.s.s.s.s.s.s.s.s.s.s.s.s.s.s.s.s.s.s.s.s.s.s.s.s.s.",
"s.s.s.s.s.s.s.s.s.s.s.s.s.s.s.s.s.s.s.s.s.s.s.s.s.s.s.s.s.s.s.s.",
"s.s.s.s.s.s.s.s.s.s.s.s.s.s.s.s.s.s.s.s.s.s.s.s.s.s.s.s.s.s.s.s.",
"s.s.s.s.s.s.s.s.s.s.s.s.s.s.s.s.s.s.s.s.s.s.s.s.s.s.s.s.s.s.s.s."
};
