/* XPM */
static const char *x231[] = {
/* columns rows colors chars-per-pixel */
"32 32 105 2",
"   c #000200020002",
".  c #015E015E015E",
"X  c #023402340234",
"o  c #031903190319",
"O  c #039C039C039C",
"+  c #056805680568",
"@  c #097C097C097C",
"#  c #099B099B099B",
"$  c #0B7A0B7A0B7A",
"%  c #0D720D720D72",
"&  c #0E300E300E30",
"*  c #0FD70FD70FD7",
"=  c #117C117C117C",
"-  c #12E612E612E6",
";  c #140514051405",
":  c #153715371537",
">  c #1A521A521A52",
",  c #1B461B461B46",
"<  c #1BFF1BFF1BFF",
"1  c #1CE71CE71CE7",
"2  c #1E0D1E0D1E0D",
"3  c #222522252225",
"4  c #230223022302",
"5  c #273727372737",
"6  c #29BA29BA29BA",
"7  c #2CA82CA82CA8",
"8  c #2DD42DD42DD4",
"9  c #318A318A318A",
"0  c #338D338D338D",
"q  c #368D368D368D",
"w  c #382738273827",
"e  c #3AAC3AAC3AAC",
"r  c #3DD63DD63DD6",
"t  c #41C041C041C0",
"y  c #423142314231",
"u  c #450045004500",
"i  c #473547354735",
"p  c #49B449B449B4",
"a  c #4CCD4CCD4CCD",
"s  c #4FBC4FBC4FBC",
"d  c #54BD54BD54BD",
"f  c #579B579B579B",
"g  c #589358935893",
"h  c #646E646E646E",
"j  c #691169116911",
"k  c #6D2C6D2C6D2C",
"l  c #705070507050",
"z  c #712971297129",
"x  c #74A974A974A9",
"c  c #76CA76CA76CA",
"v  c #78C878C878C8",
"b  c #799D799D799D",
"n  c #7EEB7EEB7EEB",
"m  c #7F7A7F7A7F7A",
"M  c #816981698169",
"N  c #850885088508",
"B  c #8E728E728E72",
"V  c #8F678F678F67",
"C  c #93E393E393E3",
"Z  c #986698669866",
"A  c #99E499E499E4",
"S  c #9AD69AD69AD6",
"D  c #9E9A9E9A9E9A",
"F  c #9F7A9F7A9F7A",
"G  c #A7C4A7C4A7C4",
"H  c #AD92AD92AD92",
"J  c #B2FCB2FCB2FC",
"K  c #B50EB50EB50E",
"L  c #B7DEB7DEB7DE",
"P  c #B866B866B866",
"I  c #BC2CBC2CBC2C",
"U  c #BDF4BDF4BDF4",
"Y  c #BE7FBE7FBE7F",
"T  c #C423C423C423",
"R  c #C8DBC8DBC8DB",
"E  c #CD16CD16CD16",
"W  c #CD82CD82CD82",
"Q  c #DA1DDA1DDA1D",
"!  c #DCE3DCE3DCE3",
"~  c #DDFFDDFFDDFF",
"^  c #DEB5DEB5DEB5",
"/  c #E0C5E0C5E0C5",
"(  c #E1D5E1D5E1D5",
")  c #E2F7E2F7E2F7",
"_  c #E407E407E407",
"`  c #E517E517E517",
"'  c #E74FE74FE74F",
"]  c #E891E891E891",
"[  c #EA2AEA2AEA2A",
"{  c #EA6EEA6EEA6E",
"}  c #EBE9EBE9EBE9",
"|  c #EE6BEE6BEE6B",
" . c #F109F109F109",
".. c #F1C7F1C7F1C7",
"X. c #F42BF42BF42B",
"o. c #F62EF62EF62E",
"O. c #F6B2F6B2F6B2",
"+. c #F831F831F831",
"@. c #F9E1F9E1F9E1",
"#. c #FA87FA87FA87",
"$. c #FC53FC53FC53",
"%. c #FD37FD37FD37",
"&. c #FDD3FDD3FDD3",
"*. c #FEF4FEF4FEF4",
"=. c gray100",
/* pixels */
"=.=.=.=.=.=.=.=.=.=.=.=.=.=.=.=.=.=.=.=.=.=.=.=.=.=.=.=.=.=.=.=.",
"=.=.=.=.=.=.=.=.=.=.=.=.=.=.=.=.=.=.=.=.=.=.=.=.=.=.=.=.=.=.=.=.",
"=.=.=.=.=.=.=.=.=.=.=.=.=.=.=.=.=.=.=.=.=.=.=.=.=.=.=.=.=.=.=.=.",
"=.=.=.=.=.=.=.=.=.=.=.=.=.=.=.=.=.=.=.=.=.=.=.=.=.=.=.=.=.=.=.=.",
"=.=.=.=.=.=.=.=.=.=.=.=.=.=.=.=.=.=.=.=.=.=.=.=.=.=.=.=.=.=.=.=.",
"=.=.=.=.=.=.=.=.=.=.=.=.=.=.=.=.=.=.=.=.=.=.=.=.=.=.=.=.=.=.=.=.",
"=.=.=.=.=.=.=.=.=.=.=.=.=.=.=.=.=.=.=.=.=.=.=.=.=.=.=.=.=.=.=.=.",
"=.=.=.=.=.=.=.=.=.=.=.=.=.=.=.=.=.=.=.=.=.=.=.=.=.=.=.=.=.=.=.=.",
"=.=.=.=.=.=.=.=.=.=.=.=.=.=.=.=.=.=.=.=.=.=.=.=.=.=.=.=.=.=.=.=.",
"=.=.=.=.=.=.=.=.=.=.=.=.=.=.=.=.=.=.=.=.=.=.=.=.=.=.=.=.=.=.=.=.",
"=.=.=.=.=.=.=.=.=.=.=.=.=.o.W S m M G ^ =.=.=.=.=.=.=.=.=.=.=.=.",
"=.=.=.=.=.=.=.=.=.=.=.=.T a -         4 N  .=.=.=.=.=.=.=.=.=.=.",
"=.=.=.=.=.=.=.=.=.=.=.Y 4     $ 2 > +     c =.=.=.=.=.=.=.=.=.=.",
"=.=.=.=.=.=.=.=.=.=.{ e   % h Y ( ^ S 4   ; T =.=.=.=.=.=.=.=.=.",
"=.=.=.=.=.=.=.=.=.=.D     m $.=.=.=.=.L ;   v =.=.=.=.=.=.=.=.=.",
"=.=.=.=.=.=.=.=.=.=.f   6 ( =.=.=.=.=.$.D Z W =.=.=.=.=.=.=.=.=.",
"=.=.=.=.=.=.=.=.=.| q   f =.=.=.=.=.=.=.=.=.=.=.=.=.=.=.=.=.=.=.",
"=.=.=.=.=.=.=.=.=.( 2   m =.=.=.=.=.=.=.=.=.=.=.=.=.=.=.=.=.=.=.",
"=.=.=.=.=.=.=.=.=.( 2   m =.=.=.=.=.=.=.=.=.=.=.=.=.=.=.=.=.=.=.",
"=.=.=.=.=.=.=.=.=.( 4   k =.=.=.=.=.=.=.=.$.=.=.=.=.=.=.=.=.=.=.",
"=.=.=.=.=.=.=.=.=.o.i   r  .=.=.=.=.=.=.C f B  .=.=.=.=.=.=.=.=.",
"=.=.=.=.=.=.=.=.=.=.c   - P =.=.=.=.=.{ 9   t o.=.=.=.=.=.=.=.=.",
"=.=.=.=.=.=.=.=.=.=.E -   r E =.=.=.{ j     S =.=.=.=.=.=.=.=.=.",
"=.=.=.=.=.=.=.=.=.=.=.l     > h m l 9     p { =.=.=.=.=.=.=.=.=.",
"=.=.=.=.=.=.=.=.=.=.=. .k $             i Q =.=.=.=.=.=.=.=.=.=.",
"=.=.=.=.=.=.=.=.=.=.=.=.o.J f -   2 t B { =.=.=.=.=.=.=.=.=.=.=.",
"=.=.=.=.=.=.=.=.=.=.=.=.=.=.^ 4 r Q o.=.=.=.=.=.=.=.=.=.=.=.=.=.",
"=.=.=.=.=.=.=.=.=.=.=.=.=.=.P $ 2 k ^ =.=.=.=.=.=.=.=.=.=.=.=.=.",
"=.=.=.=.=.=.=.=.=.=.=.=.=.=.( L g   p | =.=.=.=.=.=.=.=.=.=.=.=.",
"=.=.=.=.=.=.=.=.=.=.=.=.=.` ( ^ v   6 { =.=.=.=.=.=.=.=.=.=.=.=.",
"=.=.=.=.=.=.=.=.=.=.=.=.( q > ;   % B =.=.=.=.=.=.=.=.=.=.=.=.=.",
"=.=.=.=.=.=.=.=.=.=.=.=.` i 8 8 a H $.=.=.=.=.=.=.=.=.=.=.=.=.=."
};
