/* XPM */
static const char *x235[] = {
/* columns rows colors chars-per-pixel */
"32 32 100 2",
"   c black",
".  c #00DD00DD00DD",
"X  c #01A901A901A9",
"o  c #029602960296",
"O  c #040504050405",
"+  c #080B080B080B",
"@  c #093009300930",
"#  c #0A220A220A22",
"$  c #0B520B520B52",
"%  c #0BF10BF10BF1",
"&  c #0D620D620D62",
"*  c #0E8A0E8A0E8A",
"=  c #0F7E0F7E0F7E",
"-  c #155115511551",
";  c #15D715D715D7",
":  c #16A516A516A5",
">  c #18F718F718F7",
",  c #1AC01AC01AC0",
"<  c #1C661C661C66",
"1  c #1D621D621D62",
"2  c #1E141E141E14",
"3  c #1ED21ED21ED2",
"4  c #232E232E232E",
"5  c #2A392A392A39",
"6  c #2FA92FA92FA9",
"7  c #338D338D338D",
"8  c #33C633C633C6",
"9  c #38BA38BA38BA",
"0  c #3B7F3B7F3B7F",
"q  c #3F783F783F78",
"w  c #404940494049",
"e  c #425742574257",
"r  c #434343434343",
"t  c #450045004500",
"y  c #46C146C146C1",
"u  c #4D704D704D70",
"i  c #4DD04DD04DD0",
"p  c #534553455345",
"a  c #549454945494",
"s  c #54FA54FA54FA",
"d  c #59BB59BB59BB",
"f  c #64CB64CB64CB",
"g  c #657265726572",
"h  c #66B466B466B4",
"j  c #6AD16AD16AD1",
"k  c #6B2F6B2F6B2F",
"l  c #76CA76CA76CA",
"z  c #7A7C7A7C7A7C",
"x  c #7B5D7B5D7B5D",
"c  c #7C8F7C8F7C8F",
"v  c #7D0D7D0D7D0D",
"b  c #7FD77FD77FD7",
"n  c #80AA80AA80AA",
"m  c #814281428142",
"M  c #821F821F821F",
"N  c #8F118F118F11",
"B  c #92D292D292D2",
"V  c #99A999A999A9",
"C  c #9A519A519A51",
"Z  c #9BA89BA89BA8",
"A  c #9DE79DE79DE7",
"S  c #AA7FAA7FAA7F",
"D  c #AB4FAB4FAB4F",
"F  c #ACF1ACF1ACF1",
"G  c #B40BB40BB40B",
"H  c #BDF4BDF4BDF4",
"J  c #BFFFBFFFBFFF",
"K  c #C366C366C366",
"L  c #C51DC51DC51D",
"P  c #C919C919C919",
"I  c #C9DCC9DCC9DC",
"U  c #CD17CD17CD17",
"Y  c #D231D231D231",
"T  c #D817D817D817",
"R  c #DB63DB63DB63",
"E  c #DD30DD30DD30",
"W  c #DE54DE54DE54",
"Q  c #E121E121E121",
"!  c #E1DEE1DEE1DE",
"~  c #E3E1E3E1E3E1",
"^  c #E4C3E4C3E4C3",
"/  c #E578E578E578",
"(  c #E8FBE8FBE8FB",
")  c #E9A9E9A9E9A9",
"_  c #EC02EC02EC02",
"`  c #EE6BEE6BEE6B",
"'  c #F107F107F107",
"]  c #F172F172F172",
"[  c #F317F317F317",
"{  c #F3BEF3BEF3BE",
"}  c #F4C9F4C9F4C9",
"|  c #F5EBF5EBF5EB",
" . c #F6AFF6AFF6AF",
".. c #F842F842F842",
"X. c #FAFBFAFBFAFB",
"o. c #FC3FFC3FFC3F",
"O. c #FCCBFCCBFCCB",
"+. c #FE12FE12FE12",
"@. c #FF70FF70FF70",
"#. c gray100",
/* pixels */
"#.#.#.#.#.#.#.#.#.#.#.#.#.#.#.#.#.#.#.#.#.#.#.#.#.#.#.#.#.#.#.#.",
"#.#.#.#.#.#.#.#.#.#.#.#.#.#.#.#.#.#.#.#.#.#.#.#.#.#.#.#.#.#.#.#.",
"#.#.#.#.#.#.#.#.#.#.#.#.#.#.#.#.#.#.#.#.#.#.#.#.#.#.#.#.#.#.#.#.",
"#.#.#.#.#.#.#.#.#.#.#.#.#.#.#.#.#.#.#.#.#.#.#.#.#.#.#.#.#.#.#.#.",
"#.#.#.#.#.#.#.#.#.#.#.#.#.#.#.#.#.#.#.#.#.#.#.#.#.#.#.#.#.#.#.#.",
"#.#.#.#.#.#.#.#.#.#.#.#.#.#.#.#.#.#.#.#.#.#.#.#.#.#.#.#.#.#.#.#.",
"#.#.#.#.#.#.#.#.#.#.#.#.H b N [ #.H b N [ #.#.#.#.#.#.#.#.#.#.#.",
"#.#.#.#.#.#.#.#.#.#.#.#.b   1 Q #.b   1 Q #.#.#.#.#.#.#.#.#.#.#.",
"#.#.#.#.#.#.#.#.#.#.#.#.N , 9 / #.B , 9 / #.#.#.#.#.#.#.#.#.#.#.",
"#.#.#.#.#.#.#.#.#.#.#.#.[ Q / #.#.[ Q / o.#.#.#.#.#.#.#.#.#.#.#.",
"#.#.#.#.#.#.#.#.#.#.#.#.#.R A b b C Y o.#.#.#.#.#.#.#.#.#.#.#.#.",
"#.#.#.#.#.#.#.#.#.#.#.W f ,         : f T #.#.#.#.#.#.#.#.#.#.#.",
"#.#.#.#.#.#.#.#.#.#.W w     & 1 1 &     5 U #.#.#.#.#.#.#.#.#.#.",
"#.#.#.#.#.#.#.#.#.| p   & f H Q Q K z :   y _ #.#.#.#.#.#.#.#.#.",
"#.#.#.#.#.#.#.#.#.G # # B o.#.#.#.#.#.S & O S #.#.#.#.#.#.#.#.#.",
"#.#.#.#.#.#.#.#.#.f   i | #.#.#.#.#.#.o.a   d #.#.#.#.#.#.#.#.#.",
"#.#.#.#.#.#.#.#.` 8   0 M b b M b b b M w   8 ` #.#.#.#.#.#.#.#.",
"#.#.#.#.#.#.#.#.Q 1                         1 Q #.#.#.#.#.#.#.#.",
"#.#.#.#.#.#.#.#.Q 4   - 1 1 1 1 1 4 1 1 1 1 9 / #.#.#.#.#.#.#.#.",
"#.#.#.#.#.#.#.#./ 4   k / Q Q Q Q Q Q Q Q Q / o.#.#.#.#.#.#.#.#.",
"#.#.#.#.#.#.#.#.| y   w | #.#.#.#.#.#.#.#.#.#.#.#.#.#.#.#.#.#.#.",
"#.#.#.#.#.#.#.#.#.l   & F #.#.#.#.#.#.[ z p C | #.#.#.#.#.#.#.#.",
"#.#.#.#.#.#.#.#.#.P :   4 F | #.#.#._ b #   b #.#.#.#.#.#.#.#.#.",
"#.#.#.#.#.#.#.#.#.#.M     & w z M f 6     7 Q #.#.#.#.#.#.#.#.#.",
"#.#.#.#.#.#.#.#.#.#.` b :               w L #.#.#.#.#.#.#.#.#.#.",
"#.#.#.#.#.#.#.#.#.#.#.#.P j 0 1 1 5 i C _ #.#.#.#.#.#.#.#.#.#.#.",
"#.#.#.#.#.#.#.#.#.#.#.#.#.#.[ Q Q _ o.#.#.#.#.#.#.#.#.#.#.#.#.#.",
"#.#.#.#.#.#.#.#.#.#.#.#.#.#.#.#.#.#.#.#.#.#.#.#.#.#.#.#.#.#.#.#.",
"#.#.#.#.#.#.#.#.#.#.#.#.#.#.#.#.#.#.#.#.#.#.#.#.#.#.#.#.#.#.#.#.",
"#.#.#.#.#.#.#.#.#.#.#.#.#.#.#.#.#.#.#.#.#.#.#.#.#.#.#.#.#.#.#.#.",
"#.#.#.#.#.#.#.#.#.#.#.#.#.#.#.#.#.#.#.#.#.#.#.#.#.#.#.#.#.#.#.#.",
"#.#.#.#.#.#.#.#.#.#.#.#.#.#.#.#.#.#.#.#.#.#.#.#.#.#.#.#.#.#.#.#."
};
