/* XPM */
static const char *x240[] = {
/* columns rows colors chars-per-pixel */
"32 32 102 2",
"   c black",
".  c #00E300E300E3",
"X  c #020502050205",
"o  c #028E028E028E",
"O  c #060106010601",
"+  c #06E206E206E2",
"@  c #097C097C097C",
"#  c #0A540A540A54",
"$  c #0AF20AF20AF2",
"%  c #0BB80BB80BB8",
"&  c #0DBD0DBD0DBD",
"*  c #0EAD0EAD0EAD",
"=  c #100310031003",
"-  c #144514451445",
";  c #158115811581",
":  c #167216721672",
">  c gray9",
",  c #1A8E1A8E1A8E",
"<  c #1C951C951C95",
"1  c #1D351D351D35",
"2  c #1E111E111E11",
"3  c #1EE11EE11EE1",
"4  c #232223222322",
"5  c #273327332733",
"6  c #297329732973",
"7  c #29B029B029B0",
"8  c #2B362B362B36",
"9  c #306530653065",
"0  c #311131113111",
"q  c #327932793279",
"w  c #338D338D338D",
"e  c #39B139B139B1",
"r  c #3D0E3D0E3D0E",
"t  c #3F5D3F5D3F5D",
"y  c #42B842B842B8",
"u  c #430943094309",
"i  c #450045004500",
"p  c #472147214721",
"a  c #487948794879",
"s  c #4A674A674A67",
"d  c #4FCE4FCE4FCE",
"f  c #544754475447",
"g  c #58A658A658A6",
"h  c #5A575A575A57",
"j  c #64BD64BD64BD",
"k  c #651C651C651C",
"l  c #664466446644",
"z  c #6AC36AC36AC3",
"x  c #6AF66AF66AF6",
"c  c #6D026D026D02",
"v  c #705070507050",
"b  c #745574557455",
"n  c #760876087608",
"m  c #798579857985",
"M  c #7A6E7A6E7A6E",
"N  c #7FDE7FDE7FDE",
"B  c #80FC80FC80FC",
"V  c #8E9B8E9B8E9B",
"C  c #967896789678",
"Z  c #9A549A549A54",
"A  c #9B1D9B1D9B1D",
"S  c #9ECC9ECC9ECC",
"D  c #ACF0ACF0ACF0",
"F  c #B4E5B4E5B4E5",
"G  c #B5BDB5BDB5BD",
"H  c #B6BEB6BEB6BE",
"J  c #B745B745B745",
"K  c #B8A7B8A7B8A7",
"L  c #BBC8BBC8BBC8",
"P  c #BE7ABE7ABE7A",
"I  c #BFB7BFB7BFB7",
"U  c #C8ECC8ECC8EC",
"Y  c #C9DAC9DAC9DA",
"T  c #CE53CE53CE53",
"R  c #D2B3D2B3D2B3",
"E  c #D410D410D410",
"W  c #D5BDD5BDD5BD",
"Q  c #D6EBD6EBD6EB",
"!  c #D763D763D763",
"~  c #DC25DC25DC25",
"^  c #DF97DF97DF97",
"/  c #E077E077E077",
"(  c #E1E3E1E3E1E3",
")  c #E38DE38DE38D",
"_  c #E4D1E4D1E4D1",
"`  c #EA8FEA8FEA8F",
"'  c #EE41EE41EE41",
"]  c #EF03EF03EF03",
"[  c #F123F123F123",
"{  c #F1C7F1C7F1C7",
"}  c #F327F327F327",
"|  c #F3EEF3EEF3EE",
" . c #F4F9F4F9F4F9",
".. c #F6DAF6DAF6DA",
"X. c #F7F5F7F5F7F5",
"o. c #F911F911F911",
"O. c #FADDFADDFADD",
"+. c #FBCDFBCDFBCD",
"@. c #FCD5FCD5FCD5",
"#. c #FDC0FDC0FDC0",
"$. c #FF78FF78FF78",
"%. c gray100",
/* pixels */
"%.%.%.%.%.%.%.%.%.%.%.%.%.%.%.%.%.%.%.%.%.%.%.%.%.%.%.%.%.%.%.%.",
"%.%.%.%.%.%.%.%.%.%.%.%.%.%.%.%.%.%.%.%.%.%.%.%.%.%.%.%.%.%.%.%.",
"%.%.%.%.%.%.%.%.%.%.%.%.%.%.%.%.%.%.%.%.%.%.%.%.%.%.%.%.%.%.%.%.",
"%.%.%.%.%.%.%.%.%.%.%.%.%.%.%.%.%.%.%.%.%.%.%.%.%.%.%.%.%.%.%.%.",
"%.%.%.%.%.%.%.%.%.%.%.%.| ~ ( ] %.%.%.%...%.%.%.%.%.%.%.%.%.%.%.",
"%.%.%.%.%.%.%.%.%.%.%.%.E p , r I +.Y l M +.%.%.%.%.%.%.%.%.%.%.",
"%.%.%.%.%.%.%.%.%.%.%.%.%.! a   < d - + l ..%.%.%.%.%.%.%.%.%.%.",
"%.%.%.%.%.%.%.%.%.%.%.%.%...S -     q K | %.%.%.%.%.%.%.%.%.%.%.",
"%.%.%.%.%.%.%.%.%.%.%.| A t @ < q   , K %.%.%.%.%.%.%.%.%.%.%.%.",
"%.%.%.%.%.%.%.%.%.%.%.( 7 < B ~ ~ t   7 ! %.%.%.%.%.%.%.%.%.%.%.",
"%.%.%.%.%.%.%.%.%.%.%.+.G ! ` ( ] G @   l +.%.%.%.%.%.%.%.%.%.%.",
"%.%.%.%.%.%.%.%.%.%.%...G h 7 < 7 n q   & G %.%.%.%.%.%.%.%.%.%.",
"%.%.%.%.%.%.%.%.%.%.| c @           @     f +.%.%.%.%.%.%.%.%.%.",
"%.%.%.%.%.%.%.%.%.+.n     - f N M u @     , T %.%.%.%.%.%.%.%.%.",
"%.%.%.%.%.%.%.%.%.I =   4 K +.%.%...D 4     V %.%.%.%.%.%.%.%.%.",
"%.%.%.%.%.%.%.%.%.z   = G %.%.%.%.%.%.D @   f %.%.%.%.%.%.%.%.%.",
"%.%.%.%.%.%.%.%.| t   u | %.%.%.%.%.%.| u   w ] %.%.%.%.%.%.%.%.",
"%.%.%.%.%.%.%.%.( <   M %.%.%.%.%.%.%.%.M   < ( %.%.%.%.%.%.%.%.",
"%.%.%.%.%.%.%.%.( <   N %.%.%.%.%.%.%.%.B   < ( %.%.%.%.%.%.%.%.",
"%.%.%.%.%.%.%.%.( 4   M %.%.%.%.%.%.%.%.v   4 ( %.%.%.%.%.%.%.%.",
"%.%.%.%.%.%.%.%.| r   a +.%.%.%.%.%.%.| t   p ..%.%.%.%.%.%.%.%.",
"%.%.%.%.%.%.%.%.%.z   - K %.%.%.%.%.%.D @   B %.%.%.%.%.%.%.%.%.",
"%.%.%.%.%.%.%.%.%.Y -   4 K +.%.%.| D 4   < E %.%.%.%.%.%.%.%.%.",
"%.%.%.%.%.%.%.%.%.%.n     - f B M u @   & A %.%.%.%.%.%.%.%.%.%.",
"%.%.%.%.%.%.%.%.%.%.| v &             = C %.%.%.%.%.%.%.%.%.%.%.",
"%.%.%.%.%.%.%.%.%.%.%.+.G l w < < q z U +.%.%.%.%.%.%.%.%.%.%.%.",
"%.%.%.%.%.%.%.%.%.%.%.%.%.%.] ~ ( ] %.%.%.%.%.%.%.%.%.%.%.%.%.%.",
"%.%.%.%.%.%.%.%.%.%.%.%.%.%.%.%.%.%.%.%.%.%.%.%.%.%.%.%.%.%.%.%.",
"%.%.%.%.%.%.%.%.%.%.%.%.%.%.%.%.%.%.%.%.%.%.%.%.%.%.%.%.%.%.%.%.",
"%.%.%.%.%.%.%.%.%.%.%.%.%.%.%.%.%.%.%.%.%.%.%.%.%.%.%.%.%.%.%.%.",
"%.%.%.%.%.%.%.%.%.%.%.%.%.%.%.%.%.%.%.%.%.%.%.%.%.%.%.%.%.%.%.%.",
"%.%.%.%.%.%.%.%.%.%.%.%.%.%.%.%.%.%.%.%.%.%.%.%.%.%.%.%.%.%.%.%."
};
