/* XPM */
static const char *x245[] = {
/* columns rows colors chars-per-pixel */
"32 32 86 1",
"  c black",
". c #025802580258",
"X c #029C029C029C",
"o c #055305530553",
"O c #067C067C067C",
"+ c #09D209D209D2",
"@ c #0E060E060E06",
"# c #155E155E155E",
"$ c #167116711671",
"% c #17A417A417A4",
"& c #1A4B1A4B1A4B",
"* c #1B331B331B33",
"= c #1C881C881C88",
"- c #1D701D701D70",
"; c #1EEA1EEA1EEA",
": c #20E020E020E0",
"> c #232A232A232A",
", c #29CB29CB29CB",
"< c #2AF02AF02AF0",
"1 c #2E342E342E34",
"2 c #302F302F302F",
"3 c #312B312B312B",
"4 c #324A324A324A",
"5 c #36D836D836D8",
"6 c #3C2B3C2B3C2B",
"7 c #3CFA3CFA3CFA",
"8 c #42E442E442E4",
"9 c #482048204820",
"0 c #48F748F748F7",
"q c #4C574C574C57",
"w c #4F714F714F71",
"e c #58A658A658A6",
"r c #647B647B647B",
"t c #66C266C266C2",
"y c #6AC36AC36AC3",
"u c #6FEA6FEA6FEA",
"i c #766D766D766D",
"p c #779F779F779F",
"a c #7AA37AA37AA3",
"s c #7B4E7B4E7B4E",
"d c #7F227F227F22",
"f c #854785478547",
"g c #8E9B8E9B8E9B",
"h c #8FAF8FAF8FAF",
"j c #930893089308",
"k c #967896789678",
"l c #9AAC9AAC9AAC",
"z c #9C649C649C64",
"x c #9D499D499D49",
"c c #A389A389A389",
"v c #A460A460A460",
"b c #AC66AC66AC66",
"n c #B279B279B279",
"m c #BF95BF95BF95",
"M c #C437C437C437",
"N c #C4FBC4FBC4FB",
"B c #C9DCC9DCC9DC",
"V c #CE22CE22CE22",
"C c #CE53CE53CE53",
"Z c #D0EBD0EBD0EB",
"A c #D511D511D511",
"S c #D987D987D987",
"D c #DB3DDB3DDB3D",
"F c #DD33DD33DD33",
"G c #DE2DDE2DDE2D",
"H c #E203E203E203",
"J c #E3F0E3F0E3F0",
"K c #E535E535E535",
"L c #E74FE74FE74F",
"P c #E82DE82DE82D",
"I c #E9D6E9D6E9D6",
"U c #EA6CEA6CEA6C",
"Y c #EB7AEB7AEB7A",
"T c #EE57EE57EE57",
"R c #EE7DEE7DEE7D",
"E c #F270F270F270",
"W c #F3DAF3DAF3DA",
"Q c #F4FBF4FBF4FB",
"! c #F5ACF5ACF5AC",
"~ c #F712F712F712",
"^ c #FADBFADBFADB",
"/ c #FC38FC38FC38",
"( c #FCC0FCC0FCC0",
") c #FDA6FDA6FDA6",
"_ c #FF20FF20FF20",
"` c gray100",
/* pixels */
"````````````````````````````````",
"````````````````````````````````",
"````````````````````````````````",
"````````````````````````````````",
"````````````````````````````````",
"`````````````WJR``/KJ~``````````",
"````````````Nq*2fIZ2:N``````````",
"```````````I5 ,: 11 5I``````````",
"```````````M:2ZSp1*8m```````````",
"```````````~JK/``WJ~````````````",
"````````````/SzddzS/````````````",
"```````````Ji*    *uJ```````````",
"``````````G8  O*-O  8G``````````",
"`````````/t  6bGGb6  t/`````````",
"`````````C$ 6G````G6 $C`````````",
"`````````h +n``````n+ h`````````",
"`````````t ,K``````K, e`````````",
"````````/0 0/``````/0 0/````````",
"````````/9 0/``````/0 9/````````",
"````````/q 6W``````W6 q/````````",
"`````````a $Z``````Z* a`````````",
"`````````bO a``````a Ob`````````",
"`````````I5 @j~``~j@ 1K`````````",
"``````````c@ +8aa8+ @c``````````",
"```````````k$      -l/``````````",
"```````````/By2--6pB````````````",
"``````````````IJJW``````````````",
"````````````````````````````````",
"````````````````````````````````",
"````````````````````````````````",
"````````````````````````````````",
"````````````````````````````````"
};
