/* XPM */
static const char *x246[] = {
/* columns rows colors chars-per-pixel */
"32 32 73 1",
"  c black",
". c #029C029C029C",
"X c #055305530553",
"o c #067C067C067C",
"O c #09D209D209D2",
"+ c #0E060E060E06",
"@ c #155E155E155E",
"# c #167116711671",
"$ c #17A417A417A4",
"% c #18F718F718F7",
"& c #1A4B1A4B1A4B",
"* c #1B751B751B75",
"= c #1C881C881C88",
"- c #1D701D701D70",
"; c #1E231E231E23",
": c #1EEA1EEA1EEA",
"> c #29DA29DA29DA",
", c #2DDE2DDE2DDE",
"< c #324A324A324A",
"1 c #371337133713",
"2 c #38BA38BA38BA",
"3 c #3C2B3C2B3C2B",
"4 c #3CFA3CFA3CFA",
"5 c #42D542D542D5",
"6 c #482048204820",
"7 c #48F748F748F7",
"8 c #4F714F714F71",
"9 c #58A658A658A6",
"0 c #647B647B647B",
"q c #66C266C266C2",
"w c #6AC36AC36AC3",
"e c #6FEA6FEA6FEA",
"r c #766D766D766D",
"t c #7AA37AA37AA3",
"y c #7B4E7B4E7B4E",
"u c #7D117D117D11",
"i c #7F9A7F9A7F9A",
"p c #8E9B8E9B8E9B",
"a c #8F318F318F31",
"s c #930893089308",
"d c #967896789678",
"f c #9AAC9AAC9AAC",
"g c #9D869D869D86",
"h c #A389A389A389",
"j c #A460A460A460",
"k c #AC66AC66AC66",
"l c #B279B279B279",
"z c #BFFFBFFFBFFF",
"x c #C9DCC9DCC9DC",
"c c #CE22CE22CE22",
"v c #CE53CE53CE53",
"b c #D511D511D511",
"n c #DB65DB65DB65",
"m c #DD33DD33DD33",
"M c #DE2DDE2DDE2D",
"N c #E1E1E1E1E1E1",
"B c #E3AFE3AFE3AF",
"V c #E506E506E506",
"C c #E582E582E582",
"Z c #E82DE82DE82D",
"A c #E8FAE8FAE8FA",
"S c #EA6CEA6CEA6C",
"D c #EE57EE57EE57",
"F c #F107F107F107",
"G c #F302F302F302",
"H c #F3DAF3DAF3DA",
"J c #F5ACF5ACF5AC",
"K c #FADBFADBFADB",
"L c #FC44FC44FC44",
"P c #FCC0FCC0FCC0",
"I c #FDA6FDA6FDA6",
"U c #FF30FF30FF30",
"Y c gray100",
/* pixels */
"YYYYYYYYYYYYYYYYYYYYYYYYYYYYYYYY",
"YYYYYYYYYYYYYYYYYYYYYYYYYYYYYYYY",
"YYYYYYYYYYYYYYYYYYYYYYYYYYYYYYYY",
"YYYYYYYYYYYYYYYYYYYYYYYYYYYYYYYY",
"YYYYYYYYYYYYYYYYYYYYYYYYYYYYYYYY",
"YYYYYYYYYYYYYYYYYYYYYYYYYYYYYYYY",
"YYYYYYYYYYYYziaDYziaFYYYYYYYYYYY",
"YYYYYYYYYYYYi =BYi =BYYYYYYYYYYY",
"YYYYYYYYYYYYa#2BYa*2CYYYYYYYYYYY",
"YYYYYYYYYYYYDBAYYFBCLYYYYYYYYYYY",
"YYYYYYYYYYYYLngiifnLYYYYYYYYYYYY",
"YYYYYYYYYYYBr*    *eBYYYYYYYYYYY",
"YYYYYYYYYYM5  o*=o  5MYYYYYYYYYY",
"YYYYYYYYYLq  3kMMk3  qLYYYYYYYYY",
"YYYYYYYYYv# 3MYYYYM3 #vYYYYYYYYY",
"YYYYYYYYYa OlYYYYYYlO aYYYYYYYYY",
"YYYYYYYYYq >CYYYYYYC> 9YYYYYYYYY",
"YYYYYYYYL7 7LYYYYYYL7 7LYYYYYYYY",
"YYYYYYYYL6 7LYYYYYYL7 6LYYYYYYYY",
"YYYYYYYYL8 3FYYYYYYF3 8LYYYYYYYY",
"YYYYYYYYYt #bYYYYYYb# tYYYYYYYYY",
"YYYYYYYYYko tYYYYYYt okYYYYYYYYY",
"YYYYYYYYYA1 +sJYYJs+ ,CYYYYYYYYY",
"YYYYYYYYYYh+ O5tt5O +hYYYYYYYYYY",
"YYYYYYYYYYYd#      =fLYYYYYYYYYY",
"YYYYYYYYYYYLxw<==3rxYYYYYYYYYYYY",
"YYYYYYYYYYYYYYABBJYYYYYYYYYYYYYY",
"YYYYYYYYYYYYYYYYYYYYYYYYYYYYYYYY",
"YYYYYYYYYYYYYYYYYYYYYYYYYYYYYYYY",
"YYYYYYYYYYYYYYYYYYYYYYYYYYYYYYYY",
"YYYYYYYYYYYYYYYYYYYYYYYYYYYYYYYY",
"YYYYYYYYYYYYYYYYYYYYYYYYYYYYYYYY"
};
