/* XPM */
static const char *x248[] = {
/* columns rows colors chars-per-pixel */
"32 32 103 2",
"   c #000100010001",
".  c #010E010E010E",
"X  c #021402140214",
"o  c #031303130313",
"O  c #03C703C703C7",
"+  c #068406840684",
"@  c #070707070707",
"#  c #07B207B207B2",
"$  c #0A720A720A72",
"%  c #0B380B380B38",
"&  c #0BD00BD00BD0",
"*  c #0D6C0D6C0D6C",
"=  c #151E151E151E",
"-  c #15D715D715D7",
";  c #170717071707",
":  c #17BC17BC17BC",
">  c #1B481B481B48",
",  c #1BD91BD91BD9",
"<  c #1D751D751D75",
"1  c #1DFD1DFD1DFD",
"2  c #1EFA1EFA1EFA",
"3  c #203220322032",
"4  c #221922192219",
"5  c #231923192319",
"6  c #23D623D623D6",
"7  c #24F024F024F0",
"8  c #290929092909",
"9  c #2FFC2FFC2FFC",
"0  c #319631963196",
"q  c #324A324A324A",
"w  c #336333633363",
"e  c #343534353435",
"r  c #3B413B413B41",
"t  c #3C0A3C0A3C0A",
"y  c #3CC23CC23CC2",
"u  c #402C402C402C",
"i  c #417441744174",
"p  c #42D442D442D4",
"a  c #450045004500",
"s  c #466A466A466A",
"d  c #4BB54BB54BB5",
"f  c #4F294F294F29",
"g  c #503F503F503F",
"h  c #517E517E517E",
"j  c #539C539C539C",
"k  c #57C557C557C5",
"l  c #58A658A658A6",
"z  c #643464346434",
"x  c #659465946594",
"c  c #667466746674",
"v  c #6AA36AA36AA3",
"b  c #740674067406",
"n  c #76B476B476B4",
"m  c #794D794D794D",
"M  c #7A417A417A41",
"N  c #7EEB7EEB7EEB",
"B  c #7FCB7FCB7FCB",
"V  c #80AA80AA80AA",
"C  c #811F811F811F",
"Z  c #8C4E8C4E8C4E",
"A  c #903490349034",
"S  c #925F925F925F",
"D  c #963896389638",
"F  c #9AAB9AAB9AAB",
"G  c #9F7A9F7A9F7A",
"H  c #A067A067A067",
"J  c #A1C4A1C4A1C4",
"K  c #A353A353A353",
"L  c #A7C4A7C4A7C4",
"P  c #AD25AD25AD25",
"I  c #AF5CAF5CAF5C",
"U  c #B40BB40BB40B",
"Y  c #BC89BC89BC89",
"T  c #C097C097C097",
"R  c #C3E2C3E2C3E2",
"E  c #C919C919C919",
"W  c #C9DCC9DCC9DC",
"Q  c #CCCDCCCDCCCD",
"!  c #D02AD02AD02A",
"~  c #D344D344D344",
"^  c #D7CFD7CFD7CF",
"/  c #DBB5DBB5DBB5",
"(  c #DDD3DDD3DDD3",
")  c #DE66DE66DE66",
"_  c #E1C0E1C0E1C0",
"`  c #E3B1E3B1E3B1",
"'  c #E4D1E4D1E4D1",
"]  c #EC1CEC1CEC1C",
"[  c #EE15EE15EE15",
"{  c #EE84EE84EE84",
"}  c #F03BF03BF03B",
"|  c gray94",
" . c #F172F172F172",
".. c #F348F348F348",
"X. c #F3D1F3D1F3D1",
"o. c #F4F3F4F3F4F3",
"O. c #F845F845F845",
"+. c #F9AAF9AAF9AA",
"@. c #FB0EFB0EFB0E",
"#. c #FD14FD14FD14",
"$. c #FDD6FDD6FDD6",
"%. c #FF14FF14FF14",
"&. c gray100",
/* pixels */
"&.&.&.&.&.&.&.&.&.&.&.&.&.&.&.&.&.&.&.&.&.&.&.&.&.&.&.&.&.&.&.&.",
"&.&.&.&.&.&.&.&.&.&.&.&.&.&.&.&.&.&.&.&.&.&.&.&.&.&.&.&.&.&.&.&.",
"&.&.&.&.&.&.&.&.&.&.&.&.&.&.&.&.&.&.&.&.&.&.&.&.&.&.&.&.&.&.&.&.",
"&.&.&.&.&.&.&.&.&.&.&.&.&.&.&.&.&.&.&.&.&.&.&.&.&.&.&.&.&.&.&.&.",
"&.&.&.&.&.&.&.&.&.&.&.&.&.&.&.&.&.&.&.&.&.&.&.&.&.&.&.&.&.&.&.&.",
"&.&.&.&.&.&.&.&.&.&.&.&.&.&.&.&.&.&.&.&.&.&.&.&.&.&.&.&.&.&.&.&.",
"&.&.&.&.&.&.&.&.&.&.&.&.&.&.&.&.&.&.&.&.&.&.&.&.&.&.&.&.&.&.&.&.",
"&.&.&.&.&.&.&.&.&.&.&.&.&.&.&.&.&.&.&.&.&.&.&.&.&.&.&.&.&.&.&.&.",
"&.&.&.&.&.&.&.&.&.&.&.&.&.&.&.&.&.&.&.&.&.&.&.&.&.&.&.&.&.&.&.&.",
"&.&.&.&.&.&.&.&.&.&.&.&.&.&.&.&.&.&.&.&.&._ @.&.&.&.&.&.&.&.&.&.",
"&.&.&.&.&.&.&.&.&.&.&.&.@.! F N C L ) &.Q 8 S &.&.&.&.&.&.&.&.&.",
"&.&.&.&.&.&.&.&.&.&.&.^ x = X X X X 6 M i * J &.&.&.&.&.&.&.&.&.",
"&.&.&.&.&.&.&.&.&.&.R 8 X X % < < * X X X v @.&.&.&.&.&.&.&.&.&.",
"&.&.&.&.&.&.&.&.&.] y X X f Y _ _ Y r X X i ] &.&.&.&.&.&.&.&.&.",
"&.&.&.&.&.&.&.&.&.G X X x | &.&.&.Y = + X X G &.&.&.&.&.&.&.&.&.",
"&.&.&.&.&.&.&.&.&.k X > ^ &.&.&./ 0 = D 5 X k &.&.&.&.&.&.&.&.&.",
"&.&.&.&.&.&.&.&.[ 0 X g @.&.&.| g X Z &.z X 0 [ &.&.&.&.&.&.&.&.",
"&.&.&.&.&.&.&.&._ < X N &.&.&.C X x | &.N X < _ &.&.&.&.&.&.&.&.",
"&.&.&.&.&.&.&.&._ < X N &.&.P * y _ &.&.N X < _ &.&.&.&.&.&.&.&.",
"&.&.&.&.&.&.&.&._ 5 X b &.Q 5 5 R &.&.&.x X 6 ' &.&.&.&.&.&.&.&.",
"&.&.&.&.&.&.&.&.| y X d _ a * J &.&.&.] 0 X a o.&.&.&.&.&.&.&.&.",
"&.&.&.&.&.&.&.&.&.x X > g + b @.&.&.&.G + X b &.&.&.&.&.&.&.&.&.",
"&.&.&.&.&.&.&.&.&.U % X X a [ &.&.o.P 5 X = Q &.&.&.&.&.&.&.&.&.",
"&.&.&.&.&.&.&.&.&.o.k X X 5 x N M i * X X N &.&.&.&.&.&.&.&.&.&.",
"&.&.&.&.&.&.&.&.&.) r % = X X X X X X = C | &.&.&.&.&.&.&.&.&.&.",
"&.&.&.&.&.&.&.&.&.M X Z ! b 0 < > 0 v Q &.&.&.&.&.&.&.&.&.&.&.&.",
"&.&.&.&.&.&.&.&.&.~ S [ &.&.[ _ _ [ @.&.&.&.&.&.&.&.&.&.&.&.&.&.",
"&.&.&.&.&.&.&.&.&.&.&.&.&.&.&.&.&.&.&.&.&.&.&.&.&.&.&.&.&.&.&.&.",
"&.&.&.&.&.&.&.&.&.&.&.&.&.&.&.&.&.&.&.&.&.&.&.&.&.&.&.&.&.&.&.&.",
"&.&.&.&.&.&.&.&.&.&.&.&.&.&.&.&.&.&.&.&.&.&.&.&.&.&.&.&.&.&.&.&.",
"&.&.&.&.&.&.&.&.&.&.&.&.&.&.&.&.&.&.&.&.&.&.&.&.&.&.&.&.&.&.&.&.",
"&.&.&.&.&.&.&.&.&.&.&.&.&.&.&.&.&.&.&.&.&.&.&.&.&.&.&.&.&.&.&.&."
};
