/* XPM */
static const char *x249[] = {
/* columns rows colors chars-per-pixel */
"32 32 65 1",
"  c black",
". c #012501250125",
"X c #0A2F0A2F0A2F",
"o c #0E340E340E34",
"O c #130013001300",
"+ c #145A145A145A",
"@ c #19DB19DB19DB",
"# c #1E281E281E28",
"$ c #1EFA1EFA1EFA",
"% c #207020702070",
"& c #226E226E226E",
"* c #230323032303",
"= c #261326132613",
"- c #293429342934",
"; c #367336733673",
": c #3CE13CE13CE1",
"> c #3DD63DD63DD6",
", c #43B743B743B7",
"< c #44C644C644C6",
"1 c #495A495A495A",
"2 c #4B984B984B98",
"3 c #53B253B253B2",
"4 c #57CF57CF57CF",
"5 c #5B0A5B0A5B0A",
"6 c #5C755C755C75",
"7 c #5E835E835E83",
"8 c #602960296029",
"9 c #641964196419",
"0 c #724672467246",
"q c #7CE17CE17CE1",
"w c #7EEB7EEB7EEB",
"e c #7FFF7FFF7FFF",
"r c #80D680D680D6",
"t c #811581158115",
"y c #825B825B825B",
"u c #996299629962",
"i c #A4CEA4CEA4CE",
"p c #B06BB06BB06B",
"a c #B2F7B2F7B2F7",
"s c #B387B387B387",
"d c #B587B587B587",
"f c #BF9FBF9FBF9F",
"g c #C2F8C2F8C2F8",
"h c #DB96DB96DB96",
"j c #DDBDDDBDDDBD",
"k c #E092E092E092",
"l c #E1E0E1E0E1E0",
"z c #E273E273E273",
"x c #E38EE38EE38E",
"c c #E4B5E4B5E4B5",
"v c #E9CAE9CAE9CA",
"b c #EA73EA73EA73",
"n c #EFDDEFDDEFDD",
"m c #F145F145F145",
"M c #F225F225F225",
"N c #F3F5F3F5F3F5",
"B c #F4FFF4FFF4FF",
"V c #F768F768F768",
"C c #F973F973F973",
"Z c #FAC3FAC3FAC3",
"A c #FB91FB91FB91",
"S c #FD21FD21FD21",
"D c #FDC3FDC3FDC3",
"F c #FEF8FEF8FEF8",
"G c gray100",
/* pixels */
"GGGGGGGGGGGGGGGGGGGGGGGGGGGGGGGG",
"GGGGGGGGGGGGGGGGGGGGGGGGGGGGGGGG",
"GGGGGGGGGGGGGGGGGGGGGGGGGGGGGGGG",
"GGGGGGGGGGGGGGGGGGGGGGGGGGGGGGGG",
"GGGGGGGGGGGGbjzmGGGGGGGGGGGGGGGG",
"GGGGGGGGGGGGp-@5VGGGGGGGGGGGGGGG",
"GGGGGGGGGGGGA0 XpGGGGGGGGGGGGGGG",
"GGGGGGGGGGGGGm6 1VGGGGGGGGGGGGGG",
"GGGGGGGGGGGGGGj1=gGGGGGGGGGGGGGG",
"GGGGGGGGGGGGGGGnjmGGGGGGGGGGGGGG",
"GGGGGGGGGVfdhGGGGGGhdfVGGGGGGGGG",
"GGGGGGGGGz& yGGGGGGy &zGGGGGGGGG",
"GGGGGGGGGz# eGGGGGGe #zGGGGGGGGG",
"GGGGGGGGGz# eGGGGGGe #zGGGGGGGGG",
"GGGGGGGGGz# eGGGGGGe #zGGGGGGGGG",
"GGGGGGGGGz# eGGGGGGe #zGGGGGGGGG",
"GGGGGGGGGz# eGGGGGGe #zGGGGGGGGG",
"GGGGGGGGGz# eGGGGGGe #zGGGGGGGGG",
"GGGGGGGGGz# eGGGGGGe #zGGGGGGGGG",
"GGGGGGGGGz# eGGGGGGe #jGGGGGGGGG",
"GGGGGGGGGz# eGGGGGG4 #zGGGGGGGGG",
"GGGGGGGGGz# 4AGGGGh= #zGGGGGGGGG",
"GGGGGGGGGm: +pGGGj6  #zGGGGGGGGG",
"GGGGGGGGGGy  +6y9#+; #zGGGGGGGGG",
"GGGGGGGGGGz<     ouq #zGGGGGGGGG",
"GGGGGGGGGGGzy:#&4pGi<6bGGGGGGGGG",
"GGGGGGGGGGGGGmzcVGGGAAGGGGGGGGGG",
"GGGGGGGGGGGGGGGGGGGGGGGGGGGGGGGG",
"GGGGGGGGGGGGGGGGGGGGGGGGGGGGGGGG",
"GGGGGGGGGGGGGGGGGGGGGGGGGGGGGGGG",
"GGGGGGGGGGGGGGGGGGGGGGGGGGGGGGGG",
"GGGGGGGGGGGGGGGGGGGGGGGGGGGGGGGG"
};
