/* XPM */
static const char *x252[] = {
/* columns rows colors chars-per-pixel */
"32 32 50 1",
"  c black",
". c #010201020102",
"X c #04BC04BC04BC",
"o c #0E340E340E34",
"O c #130013001300",
"+ c #145A145A145A",
"@ c #1E281E281E28",
"# c #1EFA1EFA1EFA",
"$ c #207020702070",
"% c #225E225E225E",
"& c #230323032303",
"* c #367336733673",
"= c #3CE13CE13CE1",
"- c #3DD63DD63DD6",
"; c #43B743B743B7",
": c #44C644C644C6",
"> c #53B253B253B2",
", c #57CF57CF57CF",
"< c #5E835E835E83",
"1 c #602960296029",
"2 c #641964196419",
"3 c #7CE17CE17CE1",
"4 c #7EEB7EEB7EEB",
"5 c #7FFF7FFF7FFF",
"6 c #80D680D680D6",
"7 c #811581158115",
"8 c #825C825C825C",
"9 c #996299629962",
"0 c #A4CEA4CEA4CE",
"q c #B387B387B387",
"w c #B5B9B5B9B5B9",
"e c #B708B708B708",
"r c #BF9EBF9EBF9E",
"t c #DB8CDB8CDB8C",
"y c #DC76DC76DC76",
"u c #DDAADDAADDAA",
"i c #E1E9E1E9E1E9",
"p c #E26FE26FE26F",
"a c #E38EE38EE38E",
"s c #E494E494E494",
"d c #EA73EA73EA73",
"f c #F3F5F3F5F3F5",
"g c #F768F768F768",
"h c #F910F910F910",
"j c #FAB6FAB6FAB6",
"k c #FB91FB91FB91",
"l c #FD21FD21FD21",
"z c #FDC3FDC3FDC3",
"x c #FEF8FEF8FEF8",
"c c gray100",
/* pixels */
"cccccccccccccccccccccccccccccccc",
"cccccccccccccccccccccccccccccccc",
"cccccccccccccccccccccccccccccccc",
"cccccccccccccccccccccccccccccccc",
"cccccccccccccccccccccccccccccccc",
"cccccccccccccccccccccccccccccccc",
"ccccccccccct88tct88ycccccccccccc",
"cccccccccccwXXwcwXXwcccccccccccc",
"cccccccccccr%%rcr%%rcccccccccccc",
"ccccccccccchspgcgppgcccccccccccc",
"cccccccccgrwycccccctwrgccccccccc",
"cccccccccp% 8cccccc8 %pccccccccc",
"cccccccccp@ 5cccccc5 @pccccccccc",
"cccccccccp@ 5cccccc5 @pccccccccc",
"cccccccccp@ 5cccccc5 @pccccccccc",
"cccccccccp@ 5cccccc5 @pccccccccc",
"cccccccccp@ 5cccccc5 @pccccccccc",
"cccccccccp@ 5cccccc5 @pccccccccc",
"cccccccccp@ 5cccccc5 @pccccccccc",
"cccccccccp@ 5cccccc5 @yccccccccc",
"cccccccccp@ 5cccccc, @pccccccccc",
"cccccccccp@ ,hcccct% @pccccccccc",
"cccccccccf= +qcccy1  @pccccccccc",
"cccccccccc8  O<81%O* @pccccccccc",
"ccccccccccp:     o93 @pccccccccc",
"cccccccccccp8=@%>qc0:<dccccccccc",
"cccccccccccccfpphccchhcccccccccc",
"cccccccccccccccccccccccccccccccc",
"cccccccccccccccccccccccccccccccc",
"cccccccccccccccccccccccccccccccc",
"cccccccccccccccccccccccccccccccc",
"cccccccccccccccccccccccccccccccc"
};
