/* XPM */
static const char *x253[] = {
/* columns rows colors chars-per-pixel */
"32 32 86 1",
"  c #000400040004",
". c #00C100C100C1",
"X c #027902790279",
"o c #02BB02BB02BB",
"O c #039F039F039F",
"+ c #053A053A053A",
"@ c #094D094D094D",
"# c #0B130B130B13",
"$ c #0CBC0CBC0CBC",
"% c #108510851085",
"& c #113A113A113A",
"* c #126B126B126B",
"= c #16E416E416E4",
"- c #19EA19EA19EA",
"; c #1BDC1BDC1BDC",
": c #22EF22EF22EF",
"> c #274E274E274E",
", c #287828782878",
"< c #28E428E428E4",
"1 c #305F305F305F",
"2 c #31AC31AC31AC",
"3 c #342634263426",
"4 c #359C359C359C",
"5 c #389B389B389B",
"6 c #3E933E933E93",
"7 c #433443344334",
"8 c #443244324432",
"9 c #452F452F452F",
"0 c #539C539C539C",
"q c #54B054B054B0",
"w c #572757275727",
"e c #5AD35AD35AD3",
"r c #64B864B864B8",
"t c #67CA67CA67CA",
"y c #69B369B369B3",
"u c #6BCC6BCC6BCC",
"i c #6D846D846D84",
"p c #6F586F586F58",
"a c #6FFD6FFD6FFD",
"s c #75F375F375F3",
"d c #76CA76CA76CA",
"f c #774077407740",
"g c #783978397839",
"h c #7FFF7FFF7FFF",
"j c #80D680D680D6",
"k c #8A0C8A0C8A0C",
"l c #8BD48BD48BD4",
"z c #95E395E395E3",
"x c #9B319B319B31",
"c c #9F7A9F7A9F7A",
"v c #A1C4A1C4A1C4",
"b c #AB4FAB4FAB4F",
"n c #AC92AC92AC92",
"m c #B01DB01DB01D",
"M c #B38DB38DB38D",
"N c #B4FEB4FEB4FE",
"B c #B7ACB7ACB7AC",
"V c #BCC2BCC2BCC2",
"C c #C3C1C3C1C3C1",
"Z c #C675C675C675",
"A c #CBDCCBDCCBDC",
"S c #CE4DCE4DCE4D",
"D c #D415D415D415",
"F c #D787D787D787",
"G c #D89CD89CD89C",
"H c #DAE4DAE4DAE4",
"J c #DC53DC53DC53",
"K c #DCCFDCCFDCCF",
"L c #DFDDDFDDDFDD",
"P c #E189E189E189",
"I c #E408E408E408",
"U c #E4B9E4B9E4B9",
"Y c #E9BCE9BCE9BC",
"T c #EA88EA88EA88",
"R c #EDC0EDC0EDC0",
"E c #F0DFF0DFF0DF",
"W c #F18CF18CF18C",
"Q c #F2D4F2D4F2D4",
"! c #F4E9F4E9F4E9",
"~ c #F656F656F656",
"^ c #F8BBF8BBF8BB",
"/ c #FA37FA37FA37",
"( c #FABEFABEFABE",
") c #FCFAFCFAFCFA",
"_ c #FEE4FEE4FEE4",
"` c gray100",
/* pixels */
"````````````````````````````````",
"````````````````````````````````",
"````````````````````````````````",
"````````````````````````````````",
"````````````````YIKQ````````````",
"```````````````G3-6D````````````",
"```````````````h $v`````````````",
"``````````````G: l``````````````",
"``````````````z-iQ``````````````",
"``````````````YI!```````````````",
"````````/CNA```````UNBY`````````",
"````````/w 3Y``````g -S`````````",
"`````````x +n`````R3 7!`````````",
"`````````K: r`````V@ k``````````",
"``````````r >I````f ;F``````````",
"``````````M@ v```Y2 0/``````````",
"``````````R3 0/``b+ x```````````",
"```````````f ;F``r ;G```````````",
"```````````Z% z`I> w/```````````",
"```````````!7 7/b++b````````````",
"````````````z %Sr >I````````````",
"````````````G- g, r`````````````",
"````````````/w % +n`````````````",
"`````````````b+  ,U`````````````",
"`````````````I,  f``````````````",
"``````````````y @V``````````````",
"`````````````!9 3R``````````````",
"`````````````Z% j```````````````",
"``````````Q/Ye ;F```````````````",
"`````````/y92+ i````````````````",
"``````````a   9I````````````````",
"``````````M32iK`````````````````"
};
