/* XPM */
static const char *x254[] = {
/* columns rows colors chars-per-pixel */
"32 32 89 1",
"  c #000400040004",
". c #008200820082",
"X c #01C501C501C5",
"o c #02F802F802F8",
"O c #044E044E044E",
"+ c #049204920492",
"@ c #073607360736",
"# c #093E093E093E",
"$ c #0A2B0A2B0A2B",
"% c #0D140D140D14",
"& c #112A112A112A",
"* c #144814481448",
"= c #14FF14FF14FF",
"- c #18F718F718F7",
"; c #1CB81CB81CB8",
": c #1E1C1E1C1E1C",
"> c #1EF31EF31EF3",
", c #212721272127",
"< c #22EB22EB22EB",
"1 c #240E240E240E",
"2 c #273727372737",
"3 c #298329832983",
"4 c #2A582A582A58",
"5 c #2D4C2D4C2D4C",
"6 c #339D339D339D",
"7 c #382738273827",
"8 c #38BA38BA38BA",
"9 c #3D583D583D58",
"0 c #404840484048",
"q c #42C242C242C2",
"w c #441A441A441A",
"e c #46A746A746A7",
"r c #4E9A4E9A4E9A",
"t c #541254125412",
"y c #57CF57CF57CF",
"u c #58A658A658A6",
"i c #5DB05DB05DB0",
"p c #5E3D5E3D5E3D",
"a c #60A160A160A1",
"s c #63DF63DF63DF",
"d c #6B996B996B99",
"f c #6E0B6E0B6E0B",
"g c #702370237023",
"h c #716471647164",
"j c #7CDE7CDE7CDE",
"k c #7ECE7ECE7ECE",
"l c #7FF47FF47FF4",
"z c #802380238023",
"x c #810B810B810B",
"c c #85C585C585C5",
"v c #8A0C8A0C8A0C",
"b c #8BA78BA78BA7",
"n c #8F118F118F11",
"m c #908690869086",
"M c #9BE69BE69BE6",
"N c #9F7A9F7A9F7A",
"B c #A759A759A759",
"V c #ACBAACBAACBA",
"C c #B08EB08EB08E",
"Z c #B708B708B708",
"A c #B775B775B775",
"S c #B889B889B889",
"D c #BC4BBC4BBC4B",
"F c #BE7FBE7FBE7F",
"G c #C0B3C0B3C0B3",
"H c #C41CC41CC41C",
"J c #C78AC78AC78A",
"K c #CC8FCC8FCC8F",
"L c #DBE8DBE8DBE8",
"P c #DE09DE09DE09",
"I c #E12DE12DE12D",
"U c #E1DCE1DCE1DC",
"Y c #E2E5E2E5E2E5",
"T c #E3A5E3A5E3A5",
"R c #E568E568E568",
"E c #E75CE75CE75C",
"W c #E8FBE8FBE8FB",
"Q c #EA6EEA6EEA6E",
"! c #EE6BEE6BEE6B",
"~ c #EEB8EEB8EEB8",
"^ c #EFA1EFA1EFA1",
"/ c #F0EDF0EDF0ED",
"( c #F2D7F2D7F2D7",
") c #F819F819F819",
"_ c #FBF3FBF3FBF3",
"` c #FD10FD10FD10",
"' c #FD84FD84FD84",
"] c #FEE6FEE6FEE6",
"[ c gray100",
/* pixels */
"[[[[[[[[[[[[[[[[[[[[[[[[[[[[[[[[",
"[[[[[[[[[[[[[[[[[[[[[[[[[[[[[[[[",
"[[[[[[[[[[[[[[[[[[[[[[[[[[[[[[[[",
"[[[[[[[[[[[[[[[[[[[[[[[[[[[[[[[[",
"[[[[[[[[[_RU/[[[[[[[[[[[[[[[[[[[",
"[[[[[[[[[R8-n[[[[[[[[[[[[[[[[[[[",
"[[[[[[[[[U: l[[[[[[[[[[[[[[[[[[[",
"[[[[[[[[[U: l[[[[[[[[[[[[[[[[[[[",
"[[[[[[[[[U: l[[[[[[[[[[[[[[[[[[[",
"[[[[[[[[[U: z[[[[[[[[[[[[[[[[[[[",
"[[[[[[[[[U: z[PMlcF^[[[[[[[[[[[[",
"[[[[[[[[[U: lS4   $0H[[[[[[[[[[[",
"[[[[[[[[[U: w, &:%  1F[[[[[[[[[[",
"[[[[[[[[[U:  %dKUKi$ 8Q[[[[[[[[[",
"[[[[[[[[[U: +b[[[[)l  M[[[[[[[[[",
"[[[[[[[[[U: 0^[[[[[U4 u[[[[[[[[[",
"[[[[[[[[[U: l[[[[[[_t 6^[[[[[[[[",
"[[[[[[[[[U:+V[[[[[[[l :U[[[[[[[[",
"[[[[[[[[[U: S[[[[[[[z :U[[[[[[[[",
"[[[[[[[[[U: B[[[[[[[h 4R[[[[[[[[",
"[[[[[[[[[U: h[[[[[[/9 r_[[[[[[[[",
"[[[[[[[[[U: 5U[[[[[V% b[[[[[[[[[",
"[[[[[[[[[U:  sP[[_S, 1L[[[[[[[[[",
"[[[[[[[[[U: ++1dlt* +m[[[[[[[[[[",
"[[[[[[[[[U: iw     *z/[[[[[[[[[[",
"[[[[[[[[[U: zQz6:4sF[[[[[[[[[[[[",
"[[[[[[[[[U: z[[^PQ[[[[[[[[[[[[[[",
"[[[[[[[[[U: z[[[[[[[[[[[[[[[[[[[",
"[[[[[[[[[U: l[[[[[[[[[[[[[[[[[[[",
"[[[[[[[[[U: l[[[[[[[[[[[[[[[[[[[",
"[[[[[[[[[U: l[[[[[[[[[[[[[[[[[[[",
"[[[[[[[[[^zdA[[[[[[[[[[[[[[[[[[["
};
