/* XPM */
static const char *x255[] = {
/* columns rows colors chars-per-pixel */
"32 32 82 1",
"  c #000300030003",
". c #00C100C100C1",
"X c #02BB02BB02BB",
"o c #039F039F039F",
"O c #053A053A053A",
"+ c #094D094D094D",
"@ c #0B130B130B13",
"# c #108510851085",
"$ c #113A113A113A",
"% c #126B126B126B",
"& c #16E416E416E4",
"* c #18F718F718F7",
"= c #1BE71BE71BE7",
"- c #1E231E231E23",
"; c #232E232E232E",
": c #274E274E274E",
"> c #287828782878",
", c #28E428E428E4",
"< c #305F305F305F",
"1 c #31AC31AC31AC",
"2 c #342634263426",
"3 c #359C359C359C",
"4 c #38BA38BA38BA",
"5 c #433443344334",
"6 c #443244324432",
"7 c #452F452F452F",
"8 c #539C539C539C",
"9 c #54B054B054B0",
"0 c #572757275727",
"q c #5AD35AD35AD3",
"w c #64B864B864B8",
"e c #67CA67CA67CA",
"r c #69B369B369B3",
"t c #6BCC6BCC6BCC",
"y c #6F586F586F58",
"u c #6FFD6FFD6FFD",
"i c #75F375F375F3",
"p c #76CA76CA76CA",
"a c #774077407740",
"s c #783978397839",
"d c #7D117D117D11",
"f c #7FFF7FFF7FFF",
"g c #80D680D680D6",
"h c #8A0C8A0C8A0C",
"j c #8F118F118F11",
"k c #95E095E095E0",
"l c #9B319B319B31",
"z c #9F7A9F7A9F7A",
"x c #AB4FAB4FAB4F",
"c c #AC92AC92AC92",
"v c #B01DB01DB01D",
"b c #B38DB38DB38D",
"n c #B4FEB4FEB4FE",
"m c #B7ACB7ACB7AC",
"M c #BCC2BCC2BCC2",
"N c #BFFFBFFFBFFF",
"B c #C3C1C3C1C3C1",
"V c #C675C675C675",
"C c #CBDCCBDCCBDC",
"Z c #CE4DCE4DCE4D",
"A c #D787D787D787",
"S c #D89CD89CD89C",
"D c #DCCFDCCFDCCF",
"F c #DFAADFAADFAA",
"G c #E12BE12BE12B",
"H c #E1DCE1DCE1DC",
"J c #E408E408E408",
"K c #E4B9E4B9E4B9",
"L c #E568E568E568",
"P c #E9C7E9C7E9C7",
"I c #EA85EA85EA85",
"U c #EDC0EDC0EDC0",
"Y c #F0EDF0EDF0ED",
"T c #F18CF18CF18C",
"R c #F4E9F4E9F4E9",
"E c #F8BBF8BBF8BB",
"W c #FA37FA37FA37",
"Q c #FABEFABEFABE",
"! c #FC73FC73FC73",
"~ c #FC87FC87FC87",
"^ c #FEE3FEE3FEE3",
"/ c gray100",
/* pixels */
"////////////////////////////////",
"////////////////////////////////",
"////////////////////////////////",
"////////////////////////////////",
"////////////////////////////////",
"////////////////////////////////",
"///////////YjdN/YjdB////////////",
"///////////H- g/H- d////////////",
"///////////L4*j/L4*j////////////",
"///////////!LFU/!LHY////////////",
"////////!BnC///////LnmI/////////",
"////////!0 2L//////s *Z/////////",
"/////////l Oc/////U2 5R/////////",
"/////////D; w/////m@ h//////////",
"//////////w :F////s *A//////////",
"//////////bO x///I2 8!//////////",
"//////////U2 8!//xO l///////////",
"///////////a -A//w -A///////////",
"///////////V$ k/H> 0!///////////",
"///////////R5 6RcO x////////////",
"////////////k $Zr :H////////////",
"////////////D* a> w/////////////",
"////////////!8 $ Oc/////////////",
"/////////////xO  >L/////////////",
"/////////////H>  i//////////////",
"//////////////r @N//////////////",
"/////////////R6 2U//////////////",
"/////////////V$ d///////////////",
"//////////U!Iq *D///////////////",
"/////////!y62  i!///////////////",
"//////////y   5H////////////////",
"//////////c22yF/////////////////"
};
