/* XPM */
static const char *x33[] = {
/* columns rows colors chars-per-pixel */
"32 32 24 1",
"  c #04BC04BC04BC",
". c #107310731073",
"X c #1C2B1C2B1C2B",
"o c #1CF61CF61CF6",
"O c #225122512251",
"+ c #392C392C392C",
"@ c #44BC44BC44BC",
"# c #4B414B414B41",
"$ c #4C5A4C5A4C5A",
"% c #759775977597",
"& c #8BA38BA38BA3",
"* c #B708B708B708",
"= c #BF9FBF9FBF9F",
"- c #CBD4CBD4CBD4",
"; c #CC72CC72CC72",
": c #E206E206E206",
"> c #E26BE26BE26B",
", c #F09DF09DF09D",
"< c #F3D1F3D1F3D1",
"1 c #F768F768F768",
"2 c #FB02FB02FB02",
"3 c #FC0EFC0EFC0E",
"4 c #FE8DFE8DFE8D",
"5 c gray100",
/* pixels */
"55555555555555555555555555555555",
"55555555555555555555555555555555",
"55555555555555555555555555555555",
"55555555555555555555555555555555",
"555555555555551>>155555555555555",
"55555555555555=OO=55555555555555",
"55555555555555*  *55555555555555",
"55555555555555*  *55555555555555",
"55555555555555*  *55555555555555",
"55555555555555*  *55555555555555",
"55555555555555*  *55555555555555",
"55555555555555-..-55555555555555",
"55555555555555>Xo>55555555555555",
"55555555555555>oX>55555555555555",
"55555555555555>oX>55555555555555",
"55555555555555<++<55555555555555",
"555555555555552@@255555555555555",
"555555555555552@@255555555555555",
"555555555555552##255555555555555",
"555555555555555%%555555555555555",
"555555555555555&&555555555555555",
"555555555555555,,555555555555555",
"55555555555555522555555555555555",
"55555555555555-#$-55555555555555",
"55555555555555*  *55555555555555",
"55555555555555-##-55555555555555",
"55555555555555522555555555555555",
"55555555555555555555555555555555",
"55555555555555555555555555555555",
"55555555555555555555555555555555",
"55555555555555555555555555555555",
"55555555555555555555555555555555"
};
