/* XPM */
static const char *x34[] = {
/* columns rows colors chars-per-pixel */
"32 32 37 1",
"  c black",
". c #080C080C080C",
"X c #0DA40DA40DA4",
"o c #16AD16AD16AD",
"O c #18F718F718F7",
"+ c #1E2D1E2D1E2D",
"@ c #1EF91EF91EF9",
"# c #38BA38BA38BA",
"$ c #3C8E3C8E3C8E",
"% c #48F748F748F7",
"& c #4A0B4A0B4A0B",
"* c #57E257E257E2",
"= c #5E835E835E83",
"- c #705070507050",
"; c #7FD77FD77FD7",
": c #811481148114",
"> c #866586658665",
", c #8F5C8F5C8F5C",
"< c #A759A759A759",
"1 c #B1B6B1B6B1B6",
"2 c #B723B723B723",
"3 c #B9E5B9E5B9E5",
"4 c #BE83BE83BE83",
"5 c #C33DC33DC33D",
"6 c #DAF4DAF4DAF4",
"7 c #E104E104E104",
"8 c #E1ECE1ECE1EC",
"9 c #E568E568E568",
"0 c #EAC9EAC9EAC9",
"q c #F0EDF0EDF0ED",
"w c #F3D1F3D1F3D1",
"e c #F768F768F768",
"r c #FB09FB09FB09",
"t c #FBDCFBDCFBDC",
"y c #FD84FD84FD84",
"u c #FF68FF68FF68",
"i c gray100",
/* pixels */
"iiiiiiiiiiiiiiiiiiiiiiiiiiiiiiii",
"iiiiiiiiiiiiiiiiiiiiiiiiiiiiiiii",
"iiiiiiiiiiiiiiiiiiiiiiiiiiiiiiii",
"iiiiiiiiiiiiiiiiiiiiiiiiiiiiiiii",
"iiiiiiiiiiii060iiq79iiiiiiiiiiii",
"iiiiiiiiiiir=o=ri,O#7iiiiiiiiiii",
"iiiiiiiiiiir& &ri; +7iiiiiiiiiii",
"iiiiiiiiiiir& &ri; +7iiiiiiiiiii",
"iiiiiiiiiiir& &ri: +7iiiiiiiiiii",
"iiiiiiiiiiii- -ii< $wiiiiiiiiiii",
"iiiiiiiiiiii, >ii5.*iiiiiiiiiiii",
"iiiiiiiiiiii2X1ii7+;iiiiiiiiiiii",
"iiiiiiiiiiii030iiw56iiiiiiiiiiii",
"iiiiiiiiiiiiiiiiiiiiiiiiiiiiiiii",
"iiiiiiiiiiiiiiiiiiiiiiiiiiiiiiii",
"iiiiiiiiiiiiiiiiiiiiiiiiiiiiiiii",
"iiiiiiiiiiiiiiiiiiiiiiiiiiiiiiii",
"iiiiiiiiiiiiiiiiiiiiiiiiiiiiiiii",
"iiiiiiiiiiiiiiiiiiiiiiiiiiiiiiii",
"iiiiiiiiiiiiiiiiiiiiiiiiiiiiiiii",
"iiiiiiiiiiiiiiiiiiiiiiiiiiiiiiii",
"iiiiiiiiiiiiiiiiiiiiiiiiiiiiiiii",
"iiiiiiiiiiiiiiiiiiiiiiiiiiiiiiii",
"iiiiiiiiiiiiiiiiiiiiiiiiiiiiiiii",
"iiiiiiiiiiiiiiiiiiiiiiiiiiiiiiii",
"iiiiiiiiiiiiiiiiiiiiiiiiiiiiiiii",
"iiiiiiiiiiiiiiiiiiiiiiiiiiiiiiii",
"iiiiiiiiiiiiiiiiiiiiiiiiiiiiiiii",
"iiiiiiiiiiiiiiiiiiiiiiiiiiiiiiii",
"iiiiiiiiiiiiiiiiiiiiiiiiiiiiiiii",
"iiiiiiiiiiiiiiiiiiiiiiiiiiiiiiii",
"iiiiiiiiiiiiiiiiiiiiiiiiiiiiiiii"
};
