/* XPM */
static const char *x36[] = {
/* columns rows colors chars-per-pixel */
"32 32 114 2",
"   c #000600060006",
".  c #012501250125",
"X  c #022802280228",
"o  c #031903190319",
"O  c #03A503A503A5",
"+  c #04E704E704E7",
"@  c #05FF05FF05FF",
"#  c #072B072B072B",
"$  c #082E082E082E",
"%  c #095B095B095B",
"&  c #099009900990",
"*  c #0C9F0C9F0C9F",
"=  c #0E040E040E04",
"-  c #0F070F070F07",
";  c #112711271127",
":  c #129212921292",
">  c #137613761376",
",  c #144E144E144E",
"<  c #177017701770",
"1  c #1B2F1B2F1B2F",
"2  c #1D061D061D06",
"3  c #202720272027",
"4  c #214A214A214A",
"5  c #21FD21FD21FD",
"6  c #247124712471",
"7  c #259F259F259F",
"8  c #273727372737",
"9  c #287828782878",
"0  c #28D228D228D2",
"q  c #2AAC2AAC2AAC",
"w  c #2D272D272D27",
"e  c #2F3C2F3C2F3C",
"r  c #31E231E231E2",
"t  c #331B331B331B",
"y  c #33C633C633C6",
"u  c #375437543754",
"i  c #389738973897",
"p  c #3B1C3B1C3B1C",
"a  c #3BD93BD93BD9",
"s  c #40A640A640A6",
"d  c #427E427E427E",
"f  c #43B843B843B8",
"g  c #449844984498",
"h  c #44E844E844E8",
"j  c #476847684768",
"k  c #48C648C648C6",
"l  c #48F748F748F7",
"z  c #4F714F714F71",
"x  c #524652465246",
"c  c #53C453C453C4",
"v  c #564F564F564F",
"b  c #586B586B586B",
"n  c #5B685B685B68",
"m  c #5D645D645D64",
"M  c #63D963D963D9",
"N  c #64DD64DD64DD",
"B  c #658265826582",
"V  c #6D026D026D02",
"C  c #744674467446",
"Z  c #7C327C327C32",
"A  c #7F297F297F29",
"S  c #807E807E807E",
"D  c #82A582A582A5",
"F  c #84B184B184B1",
"G  c #893589358935",
"H  c #8B538B538B53",
"J  c #8D9D8D9D8D9D",
"K  c #8E7B8E7B8E7B",
"L  c #946394639463",
"P  c #962096209620",
"I  c #989698969896",
"U  c #9A7B9A7B9A7B",
"Y  c #9E9A9E9A9E9A",
"T  c #9F7A9F7A9F7A",
"R  c #A0C4A0C4A0C4",
"E  c #A1BCA1BCA1BC",
"W  c #A25DA25DA25D",
"Q  c #AB40AB40AB40",
"!  c #AC3CAC3CAC3C",
"~  c #B098B098B098",
"^  c #B2F0B2F0B2F0",
"/  c #B4CEB4CEB4CE",
"(  c #B6E9B6E9B6E9",
")  c #B77EB77EB77E",
"_  c #B910B910B910",
"`  c #BC13BC13BC13",
"'  c #BD53BD53BD53",
"]  c #CBAACBAACBAA",
"[  c #CC72CC72CC72",
"{  c #CE7FCE7FCE7F",
"}  c #D29AD29AD29A",
"|  c #DCECDCECDCEC",
" . c #DFC6DFC6DFC6",
".. c #E318E318E318",
"X. c #E426E426E426",
"o. c #E51AE51AE51A",
"O. c #E5EEE5EEE5EE",
"+. c #E68EE68EE68E",
"@. c #E9EAE9EAE9EA",
"#. c #EAF0EAF0EAF0",
"$. c #EBFDEBFDEBFD",
"%. c #EDD2EDD2EDD2",
"&. c #EF79EF79EF79",
"*. c #F1C7F1C7F1C7",
"=. c #F52CF52CF52C",
"-. c #F66EF66EF66E",
";. c #F6E4F6E4F6E4",
":. c #F783F783F783",
">. c gray98",
",. c #FBFCFBFCFBFC",
"<. c #FD30FD30FD30",
"1. c #FDE6FDE6FDE6",
"2. c #FF12FF12FF12",
"3. c gray100",
/* pixels */
"3.3.3.3.3.3.3.3.3.3.3.3.3.3.3.3.3.3.3.3.3.3.3.3.3.3.3.3.3.3.3.3.",
"3.3.3.3.3.3.3.3.3.3.3.3.3.3.3.3.3.3.3.3.3.3.3.3.3.3.3.3.3.3.3.3.",
"3.3.3.3.3.3.3.3.3.3.3.3.3.3.3.3.3.3.3.3.3.3.3.3.3.3.3.3.3.3.3.3.",
"3.3.3.3.3.3.3.3.3.3.3.3.3.3.3.#.#.3.3.3.3.3.3.3.3.3.3.3.3.3.3.3.",
"3.3.3.3.3.3.3.3.3.3.3.3.3.3.o.c c X.,.3.3.3.3.3.3.3.3.3.3.3.3.3.",
"3.3.3.3.3.3.3.3.3.3.3.=.~ b 9 + $ 6 M ` ,.3.3.3.3.3.3.3.3.3.3.3.",
"3.3.3.3.3.3.3.3.3.3.*.V $             * D =.3.3.3.3.3.3.3.3.3.3.",
"3.3.3.3.3.3.3.3.3.3.F     , m 6 ; r +   $ E 3.3.3.3.3.3.3.3.3.3.",
"3.3.3.3.3.3.3.3.3.X.9   3 ` =.g f o.P ;   p &.3.3.3.3.3.3.3.3.3.",
"3.3.3.3.3.3.3.3.3.` $   L 3.,.f g ,.3.Z + 6 ] 3.3.3.3.3.3.3.3.3.",
"3.3.3.3.3.3.3.3.3.( + + ( 3.,.g g ,.3.#.' | =.3.3.3.3.3.3.3.3.3.",
"3.3.3.3.3.3.3.3.3.[ ;   A 3.,.g f ,.3.3.3.3.3.3.3.3.3.3.3.3.3.3.",
"3.3.3.3.3.3.3.3.3.&.p   1 I o.g g ,.3.3.3.3.3.3.3.3.3.3.3.3.3.3.",
"3.3.3.3.3.3.3.3.3.3.~ ;   + r ; r } =.3.3.3.3.3.3.3.3.3.3.3.3.3.",
"3.3.3.3.3.3.3.3.3.3.,.~ u +       1 f I &.3.3.3.3.3.3.3.3.3.3.3.",
"3.3.3.3.3.3.3.3.3.3.3.3.#.Q c *         g | 3.3.3.3.3.3.3.3.3.3.",
"3.3.3.3.3.3.3.3.3.3.3.3.3.3.*.f 9 C w     k &.3.3.3.3.3.3.3.3.3.",
"3.3.3.3.3.3.3.3.3.3.3.3.3.3.,.g g 3.X.N   + T 3.3.3.3.3.3.3.3.3.",
"3.3.3.3.3.3.3.3.3.3.3.3.3.3.,.f f ,.3.X.6   b ,.3.3.3.3.3.3.3.3.",
"3.3.3.3.3.3.3.3.3.] P T ,.3.,.g f ,.3.,.k   k ,.3.3.3.3.3.3.3.3.",
"3.3.3.3.3.3.3.3.,.b   3 X.3.,.f f ,.3.&.r   z ,.3.3.3.3.3.3.3.3.",
"3.3.3.3.3.3.3.3.3.J   + G 3.,.f f ,.3.! $   G 3.3.3.3.3.3.3.3.3.",
"3.3.3.3.3.3.3.3.3.[ 1   * G o.g f #.T 3   1 [ 3.3.3.3.3.3.3.3.3.",
"3.3.3.3.3.3.3.3.3.3.D     + r , ; r $   * P 3.3.3.3.3.3.3.3.3.3.",
"3.3.3.3.3.3.3.3.3.3.*.V $             2 I ,.3.3.3.3.3.3.3.3.3.3.",
"3.3.3.3.3.3.3.3.3.3.3.=.( N r + , c J } 3.3.3.3.3.3.3.3.3.3.3.3.",
"3.3.3.3.3.3.3.3.3.3.3.3.3.3.#.p g =.3.3.3.3.3.3.3.3.3.3.3.3.3.3.",
"3.3.3.3.3.3.3.3.3.3.3.3.3.3.,.f g 3.3.3.3.3.3.3.3.3.3.3.3.3.3.3.",
"3.3.3.3.3.3.3.3.3.3.3.3.3.3.,.E E 3.3.3.3.3.3.3.3.3.3.3.3.3.3.3.",
"3.3.3.3.3.3.3.3.3.3.3.3.3.3.3.3.3.3.3.3.3.3.3.3.3.3.3.3.3.3.3.3.",
"3.3.3.3.3.3.3.3.3.3.3.3.3.3.3.3.3.3.3.3.3.3.3.3.3.3.3.3.3.3.3.3.",
"3.3.3.3.3.3.3.3.3.3.3.3.3.3.3.3.3.3.3.3.3.3.3.3.3.3.3.3.3.3.3.3."
};
