/* XPM */
static const char *x37[] = {
/* columns rows colors chars-per-pixel */
"32 32 120 2",
"   c black",
".  c #00E800E800E8",
"X  c #01E201E201E2",
"o  c #031103110311",
"O  c #062206220622",
"+  c #073507350735",
"@  c #083A083A083A",
"#  c #089808980898",
"$  c #0CD20CD20CD2",
"%  c #11FE11FE11FE",
"&  c #12FE12FE12FE",
"*  c #140714071407",
"=  c #151615161516",
"-  c #185618561856",
";  c #191B191B191B",
":  c #19CE19CE19CE",
">  c #1B601B601B60",
",  c #1C311C311C31",
"<  c #212A212A212A",
"1  c #224422442244",
"2  c #235C235C235C",
"3  c #255125512551",
"4  c #262026202620",
"5  c #272727272727",
"6  c #283F283F283F",
"7  c #28C328C328C3",
"8  c #2E352E352E35",
"9  c #318631863186",
"0  c #31D231D231D2",
"q  c #368336833683",
"w  c #36DB36DB36DB",
"e  c #37D037D037D0",
"r  c #3BFE3BFE3BFE",
"t  c #402F402F402F",
"y  c #410541054105",
"u  c #428D428D428D",
"i  c #431443144314",
"p  c #47B547B547B5",
"a  c #485548554855",
"s  c #49AB49AB49AB",
"d  c #4A104A104A10",
"f  c #4C694C694C69",
"g  c #4CEB4CEB4CEB",
"h  c #4E614E614E61",
"j  c #525152515251",
"k  c #532953295329",
"l  c #5AA15AA15AA1",
"z  c #5E255E255E25",
"x  c #60E960E960E9",
"c  c #65B565B565B5",
"v  c #66B966B966B9",
"b  c #673967396739",
"n  c #6A8D6A8D6A8D",
"m  c #707870787078",
"M  c #737573757375",
"N  c #740E740E740E",
"B  c #797C797C797C",
"V  c #7BC37BC37BC3",
"C  c #7EE37EE37EE3",
"Z  c #7FFD7FFD7FFD",
"A  c #83FA83FA83FA",
"S  c #843284328432",
"D  c #867A867A867A",
"F  c #87C987C987C9",
"G  c #89BD89BD89BD",
"H  c #8DAB8DAB8DAB",
"J  c #8E378E378E37",
"K  c #900690069006",
"L  c #99CB99CB99CB",
"P  c #9A7D9A7D9A7D",
"I  c #A4B1A4B1A4B1",
"U  c #ABBEABBEABBE",
"Y  c #AD91AD91AD91",
"T  c #B2F7B2F7B2F7",
"R  c #B39BB39BB39B",
"E  c #B48BB48BB48B",
"W  c #B58EB58EB58E",
"Q  c #B710B710B710",
"!  c #B7DFB7DFB7DF",
"~  c #BB9BBB9BBB9B",
"^  c #BCC2BCC2BCC2",
"/  c #BD44BD44BD44",
"(  c #C33DC33DC33D",
")  c #C7D8C7D8C7D8",
"_  c #C903C903C903",
"`  c #CBF3CBF3CBF3",
"'  c #CD4DCD4DCD4D",
"]  c #D511D511D511",
"[  c #D625D625D625",
"{  c #D682D682D682",
"}  c #D767D767D767",
"|  c #DA71DA71DA71",
" . c #DBE8DBE8DBE8",
".. c #DCD6DCD6DCD6",
"X. c #DE26DE26DE26",
"o. c #E106E106E106",
"O. c #E1EDE1EDE1ED",
"+. c #E2FEE2FEE2FE",
"@. c #E3D2E3D2E3D2",
"#. c #E4F6E4F6E4F6",
"$. c #E82DE82DE82D",
"%. c #E911E911E911",
"&. c #EA28EA28EA28",
"*. c #EA81EA81EA81",
"=. c #EBECEBECEBEC",
"-. c #ED94ED94ED94",
";. c #EF02EF02EF02",
":. c #F152F152F152",
">. c #F41DF41DF41D",
",. c #F50EF50EF50E",
"<. c #F5CDF5CDF5CD",
"1. c #F7BFF7BFF7BF",
"2. c #F911F911F911",
"3. c #F9F5F9F5F9F5",
"4. c #FAE5FAE5FAE5",
"5. c #FBE0FBE0FBE0",
"6. c #FCB4FCB4FCB4",
"7. c #FE6CFE6CFE6C",
"8. c #FF0BFF0BFF0B",
"9. c gray100",
/* pixels */
"9.9.9.9.9.9.9.9.9.9.9.9.9.9.9.9.9.9.9.9.9.9.9.9.9.9.9.9.9.9.9.9.",
"9.9.9.9.9.9.9.9.9.9.9.9.9.9.9.9.9.9.9.9.9.9.9.9.9.9.9.9.9.9.9.9.",
"9.9.9.9.9.9.9.9.9.9.9.9.9.9.9.9.9.9.9.9.9.9.9.9.9.9.9.9.9.9.9.9.",
"9.9.9.9.9.9.9.9.9.9.9.9.9.9.9.9.9.9.9.9.9.9.9.9.9.9.9.9.9.9.9.9.",
"9.9.9.9.9.9.9.| Q ~ +.9.9.9.9.9.9.9.9.9.| T _ 9.9.9.9.9.9.9.9.9.",
"9.9.9.9.9.9.L <   O 5 L 4.9.9.9.9.9.9.1.g   A 9.9.9.9.9.9.9.9.9.",
"9.9.9.9.9.I $ > M n , @ I 9.9.9.9.9.9.Y @ 9 +.9.9.9.9.9.9.9.9.9.",
"9.9.9.9.>.u O U 9.9.Y O u 1.9.9.9.9.*.q   L 9.9.9.9.9.9.9.9.9.9.",
"9.9.9.9.{ * 6 $.9.9.-.9 * { 9.9.9.9.L   q *.9.9.9.9.9.9.9.9.9.9.",
"9.9.9.9.~   p 4.9.9.4.a   ~ 9.9.9.X.6 @ Y 9.9.9.9.9.9.9.9.9.9.9.",
"9.9.9.9.Q   a 4.9.9.4.a   Q 9.9.9.Z   g 1.9.9.9.9.9.9.9.9.9.9.9.",
"9.9.9.9.( @ u 1.9.9.>.r @ ( 9.9.{ < $ T 9.9.9.9.9.9.9.9.9.9.9.9.",
"9.9.9.9.$.5 > { 9.9.{ * 6 *.9.4.v   v 4.9.9.9.9.9.9.9.9.9.9.9.9.",
"9.9.9.9.9.n   x { { x   M 9.9._ * * _ 9.9.9.9.9.9.9.9.9.9.9.9.9.",
"9.9.9.9.9.X.u   * &   a +.9.1.z   Z 9.9.9.-.X.$.9.9.9.9.9.9.9.9.",
"9.9.9.9.9.9.+.G g g J *.9.9.T O < | 9.4.I q > 5 n X.9.9.9.9.9.9.",
"9.9.9.9.9.9.9.9.4.4.9.9.9.>.a   S 9.9.L @ & p 8   u +.9.9.9.9.9.",
"9.9.9.9.9.9.9.9.9.9.9.9.9.P   q *.9.+.5 & Q 4.*.l   G 9.9.9.9.9.",
"9.9.9.9.9.9.9.9.9.9.9.9.*.q   L 9.9.Q   a 4.9.9.^ O a 1.9.9.9.9.",
"9.9.9.9.9.9.9.9.9.9.9.9.K   u *.9.9.G   N 9.9.9.+.> < $.9.9.9.9.",
"9.9.9.9.9.9.9.9.9.9.9.| < @ T 9.9.9.A   A 9.9.9.+.> , +.9.9.9.9.",
"9.9.9.9.9.9.9.9.9.9.9.A   j 1.9.9.9.S   Z 9.9.9.| > < +.9.9.9.9.",
"9.9.9.9.9.9.9.9.9.9._ , & ) 9.9.9.9.Q   j 4.9.9.Q   a 4.9.9.9.9.",
"9.9.9.9.9.9.9.9.9.9.v   v 9.9.9.9.9.+.5 & T 4.*.l   J 9.9.9.9.9.",
"9.9.9.9.9.9.9.9.9.^ & , ' 9.9.9.9.9.9.L $ & u 8   a *.9.9.9.9.9.",
"9.9.9.9.9.9.9.9.4.v > S 9.9.9.9.9.9.9.4.I r > 5 M $.9.9.9.9.9.9.",
"9.9.9.9.9.9.9.9.4.+.+.1.9.9.9.9.9.9.9.9.9.1.+.$.4.9.9.9.9.9.9.9.",
"9.9.9.9.9.9.9.9.9.9.9.9.9.9.9.9.9.9.9.9.9.9.9.9.9.9.9.9.9.9.9.9.",
"9.9.9.9.9.9.9.9.9.9.9.9.9.9.9.9.9.9.9.9.9.9.9.9.9.9.9.9.9.9.9.9.",
"9.9.9.9.9.9.9.9.9.9.9.9.9.9.9.9.9.9.9.9.9.9.9.9.9.9.9.9.9.9.9.9.",
"9.9.9.9.9.9.9.9.9.9.9.9.9.9.9.9.9.9.9.9.9.9.9.9.9.9.9.9.9.9.9.9.",
"9.9.9.9.9.9.9.9.9.9.9.9.9.9.9.9.9.9.9.9.9.9.9.9.9.9.9.9.9.9.9.9."
};
