/* XPM */
static const char *x40[] = {
/* columns rows colors chars-per-pixel */
"32 32 79 1",
"  c black",
". c #009F009F009F",
"X c #029202920292",
"o c #038C038C038C",
"O c #053E053E053E",
"+ c #05C205C205C2",
"@ c #080908090809",
"# c #0A5F0A5F0A5F",
"$ c #0B460B460B46",
"% c #0FFB0FFB0FFB",
"& c #11F811F811F8",
"* c #134A134A134A",
"= c #154F154F154F",
"- c #1B171B171B17",
"; c #1BE11BE11BE1",
": c #1E231E231E23",
"> c #210121012101",
", c #232923292329",
"< c #29D229D229D2",
"1 c #315531553155",
"2 c #338D338D338D",
"3 c #340E340E340E",
"4 c #34CF34CF34CF",
"5 c #36AC36AC36AC",
"6 c #3CC23CC23CC2",
"7 c #432843284328",
"8 c #43EC43EC43EC",
"9 c #482048204820",
"0 c #4C634C634C63",
"q c #4F714F714F71",
"w c #509950995099",
"e c #51B451B451B4",
"r c #647B647B647B",
"t c #66B966B966B9",
"y c #6A0E6A0E6A0E",
"u c #6F946F946F94",
"i c #74C974C974C9",
"p c #76CA76CA76CA",
"a c #798579857985",
"s c #7FFF7FFF7FFF",
"d c #893589358935",
"f c #906990699069",
"g c #99BF99BF99BF",
"h c #9A7C9A7C9A7C",
"j c #9B849B849B84",
"k c #9F7A9F7A9F7A",
"l c #A1BBA1BBA1BB",
"z c #AB4FAB4FAB4F",
"x c #AD88AD88AD88",
"c c #AFE6AFE6AFE6",
"v c #B598B598B598",
"b c #BCC2BCC2BCC2",
"n c #C229C229C229",
"m c #C578C578C578",
"M c #C675C675C675",
"N c #CC38CC38CC38",
"B c #CCF0CCF0CCF0",
"V c #CE53CE53CE53",
"C c #D682D682D682",
"Z c #D886D886D886",
"A c #DBBBDBBBDBBB",
"S c #DD4FDD4FDD4F",
"D c #E1DCE1DCE1DC",
"F c #E415E415E415",
"G c #E4D1E4D1E4D1",
"H c #E841E841E841",
"J c #E9D2E9D2E9D2",
"K c #EA6CEA6CEA6C",
"L c #EE16EE16EE16",
"P c #F170F170F170",
"I c #F3D1F3D1F3D1",
"U c #F4DDF4DDF4DD",
"Y c #F5D0F5D0F5D0",
"T c #F805F805F805",
"R c #FA7CFA7CFA7C",
"E c #FC09FC09FC09",
"W c #FC87FC87FC87",
"Q c #FF47FF47FF47",
"! c gray100",
/* pixels */
"!!!!!!!!!!!!!!!!!!!!!!!!!!!!!!!!",
"!!!!!!!!!!!!!!!!!!!!!!!!!!!!!!!!",
"!!!!!!!!!!!!!!!!!!!!!!!!!!!!!!!!",
"!!!!!!!!!!!!!!!!!!!!!!!!!!!!!!!!",
"!!!!!!!!!!!!!!!!!RFJ!!!!!!!!!!!!",
"!!!!!!!!!!!!!!!!!j>j!!!!!!!!!!!!",
"!!!!!!!!!!!!!!!!N-5H!!!!!!!!!!!!",
"!!!!!!!!!!!!!!!Tq+x!!!!!!!!!!!!!",
"!!!!!!!!!!!!!!!l 0T!!!!!!!!!!!!!",
"!!!!!!!!!!!!!!H5 z!!!!!!!!!!!!!!",
"!!!!!!!!!!!!!!k 2J!!!!!!!!!!!!!!",
"!!!!!!!!!!!!!Tq p!!!!!!!!!!!!!!!",
"!!!!!!!!!!!!!B&+v!!!!!!!!!!!!!!!",
"!!!!!!!!!!!!!j ;S!!!!!!!!!!!!!!!",
"!!!!!!!!!!!!!r 6I!!!!!!!!!!!!!!!",
"!!!!!!!!!!!!T7 qR!!!!!!!!!!!!!!!",
"!!!!!!!!!!!!H, a!!!!!!!!!!!!!!!!",
"!!!!!!!!!!!!F; s!!!!!!!!!!!!!!!!",
"!!!!!!!!!!!!S; s!!!!!!!!!!!!!!!!",
"!!!!!!!!!!!!F> s!!!!!!!!!!!!!!!!",
"!!!!!!!!!!!!L5 r!!!!!!!!!!!!!!!!",
"!!!!!!!!!!!!Rq 0R!!!!!!!!!!!!!!!",
"!!!!!!!!!!!!!s <H!!!!!!!!!!!!!!!",
"!!!!!!!!!!!!!b##n!!!!!!!!!!!!!!!",
"!!!!!!!!!!!!!L2 d!!!!!!!!!!!!!!!",
"!!!!!!!!!!!!!!d 7I!!!!!!!!!!!!!!",
"!!!!!!!!!!!!!!B=&m!!!!!!!!!!!!!!",
"!!!!!!!!!!!!!!Rr y!!!!!!!!!!!!!!",
"!!!!!!!!!!!!!!!C>>S!!!!!!!!!!!!!",
"!!!!!!!!!!!!!!!!d+u!!!!!!!!!!!!!",
"!!!!!!!!!!!!!!!!Ie&m!!!!!!!!!!!!",
"!!!!!!!!!!!!!!!!!Cpx!!!!!!!!!!!!"
};
