/* XPM */
static const char *x42[] = {
/* columns rows colors chars-per-pixel */
"32 32 63 1",
"  c black",
". c #03E303E303E3",
"X c #07D207D207D2",
"o c #08C508C508C5",
"O c #0A080A080A08",
"+ c #0A980A980A98",
"@ c #0C980C980C98",
"# c #115D115D115D",
"$ c #147814781478",
"% c #1A241A241A24",
"& c #1C101C101C10",
"* c #1E721E721E72",
"= c #1F051F051F05",
"- c #235E235E235E",
"; c #266C266C266C",
": c #2B5E2B5E2B5E",
"> c #4A5F4A5F4A5F",
", c #4F174F174F17",
"< c #578857885788",
"1 c #5D615D615D61",
"2 c #5EDC5EDC5EDC",
"3 c #60B760B760B7",
"4 c #625262526252",
"5 c #64BD64BD64BD",
"6 c #677B677B677B",
"7 c #784378437843",
"8 c #79B279B279B2",
"9 c #7E627E627E62",
"0 c #86C486C486C4",
"q c #872187218721",
"w c #8FBB8FBB8FBB",
"e c #91D791D791D7",
"r c #932B932B932B",
"t c #974197419741",
"y c #9C8B9C8B9C8B",
"u c #AED3AED3AED3",
"i c #B522B522B522",
"p c #B619B619B619",
"a c #B802B802B802",
"s c #BC8CBC8CBC8C",
"d c #BEEABEEABEEA",
"f c #BF7BBF7BBF7B",
"g c #C2F5C2F5C2F5",
"h c #CBA8CBA8CBA8",
"j c #CF53CF53CF53",
"k c #D263D263D263",
"l c #D79BD79BD79B",
"z c #DAC9DAC9DAC9",
"x c #E1F4E1F4E1F4",
"c c #E49EE49EE49E",
"v c #E868E868E868",
"b c #EA6AEA6AEA6A",
"n c #ED0FED0FED0F",
"m c #F3B6F3B6F3B6",
"M c #F768F768F768",
"N c #F8DCF8DCF8DC",
"B c #F98EF98EF98E",
"V c #FAFBFAFBFAFB",
"C c #FC29FC29FC29",
"Z c #FD69FD69FD69",
"A c #FD8AFD8AFD8A",
"S c #FF20FF20FF20",
"D c gray100",
/* pixels */
"DDDDDDDDDDDDDDDDDDDDDDDDDDDDDDDD",
"DDDDDDDDDDDDDDDDDDDDDDDDDDDDDDDD",
"DDDDDDDDDDDDDDDDDDDDDDDDDDDDDDDD",
"DDDDDDDDDDDDDDDDDDDDDDDDDDDDDDDD",
"DDDDDDDDDDDDDDDvcMDDDDDDDDDDDDDD",
"DDDDDDDDDDDDDDC1=fDDDDDDDDDDDDDD",
"DDDDDDDDDDDDCDD<.gDDCDDDDDDDDDDD",
"DDDDDDDDDDDc20k7%hu4yDDDDDDDDDDD",
"DDDDDDDDDDDao $=o-  ,MDDDDDDDDDD",
"DDDDDDDDDDDna0>. =6wjCDDDDDDDDDD",
"DDDDDDDDDDDDDm6o#=fDDDDDDDDDDDDD",
"DDDDDDDDDDDDC9 ,y.-hDDDDDDDDDDDD",
"DDDDDDDDDDDDz:@aC2 7DDDDDDDDDDDD",
"DDDDDDDDDDDDDfrMDlrcDDDDDDDDDDDD",
"DDDDDDDDDDDDDDDDDDDDDDDDDDDDDDDD",
"DDDDDDDDDDDDDDDDDDDDDDDDDDDDDDDD",
"DDDDDDDDDDDDDDDDDDDDDDDDDDDDDDDD",
"DDDDDDDDDDDDDDDDDDDDDDDDDDDDDDDD",
"DDDDDDDDDDDDDDDDDDDDDDDDDDDDDDDD",
"DDDDDDDDDDDDDDDDDDDDDDDDDDDDDDDD",
"DDDDDDDDDDDDDDDDDDDDDDDDDDDDDDDD",
"DDDDDDDDDDDDDDDDDDDDDDDDDDDDDDDD",
"DDDDDDDDDDDDDDDDDDDDDDDDDDDDDDDD",
"DDDDDDDDDDDDDDDDDDDDDDDDDDDDDDDD",
"DDDDDDDDDDDDDDDDDDDDDDDDDDDDDDDD",
"DDDDDDDDDDDDDDDDDDDDDDDDDDDDDDDD",
"DDDDDDDDDDDDDDDDDDDDDDDDDDDDDDDD",
"DDDDDDDDDDDDDDDDDDDDDDDDDDDDDDDD",
"DDDDDDDDDDDDDDDDDDDDDDDDDDDDDDDD",
"DDDDDDDDDDDDDDDDDDDDDDDDDDDDDDDD",
"DDDDDDDDDDDDDDDDDDDDDDDDDDDDDDDD",
"DDDDDDDDDDDDDDDDDDDDDDDDDDDDDDDD"
};
