/* XPM */
static const char *x45[] = {
/* columns rows colors chars-per-pixel */
"32 32 21 1",
"  c black",
". c #1A681A681A68",
"X c #1C661C661C66",
"o c #1E231E231E23",
"O c #38BA38BA38BA",
"+ c #48F748F748F7",
"@ c #5E835E835E83",
"# c #7DE27DE27DE2",
"$ c #7FCD7FCD7FCD",
"% c #8F118F118F11",
"& c #A47BA47BA47B",
"* c #E15DE15DE15D",
"= c #E1D2E1D2E1D2",
"- c #E568E568E568",
"; c #EA73EA73EA73",
": c #F0EDF0EDF0ED",
"> c gray98",
", c #FC02FC02FC02",
"< c #FD7CFD7CFD7C",
"1 c #FF68FF68FF68",
"2 c gray100",
/* pixels */
"22222222222222222222222222222222",
"22222222222222222222222222222222",
"22222222222222222222222222222222",
"22222222222222222222222222222222",
"22222222222222222222222222222222",
"22222222222222222222222222222222",
"22222222222222222222222222222222",
"22222222222222222222222222222222",
"22222222222222222222222222222222",
"22222222222222222222222222222222",
"22222222222222222222222222222222",
"22222222222222222222222222222222",
"22222222222222222222222222222222",
"22222222222222222222222222222222",
"22222222222222222222222222222222",
"22222222222222222222222222222222",
"222222222222;======-222222222222",
"22222222222>@.oooooO-22222222222",
"22222222222>+      o-22222222222",
"222222222222&####%#%;22222222222",
"22222222222222222222222222222222",
"22222222222222222222222222222222",
"22222222222222222222222222222222",
"22222222222222222222222222222222",
"22222222222222222222222222222222",
"22222222222222222222222222222222",
"22222222222222222222222222222222",
"22222222222222222222222222222222",
"22222222222222222222222222222222",
"22222222222222222222222222222222",
"22222222222222222222222222222222",
"22222222222222222222222222222222"
};
