/* XPM */
static const char *x49[] = {
/* columns rows colors chars-per-pixel */
"32 32 35 1",
"  c black",
". c #00AE00AE00AE",
"X c #0E5A0E5A0E5A",
"o c #0F580F580F58",
"O c #11E011E011E0",
"+ c #1C791C791C79",
"@ c #25E425E425E4",
"# c #333B333B333B",
"$ c #3B7F3B7F3B7F",
"% c #3C1A3C1A3C1A",
"& c #425742574257",
"* c #42EB42EB42EB",
"= c #451245124512",
"- c #48C148C148C1",
"; c #48F748F748F7",
": c #5DB25DB25DB2",
"> c #606F606F606F",
", c #7BCC7BCC7BCC",
"< c #7D227D227D22",
"1 c #7FFF7FFF7FFF",
"2 c #AA1CAA1CAA1C",
"3 c #AC2EAC2EAC2E",
"4 c #BF3ABF3ABF3A",
"5 c #C40BC40BC40B",
"6 c #C6E8C6E8C6E8",
"7 c #DD32DD32DD32",
"8 c #E33FE33FE33F",
"9 c #E385E385E385",
"0 c #E4E9E4E9E4E9",
"q c #EA37EA37EA37",
"w c #FAF8FAF8FAF8",
"e c #FC2BFC2BFC2B",
"r c #FD13FD13FD13",
"t c #FF68FF68FF68",
"y c gray100",
/* pixels */
"yyyyyyyyyyyyyyyyyyyyyyyyyyyyyyyy",
"yyyyyyyyyyyyyyyyyyyyyyyyyyyyyyyy",
"yyyyyyyyyyyyyyyyyyyyyyyyyyyyyyyy",
"yyyyyyyyyyyyyyyyyyyyyyyyyyyyyyyy",
"yyyyyyyyyyyyyyyyw0qyyyyyyyyyyyyy",
"yyyyyyyyyyyyyyyy4@:wyyyyyyyyyyyy",
"yyyyyyyyyyyyyyy7% ;wyyyyyyyyyyyy",
"yyyyyyyyyyyyyy7&  ;wyyyyyyyyyyyy",
"yyyyyyyyyyyyq4#   ;wyyyyyyyyyyyy",
"yyyyyyyyyyy92+ XX ;wyyyyyyyyyyyy",
"yyyyyyyyyyy:  #2= ;wyyyyyyyyyyyy",
"yyyyyyyyyyw;O,9w; ;wyyyyyyyyyyyy",
"yyyyyyyyyyy25yyw; ;wyyyyyyyyyyyy",
"yyyyyyyyyyyyyyyw; ;wyyyyyyyyyyyy",
"yyyyyyyyyyyyyyyw; ;wyyyyyyyyyyyy",
"yyyyyyyyyyyyyyyw; ;wyyyyyyyyyyyy",
"yyyyyyyyyyyyyyyw; ;wyyyyyyyyyyyy",
"yyyyyyyyyyyyyyyw; ;wyyyyyyyyyyyy",
"yyyyyyyyyyyyyyyw; ;wyyyyyyyyyyyy",
"yyyyyyyyyyyyyyyw; ;wyyyyyyyyyyyy",
"yyyyyyyyyyyyyyyw; ;wyyyyyyyyyyyy",
"yyyyyyyyyyyyyyyw; ;wyyyyyyyyyyyy",
"yyyyyyyyyyyyyyyw; ;wyyyyyyyyyyyy",
"yyyyyyyyyyyyyyyw; ;wyyyyyyyyyyyy",
"yyyyyyyyyyyyyyyw; =wyyyyyyyyyyyy",
"yyyyyyyyyyyyyyyw<&<yyyyyyyyyyyyy",
"yyyyyyyyyyyyyyyyywwyyyyyyyyyyyyy",
"yyyyyyyyyyyyyyyyyyyyyyyyyyyyyyyy",
"yyyyyyyyyyyyyyyyyyyyyyyyyyyyyyyy",
"yyyyyyyyyyyyyyyyyyyyyyyyyyyyyyyy",
"yyyyyyyyyyyyyyyyyyyyyyyyyyyyyyyy",
"yyyyyyyyyyyyyyyyyyyyyyyyyyyyyyyy"
};
