/* XPM */
static const char *x55[] = {
/* columns rows colors chars-per-pixel */
"32 32 62 1",
"  c black",
". c #020102010201",
"X c #033103310331",
"o c #03DF03DF03DF",
"O c #079907990799",
"+ c #0AF60AF60AF6",
"@ c #0DD80DD80DD8",
"# c #0F660F660F66",
"$ c #118011801180",
"% c #123612361236",
"& c #1DDA1DDA1DDA",
"* c #1EFA1EFA1EFA",
"= c #203820382038",
"- c #287828782878",
"; c #31AC31AC31AC",
": c #32B232B232B2",
"> c #342334233423",
", c #371337133713",
"< c #3CC23CC23CC2",
"1 c #42EA42EA42EA",
"2 c #458745874587",
"3 c #460646064606",
"4 c #48FE48FE48FE",
"5 c #4A674A674A67",
"6 c #4C724C724C72",
"7 c #4E894E894E89",
"8 c #4FF74FF74FF7",
"9 c #716471647164",
"0 c #75F375F375F3",
"q c #798579857985",
"w c #7CB57CB57CB5",
"e c #7D227D227D22",
"r c #7FFF7FFF7FFF",
"t c #80D680D680D6",
"y c #893589358935",
"u c #8BD48BD48BD4",
"i c #8FDC8FDC8FDC",
"p c #95AE95AE95AE",
"a c #9A149A149A14",
"s c #9A929A929A92",
"d c #9F7A9F7A9F7A",
"f c #A47BA47BA47B",
"g c #A759A759A759",
"h c #AADAAADAAADA",
"j c #BAFFBAFFBAFF",
"k c #BCC2BCC2BCC2",
"l c #CC0ACC0ACC0A",
"z c #CC70CC70CC70",
"x c #DFC6DFC6DFC6",
"c c #E244E244E244",
"v c #E426E426E426",
"b c #E98DE98DE98D",
"n c #EA6CEA6CEA6C",
"m c #EDC0EDC0EDC0",
"M c #F15BF15BF15B",
"N c #F3D1F3D1F3D1",
"B c #F65BF65BF65B",
"V c #F911F911F911",
"C c #FAF6FAF6FAF6",
"Z c #FC56FC56FC56",
"A c #FD74FD74FD74",
"S c gray100",
/* pixels */
"SSSSSSSSSSSSSSSSSSSSSSSSSSSSSSSS",
"SSSSSSSSSSSSSSSSSSSSSSSSSSSSSSSS",
"SSSSSSSSSSSSSSSSSSSSSSSSSSSSSSSS",
"SSSSSSSSSSSSSSSSSSSSSSSSSSSSSSSS",
"SSSSSSSSSZZZZZZZZBZZZZZSSSSSSSSS",
"SSSSSSSSZr143433444331fSSSSSSSSS",
"SSSSSSSSZ3............rSSSSSSSSS",
"SSSSSSSSZw344344443@.@hSSSSSSSSS",
"SSSSSSSSSZZZZZZBZZp+.uZSSSSSSSSS",
"SSSSSSSSSSSSSSSSSl&.8MSSSSSSSSSS",
"SSSSSSSSSSSSSSSSm8.&zSSSSSSSSSSS",
"SSSSSSSSSSSSSSSSso.iSSSSSSSSSSSS",
"SSSSSSSSSSSSSSSc;.,bSSSSSSSSSSSS",
"SSSSSSSSSSSSSSSr..sSSSSSSSSSSSSS",
"SSSSSSSSSSSSSSb;.,bSSSSSSSSSSSSS",
"SSSSSSSSSSSSSSd..sSSSSSSSSSSSSSS",
"SSSSSSSSSSSSSB4.-cSSSSSSSSSSSSSS",
"SSSSSSSSSSSSSl$.0SSSSSSSSSSSSSSS",
"SSSSSSSSSSSSSu.+kSSSSSSSSSSSSSSS",
"SSSSSSSSSSSSB4.;mSSSSSSSSSSSSSSS",
"SSSSSSSSSSSSx=.9SSSSSSSSSSSSSSSS",
"SSSSSSSSSSSSjo.gSSSSSSSSSSSSSSSS",
"SSSSSSSSSSSSi.$lSSSSSSSSSSSSSSSS",
"SSSSSSSSSSSSw.&cSSSSSSSSSSSSSSSS",
"SSSSSSSSSSSZ7.<MSSSSSSSSSSSSSSSS",
"SSSSSSSSSSSZw1wZSSSSSSSSSSSSSSSS",
"SSSSSSSSSSSSZZZSSSSSSSSSSSSSSSSS",
"SSSSSSSSSSSSSSSSSSSSSSSSSSSSSSSS",
"SSSSSSSSSSSSSSSSSSSSSSSSSSSSSSSS",
"SSSSSSSSSSSSSSSSSSSSSSSSSSSSSSSS",
"SSSSSSSSSSSSSSSSSSSSSSSSSSSSSSSS",
"SSSSSSSSSSSSSSSSSSSSSSSSSSSSSSSS"
};
