/* XPM */
static const char *x57[] = {
/* columns rows colors chars-per-pixel */
"32 32 98 2",
"   c #000400040004",
".  c #00DF00DF00DF",
"X  c #01DE01DE01DE",
"o  c #030203020302",
"O  c #039C039C039C",
"+  c #050705070507",
"@  c #05F905F905F9",
"#  c #097C097C097C",
"$  c #0A240A240A24",
"%  c #0DF40DF40DF4",
"&  c #0EA30EA30EA3",
"*  c #114311431143",
"=  c #125712571257",
"-  c #145714571457",
";  c #168A168A168A",
":  c #1B661B661B66",
">  c #1D191D191D19",
",  c #203920392039",
"<  c #222F222F222F",
"1  c #22C122C122C1",
"2  c #23F823F823F8",
"3  c #275227522752",
"4  c #297B297B297B",
"5  c #29AA29AA29AA",
"6  c #2DBB2DBB2DBB",
"7  c #338E338E338E",
"8  c #36E436E436E4",
"9  c #3C253C253C25",
"0  c #3DBB3DBB3DBB",
"q  c #430543054305",
"w  c #43F843F843F8",
"e  c #475847584758",
"r  c #484F484F484F",
"t  c #490749074907",
"y  c #4A714A714A71",
"u  c #4D864D864D86",
"i  c #4E7D4E7D4E7D",
"p  c #514C514C514C",
"a  c #541254125412",
"s  c #587C587C587C",
"d  c #639863986398",
"f  c #647764776477",
"g  c #6D016D016D01",
"h  c #6FED6FED6FED",
"j  c #6FF76FF76FF7",
"k  c #7A507A507A50",
"l  c #7EEB7EEB7EEB",
"z  c #7FD67FD67FD6",
"x  c #81D681D681D6",
"c  c #896A896A896A",
"v  c #8AEF8AEF8AEF",
"b  c #8B568B568B56",
"n  c #8D318D318D31",
"m  c #930893089308",
"M  c #968396839683",
"N  c #99F199F199F1",
"B  c #9A9B9A9B9A9B",
"V  c #9B849B849B84",
"C  c #9C5B9C5B9C5B",
"Z  c #9D449D449D44",
"A  c #A0AAA0AAA0AA",
"S  c #A389A389A389",
"D  c #A550A550A550",
"F  c #A830A830A830",
"G  c #AB4EAB4EAB4E",
"H  c #B2F4B2F4B2F4",
"J  c #B8C6B8C6B8C6",
"K  c #C0B3C0B3C0B3",
"L  c #CB5ECB5ECB5E",
"P  c #CCF0CCF0CCF0",
"I  c #CF54CF54CF54",
"U  c #D677D677D677",
"Y  c #D7ECD7ECD7EC",
"T  c #D89CD89CD89C",
"R  c #DBECDBECDBEC",
"E  c #DCF5DCF5DCF5",
"W  c #DDA5DDA5DDA5",
"Q  c #DFC6DFC6DFC6",
"!  c #E140E140E140",
"~  c #E3C6E3C6E3C6",
"^  c #E4C7E4C7E4C7",
"/  c #E615E615E615",
"(  c #E82DE82DE82D",
")  c #E913E913E913",
"_  c #EBF2EBF2EBF2",
"`  c #ECC5ECC5ECC5",
"'  c #EF08EF08EF08",
"]  c #F19FF19FF19F",
"[  c #F62AF62AF62A",
"{  c #F73BF73BF73B",
"}  c #F80CF80CF80C",
"|  c #F89CF89CF89C",
" . c #FAD8FAD8FAD8",
".. c #FBA7FBA7FBA7",
"X. c #FD0CFD0CFD0C",
"o. c #FD99FD99FD99",
"O. c #FF46FF46FF46",
"+. c gray100",
/* pixels */
"+.+.+.+.+.+.+.+.+.+.+.+.+.+.+.+.+.+.+.+.+.+.+.+.+.+.+.+.+.+.+.+.",
"+.+.+.+.+.+.+.+.+.+.+.+.+.+.+.+.+.+.+.+.+.+.+.+.+.+.+.+.+.+.+.+.",
"+.+.+.+.+.+.+.+.+.+.+.+.+.+.+.+.+.+.+.+.+.+.+.+.+.+.+.+.+.+.+.+.",
"+.+.+.+.+.+.+.+.+.+.+.+.+.+.+.+.+.+.+.+.+.+.+.+.+.+.+.+.+.+.+.+.",
"+.+.+.+.+.+.+.+.+.+.+.+.+.+.^ ~ ~ { +.+.+.+.+.+.+.+.+.+.+.+.+.+.",
"+.+.+.+.+.+.+.+.+.+.+.+.J f 5 > , t B ' +.+.+.+.+.+.+.+.+.+.+.+.",
"+.+.+.+.+.+.+.+.+.+. .M ;             w E +.+.+.+.+.+.+.+.+.+.+.",
"+.+.+.+.+.+.+.+.+.+.B &   & q k x a ;   q ~ +.+.+.+.+.+.+.+.+.+.",
"+.+.+.+.+.+.+.+.+.E 2   & m { +.+. .J ,   h +.+.+.+.+.+.+.+.+.+.",
"+.+.+.+.+.+.+.+.+.C   O v +.+.+.+.+.+.S O : U +.+.+.+.+.+.+.+.+.",
"+.+.+.+.+.+.+.+.+.f   , E +.+.+.+.+.+.^ 5   D +.+.+.+.+.+.+.+.+.",
"+.+.+.+.+.+.+.+. .t   w { +.+.+.+.+.+. .t   x +.+.+.+.+.+.+.+.+.",
"+.+.+.+.+.+.+.+. .t   t  .+.+.+.+.+.+. .t   s +.+.+.+.+.+.+.+.+.",
"+.+.+.+.+.+.+.+.+.f   5 ~ +.+.+.+.+.+.~ 2   t  .+.+.+.+.+.+.+.+.",
"+.+.+.+.+.+.+.+.+.C   O v +.+.+.+.+.+.v O   t  .+.+.+.+.+.+.+.+.",
"+.+.+.+.+.+.+.+.+.E 5   & v ^  . .^ v &     t  .+.+.+.+.+.+.+.+.",
"+.+.+.+.+.+.+.+.+.+.S &   O 2 t t 5   0 6   t  .+.+.+.+.+.+.+.+.",
"+.+.+.+.+.+.+.+.+.+. .B 2           t T t   s +.+.+.+.+.+.+.+.+.",
"+.+.+.+.+.+.+.+.+.+.+.+.E v u t f C ' ' 7   l +.+.+.+.+.+.+.+.+.",
"+.+.+.+.+.+.+.+.+.+.+.+.+.+. . .+.+.+.L =   B +.+.+.+.+.+.+.+.+.",
"+.+.+.+.+.+.+.+.+.T D n _ +.+.+.+.+.+.v   = L +.+.+.+.+.+.+.+.+.",
"+.+.+.+.+.+.+.+.+.C O O G +.+.+.+.+._ 8   u { +.+.+.+.+.+.+.+.+.",
"+.+.+.+.+.+.+.+.+.P :   0 U +.+.+.E f   $ H +.+.+.+.+.+.+.+.+.+.",
"+.+.+.+.+.+.+.+.+.+.j     , h x d ,     h { +.+.+.+.+.+.+.+.+.+.",
"+.+.+.+.+.+.+.+.+.+.~ p O           O h ] +.+.+.+.+.+.+.+.+.+.+.",
"+.+.+.+.+.+.+.+.+.+.+.] B t , > 5 s H { +.+.+.+.+.+.+.+.+.+.+.+.",
"+.+.+.+.+.+.+.+.+.+.+.+.+.{ ^ ~ _  .+.+.+.+.+.+.+.+.+.+.+.+.+.+.",
"+.+.+.+.+.+.+.+.+.+.+.+.+.+.+.+.+.+.+.+.+.+.+.+.+.+.+.+.+.+.+.+.",
"+.+.+.+.+.+.+.+.+.+.+.+.+.+.+.+.+.+.+.+.+.+.+.+.+.+.+.+.+.+.+.+.",
"+.+.+.+.+.+.+.+.+.+.+.+.+.+.+.+.+.+.+.+.+.+.+.+.+.+.+.+.+.+.+.+.",
"+.+.+.+.+.+.+.+.+.+.+.+.+.+.+.+.+.+.+.+.+.+.+.+.+.+.+.+.+.+.+.+.",
"+.+.+.+.+.+.+.+.+.+.+.+.+.+.+.+.+.+.+.+.+.+.+.+.+.+.+.+.+.+.+.+."
};
