/* XPM */
static const char *x59[] = {
/* columns rows colors chars-per-pixel */
"32 32 34 1",
"  c black",
". c #1E231E231E23",
"X c #1FA31FA31FA3",
"o c #225122512251",
"O c #22DA22DA22DA",
"+ c #25B525B525B5",
"@ c #2FD72FD72FD7",
"# c #3B023B023B02",
"$ c #44C644C644C6",
"% c #5E965E965E96",
"& c #7BC07BC07BC0",
"* c #7EDA7EDA7EDA",
"= c #7FFF7FFF7FFF",
"- c #825E825E825E",
"; c #A47BA47BA47B",
": c #A5B0A5B0A5B0",
"> c #AB58AB58AB58",
", c #B55CB55CB55C",
"< c #BF9FBF9FBF9F",
"1 c #CD18CD18CD18",
"2 c #D368D368D368",
"3 c #DB83DB83DB83",
"4 c #E1EDE1EDE1ED",
"5 c #E26AE26AE26A",
"6 c #EA73EA73EA73",
"7 c #F3F5F3F5F3F5",
"8 c #F768F768F768",
"9 c #F7AAF7AAF7AA",
"0 c #FADDFADDFADD",
"q c #FB91FB91FB91",
"w c #FD7CFD7CFD7C",
"e c #FE76FE76FE76",
"r c #FF68FF68FF68",
"t c gray100",
/* pixels */
"tttttttttttttttttttttttttttttttt",
"tttttttttttttttttttttttttttttttt",
"tttttttttttttttttttttttttttttttt",
"tttttttttttttttttttttttttttttttt",
"tttttttttttttttttttttttttttttttt",
"tttttttttttttttttttttttttttttttt",
"tttttttttttttttttttttttttttttttt",
"tttttttttttttttttttttttttttttttt",
"tttttttttttttttttttttttttttttttt",
"tttttttttttttttttttttttttttttttt",
"tttttttttttttt3,<8tttttttttttttt",
"tttttttttttttt- o5tttttttttttttt",
"tttttttttttttt- o5tttttttttttttt",
"tttttttttttttt3,<8tttttttttttttt",
"tttttttttttttttttttttttttttttttt",
"tttttttttttttttttttttttttttttttt",
"tttttttttttttttttttttttttttttttt",
"tttttttttttttttttttttttttttttttt",
"tttttttttttttttttttttttttttttttt",
"tttttttttttttttttttttttttttttttt",
"tttttttttttttttttttttttttttttttt",
"tttttttttttttttttttttttttttttttt",
"tttttttttttttttqqttttttttttttttt",
"tttttttttttttt;$%6tttttttttttttt",
"tttttttttttttt* .5tttttttttttttt",
"tttttttttttttt;@.5tttttttttttttt",
"ttttttttttttttt>o5tttttttttttttt",
"ttttttttttttttt&#7tttttttttttttt",
"tttttttttttttt2+*ttttttttttttttt",
"tttttttttttttt1%5ttttttttttttttt",
"ttttttttttttttt8tttttttttttttttt",
"tttttttttttttttttttttttttttttttt"
};
