/* XPM */
static const char *x60[] = {
/* columns rows colors chars-per-pixel */
"32 32 65 1",
"  c #000300030003",
". c #014701470147",
"X c #01BB01BB01BB",
"o c #02E402E402E4",
"O c #042A042A042A",
"+ c #08F108F108F1",
"@ c #09EC09EC09EC",
"# c #0B0D0B0D0B0D",
"$ c #0B8D0B8D0B8D",
"% c #119911991199",
"& c #142114211421",
"* c #14C514C514C5",
"= c #1A611A611A61",
"- c #1AE31AE31AE3",
"; c #1C511C511C51",
": c #1E231E231E23",
"> c #21A121A121A1",
", c #233423342334",
"< c #23C623C623C6",
"1 c #24C924C924C9",
"2 c #276E276E276E",
"3 c #34D534D534D5",
"4 c #38A038A038A0",
"5 c #3D033D033D03",
"6 c #418A418A418A",
"7 c #41DE41DE41DE",
"8 c #546854685468",
"9 c #5FD55FD55FD5",
"0 c #603260326032",
"q c #631963196319",
"w c #69D169D169D1",
"e c #6AF86AF86AF8",
"r c #758975897589",
"t c #7E837E837E83",
"y c #80A280A280A2",
"u c #810481048104",
"i c #87E687E687E6",
"p c #888888888888",
"a c #8A888A888A88",
"s c #90AD90AD90AD",
"d c #962896289628",
"f c #9A619A619A61",
"g c #B262B262B262",
"h c #B4E2B4E2B4E2",
"j c #BE1ABE1ABE1A",
"k c #C9CCC9CCC9CC",
"l c #CCA6CCA6CCA6",
"z c #CF06CF06CF06",
"x c #D7E1D7E1D7E1",
"c c #DE1CDE1CDE1C",
"v c #E1DCE1DCE1DC",
"b c #E556E556E556",
"n c #E5E8E5E8E5E8",
"m c #E74DE74DE74D",
"M c #E9CDE9CDE9CD",
"N c #ED0FED0FED0F",
"B c #EE44EE44EE44",
"V c #EF1CEF1CEF1C",
"C c #F02DF02DF02D",
"Z c #F3FEF3FEF3FE",
"A c #F47AF47AF47A",
"S c #FB05FB05FB05",
"D c #FE0EFE0EFE0E",
"F c #FEEFFEEFFEEF",
"G c gray100",
/* pixels */
"GGGGGGGGGGGGGGGGGGGGGGGGGGGGGGGG",
"GGGGGGGGGGGGGGGGGGGGGGGGGGGGGGGG",
"GGGGGGGGGGGGGGGGGGGGGGGGGGGGGGGG",
"GGGGGGGGGGGGGGGGGGGGGGGGGGGGGGGG",
"GGGGGGGGGGGGGGGGGGGGGGGGGGGGGGGG",
"GGGGGGGGGGGGGGGGGGGGGGGGGGGGGGGG",
"GGGGGGGGGGGGGGGGGGGGGGGGGGGGGGGG",
"GGGGGGGGGGGGGGGGGGGGGGGGGGGGGGGG",
"GGGGGGGGGGGGGGGGGGGGGNmGGGGGGGGG",
"GGGGGGGGGGGGGGGGGGGcd3aGGGGGGGGG",
"GGGGGGGGGGGGGGGGSkr1  uGGGGGGGGG",
"GGGGGGGGGGGGGGCg8&  =9lGGGGGGGGG",
"GGGGGGGGGGGGcd4+ +4axSGGGGGGGGGG",
"GGGGGGGGGSkr,  =qgCGGGGGGGGGGGGG",
"GGGGGGGGCq& +3axSGGGGGGGGGGGGGGG",
"GGGGGGGGv: :sCGGGGGGGGGGGGGGGGGG",
"GGGGGGGGN5O 1ejZGGGGGGGGGGGGGGGG",
"GGGGGGGGGmf7+ +7dcSGGGGGGGGGGGGG",
"GGGGGGGGGGGAhq&  ,wjZGGGGGGGGGGG",
"GGGGGGGGGGGGGSlt1O $7dmGGGGGGGGG",
"GGGGGGGGGGGGGGGGmf7+  iGGGGGGGGG",
"GGGGGGGGGGGGGGGGGGAhq%uGGGGGGGGG",
"GGGGGGGGGGGGGGGGGGGGSklGGGGGGGGG",
"GGGGGGGGGGGGGGGGGGGGGGGGGGGGGGGG",
"GGGGGGGGGGGGGGGGGGGGGGGGGGGGGGGG",
"GGGGGGGGGGGGGGGGGGGGGGGGGGGGGGGG",
"GGGGGGGGGGGGGGGGGGGGGGGGGGGGGGGG",
"GGGGGGGGGGGGGGGGGGGGGGGGGGGGGGGG",
"GGGGGGGGGGGGGGGGGGGGGGGGGGGGGGGG",
"GGGGGGGGGGGGGGGGGGGGGGGGGGGGGGGG",
"GGGGGGGGGGGGGGGGGGGGGGGGGGGGGGGG",
"GGGGGGGGGGGGGGGGGGGGGGGGGGGGGGGG"
};
