/* XPM */
static const char *x64[] = {
/* columns rows colors chars-per-pixel */
"32 32 171 2",
"   c #000500050005",
".  c #00E100E100E1",
"X  c #020502050205",
"o  c #02E702E702E7",
"O  c #040B040B040B",
"+  c #04DD04DD04DD",
"@  c #063506350635",
"#  c #083808380838",
"$  c #093009300930",
"%  c #0A480A480A48",
"&  c #0B470B470B47",
"*  c #0BFD0BFD0BFD",
"=  c #0D870D870D87",
"-  c #0DEC0DEC0DEC",
";  c #0F460F460F46",
":  c #104210421042",
">  c #116911691169",
",  c #14ED14ED14ED",
"<  c #161516151615",
"1  c #171317131713",
"2  c #17C917C917C9",
"3  c #18F218F218F2",
"4  c #1A931A931A93",
"5  c #1AEA1AEA1AEA",
"6  c #1C161C161C16",
"7  c #1D0F1D0F1D0F",
"8  c #1E061E061E06",
"9  c #216821682168",
"0  c #221F221F221F",
"q  c #231B231B231B",
"w  c #23FD23FD23FD",
"e  c #26A026A026A0",
"r  c #280D280D280D",
"t  c #290C290C290C",
"y  c #2A1A2A1A2A1A",
"u  c #2BA02BA02BA0",
"i  c #2CBF2CBF2CBF",
"p  c #2F972F972F97",
"a  c #308130813081",
"s  c #316631663166",
"d  c #323B323B323B",
"f  c #331533153315",
"g  c #33BF33BF33BF",
"h  c #35CF35CF35CF",
"j  c #377837783778",
"k  c #398A398A398A",
"l  c #3C483C483C48",
"z  c #3CFB3CFB3CFB",
"x  c #404840484048",
"c  c #414F414F414F",
"v  c #425842584258",
"b  c #43A343A343A3",
"n  c #442344234423",
"m  c #451445144514",
"M  c #46C146C146C1",
"N  c #471547154715",
"B  c #48AE48AE48AE",
"V  c #494349434943",
"C  c #4A884A884A88",
"Z  c #4C674C674C67",
"A  c #4D244D244D24",
"S  c #4F364F364F36",
"D  c #508650865086",
"F  c #56A556A556A5",
"G  c #57AD57AD57AD",
"H  c #58A058A058A0",
"J  c #5C1C5C1C5C1C",
"K  c #5EBB5EBB5EBB",
"L  c #5F1A5F1A5F1A",
"P  c #615561556155",
"I  c #62ED62ED62ED",
"U  c #64A764A764A7",
"Y  c #656A656A656A",
"T  c #66C166C166C1",
"R  c #69DD69DD69DD",
"E  c #6A9D6A9D6A9D",
"W  c #6EA26EA26EA2",
"Q  c #6F846F846F84",
"!  c #707470747074",
"~  c #714F714F714F",
"^  c #731173117311",
"/  c #742B742B742B",
"(  c #75F375F375F3",
")  c #76A176A176A1",
"_  c #7A987A987A98",
"`  c #7B737B737B73",
"'  c #7E3B7E3B7E3B",
"]  c #7FD07FD07FD0",
"[  c #815B815B815B",
"{  c #847284728472",
"}  c #856685668566",
"|  c #892889288928",
" . c #8BD48BD48BD4",
".. c #8E9B8E9B8E9B",
"X. c #90B890B890B8",
"o. c #95B795B795B7",
"O. c #983698369836",
"+. c #99D799D799D7",
"@. c #9AAF9AAF9AAF",
"#. c #9BBA9BBA9BBA",
"$. c #9C579C579C57",
"%. c #9F129F129F12",
"&. c #9FE59FE59FE5",
"*. c #A077A077A077",
"=. c #A1BCA1BCA1BC",
"-. c #A389A389A389",
";. c #A759A759A759",
":. c #A912A912A912",
">. c #AB32AB32AB32",
",. c #AC63AC63AC63",
"<. c #AD45AD45AD45",
"1. c #AEF3AEF3AEF3",
"2. c #AF94AF94AF94",
"3. c #B153B153B153",
"4. c #B2F7B2F7B2F7",
"5. c #B3E2B3E2B3E2",
"6. c #B4A3B4A3B4A3",
"7. c #B5BBB5BBB5BB",
"8. c #B6DCB6DCB6DC",
"9. c #B7ABB7ABB7AB",
"0. c #B8F6B8F6B8F6",
"q. c #BAFFBAFFBAFF",
"w. c #BC2CBC2CBC2C",
"e. c #BCB5BCB5BCB5",
"r. c #BDD7BDD7BDD7",
"t. c #C336C336C336",
"y. c #C3AAC3AAC3AA",
"u. c #C480C480C480",
"i. c #C562C562C562",
"p. c #C8E3C8E3C8E3",
"a. c #CA52CA52CA52",
"s. c #CBCECBCECBCE",
"d. c #CCE5CCE5CCE5",
"f. c #CD4DCD4DCD4D",
"g. c #CEC1CEC1CEC1",
"h. c #D53DD53DD53D",
"j. c #D5F6D5F6D5F6",
"k. c #D65ED65ED65E",
"l. c #D761D761D761",
"z. c #D88ED88ED88E",
"x. c #D98BD98BD98B",
"c. c #DBE8DBE8DBE8",
"v. c #DD06DD06DD06",
"b. c #DDE1DDE1DDE1",
"n. c #E038E038E038",
"m. c #E0A1E0A1E0A1",
"M. c #E1E7E1E7E1E7",
"N. c #E3E1E3E1E3E1",
"B. c #E4EEE4EEE4EE",
"V. c #E57FE57FE57F",
"C. c #E8BEE8BEE8BE",
"Z. c #E9C9E9C9E9C9",
"A. c #EAF6EAF6EAF6",
"S. c #EBF4EBF4EBF4",
"D. c #EC8BEC8BEC8B",
"F. c #EEB0EEB0EEB0",
"G. c #F01EF01EF01E",
"H. c #F11EF11EF11E",
"J. c #F1DAF1DAF1DA",
"K. c #F3F2F3F2F3F2",
"L. c #F475F475F475",
"P. c #F65BF65BF65B",
"I. c #F6F3F6F3F6F3",
"U. c #F80CF80CF80C",
"Y. c #F99EF99EF99E",
"T. c gray98",
"R. c #FC29FC29FC29",
"E. c #FD12FD12FD12",
"W. c #FDB6FDB6FDB6",
"Q. c #FF1DFF1DFF1D",
"!. c #FFFEFFFEFFFE",
/* pixels */
"!.!.!.!.!.!.!.!.!.!.!.!.!.!.!.!.!.!.!.!.!.!.!.!.!.!.!.!.!.!.!.!.",
"!.!.!.!.!.!.!.!.!.!.!.!.!.!.!.!.!.!.!.!.!.!.!.!.!.!.!.!.!.!.!.!.",
"!.!.!.!.!.!.!.!.!.!.!.!.!.!.!.!.!.!.!.!.!.!.!.!.!.!.!.!.!.!.!.!.",
"!.!.!.!.!.!.!.!.!.!.!.!.!.!.!.!.!.!.!.!.!.!.!.!.!.!.!.!.!.!.!.!.",
"!.!.!.!.!.!.!.!.!.!.!.!.!.Z.j.0.7.7.t.N.K.!.!.!.!.!.!.!.!.!.!.!.",
"!.!.!.!.!.!.!.!.!.!.N.%.F r 1 O O O - 7 b { f.R.!.!.!.!.!.!.!.!.",
"!.!.!.!.!.!.!.!.K.@.i O       O O O O       1 Q N.!.!.!.!.!.!.!.",
"!.!.!.!.!.!.!.v.D O   O e I X.7.0.7.%.Q z -     z u.!.!.!.!.!.!.",
"!.!.!.!.!.!.c.b     j @.N.R.!.!.!.!.!.!.K.4.S #   e f.!.!.!.!.!.",
"!.!.!.!.!.K.S   - ] Z.!.!.!.!.!.!.!.!.!.!.!.P.@.5   N F.!.!.!.!.",
"!.!.!.!.!.{   - o.!.!.!.R.c.@.] @.v.!.!.s.4.f.!.,.-   X.!.!.!.!.",
"!.!.!.!.f.7 O | R.!.!.Z.[ 7       0 @.Z.k   ~ !.!.`   d Z.!.!.!.",
"!.!.!.!.(   C K.!.!.v.N     - 7 5   - ~ 5   @.!.!.c.e O ,.!.!.!.",
"!.!.!.N.r # 4.!.!.P.L   O D r.v.j.` -     > f.!.!.!.Q   ` !.!.!.",
"!.!.!.,.  b K.!.!.=.#   T K.!.!.!.R.Q     r V.!.!.!.;.  S R.!.!.",
"!.!.!.~   | !.!.F.k   d N.!.!.!.!.!.s.>   F !.!.!.!.7.  N R.!.!.",
"!.!.P.b   0.!.!.r.#   o.!.!.!.!.!.!.N.7   { !.!.!.!.7.  C R.!.!.",
"!.!.V.0 5 c.!.!.[   1 j.!.!.!.!.!.!.c.5   4.!.!.!.!...  ~ !.!.!.",
"!.!.N.5 7 N.!.R.S   z K.!.!.!.!.!.!.7.O 1 j.!.!.!.P.S   @.!.!.!.",
"!.!.N.7 7 v.!.R.C   N R.!.!.!.!.!.!.(   z K.!.!.!.0.- 5 c.!.!.!.",
"!.!.N.0 1 h.!.R.S   z K.!.!.!.!.!.s.7   T !.!.!.Z.b   T R.!.!.!.",
"!.!.P.b   4.!.!.|   > u.!.!.!.!.c.b     %.!.!.F.R   r j.!.!.!.!.",
"!.!.!.T   ` !.!.f.1   b u.R.K.7.k     O %.R.s.S   - =.!.!.!.!.!.",
"!.!.!.>.  d V.!.R.(     1 N z # O d O   7 b 1   > o.R.!.!.!.!.!.",
"!.!.!.N.r   { !.!.Z.I O       - ( f.i         d 4.R.!.R.R.R.!.!.",
"!.!.!.!.[   5 r.!.!.K.%.F N T 7.R.!.t.H N F @.N.!.!.r.S C u.!.!.",
"!.!.!.!.N.z   0 7.!.!.!.!.R.R.!.!.!.!.R.R.R.!.!.R.,.0   S F.!.!.",
"!.!.!.!.!.u.0   1 ` c.!.!.!.!.!.!.!.!.!.!.!.!.v.Q -   b v.!.!.!.",
"!.!.!.!.!.!.r.r     0 T ;.j.V.P.R.R.R.Z.v.,.T 0     N v.!.!.!.!.",
"!.!.!.!.!.!.!.c.L #     O 1 e N C C C d 5 #     1 [ Z.!.!.!.!.!.",
"!.!.!.!.!.!.!.!.P.7.T r #                 # e R s.R.!.!.!.!.!.!.",
"!.!.!.!.!.!.!.!.!.!.!.v.4.[ H d d d i S ( ,.v.!.!.!.!.!.!.!.!.!."
};
