/* XPM */
static const char *x67[] = {
/* columns rows colors chars-per-pixel */
"32 32 104 2",
"   c black",
".  c #013C013C013C",
"X  c #021F021F021F",
"o  c #032503250325",
"O  c #040A040A040A",
"+  c #04FF04FF04FF",
"@  c #05D605D605D6",
"#  c #078107810781",
"$  c #088208820882",
"%  c #099B099B099B",
"&  c #0B200B200B20",
"*  c #0C2E0C2E0C2E",
"=  c #0CF60CF60CF6",
"-  c #0DED0DED0DED",
";  c #0ED20ED20ED2",
":  c #0FBD0FBD0FBD",
">  c #162F162F162F",
",  c #16FB16FB16FB",
"<  c #17A517A517A5",
"1  c #1C6E1C6E1C6E",
"2  c #1D481D481D48",
"3  c #1DCF1DCF1DCF",
"4  c #1F411F411F41",
"5  c #224822482248",
"6  c #22D122D122D1",
"7  c #241724172417",
"8  c #27FF27FF27FF",
"9  c #303F303F303F",
"0  c #32A432A432A4",
"q  c #334E334E334E",
"w  c #34A034A034A0",
"e  c #383B383B383B",
"r  c #3CC23CC23CC2",
"t  c #43D343D343D3",
"y  c #497249724972",
"u  c #4A7C4A7C4A7C",
"i  c #4C504C504C50",
"p  c #525452545254",
"a  c #53FB53FB53FB",
"s  c #586F586F586F",
"d  c #644664466446",
"f  c #657E657E657E",
"g  c #6D2D6D2D6D2D",
"h  c #742C742C742C",
"j  c #765F765F765F",
"k  c #77DC77DC77DC",
"l  c #7AF77AF77AF7",
"z  c #7EF17EF17EF1",
"x  c #7FFF7FFF7FFF",
"c  c #80F180F180F1",
"v  c #89F489F489F4",
"b  c #8A0C8A0C8A0C",
"n  c #8BD48BD48BD4",
"m  c #8EF68EF68EF6",
"M  c #900890089008",
"N  c #90DE90DE90DE",
"B  c #924292429242",
"V  c #959395939593",
"C  c #97B097B097B0",
"Z  c #9AC39AC39AC3",
"A  c #A3DFA3DFA3DF",
"S  c #AB74AB74AB74",
"D  c #AEB1AEB1AEB1",
"F  c #AF92AF92AF92",
"G  c #B035B035B035",
"H  c #B38DB38DB38D",
"J  c #B44BB44BB44B",
"K  c #B5AFB5AFB5AF",
"L  c #B6E8B6E8B6E8",
"P  c #B7E9B7E9B7E9",
"I  c #B8D7B8D7B8D7",
"U  c #BBE1BBE1BBE1",
"Y  c #BCC4BCC4BCC4",
"T  c #C33DC33DC33D",
"R  c #C8E0C8E0C8E0",
"E  c #CE22CE22CE22",
"W  c #D52BD52BD52B",
"Q  c #D5A7D5A7D5A7",
"!  c #DC14DC14DC14",
"~  c gainsboro",
"^  c #DE4DDE4DDE4D",
"/  c #DF99DF99DF99",
"(  c #E192E192E192",
")  c #E3FAE3FAE3FA",
"_  c #E4DBE4DBE4DB",
"`  c #EA57EA57EA57",
"'  c #EA6EEA6EEA6E",
"]  c #EB76EB76EB76",
"[  c #EE1CEE1CEE1C",
"{  c #EF39EF39EF39",
"}  c #F01FF01FF01F",
"|  c #F15CF15CF15C",
" . c #F314F314F314",
".. c #F3D1F3D1F3D1",
"X. c #F60AF60AF60A",
"o. c #F739F739F739",
"O. c #F8D7F8D7F8D7",
"+. c #F9EEF9EEF9EE",
"@. c #FB1EFB1EFB1E",
"#. c #FBE0FBE0FBE0",
"$. c #FCDEFCDEFCDE",
"%. c #FDA4FDA4FDA4",
"&. c #FF29FF29FF29",
"*. c gray100",
/* pixels */
"*.*.*.*.*.*.*.*.*.*.*.*.*.*.*.*.*.*.*.*.*.*.*.*.*.*.*.*.*.*.*.*.",
"*.*.*.*.*.*.*.*.*.*.*.*.*.*.*.*.*.*.*.*.*.*.*.*.*.*.*.*.*.*.*.*.",
"*.*.*.*.*.*.*.*.*.*.*.*.*.*.*.*.*.*.*.*.*.*.*.*.*.*.*.*.*.*.*.*.",
"*.*.*.*.*.*.*.*.*.*.*.*.*.*.*.*.*.*.*.*.*.*.*.*.*.*.*.*.*.*.*.*.",
"*.*.*.*.*.*.*.*.*.*.*.*.*.{ W L L U / O.*.*.*.*.*.*.*.*.*.*.*.*.",
"*.*.*.*.*.*.*.*.*.*.*.E j w , + + + 6 a L O.*.*.*.*.*.*.*.*.*.*.",
"*.*.*.*.*.*.*.*.*. .B 1       + +       * h  .*.*.*.*.*.*.*.*.*.",
"*.*.*.*.*.*.*.*.o.g +   * p m L U Z p *   + h O.*.*.*.*.*.*.*.*.",
"*.*.*.*.*.*.*.*.C $   6 F O.*.*.*.*.O.F 1   * L *.*.*.*.*.*.*.*.",
"*.*.*.*.*.*.*.! 7   1 Y *.*.*.*.*.*.*.*.B +   i o.*.*.*.*.*.*.*.",
"*.*.*.*.*.*.*.b     c *.*.*.*.*.*.*.*.*.` w   9 ! *.*.*.*.*.*.*.",
"*.*.*.*.*.*.O.u   , W *.*.*.*.*.*.*.*.*.*.R U / O.*.*.*.*.*.*.*.",
"*.*.*.*.*.*.) 6   r  .*.*.*.*.*.*.*.*.*.*.*.*.*.*.*.*.*.*.*.*.*.",
"*.*.*.*.*.*.T *   d *.*.*.*.*.*.*.*.*.*.*.*.*.*.*.*.*.*.*.*.*.*.",
"*.*.*.*.*.*.L +   x *.*.*.*.*.*.*.*.*.*.*.*.*.*.*.*.*.*.*.*.*.*.",
"*.*.*.*.*.*.L +   c *.*.*.*.*.*.*.*.*.*.*.*.*.*.*.*.*.*.*.*.*.*.",
"*.*.*.*.*.*.U +   x *.*.*.*.*.*.*.*.*.*.*.*.*.*.*.*.*.*.*.*.*.*.",
"*.*.*.*.*.*.W <   a *.*.*.*.*.*.*.*.*.*.*.*.*.*.*.*.*.*.*.*.*.*.",
"*.*.*.*.*.*.{ 9   9 { *.*.*.*.*.*.*.*.*.*.` B L ) *.*.*.*.*.*.*.",
"*.*.*.*.*.*.*.d   * Y *.*.*.*.*.*.*.*.*.*.F +   j *.*.*.*.*.*.*.",
"*.*.*.*.*.*.*.H $   d *.*.*.*.*.*.*.*.*.{ u   + S *.*.*.*.*.*.*.",
"*.*.*.*.*.*.*.{ t   * C O.*.*.*.*.*.*.*.b +   e ` *.*.*.*.*.*.*.",
"*.*.*.*.*.*.*.*.L :   * l / *.*.*.*.! l *   : F *.*.*.*.*.*.*.*.",
"*.*.*.*.*.*.*.*.*.C *     6 a x c d 6     * C *.*.*.*.*.*.*.*.*.",
"*.*.*.*.*.*.*.*.*.O.A 8                 6 Z *.*.*.*.*.*.*.*.*.*.",
"*.*.*.*.*.*.*.*.*.*.*./ Z s 9 1 1 6 u v ! *.*.*.*.*.*.*.*.*.*.*.",
"*.*.*.*.*.*.*.*.*.*.*.*.*.*.{ / ) ) o.*.*.*.*.*.*.*.*.*.*.*.*.*.",
"*.*.*.*.*.*.*.*.*.*.*.*.*.*.*.*.*.*.*.*.*.*.*.*.*.*.*.*.*.*.*.*.",
"*.*.*.*.*.*.*.*.*.*.*.*.*.*.*.*.*.*.*.*.*.*.*.*.*.*.*.*.*.*.*.*.",
"*.*.*.*.*.*.*.*.*.*.*.*.*.*.*.*.*.*.*.*.*.*.*.*.*.*.*.*.*.*.*.*.",
"*.*.*.*.*.*.*.*.*.*.*.*.*.*.*.*.*.*.*.*.*.*.*.*.*.*.*.*.*.*.*.*.",
"*.*.*.*.*.*.*.*.*.*.*.*.*.*.*.*.*.*.*.*.*.*.*.*.*.*.*.*.*.*.*.*."
};
