/* XPM */
static const char *x72[] = {
/* columns rows colors chars-per-pixel */
"32 32 41 1",
"  c black",
". c gray2",
"X c #089708970897",
"o c #0F110F110F11",
"O c #18AA18AA18AA",
"+ c #1A741A741A74",
"@ c #1D8C1D8C1D8C",
"# c #1E281E281E28",
"$ c #229122912291",
"% c #247B247B247B",
"& c #38BA38BA38BA",
"* c #403040304030",
"= c #448844884488",
"- c #45FB45FB45FB",
"; c #48F748F748F7",
": c #4C8E4C8E4C8E",
"> c #5E835E835E83",
", c #70EE70EE70EE",
"< c #7D4F7D4F7D4F",
"1 c #7FFF7FFF7FFF",
"2 c #802380238023",
"3 c #81F181F181F1",
"4 c #8F118F118F11",
"5 c #A47BA47BA47B",
"6 c #B708B708B708",
"7 c #BF9FBF9FBF9F",
"8 c #CBD4CBD4CBD4",
"9 c #DD6EDD6EDD6E",
"0 c #E140E140E140",
"q c #E1DEE1DEE1DE",
"w c #E273E273E273",
"e c #E54AE54AE54A",
"r c #E568E568E568",
"t c #EA73EA73EA73",
"y c #F0EDF0EDF0ED",
"u c #F768F768F768",
"i c #FAF8FAF8FAF8",
"p c #FC14FC14FC14",
"a c #FD7CFD7CFD7C",
"s c #FF20FF20FF20",
"d c gray100",
/* pixels */
"dddddddddddddddddddddddddddddddd",
"dddddddddddddddddddddddddddddddd",
"dddddddddddddddddddddddddddddddd",
"dddddddddddddddddddddddddddddddd",
"ddddddduwwtddddddddddt9riddddddd",
"ddddddd7$+4dddddddddi>+&rddddddd",
"ddddddd6. 1dddddddddi; #wddddddd",
"ddddddd6. 1dddddddddi; #wddddddd",
"ddddddd6. 1dddddddddi; #wddddddd",
"ddddddd6. 1dddddddddi; #wddddddd",
"ddddddd6. 1dddddddddi; #wddddddd",
"ddddddd6. 1dddddddddi; #wddddddd",
"ddddddd6. 3dddddddddi- #wddddddd",
"ddddddd6. *3111111131% #9ddddddd",
"ddddddd6.              #wddddddd",
"ddddddd6. o##########X #wddddddd",
"ddddddd6. ,wwwwwwwww9* #wddddddd",
"ddddddd6. 1dddddddddi; #wddddddd",
"ddddddd6. 1dddddddddi; #wddddddd",
"ddddddd6. 1dddddddddi; #wddddddd",
"ddddddd6. 1dddddddddi; #wddddddd",
"ddddddd6. 1dddddddddi; #wddddddd",
"ddddddd6. 1dddddddddi; #9ddddddd",
"ddddddd6. 1dddddddddi; #wddddddd",
"ddddddd6. 3dddddddddi- #wddddddd",
"ddddddd8;-5dddddddddi1->tddddddd",
"ddddddddiidddddddddddiiidddddddd",
"dddddddddddddddddddddddddddddddd",
"dddddddddddddddddddddddddddddddd",
"dddddddddddddddddddddddddddddddd",
"dddddddddddddddddddddddddddddddd",
"dddddddddddddddddddddddddddddddd"
};
