/* XPM */
static const char *x76[] = {
/* columns rows colors chars-per-pixel */
"32 32 22 1",
"  c black",
". c #089708970897",
"X c #18AA18AA18AA",
"o c #1D8C1D8C1D8C",
"O c #1E231E231E23",
"+ c #38BA38BA38BA",
"@ c #406040604060",
"# c #45F145F145F1",
"$ c #478E478E478E",
"% c #48FB48FB48FB",
"& c #5E835E835E83",
"* c #7D227D227D22",
"= c #DD6EDD6EDD6E",
"- c #E121E121E121",
"; c #E1DCE1DCE1DC",
": c #E568E568E568",
"> c #EA73EA73EA73",
", c #FAF9FAF9FAF9",
"< c #FBFEFBFEFBFE",
"1 c #FCE9FCE9FCE9",
"2 c #FF68FF68FF68",
"3 c gray100",
/* pixels */
"33333333333333333333333333333333",
"33333333333333333333333333333333",
"33333333333333333333333333333333",
"33333333333333333333333333333333",
"3333333333>;:,333333333333333333",
"333333333,&X+:333333333333333333",
"333333333,% O;333333333333333333",
"333333333,% O;333333333333333333",
"333333333,% O;333333333333333333",
"333333333,% O;333333333333333333",
"333333333,% O;333333333333333333",
"333333333,% O;333333333333333333",
"333333333,% O;333333333333333333",
"333333333,% O;333333333333333333",
"333333333,% O;333333333333333333",
"333333333,% O;333333333333333333",
"333333333,% O;333333333333333333",
"333333333,% O;333333333333333333",
"333333333,% O;333333333333333333",
"333333333,% O;333333333333333333",
"333333333,% O;333333333333333333",
"333333333,% O;333333333333333333",
"333333333,% O=3,,,,,,,,333333333",
"333333333,% .+%%%%%%%$&>33333333",
"333333333,%           O;33333333",
"333333333,*$%%%%%%%%%$&>33333333",
"3333333333,,,,,,,,,,,,,333333333",
"33333333333333333333333333333333",
"33333333333333333333333333333333",
"33333333333333333333333333333333",
"33333333333333333333333333333333",
"33333333333333333333333333333333"
};
