/* XPM */
static const char *x81[] = {
/* columns rows colors chars-per-pixel */
"32 32 127 2",
"   c #000400040004",
".  c #00ED00ED00ED",
"X  c #023402340234",
"o  c #02E502E502E5",
"O  c #042A042A042A",
"+  c #04FB04FB04FB",
"@  c #05E305E305E3",
"#  c #078107810781",
"$  c #07F507F507F5",
"%  c #090509050905",
"&  c #0A190A190A19",
"*  c #0C0E0C0E0C0E",
"=  c #0CF80CF80CF8",
"-  c #0DED0DED0DED",
";  c #0EDA0EDA0EDA",
":  c #111A111A111A",
">  c #120012001200",
",  c #136513651365",
"<  c #140014001400",
"1  c #16FB16FB16FB",
"2  c #1C5C1C5C1C5C",
"3  c #1D7C1D7C1D7C",
"4  c #1DED1DED1DED",
"5  c #1F411F411F41",
"6  c #223A223A223A",
"7  c #22CE22CE22CE",
"8  c #283528352835",
"9  c #327832783278",
"0  c #334E334E334E",
"q  c #340F340F340F",
"w  c #353535353535",
"e  c #36E736E736E7",
"r  c #398A398A398A",
"t  c #3CC23CC23CC2",
"y  c #3E633E633E63",
"u  c #3EC03EC03EC0",
"i  c #408640864086",
"p  c #425742574257",
"a  c #492049204920",
"s  c #4A394A394A39",
"d  c #4B664B664B66",
"f  c #4BF44BF44BF4",
"g  c #4D864D864D86",
"h  c #4ECD4ECD4ECD",
"j  c #50B650B650B6",
"k  c #535E535E535E",
"l  c #542554255425",
"z  c #587858785878",
"x  c #5E3F5E3F5E3F",
"c  c #5F1A5F1A5F1A",
"v  c #602660266026",
"b  c #633A633A633A",
"n  c #648F648F648F",
"m  c #654965496549",
"M  c #6A8A6A8A6A8A",
"N  c #6AF66AF66AF6",
"B  c #708970897089",
"V  c #742B742B742B",
"C  c #7C697C697C69",
"Z  c #7EEB7EEB7EEB",
"A  c #7FFF7FFF7FFF",
"S  c #80D780D780D7",
"D  c #814281428142",
"F  c #84B784B784B7",
"G  c #89F489F489F4",
"H  c #8AFE8AFE8AFE",
"J  c #8C5D8C5D8C5D",
"K  c #8FAF8FAF8FAF",
"L  c #90DE90DE90DE",
"P  c #958C958C958C",
"I  c #9A8F9A8F9A8F",
"U  c #9B5C9B5C9B5C",
"Y  c #9C669C669C66",
"T  c #9F7A9F7A9F7A",
"R  c #A058A058A058",
"E  c #A460A460A460",
"W  c #A759A759A759",
"Q  c #ACBAACBAACBA",
"!  c #B0FAB0FAB0FA",
"~  c #B1EBB1EBB1EB",
"^  c #B279B279B279",
"/  c #B377B377B377",
"(  c #B56EB56EB56E",
")  c #B6C9B6C9B6C9",
"_  c #B7DFB7DFB7DF",
"`  c #B84BB84BB84B",
"'  c #BBE1BBE1BBE1",
"]  c #BD41BD41BD41",
"[  c #BEE4BEE4BEE4",
"{  c #C229C229C229",
"}  c #C33DC33DC33D",
"|  c #C6A9C6A9C6A9",
" . c #CC0FCC0FCC0F",
".. c #CCC1CCC1CCC1",
"X. c #D198D198D198",
"o. c #D541D541D541",
"O. c #D5A7D5A7D5A7",
"+. c #D76BD76BD76B",
"@. c #DC41DC41DC41",
"#. c #DCFFDCFFDCFF",
"$. c #DFA4DFA4DFA4",
"%. c #E105E105E105",
"&. c #E1B7E1B7E1B7",
"*. c #E3FAE3FAE3FA",
"=. c #E4C7E4C7E4C7",
"-. c #E8BDE8BDE8BD",
";. c #EAAAEAAAEAAA",
":. c #EC12EC12EC12",
">. c #ED15ED15ED15",
",. c #EE1CEE1CEE1C",
"<. c #EEF0EEF0EEF0",
"1. c #F119F119F119",
"2. c #F22DF22DF22D",
"3. c #F314F314F314",
"4. c #F3DDF3DDF3DD",
"5. c #F4EEF4EEF4EE",
"6. c #F5DEF5DEF5DE",
"7. c #F76DF76DF76D",
"8. c #F84DF84DF84D",
"9. c #F89CF89CF89C",
"0. c #F9ADF9ADF9AD",
"q. c #FB05FB05FB05",
"w. c #FBE9FBE9FBE9",
"e. c #FCC7FCC7FCC7",
"r. c #FDD6FDD6FDD6",
"t. c #FF29FF29FF29",
"y. c gray100",
/* pixels */
"y.y.y.y.y.y.y.y.y.y.y.y.y.y.y.y.y.y.y.y.y.y.y.y.y.y.y.y.y.y.y.y.",
"y.y.y.y.y.y.y.y.y.y.y.y.y.y.y.y.y.y.y.y.y.y.y.y.y.y.y.y.y.y.y.y.",
"y.y.y.y.y.y.y.y.y.y.y.y.y.y.y.y.y.y.y.y.y.y.y.y.y.y.y.y.y.y.y.y.",
"y.y.y.y.y.y.y.y.y.y.y.y.y.y.y.y.y.y.y.y.y.y.y.y.y.y.y.y.y.y.y.y.",
"y.y.y.y.y.y.y.y.y.y.y.y.q.$.] ` )  .<.y.y.y.y.y.y.y.y.y.y.y.y.y.",
"y.y.y.y.y.y.y.y.y.y.1./ j 6 $ O O > e S @.y.y.y.y.y.y.y.y.y.y.y.",
"y.y.y.y.y.y.y.y.y.$.j $       O         6 I y.y.y.y.y.y.y.y.y.y.",
"y.y.y.y.y.y.y.y.$.p     5 b I ) / S e O   * P q.y.y.y.y.y.y.y.y.",
"y.y.y.y.y.y.y.1.j   O h ..y.y.y.y.y.;.G >   * E y.y.y.y.y.y.y.y.",
"y.y.y.y.y.y.y.I O   j <.y.y.y.y.y.y.y.y.P *   r ;.y.y.y.y.y.y.y.",
"y.y.y.y.y.y.<.r   6 o.y.y.y.y.y.y.y.y.y.q.n     T y.y.y.y.y.y.y.",
"y.y.y.y.y.y.{ *   n y.y.y.y.y.y.y.y.y.y.y.| >   j q.y.y.y.y.y.y.",
"y.y.y.y.y.y.K     W y.y.y.y.y.y.y.y.y.y.y.1.y   6 =.y.y.y.y.y.y.",
"y.y.y.y.y.y.n   > ..y.y.y.y.y.y.y.y.y.y.y.y.n   * { y.y.y.y.y.y.",
"y.y.y.y.y.q.a   5 &.y.y.y.y.y.y.y.y.y.y.y.y.S   O ) y.y.y.y.y.y.",
"y.y.y.y.y.q.a   5 &.y.y.y.y.y.y.y.y.y.y.y.y.S   O ) y.y.y.y.y.y.",
"y.y.y.y.y.q.a   5 $.y.y.y.y.y.y.y.y.y.y.y.y.C   O ` y.y.y.y.y.y.",
"y.y.y.y.y.y.B   $ { y.y.y.y.y.y.y.y.y.y.y.y.z   1 o.y.y.y.y.y.y.",
"y.y.y.y.y.y.I     I y.y.y.y.y.y.y.y.y.y.y.<.0   e <.y.y.y.y.y.y.",
"y.y.y.y.y.y. .>   h 7.y.y.y.y.y.;.1.y.y.y./ $   M y.y.y.y.y.y.y.",
"y.y.y.y.y.y.7.h   * Q y.y.y.y.7.z y T 1.1.a   * ` y.y.y.y.y.y.y.",
"y.y.y.y.y.y.y.) *   8 | y.y.y.;.e   O j x O   x q.y.y.y.y.y.y.y.",
"y.y.y.y.y.y.y.q.V     6 R <.y.y.$.F *       y $.y.y.y.y.y.y.y.y.",
"y.y.y.y.y.y.y.y.1.M O   O 0 b S C a *       b <.y.y.y.y.y.y.y.y.",
"y.y.y.y.y.y.y.y.y.1.L 6               O 1     p / 1.y.y.y.y.y.y.",
"y.y.y.y.y.y.y.y.y.y.y.@.G a 6 5 5 0 z T X.B 1   O K y.y.y.y.y.y.",
"y.y.y.y.y.y.y.y.y.y.y.y.y.q.&.&.&.<.y.y.y.q.] j 5 / y.y.y.y.y.y.",
"y.y.y.y.y.y.y.y.y.y.y.y.y.y.y.y.y.y.y.y.y.y.y.q.o.7.y.y.y.y.y.y.",
"y.y.y.y.y.y.y.y.y.y.y.y.y.y.y.y.y.y.y.y.y.y.y.y.y.y.y.y.y.y.y.y.",
"y.y.y.y.y.y.y.y.y.y.y.y.y.y.y.y.y.y.y.y.y.y.y.y.y.y.y.y.y.y.y.y.",
"y.y.y.y.y.y.y.y.y.y.y.y.y.y.y.y.y.y.y.y.y.y.y.y.y.y.y.y.y.y.y.y.",
"y.y.y.y.y.y.y.y.y.y.y.y.y.y.y.y.y.y.y.y.y.y.y.y.y.y.y.y.y.y.y.y."
};
