/* XPM */
static const char *x83[] = {
/* columns rows colors chars-per-pixel */
"32 32 121 2",
"   c #000500050005",
".  c #00DA00DA00DA",
"X  c #020C020C020C",
"o  c #02F702F702F7",
"O  c #043F043F043F",
"+  c #051A051A051A",
"@  c #05D705D705D7",
"#  c #07F307F307F3",
"$  c #097C097C097C",
"%  c #0A450A450A45",
"&  c #0B5F0B5F0B5F",
"*  c #0BE80BE80BE8",
"=  c #0CBF0CBF0CBF",
"-  c #0DE80DE80DE8",
";  c #104610461046",
":  c #10F110F110F1",
">  c #145B145B145B",
",  c #155D155D155D",
"<  c #160716071607",
"1  c #17D217D217D2",
"2  c #191E191E191E",
"3  c #1B7F1B7F1B7F",
"4  c #1D7C1D7C1D7C",
"5  c #1E271E271E27",
"6  c #1EFA1EFA1EFA",
"7  c #202620262026",
"8  c #21CE21CE21CE",
"9  c #244424442444",
"0  c #252125212521",
"q  c #268F268F268F",
"w  c #274127412741",
"e  c #27FF27FF27FF",
"r  c #28F628F628F6",
"t  c #2C6A2C6A2C6A",
"y  c #2D4A2D4A2D4A",
"u  c #319231923192",
"i  c #32A432A432A4",
"p  c #352335233523",
"a  c #3C0C3C0C3C0C",
"s  c #433943394339",
"d  c #4A544A544A54",
"f  c #4AD24AD24AD2",
"g  c #516951695169",
"h  c #52EC52EC52EC",
"j  c #543754375437",
"k  c #571857185718",
"l  c #586B586B586B",
"z  c #5EB85EB85EB8",
"x  c #5F115F115F11",
"c  c #648E648E648E",
"v  c #656465646564",
"b  c #662766276627",
"n  c #6D026D026D02",
"m  c #6F5B6F5B6F5B",
"M  c #702070207020",
"N  c #712E712E712E",
"B  c #747F747F747F",
"V  c #79D979D979D9",
"C  c #7F7E7F7E7F7E",
"Z  c #80D880D880D8",
"A  c #8DF18DF18DF1",
"S  c #8FAF8FAF8FAF",
"D  c #94D494D494D4",
"F  c #962096209620",
"G  c #9A939A939A93",
"H  c #9BC69BC69BC6",
"J  c #9C859C859C85",
"K  c #A3DFA3DFA3DF",
"L  c #A524A524A524",
"P  c #A84DA84DA84D",
"I  c #ABFFABFFABFF",
"U  c #ACDAACDAACDA",
"Y  c #B164B164B164",
"T  c #B338B338B338",
"R  c #B4D7B4D7B4D7",
"E  c #B5DBB5DBB5DB",
"W  c #B653B653B653",
"Q  c #B7C9B7C9B7C9",
"!  c #B886B886B886",
"~  c #BC07BC07BC07",
"^  c #BD50BD50BD50",
"/  c #BED0BED0BED0",
"(  c #C1CEC1CEC1CE",
")  c #C30BC30BC30B",
"_  c #C692C692C692",
"`  c #C8F2C8F2C8F2",
"'  c #CCFACCFACCFA",
"]  c #CD5FCD5FCD5F",
"[  c #CE53CE53CE53",
"{  c #D625D625D625",
"}  c #D8F1D8F1D8F1",
"|  c #DAD4DAD4DAD4",
" . c #DB83DB83DB83",
".. c #DCFCDCFCDCFC",
"X. c #DE4DDE4DDE4D",
"o. c #DEBCDEBCDEBC",
"O. c #DFF7DFF7DFF7",
"+. c #E120E120E120",
"@. c #E1E3E1E3E1E3",
"#. c #E2E5E2E5E2E5",
"$. c #E3DCE3DCE3DC",
"%. c #E4DDE4DDE4DD",
"&. c #E568E568E568",
"*. c #E82AE82AE82A",
"=. c #EA06EA06EA06",
"-. c #EAE0EAE0EAE0",
";. c #EE56EE56EE56",
":. c #EF2BEF2BEF2B",
">. c #EF97EF97EF97",
",. c #F1C7F1C7F1C7",
"<. c #F3BEF3BEF3BE",
"1. c #F551F551F551",
"2. c #F66DF66DF66D",
"3. c #F961F961F961",
"4. c #F994F994F994",
"5. c #FA95FA95FA95",
"6. c #FC3CFC3CFC3C",
"7. c #FCC1FCC1FCC1",
"8. c #FDCFFDCFFDCF",
"9. c #FF04FF04FF04",
"0. c #FFFEFFFEFFFE",
/* pixels */
"0.0.0.0.0.0.0.0.0.0.0.0.0.0.0.0.0.0.0.0.0.0.0.0.0.0.0.0.0.0.0.0.",
"0.0.0.0.0.0.0.0.0.0.0.0.0.0.0.0.0.0.0.0.0.0.0.0.0.0.0.0.0.0.0.0.",
"0.0.0.0.0.0.0.0.0.0.0.0.0.0.0.0.0.0.0.0.0.0.0.0.0.0.0.0.0.0.0.0.",
"0.0.0.0.0.0.0.0.0.0.0.0.0.0.0.0.0.0.0.0.0.0.0.0.0.0.0.0.0.0.0.0.",
"0.0.0.0.0.0.0.0.0.0.0.0.5.$.) Q Q ) %.5.0.0.0.0.0.0.0.0.0.0.0.0.",
"0.0.0.0.0.0.0.0.0.0.2.Y h 7 - O O $ 7 h Y 2.0.0.0.0.0.0.0.0.0.0.",
"0.0.0.0.0.0.0.0.0.,.m $     O O O       $ m ,.0.0.0.0.0.0.0.0.0.",
"0.0.0.0.0.0.0.0.5.B     5 N L Q ! J c >     B 0.0.0.0.0.0.0.0.0.",
"0.0.0.0.0.0.0.0.[ <   w _ 0.0.0.0.0.5.Q 7   < _ 0.0.0.0.0.0.0.0.",
"0.0.0.0.0.0.0.0.S     D 0.0.0.0.0.0.0.0.D     C 0.0.0.0.0.0.0.0.",
"0.0.0.0.0.0.0.0.Z   O Y 0.0.0.0.0.0.0.0.| i 1 c 5.0.0.0.0.0.0.0.",
"0.0.0.0.0.0.0.0.J     v 5.0.0.0.0.0.0.0.0.%.$.=.0.0.0.0.0.0.0.0.",
"0.0.0.0.0.0.0.0...w   - c _ >.0.0.0.0.0.0.0.0.0.0.0.0.0.0.0.0.0.",
"0.0.0.0.0.0.0.0.0.G -     - p m G [ >.0.0.0.0.0.0.0.0.0.0.0.0.0.",
"0.0.0.0.0.0.0.0.0.5.L p O         > p N Y 2.0.0.0.0.0.0.0.0.0.0.",
"0.0.0.0.0.0.0.0.0.0.0.=.U v r -         $ h [ 0.0.0.0.0.0.0.0.0.",
"0.0.0.0.0.0.0.0.0.0.0.0.0.0.%.) S k w O     w [ 0.0.0.0.0.0.0.0.",
"0.0.0.0.0.0.0.0.0.0.0.0.0.0.0.0.0.5.%.I a     h 2.0.0.0.0.0.0.0.",
"0.0.0.0.0.0.0.=.Q Q | 0.0.0.0.0.0.0.0.0.| t   < { 0.0.0.0.0.0.0.",
"0.0.0.0.0.0.0./ -   v 0.0.0.0.0.0.0.0.0.0.N   O Q 0.0.0.0.0.0.0.",
"0.0.0.0.0.0.0...5   w $.0.0.0.0.0.0.0.0.0.N   $ ! 0.0.0.0.0.0.0.",
"0.0.0.0.0.0.0.5.k     C 5.0.0.0.0.0.0.0...t   r %.0.0.0.0.0.0.0.",
"0.0.0.0.0.0.0.0./ <   - N | 5.0.0.0.5.` f     B 0.0.0.0.0.0.0.0.",
"0.0.0.0.0.0.0.0.0.D -     1 d V Z V d <     s %.0.0.0.0.0.0.0.0.",
"0.0.0.0.0.0.0.0.0.5.K w                 $ x ..0.0.0.0.0.0.0.0.0.",
"0.0.0.0.0.0.0.0.0.0.0...G l i 5 5 5 a v Q 2.0.0.0.0.0.0.0.0.0.0.",
"0.0.0.0.0.0.0.0.0.0.0.0.0.0.>...$.$.,.0.0.0.0.0.0.0.0.0.0.0.0.0.",
"0.0.0.0.0.0.0.0.0.0.0.0.0.0.0.0.0.0.0.0.0.0.0.0.0.0.0.0.0.0.0.0.",
"0.0.0.0.0.0.0.0.0.0.0.0.0.0.0.0.0.0.0.0.0.0.0.0.0.0.0.0.0.0.0.0.",
"0.0.0.0.0.0.0.0.0.0.0.0.0.0.0.0.0.0.0.0.0.0.0.0.0.0.0.0.0.0.0.0.",
"0.0.0.0.0.0.0.0.0.0.0.0.0.0.0.0.0.0.0.0.0.0.0.0.0.0.0.0.0.0.0.0.",
"0.0.0.0.0.0.0.0.0.0.0.0.0.0.0.0.0.0.0.0.0.0.0.0.0.0.0.0.0.0.0.0."
};
