/* XPM */
static const char *x84[] = {
/* columns rows colors chars-per-pixel */
"32 32 30 1",
"  c black",
". c #028302830283",
"X c gray2",
"o c #1C661C661C66",
"O c #1E1E1E1E1E1E",
"+ c #229122912291",
"@ c #38BA38BA38BA",
"# c #3FFF3FFF3FFF",
"$ c #45FB45FB45FB",
"% c #4C8E4C8E4C8E",
"& c #5B845B845B84",
"* c #7FF37FF37FF3",
"= c #81F181F181F1",
"- c #824F824F824F",
"; c #8F118F118F11",
": c #A47BA47BA47B",
"> c #B708B708B708",
", c #BF9FBF9FBF9F",
"< c #CBD4CBD4CBD4",
"1 c #DB83DB83DB83",
"2 c #E1D7E1D7E1D7",
"3 c #E273E273E273",
"4 c #E568E568E568",
"5 c #F0EDF0EDF0ED",
"6 c #F768F768F768",
"7 c #FAFCFAFCFAFC",
"8 c #FC73FC73FC73",
"9 c #FD7CFD7CFD7C",
"0 c #FE91FE91FE91",
"q c gray100",
/* pixels */
"qqqqqqqqqqqqqqqqqqqqqqqqqqqqqqqq",
"qqqqqqqqqqqqqqqqqqqqqqqqqqqqqqqq",
"qqqqqqqqqqqqqqqqqqqqqqqqqqqqqqqq",
"qqqqqqqqqqqqqqqqqqqqqqqqqqqqqqqq",
"qqqqqqq622222222222222148qqqqqqq",
"qqqqqqq,+OOOOOOOOOOOOOO@4qqqqqqq",
"qqqqqqq>X              O2qqqqqqq",
"qqqqqqq1=***==#  &===**;5qqqqqqq",
"qqqqqqqqqqqqqq* X>qqqqqqqqqqqqqq",
"qqqqqqqqqqqqqq* X>qqqqqqqqqqqqqq",
"qqqqqqqqqqqqqq* X>qqqqqqqqqqqqqq",
"qqqqqqqqqqqqqq= X>qqqqqqqqqqqqqq",
"qqqqqqqqqqqqqq* X>qqqqqqqqqqqqqq",
"qqqqqqqqqqqqqq* X>qqqqqqqqqqqqqq",
"qqqqqqqqqqqqqq* X>qqqqqqqqqqqqqq",
"qqqqqqqqqqqqqq= X>qqqqqqqqqqqqqq",
"qqqqqqqqqqqqqq* X>qqqqqqqqqqqqqq",
"qqqqqqqqqqqqqq* X>qqqqqqqqqqqqqq",
"qqqqqqqqqqqqqq= X>qqqqqqqqqqqqqq",
"qqqqqqqqqqqqqq* X>qqqqqqqqqqqqqq",
"qqqqqqqqqqqqqq* X>qqqqqqqqqqqqqq",
"qqqqqqqqqqqqqq* X>qqqqqqqqqqqqqq",
"qqqqqqqqqqqqqq* X>qqqqqqqqqqqqqq",
"qqqqqqqqqqqqqq* X>qqqqqqqqqqqqqq",
"qqqqqqqqqqqqqq* X>qqqqqqqqqqqqqq",
"qqqqqqqqqqqqqq:$%<qqqqqqqqqqqqqq",
"qqqqqqqqqqqqqq888qqqqqqqqqqqqqqq",
"qqqqqqqqqqqqqqqqqqqqqqqqqqqqqqqq",
"qqqqqqqqqqqqqqqqqqqqqqqqqqqqqqqq",
"qqqqqqqqqqqqqqqqqqqqqqqqqqqqqqqq",
"qqqqqqqqqqqqqqqqqqqqqqqqqqqqqqqq",
"qqqqqqqqqqqqqqqqqqqqqqqqqqqqqqqq"
};
