/* XPM */
static const char *x86[] = {
/* columns rows colors chars-per-pixel */
"32 32 74 1",
"  c black",
". c #00AC00AC00AC",
"X c #035C035C035C",
"o c #054C054C054C",
"O c #067906790679",
"+ c #092909290929",
"@ c #099509950995",
"# c #0C0C0C0C0C0C",
"$ c #113F113F113F",
"% c #167016701670",
"& c #1A291A291A29",
"* c #1B391B391B39",
"= c #1C271C271C27",
"- c #232F232F232F",
"; c #244424442444",
": c #25BA25BA25BA",
"> c #276327632763",
", c #287828782878",
"< c #31AC31AC31AC",
"1 c #339333933393",
"2 c #342334233423",
"3 c #398A398A398A",
"4 c #42BE42BE42BE",
"5 c #433D433D433D",
"6 c #462D462D462D",
"7 c #4C724C724C72",
"8 c #4D864D864D86",
"9 c #538353835383",
"0 c #54B054B054B0",
"q c #5CF25CF25CF2",
"w c #608560856085",
"e c #64B864B864B8",
"r c #6A1F6A1F6A1F",
"t c #75F375F375F3",
"y c #76CA76CA76CA",
"u c #781778177817",
"i c #7AA87AA87AA8",
"p c #7FFF7FFF7FFF",
"a c #8BA98BA98BA9",
"s c #91CB91CB91CB",
"d c #94B394B394B3",
"f c #95E095E095E0",
"g c #9E009E009E00",
"h c #9F7A9F7A9F7A",
"j c #AB4FAB4FAB4F",
"k c #ADC7ADC7ADC7",
"l c #B38DB38DB38D",
"z c #BD41BD41BD41",
"x c #C04FC04FC04F",
"c c #C583C583C583",
"v c #C675C675C675",
"b c #C7D9C7D9C7D9",
"n c #CE53CE53CE53",
"m c #DCDEDCDEDCDE",
"M c #E146E146E146",
"N c #E1D5E1D5E1D5",
"B c #E41BE41BE41B",
"V c #E4EAE4EAE4EA",
"C c #E5D3E5D3E5D3",
"Z c #E98DE98DE98D",
"A c #EB1BEB1BEB1B",
"S c #EC94EC94EC94",
"D c #EDC0EDC0EDC0",
"F c #EEA0EEA0EEA0",
"G c #F406F406F406",
"H c #F4E8F4E8F4E8",
"J c #F65AF65AF65A",
"K c #F869F869F869",
"L c #F973F973F973",
"P c #FAACFAACFAAC",
"I c #FC2AFC2AFC2A",
"U c #FD2EFD2EFD2E",
"Y c #FEF5FEF5FEF5",
"T c gray100",
/* pixels */
"TTTTTTTTTTTTTTTTTTTTTTTTTTTTTTTT",
"TTTTTTTTTTTTTTTTTTTTTTTTTTTTTTTT",
"TTTTTTTTTTTTTTTTTTTTTTTTTTTTTTTT",
"TTTTTTTTTTTTTTTTTTTTTTTTTTTTTTTT",
"TTTTTTAMMJTTTTTTTTTTTTPCMCTTTTTT",
"TTTTTTa*=sTTTTTTTTTTTTx:*qJTTTTT",
"TTTTTTc$ 4GTTTTTTTTTTTy  dTTTTTT",
"TTTTTTJ8 #zTTTTTTTTTTM, :mTTTTTT",
"TTTTTTTjo rTTTTTTTTTPj  yTTTTTTT",
"TTTTTTTA< ,MTTTTTTTTJ0 $cTTTTTTT",
"TTTTTTTTp  jTTTTTTTTn% 7JTTTTTTT",
"TTTTTTTTn% 8PTTTTTTTp  jTTTTTTTT",
"TTTTTTTTP0 %nTTTTTTD2 ,MTTTTTTTT",
"TTTTTTTTTjo pTTTTTTl@ yTTTTTTTTT",
"TTTTTTTTTA< 2DTTTTTe $cTTTTTTTTT",
"TTTTTTTTTTp @lTTTTm- 7JTTTTTTTTT",
"TTTTTTTTTTn% eTTTTd ogTTTTTTTTTT",
"TTTTTTTTTTP0 -mTTG5 ,MTTTTTTTTTT",
"TTTTTTTTTTTjo dTTc$ yTTTTTTTTTTT",
"TTTTTTTTTTTA< 4JTy $cTTTTTTTTTTT",
"TTTTTTTTTTTTa #cD< 8JTTTTTTTTTTT",
"TTTTTTTTTTTTn% iko gTTTTTTTTTTTT",
"TTTTTTTTTTTTTq 29 <ATTTTTTTTTTTT",
"TTTTTTTTTTTTTl@o# pTTTTTTTTTTTTT",
"TTTTTTTTTTTTTD3  %nTTTTTTTTTTTTT",
"TTTTTTTTTTTTTTg55yPTTTTTTTTTTTTT",
"TTTTTTTTTTTTTTTPPTTTTTTTTTTTTTTT",
"TTTTTTTTTTTTTTTTTTTTTTTTTTTTTTTT",
"TTTTTTTTTTTTTTTTTTTTTTTTTTTTTTTT",
"TTTTTTTTTTTTTTTTTTTTTTTTTTTTTTTT",
"TTTTTTTTTTTTTTTTTTTTTTTTTTTTTTTT",
"TTTTTTTTTTTTTTTTTTTTTTTTTTTTTTTT"
};
