/* XPM */
static const char *x87[] = {
/* columns rows colors chars-per-pixel */
"32 32 96 2",
"   c #000900090009",
".  c #00F300F300F3",
"X  c #026B026B026B",
"o  c #02AE02AE02AE",
"O  c #03FF03FF03FF",
"+  c #053405340534",
"@  c #063706370637",
"#  c #06DC06DC06DC",
"$  c #094609460946",
"%  c #0B160B160B16",
"&  c #0C1F0C1F0C1F",
"*  c #0FDF0FDF0FDF",
"=  c #116E116E116E",
"-  c #11C811C811C8",
";  c #17CD17CD17CD",
":  c #1A891A891A89",
">  c #1A9F1A9F1A9F",
",  c #1C011C011C01",
"<  c #1E111E111E11",
"1  c #1EB51EB51EB5",
"2  c #202A202A202A",
"3  c #22CC22CC22CC",
"4  c #282B282B282B",
"5  c #29D229D229D2",
"6  c #2EAB2EAB2EAB",
"7  c #337B337B337B",
"8  c #3DEC3DEC3DEC",
"9  c #405840584058",
"0  c #433D433D433D",
"q  c #450045004500",
"w  c #465646564656",
"e  c #47B147B147B1",
"r  c #482748274827",
"t  c #4A674A674A67",
"y  c #4C614C614C61",
"u  c #4E9A4E9A4E9A",
"i  c #51F451F451F4",
"p  c #57CF57CF57CF",
"a  c #58A658A658A6",
"s  c #5B8E5B8E5B8E",
"d  c #63B063B063B0",
"f  c #648864886488",
"g  c #658F658F658F",
"h  c #664C664C664C",
"j  c #705070507050",
"k  c #717B717B717B",
"l  c #738D738D738D",
"z  c #76CA76CA76CA",
"x  c #7FFF7FFF7FFF",
"c  c #812081208120",
"v  c #893589358935",
"b  c #8BBE8BBE8BBE",
"n  c #8E9B8E9B8E9B",
"m  c #973297329732",
"M  c #9B929B929B92",
"N  c #9C5B9C5B9C5B",
"B  c #A306A306A306",
"V  c #A830A830A830",
"C  c #A9ECA9ECA9EC",
"Z  c #AC63AC63AC63",
"A  c #B050B050B050",
"S  c #B598B598B598",
"D  c #B70FB70FB70F",
"F  c #BCCBBCCBBCCB",
"G  c #C1E1C1E1C1E1",
"H  c #C33DC33DC33D",
"J  c #C352C352C352",
"K  c #CAC0CAC0CAC0",
"L  c #CBBECBBECBBE",
"P  c #CC71CC71CC71",
"I  c #D509D509D509",
"U  c #D625D625D625",
"Y  c #D7CCD7CCD7CC",
"T  c #D89CD89CD89C",
"R  c #DD4FDD4FDD4F",
"E  c #DFC6DFC6DFC6",
"W  c #E13DE13DE13D",
"Q  c #E1F3E1F3E1F3",
"!  c #E273E273E273",
"~  c #E369E369E369",
"^  c #E568E568E568",
"/  c #E82DE82DE82D",
"(  c #EE53EE53EE53",
")  c #F017F017F017",
"_  c #F11DF11DF11D",
"`  c #F3FEF3FEF3FE",
"'  c #F4DDF4DDF4DD",
"]  c #F654F654F654",
"[  c #F768F768F768",
"{  c #F911F911F911",
"}  c #FB01FB01FB01",
"|  c #FBB1FBB1FBB1",
" . c #FD06FD06FD06",
".. c #FDCDFDCDFDCD",
"X. c #FF2AFF2AFF2A",
"o. c gray100",
/* pixels */
"o.o.o.o.o.o.o.o.o.o.o.o.o.o.o.o.o.o.o.o.o.o.o.o.o.o.o.o.o.o.o.o.",
"o.o.o.o.o.o.o.o.o.o.o.o.o.o.o.o.o.o.o.o.o.o.o.o.o.o.o.o.o.o.o.o.",
"o.o.o.o.o.o.o.o.o.o.o.o.o.o.o.o.o.o.o.o.o.o.o.o.o.o.o.o.o.o.o.o.",
"o.o.o.o.o.o.o.o.o.o.o.o.o.o.o.o.o.o.o.o.o.o.o.o.o.o.o.o.o.o.o.o.",
"o.o.` ! ! ] o.o.o.o.o.o.o.o.` ! ! ! ] o.o.o.o.o.o.o.] ! ! ` o.o.",
"o.o.V , , m o.o.o.o.o.o.o.o.k ; , , B o.o.o.o.o.o.o.m , , V o.o.",
"o.o.L -   p o.o.o.o.o.o.o.( 7       a o.o.o.o.o.o.o.a   - L o.o.",
"o.o.` 8   7 ( o.o.o.o.o.o.G & @ ,   5 / o.o.o.o.o.( 7   7 ( o.o.",
"o.o.o.k   - P o.o.o.o.o.o.v   ; k   % F o.o.o.o.o.L -   f o.o.o.",
"o.o.o.V     N o.o.o.o.o.] 0   w G -   x o.o.o.o.o.M     M o.o.o.",
"o.o.o.U ;   j o.o.o.o.o.U ;   c ` 7   t { o.o.o.o.j   - L o.o.o.",
"o.o.o.] 0   8 ` o.o.o.o.N   % F o.f   2 E o.o.o.` 8   7 ( o.o.o.",
"o.o.o.o.x   , E o.o.o.o.d   5 / o.V   @ Z o.o.o.E ,   f o.o.o.o.",
"o.o.o.o.S @ @ S o.o.o./ 5   d o.o.U ;   k o.o.o.S @   M o.o.o.o.",
"o.o.o.o.E 2   x o.o.o.F %   N o.o.` 8   8 ` o.o.x   - L o.o.o.o.",
"o.o.o.o.{ t   u { o.o.c   ; U o.o.o.k   ; U o.{ u   7 ( o.o.o.o.",
"o.o.o.o.o.v   5 / o.] 0   0 ] o.o.o.V     V o./ 5   f o.o.o.o.o.",
"o.o.o.o.o.G % % G o.U ;   x o.o.o.o.U ;   k o.G &   M o.o.o.o.o.",
"o.o.o.o.o./ 5   M o.N   % F o.o.o.o.] 8   w o.N   - P o.o.o.o.o.",
"o.o.o.o.o.o.p   d o.d   5 / o.o.o.o.o.z   2 ! f   7 ( o.o.o.o.o.",
"o.o.o.o.o.o.b   8 T 5   f o.o.o.o.o.o.S @ & D 0   f o.o.o.o.o.o.",
"o.o.o.o.o.o.P - ; b %   V o.o.o.o.o.o.E 2   k ;   M o.o.o.o.o.o.",
"o.o.o.o.o.o.( 7 @ 6   , U o.o.o.o.o.o.{ t   5 @ - L o.o.o.o.o.o.",
"o.o.o.o.o.o.o.f       t { o.o.o.o.o.o.o.c       7 ( o.o.o.o.o.o.",
"o.o.o.o.o.o.o.M       v o.o.o.o.o.o.o.o.S %     f o.o.o.o.o.o.o.",
"o.o.o.o.o.o.o.I i t u L o.o.o.o.o.o.o.o.! a t t Z o.o.o.o.o.o.o.",
"o.o.o.o.o.o.o.o.{ { { o.o.o.o.o.o.o.o.o.o.{ { { o.o.o.o.o.o.o.o.",
"o.o.o.o.o.o.o.o.o.o.o.o.o.o.o.o.o.o.o.o.o.o.o.o.o.o.o.o.o.o.o.o.",
"o.o.o.o.o.o.o.o.o.o.o.o.o.o.o.o.o.o.o.o.o.o.o.o.o.o.o.o.o.o.o.o.",
"o.o.o.o.o.o.o.o.o.o.o.o.o.o.o.o.o.o.o.o.o.o.o.o.o.o.o.o.o.o.o.o.",
"o.o.o.o.o.o.o.o.o.o.o.o.o.o.o.o.o.o.o.o.o.o.o.o.o.o.o.o.o.o.o.o.",
"o.o.o.o.o.o.o.o.o.o.o.o.o.o.o.o.o.o.o.o.o.o.o.o.o.o.o.o.o.o.o.o."
};
