/* XPM */
static const char *x92[] = {
/* columns rows colors chars-per-pixel */
"32 32 49 1",
"  c black",
". c #03E703E703E7",
"X c #056505650565",
"o c #05C205C205C2",
"O c #09F509F509F5",
"+ c #0AEA0AEA0AEA",
"@ c #101510151015",
"# c #11C811C811C8",
"$ c #173317331733",
"% c #273927392739",
"& c #29B629B629B6",
"* c #348D348D348D",
"= c #3DCE3DCE3DCE",
"- c #433643364336",
"; c #467B467B467B",
": c #57CF57CF57CF",
"> c #63A463A463A4",
", c #672C672C672C",
"< c #6D5D6D5D6D5D",
"1 c #716471647164",
"2 c #72B772B772B7",
"3 c #76CA76CA76CA",
"4 c #7FFF7FFF7FFF",
"5 c #893589358935",
"6 c #999799979997",
"7 c #9A6F9A6F9A6F",
"8 c #9C5B9C5B9C5B",
"9 c #AC63AC63AC63",
"0 c #B384B384B384",
"q c #B598B598B598",
"w c #BCC2BCC2BCC2",
"e c #C229C229C229",
"r c #C9C0C9C0C9C0",
"t c #CCF0CCF0CCF0",
"y c #D625D625D625",
"u c #E0E6E0E6E0E6",
"i c #E3FAE3FAE3FA",
"p c #E82DE82DE82D",
"a c #E98AE98AE98A",
"s c #EECDEECDEECD",
"d c #F0EDF0EDF0ED",
"f c #F3FEF3FEF3FE",
"g c #F4DDF4DDF4DD",
"h c #FAACFAACFAAC",
"j c #FC69FC69FC69",
"k c #FCE0FCE0FCE0",
"l c #FE4BFE4BFE4B",
"z c #FF0BFF0BFF0B",
"x c gray100",
/* pixels */
"xxxxxxxxxxxxxxxxxxxxxxxxxxxxxxxx",
"xxxxxxxxxxxxxxxxxxxxxxxxxxxxxxxx",
"xxxxxxxxxxxxxxxxxxxxxxxxxxxxxxxx",
"xxxxxxxxxxxxxxxxxxxxxxxxxxxxxxxx",
"xxxxxxxxxxxxpisxxxxxxxxxxxxxxxxx",
"xxxxxxxxxxxx<$1xxxxxxxxxxxxxxxxx",
"xxxxxxxxxxxx6 &pxxxxxxxxxxxxxxxx",
"xxxxxxxxxxxxt#Oqxxxxxxxxxxxxxxxx",
"xxxxxxxxxxxxf= 5xxxxxxxxxxxxxxxx",
"xxxxxxxxxxxxx3 -fxxxxxxxxxxxxxxx",
"xxxxxxxxxxxxxqo#txxxxxxxxxxxxxxx",
"xxxxxxxxxxxxxi% 6xxxxxxxxxxxxxxx",
"xxxxxxxxxxxxxx> :jxxxxxxxxxxxxxx",
"xxxxxxxxxxxxxx8 %ixxxxxxxxxxxxxx",
"xxxxxxxxxxxxxxy$oqxxxxxxxxxxxxxx",
"xxxxxxxxxxxxxxf- 3xxxxxxxxxxxxxx",
"xxxxxxxxxxxxxxx4 =fxxxxxxxxxxxxx",
"xxxxxxxxxxxxxxxwO#txxxxxxxxxxxxx",
"xxxxxxxxxxxxxxxp& 6xxxxxxxxxxxxx",
"xxxxxxxxxxxxxxxx> :xxxxxxxxxxxxx",
"xxxxxxxxxxxxxxxx6 %ixxxxxxxxxxxx",
"xxxxxxxxxxxxxxxxy$o9xxxxxxxxxxxx",
"xxxxxxxxxxxxxxxxg- 1xxxxxxxxxxxx",
"xxxxxxxxxxxxxxxxx5 *sxxxxxxxxxxx",
"xxxxxxxxxxxxxxxxxe++txxxxxxxxxxx",
"xxxxxxxxxxxxxxxxxf,-0xxxxxxxxxxx",
"xxxxxxxxxxxxxxxxxxjjjxxxxxxxxxxx",
"xxxxxxxxxxxxxxxxxxxxxxxxxxxxxxxx",
"xxxxxxxxxxxxxxxxxxxxxxxxxxxxxxxx",
"xxxxxxxxxxxxxxxxxxxxxxxxxxxxxxxx",
"xxxxxxxxxxxxxxxxxxxxxxxxxxxxxxxx",
"xxxxxxxxxxxxxxxxxxxxxxxxxxxxxxxx"
};
