/* XPM */
static const char *x93[] = {
/* columns rows colors chars-per-pixel */
"32 32 22 1",
"  c #000B000B000B",
". c #023A023A023A",
"X c #042504250425",
"o c #04C504C504C5",
"O c #158C158C158C",
"+ c #1E131E131E13",
"@ c #229122912291",
"# c #5B845B845B84",
"$ c #6ED06ED06ED0",
"% c #71C371C371C3",
"& c #81F881F881F8",
"* c gray51",
"= c #A17CA17CA17C",
"- c #B708B708B708",
"; c #BF9FBF9FBF9F",
": c #D6A5D6A5D6A5",
"> c #DB83DB83DB83",
", c #E1D6E1D6E1D6",
"< c #E273E273E273",
"1 c #E58FE58FE58F",
"2 c #F768F768F768",
"3 c gray100",
/* pixels */
"33333333333333333333333333333333",
"33333333333333333333333333333333",
"33333333333333333333333333333333",
"33333333333333333333333333333333",
"3333333333332,,,,,23333333333333",
"333333333333;@+++@;3333333333333",
"333333333333-o   o-3333333333333",
"333333333333>&&# o-3333333333333",
"333333333333333-oo-3333333333333",
"333333333333333-oo-3333333333333",
"333333333333333-oo-3333333333333",
"333333333333333-oo-3333333333333",
"333333333333333-oo-3333333333333",
"333333333333333-oo-3333333333333",
"333333333333333-oo-3333333333333",
"333333333333333-oo-3333333333333",
"333333333333333-oo-3333333333333",
"333333333333333-oo-3333333333333",
"333333333333333-oo-3333333333333",
"333333333333333-oo-3333333333333",
"333333333333333-oo-3333333333333",
"333333333333333-oo-3333333333333",
"333333333333333-oo-3333333333333",
"333333333333333-oo-3333333333333",
"333333333333333-oo-3333333333333",
"333333333333333-oo-3333333333333",
"333333333333333-oo-3333333333333",
"333333333333333-oo-3333333333333",
"3333333333332,1= o-3333333333333",
"333333333333:@+O o-3333333333333",
"333333333333=o   o-3333333333333",
"333333333333:%$$$%:3333333333333"
};
