/* XPM */
static const char *x97[] = {
/* columns rows colors chars-per-pixel */
"32 32 93 2",
"   c #000900090009",
".  c #00FB00FB00FB",
"X  c #020F020F020F",
"o  c #031F031F031F",
"O  c #071B071B071B",
"+  c #084F084F084F",
"@  c #0A150A150A15",
"#  c #0B1C0B1C0B1C",
"$  c #0BE20BE20BE2",
"%  c #0DCB0DCB0DCB",
"&  c #116111611161",
"*  c #143B143B143B",
"=  c #158015801580",
"-  c #172B172B172B",
";  c #1B5F1B5F1B5F",
":  c #1B9F1B9F1B9F",
">  c #1D701D701D70",
",  c #1E0C1E0C1E0C",
"<  c #1F001F001F00",
"1  c #20DF20DF20DF",
"2  c #233F233F233F",
"3  c #275527552755",
"4  c #286328632863",
"5  c #32A732A732A7",
"6  c #37CD37CD37CD",
"7  c #3B833B833B83",
"8  c #3C433C433C43",
"9  c #430C430C430C",
"0  c #44DF44DF44DF",
"q  c #46FC46FC46FC",
"w  c #47D347D347D3",
"e  c #492249224922",
"r  c #4C4B4C4B4C4B",
"t  c #587F587F587F",
"y  c #5AE05AE05AE0",
"u  c #608E608E608E",
"i  c #62BB62BB62BB",
"p  c #641B641B641B",
"a  c #655165516551",
"s  c #756375637563",
"d  c #76CA76CA76CA",
"f  c #7A417A417A41",
"g  c #7C2C7C2C7C2C",
"h  c #7F5E7F5E7F5E",
"j  c #819C819C819C",
"k  c #854885488548",
"l  c #862586258625",
"z  c #8EFD8EFD8EFD",
"x  c #934893489348",
"c  c #957E957E957E",
"v  c #99C499C499C4",
"b  c #9A919A919A91",
"n  c #9F7A9F7A9F7A",
"m  c #A1E9A1E9A1E9",
"M  c #A4FAA4FAA4FA",
"N  c #A680A680A680",
"B  c #A7F6A7F6A7F6",
"V  c #A892A892A892",
"C  c #AB6AAB6AAB6A",
"Z  c #ACF1ACF1ACF1",
"A  c #B0E4B0E4B0E4",
"S  c #B4FDB4FDB4FD",
"D  c #B75FB75FB75F",
"F  c #BC20BC20BC20",
"G  c #BD83BD83BD83",
"H  c #C33DC33DC33D",
"J  c #C3D1C3D1C3D1",
"K  c #CCD7CCD7CCD7",
"L  c #CD4DCD4DCD4D",
"P  c #D4ABD4ABD4AB",
"I  c #D6F6D6F6D6F6",
"U  c #DCACDCACDCAC",
"Y  c #E105E105E105",
"T  c #E1EBE1EBE1EB",
"R  c #E2F5E2F5E2F5",
"E  c #E3F3E3F3E3F3",
"W  c #E480E480E480",
"Q  c #EAA3EAA3EAA3",
"!  c #EBA8EBA8EBA8",
"~  c #EE41EE41EE41",
"^  c #F0C0F0C0F0C0",
"/  c #F251F251F251",
"(  c #F30DF30DF30D",
")  c #F3D4F3D4F3D4",
"_  c #F4CEF4CEF4CE",
"`  c #F7FEF7FEF7FE",
"'  c #F97BF97BF97B",
"]  c #FAE7FAE7FAE7",
"[  c #FBFBFBFBFBFB",
"{  c #FCD2FCD2FCD2",
"}  c #FDEEFDEEFDEE",
"|  c #FF23FF23FF23",
" . c gray100",
/* pixels */
" . . . . . . . . . . . . . . . . . . . . . . . . . . . . . . . .",
" . . . . . . . . . . . . . . . . . . . . . . . . . . . . . . . .",
" . . . . . . . . . . . . . . . . . . . . . . . . . . . . . . . .",
" . . . . . . . . . . . . . . . . . . . . . . . . . . . . . . . .",
" . . . . . . . . . . . . . . . . . . . . . . . . . . . . . . . .",
" . . . . . . . . . . . . . . . . . . . . . . . . . . . . . . . .",
" . . . . . . . . . . . . . . . . . . . . . . . . . . . . . . . .",
" . . . . . . . . . . . . . . . . . . . . . . . . . . . . . . . .",
" . . . . . . . . . . . . . . . . . . . . . . . . . . . . . . . .",
" . . . . . . . . . . . . . . . . . . . . . . . . . . . . . . . .",
" . . . . . . . . . . . .~ H b h h l S R  . . . . . . . . . . . .",
" . . . . . . . . . .[ M 6 %         O 3 c _  . . . . . . . . . .",
" . . . . . . . . . .b %     ; > ; +     + m  . . . . . . . . . .",
" . . . . . . . . .U 2   2 c P R U S y O   9 _  . . . . . . . . .",
" . . . . . . . . .C - + b  . . . . .R 3   > R  . . . . . . . . .",
" . . . . . . . . .^ P G ^  . . . . .[ q   > R  . . . . . . . . .",
" . . . . . . . . . . . . .[ _ R K A d -   > R  . . . . . . . . .",
" . . . . . . . . . . .U z y 8 > %         2 R  . . . . . . . . .",
" . . . . . . . . . .C 4         O + 4 -   > R  . . . . . . . . .",
" . . . . . . . . .K >   + 7 a j M H R q   > U  . . . . . . . . .",
" . . . . . . . . .d   - C ^  . . . .^ 8   2 R  . . . . . . . . .",
" . . . . . . . .[ w   9 _  . . . . .Z +   > R  . . . . . . . . .",
" . . . . . . . . .y   ; G  . . ._ Z 3     > U  . . . . . . . . .",
" . . . . . . . . .m     > u j f 9 +   O   % J  . . . . . . . . .",
" . . . . . . . . .Q r             + u f     M  . . . . . . . . .",
" . . . . . . . . . .Q l 8 > > 5 a A [ R u q b  . . . . . . . . .",
" . . . . . . . . . . . ._ R R ~  . . . . .[ [  . . . . . . . . .",
" . . . . . . . . . . . . . . . . . . . . . . . . . . . . . . . .",
" . . . . . . . . . . . . . . . . . . . . . . . . . . . . . . . .",
" . . . . . . . . . . . . . . . . . . . . . . . . . . . . . . . .",
" . . . . . . . . . . . . . . . . . . . . . . . . . . . . . . . .",
" . . . . . . . . . . . . . . . . . . . . . . . . . . . . . . . ."
};
