/* XPM */
static const char *x98[] = {
/* columns rows colors chars-per-pixel */
"32 32 91 1",
"  c #000100010001",
". c #011301130113",
"X c #01C301C301C3",
"o c #032803280328",
"O c #042404240424",
"+ c #048704870487",
"@ c #089908990899",
"# c #0A670A670A67",
"$ c #0CF60CF60CF6",
"% c #0DAE0DAE0DAE",
"& c #112B112B112B",
"* c #145B145B145B",
"= c #159115911591",
"- c #178517851785",
"; c #18FD18FD18FD",
": c #1CB81CB81CB8",
"> c #1E231E231E23",
", c #1EF31EF31EF3",
"< c #212721272127",
"1 c #22F322F322F3",
"2 c #273727372737",
"3 c #27ED27ED27ED",
"4 c #296029602960",
"5 c #2A582A582A58",
"6 c #337533753375",
"7 c #382738273827",
"8 c #392439243924",
"9 c #3D583D583D58",
"0 c #3FE43FE43FE4",
"q c #418D418D418D",
"w c #44C644C644C6",
"e c #4A674A674A67",
"r c #4E9A4E9A4E9A",
"t c #57CF57CF57CF",
"y c #585258525852",
"u c #5B0B5B0B5B0B",
"i c #5E835E835E83",
"p c #5FE75FE75FE7",
"a c #63A463A463A4",
"s c #641964196419",
"d c #65AB65AB65AB",
"f c #6E3B6E3B6E3B",
"g c #705070507050",
"h c #730873087308",
"j c #745974597459",
"k c #798579857985",
"l c #7CEB7CEB7CEB",
"z c #7ECE7ECE7ECE",
"x c #7FEA7FEA7FEA",
"c c #801180118011",
"v c #820C820C820C",
"b c #85C585C585C5",
"n c #861B861B861B",
"m c #893589358935",
"M c #8C528C528C52",
"N c #8F118F118F11",
"B c #9BE69BE69BE6",
"V c #9F7A9F7A9F7A",
"C c #A55DA55DA55D",
"Z c #A841A841A841",
"A c #ACBAACBAACBA",
"S c #B567B567B567",
"D c #B8C9B8C9B8C9",
"F c #BC57BC57BC57",
"G c #BE9ABE9ABE9A",
"H c gray78",
"J c #CC8FCC8FCC8F",
"K c #CE7FCE7FCE7F",
"L c #D653D653D653",
"P c #DBBBDBBBDBBB",
"I c #DE3DDE3DDE3D",
"U c #E11DE11DE11D",
"Y c #E1DCE1DCE1DC",
"T c #E2E5E2E5E2E5",
"R c #E3A5E3A5E3A5",
"E c #E568E568E568",
"W c #E8FAE8FAE8FA",
"Q c #EA71EA71EA71",
"! c #EE6BEE6BEE6B",
"~ c #EE8EEE8EEE8E",
"^ c #F0EDF0EDF0ED",
"/ c #F234F234F234",
"( c #F2D1F2D1F2D1",
") c #F3E5F3E5F3E5",
"_ c #F911F911F911",
"` c #FAC3FAC3FAC3",
"' c #FBF4FBF4FBF4",
"] c #FD06FD06FD06",
"[ c #FDFDFDFDFDFD",
"{ c #FF19FF19FF19",
"} c gray100",
/* pixels */
"}}}}}}}}}}}}}}}}}}}}}}}}}}}}}}}}",
"}}}}}}}}}}}}}}}}}}}}}}}}}}}}}}}}",
"}}}}}}}}}}}}}}}}}}}}}}}}}}}}}}}}",
"}}}}}}}}}}}}}}}}}}}}}}}}}}}}}}}}",
"}}}}}}}}}'EY(}}}}}}}}}}}}}}}}}}}",
"}}}}}}}}}E8;N}}}}}}}}}}}}}}}}}}}",
"}}}}}}}}}Y> l}}}}}}}}}}}}}}}}}}}",
"}}}}}}}}}Y> c}}}}}}}}}}}}}}}}}}}",
"}}}}}}}}}Y> c}}}}}}}}}}}}}}}}}}}",
"}}}}}}}}}Y> l}}}}}}}}}}}}}}}}}}}",
"}}}}}}}}}Y> c}IBlnF!}}}}}}}}}}}}",
"}}}}}}}}}Y> lZ4   #8G}}}}}}}}}}}",
"}}}}}}}}}Y> 0; &>&  1G}}}}}}}}}}",
"}}}}}}}}}Y>  OuHEJf% 8Q}}}}}}}}}",
"}}}}}}}}}Y>  d(}}}}l OB}}}}}}}}}",
"}}}}}}}}}Y> 1P}}}}}Y2 u}}}}}}}}}",
"}}}}}}}}}Y> t}}}}}}}d 6!}}}}}}}}",
"}}}}}}}}}Y> l}}}}}}}c >Y}}}}}}}}",
"}}}}}}}}}Y> l}}}}}}}l >Y}}}}}}}}",
"}}}}}}}}}Y> k}}}}}}}g 4Q}}}}}}}}",
"}}}}}}}}}Y> e'}}}}}(9 r'}}}}}}}}",
"}}}}}}}}}Y> *H}}}}}A# m}}}}}}}}}",
"}}}}}}}}}Y>  0L}}}S1 *J}}}}}}}}}",
"}}}}}}}}}Y> 1O1dcp* ON}}}}}}}}}}",
"}}}}}}}}}Y> jf     %j(}}}}}}}}}}",
"}}}}}}}}}Qi0C)n6>4tS'}}}}}}}}}}}",
"}}}}}}}}}}''}}}!IQ'}}}}}}}}}}}}}",
"}}}}}}}}}}}}}}}}}}}}}}}}}}}}}}}}",
"}}}}}}}}}}}}}}}}}}}}}}}}}}}}}}}}",
"}}}}}}}}}}}}}}}}}}}}}}}}}}}}}}}}",
"}}}}}}}}}}}}}}}}}}}}}}}}}}}}}}}}",
"}}}}}}}}}}}}}}}}}}}}}}}}}}}}}}}}"
};
