/* XPM */
static const char *x99[] = {
/* columns rows colors chars-per-pixel */
"32 32 84 1",
"  c #000200020002",
". c #017901790179",
"X c #023402340234",
"o c #030F030F030F",
"O c #039C039C039C",
"+ c #056805680568",
"@ c #097C097C097C",
"# c #0B7A0B7A0B7A",
"$ c #0D720D720D72",
"% c #0FD70FD70FD7",
"& c #117C117C117C",
"* c #140514051405",
"= c #158615861586",
"- c #1B461B461B46",
"; c #1C5C1C5C1C5C",
": c #1D621D621D62",
"> c #1E2D1E2D1E2D",
", c #21AB21AB21AB",
"< c #230223022302",
"1 c #273727372737",
"2 c #296029602960",
"3 c #318A318A318A",
"4 c #338D338D338D",
"5 c #382738273827",
"6 c #3AA93AA93AA9",
"7 c #3DD63DD63DD6",
"8 c #41C041C041C0",
"9 c #41FF41FF41FF",
"0 c #450045004500",
"q c #475147514751",
"w c #4CCD4CCD4CCD",
"e c #54BD54BD54BD",
"r c #57CF57CF57CF",
"t c #586758675867",
"y c #646E646E646E",
"u c #691169116911",
"i c #6D026D026D02",
"p c #705070507050",
"a c #712971297129",
"s c #74A974A974A9",
"d c #76CA76CA76CA",
"f c #799D799D799D",
"g c #7EEB7EEB7EEB",
"h c #7F7A7F7A7F7A",
"j c #816981698169",
"k c #850885088508",
"l c #8E728E728E72",
"z c #93E393E393E3",
"x c #986698669866",
"c c #99E499E499E4",
"v c #9AD69AD69AD6",
"b c #9E9A9E9A9E9A",
"n c #9F7A9F7A9F7A",
"m c #A7C4A7C4A7C4",
"M c #B2F0B2F0B2F0",
"N c #B866B866B866",
"B c #BC2CBC2CBC2C",
"V c #BDF4BDF4BDF4",
"C c #BE7FBE7FBE7F",
"Z c #C423C423C423",
"A c #C8DBC8DBC8DB",
"S c #CD16CD16CD16",
"D c #CD82CD82CD82",
"F c #DCEFDCEFDCEF",
"G c #DDFFDDFFDDFF",
"H c #E1D8E1D8E1D8",
"J c #E2E5E2E5E2E5",
"K c #E4D1E4D1E4D1",
"L c #E8B4E8B4E8B4",
"P c #EA2AEA2AEA2A",
"I c #EA6EEA6EEA6E",
"U c #EBE9EBE9EBE9",
"Y c #EE6BEE6BEE6B",
"T c #F14AF14AF14A",
"R c #F1C7F1C7F1C7",
"E c #F440F440F440",
"W c #F62EF62EF62E",
"Q c #F831F831F831",
"! c #FA87FA87FA87",
"~ c #FC38FC38FC38",
"^ c #FD37FD37FD37",
"/ c #FDD3FDD3FDD3",
"( c #FEF4FEF4FEF4",
") c gray100",
/* pixels */
"))))))))))))))))))))))))))))))))",
"))))))))))))))))))))))))))))))))",
"))))))))))))))))))))))))))))))))",
"))))))))))))))))))))))))))))))))",
"))))))))))))))))))))))))))))))))",
"))))))))))))))))))))))))))))))))",
"))))))))))))))))))))))))))))))))",
"))))))))))))))))))))))))))))))))",
"))))))))))))))))))))))))))))))))",
"))))))))))))))))))))))))))))))))",
")))))))))))))WDvgjmG))))))))))))",
"))))))))))))Zw&    <kT))))))))))",
")))))))))))C<  #>-+  d))))))))))",
"))))))))))I6 $yCJGv< =Z)))))))))",
"))))))))))b  g~))))N& f)))))))))",
"))))))))))r 2J)))))~bxD)))))))))",
")))))))))Y4 r)))))))))))))))))))",
")))))))))J> g)))))))))))))))))))",
")))))))))J> g)))))))))))))))))))",
")))))))))J< i))))))))~))))))))))",
")))))))))Wq 7W))))))zrlT))))))))",
"))))))))))d $C)))))I3 9T))))))))",
"))))))))))A= 6D)))Iu  v)))))))))",
"))))))))))~d  >ygp3  qY)))))))))",
")))))))))))Yi#      qF))))))))))",
"))))))))))))WMt2><9lI)))))))))))",
"))))))))))))))~KJJT)))))))))))))",
"))))))))))))))))))))))))))))))))",
"))))))))))))))))))))))))))))))))",
"))))))))))))))))))))))))))))))))",
"))))))))))))))))))))))))))))))))",
"))))))))))))))))))))))))))))))))"
};
