/* XPM */
static const char *blocked_xpm[]={
"16 16 3 1",
". c #000000",
"a c #ff0000",
"# c None",
".........#######",
".a#####a.#######",
".#a###a#.#######",
".##a#a##.#######",
".###a###.#######",
".##a#a##.#######",
".#a###a#.#######",
".a#####a.#######",
"..........######",
"########...#####",
"#########...####",
"##########...###",
"###########...##",
"############...#",
"#############...",
"##############.."};
