/* XPM */
static const char *close_xpm[]={
"16 16 74 2",
"Qt c None",
".c c #5a5c58",
".Z c #5c5e5b",
"#a c #5c5f5b",
".8 c #5c615b",
"#g c #5d5f5b",
"## c #5d605a",
".4 c #5d605b",
"#e c #5e5f5b",
".D c #5e5f5c",
".P c #5e605c",
".l c #5e605d",
"#h c #5e615b",
".Q c #5e615c",
".E c #5e615d",
".3 c #5f605a",
".i c #5f605c",
".u c #5f615c",
".b c #5f615e",
".d c #5f625c",
".z c #5f625d",
".h c #5f625e",
".v c #60615b",
".e c #60615e",
".m c #60625d",
".# c #60625e",
".q c #61625e",
".a c #61645f",
".9 c #7d807a",
"#d c #7e817b",
".7 c #80827b",
".j c #80837e",
".0 c #82847d",
".Y c #82857e",
"#f c #838680",
"#b c #848681",
".t c #848781",
".5 c #868983",
".r c #868984",
"#. c #878983",
".C c #888a85",
".A c #898c86",
".n c #898d86",
".2 c #8a8c86",
".K c #8a8d88",
".w c #8d9089",
".F c #8e908a",
".g c #8e918b",
".y c #8f928c",
".p c #8f928d",
".T c #91938e",
".R c #92948f",
".W c #949590",
".V c #949691",
".I c #959892",
".O c #959992",
".H c #969994",
".L c #979b95",
"#c c #b1b4ac",
".6 c #b4b7af",
".k c #b8bbb3",
".1 c #b9bcb4",
".X c #babdb5",
".s c #bdc0b8",
".U c #bdc1b9",
".S c #bfc3bb",
".B c #c1c4bc",
".J c #c3c6be",
".N c #c3c7bf",
".f c #c4c8c0",
".M c #c5c9c1",
".G c #cacec6",
".o c #cbcec6",
".x c #cdd1c9",
"QtQtQtQtQtQtQtQtQtQtQtQtQtQtQtQt",
"QtQtQtQtQtQtQtQtQtQtQtQtQtQtQtQt",
"QtQt.#.a.bQtQtQtQtQtQt.c.d.eQtQt",
"QtQt.e.f.g.hQtQtQtQt.i.j.k.lQtQt",
"QtQt.m.n.o.p.qQtQt.m.r.s.t.uQtQt",
"QtQtQt.v.w.x.y.z.u.A.B.C.DQtQtQt",
"QtQtQtQt.E.F.G.H.I.J.K.iQtQtQtQt",
"QtQtQtQtQt.E.L.M.N.O.PQtQtQtQtQt",
"QtQtQtQtQt.Q.R.B.S.T.DQtQtQtQtQt",
"QtQtQtQt.Q.t.U.V.W.X.Y.ZQtQtQtQt",
"QtQtQt.i.0.1.2.3.4.5.6.7.8QtQtQt",
"QtQt.l.9.6#.##QtQt#a#b#c#d.uQtQt",
"QtQt.u#c#.##QtQtQtQt#e#f#c#gQtQt",
"QtQt.m.m#hQtQtQtQtQtQt#h#e.mQtQt",
"QtQtQtQtQtQtQtQtQtQtQtQtQtQtQtQt",
"QtQtQtQtQtQtQtQtQtQtQtQtQtQtQtQt"};
