/* XPM */
static const char *comment_xpm[] = {
/* columns rows colors chars-per-pixel */
"16 16 101 2",
"   c black",
".  c #4F4115",
"X  c #5C4F2B",
"o  c #655930",
"O  c #665931",
"+  c #6A5F36",
"@  c #6C5F34",
"#  c #F6D236",
"$  c #F9DF39",
"%  c #FBE73B",
"&  c #FCE93B",
"*  c #FCEB3D",
"=  c #A69D59",
"-  c #A79E5A",
";  c #A89F5A",
":  c #A9A05A",
">  c #A9A05B",
",  c #AAA15C",
"<  c #ACA25D",
"1  c #ADA35F",
"2  c #ACA45E",
"3  c #AEA560",
"4  c #B0A561",
"5  c #B0A661",
"6  c #BAAF65",
"7  c #BEB366",
"8  c #BFB466",
"9  c #BBB168",
"0  c #EFB44D",
"q  c #F4B244",
"w  c #F7B544",
"e  c #F7B545",
"r  c #F2B64D",
"t  c #C0B567",
"y  c #C1B667",
"u  c #C2B869",
"i  c #C3B86A",
"p  c #C3BA6B",
"a  c #C4BB6C",
"s  c #C5BA6E",
"d  c #C5BC6E",
"f  c #C8BF6F",
"g  c #D7AE74",
"h  c #C7BE70",
"j  c #D2C26A",
"k  c #D3C36B",
"l  c #D4C46C",
"z  c #D6C66C",
"x  c #D7C76D",
"c  c #D6C66E",
"v  c #D7C76F",
"b  c #D8C86E",
"n  c #D9C96F",
"m  c #D8C870",
"M  c #D9C971",
"N  c #DACA70",
"B  c #DBCB71",
"V  c #DBCB73",
"C  c #DBCE73",
"Z  c #DDCD73",
"A  c #DCCE72",
"S  c #DACD77",
"D  c #DBCE77",
"F  c #DDCD75",
"G  c #DCCF74",
"H  c #DECE74",
"J  c #DFCF75",
"K  c #DED074",
"L  c #DED176",
"P  c #DFD277",
"I  c #DBD079",
"U  c #DCD079",
"Y  c #DCD17A",
"T  c #E0D276",
"R  c #E1D377",
"E  c #E1D479",
"W  c #E2D478",
"Q  c #E3D579",
"!  c #E2D57A",
"~  c #E3D67B",
"^  c #E4D77C",
"/  c #E5D87D",
"(  c #E6D87C",
")  c #E6D97E",
"_  c #E7D97F",
"`  c #E7DA7F",
"'  c #E8DB80",
"]  c #E9DC81",
"[  c #E9E19E",
"{  c #E5DEA0",
"}  c #EAE2A0",
"|  c #EBE3A8",
" . c #ECE3A9",
".. c #EDE4AA",
"X. c #EDE6AB",
"o. c #ECE5B1",
"O. c #ECE6B2",
"+. c #EFE9C0",
"@. c #F0EAC1",
"#. c #F0ECCB",
"$. c #F1EDCD",
/* pixels */
"                                ",
"  #.#.#.#.#.$.#.#.#.#.#.  % r   ",
"  #.j j l b m m m m H   * w O   ",
"  #.l l b m b m Z Z   * w @     ",
"  #.b b b b m H V   % q +   6   ",
"  #.l b b Z Z H   # 0 X   ^ S   ",
"  #.m m m Z H L   g O   ~ ~ S   ",
"  #.m Z K H H   .     ~ / ' H   ",
"  #.V K H J R     ~ ^ / _ ' U   ",
"  #.V Z H L L W W ~ ^ / / ' I   ",
"  #.H L R T W W W ^ / / ' ' U   ",
"  #.L U R R W W ^ / / ' ' ] U   ",
"  #.$.+.+.O.O.[ { | | | ....{   ",
"  = = : : : , 1 1 , 3 3 3 4 4   ",
"  8 8 t y i i i p s h h h j 9   ",
"                                "
};
