/* XPM */
static const char *copy_xpm[]={
"16 16 6 1",
". c None",
"# c #888a85",
"b c #babdb6",
"d c #bbbcb8",
"c c #eeeeec",
"a c #ffffff",
".########.......",
"#aaaaaaaa#......",
"#abbbbbba#......",
"#acccccca#......",
"#abbbbbba#......",
"#acccd########..",
"#abbb#aaaaaaaa#.",
"#accc#abbbbbba#.",
"#abbb#acccccca#.",
"#aaaa#abbbbbba#.",
".#####acccccca#.",
".....#abbbbbba#.",
".....#acccccca#.",
".....#abbbbcca#.",
".....#aaaaaaaa#.",
"......########.."};
