/* XPM */
static const char *helpabout_xpm[]={
"16 16 76 2",
"Qt c None",
"#j c #c4a001",
".# c #c5a101",
".G c #c5a102",
".t c #c6a202",
".n c #c6a203",
".f c #c7a403",
".a c #c7a404",
".3 c #c7a405",
".u c #c7a406",
".j c #c7a407",
".R c #c7a507",
"#. c #c8a508",
".9 c #c9a70b",
".F c #c9a80d",
".v c #c9a810",
".4 c #caa80c",
"#h c #ccac12",
"#f c #ccac14",
".e c #cdae1b",
".c c #cfb021",
".2 c #cfb11c",
".S c #d0b11f",
"#i c #d2b522",
".H c #d2b62f",
".Q c #d3b62c",
".b c #d9c04a",
".w c #e4ce4c",
".E c #e4ce4f",
"#e c #e7d041",
"#c c #e7d247",
".s c #e9d668",
".o c #ead86c",
".1 c #ebd755",
".5 c #ebd756",
".T c #ecd85a",
".i c #eedf83",
".g c #eedf85",
"#a c #f5e038",
".7 c #f6e132",
".L c #f6e235",
".K c #f6e349",
"## c #f6e664",
"#b c #f6e667",
".W c #f7e23a",
".6 c #f7e75f",
".P c #f7e981",
".X c #f8e33c",
".M c #f8e43e",
".Y c #f8e441",
".N c #f8e75a",
"#d c #f8e864",
".V c #f8e865",
".U c #f8ea7b",
".x c #f8eb8f",
".I c #f8ec88",
".q c #f9e644",
".z c #f9e74d",
".8 c #f9e96b",
".Z c #f9eb73",
".J c #f9ec7f",
".0 c #f9ed89",
".D c #f9ee9b",
"#g c #faeb71",
".l c #faec7c",
".O c #faed8b",
".A c #fbe74a",
".B c #fbe95c",
".y c #fbf097",
".p c #fcf2a6",
".C c #fcf3aa",
".k c #fcf7cf",
".r c #fdf6bc",
".m c #fdf8d1",
".d c #fdf9df",
".h c #fefcee",
"QtQtQtQtQtQtQt.#QtQtQtQtQtQtQtQt",
"QtQtQtQtQtQt.a.b.aQtQtQtQtQtQtQt",
"QtQtQtQtQtQt.c.d.eQtQtQtQtQtQtQt",
"QtQtQtQtQt.f.g.h.i.fQtQtQtQtQtQt",
"QtQtQtQtQt.j.k.l.m.nQtQtQtQtQtQt",
"QtQtQt.f.n.o.p.q.r.s.t.fQtQtQtQt",
"Qt.u.v.w.x.y.z.A.B.C.D.E.F.aQtQt",
".G.H.I.J.K.L.M.q.q.M.N.O.P.Q.GQt",
"Qt.R.S.T.U.V.W.X.Y.Z.0.1.2.3QtQt",
"QtQtQt.3.4.5.6.7.8.5.9.fQtQtQtQt",
"QtQtQtQtQt#.###a#b.aQtQtQtQtQtQt",
"QtQtQtQtQt.3#c#d#e.aQtQtQtQtQtQt",
"QtQtQtQtQtQt#f#g#hQtQtQtQtQtQtQt",
"QtQtQtQtQtQt.R#i.RQtQtQtQtQtQtQt",
"QtQtQtQtQtQtQt#jQtQtQtQtQtQtQtQt",
"QtQtQtQtQtQtQtQtQtQtQtQtQtQtQtQt"};
