/* XPM */
static const char * newarch_xpm[] = {
"16 16 13 1",
" 	c None",
".	c #3BC1FF",
"+	c #000000",
"@	c #FF6769",
"#	c #FF8183",
"$	c #FF9B9D",
"%	c #FFB5B7",
"&	c #FFD0D0",
"*	c #FFEAEA",
"=	c #FF3336",
"-	c #FF4D50",
";	c #FF191C",
">	c #FF0004",
"   .            ",
"   .            ",
"  ...+++++++++  ",
".......@#$%&*+  ",
"  ...=-++$%&*+  ",
"  +.;=+@#+%&*+  ",
"  +.;+-@#$+&*+  ",
"  +>;+-@#$+&*+  ",
"  +>;++++++&*+  ",
"  +>;+-@#$+&*+  ",
"  +>;+-@#$+&*+  ",
"  +>;+-@#$+&*+  ",
"  +>;=-@#$%&*+  ",
"  ++++++++++++  ",
"                ",
"                "};
