/* XPM */
static const char * procref_xpm[] = {
"16 16 86 1",
" 	c None",
".	c #000000",
"+	c #08FF42",
"@	c #1EFF51",
"#	c #34FF5F",
"$	c #49FF6F",
"%	c #5FFF7F",
"&	c #75FF8D",
"*	c #8BFF9D",
"=	c #A1FFAC",
"-	c #B7FFBA",
";	c #CCFFCA",
">	c #1CFF50",
",	c #33FF60",
"'	c #49FF6E",
")	c #5EFF7D",
"!	c #74FF8C",
"~	c #8AFF9C",
"{	c #A0FFAC",
"]	c #B6FFBA",
"^	c #CBFFCA",
"/	c #1BFF50",
"(	c #31FF5E",
"_	c #48FF6E",
":	c #73FF8C",
"<	c #89FF9C",
"[	c #9FFFAA",
"}	c #B5FFBA",
"|	c #CAFFC9",
"1	c #08FF43",
"2	c #1AFF4F",
"3	c #46FF6D",
"4	c #5DFF7C",
"5	c #88FF9B",
"6	c #9EFFAA",
"7	c #B4FFB9",
"8	c #CAFFC8",
"9	c #30FF5E",
"0	c #5BFF7C",
"a	c #72FF8B",
"b	c #88FF9A",
"c	c #9DFFAA",
"d	c #B3FFB9",
"e	c #C9FFC8",
"f	c #19FF4E",
"g	c #2FFF5D",
"h	c #45FF6C",
"i	c #5BFF7B",
"j	c #71FF8A",
"k	c #87FF99",
"l	c #9CFFA9",
"m	c #B2FFB8",
"n	c #C8FFC7",
"o	c #19FF4D",
"p	c #2EFF5D",
"q	c #44FF6C",
"r	c #5AFF7B",
"s	c #70FF8A",
"t	c #85FF99",
"u	c #9CFFA8",
"v	c #B1FFB7",
"w	c #17FF4D",
"x	c #2DFF5C",
"y	c #43FF6B",
"z	c #59FF7A",
"A	c #6FFF89",
"B	c #9BFFA8",
"C	c #C6FFC6",
"D	c #17FF4C",
"E	c #2DFF5B",
"F	c #42FF6A",
"G	c #59FF79",
"H	c #6EFF88",
"I	c #84FF98",
"J	c #9AFFA7",
"K	c #AFFFB6",
"L	c #C6FFC5",
"M	c #16FF4C",
"N	c #2CFF5B",
"O	c #41FF6A",
"P	c #58FF79",
"Q	c #6DFF88",
"R	c #83FF97",
"S	c #99FFA6",
"T	c #AFFFB5",
"U	c #C5FFC5",
"                ",
"                ",
"   ..........   ",
"  .+@#$%&*=-;.  ",
"  .+>,')!~{]^.  ",
"  .+/(_):<[}|.  ",
"  .12(34:5678.  ",
"  .+2930abcde.  ",
"  .+fghijklmn.  ",
"  .+opqrstuvn.  ",
"  .+wxyzAtBvC.  ",
"  .+DEFGHIJKL.  ",
"  .+MNOPQRSTU.  ",
"   ..........   ",
"                ",
"                "};
