/* XPM */
static const char * properties_xpm[] = {
"16 16 71 1",
" 	c None",
".	c #38AAAA",
"+	c #35A8A8",
"@	c #33A7A7",
"#	c #32A6A6",
"$	c #CBEDED",
"%	c #FCFEFE",
"&	c #E7F7F7",
"*	c #BBE7E7",
"=	c #42B0B0",
"-	c #30A5A5",
";	c #F9FDFD",
">	c #C0E9E9",
",	c #B6E5E5",
"'	c #B3E4E4",
")	c #AEE2E2",
"!	c #B1E3E3",
"~	c #95D8D8",
"{	c #F3FBFB",
"]	c #59BCBC",
"^	c #2DA3A3",
"/	c #F6FCFC",
"(	c #A7DFDF",
"_	c #A2DDDD",
":	c #67C3C3",
"<	c #3AABAB",
"[	c #2BA2A2",
"}	c #ACE1E1",
"|	c #A4DEDE",
"1	c #9DDBDB",
"2	c #5FBFBF",
"3	c #3DADAD",
"4	c #44B1B1",
"5	c #98D9D9",
"6	c #28A0A0",
"7	c #A9E0E0",
"8	c #9FDCDC",
"9	c #3CACAC",
"0	c #007C7C",
"a	c #53B9B9",
"b	c #76CACA",
"c	c #249D9D",
"d	c #279F9F",
"e	c #91D6D6",
"f	c #209A9A",
"g	c #9ADADA",
"h	c #83D0D0",
"i	c #E1F5F5",
"j	c #D6F1F1",
"k	c #1D9898",
"l	c #73C9C9",
"m	c #8AD3D3",
"n	c #199595",
"o	c #C3EAEA",
"p	c #B8E6E6",
"q	c #EAF8F8",
"r	c #108E8E",
"s	c #179494",
"t	c #2EA4A4",
"u	c #D3F0F0",
"v	c #129090",
"w	c #0C8B8B",
"x	c #7ACCCC",
"y	c #E4F6F6",
"z	c #169393",
"A	c #C6EBEB",
"B	c #4BB5B5",
"C	c #DEF4F4",
"D	c #85D1D1",
"E	c #0D8C8C",
"F	c #0A8989",
"  .++@@@#+      ",
" +$%%%%%&*=     ",
" -;>*,')!~{]    ",
" ^/*,!)(_:%{<   ",
" [{'}(|_12345[  ",
" 6{7_89003ab5c  ",
" d{_110*&e0a{f  ",
" c{8g1h0ije0;k  ",
" f{8l88m0>&0;n  ",
" k{903((ao&0;n  ",
" ki0p*0<)>qr's  ",
" n/tpuo>***&0v  ",
" s;_wxy&&&**y0  ",
" z;Ae9000B&>*C0 ",
" nA%%%%%jD0&**;0",
"  srrrEEEwF0;**;"};
