/* XPM */
static const char *undo_xpm[]={
"16 16 51 1",
". c None",
"z c #849201",
"W c #879201",
"M c #939000",
"y c #9c8b00",
"H c #9e8d00",
"# c #a08f00",
"N c #bca800",
"T c #c6b94c",
"v c #dcc500",
"R c #ebde7a",
"I c #f6ec9d",
"F c #fdf5af",
"w c #ffe611",
"V c #ffea39",
"B c #ffea3d",
"j c #ffec49",
"A c #ffec4b",
"u c #ffec4d",
"L c #ffed51",
"t c #ffef65",
"G c #fff06d",
"k c #fff06f",
"U c #fff071",
"q c #fff17b",
"S c #fff181",
"e c #fff281",
"l c #fff287",
"C c #fff290",
"P c #fff38b",
"p c #fff49b",
"Q c #fff49f",
"D c #fff4a2",
"n c #fff59d",
"r c #fff59f",
"m c #fff5a1",
"s c #fff5a5",
"J c #fff5ab",
"E c #fff5ad",
"O c #fff6a7",
"f c #fff6a9",
"K c #fff7af",
"x c #fff7b5",
"b c #fff8bd",
"d c #fff8bf",
"c c #fff9c5",
"a c #fff9c9",
"h c #fffacd",
"o c #fffad3",
"g c #fffbd5",
"i c #fffbd7",
"......#.........",
".....##.........",
"....#a#.........",
"...#bc####......",
"..#defghij#.....",
".#bkkklmnof#....",
"#pkkkkkqrsgt#...",
".#uvvvvvvwxdyz..",
"..#AvBCCDEFdG#..",
"...#AB###HIJK#..",
"....#L#..MNDO#..",
".....##...#EP#..",
"......#...#QR#..",
"..........#ST...",
".........#UV#...",
".........W##...."};
