/* XPM */
static const char * archref_xpm[]={
"16 16 12 1",
". c None",
"# c #000000",
"a c #ff0004",
"b c #ff191c",
"c c #ff3336",
"d c #ff4d50",
"e c #ff6769",
"f c #ff8183",
"g c #ff9b9d",
"h c #ffb5b7",
"i c #ffd0d0",
"j c #ffeaea",
"................",
"................",
"..############..",
"..#abcdefghij#..",
"..#abcdefghij#..",
"..#abcdefghij#..",
"..#abcdefghij#..",
"..#abcdefghij#..",
"..#abcdefghij#..",
"..#abcdefghij#..",
"..#abcdefghij#..",
"..#abcdefghij#..",
"..#abcdefghij#..",
"..############..",
"................",
"................"};
