/* XPM */
static const char *cut_xpm[]={
"16 16 120 2",
"Qt c None",
".# c #888a85",
".b c #898b85",
".d c #898b86",
".c c #898c85",
".a c #8a8c88",
".3 c #8b8d88",
".t c #8c8e88",
".m c #8c8e89",
".2 c #8c908a",
"#j c #8e7872",
"#k c #8e817b",
".B c #8e8f8a",
".u c #8e908b",
".l c #949692",
".1 c #959790",
".U c #959792",
".O c #959793",
".g c #979993",
".J c #9b9c99",
"#a c #9c9591",
".C c #9c9d99",
".T c #9f9f9b",
".P c #9fa19e",
".K c #a0a29d",
"## c #a1a29e",
"#l c #a30303",
"#c c #a40000",
"#y c #a40101",
"#b c #a40404",
".8 c #a40505",
"#. c #a4a5a0",
"#x c #a50000",
"#E c #a50101",
"#P c #a50202",
"#z c #a50404",
".7 c #a60101",
"#v c #a60707",
"#d c #a70101",
".6 c #a70202",
"#G c #a70303",
"#A c #a70505",
"#D c #a80202",
"#u c #a80505",
"#S c #a90202",
".W c #a9a9a6",
".Y c #a9aaa6",
".G c #a9aba9",
"#r c #aa0202",
"#M c #aa0303",
".9 c #ab9793",
".Z c #ababa7",
"#Y c #ac0c0c",
"#X c #ad0c0c",
".y c #adafab",
"#e c #b10f0f",
".p c #b1b1ad",
"#q c #b21010",
".i c #b2b3b0",
".e c #b2b4b0",
".f c #b4b6b3",
".q c #b5b6b2",
".j c #b6b6b3",
"#1 c #b91515",
"#T c #ba1717",
"#J c #bd1919",
"#Q c #be1c1c",
"#K c #c02222",
"#O c #c32424",
"#B c #c82121",
"#t c #ca2424",
".0 c #cdcdc9",
".V c #d1d0cd",
".A c #d2d1cd",
".v c #d3d2ce",
"#i c #d43030",
".S c #dbdad6",
"#N c #dd3f3f",
".L c #dddbd8",
"#L c #de4040",
"#Z c #df3f3f",
"#W c #e04040",
".D c #e0dfdb",
".I c #e4e1dd",
".R c #e4e2de",
"#m c #e57b7b",
".E c #e5e2de",
".M c #e5e3df",
"#C c #e64343",
"#f c #e64545",
"#R c #e74646",
"#I c #e84646",
"#p c #e84747",
".z c #e8e6e2",
".w c #e9e7e3",
".5 c #e9e9e7",
"#U c #ea4b4b",
".4 c #eaeae8",
"#H c #ec4d4d",
"#g c #ee4f4f",
"#0 c #ee5050",
"#s c #ee8585",
".s c #eeeeeb",
".n c #efeeec",
"#F c #f05151",
"#h c #f05252",
".N c #f0f0ef",
".X c #f0f1f0",
"#V c #f15252",
"#w c #f15353",
".Q c #f1f0ef",
"#o c #f25151",
"#n c #f25454",
".F c #f7f7f6",
".H c #f8f7f6",
".x c #f9f9f8",
".o c #fafaf9",
".r c #fafafa",
".h c #fbfbfa",
".k c #fbfbfb",
"Qt.#.aQtQtQtQtQtQtQtQtQtQt.b.cQt",
"Qt.d.eQtQtQtQtQtQtQtQtQtQt.f.dQt",
"Qt.g.h.iQtQtQtQtQtQtQtQt.j.k.lQt",
"Qt.m.n.o.pQtQtQtQtQtQt.q.r.s.tQt",
"Qt.u.v.w.x.yQtQtQtQt.i.x.z.A.BQt",
"QtQt.C.D.E.F.GQtQt.e.H.I.D.JQtQt",
"QtQtQt.K.L.M.N.O.P.Q.R.S.TQtQtQt",
"QtQtQtQt.U.V.W.X.Y.Z.0.1QtQtQtQt",
"QtQtQtQtQt.2.3.4.5.3.uQtQtQtQtQt",
"QtQt.6.7.7.8.9#.###a#b#c#c#dQtQt",
"Qt#e#f#g#h#i#c#j#k#l#m#n#o#p#qQt",
"#r#s#t#u#v#w#xQtQt#y#w#z#A#B#C#D",
"#E#F#GQt#z#H#dQtQt.6#H#zQt#G#F#E",
"#D#I#J#y#K#L#MQtQt#M#N#O#P#Q#R#S",
"Qt#T#U#V#W#XQtQtQtQt#Y#Z#0#p#1Qt",
"Qt.6.6#c#rQtQtQtQtQtQt#r#E#D.6Qt"};
