/* XPM */
static const char *exit_xpm[]={
"16 16 52 1",
". c None",
"e c #070f00",
"i c #0d1c00",
"f c #132800",
"o c #182d06",
"j c #183300",
"p c #214106",
"r c #223e08",
"s c #2a4f07",
"w c #2b4e0d",
"# c #2e3436",
"x c #2f560d",
"A c #325910",
"F c #365b18",
"B c #38660e",
"H c #395e19",
"K c #3a6217",
"M c #3b6518",
"G c #3c6c13",
"Q c #3e641e",
"I c #3f7015",
"L c #416e19",
"T c #436e1f",
"N c #447519",
"R c #467423",
"U c #4b7a22",
"S c #4b7e1f",
"V c #4e7e25",
"W c #507e2a",
"X c #507f2b",
"z c #5b5b5a",
"E c #6c6c6a",
"P c #76797a",
"y c #797977",
"g c #a40000",
"v c #a4a4a2",
"d c #adadab",
"D c #b40000",
"h c #b7b7b5",
"n c #b9b9b7",
"u c #bdbdbb",
"c c #c0c0bd",
"m c #c1c1be",
"t c #cc0000",
"q c #d0d0cd",
"b c #d3d3d0",
"J c #d4d4d1",
"l c #dededc",
"O c #e0e0de",
"a c #e2e2e0",
"C c #ef2929",
"k c #fb8282",
"................",
".....##########.",
".....#abcda#ef#.",
"...gg#abcha#ij#.",
"...gkglbmna#op#.",
"ggggkkgqmna#rs#.",
"gkkkktkguva#wx#.",
"gktttttkgyz#AB#.",
"gCDDDDDCgEa#FG#.",
"gCCCCDCgmna#HI#.",
"ggggCCgJmna#KL#.",
"...gCgaJmaa#MN#.",
"...gg#OaaP#QRS#.",
".....#aP#TUVWX#.",
".....##########.",
"................"};
