/* XPM */
static const char * grape_xpm[] = {
"32 32 196 2",
"  	c None",
". 	c #DEDEDE",
"+ 	c #969696",
"@ 	c #555555",
"# 	c #E7E7E7",
"$ 	c #E9E9E9",
"% 	c #C8C8C8",
"& 	c #E4E4E4",
"* 	c #EAEAEA",
"= 	c #6A6A6A",
"- 	c #5C5C5C",
"; 	c #D7D7D7",
"> 	c #B5B5B5",
", 	c #464646",
"' 	c #101010",
") 	c #404040",
"! 	c #B0B0B0",
"~ 	c #9E9E9E",
"{ 	c #8E8E8E",
"] 	c #BEBEBE",
"^ 	c #454545",
"/ 	c #696969",
"( 	c #949494",
"_ 	c #626262",
": 	c #3B3B3B",
"< 	c #A1A1A1",
"[ 	c #929292",
"} 	c #919191",
"| 	c #A7A7A7",
"1 	c #595959",
"2 	c #4B4B4B",
"3 	c #A0A0A0",
"4 	c #ADADAD",
"5 	c #646464",
"6 	c #484848",
"7 	c #878787",
"8 	c #737373",
"9 	c #AFAFAF",
"0 	c #4C4C4C",
"a 	c #202020",
"b 	c #717171",
"c 	c #6E6E6E",
"d 	c #7E7E7E",
"e 	c #565656",
"f 	c #838383",
"g 	c #8A8A8A",
"h 	c #6B6B6B",
"i 	c #D2D2D2",
"j 	c #323232",
"k 	c #AAAAAA",
"l 	c #D5D5D5",
"m 	c #535353",
"n 	c #B1B1B1",
"o 	c #747474",
"p 	c #8C8C8C",
"q 	c #8B8B8B",
"r 	c #7A7A7A",
"s 	c #666666",
"t 	c #E8E8E8",
"u 	c #9B9B9B",
"v 	c #3F3F3F",
"w 	c #DBDBDB",
"x 	c #BCBCBC",
"y 	c #474747",
"z 	c #5E5E5E",
"A 	c #353535",
"B 	c #262626",
"C 	c #333333",
"D 	c #6C6C6C",
"E 	c #A5A5A5",
"F 	c #999999",
"G 	c #828282",
"H 	c #494949",
"I 	c #707070",
"J 	c #9C9C9C",
"K 	c #909090",
"L 	c #E3E3E3",
"M 	c #727272",
"N 	c #515151",
"O 	c #4E4E4E",
"P 	c #979797",
"Q 	c #9F9F9F",
"R 	c #242424",
"S 	c #6F6F6F",
"T 	c #E0E0E0",
"U 	c #616161",
"V 	c #F1F1F1",
"W 	c #D4D4D4",
"X 	c #373737",
"Y 	c #CFCFCF",
"Z 	c #D6D6D6",
"` 	c #E5E5E5",
" .	c #B8B8B8",
"..	c #959595",
"+.	c #E1E1E1",
"@.	c #343434",
"#.	c #808080",
"$.	c #DDDDDD",
"%.	c #434343",
"&.	c #B3B3B3",
"*.	c #A6A6A6",
"=.	c #EEEEEE",
"-.	c #CBCBCB",
";.	c #7F7F7F",
">.	c #898989",
",.	c #575757",
"'.	c #1B1B1B",
").	c #313131",
"!.	c #8D8D8D",
"~.	c #383838",
"{.	c #0D0D0D",
"].	c #2E2E2E",
"^.	c #686868",
"/.	c #DADADA",
"(.	c #393939",
"_.	c #4D4D4D",
":.	c #252525",
"<.	c #A9A9A9",
"[.	c #858585",
"}.	c #777777",
"|.	c #D0D0D0",
"1.	c #C7C7C7",
"2.	c #B2B2B2",
"3.	c #A8A8A8",
"4.	c #D1D1D1",
"5.	c #C5C5C5",
"6.	c #CDCDCD",
"7.	c #7C7C7C",
"8.	c #DFDFDF",
"9.	c #C0C0C0",
"0.	c #F2F2F2",
"a.	c #363636",
"b.	c #121212",
"c.	c #1D1D1D",
"d.	c #0F0F0F",
"e.	c #131313",
"f.	c #7D7D7D",
"g.	c #BDBDBD",
"h.	c #ECECEC",
"i.	c #868686",
"j.	c #939393",
"k.	c #636363",
"l.	c #2A2A2A",
"m.	c #656565",
"n.	c #161616",
"o.	c #7B7B7B",
"p.	c #848484",
"q.	c #C3C3C3",
"r.	c #181818",
"s.	c #2C2C2C",
"t.	c #D8D8D8",
"u.	c #4F4F4F",
"v.	c #3D3D3D",
"w.	c #767676",
"x.	c #5B5B5B",
"y.	c #B6B6B6",
"z.	c #C6C6C6",
"A.	c #5F5F5F",
"B.	c #2B2B2B",
"C.	c #545454",
"D.	c #B7B7B7",
"E.	c #525252",
"F.	c #818181",
"G.	c #676767",
"H.	c #989898",
"I.	c #757575",
"J.	c #787878",
"K.	c #D3D3D3",
"L.	c #3A3A3A",
"M.	c #585858",
"N.	c #8F8F8F",
"O.	c #9D9D9D",
"P.	c #ACACAC",
"Q.	c #6D6D6D",
"R.	c #EBEBEB",
"S.	c #414141",
"T.	c #424242",
"U.	c #D9D9D9",
"V.	c #9A9A9A",
"W.	c #CECECE",
"X.	c #212121",
"Y.	c #444444",
"Z.	c #BFBFBF",
"`.	c #606060",
" +	c #BABABA",
".+	c #E6E6E6",
"++	c #1A1A1A",
"@+	c #303030",
"#+	c #A2A2A2",
"$+	c #5A5A5A",
"%+	c #272727",
"&+	c #FCFCFC",
"*+	c #050505",
"=+	c #A4A4A4",
"-+	c #DCDCDC",
";+	c #040404",
"                                                                ",
"                                                                ",
"                                                                ",
"      .                                                         ",
"    + @ #               $ % &                                   ",
"  * = - ;             > , ' ) !                                 ",
"    ~ { ]           * ^ / ( _ : .                               ",
"    < [ }           | 1       2 3                               ",
"4 5 6 7 8       9 0 a b       c d                               ",
"e f ~ g h |   i j ^ 5 b ( k l m : n                             ",
"o < p q r s t u v w   x y z A B C a 4                           ",
"_ / D E F G z H I       J   K 5 L M N                           ",
"} O K   P Q A R S       ~   T U V W X Y                         ",
"Z K     ` U R  .+ ..+.F k L d @.#.$.%.&.                        ",
"  ( *.  ` s 5 =.t ( - %.-.;.>.T q ,.'.).I .                     ",
"  4 q !.~.{.].^.D 3 7 6 1 @./.    (.(._.:.o                     ",
"  <.c v [.}.O |.; c b #   >.}     z 1.  2.: 3.4.  5.6.          ",
"    g 7.  2.[     *.Q     8.I   9.X M & 0.a.b.c.C d.e.f         ",
"    f.E   g.3.    9 |     h._.i.S n j.!.. k.Q { l.d m.n.5.      ",
"    + #.  i o.    p.c     q.r.s.3.    i.j.*.    ..i   N ;.      ",
"    t.u.I k.v.w.I }.k.d | P x._.|.    m a }.t   y.z.  K e.A.l   ",
"       .5 B.  4 C.    U k.`   k p   D.E.F.^.G.  ~ Q   + D E.z   ",
"        % ,   T z     } H.      ,.I.X 3.    / 7.s m.J.b K.9.a   ",
"        w L.g.  M.9   ;.N.      }.] I.3.    O.6 P.  h Q.  R.).  ",
"          }.%.7.S.^ O T.x.    Q q   U.(     } V.    &.p   W.X.  ",
"          t.).c n ] Y.y.7 / G.C.;     G $.P.u.*.     .G.Z.`.).  ",
"            O  +    : d ` ^.7.g 8.  y.: @ U C.U & .+= b.++@+#+  ",
"            r $+5.F l.%+l.O &+P.z h ].- L 8.M.*+X a.~.=+g.-+    ",
"            ; m.: O =+; + X M.e b.++%.r.y ^ ;+S w.c g.          ",
"                +.        ! 5 8 D.Z   u S._.F                   ",
"                                                                ",
"                                                                "};
