/* XPM */
static const char *helpcontents_xpm[]={
"16 16 104 2",
"Qt c None",
".b c #888a85",
".a c #898b86",
".e c #8a8c87",
".# c #8d8f8a",
".c c #8f918c",
"#h c #a11c1b",
"#e c #a21b1b",
".R c #a2837f",
".C c #a32827",
".w c #a37a77",
"#I c #a47c79",
".x c #a47e7b",
"#b c #a47f7b",
".H c #a52927",
"#J c #a57b78",
".P c #a62a29",
".Y c #a6827e",
"#k c #a68481",
".U c #ab1010",
".B c #b17977",
"#m c #b21c1c",
"#w c #b27774",
"#t c #b32020",
"#x c #b32221",
"#C c #b52626",
".I c #b57d7b",
".1 c #b68885",
"#D c #b77b79",
".8 c #b79693",
"#f c #b89490",
".V c #b99390",
"#. c #ba8d8b",
"#g c #ba9694",
".M c #baa6a2",
".7 c #baa8a5",
".0 c #baa9a6",
".h c #babdb6",
".5 c #bba6a3",
"## c #bcaeab",
".4 c #bd9896",
"#p c #bfaeab",
"#q c #c0afac",
".g c #c0c3bc",
".i c #c2c4be",
".v c #c5aba8",
"#H c #c5ada9",
".J c #c6aba8",
"#l c #c6aca8",
".y c #cab1ae",
"#K c #cdb3b1",
".Q c #d0b4b2",
"#u c #d0b5b3",
".D c #d69392",
".S c #d78f8e",
".G c #d79c9b",
".X c #dba4a2",
".f c #dee1db",
".k c #dfe2dc",
"#c c #e09392",
".t c #e0e3dd",
".A c #e1e3de",
"#F c #e2e4df",
"#v c #e2e5e0",
"#j c #e39e9d",
".l c #e3e5e0",
".u c #e4e6e1",
"#y c #e6aaa9",
"#G c #e6e8e4",
".m c #e6e9e4",
"#B c #eab8b7",
".j c #eaece8",
".L c #eb5757",
".N c #eb5c5c",
".T c #ec5757",
"#d c #ec8c8c",
".s c #ecedea",
".W c #ed5f5f",
"#i c #eda7a7",
".n c #edeeeb",
".z c #edefec",
"#o c #ee9897",
".E c #eeeeec",
".F c #eeeeed",
".r c #eef0ed",
"#r c #efb2b1",
".o c #eff0ed",
".K c #f08686",
".O c #f09f9f",
".Z c #f0f0ee",
".q c #f0f1ee",
".p c #f0f1ef",
"#L c #f1f2f0",
".6 c #f2f2f1",
"#E c #f2f3f0",
".2 c #f4f5f3",
"#a c #f5f5f4",
"#n c #f69090",
".3 c #f8f8f7",
"#z c #f8f8f8",
".9 c #f8f9f8",
"#s c #f9b1b1",
"#A c #fafaf9",
".d c #ffffff",
"Qt.#.a.b.b.b.b.b.b.b.b.b.b.a.cQt",
"Qt.a.d.d.d.d.d.d.d.d.d.d.d.d.eQt",
"Qt.b.d.f.g.h.h.h.h.h.h.i.j.d.bQt",
"Qt.b.d.k.l.m.j.n.o.p.q.r.s.d.bQt",
"Qt.b.d.t.u.v.w.#.#.x.y.p.z.d.bQt",
"Qt.b.d.A.B.C.D.E.F.G.H.I.o.d.bQt",
"Qt.b.d.J.C.K.L.M.M.N.O.P.Q.d.bQt",
"Qt.b.d.R.S.T.U.V.V.U.W.X.Y.d.bQt",
"Qt.b.d.#.Z.0.1.2.3.4.5.6.#.d.bQt",
"Qt.b.d.#.6.7.8.2.9#.###a.#.d.bQt",
"Qt.b.d#b#c#d#e#f#g#h#i#j#k.d.bQt",
"Qt.b.d#l#m#n#o#p#q#r#s#t#u.d.bQt",
"Qt.b.d#v#w#x#y#z#A#B#C#D#E.d.bQt",
"Qt.b.d#F#G#H#I.#.##J#K.2#L.d.bQt",
"Qt.a.d.d.d.d.d.d.d.d.d.d.d.d.eQt",
"Qt.#.a.b.b.b.b.b.b.b.b.b.b.a.cQt"};
