/* XPM */
static const char * initdes_xpm[] = {
"16 16 3 1",
" 	c None",
".	c #000000",
"+	c #3627FF",
"      ...       ",
"      .+.       ",
"      .+.       ",
"      .+.       ",
"      .+.       ",
"      .+.       ",
"      .+.       ",
"      .+.       ",
"      .+.       ",
"  ..  .+.  ..   ",
"  .+. .+. .+.   ",
"   .+..+..+.    ",
"    .+.+.+.     ",
"     .+++.      ",
"      .+.       ",
"       .        "};
