/* XPM */
static const char * newproc_xpm[] = {
"16 16 70 1",
" 	c None",
".	c #3BC1FF",
"+	c #000000",
"@	c #5FFF7F",
"#	c #75FF8D",
"$	c #8BFF9D",
"%	c #A1FFAC",
"&	c #B7FFBA",
"*	c #CCFFCA",
"=	c #33FF60",
"-	c #49FF6E",
";	c #5EFF7D",
">	c #74FF8C",
",	c #8AFF9C",
"'	c #A0FFAC",
")	c #B6FFBA",
"!	c #CBFFCA",
"~	c #1BFF50",
"{	c #31FF5E",
"]	c #9FFFAA",
"^	c #B5FFBA",
"/	c #CAFFC9",
"(	c #1AFF4F",
"_	c #5DFF7C",
":	c #73FF8C",
"<	c #9EFFAA",
"[	c #B4FFB9",
"}	c #CAFFC8",
"|	c #08FF42",
"1	c #30FF5E",
"2	c #5BFF7C",
"3	c #72FF8B",
"4	c #9DFFAA",
"5	c #B3FFB9",
"6	c #C9FFC8",
"7	c #19FF4E",
"8	c #2FFF5D",
"9	c #9CFFA9",
"0	c #B2FFB8",
"a	c #C8FFC7",
"b	c #19FF4D",
"c	c #2EFF5D",
"d	c #5AFF7B",
"e	c #70FF8A",
"f	c #85FF99",
"g	c #9CFFA8",
"h	c #B1FFB7",
"i	c #17FF4D",
"j	c #2DFF5C",
"k	c #59FF7A",
"l	c #6FFF89",
"m	c #9BFFA8",
"n	c #C6FFC6",
"o	c #17FF4C",
"p	c #2DFF5B",
"q	c #59FF79",
"r	c #6EFF88",
"s	c #84FF98",
"t	c #9AFFA7",
"u	c #AFFFB6",
"v	c #C6FFC5",
"w	c #16FF4C",
"x	c #2CFF5B",
"y	c #41FF6A",
"z	c #58FF79",
"A	c #6DFF88",
"B	c #83FF97",
"C	c #99FFA6",
"D	c #AFFFB5",
"E	c #C5FFC5",
"   .            ",
"   .            ",
"  ...+++++++++  ",
".......@#$%&*+  ",
"  ...=-;>,')!+  ",
"  +.~{++++]^/+  ",
"  +.({+_:+<[}+  ",
"  +|(1+23+456+  ",
"  +|78++++90a+  ",
"  +|bc+defgha+  ",
"  +|ij+klfmhn+  ",
"  +|op+qrstuv+  ",
"  +|wxyzABCDE+  ",
"  ++++++++++++  ",
"                ",
"                "};
