/* XPM */
static const char *open_xpm[]={
"16 16 68 2",
".b c None",
".L c #4c4e4a",
".M c #4d4f4b",
"#a c #4e504d",
".K c #4f514d",
"## c #50524e",
".# c #555753",
"#b c #575955",
".N c #585a56",
".O c #626460",
".u c #64665e",
".k c #666863",
".a c #696b67",
"Qt c #6a6c68",
".v c #6d6f65",
".I c #7b7d6b",
".G c #818470",
".W c #878981",
".y c #8a8d78",
".z c #8c8f7b",
".n c #8f917e",
".m c #8f927e",
".E c #909283",
".o c #929481",
".B c #989a8c",
".i c #999b86",
".h c #9a9c87",
".g c #9a9d88",
".P c #9c9d90",
".t c #9d9f91",
".q c #a2a493",
".r c #a3a495",
".s c #a3a596",
".F c #a7a996",
".p c #a9aa9a",
".H c #aaae9a",
".C c #aeb09e",
".Z c #afb099",
".j c #afb09f",
".0 c #b0b19a",
".x c #b0b2a0",
".J c #b1b1ad",
".3 c #b1b29b",
"#. c #b2b3a6",
".l c #b3b5a3",
".e c #b9baac",
".f c #bbbdaa",
".D c #bebebc",
".5 c #bebfae",
".9 c #bebfaf",
".7 c #bfc0ae",
".8 c #bfc0af",
".6 c #c0c1af",
".4 c #c0c1b5",
".c c #c1c3b2",
".Y c #c3c4b3",
".Q c #c3c4b7",
".d c #c3c5b5",
".V c #c9cabb",
".U c #caccbe",
".T c #cbcdbe",
".S c #cfd0c2",
".2 c #cfd1c2",
".X c #d0d1c3",
".1 c #d0d1c4",
".R c #d1d2c4",
".A c #eeeeec",
".w c #ffffff",
"Qt.#.#.#.#.#.a.b.b.b.b.b.b.b.b.b",
".#.c.d.d.d.e.#.b.b.b.b.b.b.b.b.b",
".#.f.g.h.i.j.#.#.#.#.#.#.#.#.k.b",
".#.l.m.m.n.o.p.q.r.s.s.s.s.t.#.b",
".#.l.m.m.u.#.#.#.#.#.#.#.v.t.#.b",
".#.l.m.m.#.w.w.w.w.w.w.w.#.t.#.b",
".#.x.y.z.#.w.A.A.A.A.A.w.#.B.#.b",
".#.C.y.y.#.w.D.D.D.D.D.w.#.E.#.b",
".#.F.G.G.#.w.A.A.A.A.A.w.#.E.#.b",
".#.H.I.I.#.w.J.K.L.L.L.L.L.M.N.N",
".#.O.M.M.M.M.P.Q.R.R.S.T.U.V.W.#",
".#.X.S.S.S.S.S.Y.Z.0.0.0.0.0.1.#",
".#.2.3.3.3.3.3.3.3.3.3.3.3.Z.4.#",
".#.5.6.7.7.7.6.6.8.8.8.7.7.9#..#",
".k#####a#a#a#a#a#a#a#######a#b.b",
".b.b.b.b.b.b.b.b.b.b.b.b.b.b.b.b"};
