/* XPM */
static const char *paste_xpm[]={
"16 16 71 2",
"Qt c None",
".i c #2c2d2c",
".b c #2d261a",
".# c #2e3436",
".f c #3b2d17",
".h c #7b7970",
"#e c #888373",
".v c #888a85",
".t c #8b7652",
".a c #8f5902",
".u c #9c937f",
".F c #a0a29e",
".G c #a1a4a0",
".m c #a29b8d",
".H c #a3a5a1",
".I c #a5a6a3",
".J c #a6a8a4",
".R c #a7a8a5",
".S c #a8a9a6",
".T c #a9aba7",
".4 c #aaaba8",
".U c #abaca9",
".5 c #abacaa",
".6 c #adaeab",
".k c #bfbcb3",
".r c #cecbc1",
".x c #cecfca",
".q c #cfccc1",
".y c #cfd1cd",
".E c #d1d3ce",
".z c #d2d4cf",
".A c #d4d6d2",
".L c #d5d7d2",
".p c #d6d3c8",
".B c #d7d9d5",
".e c #d8d8d8",
".j c #d9d8d7",
".C c #d9dad7",
".l c #dadad8",
".M c #dadbd8",
".c c #dbdbdb",
".D c #dbddd9",
".N c #dcdeda",
".W c #dddedb",
".O c #dedfdc",
".X c #dfe1dd",
".K c #dfe1de",
".3 c #e0e2de",
".P c #e1e2df",
".Y c #e2e3df",
".d c #e3e3e3",
".Q c #e3e4e2",
".Z c #e4e5e2",
".0 c #e6e7e5",
"#. c #e7e8e5",
".V c #e7e8e6",
"## c #e8eae8",
".n c #e9b96e",
".1 c #e9e9e7",
".7 c #eaebe8",
".o c #ebe8dc",
".s c #ebe8dd",
".2 c #ebebe9",
"#a c #ebecea",
".8 c #ecedeb",
"#b c #eeefed",
".g c #efe0c7",
".9 c #efefed",
"#c c #f0f1ef",
"#d c #f3f3f1",
".w c #ffffff",
"QtQtQtQtQt.#.#.#QtQtQtQtQtQtQtQt",
"Qt.a.a.a.b.c.d.e.f.a.a.aQtQtQtQt",
".a.g.g.h.i.j.k.l.i.m.g.g.aQtQtQt",
".a.g.n.#.o.p.q.r.s.#.n.g.aQtQtQt",
".a.g.n.t.#.#.#.#.#.t.n.g.aQtQtQt",
".a.g.n.n.n.u.v.v.v.v.v.v.v.v.v.v",
".a.g.n.n.n.v.w.w.w.w.w.w.w.w.w.v",
".a.g.n.n.n.v.w.x.y.z.A.B.C.D.w.v",
".a.g.n.n.n.v.w.E.F.G.H.I.J.K.w.v",
".a.g.n.n.n.v.w.L.B.M.N.O.P.Q.w.v",
".a.g.n.n.n.v.w.C.I.R.S.T.U.V.w.v",
".a.g.n.n.n.v.w.W.X.Y.Z.0.1.2.w.v",
".a.g.n.n.n.v.w.3.4.5.6.7.8.9.w.v",
".a.g.n.n.n.v.w.Z#.###a#b#c#d.w.v",
".a.g.g.g.g.v.w.w.w.w.w.w.w.w.w.v",
"Qt.a.a.a.a#e.v.v.v.v.v.v.v.v.v.v"};
