/* XPM */
static const char *redo_xpm[]={
"16 16 45 1",
". c None",
"v c #4d8d0f",
"H c #4e8f0f",
"# c #4e9a06",
"M c #63b513",
"z c #6dc715",
"C c #77d917",
"J c #78b83a",
"y c #87e927",
"G c #93eb3d",
"P c #9bd860",
"D c #9ddb60",
"d c #a3ee5a",
"E c #a4db6f",
"A c #a4dc6f",
"K c #a7de72",
"O c #abef69",
"q c #b1f173",
"N c #b3f076",
"B c #b5f17b",
"o c #b6f17d",
"Q c #b7f17f",
"t c #bcf387",
"i c #bff38d",
"n c #c2f492",
"L c #c4f496",
"u c #cdedac",
"l c #cef6a6",
"s c #cff6a8",
"m c #d0f6aa",
"r c #d2f7ad",
"I c #d3f7af",
"h c #d4f7b1",
"F c #d7f7b7",
"x c #daf8bc",
"p c #def8c3",
"c c #def8c4",
"j c #dff8c5",
"w c #dff9c5",
"b c #e2faca",
"a c #e3f9ce",
"f c #e6fad2",
"k c #e9fbd7",
"g c #eafbd9",
"e c #ebfbdb",
".........#......",
".........##.....",
".........#a#....",
"......####bc#...",
".....#defghij#..",
"....#hklmnooop#.",
"...#qgrstooooou#",
"..#vwxyzzzzzzA#.",
"..#BwCDDDDDzE#..",
"..#FGDH###DE#...",
"..#IDJ#..#K#....",
"..#LD#...##.....",
"..#MN#...#......",
"...#O#..........",
"...#PQ#.........",
"....###........."};
