/* XPM */
static const char *save_xpm[]={
"16 16 139 2",
"Qt c None",
"#W c #343a3b",
"af c #343b3c",
"ac c #363c3d",
"#U c #363d3e",
"ae c #373d3e",
"#X c #383d3d",
"#7 c #383e3f",
"ag c #3b4040",
"#5 c #3c4040",
"ah c #3c4141",
"#Y c #404443",
"#4 c #424645",
"#Z c #454a48",
"#6 c #494c4a",
"#3 c #4a4c4b",
"#V c #4a4d4b",
"#8 c #4b4e4c",
"#M c #4c5251",
"#9 c #4d504d",
"ab c #4e504e",
".a c #4e9a06",
"a. c #4f514e",
"#2 c #4f524f",
".c c #4f9b07",
"#0 c #50524f",
".j c #509b08",
".b c #509c07",
".# c #509d08",
"a# c #515350",
".u c #519c0a",
"#1 c #535551",
"aa c #535552",
".f c #539d0d",
".n c #549d0e",
"ad c #555c5c",
".v c #559e10",
".5 c #5ea41a",
".O c #5ea41c",
".G c #61a71e",
"#L c #646967",
"ai c #656b6b",
"#C c #66a926",
"#p c #69ab2a",
".Z c #6aa92e",
".J c #6aae2a",
"#J c #6e726f",
"#w c #727673",
".K c #78b042",
"#b c #7aae48",
"#c c #7cb942",
".F c #7fb54c",
"#H c #838580",
".o c #868b81",
"#x c #878a85",
".i c #888a85",
".l c #8ae234",
".h c #8b8d88",
".q c #8c8e89",
"#Q c #8c8f89",
".H c #8ce237",
".k c #8de339",
"#N c #91938e",
"#O c #91948e",
"#R c #939491",
"#o c #93b96f",
".p c #949591",
".g c #949691",
".0 c #94ca60",
"#S c #959893",
"#P c #9b9e99",
"#T c #9da09c",
".2 c #a1e85d",
".P c #addb81",
"#f c #aec39c",
".6 c #b1c59e",
".R c #b5ed7f",
".U c #b9cca6",
"#q c #b9e290",
"#G c #babdb6",
"#u c #bcbeb8",
".3 c #beef8f",
"#y c #c0c3bc",
"#r c #c1d3af",
".Q c #c3f098",
"#F c #c4c6c0",
"#B c #c8e0b1",
"#z c #c9cac5",
"#k c #caccc6",
".N c #cbd8bc",
".4 c #ccedac",
".T c #cdedad",
"#e c #cdf3a8",
"#D c #cee0bd",
".Y c #cfd6c6",
"#a c #d0d4cb",
".B c #d4d4d1",
"#h c #d6d7d3",
"#t c #d9dbd7",
"#d c #dcf5c4",
".1 c #def6c6",
".x c #e1e1df",
"#l c #e1e3e0",
"#E c #e2e3e0",
".I c #e2f8cc",
"#. c #e3e3e1",
".7 c #e3e4e1",
".A c #e3e6df",
".8 c #e4e5e2",
".d c #e4f8d1",
".C c #e5e6e3",
".m c #e5f9d2",
"#n c #e6e7e4",
"#i c #e7e7e5",
".S c #e7f9d6",
".e c #e8f9d6",
".V c #eaeae8",
"#g c #eaeae9",
".L c #ececea",
".X c #ecedeb",
".y c #ededeb",
"#v c #edeeec",
".W c #efefed",
"## c #efefee",
".D c #eff0ee",
".9 c #f0f1ef",
".w c #f0f2ec",
".r c #f1f1ef",
".M c #f2f3f1",
".s c #f5f5f3",
".E c #f5f6f4",
"#j c #f5f6f5",
"#A c #f6f6f5",
"#I c #f8f8f8",
"#s c #fbfcfb",
".z c #fcfcfb",
"#m c #fcfcfc",
".t c #fdfdfd",
"#K c #ffffff",
"QtQtQtQtQt.#.a.a.a.a.bQtQtQtQtQt",
"QtQtQtQtQt.c.d.e.e.e.fQtQtQtQtQt",
".g.h.i.i.i.j.d.k.l.m.n.o.i.i.h.p",
".q.r.s.t.s.u.d.k.l.m.v.w.x.s.r.h",
".i.s.y.z.y.u.d.k.l.m.v.A.B.C.D.i",
".i.E.F.a.a.G.d.H.l.I.J.a.a.K.L.i",
".i.M.N.O.P.e.Q.l.l.R.S.T.O.U.V.i",
".i.W.X.Y.Z.0.1.2.l.3.4.5.6.7.8.i",
".i.9#.###a#b#c#d#e.4.5#f#g#h#i.i",
".i#j#k#l#m#n#o#p#q.5#r#s#t#u#v.i",
"#w.t#x#y#z.8#A#B#C#D#E#F#G#H#I#w",
"#J#K#K#K#K#K#K#K#K#K#K#K#K#K#K#L",
"#M#N#O#O#P#Q#R#O#O#S#T#O#O#P#N#M",
"#U#V#W#X#Y#Z#V#0#1#2#3#4#5#W#6#7",
"#7#V#V#8#9a.#0a#aaa##2aba.#V#6ac",
"adaeacacacacafacacacacacagahaeai"};
