/* XPM */
static const char * state_xpm[] = {
"16 16 63 1",
" 	c None",
".	c #000000",
"+	c #345635",
"@	c #6AA86C",
"#	c #92DE94",
"$	c #AEFFB0",
"%	c #AFF9AF",
"&	c #A1DEA1",
"*	c #7EA87D",
"=	c #435642",
"-	c #192E1B",
";	c #72C577",
">	c #9BFFA0",
",	c #A1FFA5",
"'	c #A7FFAA",
")	c #ADFFAF",
"!	c #B4FFB4",
"~	c #BAFFB9",
"{	c #C0FFBF",
"]	c #C7FFC3",
"^	c #9EC59B",
"/	c #262E24",
"(	c #122314",
"_	c #80E787",
":	c #95FF9B",
"<	c #A2FFA6",
"[	c #BBFFBA",
"}	c #CDFFC9",
"|	c #BFE7B9",
"1	c #1D231C",
"2	c #5AA860",
"3	c #8FFF96",
"4	c #9CFFA0",
"5	c #A8FFAA",
"6	c #C7FFC4",
"7	c #CDFFC8",
"8	c #D3FFCD",
"9	c #8EA88B",
"0	c #81EF89",
"a	c #BAFFBA",
"b	c #C1FFBE",
"c	c #D3FFCE",
"d	c #CBEFC5",
"e	c #95FF9C",
"f	c #9BFFA1",
"g	c #A2FFA5",
"h	c #AEFFAF",
"i	c #B4FFB5",
"j	c #C1FFBF",
"k	c #CCEFC4",
"l	c #8EFF96",
"m	c #A8FFAB",
"n	c #D4FFCE",
"o	c #81E787",
"p	c #BFE7BA",
"q	c #73C578",
"r	c #A1FFA6",
"s	c #B5FFB5",
"t	c #345636",
"u	c #6AA86D",
"v	c #AFF9B0",
"w	c #A2DEA1",
"x	c #7FA87D",
"                ",
"                ",
"      ....      ",
"   .+@#$%&*=.   ",
"  -;>,')!~{]^/  ",
" (_:><'$![{]}|1 ",
".23:4<5)!~{6789.",
".03:>,')!ab]7cd.",
".03efg'hi~j67ck.",
".2l:f,mh![j]7n9.",
" (oe4,5h![b6}p1 ",
"  -q>r5$s[b6^/  ",
"   .tu#hvwx=.   ",
"      ....      ",
"                ",
"                "};
