/* XPM */
static const char *text_xpm[] = {
/* columns rows colors chars-per-pixel */
"16 16 120 2",
"   c #8C8E88",
".  c #8C8E89",
"X  c #8D8F89",
"o  c #8D8F8A",
"O  c #8E908B",
"+  c #8F918C",
"@  c #90928E",
"#  c #91938E",
"$  c #92958F",
"%  c #93958F",
"&  c #949691",
"*  c #969892",
"=  c #969893",
"-  c #979A94",
";  c #989A94",
":  c #999B96",
">  c #999C96",
",  c #9B9D97",
"<  c #9B9D98",
"1  c #9D9F99",
"2  c #9EA19B",
"3  c #A0A29C",
"4  c #A1A49D",
"5  c #A2A49E",
"6  c #A3A6A0",
"7  c #A5A7A1",
"8  c #A7A9A3",
"9  c #A7AAA4",
"0  c #A8AAA4",
"q  c #A8ABA5",
"w  c #A9ABA5",
"e  c #AAADA6",
"r  c #AAACA8",
"t  c #ACB0AA",
"y  c #AFB2AC",
"u  c #B2B5AF",
"i  c #B2B3B1",
"p  c #B5B9B2",
"a  c #B8B9B5",
"s  c #B8BAB4",
"d  c #B9BBB5",
"f  c #B9BBB6",
"g  c #BABBB6",
"h  c #B9BCB6",
"j  c #BABDB7",
"k  c #BBBEB8",
"l  c #BDBEBA",
"z  c #BCBFBA",
"x  c #BEBFBB",
"c  c #BEC0BB",
"v  c #BFC1BB",
"b  c #BFC0BC",
"n  c #BFC1BC",
"m  c #BFC2BD",
"M  c #C1C3BF",
"N  c #C2C5C0",
"B  c #C3C5C1",
"V  c #C4C5C1",
"C  c #C4C5C2",
"Z  c #C5C5C2",
"A  c #C5C6C3",
"S  c #C9CDC6",
"D  c #D5D9D2",
"F  c #D6D9D2",
"G  c #D6DAD3",
"H  c #D8DBD5",
"J  c #D9DCD5",
"K  c #DADDD6",
"L  c #DADDD7",
"P  c #DBDED7",
"I  c #D9DAD8",
"U  c #D9DBD8",
"Y  c #DADBD9",
"T  c #DBDED8",
"R  c #DCDFD9",
"E  c #DDDFD9",
"W  c #DCE0D9",
"Q  c #DCE0DA",
"!  c #DDE0DA",
"~  c #DEE0DA",
"^  c #DEE1DB",
"/  c #DFE2DD",
"(  c #E0E3DC",
")  c #E0E3DD",
"_  c #E1E3DE",
"`  c #E1E4DE",
"'  c #E2E4DF",
"]  c #E2E5DF",
"[  c #E3E5E0",
"{  c #E3E5E1",
"}  c #E3E6E1",
"|  c #E4E6E1",
" . c #E5E7E2",
".. c #E5E8E3",
"X. c #E7E8E4",
"o. c #E7E9E5",
"O. c #E8EAE6",
"+. c #E9EAE7",
"@. c #E9E9E8",
"#. c #EAEBE8",
"$. c #EAECE9",
"%. c #EBECE9",
"&. c #ECEDEA",
"*. c #ECEDEB",
"=. c #EDEEEB",
"-. c #EEEFEC",
";. c #EEEFED",
":. c #EFEFEE",
">. c #EFF0ED",
",. c #EFF0EE",
"<. c #F9FAF9",
"1. c #FCFDFC",
"2. c #FDFDFD",
"3. c #FDFEFD",
"4. c #FEFEFD",
"5. c #FEFEFE",
"6. c #FEFFFE",
"7. c #FFFFFE",
"8. c gray100",
"9. c None",
/* pixels */
"9.9.e w q 0 9 9 8 q 9.9.9.9.9.9.",
"9.w ;.8.8.8.8.8.<.@.y 9.9.9.9.9.",
"9.7 5.%.o...} ` ] I 2.l 9.9.9.9.",
"9.6 3.o.N M m c z a 8.1.r 9.9.9.",
"9.5 2.| _ / ^ W P v t i U 4 9.9.",
"9.3 2.( z k j f s p u S Y 1 9.9.",
"9.2 2.Q L K J H G D F G 5.< 9.9.",
"9.1 2.R g h d d d f f L 5.> 9.9.",
"9., 2.! T R R R R E E ~ 5.; 9.9.",
"9.: 2.) x c b b b n n ` 5.= 9.9.",
"9.- 2.} ' [ [ { | | |  .5.& 9.9.",
"9.* 3.X.B V C Z A o.o.O.5.% 9.9.",
"9.& 4.+.O.+.#.#.$.%.%.&.5.# 9.9.",
"9.$ 5.&.&.=.-.;.>.,.,.,.7.+ 9.9.",
"9.= *.6.7.7.8.8.8.8.8.8.:.% 9.9.",
"9.9.& O O O o o X . .   @ 9.9.9."
};
