/* XPM */
static const char * toolselect_xpm[] = {
"16 16 62 1",
" 	c None",
".	c #EAEAEA",
"+	c #E8E8E8",
"@	c #7E7E7E",
"#	c #DEDEDE",
"$	c #E6E6E6",
"%	c #2C2D36",
"&	c #70717E",
"*	c #DEDEDF",
"=	c #303244",
"-	c #25294B",
";	c #6F707D",
">	c #DFDFDF",
",	c #3A3C57",
"'	c #2F3460",
")	c #1C1F38",
"!	c #76777F",
"~	c #E1E1E2",
"{	c #3F4261",
"]	c #3E4681",
"^	c #181C3C",
"/	c #0B0C18",
"(	c #656568",
"_	c #E1E1E1",
":	c #383B54",
"<	c #383E76",
"[	c #161A38",
"}	c #06060E",
"|	c #09090B",
"1	c #757575",
"2	c #E3E3E3",
"3	c #2C2D3D",
"4	c #393C5B",
"5	c #393D5D",
"6	c #737487",
"7	c #E9E9E9",
"8	c #F3F3F3",
"9	c #3A3B41",
"0	c #B4B5BB",
"a	c #A0A3B4",
"b	c #474B67",
"c	c #C9CACE",
"d	c #CFCFCF",
"e	c #DDDDDD",
"f	c #C4C4C5",
"g	c #D6D6D6",
"h	c #D2D2D8",
"i	c #3E415F",
"j	c #9898A1",
"k	c #D3D3D3",
"l	c #DBDBDB",
"m	c #CDCDCE",
"n	c #7A7C8B",
"o	c #3D3E4E",
"p	c #E4E4E4",
"q	c #E7E7E7",
"r	c #B2B2B8",
"s	c #565661",
"t	c #D0D0D0",
"u	c #DDDDDE",
"v	c #EBEBEC",
"w	c #D2D2D2",
"                ",
"    .+          ",
"    @#$         ",
"    %&*$        ",
"    =-;>$       ",
"    ,')!~$      ",
"    {]^/(_$     ",
"    :<[}|12$    ",
"    3456278+    ",
"    90abcde.    ",
"    fghijk.     ",
"    _lmnoep     ",
"      qrst>     ",
"       uvw2     ",
"        ..      ",
"                "};
